<svg xmlns="http://www.w3.org/2000/svg" xmlns:xlink="http://www.w3.org/1999/xlink" width="232.099" height="169.964" viewBox="0 0 232.099 169.964">
  <defs>
    <clipPath id="clip-path">
      <rect id="Rect치ngulo_34881" data-name="Rect치ngulo 34881" width="195.942" height="99.96" fill="#31313c"/>
    </clipPath>
    <clipPath id="clip-path-2">
      <rect id="Rect치ngulo_35652" data-name="Rect치ngulo 35652" width="161.512" height="162.493" fill="none"/>
    </clipPath>
  </defs>
  <g id="Grupo_158845" data-name="Grupo 158845" transform="translate(-224.5 -1728)">
    <g id="Grupo_158521" data-name="Grupo 158521" transform="translate(224.5 1728)">
      <g id="Grupo_157916" data-name="Grupo 157916" transform="translate(0)">
        <g id="Enmascarar_grupo_63" data-name="Enmascarar grupo 63" transform="translate(0 70.003)" opacity="0.311" clip-path="url(#clip-path)">
          <path id="Trazado_151731" data-name="Trazado 151731" d="M93.295,147.308a54.013,54.013,0,1,1,54.013-54.013,54.074,54.074,0,0,1-54.013,54.013m0,39.282A93.295,93.295,0,1,0,0,93.295,93.295,93.295,0,0,0,93.295,186.59Z" transform="translate(4.047 6.666)" fill="#31313c"/>
        </g>
        <path id="Trazado_145968" data-name="Trazado 145968" d="M40.14,0A40.14,40.14,0,1,1,0,40.14,40.14,40.14,0,0,1,40.14,0Z" transform="translate(151.818)" fill="#31313c" opacity="0.444" style="mix-blend-mode: multiply;isolation: isolate"/>
        <g id="Grupo_78276" data-name="Grupo 78276" transform="translate(102.592 37.759)">
          <g id="Grupo_53306" data-name="Grupo 53306">
            <path id="Trazado_99200" data-name="Trazado 99200" d="M416.4,51.268a1.094,1.094,0,1,1-1.093-1.044A1.07,1.07,0,0,1,416.4,51.268Z" transform="translate(-414.214 -50.224)" fill="#fff"/>
            <path id="Trazado_99201" data-name="Trazado 99201" d="M424.845,51.268a1.094,1.094,0,1,1-1.092-1.044A1.069,1.069,0,0,1,424.845,51.268Z" transform="translate(-412.827 -50.224)" fill="#fff"/>
            <path id="Trazado_99202" data-name="Trazado 99202" d="M433.291,51.268a1.094,1.094,0,1,1-1.092-1.044A1.069,1.069,0,0,1,433.291,51.268Z" transform="translate(-411.441 -50.224)" fill="#fff"/>
            <path id="Trazado_99203" data-name="Trazado 99203" d="M441.738,51.268a1.094,1.094,0,1,1-1.093-1.044A1.07,1.07,0,0,1,441.738,51.268Z" transform="translate(-410.054 -50.224)" fill="#fff"/>
            <path id="Trazado_99204" data-name="Trazado 99204" d="M450.184,51.268a1.094,1.094,0,1,1-1.092-1.044A1.069,1.069,0,0,1,450.184,51.268Z" transform="translate(-408.667 -50.224)" fill="#fff"/>
            <path id="Trazado_99205" data-name="Trazado 99205" d="M458.63,51.268a1.094,1.094,0,1,1-1.092-1.044A1.069,1.069,0,0,1,458.63,51.268Z" transform="translate(-407.28 -50.224)" fill="#fff"/>
            <path id="Trazado_99206" data-name="Trazado 99206" d="M467.077,51.268a1.094,1.094,0,1,1-1.093-1.044A1.07,1.07,0,0,1,467.077,51.268Z" transform="translate(-405.893 -50.224)" fill="#fff"/>
            <path id="Trazado_99207" data-name="Trazado 99207" d="M475.523,51.268a1.094,1.094,0,1,1-1.092-1.044A1.069,1.069,0,0,1,475.523,51.268Z" transform="translate(-404.507 -50.224)" fill="#fff"/>
            <path id="Trazado_99208" data-name="Trazado 99208" d="M483.969,51.268a1.094,1.094,0,1,1-1.092-1.044A1.069,1.069,0,0,1,483.969,51.268Z" transform="translate(-403.12 -50.224)" fill="#fff"/>
            <path id="Trazado_99209" data-name="Trazado 99209" d="M492.416,51.268a1.094,1.094,0,1,1-1.093-1.044A1.07,1.07,0,0,1,492.416,51.268Z" transform="translate(-401.733 -50.224)" fill="#fff"/>
            <path id="Trazado_99210" data-name="Trazado 99210" d="M500.862,51.268a1.094,1.094,0,1,1-1.093-1.044A1.069,1.069,0,0,1,500.862,51.268Z" transform="translate(-400.347 -50.224)" fill="#fff"/>
          </g>
          <g id="Grupo_53307" data-name="Grupo 53307" transform="translate(0 8.359)">
            <path id="Trazado_99211" data-name="Trazado 99211" d="M416.4,58.776a1.094,1.094,0,1,1-1.093-1.044A1.07,1.07,0,0,1,416.4,58.776Z" transform="translate(-414.214 -57.732)" fill="#fff"/>
            <path id="Trazado_99212" data-name="Trazado 99212" d="M424.845,58.776a1.094,1.094,0,1,1-1.092-1.044A1.069,1.069,0,0,1,424.845,58.776Z" transform="translate(-412.827 -57.732)" fill="#fff"/>
            <path id="Trazado_99213" data-name="Trazado 99213" d="M433.291,58.776a1.094,1.094,0,1,1-1.092-1.044A1.069,1.069,0,0,1,433.291,58.776Z" transform="translate(-411.441 -57.732)" fill="#fff"/>
            <path id="Trazado_99214" data-name="Trazado 99214" d="M441.738,58.776a1.094,1.094,0,1,1-1.093-1.044A1.07,1.07,0,0,1,441.738,58.776Z" transform="translate(-410.054 -57.732)" fill="#fff"/>
            <path id="Trazado_99215" data-name="Trazado 99215" d="M450.184,58.776a1.094,1.094,0,1,1-1.092-1.044A1.069,1.069,0,0,1,450.184,58.776Z" transform="translate(-408.667 -57.732)" fill="#fff"/>
            <path id="Trazado_99216" data-name="Trazado 99216" d="M458.63,58.776a1.094,1.094,0,1,1-1.092-1.044A1.069,1.069,0,0,1,458.63,58.776Z" transform="translate(-407.28 -57.732)" fill="#fff"/>
            <path id="Trazado_99217" data-name="Trazado 99217" d="M467.077,58.776a1.094,1.094,0,1,1-1.093-1.044A1.07,1.07,0,0,1,467.077,58.776Z" transform="translate(-405.893 -57.732)" fill="#fff"/>
            <path id="Trazado_99218" data-name="Trazado 99218" d="M475.523,58.776a1.094,1.094,0,1,1-1.092-1.044A1.069,1.069,0,0,1,475.523,58.776Z" transform="translate(-404.507 -57.732)" fill="#fff"/>
            <path id="Trazado_99219" data-name="Trazado 99219" d="M483.969,58.776a1.094,1.094,0,1,1-1.092-1.044A1.069,1.069,0,0,1,483.969,58.776Z" transform="translate(-403.12 -57.732)" fill="#fff"/>
            <path id="Trazado_99220" data-name="Trazado 99220" d="M492.416,58.776a1.094,1.094,0,1,1-1.093-1.044A1.07,1.07,0,0,1,492.416,58.776Z" transform="translate(-401.733 -57.732)" fill="#fff"/>
            <path id="Trazado_99221" data-name="Trazado 99221" d="M500.862,58.776a1.094,1.094,0,1,1-1.093-1.044A1.069,1.069,0,0,1,500.862,58.776Z" transform="translate(-400.347 -57.732)" fill="#fff"/>
          </g>
          <g id="Grupo_53308" data-name="Grupo 53308" transform="translate(0 16.718)">
            <ellipse id="Elipse_3955" data-name="Elipse 3955" cx="1.093" cy="1.045" rx="1.093" ry="1.045" fill="#fff"/>
            <path id="Trazado_99222" data-name="Trazado 99222" d="M424.845,66.284a1.094,1.094,0,1,1-1.092-1.044A1.07,1.07,0,0,1,424.845,66.284Z" transform="translate(-412.827 -65.24)" fill="#fff"/>
            <ellipse id="Elipse_3956" data-name="Elipse 3956" cx="1.093" cy="1.045" rx="1.093" ry="1.045" transform="translate(19.666)" fill="#fff"/>
            <path id="Trazado_99223" data-name="Trazado 99223" d="M441.738,66.284a1.094,1.094,0,1,1-1.093-1.044A1.07,1.07,0,0,1,441.738,66.284Z" transform="translate(-410.054 -65.24)" fill="#fff"/>
            <path id="Trazado_99224" data-name="Trazado 99224" d="M450.184,66.284a1.094,1.094,0,1,1-1.092-1.044A1.07,1.07,0,0,1,450.184,66.284Z" transform="translate(-408.667 -65.24)" fill="#fff"/>
            <ellipse id="Elipse_3957" data-name="Elipse 3957" cx="1.093" cy="1.045" rx="1.093" ry="1.045" transform="translate(49.165)" fill="#fff"/>
            <path id="Trazado_99225" data-name="Trazado 99225" d="M467.077,66.284a1.094,1.094,0,1,1-1.093-1.044A1.071,1.071,0,0,1,467.077,66.284Z" transform="translate(-405.893 -65.24)" fill="#fff"/>
            <ellipse id="Elipse_3958" data-name="Elipse 3958" cx="1.093" cy="1.045" rx="1.093" ry="1.045" transform="translate(68.831)" fill="#fff"/>
            <ellipse id="Elipse_3959" data-name="Elipse 3959" cx="1.093" cy="1.045" rx="1.093" ry="1.045" transform="translate(78.664)" fill="#fff"/>
            <path id="Trazado_99226" data-name="Trazado 99226" d="M492.416,66.284a1.094,1.094,0,1,1-1.093-1.044A1.071,1.071,0,0,1,492.416,66.284Z" transform="translate(-401.733 -65.24)" fill="#fff"/>
            <path id="Trazado_99227" data-name="Trazado 99227" d="M500.862,66.284a1.094,1.094,0,1,1-1.093-1.044A1.07,1.07,0,0,1,500.862,66.284Z" transform="translate(-400.347 -65.24)" fill="#fff"/>
          </g>
          <g id="Grupo_53309" data-name="Grupo 53309" transform="translate(0 25.076)">
            <ellipse id="Elipse_3960" data-name="Elipse 3960" cx="1.093" cy="1.045" rx="1.093" ry="1.045" transform="translate(0 0)" fill="#fff"/>
            <path id="Trazado_99228" data-name="Trazado 99228" d="M424.845,73.792a1.094,1.094,0,1,1-1.092-1.045A1.069,1.069,0,0,1,424.845,73.792Z" transform="translate(-412.827 -72.747)" fill="#fff"/>
            <ellipse id="Elipse_3961" data-name="Elipse 3961" cx="1.093" cy="1.045" rx="1.093" ry="1.045" transform="translate(19.666 0)" fill="#fff"/>
            <path id="Trazado_99229" data-name="Trazado 99229" d="M441.738,73.792a1.094,1.094,0,1,1-1.093-1.045A1.069,1.069,0,0,1,441.738,73.792Z" transform="translate(-410.054 -72.747)" fill="#fff"/>
            <path id="Trazado_99230" data-name="Trazado 99230" d="M450.184,73.792a1.094,1.094,0,1,1-1.092-1.045A1.069,1.069,0,0,1,450.184,73.792Z" transform="translate(-408.667 -72.747)" fill="#fff"/>
            <ellipse id="Elipse_3962" data-name="Elipse 3962" cx="1.093" cy="1.045" rx="1.093" ry="1.045" transform="translate(49.165 0)" fill="#fff"/>
            <path id="Trazado_99231" data-name="Trazado 99231" d="M467.077,73.792a1.094,1.094,0,1,1-1.093-1.045A1.07,1.07,0,0,1,467.077,73.792Z" transform="translate(-405.893 -72.747)" fill="#fff"/>
            <ellipse id="Elipse_3963" data-name="Elipse 3963" cx="1.093" cy="1.045" rx="1.093" ry="1.045" transform="translate(68.831 0)" fill="#fff"/>
            <ellipse id="Elipse_3964" data-name="Elipse 3964" cx="1.093" cy="1.045" rx="1.093" ry="1.045" transform="translate(78.664 0)" fill="#fff"/>
            <path id="Trazado_99232" data-name="Trazado 99232" d="M492.416,73.792a1.094,1.094,0,1,1-1.093-1.045A1.07,1.07,0,0,1,492.416,73.792Z" transform="translate(-401.733 -72.747)" fill="#fff"/>
            <path id="Trazado_99233" data-name="Trazado 99233" d="M500.862,73.792a1.094,1.094,0,1,1-1.093-1.045A1.069,1.069,0,0,1,500.862,73.792Z" transform="translate(-400.347 -72.747)" fill="#fff"/>
          </g>
          <g id="Grupo_53310" data-name="Grupo 53310" transform="translate(0 33.435)">
            <path id="Trazado_99234" data-name="Trazado 99234" d="M416.4,81.3a1.094,1.094,0,1,1-1.093-1.045A1.069,1.069,0,0,1,416.4,81.3Z" transform="translate(-414.214 -80.255)" fill="#fff"/>
            <path id="Trazado_99235" data-name="Trazado 99235" d="M424.845,81.3a1.094,1.094,0,1,1-1.092-1.045A1.069,1.069,0,0,1,424.845,81.3Z" transform="translate(-412.827 -80.255)" fill="#fff"/>
            <path id="Trazado_99236" data-name="Trazado 99236" d="M433.291,81.3a1.094,1.094,0,1,1-1.092-1.045A1.069,1.069,0,0,1,433.291,81.3Z" transform="translate(-411.441 -80.255)" fill="#fff"/>
            <path id="Trazado_99237" data-name="Trazado 99237" d="M441.738,81.3a1.094,1.094,0,1,1-1.093-1.045A1.069,1.069,0,0,1,441.738,81.3Z" transform="translate(-410.054 -80.255)" fill="#fff"/>
            <path id="Trazado_99238" data-name="Trazado 99238" d="M450.184,81.3a1.094,1.094,0,1,1-1.092-1.045A1.069,1.069,0,0,1,450.184,81.3Z" transform="translate(-408.667 -80.255)" fill="#fff"/>
            <path id="Trazado_99239" data-name="Trazado 99239" d="M458.63,81.3a1.094,1.094,0,1,1-1.092-1.045A1.069,1.069,0,0,1,458.63,81.3Z" transform="translate(-407.28 -80.255)" fill="#fff"/>
            <path id="Trazado_99240" data-name="Trazado 99240" d="M467.077,81.3a1.094,1.094,0,1,1-1.093-1.045A1.07,1.07,0,0,1,467.077,81.3Z" transform="translate(-405.893 -80.255)" fill="#fff"/>
            <path id="Trazado_99241" data-name="Trazado 99241" d="M475.523,81.3a1.094,1.094,0,1,1-1.092-1.045A1.069,1.069,0,0,1,475.523,81.3Z" transform="translate(-404.507 -80.255)" fill="#fff"/>
            <path id="Trazado_99242" data-name="Trazado 99242" d="M483.969,81.3a1.094,1.094,0,1,1-1.092-1.045A1.069,1.069,0,0,1,483.969,81.3Z" transform="translate(-403.12 -80.255)" fill="#fff"/>
            <path id="Trazado_99243" data-name="Trazado 99243" d="M492.416,81.3a1.094,1.094,0,1,1-1.093-1.045A1.07,1.07,0,0,1,492.416,81.3Z" transform="translate(-401.733 -80.255)" fill="#fff"/>
            <path id="Trazado_99244" data-name="Trazado 99244" d="M500.862,81.3a1.094,1.094,0,1,1-1.093-1.045A1.069,1.069,0,0,1,500.862,81.3Z" transform="translate(-400.347 -80.255)" fill="#fff"/>
          </g>
          <g id="Grupo_53311" data-name="Grupo 53311" transform="translate(0 41.793)">
            <ellipse id="Elipse_3965" data-name="Elipse 3965" cx="1.093" cy="1.045" rx="1.093" ry="1.045" transform="translate(0 0)" fill="#fff"/>
            <path id="Trazado_99245" data-name="Trazado 99245" d="M424.845,88.808a1.094,1.094,0,1,1-1.092-1.045A1.069,1.069,0,0,1,424.845,88.808Z" transform="translate(-412.827 -87.763)" fill="#fff"/>
            <ellipse id="Elipse_3966" data-name="Elipse 3966" cx="1.093" cy="1.045" rx="1.093" ry="1.045" transform="translate(19.666 0)" fill="#fff"/>
            <path id="Trazado_99246" data-name="Trazado 99246" d="M441.738,88.808a1.094,1.094,0,1,1-1.093-1.045A1.069,1.069,0,0,1,441.738,88.808Z" transform="translate(-410.054 -87.763)" fill="#fff"/>
            <path id="Trazado_99247" data-name="Trazado 99247" d="M450.184,88.808a1.094,1.094,0,1,1-1.092-1.045A1.069,1.069,0,0,1,450.184,88.808Z" transform="translate(-408.667 -87.763)" fill="#fff"/>
            <ellipse id="Elipse_3967" data-name="Elipse 3967" cx="1.093" cy="1.045" rx="1.093" ry="1.045" transform="translate(49.165 0)" fill="#fff"/>
            <path id="Trazado_99248" data-name="Trazado 99248" d="M467.077,88.808a1.094,1.094,0,1,1-1.093-1.045A1.07,1.07,0,0,1,467.077,88.808Z" transform="translate(-405.893 -87.763)" fill="#fff"/>
            <ellipse id="Elipse_3968" data-name="Elipse 3968" cx="1.093" cy="1.045" rx="1.093" ry="1.045" transform="translate(68.831 0)" fill="#fff"/>
            <ellipse id="Elipse_3969" data-name="Elipse 3969" cx="1.093" cy="1.045" rx="1.093" ry="1.045" transform="translate(78.664 0)" fill="#fff"/>
            <path id="Trazado_99249" data-name="Trazado 99249" d="M492.416,88.808a1.094,1.094,0,1,1-1.093-1.045A1.07,1.07,0,0,1,492.416,88.808Z" transform="translate(-401.733 -87.763)" fill="#fff"/>
            <path id="Trazado_99250" data-name="Trazado 99250" d="M500.862,88.808a1.094,1.094,0,1,1-1.093-1.045A1.069,1.069,0,0,1,500.862,88.808Z" transform="translate(-400.347 -87.763)" fill="#fff"/>
          </g>
          <g id="Grupo_53312" data-name="Grupo 53312" transform="translate(0 50.152)">
            <ellipse id="Elipse_3970" data-name="Elipse 3970" cx="1.093" cy="1.045" rx="1.093" ry="1.045" fill="#fff"/>
            <path id="Trazado_99251" data-name="Trazado 99251" d="M424.845,96.315a1.094,1.094,0,1,1-1.092-1.044A1.069,1.069,0,0,1,424.845,96.315Z" transform="translate(-412.827 -95.271)" fill="#fff"/>
            <ellipse id="Elipse_3971" data-name="Elipse 3971" cx="1.093" cy="1.045" rx="1.093" ry="1.045" transform="translate(19.666)" fill="#fff"/>
            <path id="Trazado_99252" data-name="Trazado 99252" d="M441.738,96.315a1.094,1.094,0,1,1-1.093-1.044A1.07,1.07,0,0,1,441.738,96.315Z" transform="translate(-410.054 -95.271)" fill="#fff"/>
            <path id="Trazado_99253" data-name="Trazado 99253" d="M450.184,96.315a1.094,1.094,0,1,1-1.092-1.044A1.069,1.069,0,0,1,450.184,96.315Z" transform="translate(-408.667 -95.271)" fill="#fff"/>
            <ellipse id="Elipse_3972" data-name="Elipse 3972" cx="1.093" cy="1.045" rx="1.093" ry="1.045" transform="translate(49.165)" fill="#fff"/>
            <path id="Trazado_99254" data-name="Trazado 99254" d="M467.077,96.315a1.094,1.094,0,1,1-1.093-1.044A1.07,1.07,0,0,1,467.077,96.315Z" transform="translate(-405.893 -95.271)" fill="#fff"/>
            <ellipse id="Elipse_3973" data-name="Elipse 3973" cx="1.093" cy="1.045" rx="1.093" ry="1.045" transform="translate(68.831)" fill="#fff"/>
            <ellipse id="Elipse_3974" data-name="Elipse 3974" cx="1.093" cy="1.045" rx="1.093" ry="1.045" transform="translate(78.664)" fill="#fff"/>
            <path id="Trazado_99255" data-name="Trazado 99255" d="M492.416,96.315a1.094,1.094,0,1,1-1.093-1.044A1.07,1.07,0,0,1,492.416,96.315Z" transform="translate(-401.733 -95.271)" fill="#fff"/>
            <path id="Trazado_99256" data-name="Trazado 99256" d="M500.862,96.315a1.094,1.094,0,1,1-1.093-1.044A1.069,1.069,0,0,1,500.862,96.315Z" transform="translate(-400.347 -95.271)" fill="#fff"/>
          </g>
          <g id="Grupo_53313" data-name="Grupo 53313" transform="translate(0 58.511)">
            <path id="Trazado_99257" data-name="Trazado 99257" d="M416.4,103.823a1.094,1.094,0,1,1-1.093-1.044A1.07,1.07,0,0,1,416.4,103.823Z" transform="translate(-414.214 -102.779)" fill="#fff"/>
            <path id="Trazado_99258" data-name="Trazado 99258" d="M424.845,103.823a1.094,1.094,0,1,1-1.092-1.044A1.069,1.069,0,0,1,424.845,103.823Z" transform="translate(-412.827 -102.779)" fill="#fff"/>
            <path id="Trazado_99259" data-name="Trazado 99259" d="M433.291,103.823a1.094,1.094,0,1,1-1.092-1.044A1.069,1.069,0,0,1,433.291,103.823Z" transform="translate(-411.441 -102.779)" fill="#fff"/>
            <path id="Trazado_99260" data-name="Trazado 99260" d="M441.738,103.823a1.094,1.094,0,1,1-1.093-1.044A1.07,1.07,0,0,1,441.738,103.823Z" transform="translate(-410.054 -102.779)" fill="#fff"/>
            <path id="Trazado_99261" data-name="Trazado 99261" d="M450.184,103.823a1.094,1.094,0,1,1-1.092-1.044A1.069,1.069,0,0,1,450.184,103.823Z" transform="translate(-408.667 -102.779)" fill="#fff"/>
            <path id="Trazado_99262" data-name="Trazado 99262" d="M458.63,103.823a1.094,1.094,0,1,1-1.092-1.044A1.069,1.069,0,0,1,458.63,103.823Z" transform="translate(-407.28 -102.779)" fill="#fff"/>
            <path id="Trazado_99263" data-name="Trazado 99263" d="M467.077,103.823a1.094,1.094,0,1,1-1.093-1.044A1.07,1.07,0,0,1,467.077,103.823Z" transform="translate(-405.893 -102.779)" fill="#fff"/>
            <path id="Trazado_99264" data-name="Trazado 99264" d="M475.523,103.823a1.094,1.094,0,1,1-1.092-1.044A1.069,1.069,0,0,1,475.523,103.823Z" transform="translate(-404.507 -102.779)" fill="#fff"/>
            <path id="Trazado_99265" data-name="Trazado 99265" d="M483.969,103.823a1.094,1.094,0,1,1-1.092-1.044A1.069,1.069,0,0,1,483.969,103.823Z" transform="translate(-403.12 -102.779)" fill="#fff"/>
            <path id="Trazado_99266" data-name="Trazado 99266" d="M492.416,103.823a1.094,1.094,0,1,1-1.093-1.044A1.07,1.07,0,0,1,492.416,103.823Z" transform="translate(-401.733 -102.779)" fill="#fff"/>
            <path id="Trazado_99267" data-name="Trazado 99267" d="M500.862,103.823a1.094,1.094,0,1,1-1.093-1.044A1.069,1.069,0,0,1,500.862,103.823Z" transform="translate(-400.347 -102.779)" fill="#fff"/>
          </g>
          <g id="Grupo_53314" data-name="Grupo 53314" transform="translate(0 66.87)">
            <ellipse id="Elipse_3975" data-name="Elipse 3975" cx="1.093" cy="1.045" rx="1.093" ry="1.045" fill="#fff"/>
            <path id="Trazado_99268" data-name="Trazado 99268" d="M424.845,111.331a1.094,1.094,0,1,1-1.092-1.044A1.07,1.07,0,0,1,424.845,111.331Z" transform="translate(-412.827 -110.287)" fill="#fff"/>
            <ellipse id="Elipse_3976" data-name="Elipse 3976" cx="1.093" cy="1.045" rx="1.093" ry="1.045" transform="translate(19.666)" fill="#fff"/>
            <path id="Trazado_99269" data-name="Trazado 99269" d="M441.738,111.331a1.094,1.094,0,1,1-1.093-1.044A1.07,1.07,0,0,1,441.738,111.331Z" transform="translate(-410.054 -110.287)" fill="#fff"/>
            <path id="Trazado_99270" data-name="Trazado 99270" d="M450.184,111.331a1.094,1.094,0,1,1-1.092-1.044A1.07,1.07,0,0,1,450.184,111.331Z" transform="translate(-408.667 -110.287)" fill="#fff"/>
            <ellipse id="Elipse_3977" data-name="Elipse 3977" cx="1.093" cy="1.045" rx="1.093" ry="1.045" transform="translate(49.165)" fill="#fff"/>
            <path id="Trazado_99271" data-name="Trazado 99271" d="M467.077,111.331a1.094,1.094,0,1,1-1.093-1.044A1.071,1.071,0,0,1,467.077,111.331Z" transform="translate(-405.893 -110.287)" fill="#fff"/>
            <ellipse id="Elipse_3978" data-name="Elipse 3978" cx="1.093" cy="1.045" rx="1.093" ry="1.045" transform="translate(68.831)" fill="#fff"/>
            <ellipse id="Elipse_3979" data-name="Elipse 3979" cx="1.093" cy="1.045" rx="1.093" ry="1.045" transform="translate(78.664)" fill="#fff"/>
            <path id="Trazado_99272" data-name="Trazado 99272" d="M492.416,111.331a1.094,1.094,0,1,1-1.093-1.044A1.071,1.071,0,0,1,492.416,111.331Z" transform="translate(-401.733 -110.287)" fill="#fff"/>
            <path id="Trazado_99273" data-name="Trazado 99273" d="M500.862,111.331a1.094,1.094,0,1,1-1.093-1.044A1.07,1.07,0,0,1,500.862,111.331Z" transform="translate(-400.347 -110.287)" fill="#fff"/>
          </g>
          <g id="Grupo_53315" data-name="Grupo 53315" transform="translate(0 75.228)">
            <path id="Trazado_99274" data-name="Trazado 99274" d="M416.4,118.839a1.094,1.094,0,1,1-1.093-1.045A1.07,1.07,0,0,1,416.4,118.839Z" transform="translate(-414.214 -117.794)" fill="#fff"/>
            <path id="Trazado_99275" data-name="Trazado 99275" d="M424.845,118.839a1.094,1.094,0,1,1-1.092-1.045A1.07,1.07,0,0,1,424.845,118.839Z" transform="translate(-412.827 -117.794)" fill="#fff"/>
            <path id="Trazado_99276" data-name="Trazado 99276" d="M433.291,118.839a1.094,1.094,0,1,1-1.092-1.045A1.07,1.07,0,0,1,433.291,118.839Z" transform="translate(-411.441 -117.794)" fill="#fff"/>
            <path id="Trazado_99277" data-name="Trazado 99277" d="M441.738,118.839a1.094,1.094,0,1,1-1.093-1.045A1.07,1.07,0,0,1,441.738,118.839Z" transform="translate(-410.054 -117.794)" fill="#fff"/>
            <path id="Trazado_99278" data-name="Trazado 99278" d="M450.184,118.839a1.094,1.094,0,1,1-1.092-1.045A1.07,1.07,0,0,1,450.184,118.839Z" transform="translate(-408.667 -117.794)" fill="#fff"/>
            <path id="Trazado_99279" data-name="Trazado 99279" d="M458.63,118.839a1.094,1.094,0,1,1-1.092-1.045A1.07,1.07,0,0,1,458.63,118.839Z" transform="translate(-407.28 -117.794)" fill="#fff"/>
            <path id="Trazado_99280" data-name="Trazado 99280" d="M467.077,118.839a1.094,1.094,0,1,1-1.093-1.045A1.071,1.071,0,0,1,467.077,118.839Z" transform="translate(-405.893 -117.794)" fill="#fff"/>
            <path id="Trazado_99281" data-name="Trazado 99281" d="M475.523,118.839a1.094,1.094,0,1,1-1.092-1.045A1.07,1.07,0,0,1,475.523,118.839Z" transform="translate(-404.507 -117.794)" fill="#fff"/>
            <path id="Trazado_99282" data-name="Trazado 99282" d="M483.969,118.839a1.094,1.094,0,1,1-1.092-1.045A1.07,1.07,0,0,1,483.969,118.839Z" transform="translate(-403.12 -117.794)" fill="#fff"/>
            <path id="Trazado_99283" data-name="Trazado 99283" d="M492.416,118.839a1.094,1.094,0,1,1-1.093-1.045A1.071,1.071,0,0,1,492.416,118.839Z" transform="translate(-401.733 -117.794)" fill="#fff"/>
            <path id="Trazado_99284" data-name="Trazado 99284" d="M500.862,118.839a1.094,1.094,0,1,1-1.093-1.045A1.07,1.07,0,0,1,500.862,118.839Z" transform="translate(-400.347 -117.794)" fill="#fff"/>
          </g>
          <g id="Grupo_53316" data-name="Grupo 53316" transform="translate(0 83.587)">
            <ellipse id="Elipse_3980" data-name="Elipse 3980" cx="1.093" cy="1.045" rx="1.093" ry="1.045" transform="translate(0 0)" fill="#fff"/>
            <path id="Trazado_99285" data-name="Trazado 99285" d="M424.845,126.347a1.094,1.094,0,1,1-1.092-1.045A1.069,1.069,0,0,1,424.845,126.347Z" transform="translate(-412.827 -125.302)" fill="#fff"/>
            <ellipse id="Elipse_3981" data-name="Elipse 3981" cx="1.093" cy="1.045" rx="1.093" ry="1.045" transform="translate(19.666 0)" fill="#fff"/>
            <path id="Trazado_99286" data-name="Trazado 99286" d="M441.738,126.347a1.094,1.094,0,1,1-1.093-1.045A1.069,1.069,0,0,1,441.738,126.347Z" transform="translate(-410.054 -125.302)" fill="#fff"/>
            <path id="Trazado_99287" data-name="Trazado 99287" d="M450.184,126.347a1.094,1.094,0,1,1-1.092-1.045A1.069,1.069,0,0,1,450.184,126.347Z" transform="translate(-408.667 -125.302)" fill="#fff"/>
            <ellipse id="Elipse_3982" data-name="Elipse 3982" cx="1.093" cy="1.045" rx="1.093" ry="1.045" transform="translate(49.165 0)" fill="#fff"/>
            <path id="Trazado_99288" data-name="Trazado 99288" d="M467.077,126.347a1.094,1.094,0,1,1-1.093-1.045A1.07,1.07,0,0,1,467.077,126.347Z" transform="translate(-405.893 -125.302)" fill="#fff"/>
            <ellipse id="Elipse_3983" data-name="Elipse 3983" cx="1.093" cy="1.045" rx="1.093" ry="1.045" transform="translate(68.831 0)" fill="#fff"/>
            <ellipse id="Elipse_3984" data-name="Elipse 3984" cx="1.093" cy="1.045" rx="1.093" ry="1.045" transform="translate(78.664 0)" fill="#fff"/>
            <path id="Trazado_99289" data-name="Trazado 99289" d="M492.416,126.347a1.094,1.094,0,1,1-1.093-1.045A1.07,1.07,0,0,1,492.416,126.347Z" transform="translate(-401.733 -125.302)" fill="#fff"/>
            <path id="Trazado_99290" data-name="Trazado 99290" d="M500.862,126.347a1.094,1.094,0,1,1-1.093-1.045A1.069,1.069,0,0,1,500.862,126.347Z" transform="translate(-400.347 -125.302)" fill="#fff"/>
          </g>
          <g id="Grupo_53317" data-name="Grupo 53317" transform="translate(0 91.947)">
            <ellipse id="Elipse_3985" data-name="Elipse 3985" cx="1.093" cy="1.045" rx="1.093" ry="1.045" transform="translate(0 0)" fill="#fff"/>
            <path id="Trazado_99291" data-name="Trazado 99291" d="M424.845,133.855a1.094,1.094,0,1,1-1.092-1.045A1.069,1.069,0,0,1,424.845,133.855Z" transform="translate(-412.827 -132.81)" fill="#fff"/>
            <ellipse id="Elipse_3986" data-name="Elipse 3986" cx="1.093" cy="1.045" rx="1.093" ry="1.045" transform="translate(19.666 0)" fill="#fff"/>
            <path id="Trazado_99292" data-name="Trazado 99292" d="M441.738,133.855a1.094,1.094,0,1,1-1.093-1.045A1.069,1.069,0,0,1,441.738,133.855Z" transform="translate(-410.054 -132.81)" fill="#fff"/>
            <path id="Trazado_99293" data-name="Trazado 99293" d="M450.184,133.855a1.094,1.094,0,1,1-1.092-1.045A1.069,1.069,0,0,1,450.184,133.855Z" transform="translate(-408.667 -132.81)" fill="#fff"/>
            <ellipse id="Elipse_3987" data-name="Elipse 3987" cx="1.093" cy="1.045" rx="1.093" ry="1.045" transform="translate(49.165 0)" fill="#fff"/>
            <path id="Trazado_99294" data-name="Trazado 99294" d="M467.077,133.855a1.094,1.094,0,1,1-1.093-1.045A1.07,1.07,0,0,1,467.077,133.855Z" transform="translate(-405.893 -132.81)" fill="#fff"/>
            <ellipse id="Elipse_3988" data-name="Elipse 3988" cx="1.093" cy="1.045" rx="1.093" ry="1.045" transform="translate(68.831 0)" fill="#fff"/>
            <ellipse id="Elipse_3989" data-name="Elipse 3989" cx="1.093" cy="1.045" rx="1.093" ry="1.045" transform="translate(78.664 0)" fill="#fff"/>
            <path id="Trazado_99295" data-name="Trazado 99295" d="M492.416,133.855a1.094,1.094,0,1,1-1.093-1.045A1.07,1.07,0,0,1,492.416,133.855Z" transform="translate(-401.733 -132.81)" fill="#fff"/>
            <path id="Trazado_99296" data-name="Trazado 99296" d="M500.862,133.855a1.094,1.094,0,1,1-1.093-1.045A1.069,1.069,0,0,1,500.862,133.855Z" transform="translate(-400.347 -132.81)" fill="#fff"/>
          </g>
        </g>
      </g>
    </g>
    <g id="Grupo_158844" data-name="Grupo 158844" transform="translate(259.5 1731)">
      <g id="Grupo_158843" data-name="Grupo 158843" clip-path="url(#clip-path-2)">
        <path id="Trazado_154267" data-name="Trazado 154267" d="M25.393,64.487c-1.351-.411-1.473-1.381-1.2-2.566a14.674,14.674,0,0,1,14.326-11.1c6.72.1,12.908,4.939,13.966,11.478a58.776,58.776,0,0,1,.033,16.6,11.974,11.974,0,0,1-3.506,6.783,2.561,2.561,0,0,0-.831,1.984c.05,2.156.085,4.318-.013,6.471-.047,1.046.4,1.361,1.292,1.59,5.414,1.4,10.83,2.794,16.223,4.272A14.2,14.2,0,0,1,76.625,114.2c.052,15.317.016,30.634.024,45.951,0,1.02-.042,2.03-1.271,2.289s-1.719-.6-2.054-1.587c-.677-.779-.495-1.732-.5-2.63q-.015-21.737-.008-43.474c0-6-2.655-9.548-8.44-11.237-3.361-.981-6.773-1.778-10.137-2.738-1.2-.482-2.476-.687-3.878-1.088,1.5,3.555,3.141,6.866,4.721,10.2,1.017,2.144,1.977,4.313,3.02,6.445.953,1.945.677,2.767-1.167,3.887-1.52.924-3.076,1.791-4.63,2.656a1.57,1.57,0,0,0-.755,2.278c1.017,2.612,1.911,5.272,2.942,7.88a3.435,3.435,0,0,1-.662,3.732c-3.81,4.755-7.6,9.527-11.515,14.2a7.274,7.274,0,0,0-1.893,6.059c-.09,1.288.335,2.629-.409,3.844-.194.914-.636,1.6-1.671,1.6s-1.477-.685-1.671-1.6c-.739-1.215-.321-2.553-.415-3.834a7.019,7.019,0,0,0-1.883-6.048c-3.809-4.4-7.3-9.065-11.09-13.479a4.7,4.7,0,0,1-.867-5.475c.988-2.272,1.708-4.653,2.621-6.957.413-1.042.284-1.687-.765-2.23-1.482-.766-2.906-1.646-4.359-2.471-2.148-1.222-2.46-2.143-1.361-4.339,2.695-5.384,5.165-10.876,7.867-16.423-1.359.551-2.694.709-3.956,1.155-3.482.972-7,1.817-10.47,2.8a10.622,10.622,0,0,0-7.776,7.305,11.062,11.062,0,0,0-.351,3.362q0,22-.008,44c0,.9.2,1.855-.518,2.619-.344.967-.81,1.852-2.042,1.6s-1.3-1.251-1.3-2.275c.007-15.3-.032-30.6.023-45.9C.057,107.011,4.3,101.753,11.368,99.9c5.3-1.386,10.593-2.806,15.9-4.169.921-.237,1.368-.616,1.25-1.628a13.226,13.226,0,0,1-.01-2.421c.2-2.935.008-5.6-2.288-7.973-1.765-1.827-2.195-4.485-2.424-7.05-.117-1.307.257-2.215,1.6-2.563,1.672-.135,1.907,1.019,2.054,2.271a11.171,11.171,0,0,0,3.3,7.185,10.4,10.4,0,0,0,11.66,2.309c4.263-1.665,6.507-5.11,6.783-9.623.223-3.655.127-7.335.027-11a10.958,10.958,0,0,0-9.823-10.7c-4.928-.653-9.866,2.694-11.488,7.788-.667,2.1-.927,2.319-2.515,2.158"/>
        <path id="Trazado_154268" data-name="Trazado 154268" d="M94.981,101.93c-.112-1.333.625-1.926,1.824-2.233,5.054-1.295,10.091-2.65,15.15-3.922,1.051-.264,1.6-.66,1.416-1.831a10.372,10.372,0,0,1-.014-2.1c.155-2.97.107-5.745-2.3-8.131a9.262,9.262,0,0,1-2.306-6.258c-.2-4.843-.53-9.719.164-14.533a14.481,14.481,0,0,1,28.732,1.413,81.733,81.733,0,0,1-.2,14.052,12.7,12.7,0,0,1-3.475,7.147,3.128,3.128,0,0,0-.926,2.438c.056,2,.1,4-.016,5.985-.072,1.181.4,1.555,1.441,1.821q7.974,2.031,15.916,4.184c6.88,1.855,11.058,7.121,11.089,14.262.066,15.32.021,30.64.027,45.96,0,1.027-.09,2.021-1.314,2.264s-1.685-.662-2.04-1.614c-.7-.772-.5-1.729-.5-2.625-.012-14.55-.137-29.1.052-43.649a11.006,11.006,0,0,0-8.64-11.145c-3.355-.8-6.679-1.715-10-2.636-1.2-.49-2.475-.668-3.872-1.106,1.537,3.614,3.2,6.966,4.788,10.347,1.03,2.191,2.013,4.406,3.093,6.575.779,1.564.524,2.424-.983,3.409-1.577,1.03-3.246,1.913-4.891,2.829a1.626,1.626,0,0,0-.794,2.394c1.05,2.536,1.865,5.164,2.883,7.713a3.518,3.518,0,0,1-.665,3.871c-3.835,4.721-7.531,9.559-11.492,14.174a7.167,7.167,0,0,0-1.881,6.051c-.083,1.294.328,2.639-.414,3.859-.159.936-.637,1.568-1.65,1.571s-1.454-.694-1.669-1.582c-.765-1.209-.343-2.551-.435-3.834A7.044,7.044,0,0,0,119.209,151c-3.817-4.453-7.365-9.134-11.17-13.6a4.436,4.436,0,0,1-.843-5.167c1-2.317,1.724-4.756,2.679-7.1a1.576,1.576,0,0,0-.869-2.343c-1.484-.756-2.9-1.64-4.353-2.47-2.006-1.149-2.371-2.02-1.345-4.09,1.889-3.811,3.594-7.709,5.537-11.493.811-1.579,1.469-3.224,2.3-5.014-1.331.347-2.512.63-3.686.956-3.046.823-6.083,1.67-9.145,2.423a4.2,4.2,0,0,1-2.373.08c-.58-.193-1.077-.508-.964-1.259"/>
        <path id="Trazado_154269" data-name="Trazado 154269" d="M86.022,1.948l3.086.747a6.048,6.048,0,0,0,3.118,2.579A26.832,26.832,0,0,1,105.815,38.6a23.024,23.024,0,0,1-2.717,5.317,3.493,3.493,0,0,0-.419,3.5c.552,1.462,1.055,2.947,1.477,4.452.411,1.468.051,1.842-1.393,1.454A51.055,51.055,0,0,1,97.818,51.8a3.335,3.335,0,0,0-3.065.292c-9.241,5.257-18.524,5.45-27.794.068a3.65,3.65,0,0,0-3.379-.331c-1.408.539-2.85,1-4.3,1.42-.607.177-1.324.536-1.848.044-.551-.517-.147-1.223.041-1.826.4-1.287.779-2.587,1.286-3.833a4.006,4.006,0,0,0-.472-3.937C52.963,35,52.5,25.946,57.151,16.9,61.084,9.249,67.571,4.716,76.044,3.1c1.327-.253,2.656-.431,3.516-1.647l3.131.109c1.457,1.546,1.466,1.547,3.331.386" fill="#efbf20"/>
        <path id="Trazado_154270" data-name="Trazado 154270" d="M40.017,160.868q0-2.1,0-4.207c5.271-5.984,10.042-12.379,15.15-18.495a5.376,5.376,0,0,0,1.02-5.966c-.78-1.948-1.412-3.959-2.211-5.9a1.832,1.832,0,0,1,.885-2.68c1.131-.623,2.261-1.254,3.361-1.937,2.343-1.456,2.972-3.226,1.825-5.76q-1.566-3.458-3.233-6.871c-1.187-2.419-2.243-4.9-3.437-7.313-.231-.467-1.1-1.506.529-1.436,4.056,1.067,8.18,1.929,12.149,3.256,4.311,1.441,7.137,4.719,7.2,9.24.211,16.017.075,32.039.071,48.06l-9.066.005c-.719-.763-.518-1.725-.52-2.618q-.024-16.344-.012-32.689a7.585,7.585,0,0,0-.2-2.408c-.159-.479-.427-.921-1-.91-.6.011-.791.483-.89.982a11.613,11.613,0,0,0-.108,2.259q0,16.426-.014,32.852c0,.938.251,1.965-.569,2.749a3.128,3.128,0,0,0-1.577-.219l-19.347.007" fill="#72c1e8"/>
        <path id="Trazado_154271" data-name="Trazado 154271" d="M124.829,160.9l0-4.207c5.287-6.045,10.108-12.472,15.263-18.623a5.305,5.305,0,0,0,1-5.7c-.782-2.124-1.506-4.271-2.354-6.37a1.605,1.605,0,0,1,.785-2.285c1.206-.714,2.445-1.368,3.634-2.113,2.174-1.362,2.79-3.111,1.761-5.525-.866-2.03-1.838-4.019-2.8-6-1.343-2.764-2.559-5.586-3.938-8.333-.266-.529-.974-1.5.552-1.486,3.853,1.005,7.729,1.929,11.553,3.034a10.72,10.72,0,0,1,7.887,10.143c.079,15.7.034,31.391.034,47.087a1.629,1.629,0,0,1-.065.316l-9.068.041c-.759-.812-.525-1.83-.526-2.773q-.028-16.248-.014-32.5a7.817,7.817,0,0,0-.187-2.407c-.151-.474-.39-.934-.98-.918s-.8.473-.911.969a10.378,10.378,0,0,0-.123,2.255q0,16.331-.014,32.659c0,.936.254,1.964-.578,2.742l-20.918-.01" fill="#868686"/>
        <path id="Trazado_154272" data-name="Trazado 154272" d="M94.981,101.93c.649,1.175,1.658,1.194,2.79.895q4.9-1.292,9.817-2.56c1.55-.025.8.955.545,1.475-1.094,2.283-2.16,4.578-3.246,6.865-1.131,2.383-2.336,4.731-3.4,7.146-1.124,2.541-.593,4.481,1.752,5.957a35.853,35.853,0,0,0,3.227,1.84,1.757,1.757,0,0,1,.991,2.606c-.832,2.044-1.415,4.193-2.33,6.2a4.635,4.635,0,0,0,.8,5.361c5.195,6.321,10.2,12.8,15.584,18.966q0,2.1.007,4.205l-19.949-.022c-.479,0-.976-.062-1.352.345-.774-.805-.535-1.825-.537-2.766q-.027-16.41-.013-32.819a14.416,14.416,0,0,0-.065-2.1c-.087-.591-.175-1.27-.959-1.262-.727.008-.937.634-1.065,1.23a9.974,9.974,0,0,0-.113,2.094q0,16.329-.011,32.657c0,.894.195,1.852-.51,2.62l-8.746-.012a2.784,2.784,0,0,1-.5-2.14q-.018-22.539,0-45.078a7.223,7.223,0,0,1,.166-1.927,6.281,6.281,0,0,0,0-3.646c.508-.988,1.5-1.7,1.653-2.891,2.268.243,2.268.243,2.585-1.939l2.89-1.3" fill="#868686"/>
        <path id="Trazado_154273" data-name="Trazado 154273" d="M36.675,156.66v4.208l-21.21.005c-.877-.755-.6-1.791-.606-2.723q-.033-16.336-.015-32.675a12.25,12.25,0,0,0-.085-2.1c-.093-.544-.233-1.119-.927-1.122-.659,0-.9.537-1.042,1.065a9.529,9.529,0,0,0-.148,2.416q0,16.174-.012,32.351c0,.944.231,1.962-.525,2.775l-8.761-.011c-.03-.536-.087-1.071-.087-1.606q-.006-21.888,0-43.777c0-7.164,2.8-10.822,9.7-12.642,3.269-.862,6.549-1.686,9.824-2.526.723-.307.887.088.819.688a3.493,3.493,0,0,1-.469,1.2C21.124,106,19.489,110,17.485,113.821q-.338.644-.622,1.316c-1.552,3.683-.994,5.1,2.484,7.139,4.489,2.625,4.065,1.241,2.315,6.421-.483,1.428-1.03,2.836-1.587,4.238a4.173,4.173,0,0,0,.782,4.517c5.172,6.207,10.026,12.676,15.429,18.692.143.16.247.353.389.516" fill="#72c1e8"/>
        <path id="Trazado_154274" data-name="Trazado 154274" d="M79.56,1.453c-.081,1.258-.826,1.659-2.007,1.841C65.805,5.105,57.479,12.7,55.073,23.94A25.221,25.221,0,0,0,58.8,43.708a3.726,3.726,0,0,1,.5,3.744c-.712,1.848-1.258,3.76-1.975,5.95,2.348-.761,4.467-1.4,6.552-2.142a3.142,3.142,0,0,1,2.89.312q13.977,8.241,27.983,0a3.137,3.137,0,0,1,2.888-.3c2.067.728,4.166,1.365,6.522,2.127-.708-2.166-1.3-4.155-2.014-6.1a3.484,3.484,0,0,1,.473-3.451A26.261,26.261,0,0,0,92.068,5.666a13.122,13.122,0,0,0-1.479-.64,1.929,1.929,0,0,1-1.481-2.331c.711-1.141,1.631-1.131,2.788-.664a29.5,29.5,0,0,1,14.115,42.5,3.293,3.293,0,0,0-.326,3.144c.846,2.381,1.568,4.805,2.377,7.2a1.916,1.916,0,0,1-.275,2.242,1.876,1.876,0,0,1-2.109.2c-2.7-.9-5.428-1.737-8.122-2.665a2.159,2.159,0,0,0-1.947.2Q80.765,63,65.9,54.834a2.166,2.166,0,0,0-1.949-.192c-2.744.944-5.524,1.783-8.275,2.71a1.7,1.7,0,0,1-2.3-2.324c.853-2.606,1.66-5.227,2.567-7.814a2.381,2.381,0,0,0-.2-2.258A29.438,29.438,0,0,1,74.84.46c.788-.173,1.592-.276,2.389-.409a1.79,1.79,0,0,1,2.331,1.4"/>
        <path id="Trazado_154275" data-name="Trazado 154275" d="M25.393,64.487c1.167,0,1.67-.663,1.964-1.741,1.557-5.695,6.774-9.362,12.188-8.627A11.343,11.343,0,0,1,49.639,65.645c-.01,4.089.437,8.211-.244,12.266a11.1,11.1,0,0,1-12.026,9.181,11.232,11.232,0,0,1-10.3-10.605C27,75.246,26.654,74.41,25.4,74.1c-.1-1.055.232-2.146-.255-3.17,1.724-1.344,1.724-1.344.254-3.31q0-1.566,0-3.134" fill="#fdb59e"/>
        <path id="Trazado_154276" data-name="Trazado 154276" d="M87.853,108.059a1.845,1.845,0,0,1,.784,2.494,9.722,9.722,0,0,0-.516,3.49q.006,23,0,46.005c0,.268.044.535.067.8-.348.966-.816,1.849-2.05,1.6s-1.283-1.251-1.282-2.273q.013-23.025.01-46.048a15.8,15.8,0,0,1,.64-4.45c.365-1.253,1.048-1.823,2.345-1.616" fill="#010101"/>
        <path id="Trazado_154277" data-name="Trazado 154277" d="M89.162,81.326a1.722,1.722,0,0,1-1.345,1.566c-3.1.81-4.529,3.046-5.178,5.984-.227,1.027-.575,2.044-1.9,2.033s-1.673-1.035-1.854-2.068A6.941,6.941,0,0,0,73.81,82.96a1.765,1.765,0,0,1-1.45-1.714,1.673,1.673,0,0,1,1.407-1.726c2.968-.772,4.386-2.9,5.048-5.712a8.188,8.188,0,0,1,.364-1.238,1.708,1.708,0,0,1,3.15.017c.251.651.42,1.334.61,2.007A6.3,6.3,0,0,0,87.464,79.4a1.939,1.939,0,0,1,1.7,1.925"/>
        <path id="Trazado_154278" data-name="Trazado 154278" d="M60.941,161.08q.006-18.355.013-36.712c0-.484-.011-.971.025-1.454a1.577,1.577,0,0,1,3.116-.2,6.961,6.961,0,0,1,.094,1.605q.006,17.386.006,34.773c0,.591.041,1.182.063,1.773-.274.833-.628,1.6-1.674,1.609a1.57,1.57,0,0,1-1.643-1.391" fill="#000101"/>
        <path id="Trazado_154279" data-name="Trazado 154279" d="M12.1,160.863q.032-13.172.063-26.343c.007-3.664-.019-7.328.011-10.992.013-1.582,1-2.42,2.179-1.96,1,.391,1.057,1.228,1.055,2.131q-.018,6.951,0,13.9.021,11.636.057,23.272c-.176.927-.625,1.591-1.662,1.6-1.058.007-1.433-.753-1.7-1.607" fill="#000101"/>
        <path id="Trazado_154280" data-name="Trazado 154280" d="M96.936,160.862q.03-14.142.06-28.283c.006-3.017,0-6.035,0-9.052,0-1.177.464-2.1,1.737-2.052,1.2.045,1.51.965,1.508,2.075q-.036,18.828-.036,37.657a1.5,1.5,0,0,1-1.583,1.265c-1.061,0-1.4-.781-1.69-1.61" fill="#010101"/>
        <path id="Trazado_154281" data-name="Trazado 154281" d="M145.747,160.9q.022-18.27.044-36.539c0-2.11.514-3.072,1.661-2.9,1.709.251,1.578,1.616,1.579,2.876q.02,18.269.049,36.538c-.249.859-.64,1.594-1.678,1.593-1.017,0-1.5-.626-1.655-1.564"/>
        <path id="Trazado_154282" data-name="Trazado 154282" d="M25.4,67.622c.9.287,1.7.706,1.6,1.822-.1,1.089-.842,1.486-1.857,1.487A1.6,1.6,0,0,1,23.806,69.2c.063-.954.8-1.313,1.591-1.575" fill="#070606"/>
        <path id="Trazado_154283" data-name="Trazado 154283" d="M86.022,1.948A1.615,1.615,0,0,1,84.28,3.274c-1.082-.054-1.385-.838-1.589-1.712C83.044.727,83.512,0,84.566.131c1.035.128,1.42.85,1.456,1.817" fill="#050503"/>
        <path id="Trazado_154284" data-name="Trazado 154284" d="M92.091,103.229c.518.886.595,1.763-.329,2.4a1.606,1.606,0,0,1-2.256-.456,1.52,1.52,0,0,1,.412-2.117,1.622,1.622,0,0,1,2.173.178" fill="#040404"/>
        <path id="Trazado_154285" data-name="Trazado 154285" d="M29.138,102.433c.456,1.414,6.548,42.808,6.533,44.434-2.689-3.305-5.085-6.625-7.883-9.562-2.01-2.11-2.261-3.99-1.046-6.519,1.064-2.217,1.7-4.634,2.621-6.926a2,2,0,0,0-1.075-2.9c-1.85-.982-3.641-2.074-5.464-3.109-.433-.246-.877-.426-.561-1.082,2.279-4.73,4.544-9.467,6.875-14.331" fill="#fff"/>
        <path id="Trazado_154286" data-name="Trazado 154286" d="M40.9,146.506c2.151-14.625,4.3-29.251,6.519-44.333,2.413,5.128,4.608,9.843,6.86,14.529.38.79-.128.9-.581,1.164-1.773,1.016-3.509,2.1-5.326,3.033-1.459.747-1.688,1.7-1.111,3.167,1.2,3.048,2.278,6.144,3.412,9.218.2.55.469,1.023-.025,1.627-3.162,3.873-6.284,7.779-9.419,11.674l-.329-.079" fill="#fff"/>
        <path id="Trazado_154287" data-name="Trazado 154287" d="M36.675,156.66c-1.851-.762-2.761-2.5-3.937-3.921-4.143-4.992-8.187-10.065-12.274-15.1a4.29,4.29,0,0,1-.892-4.49c.9-2.414,1.653-4.891,2.677-7.25.522-1.2.127-1.552-.852-2.023a33.125,33.125,0,0,1-3.759-2.189,3.985,3.985,0,0,1-1.62-5.476c2.23-4.837,4.581-9.618,6.835-14.443.187-.4,1.186-1.053-.071-1.465,1.328-.378,2.655-.758,4.015-1.147.2.635-.189,1-.378,1.394q-3.707,7.8-7.436,15.58c-1.126,2.358-1.022,2.681,1.2,3.938,1.593.9,3.155,1.858,4.776,2.7.863.451,1.1.893.713,1.861-1.061,2.642-1.9,5.379-3.031,7.988a3.692,3.692,0,0,0,.759,4.363c3.886,4.614,7.558,9.41,11.49,13.984a6.455,6.455,0,0,1,1.783,5.694" fill="#4ba4c7"/>
        <path id="Trazado_154288" data-name="Trazado 154288" d="M53.907,100.3c-1.019.2-.437.774-.244,1.185q3.2,6.783,6.443,13.547a6.282,6.282,0,0,1,.89,3.541,4.007,4.007,0,0,1-2,3.137c-1.394.809-2.756,1.68-4.193,2.4-.839.422-.882.9-.587,1.667.827,2.155,1.524,4.363,2.42,6.487a5.426,5.426,0,0,1-1.074,6.077c-4.324,5.253-8.522,10.611-12.81,15.9a6.5,6.5,0,0,1-2.73,2.417,6.5,6.5,0,0,1,1.777-5.7c4.013-4.718,7.786-9.639,11.722-14.423a3.052,3.052,0,0,0,.547-3.514c-1.144-2.784-2.064-5.658-3.17-8.458-.363-.917-.16-1.333.663-1.766,1.714-.9,3.384-1.887,5.06-2.859,1.92-1.112,2.048-1.507,1.12-3.481q-3.642-7.738-7.3-15.468c-.249-.528-.483-1.064-.8-1.77a19.621,19.621,0,0,1,4.273,1.08" fill="#4ba4c7"/>
        <path id="Trazado_154289" data-name="Trazado 154289" d="M38.122,139.992c-1.409-9.523-2.8-19.008-4.231-28.487-.2-1.315-.122-2.37,1.09-3.228s2.14-2.847,3.364-2.762c1.183.082,2.24,1.814,3.375,2.795a2.58,2.58,0,0,1,1.181,2.578c-1.436,9.316-2.792,18.644-4.178,27.967-.06.4.047.9-.6,1.137" fill="#71c1e8"/>
        <path id="Trazado_154290" data-name="Trazado 154290" d="M44.819,95.767c-1.8,1.781-3.963,3.1-5.9,4.7a.789.789,0,0,1-1.147,0c-1.927-1.616-4.095-2.93-5.9-4.7-.025-.047-.071-.094-.073-.142-.234-4.255-.389-4.035,3.427-3.174a16.532,16.532,0,0,0,7.338-.243c2.362-.535,2.425-.467,2.4,1.987a2.918,2.918,0,0,1-.151,1.574" fill="#fdb59e"/>
        <path id="Trazado_154291" data-name="Trazado 154291" d="M44.819,95.767c-.171-1.109.457-2.554-.283-3.259-.711-.677-1.982.242-3,.424a17.06,17.06,0,0,1-8.238-.43c-1.078-.339-1.484-.154-1.393,1.012.059.745-.013,1.5-.027,2.251-.5-2.234.038-4.46-.145-6.743,6.39,1.735,6.39,1.735,13.239.006-.162,2.277.342,4.506-.149,6.739" fill="#e98e7b"/>
        <path id="Trazado_154292" data-name="Trazado 154292" d="M33.066,105.679c-.265-1.862-.48-3.373-.726-5.1a19.149,19.149,0,0,1,3.468,2.508l-2.742,2.6" fill="#6ebbe1"/>
        <path id="Trazado_154293" data-name="Trazado 154293" d="M43.587,105.551c-2.838-2.45-2.838-2.45-.177-4.453.206-.155.414-.306.808-.6a24.618,24.618,0,0,1-.631,5.05" fill="#6fbde2"/>
        <path id="Trazado_154294" data-name="Trazado 154294" d="M134.477,71.323c-.126,1.809.264,4.244-.22,6.651A11.188,11.188,0,0,1,122.469,87.1a11.007,11.007,0,0,1-10.507-10.2,61.213,61.213,0,0,1,.191-13.718,11.143,11.143,0,0,1,11.807-9.1,11.363,11.363,0,0,1,10.506,10.808c.07,1.939.011,3.883.011,6.434" fill="#fdb59e"/>
        <path id="Trazado_154295" data-name="Trazado 154295" d="M120.27,146.567c-2.643-3.247-5.169-6.6-7.975-9.7-1.632-1.8-1.988-3.347-.882-5.561a64.68,64.68,0,0,0,2.612-6.945c.8-2.217.681-2.507-1.433-3.71-1.639-.932-3.273-1.872-4.913-2.8-.434-.246-.876-.436-.559-1.094,2.257-4.7,4.5-9.4,7.077-14.063q3.213,21.856,6.425,43.713l-.352.161" fill="#868686"/>
        <path id="Trazado_154296" data-name="Trazado 154296" d="M125.747,146.442l6.429-43.72.291-.068q1.44,3.025,2.878,6.053c1.148,2.433,2.207,4.912,3.463,7.288.617,1.168.307,1.636-.742,2.17-1.677.855-3.25,1.912-4.925,2.769a2.059,2.059,0,0,0-1.109,2.926c1.161,3.125,2.3,6.258,3.457,9.386.2.548.49,1.037,0,1.64-3.15,3.878-6.269,7.781-9.4,11.676l-.344-.12" fill="#868686"/>
        <path id="Trazado_154297" data-name="Trazado 154297" d="M138.739,100.255c-1.158.278-.372.906-.181,1.314q3.173,6.8,6.4,13.569c1.607,3.387,1.065,5.167-2.091,7.13-1.359.844-3.516,1.218-3.89,2.6-.334,1.231.865,2.877,1.388,4.34a10.571,10.571,0,0,0,.56,1.511c1.878,3.445.889,6.194-1.586,9.031-4.127,4.732-7.912,9.761-11.882,14.63a6.087,6.087,0,0,1-2.627,2.313,6.646,6.646,0,0,1,1.781-5.705c4.164-4.857,8.076-9.93,12.094-14.912a2.193,2.193,0,0,0,.392-2.387c-1.129-2.908-2.136-5.863-3.283-8.762-.445-1.124-.265-1.725.847-2.282,1.778-.89,3.46-1.971,5.2-2.943,1.261-.705,1.537-1.564.878-2.93-2.778-5.764-5.473-11.568-8.283-17.537a20.387,20.387,0,0,1,4.282,1.025" fill="#4c4944"/>
        <path id="Trazado_154298" data-name="Trazado 154298" d="M121.5,156.679c-1.806-.742-2.689-2.441-3.835-3.826-4.15-5.015-8.217-10.1-12.313-15.158a4.526,4.526,0,0,1-.821-4.953c.951-2.283,1.727-4.639,2.639-6.94.338-.852.247-1.336-.638-1.773a41.178,41.178,0,0,1-3.922-2.249,4.351,4.351,0,0,1-1.656-5.9c2.263-4.769,4.556-9.525,6.805-14.3.188-.4,1-1.032-.174-1.311l4.313-1.179c-.725,1.59-1.309,2.928-1.94,4.245-2.067,4.319-4.16,8.626-6.226,12.946-1.025,2.142-.867,2.582,1.157,3.72,1.688.949,3.338,1.971,5.06,2.853.833.426.877.881.579,1.655-1.081,2.809-2.09,5.646-3.176,8.452a3.143,3.143,0,0,0,.515,3.55c4.029,4.828,7.855,9.829,11.958,14.591a6.63,6.63,0,0,1,1.675,5.581" fill="#4c4944"/>
        <path id="Trazado_154299" data-name="Trazado 154299" d="M123.028,140.445q-.9-6.051-1.8-12.1c-.824-5.592-1.589-11.194-2.49-16.774a3,3,0,0,1,1.157-3.349c1.209-.876,2.093-2.829,3.384-2.735,1.134.082,2.149,1.787,3.218,2.774.74.685,1.446,1.231,1.245,2.542-1.52,9.883-2.934,19.782-4.382,29.676l-.33-.033" fill="#71c1e8"/>
        <path id="Trazado_154300" data-name="Trazado 154300" d="M129.646,95.79c-1.817,1.758-3.971,3.093-5.907,4.7-.5.418-.867.175-1.275-.141-1.742-1.352-3.466-2.73-5.256-4.015-.728-.523-.615-1.183-.613-1.862,0-.751.043-1.5.067-2.254.774-.541,1.559-.173,2.323,0a17.685,17.685,0,0,0,8.587-.038c2.045-.537,2.234-.356,2.212,1.709a4.281,4.281,0,0,1-.138,1.9" fill="#fcb59e"/>
        <path id="Trazado_154301" data-name="Trazado 154301" d="M129.646,95.79c-.229-1.137.527-2.728-.411-3.316-.679-.426-2.094.383-3.194.56a19.53,19.53,0,0,1-8.128-.547c-.413-.108-.834-.18-1.251-.269V89.2c.346-.326.61-.029.879.076a14.467,14.467,0,0,0,11.131.013c.978-.4,1.238-.222,1.171.782-.127,1.9.3,3.83-.2,5.723" fill="#e98e7b"/>
        <path id="Trazado_154302" data-name="Trazado 154302" d="M128.475,105.69l-2.788-2.635,3.533-2.7c-.268,1.918-.483,3.462-.745,5.334" fill="#6ebbe0"/>
        <path id="Trazado_154303" data-name="Trazado 154303" d="M120.643,103.079l-2.713,2.575c-.267-1.794-.5-3.334-.759-5.1a21.53,21.53,0,0,1,3.472,2.53" fill="#6fbce2"/>
        <path id="Trazado_154304" data-name="Trazado 154304" d="M80.772,43.124c-4.692,0-9.385.017-14.077,0-3.028-.014-4.293-1.306-4.3-4.37q-.021-7.929,0-15.857c.009-3.108,1.338-4.42,4.435-4.431,1.618-.006,3.237-.037,4.854.012.85.026,1.217-.149,1.249-1.134.169-5.211.713-5.693,6.022-5.693,1.888,0,3.776-.022,5.663.008,2.607.042,3.931,1.4,3.985,4.025.057,2.78.057,2.78,2.8,2.78,1.295,0,2.59-.029,3.883.009,2.245.064,3.759,1.362,3.792,3.576q.128,8.736.005,17.474c-.031,2.3-1.506,3.574-3.909,3.593-4.8.037-9.6.011-14.4.012"/>
        <path id="Trazado_154305" data-name="Trazado 154305" d="M91.422,129.9q0-7.843,0-15.686c-.01-5.429,4.014-8.289,8.909-8.782a1.538,1.538,0,0,1,.65,2.986c-.706.257-1.439.442-2.166.638-2.829.763-4.146,2.425-4.15,5.358q-.018,15.363-.006,30.726c0,.432,0,.863,0,1.294-.016,1.109-.478,2-1.654,1.973-1.153-.023-1.6-.86-1.59-2.012.026-5.5.012-11,.012-16.5" fill="#fff"/>
        <path id="Trazado_154306" data-name="Trazado 154306" d="M94.653,154.311c.037.938.011,1.859-.98,2.362a1.47,1.47,0,0,1-1.97-.567,5.026,5.026,0,0,1,.129-3.859,1.552,1.552,0,0,1,2.059-.258c.856.526.792,1.452.762,2.322" fill="#ededed"/>
        <path id="Trazado_154307" data-name="Trazado 154307" d="M6.615,129.72c0-5.287.016-10.575,0-15.862-.017-5.147,4.486-8.232,9.07-8.385a1.358,1.358,0,0,1,1.5,1.187,1.424,1.424,0,0,1-1.04,1.756c-.868.282-1.762.484-2.629.768a4.765,4.765,0,0,0-3.653,5.058Q9.841,129.7,9.85,145.157c0,.378,0,.756,0,1.133,0,1.168-.486,2.162-1.695,2.147-1.239-.016-1.557-1.046-1.552-2.207.026-5.5.012-11.007.013-16.51" fill="#c4e4fd"/>
        <path id="Trazado_154308" data-name="Trazado 154308" d="M9.854,154.258a3.05,3.05,0,0,1-.3,1.728,1.558,1.558,0,0,1-1.744.862C6.8,156.61,6.266,154.762,6.636,153A1.432,1.432,0,0,1,8.424,151.8c1.517.193,1.384,1.389,1.43,2.459" fill="#c3e4fd"/>
        <path id="Trazado_154309" data-name="Trazado 154309" d="M38.109,81.335a6.79,6.79,0,0,1-6.568-6.32c-.036-1.045.258-1.871,1.38-2.01,1.2-.147,1.706.582,1.875,1.71.329,2.193,1.661,3.406,3.6,3.375a3.483,3.483,0,0,0,3.479-3.343c.16-1.14.655-1.879,1.841-1.747,1.211.135,1.491,1.051,1.414,2.144a6.823,6.823,0,0,1-7.026,6.191" fill="#010100"/>
        <path id="Trazado_154310" data-name="Trazado 154310" d="M80.743,83.923a5.53,5.53,0,0,1-.552-.682c-.464-.828-1.859-1.232-1.719-2.074.133-.8,1.178-1.445,1.815-2.164.195-.22.382-.7.7-.293a24.376,24.376,0,0,0,2,2.3c.337.334-.121.534-.315.752-.6.678-1.208,1.356-1.924,2.159" fill="#ecbd20"/>
        <path id="Trazado_154311" data-name="Trazado 154311" d="M123.193,81.338a6.82,6.82,0,0,1-6.808-6.078c-.112-1.148.146-2.141,1.448-2.267,1.18-.113,1.648.661,1.8,1.8a3.546,3.546,0,0,0,7.071.038c.15-1.117.584-1.932,1.774-1.843,1.313.1,1.566,1.087,1.48,2.237a6.8,6.8,0,0,1-6.766,6.114" fill="#010100"/>
        <path id="Trazado_154312" data-name="Trazado 154312" d="M80.689,39.89c-4.475,0-8.95-.036-13.423.024-1.208.016-1.733-.226-1.671-1.582.113-2.475.1-4.961,0-7.437-.052-1.273.42-1.447,1.474-1.148.619.176,1.265.256,1.9.37.936.169,1.706.285,1.925,1.59a1.476,1.476,0,0,0,2.743.258,1.111,1.111,0,0,1,1.508-.608c.467.123.966.147,1.418.306,3.557,1.244,7.016.282,10.482-.445.889-.186,1.719-.558,2.108.78.2.683.952.828,1.644.694a1.532,1.532,0,0,0,1.272-1.469c.058-.447-.15-1.019.586-1.124,1-.142,2-.367,3-.42.281-.015.212.547.212.857.007,2.749-.039,5.5.024,8.247.028,1.191-.674,1.113-1.462,1.111q-6.873-.014-13.747,0" fill="#71c1e8"/>
        <path id="Trazado_154313" data-name="Trazado 154313" d="M80.926,21.7c4.525,0,9.05.032,13.575-.023,1.06-.013,1.52.291,1.382,1.36a3.734,3.734,0,0,0,0,.485c.009,2.809-.305,3.111-3.1,3.307-.638.045-.792-.357-1.125-.694a1.494,1.494,0,0,0-2.669.548c-.249.909-.729,1.037-1.444,1.148a12.917,12.917,0,0,0-2.211.45c-3.528,1.207-7,.53-10.467-.258-.564-.129-.944-.286-.954-1.016A1.472,1.472,0,0,0,72.6,25.58a1.445,1.445,0,0,0-1.7.931c-.242.587-.53.694-1.09.505a10.146,10.146,0,0,0-1.266-.243c-2.967-.587-2.9-.588-2.947-3.6-.02-1.267.433-1.517,1.594-1.5,4.578.061,9.157.025,13.736.025" fill="#71c1e8"/>
        <path id="Trazado_154314" data-name="Trazado 154314" d="M80.681,18.461H78.427c-2.3,0-2.794-.663-2.288-2.928.127-.567.436-.65.9-.649,2.468.005,4.936.018,7.4-.008.716-.008.878.317.931.966.216,2.621.237,2.619-2.444,2.619H80.681" fill="#eebf20"/>
      </g>
    </g>
  </g>
</svg>
