<svg xmlns="http://www.w3.org/2000/svg" width="504.999" height="536.201" viewBox="0 0 504.999 536.201">
  <g id="Grupo_158216" data-name="Grupo 158216" transform="translate(-180 -2282)">
    <g id="Grupo_80276" data-name="Grupo 80276" transform="translate(178.662 2281.742)">
      <path id="Rectángulo_34948" data-name="Rectángulo 34948" d="M56,0H488.338a0,0,0,0,1,0,0V462.679a56,56,0,0,1-56,56H0a0,0,0,0,1,0,0V56A56,56,0,0,1,56,0Z" transform="translate(8 17.779)" fill="#ededee"/>
      <g id="Grupo_78301" data-name="Grupo 78301" transform="translate(1.338 0.257)">
        <path id="Trazado_145969" data-name="Trazado 145969" d="M71.675,0A71.675,71.675,0,1,1,0,71.675,71.675,71.675,0,0,1,71.675,0Z" transform="translate(13 29.637)" fill="#fd9827" opacity="0.444" style="mix-blend-mode: multiply;isolation: isolate"/>
        <rect id="Rectángulo_34812" data-name="Rectángulo 34812" width="504.999" height="534.03" transform="translate(0 0)" fill="none"/>
        <path id="Trazado_145971" data-name="Trazado 145971" d="M8.18,0A8.18,8.18,0,1,1,0,8.18,8.18,8.18,0,0,1,8.18,0Z" transform="translate(32.317 501.459)" fill="#31313c" opacity="0.444" style="mix-blend-mode: multiply;isolation: isolate"/>
        <g id="Grupo_80270" data-name="Grupo 80270" transform="translate(395.44 423.44)">
          <path id="Trazado_145968" data-name="Trazado 145968" d="M49.78,0A49.78,49.78,0,1,1,0,49.78,49.78,49.78,0,0,1,49.78,0Z" transform="translate(0)" fill="#31313c" opacity="0.444" style="mix-blend-mode: multiply;isolation: isolate"/>
          <g id="Grupo_78276" data-name="Grupo 78276" transform="translate(19.436 20.579)">
            <g id="Grupo_53306" data-name="Grupo 53306">
              <path id="Trazado_99200" data-name="Trazado 99200" d="M415.566,50.87a.677.677,0,1,1-.676-.646A.662.662,0,0,1,415.566,50.87Z" transform="translate(-414.214 -50.224)" fill="#fff"/>
              <path id="Trazado_99201" data-name="Trazado 99201" d="M424.012,50.87a.677.677,0,1,1-.676-.646A.661.661,0,0,1,424.012,50.87Z" transform="translate(-416.577 -50.224)" fill="#fff"/>
              <path id="Trazado_99202" data-name="Trazado 99202" d="M432.458,50.87a.677.677,0,1,1-.676-.646A.661.661,0,0,1,432.458,50.87Z" transform="translate(-418.939 -50.224)" fill="#fff"/>
              <path id="Trazado_99203" data-name="Trazado 99203" d="M440.9,50.87a.677.677,0,1,1-.676-.646A.662.662,0,0,1,440.9,50.87Z" transform="translate(-421.302 -50.224)" fill="#fff"/>
              <path id="Trazado_99204" data-name="Trazado 99204" d="M449.351,50.87a.677.677,0,1,1-.676-.646A.662.662,0,0,1,449.351,50.87Z" transform="translate(-423.665 -50.224)" fill="#fff"/>
              <path id="Trazado_99205" data-name="Trazado 99205" d="M457.8,50.87a.677.677,0,1,1-.676-.646A.661.661,0,0,1,457.8,50.87Z" transform="translate(-426.028 -50.224)" fill="#fff"/>
              <path id="Trazado_99206" data-name="Trazado 99206" d="M466.244,50.87a.677.677,0,1,1-.676-.646A.662.662,0,0,1,466.244,50.87Z" transform="translate(-428.391 -50.224)" fill="#fff"/>
              <path id="Trazado_99207" data-name="Trazado 99207" d="M474.69,50.87a.677.677,0,1,1-.676-.646A.661.661,0,0,1,474.69,50.87Z" transform="translate(-430.753 -50.224)" fill="#fff"/>
              <path id="Trazado_99208" data-name="Trazado 99208" d="M483.136,50.87a.677.677,0,1,1-.676-.646A.662.662,0,0,1,483.136,50.87Z" transform="translate(-433.116 -50.224)" fill="#fff"/>
              <path id="Trazado_99209" data-name="Trazado 99209" d="M491.583,50.87a.677.677,0,1,1-.676-.646A.662.662,0,0,1,491.583,50.87Z" transform="translate(-435.479 -50.224)" fill="#fff"/>
              <path id="Trazado_99210" data-name="Trazado 99210" d="M500.029,50.87a.677.677,0,1,1-.676-.646A.662.662,0,0,1,500.029,50.87Z" transform="translate(-437.842 -50.224)" fill="#fff"/>
            </g>
            <g id="Grupo_53307" data-name="Grupo 53307" transform="translate(0 5.171)">
              <path id="Trazado_99211" data-name="Trazado 99211" d="M415.566,58.378a.677.677,0,1,1-.676-.646A.662.662,0,0,1,415.566,58.378Z" transform="translate(-414.214 -57.732)" fill="#fff"/>
              <path id="Trazado_99212" data-name="Trazado 99212" d="M424.012,58.378a.677.677,0,1,1-.676-.646A.661.661,0,0,1,424.012,58.378Z" transform="translate(-416.577 -57.732)" fill="#fff"/>
              <path id="Trazado_99213" data-name="Trazado 99213" d="M432.458,58.378a.677.677,0,1,1-.676-.646A.661.661,0,0,1,432.458,58.378Z" transform="translate(-418.939 -57.732)" fill="#fff"/>
              <path id="Trazado_99214" data-name="Trazado 99214" d="M440.9,58.378a.677.677,0,1,1-.676-.646A.662.662,0,0,1,440.9,58.378Z" transform="translate(-421.302 -57.732)" fill="#fff"/>
              <path id="Trazado_99215" data-name="Trazado 99215" d="M449.351,58.378a.677.677,0,1,1-.676-.646A.662.662,0,0,1,449.351,58.378Z" transform="translate(-423.665 -57.732)" fill="#fff"/>
              <path id="Trazado_99216" data-name="Trazado 99216" d="M457.8,58.378a.677.677,0,1,1-.676-.646A.661.661,0,0,1,457.8,58.378Z" transform="translate(-426.028 -57.732)" fill="#fff"/>
              <path id="Trazado_99217" data-name="Trazado 99217" d="M466.244,58.378a.677.677,0,1,1-.676-.646A.662.662,0,0,1,466.244,58.378Z" transform="translate(-428.391 -57.732)" fill="#fff"/>
              <path id="Trazado_99218" data-name="Trazado 99218" d="M474.69,58.378a.677.677,0,1,1-.676-.646A.661.661,0,0,1,474.69,58.378Z" transform="translate(-430.753 -57.732)" fill="#fff"/>
              <path id="Trazado_99219" data-name="Trazado 99219" d="M483.136,58.378a.677.677,0,1,1-.676-.646A.662.662,0,0,1,483.136,58.378Z" transform="translate(-433.116 -57.732)" fill="#fff"/>
              <path id="Trazado_99220" data-name="Trazado 99220" d="M491.583,58.378a.677.677,0,1,1-.676-.646A.662.662,0,0,1,491.583,58.378Z" transform="translate(-435.479 -57.732)" fill="#fff"/>
              <path id="Trazado_99221" data-name="Trazado 99221" d="M500.029,58.378a.677.677,0,1,1-.676-.646A.662.662,0,0,1,500.029,58.378Z" transform="translate(-437.842 -57.732)" fill="#fff"/>
            </g>
            <g id="Grupo_53308" data-name="Grupo 53308" transform="translate(0 10.343)">
              <ellipse id="Elipse_3955" data-name="Elipse 3955" cx="0.676" cy="0.646" rx="0.676" ry="0.646" fill="#fff"/>
              <path id="Trazado_99222" data-name="Trazado 99222" d="M424.012,65.886a.677.677,0,1,1-.676-.646A.662.662,0,0,1,424.012,65.886Z" transform="translate(-416.577 -65.24)" fill="#fff"/>
              <ellipse id="Elipse_3956" data-name="Elipse 3956" cx="0.676" cy="0.646" rx="0.676" ry="0.646" transform="translate(12.167)" fill="#fff"/>
              <path id="Trazado_99223" data-name="Trazado 99223" d="M440.9,65.886a.677.677,0,1,1-.676-.646A.662.662,0,0,1,440.9,65.886Z" transform="translate(-421.302 -65.24)" fill="#fff"/>
              <path id="Trazado_99224" data-name="Trazado 99224" d="M449.351,65.886a.677.677,0,1,1-.676-.646A.662.662,0,0,1,449.351,65.886Z" transform="translate(-423.665 -65.24)" fill="#fff"/>
              <ellipse id="Elipse_3957" data-name="Elipse 3957" cx="0.676" cy="0.646" rx="0.676" ry="0.646" transform="translate(30.418)" fill="#fff"/>
              <path id="Trazado_99225" data-name="Trazado 99225" d="M466.244,65.886a.677.677,0,1,1-.676-.646A.663.663,0,0,1,466.244,65.886Z" transform="translate(-428.391 -65.24)" fill="#fff"/>
              <ellipse id="Elipse_3958" data-name="Elipse 3958" cx="0.676" cy="0.646" rx="0.676" ry="0.646" transform="translate(42.585)" fill="#fff"/>
              <ellipse id="Elipse_3959" data-name="Elipse 3959" cx="0.676" cy="0.646" rx="0.676" ry="0.646" transform="translate(48.668)" fill="#fff"/>
              <path id="Trazado_99226" data-name="Trazado 99226" d="M491.583,65.886a.677.677,0,1,1-.676-.646A.663.663,0,0,1,491.583,65.886Z" transform="translate(-435.479 -65.24)" fill="#fff"/>
              <path id="Trazado_99227" data-name="Trazado 99227" d="M500.029,65.886a.677.677,0,1,1-.676-.646A.662.662,0,0,1,500.029,65.886Z" transform="translate(-437.842 -65.24)" fill="#fff"/>
            </g>
            <g id="Grupo_53309" data-name="Grupo 53309" transform="translate(0 15.514)">
              <ellipse id="Elipse_3960" data-name="Elipse 3960" cx="0.676" cy="0.646" rx="0.676" ry="0.646" transform="translate(0 0)" fill="#fff"/>
              <path id="Trazado_99228" data-name="Trazado 99228" d="M424.012,73.394a.677.677,0,1,1-.676-.647A.661.661,0,0,1,424.012,73.394Z" transform="translate(-416.577 -72.747)" fill="#fff"/>
              <ellipse id="Elipse_3961" data-name="Elipse 3961" cx="0.676" cy="0.646" rx="0.676" ry="0.646" transform="translate(12.167 0)" fill="#fff"/>
              <path id="Trazado_99229" data-name="Trazado 99229" d="M440.9,73.394a.677.677,0,1,1-.676-.647A.662.662,0,0,1,440.9,73.394Z" transform="translate(-421.302 -72.747)" fill="#fff"/>
              <path id="Trazado_99230" data-name="Trazado 99230" d="M449.351,73.394a.677.677,0,1,1-.676-.647A.661.661,0,0,1,449.351,73.394Z" transform="translate(-423.665 -72.747)" fill="#fff"/>
              <ellipse id="Elipse_3962" data-name="Elipse 3962" cx="0.676" cy="0.646" rx="0.676" ry="0.646" transform="translate(30.418 0)" fill="#fff"/>
              <path id="Trazado_99231" data-name="Trazado 99231" d="M466.244,73.394a.677.677,0,1,1-.676-.647A.662.662,0,0,1,466.244,73.394Z" transform="translate(-428.391 -72.747)" fill="#fff"/>
              <ellipse id="Elipse_3963" data-name="Elipse 3963" cx="0.676" cy="0.646" rx="0.676" ry="0.646" transform="translate(42.585 0)" fill="#fff"/>
              <ellipse id="Elipse_3964" data-name="Elipse 3964" cx="0.676" cy="0.646" rx="0.676" ry="0.646" transform="translate(48.668 0)" fill="#fff"/>
              <path id="Trazado_99232" data-name="Trazado 99232" d="M491.583,73.394a.677.677,0,1,1-.676-.647A.662.662,0,0,1,491.583,73.394Z" transform="translate(-435.479 -72.747)" fill="#fff"/>
              <path id="Trazado_99233" data-name="Trazado 99233" d="M500.029,73.394a.677.677,0,1,1-.676-.647A.662.662,0,0,1,500.029,73.394Z" transform="translate(-437.842 -72.747)" fill="#fff"/>
            </g>
            <g id="Grupo_53310" data-name="Grupo 53310" transform="translate(0 20.685)">
              <path id="Trazado_99234" data-name="Trazado 99234" d="M415.566,80.9a.677.677,0,1,1-.676-.647A.662.662,0,0,1,415.566,80.9Z" transform="translate(-414.214 -80.255)" fill="#fff"/>
              <path id="Trazado_99235" data-name="Trazado 99235" d="M424.012,80.9a.677.677,0,1,1-.676-.647A.661.661,0,0,1,424.012,80.9Z" transform="translate(-416.577 -80.255)" fill="#fff"/>
              <path id="Trazado_99236" data-name="Trazado 99236" d="M432.458,80.9a.677.677,0,1,1-.676-.647A.661.661,0,0,1,432.458,80.9Z" transform="translate(-418.939 -80.255)" fill="#fff"/>
              <path id="Trazado_99237" data-name="Trazado 99237" d="M440.9,80.9a.677.677,0,1,1-.676-.647A.662.662,0,0,1,440.9,80.9Z" transform="translate(-421.302 -80.255)" fill="#fff"/>
              <path id="Trazado_99238" data-name="Trazado 99238" d="M449.351,80.9a.677.677,0,1,1-.676-.647A.661.661,0,0,1,449.351,80.9Z" transform="translate(-423.665 -80.255)" fill="#fff"/>
              <path id="Trazado_99239" data-name="Trazado 99239" d="M457.8,80.9a.677.677,0,1,1-.676-.647A.661.661,0,0,1,457.8,80.9Z" transform="translate(-426.028 -80.255)" fill="#fff"/>
              <path id="Trazado_99240" data-name="Trazado 99240" d="M466.244,80.9a.677.677,0,1,1-.676-.647A.662.662,0,0,1,466.244,80.9Z" transform="translate(-428.391 -80.255)" fill="#fff"/>
              <path id="Trazado_99241" data-name="Trazado 99241" d="M474.69,80.9a.677.677,0,1,1-.676-.647A.661.661,0,0,1,474.69,80.9Z" transform="translate(-430.753 -80.255)" fill="#fff"/>
              <path id="Trazado_99242" data-name="Trazado 99242" d="M483.136,80.9a.677.677,0,1,1-.676-.647A.661.661,0,0,1,483.136,80.9Z" transform="translate(-433.116 -80.255)" fill="#fff"/>
              <path id="Trazado_99243" data-name="Trazado 99243" d="M491.583,80.9a.677.677,0,1,1-.676-.647A.662.662,0,0,1,491.583,80.9Z" transform="translate(-435.479 -80.255)" fill="#fff"/>
              <path id="Trazado_99244" data-name="Trazado 99244" d="M500.029,80.9a.677.677,0,1,1-.676-.647A.662.662,0,0,1,500.029,80.9Z" transform="translate(-437.842 -80.255)" fill="#fff"/>
            </g>
            <g id="Grupo_53311" data-name="Grupo 53311" transform="translate(0 25.857)">
              <ellipse id="Elipse_3965" data-name="Elipse 3965" cx="0.676" cy="0.646" rx="0.676" ry="0.646" transform="translate(0 0)" fill="#fff"/>
              <path id="Trazado_99245" data-name="Trazado 99245" d="M424.012,88.41a.677.677,0,1,1-.676-.647A.661.661,0,0,1,424.012,88.41Z" transform="translate(-416.577 -87.763)" fill="#fff"/>
              <ellipse id="Elipse_3966" data-name="Elipse 3966" cx="0.676" cy="0.646" rx="0.676" ry="0.646" transform="translate(12.167 0)" fill="#fff"/>
              <path id="Trazado_99246" data-name="Trazado 99246" d="M440.9,88.41a.677.677,0,1,1-.676-.647A.662.662,0,0,1,440.9,88.41Z" transform="translate(-421.302 -87.763)" fill="#fff"/>
              <path id="Trazado_99247" data-name="Trazado 99247" d="M449.351,88.41a.677.677,0,1,1-.676-.647A.661.661,0,0,1,449.351,88.41Z" transform="translate(-423.665 -87.763)" fill="#fff"/>
              <ellipse id="Elipse_3967" data-name="Elipse 3967" cx="0.676" cy="0.646" rx="0.676" ry="0.646" transform="translate(30.418 0)" fill="#fff"/>
              <path id="Trazado_99248" data-name="Trazado 99248" d="M466.244,88.41a.677.677,0,1,1-.676-.647A.662.662,0,0,1,466.244,88.41Z" transform="translate(-428.391 -87.763)" fill="#fff"/>
              <ellipse id="Elipse_3968" data-name="Elipse 3968" cx="0.676" cy="0.646" rx="0.676" ry="0.646" transform="translate(42.585 0)" fill="#fff"/>
              <ellipse id="Elipse_3969" data-name="Elipse 3969" cx="0.676" cy="0.646" rx="0.676" ry="0.646" transform="translate(48.668 0)" fill="#fff"/>
              <path id="Trazado_99249" data-name="Trazado 99249" d="M491.583,88.41a.677.677,0,1,1-.676-.647A.662.662,0,0,1,491.583,88.41Z" transform="translate(-435.479 -87.763)" fill="#fff"/>
              <path id="Trazado_99250" data-name="Trazado 99250" d="M500.029,88.41a.677.677,0,1,1-.676-.647A.662.662,0,0,1,500.029,88.41Z" transform="translate(-437.842 -87.763)" fill="#fff"/>
            </g>
            <g id="Grupo_53312" data-name="Grupo 53312" transform="translate(0 31.028)">
              <ellipse id="Elipse_3970" data-name="Elipse 3970" cx="0.676" cy="0.646" rx="0.676" ry="0.646" fill="#fff"/>
              <path id="Trazado_99251" data-name="Trazado 99251" d="M424.012,95.917a.677.677,0,1,1-.676-.646A.661.661,0,0,1,424.012,95.917Z" transform="translate(-416.577 -95.271)" fill="#fff"/>
              <ellipse id="Elipse_3971" data-name="Elipse 3971" cx="0.676" cy="0.646" rx="0.676" ry="0.646" transform="translate(12.167)" fill="#fff"/>
              <path id="Trazado_99252" data-name="Trazado 99252" d="M440.9,95.917a.677.677,0,1,1-.676-.646A.662.662,0,0,1,440.9,95.917Z" transform="translate(-421.302 -95.271)" fill="#fff"/>
              <path id="Trazado_99253" data-name="Trazado 99253" d="M449.351,95.917a.677.677,0,1,1-.676-.646A.662.662,0,0,1,449.351,95.917Z" transform="translate(-423.665 -95.271)" fill="#fff"/>
              <ellipse id="Elipse_3972" data-name="Elipse 3972" cx="0.676" cy="0.646" rx="0.676" ry="0.646" transform="translate(30.418)" fill="#fff"/>
              <path id="Trazado_99254" data-name="Trazado 99254" d="M466.244,95.917a.677.677,0,1,1-.676-.646A.662.662,0,0,1,466.244,95.917Z" transform="translate(-428.391 -95.271)" fill="#fff"/>
              <ellipse id="Elipse_3973" data-name="Elipse 3973" cx="0.676" cy="0.646" rx="0.676" ry="0.646" transform="translate(42.585)" fill="#fff"/>
              <ellipse id="Elipse_3974" data-name="Elipse 3974" cx="0.676" cy="0.646" rx="0.676" ry="0.646" transform="translate(48.668)" fill="#fff"/>
              <path id="Trazado_99255" data-name="Trazado 99255" d="M491.583,95.917a.677.677,0,1,1-.676-.646A.662.662,0,0,1,491.583,95.917Z" transform="translate(-435.479 -95.271)" fill="#fff"/>
              <path id="Trazado_99256" data-name="Trazado 99256" d="M500.029,95.917a.677.677,0,1,1-.676-.646A.662.662,0,0,1,500.029,95.917Z" transform="translate(-437.842 -95.271)" fill="#fff"/>
            </g>
            <g id="Grupo_53313" data-name="Grupo 53313" transform="translate(0 36.2)">
              <path id="Trazado_99257" data-name="Trazado 99257" d="M415.566,103.425a.677.677,0,1,1-.676-.646A.662.662,0,0,1,415.566,103.425Z" transform="translate(-414.214 -102.779)" fill="#fff"/>
              <path id="Trazado_99258" data-name="Trazado 99258" d="M424.012,103.425a.677.677,0,1,1-.676-.646A.661.661,0,0,1,424.012,103.425Z" transform="translate(-416.577 -102.779)" fill="#fff"/>
              <path id="Trazado_99259" data-name="Trazado 99259" d="M432.458,103.425a.677.677,0,1,1-.676-.646A.661.661,0,0,1,432.458,103.425Z" transform="translate(-418.939 -102.779)" fill="#fff"/>
              <path id="Trazado_99260" data-name="Trazado 99260" d="M440.9,103.425a.677.677,0,1,1-.676-.646A.662.662,0,0,1,440.9,103.425Z" transform="translate(-421.302 -102.779)" fill="#fff"/>
              <path id="Trazado_99261" data-name="Trazado 99261" d="M449.351,103.425a.677.677,0,1,1-.676-.646A.662.662,0,0,1,449.351,103.425Z" transform="translate(-423.665 -102.779)" fill="#fff"/>
              <path id="Trazado_99262" data-name="Trazado 99262" d="M457.8,103.425a.677.677,0,1,1-.676-.646A.661.661,0,0,1,457.8,103.425Z" transform="translate(-426.028 -102.779)" fill="#fff"/>
              <path id="Trazado_99263" data-name="Trazado 99263" d="M466.244,103.425a.677.677,0,1,1-.676-.646A.662.662,0,0,1,466.244,103.425Z" transform="translate(-428.391 -102.779)" fill="#fff"/>
              <path id="Trazado_99264" data-name="Trazado 99264" d="M474.69,103.425a.677.677,0,1,1-.676-.646A.661.661,0,0,1,474.69,103.425Z" transform="translate(-430.753 -102.779)" fill="#fff"/>
              <path id="Trazado_99265" data-name="Trazado 99265" d="M483.136,103.425a.677.677,0,1,1-.676-.646A.662.662,0,0,1,483.136,103.425Z" transform="translate(-433.116 -102.779)" fill="#fff"/>
              <path id="Trazado_99266" data-name="Trazado 99266" d="M491.583,103.425a.677.677,0,1,1-.676-.646A.662.662,0,0,1,491.583,103.425Z" transform="translate(-435.479 -102.779)" fill="#fff"/>
              <path id="Trazado_99267" data-name="Trazado 99267" d="M500.029,103.425a.677.677,0,1,1-.676-.646A.662.662,0,0,1,500.029,103.425Z" transform="translate(-437.842 -102.779)" fill="#fff"/>
            </g>
            <g id="Grupo_53314" data-name="Grupo 53314" transform="translate(0 41.371)">
              <ellipse id="Elipse_3975" data-name="Elipse 3975" cx="0.676" cy="0.646" rx="0.676" ry="0.646" fill="#fff"/>
              <path id="Trazado_99268" data-name="Trazado 99268" d="M424.012,110.933a.677.677,0,1,1-.676-.646A.662.662,0,0,1,424.012,110.933Z" transform="translate(-416.577 -110.287)" fill="#fff"/>
              <ellipse id="Elipse_3976" data-name="Elipse 3976" cx="0.676" cy="0.646" rx="0.676" ry="0.646" transform="translate(12.167)" fill="#fff"/>
              <path id="Trazado_99269" data-name="Trazado 99269" d="M440.9,110.933a.677.677,0,1,1-.676-.646A.662.662,0,0,1,440.9,110.933Z" transform="translate(-421.302 -110.287)" fill="#fff"/>
              <path id="Trazado_99270" data-name="Trazado 99270" d="M449.351,110.933a.677.677,0,1,1-.676-.646A.662.662,0,0,1,449.351,110.933Z" transform="translate(-423.665 -110.287)" fill="#fff"/>
              <ellipse id="Elipse_3977" data-name="Elipse 3977" cx="0.676" cy="0.646" rx="0.676" ry="0.646" transform="translate(30.418)" fill="#fff"/>
              <path id="Trazado_99271" data-name="Trazado 99271" d="M466.244,110.933a.677.677,0,1,1-.676-.646A.663.663,0,0,1,466.244,110.933Z" transform="translate(-428.391 -110.287)" fill="#fff"/>
              <ellipse id="Elipse_3978" data-name="Elipse 3978" cx="0.676" cy="0.646" rx="0.676" ry="0.646" transform="translate(42.585)" fill="#fff"/>
              <ellipse id="Elipse_3979" data-name="Elipse 3979" cx="0.676" cy="0.646" rx="0.676" ry="0.646" transform="translate(48.668)" fill="#fff"/>
              <path id="Trazado_99272" data-name="Trazado 99272" d="M491.583,110.933a.677.677,0,1,1-.676-.646A.663.663,0,0,1,491.583,110.933Z" transform="translate(-435.479 -110.287)" fill="#fff"/>
              <path id="Trazado_99273" data-name="Trazado 99273" d="M500.029,110.933a.677.677,0,1,1-.676-.646A.662.662,0,0,1,500.029,110.933Z" transform="translate(-437.842 -110.287)" fill="#fff"/>
            </g>
            <g id="Grupo_53315" data-name="Grupo 53315" transform="translate(0 46.542)">
              <path id="Trazado_99274" data-name="Trazado 99274" d="M415.566,118.441a.677.677,0,1,1-.676-.647A.662.662,0,0,1,415.566,118.441Z" transform="translate(-414.214 -117.794)" fill="#fff"/>
              <path id="Trazado_99275" data-name="Trazado 99275" d="M424.012,118.441a.677.677,0,1,1-.676-.647A.662.662,0,0,1,424.012,118.441Z" transform="translate(-416.577 -117.794)" fill="#fff"/>
              <path id="Trazado_99276" data-name="Trazado 99276" d="M432.458,118.441a.677.677,0,1,1-.676-.647A.662.662,0,0,1,432.458,118.441Z" transform="translate(-418.939 -117.794)" fill="#fff"/>
              <path id="Trazado_99277" data-name="Trazado 99277" d="M440.9,118.441a.677.677,0,1,1-.676-.647A.662.662,0,0,1,440.9,118.441Z" transform="translate(-421.302 -117.794)" fill="#fff"/>
              <path id="Trazado_99278" data-name="Trazado 99278" d="M449.351,118.441a.677.677,0,1,1-.676-.647A.662.662,0,0,1,449.351,118.441Z" transform="translate(-423.665 -117.794)" fill="#fff"/>
              <path id="Trazado_99279" data-name="Trazado 99279" d="M457.8,118.441a.677.677,0,1,1-.676-.647A.662.662,0,0,1,457.8,118.441Z" transform="translate(-426.028 -117.794)" fill="#fff"/>
              <path id="Trazado_99280" data-name="Trazado 99280" d="M466.244,118.441a.677.677,0,1,1-.676-.647A.663.663,0,0,1,466.244,118.441Z" transform="translate(-428.391 -117.794)" fill="#fff"/>
              <path id="Trazado_99281" data-name="Trazado 99281" d="M474.69,118.441a.677.677,0,1,1-.676-.647A.662.662,0,0,1,474.69,118.441Z" transform="translate(-430.753 -117.794)" fill="#fff"/>
              <path id="Trazado_99282" data-name="Trazado 99282" d="M483.136,118.441a.677.677,0,1,1-.676-.647A.662.662,0,0,1,483.136,118.441Z" transform="translate(-433.116 -117.794)" fill="#fff"/>
              <path id="Trazado_99283" data-name="Trazado 99283" d="M491.583,118.441a.677.677,0,1,1-.676-.647A.663.663,0,0,1,491.583,118.441Z" transform="translate(-435.479 -117.794)" fill="#fff"/>
              <path id="Trazado_99284" data-name="Trazado 99284" d="M500.029,118.441a.677.677,0,1,1-.676-.647A.662.662,0,0,1,500.029,118.441Z" transform="translate(-437.842 -117.794)" fill="#fff"/>
            </g>
            <g id="Grupo_53316" data-name="Grupo 53316" transform="translate(0 51.714)">
              <ellipse id="Elipse_3980" data-name="Elipse 3980" cx="0.676" cy="0.646" rx="0.676" ry="0.646" transform="translate(0 0)" fill="#fff"/>
              <path id="Trazado_99285" data-name="Trazado 99285" d="M424.012,125.949a.677.677,0,1,1-.676-.647A.661.661,0,0,1,424.012,125.949Z" transform="translate(-416.577 -125.302)" fill="#fff"/>
              <ellipse id="Elipse_3981" data-name="Elipse 3981" cx="0.676" cy="0.646" rx="0.676" ry="0.646" transform="translate(12.167 0)" fill="#fff"/>
              <path id="Trazado_99286" data-name="Trazado 99286" d="M440.9,125.949a.677.677,0,1,1-.676-.647A.662.662,0,0,1,440.9,125.949Z" transform="translate(-421.302 -125.302)" fill="#fff"/>
              <path id="Trazado_99287" data-name="Trazado 99287" d="M449.351,125.949a.677.677,0,1,1-.676-.647A.661.661,0,0,1,449.351,125.949Z" transform="translate(-423.665 -125.302)" fill="#fff"/>
              <ellipse id="Elipse_3982" data-name="Elipse 3982" cx="0.676" cy="0.646" rx="0.676" ry="0.646" transform="translate(30.418 0)" fill="#fff"/>
              <path id="Trazado_99288" data-name="Trazado 99288" d="M466.244,125.949a.677.677,0,1,1-.676-.647A.662.662,0,0,1,466.244,125.949Z" transform="translate(-428.391 -125.302)" fill="#fff"/>
              <ellipse id="Elipse_3983" data-name="Elipse 3983" cx="0.676" cy="0.646" rx="0.676" ry="0.646" transform="translate(42.585 0)" fill="#fff"/>
              <ellipse id="Elipse_3984" data-name="Elipse 3984" cx="0.676" cy="0.646" rx="0.676" ry="0.646" transform="translate(48.668 0)" fill="#fff"/>
              <path id="Trazado_99289" data-name="Trazado 99289" d="M491.583,125.949a.677.677,0,1,1-.676-.647A.662.662,0,0,1,491.583,125.949Z" transform="translate(-435.479 -125.302)" fill="#fff"/>
              <path id="Trazado_99290" data-name="Trazado 99290" d="M500.029,125.949a.677.677,0,1,1-.676-.647A.662.662,0,0,1,500.029,125.949Z" transform="translate(-437.842 -125.302)" fill="#fff"/>
            </g>
            <g id="Grupo_53317" data-name="Grupo 53317" transform="translate(0 56.886)">
              <ellipse id="Elipse_3985" data-name="Elipse 3985" cx="0.676" cy="0.646" rx="0.676" ry="0.646" transform="translate(0 0)" fill="#fff"/>
              <path id="Trazado_99291" data-name="Trazado 99291" d="M424.012,133.457a.677.677,0,1,1-.676-.647A.661.661,0,0,1,424.012,133.457Z" transform="translate(-416.577 -132.81)" fill="#fff"/>
              <ellipse id="Elipse_3986" data-name="Elipse 3986" cx="0.676" cy="0.646" rx="0.676" ry="0.646" transform="translate(12.167 0)" fill="#fff"/>
              <path id="Trazado_99292" data-name="Trazado 99292" d="M440.9,133.457a.677.677,0,1,1-.676-.647A.662.662,0,0,1,440.9,133.457Z" transform="translate(-421.302 -132.81)" fill="#fff"/>
              <path id="Trazado_99293" data-name="Trazado 99293" d="M449.351,133.457a.677.677,0,1,1-.676-.647A.661.661,0,0,1,449.351,133.457Z" transform="translate(-423.665 -132.81)" fill="#fff"/>
              <ellipse id="Elipse_3987" data-name="Elipse 3987" cx="0.676" cy="0.646" rx="0.676" ry="0.646" transform="translate(30.418 0)" fill="#fff"/>
              <path id="Trazado_99294" data-name="Trazado 99294" d="M466.244,133.457a.677.677,0,1,1-.676-.647A.662.662,0,0,1,466.244,133.457Z" transform="translate(-428.391 -132.81)" fill="#fff"/>
              <ellipse id="Elipse_3988" data-name="Elipse 3988" cx="0.676" cy="0.646" rx="0.676" ry="0.646" transform="translate(42.585 0)" fill="#fff"/>
              <ellipse id="Elipse_3989" data-name="Elipse 3989" cx="0.676" cy="0.646" rx="0.676" ry="0.646" transform="translate(48.668 0)" fill="#fff"/>
              <path id="Trazado_99295" data-name="Trazado 99295" d="M491.583,133.457a.677.677,0,1,1-.676-.647A.662.662,0,0,1,491.583,133.457Z" transform="translate(-435.479 -132.81)" fill="#fff"/>
              <path id="Trazado_99296" data-name="Trazado 99296" d="M500.029,133.457a.677.677,0,1,1-.676-.647A.662.662,0,0,1,500.029,133.457Z" transform="translate(-437.842 -132.81)" fill="#fff"/>
            </g>
          </g>
        </g>
        <line id="Línea_138" data-name="Línea 138" y2="175" transform="translate(17.548 191.8)" fill="none" stroke="#31313c" stroke-linecap="round" stroke-width="4" stroke-dasharray="8"/>
      </g>
    </g>
    <g id="Grupo_158044" data-name="Grupo 158044" transform="translate(196.611 2313)">
      <g id="Grupo_158045" data-name="Grupo 158045" transform="translate(0 -0.001)">
        <path id="Trazado_152327" data-name="Trazado 152327" d="M504.852,338.684h8.294a76.592,76.592,0,0,0,3.148,11.77l-7.177,4.144,14.034,24.308,7.194-4.153a77.664,77.664,0,0,0,8.609,8.609l-4.153,7.194,24.307,14.034h0l4.143-7.178a76.642,76.642,0,0,0,11.77,3.148v8.294h28.068V400.56a76.645,76.645,0,0,0,11.77-3.148L619,404.589l24.307-14.034-4.153-7.194a77.653,77.653,0,0,0,8.609-8.609l7.194,4.153L668.994,354.6l-7.177-4.144a76.647,76.647,0,0,0,3.148-11.77h8.294V310.616h-8.294a76.622,76.622,0,0,0-3.148-11.77l7.177-4.144-14.033-24.307-7.194,4.153a77.655,77.655,0,0,0-8.609-8.61l4.153-7.194L619,244.71l-4.144,7.178a76.571,76.571,0,0,0-11.77-3.148v-8.294H575.021v8.294a76.568,76.568,0,0,0-11.77,3.148l-4.143-7.178L534.8,258.744l4.153,7.194a77.666,77.666,0,0,0-8.609,8.61l-7.194-4.153L509.116,294.7l7.177,4.144a76.568,76.568,0,0,0-3.148,11.77h-8.294Zm85.726-60.522a46.513,46.513,0,1,1-48.01,48.011,46.681,46.681,0,0,1,48.01-48.011" transform="translate(-213.38 -96.629)" fill="#785549"/>
        <path id="Trazado_152328" data-name="Trazado 152328" d="M606.767,403.4a61.962,61.962,0,0,1-59.991-46.359.577.577,0,1,1,1.117-.29,60.829,60.829,0,1,0,67.983-75.47.578.578,0,0,1-.485-.657.583.583,0,0,1,.656-.486,61.98,61.98,0,0,1-9.28,123.261" transform="translate(-231.092 -113.328)" fill="#f2e6dc"/>
        <path id="Trazado_152329" data-name="Trazado 152329" d="M559.084,656.977a65.754,65.754,0,1,0,65.754-65.754,65.754,65.754,0,0,0-65.754,65.754" transform="translate(-236.301 -238.885)" fill="#fff"/>
        <path id="Trazado_152330" data-name="Trazado 152330" d="M573.85,65.753A65.754,65.754,0,1,0,639.6,0,65.754,65.754,0,0,0,573.85,65.753" transform="translate(-242.542 0.001)" fill="#ddd4d1"/>
        <path id="Trazado_152331" data-name="Trazado 152331" d="M167.248,384.161a155.9,155.9,0,1,1,101.341,62.99,154.882,154.882,0,0,1-101.341-62.99M188.7,275.97a106.673,106.673,0,1,0,122.607-87.9A106.794,106.794,0,0,0,188.7,275.97" transform="translate(-58.334 -52.685)" fill="#f2e6dc"/>
        <path id="Trazado_152332" data-name="Trazado 152332" d="M176.755,385.082a149.749,149.749,0,1,1,97.342,60.5,148.769,148.769,0,0,1-97.342-60.5m10.382-105.606a112.826,112.826,0,1,0,129.68-92.966,112.954,112.954,0,0,0-129.68,92.966" transform="translate(-62.839 -57.183)" fill="#fff"/>
        <path id="Trazado_152333" data-name="Trazado 152333" d="M290.5,185.81a113.084,113.084,0,0,0-98.821,85.22l-36.511-6.021A149.88,149.88,0,0,1,289.917,148.763Z" transform="translate(-65.584 -60.189)" fill="#785549"/>
        <path id="Trazado_152334" data-name="Trazado 152334" d="M186.041,386.63A112.771,112.771,0,0,0,364.128,487.813l23.891,28.326c-.763.569-1.527,1.137-2.3,1.693A149.743,149.743,0,0,1,149.53,380.61Z" transform="translate(-62.847 -153.037)" fill="#c0c942"/>
        <path id="Trazado_152335" data-name="Trazado 152335" d="M486.111,212.131a112.147,112.147,0,0,0-54.842-25.5q-5.632-.928-11.216-1.28l-.587-37.017a152.219,152.219,0,0,1,17.809,1.867,148.749,148.749,0,0,1,75.061,35.7Z" transform="translate(-177.291 -60.397)" fill="#fd9827"/>
        <path id="Trazado_152336" data-name="Trazado 152336" d="M587.876,247.467a149.787,149.787,0,0,1-18.5,195.774l-23.9-28.34a112.628,112.628,0,0,0,6.493-153.367l26.217-26.218a152.531,152.531,0,0,1,9.691,12.151" transform="translate(-230.55 -93.841)" fill="#31313c"/>
        <path id="Trazado_152337" data-name="Trazado 152337" d="M70.653,142.823A66.331,66.331,0,1,1,114.581,26.791a.577.577,0,1,1-.764.865,65.168,65.168,0,1,0,17.62,72.407.578.578,0,1,1,1.077.417,66.356,66.356,0,0,1-61.861,42.344" transform="translate(-1.827 -4.294)" fill="#8b865c"/>
        <path id="Trazado_152338" data-name="Trazado 152338" d="M167.807,278.43H118.79a.577.577,0,0,1-.577-.577V254.228a.577.577,0,0,1,1.155,0v23.047h48.44a.577.577,0,1,1,0,1.155" transform="translate(-49.964 -103.621)" fill="#8b865c"/>
        <path id="Trazado_152339" data-name="Trazado 152339" d="M655.638,720.854a66.331,66.331,0,1,1,66.331-66.331,66.406,66.406,0,0,1-66.331,66.331m0-131.507a65.176,65.176,0,1,0,65.177,65.177,65.251,65.251,0,0,0-65.177-65.177" transform="translate(-249.075 -237.603)" fill="#8b865c"/>
        <path id="Trazado_152340" data-name="Trazado 152340" d="M674.154,500.342a.577.577,0,0,1-.577-.577V419.5H633.691a.577.577,0,0,1,0-1.155h40.462a.577.577,0,0,1,.577.577v80.842a.577.577,0,0,1-.577.577" transform="translate(-267.591 -170.039)" fill="#8b865c"/>
        <path id="Trazado_152341" data-name="Trazado 152341" d="M373.75,102.132H221.636a23,23,0,0,1,0-46H373.742a23,23,0,1,1,.009,46M221.636,57.29a21.844,21.844,0,0,0,0,43.687H373.75a21.844,21.844,0,1,0-.009-43.687Z" transform="translate(-83.956 -23.725)" fill="#fff"/>
        <path id="Trazado_152342" data-name="Trazado 152342" d="M477.631,82.532l-8.3,1.05,5.881,5.947-1.565,8.216,7.473-3.755,7.33,4.028L487.19,89.75l6.1-5.727-8.253-1.355L481.469,75.1Z" transform="translate(-198.368 -31.742)" fill="#d87355"/>
        <path id="Trazado_152343" data-name="Trazado 152343" d="M417.721,82.532l-8.3,1.05L415.3,89.53l-1.565,8.216,7.473-3.755,7.33,4.028L427.28,89.75l6.1-5.727-8.253-1.355L421.56,75.1Z" transform="translate(-173.046 -31.742)" fill="#d87355"/>
        <path id="Trazado_152344" data-name="Trazado 152344" d="M357.812,82.532l-8.3,1.05,5.881,5.947-1.565,8.216L361.3,93.99l7.33,4.028-1.262-8.268,6.1-5.727-8.253-1.355L361.65,75.1Z" transform="translate(-147.725 -31.742)" fill="#d87355"/>
        <path id="Trazado_152345" data-name="Trazado 152345" d="M297.9,82.532l-8.3,1.05,5.881,5.947-1.565,8.216,7.473-3.755,7.33,4.028-1.261-8.268,6.1-5.727L305.3,82.669,301.74,75.1Z" transform="translate(-122.404 -31.742)" fill="#d87355"/>
        <path id="Trazado_152346" data-name="Trazado 152346" d="M237.992,82.532l-8.3,1.05,5.881,5.947-1.565,8.216,7.473-3.755,7.33,4.028-1.262-8.268,6.1-5.727-8.253-1.355L241.831,75.1Z" transform="translate(-97.082 -31.742)" fill="#d87355"/>
        <rect id="Rectángulo_35087" data-name="Rectángulo 35087" width="11.001" height="55.076" transform="translate(95.887 48.228)" fill="#fd9827"/>
        <rect id="Rectángulo_35088" data-name="Rectángulo 35088" width="11.001" height="22.112" transform="translate(78.206 83.168)" fill="#fd9827"/>
        <rect id="Rectángulo_35089" data-name="Rectángulo 35089" width="11.001" height="44.224" transform="translate(60.525 59.079)" fill="#fd9827"/>
        <rect id="Rectángulo_35090" data-name="Rectángulo 35090" width="11.001" height="64.984" transform="translate(42.844 38.32)" fill="#fd9827"/>
        <rect id="Rectángulo_35091" data-name="Rectángulo 35091" width="11.001" height="48.471" transform="translate(25.163 54.833)" fill="#fd9827"/>
        <path id="Trazado_152347" data-name="Trazado 152347" d="M528.862,191.117a.577.577,0,0,1-.577-.577V165.812a.577.577,0,0,1,.577-.577h74.969a.577.577,0,0,1,0,1.155H529.44v24.15a.577.577,0,0,1-.577.577" transform="translate(-223.284 -67.496)" fill="#8b865c"/>
        <path id="Trazado_152348" data-name="Trazado 152348" d="M710.743,724.094h-88.5a.577.577,0,0,1-.577-.577V665.438a.577.577,0,1,1,1.155,0v57.5h87.923a.577.577,0,0,1,0,1.155" transform="translate(-262.752 -270.008)" fill="#d3bba3"/>
        <path id="Trazado_152349" data-name="Trazado 152349" d="M720.6,694.154a.577.577,0,0,1-.3-1.073l10.512-6.283a.577.577,0,0,1,.592.991L720.9,694.072a.574.574,0,0,1-.3.082" transform="translate(-304.324 -279.246)" fill="#d3bba3"/>
        <path id="Trazado_152350" data-name="Trazado 152350" d="M698.646,679.971a.577.577,0,0,1-.483-.26L683.92,658.028a.577.577,0,1,1,.965-.633l14.243,21.683a.577.577,0,0,1-.482.894" transform="translate(-289.024 -266.742)" fill="#d3bba3"/>
        <path id="Trazado_152351" data-name="Trazado 152351" d="M654.493,665.208a.577.577,0,0,1-.353-1.034l11.065-8.549a.577.577,0,0,1,.705.913l-11.065,8.549a.571.571,0,0,1-.352.121" transform="translate(-276.383 -268.088)" fill="#d3bba3"/>
        <path id="Trazado_152352" data-name="Trazado 152352" d="M649.921,672.919a4.563,4.563,0,1,1-4.563-4.563,4.562,4.562,0,0,1,4.563,4.563" transform="translate(-270.838 -271.485)" fill="#d87355"/>
        <path id="Trazado_152353" data-name="Trazado 152353" d="M681.783,648.332a4.563,4.563,0,1,1-4.563-4.563,4.563,4.563,0,0,1,4.563,4.563" transform="translate(-284.304 -263.299)" fill="#d87355"/>
        <path id="Trazado_152354" data-name="Trazado 152354" d="M715.284,699.039a4.563,4.563,0,1,1-4.563-4.563,4.563,4.563,0,0,1,4.563,4.563" transform="translate(-298.464 -282.525)" fill="#d87355"/>
        <path id="Trazado_152355" data-name="Trazado 152355" d="M747.4,680.607a4.563,4.563,0,1,1-4.563-4.563,4.563,4.563,0,0,1,4.563,4.563" transform="translate(-312.038 -274.735)" fill="#d87355"/>
        <rect id="Rectángulo_35092" data-name="Rectángulo 35092" width="11.347" height="31.114" transform="translate(369.129 413.245)" fill="#e6d0be"/>
        <rect id="Rectángulo_35093" data-name="Rectángulo 35093" width="11.347" height="37.312" transform="translate(387.855 407.046)" fill="#e6d0be"/>
        <rect id="Rectángulo_35094" data-name="Rectángulo 35094" width="11.347" height="20.107" transform="translate(406.581 424.252)" fill="#e6d0be"/>
        <rect id="Rectángulo_35095" data-name="Rectángulo 35095" width="11.347" height="25.881" transform="translate(425.307 418.478)" fill="#e6d0be"/>
        <rect id="Rectángulo_35096" data-name="Rectángulo 35096" width="135.601" height="164.941" transform="translate(176.662 148.869)" fill="#fff"/>
        <rect id="Rectángulo_35097" data-name="Rectángulo 35097" width="135.601" height="24.871" transform="translate(176.662 265.295)" fill="#f7f1eb"/>
        <path id="Trazado_152357" data-name="Trazado 152357" d="M502.3,444.086a6.064,6.064,0,1,0,6.064-6.064,6.064,6.064,0,0,0-6.064,6.064" transform="translate(-212.303 -179.11)" fill="#d3bba3"/>
        <path id="Trazado_152358" data-name="Trazado 152358" d="M473.859,444.086a6.064,6.064,0,1,0,6.064-6.064,6.064,6.064,0,0,0-6.064,6.064" transform="translate(-200.28 -179.11)" fill="#efbc73"/>
        <path id="Trazado_152359" data-name="Trazado 152359" d="M445.414,444.086a6.064,6.064,0,1,0,6.064-6.064,6.064,6.064,0,0,0-6.064,6.064" transform="translate(-188.258 -179.11)" fill="#8b865c"/>
        <path id="Trazado_152360" data-name="Trazado 152360" d="M416.968,444.086a6.064,6.064,0,1,0,6.064-6.064,6.064,6.064,0,0,0-6.064,6.064" transform="translate(-176.235 -179.11)" fill="#d87355"/>
        <path id="Trazado_152361" data-name="Trazado 152361" d="M428.573,349.978H388.149a.37.37,0,1,1,0-.74h40.424a.37.37,0,1,1,0,.74" transform="translate(-163.898 -142.921)" fill="#8b865c"/>
        <path id="Trazado_152362" data-name="Trazado 152362" d="M442.045,364.711H386.572a.37.37,0,1,1,0-.74h55.473a.37.37,0,1,1,0,.74" transform="translate(-163.231 -148.951)" fill="#d3bba3"/>
        <path id="Trazado_152363" data-name="Trazado 152363" d="M372.45,364.711h-8.791a.37.37,0,0,1,0-.74h8.791a.37.37,0,1,1,0,.74" transform="translate(-153.547 -148.951)" fill="#d3bba3"/>
        <path id="Trazado_152364" data-name="Trazado 152364" d="M471.271,377.2H455.719a.37.37,0,1,1,0-.74h15.552a.37.37,0,1,1,0,.74" transform="translate(-192.457 -154.062)" fill="#d3bba3"/>
        <path id="Trazado_152365" data-name="Trazado 152365" d="M404.624,377.2H363.659a.37.37,0,1,1,0-.74h40.965a.37.37,0,1,1,0,.74" transform="translate(-153.547 -154.062)" fill="#d3bba3"/>
        <path id="Trazado_152366" data-name="Trazado 152366" d="M445.836,389.693h-50.3a.37.37,0,0,1,0-.74h50.3a.37.37,0,1,1,0,.74" transform="translate(-167.022 -159.174)" fill="#d3bba3"/>
        <path id="Trazado_152367" data-name="Trazado 152367" d="M373.375,389.693h-9.715a.37.37,0,1,1,0-.74h9.715a.37.37,0,1,1,0,.74" transform="translate(-153.547 -159.174)" fill="#d3bba3"/>
        <rect id="Rectángulo_35098" data-name="Rectángulo 35098" width="68.121" height="38.844" transform="translate(159.349 160.694)" fill="#fff"/>
        <path id="Trazado_152368" data-name="Trazado 152368" d="M361.448,301.461a4.986,4.986,0,1,0,4.986-4.986,4.986,4.986,0,0,0-4.986,4.986" transform="translate(-152.769 -121.249)" fill="#d3bba3"/>
        <path id="Trazado_152369" data-name="Trazado 152369" d="M338.058,301.461a4.986,4.986,0,1,0,4.986-4.986,4.986,4.986,0,0,0-4.986,4.986" transform="translate(-142.883 -121.249)" fill="#efbc73"/>
        <path id="Trazado_152370" data-name="Trazado 152370" d="M314.668,301.461a4.986,4.986,0,1,0,4.986-4.986,4.986,4.986,0,0,0-4.986,4.986" transform="translate(-132.997 -121.249)" fill="#8b865c"/>
        <path id="Trazado_152371" data-name="Trazado 152371" d="M291.279,301.461a4.986,4.986,0,1,0,4.985-4.986,4.985,4.985,0,0,0-4.985,4.986" transform="translate(-123.112 -121.249)" fill="#d87355"/>
        <path id="Trazado_152372" data-name="Trazado 152372" d="M343.855,327.727H275.734a.37.37,0,0,1-.37-.37v-15.2a.37.37,0,0,1,.74,0v14.826h67.751a.37.37,0,1,1,0,.74" transform="translate(-116.385 -127.458)" fill="#8b865c"/>
        <path id="Trazado_152373" data-name="Trazado 152373" d="M363.846,302.816a.37.37,0,0,1-.37-.37V271.571H323.034a.37.37,0,1,1,0-.74h40.812a.37.37,0,0,1,.37.37v31.246a.37.37,0,0,1-.37.37" transform="translate(-136.377 -110.577)" fill="#f7f1eb"/>
        <path id="Trazado_152374" data-name="Trazado 152374" d="M461.136,251.806a19.884,19.884,0,1,1-19.885-19.885,19.885,19.885,0,0,1,19.885,19.885" transform="translate(-178.094 -94.631)" fill="#31313c"/>
        <rect id="Rectángulo_35099" data-name="Rectángulo 35099" width="34.271" height="34.271" transform="translate(265.287 160.653)" fill="#fd9827"/>
        <path id="Trazado_152375" data-name="Trazado 152375" d="M247.139,662.087l-10.55-74.566L220.8,447.838s-91.751-4.417-143.255-2.211a53.131,53.131,0,0,0-32.053,12.581C-7.994,503.527-9.817,552.493,16.816,571.9c15.629,11.39,25.485,13.1,35.38,15.156l-12.37,75.029Z" transform="translate(0 -177.086)" fill="#31313c"/>
        <path id="Trazado_152376" data-name="Trazado 152376" d="M372.609,449.908l-13.438,149.1s38.481,12.912,57-22.19S443.7,452.3,372.609,449.908" transform="translate(-151.807 -179.157)" fill="#31313c"/>
        <path id="Trazado_152377" data-name="Trazado 152377" d="M105.623,686.986c-7.177,0-12.382-.547-12.5-.569a.577.577,0,0,1,.2-1.137c.311.053,33.3,3.567,47.74-7.284a.577.577,0,1,1,.693.923c-8.962,6.735-24.941,8.067-36.13,8.067" transform="translate(-39.157 -275.511)" fill="#363e44"/>
        <path id="Trazado_152378" data-name="Trazado 152378" d="M353.486,708.627c-18.664,0-29.92-7.655-30.073-7.762a.578.578,0,1,1,.661-.947c.207.144,21.168,14.357,53.43,3.428a.578.578,0,0,1,.371,1.094,75.736,75.736,0,0,1-24.388,4.188" transform="translate(-136.589 -284.782)" fill="#363e44"/>
        <path id="Trazado_152379" data-name="Trazado 152379" d="M82.854,552.905C71.5,555.14,64.919,565.133,61.773,576.271c-3,10.627-1.541,23.006,14.67,32.955,43.336,26.595,150.3-27.234,150.3-27.234L241.1,549.084c-40.078-7.306-119.88-3.73-158.245,3.821" transform="translate(-25.578 -221.785)" fill="#e2a18d"/>
        <path id="Trazado_152380" data-name="Trazado 152380" d="M351.176,547.334c8.618,3.837,14.348,3.3,14.721.782.588-3.962-5.4-8.493-16.988-13.122h0c8.893.961,11.194-.132,10.982-2.436-.387-4.209-9.985-7.836-18.961-9.741-10.1-2.145-18.685-.3-24.068.987h0l-.1-.073c-22.15,7.744-23.8,23.529-27.334,30.735-6.646,13.539.268,19.263.578,19.441a26.16,26.16,0,0,0,6.877,2.916c12.269,3.157,19.107-5.187,33.522-7.754,16.356-2.912,27.215,4.707,29.337,1.034,1.476-2.555-1.81-6.583-10.96-11.688v0c7.4,3.08,17.612,6.818,19.3,2.725,1.7-4.831-9.788-10.632-16.907-13.8" transform="translate(-121.113 -212.633)" fill="#e2a18d"/>
        <path id="Trazado_152381" data-name="Trazado 152381" d="M383.966,583.957a.57.57,0,0,1-.2-.038,24.412,24.412,0,0,0-12.562-1.286.578.578,0,0,1-.184-1.14,25.574,25.574,0,0,1,13.156,1.347.577.577,0,0,1-.2,1.117" transform="translate(-156.607 -237.802)" fill="#363e44"/>
        <path id="Trazado_152382" data-name="Trazado 152382" d="M387.426,564.742a.568.568,0,0,1-.26-.062,28.074,28.074,0,0,0-14.325-3.007.588.588,0,0,1-.609-.543.576.576,0,0,1,.543-.61,29.235,29.235,0,0,1,14.913,3.13.577.577,0,0,1-.262,1.092" transform="translate(-157.326 -229.31)" fill="#363e44"/>
        <path id="Trazado_152383" data-name="Trazado 152383" d="M382.031,543.767a.559.559,0,0,1-.188-.032,30.128,30.128,0,0,0-15.612-1.087.577.577,0,0,1-.222-1.133,31.267,31.267,0,0,1,16.209,1.129.577.577,0,0,1-.188,1.123" transform="translate(-154.5 -221.338)" fill="#363e44"/>
        <path id="Trazado_152384" data-name="Trazado 152384" d="M284.069,571.245c10.6,4.641,14.862,15.821,15.522,27.376.63,11.025-3.477,22.795-21.458,29-48.066,16.581-140.839-59.131-140.839-59.131L130.4,533.252c40.709,1.545,117.844,22.315,153.664,37.993" transform="translate(-55.117 -214.383)" fill="#e2a18d"/>
        <path id="Trazado_152385" data-name="Trazado 152385" d="M316.211,575.077a.565.565,0,0,1-.223-.045c-25.258-10.6-66.27-22.625-102.053-29.932a.577.577,0,1,1,.231-1.131c35.851,7.319,76.949,19.375,102.269,30a.577.577,0,0,1-.223,1.11" transform="translate(-90.226 -222.107)" fill="#363e44"/>
        <path id="Trazado_152386" data-name="Trazado 152386" d="M88.5,525.559c-9.244,1.88-14.722.114-14.542-2.424.284-4,7.113-7.122,19.426-9.132h0c-8.89-.987-10.9-2.552-10.194-4.756,1.29-4.026,11.445-5.488,20.62-5.4,10.329.094,18.308,3.75,23.284,6.175h0l.111-.05c19.948,12.356,18.138,28.123,20.031,35.924,3.557,14.656-4.432,18.748-4.774,18.855a26.192,26.192,0,0,1-7.346,1.357c-12.661.425-17.531-9.2-31.048-14.829-15.337-6.384-27.588-1.3-28.865-5.342-.888-2.815,3.193-6.035,13.231-9.037v0c-7.889,1.4-18.671,2.842-19.434-1.52-.613-5.083,11.857-8.26,19.494-9.814" transform="translate(-29.155 -205.179)" fill="#e2a18d"/>
        <path id="Trazado_152387" data-name="Trazado 152387" d="M115.66,562.481a.576.576,0,0,1-.213-.04,24.412,24.412,0,0,0-12.543-1.465.577.577,0,1,1-.167-1.143,25.57,25.57,0,0,1,13.136,1.533.577.577,0,0,1-.213,1.114" transform="translate(-43.214 -228.96)" fill="#363e44"/>
        <path id="Trazado_152388" data-name="Trazado 152388" d="M117.048,541.951a.565.565,0,0,1-.158-.022,27.967,27.967,0,0,0-7.173-1.051,28.449,28.449,0,0,0-7.462.886.578.578,0,0,1-.288-1.119,29.442,29.442,0,0,1,7.768-.922,29.132,29.132,0,0,1,7.47,1.1.577.577,0,0,1-.156,1.133" transform="translate(-42.914 -220.851)" fill="#363e44"/>
        <path id="Trazado_152389" data-name="Trazado 152389" d="M127,524.123a.57.57,0,0,1-.231-.048,30.149,30.149,0,0,0-15.476-2.319.577.577,0,0,1-.131-1.147,31.285,31.285,0,0,1,16.07,2.408.577.577,0,0,1-.232,1.106" transform="translate(-46.766 -212.926)" fill="#363e44"/>
        <path id="Trazado_152390" data-name="Trazado 152390" d="M171.992,624.093a.575.575,0,0,1-.281-.073,445.542,445.542,0,0,1-56.748-38.265c-9.251-7.154-24.91-8.639-31.043-8.231-2.582.168-4.278-.308-5.05-1.421a2.954,2.954,0,0,1-.182-2.715.577.577,0,0,1,1.054.472,1.811,1.811,0,0,0,.082,1.592c.364.518,1.359,1.094,4.02.921,6.28-.415,22.314,1.113,31.838,8.479a444.327,444.327,0,0,0,56.592,38.161.577.577,0,0,1-.282,1.081" transform="translate(-33.151 -233.598)" fill="#363e44"/>
        <path id="Trazado_152391" data-name="Trazado 152391" d="M212.407,368.868c3.544,3.36,4.1,8.529,1.241,11.546s-8.051,2.738-11.6-.622-4.1-8.529-1.241-11.545,8.051-2.738,11.6.621" transform="translate(-84.102 -149.677)" fill="#e2a18d"/>
        <path id="Trazado_152392" data-name="Trazado 152392" d="M282.435,352.533c-1.728,4.568.023,9.463,3.911,10.934s8.44-1.041,10.168-5.609-.023-9.463-3.911-10.934-8.44,1.041-10.168,5.609" transform="translate(-119.092 -141.633)" fill="#e2a18d"/>
        <path id="Trazado_152393" data-name="Trazado 152393" d="M239.54,434.845h0a15.807,15.807,0,0,1-15.066-16.515l1.465-44.829,31.581,1.448-1.465,44.829a15.807,15.807,0,0,1-16.515,15.066" transform="translate(-94.869 -152.114)" fill="#e2a18d"/>
        <path id="Trazado_152394" data-name="Trazado 152394" d="M247.843,402.12c-24.689,5.871-32.957-35.623-32.957-35.623l43.946-9.287s12.95,39.217-10.989,44.909" transform="translate(-90.823 -145.684)" fill="#363e44"/>
        <path id="Trazado_152395" data-name="Trazado 152395" d="M230.113,335.188a16.108,16.108,0,1,1-18.66-13.069,16.108,16.108,0,0,1,18.66,13.069" transform="translate(-83.745 -131.414)" fill="#363e44"/>
        <path id="Trazado_152396" data-name="Trazado 152396" d="M259.66,350.517c3.148,13.738-7.129,8.032-18.821,10.711s-20.372,12.73-23.52-1.008,4.449-23.24,16.141-25.92,23.052,2.478,26.2,16.216" transform="translate(-91.549 -136.194)" fill="#e2a18d"/>
        <path id="Trazado_152397" data-name="Trazado 152397" d="M290.809,365.477h0a.577.577,0,0,1-.574-.581,29.5,29.5,0,0,0-2.673-12.359.578.578,0,0,1,1.05-.482,30.67,30.67,0,0,1,2.778,12.848.577.577,0,0,1-.577.574" transform="translate(-121.517 -143.803)" fill="#363e44"/>
        <path id="Trazado_152398" data-name="Trazado 152398" d="M218.362,381.8a.577.577,0,0,1-.52-.325,30.647,30.647,0,0,1-3.043-12.789.577.577,0,0,1,.569-.586.568.568,0,0,1,.586.568,29.5,29.5,0,0,0,2.927,12.3.577.577,0,0,1-.518.829" transform="translate(-90.787 -150.5)" fill="#363e44"/>
        <path id="Trazado_152399" data-name="Trazado 152399" d="M257.912,378.2a.577.577,0,0,1-.426-.967,1.848,1.848,0,0,0,.622-1.3c-.04-.255-.208-.43-.529-.742a3.991,3.991,0,0,1-1.042-1.436,3.8,3.8,0,0,1-.189-2.039.578.578,0,1,1,1.14.185,2.664,2.664,0,0,0,.122,1.428,2.9,2.9,0,0,0,.774,1.036,2.443,2.443,0,0,1,.864,1.391,2.768,2.768,0,0,1-.91,2.257.576.576,0,0,1-.426.188" transform="translate(-108.323 -151.854)" fill="#363e44"/>
        <path id="Trazado_152400" data-name="Trazado 152400" d="M249.67,392.766a6.37,6.37,0,0,1-2.486-.5,6.464,6.464,0,0,1-2.39-1.757.577.577,0,1,1,.879-.749,5.313,5.313,0,0,0,1.959,1.443,5.422,5.422,0,0,0,3.428.232.577.577,0,1,1,.289,1.118,6.764,6.764,0,0,1-1.68.211" transform="translate(-103.406 -159.395)" fill="#fff"/>
        <path id="Trazado_152401" data-name="Trazado 152401" d="M210.738,340.68s11.721-.32,21.105-16.368c0,0,27.068,24.89,37.876-12.781,0,0-9.141,6.121-15.677.145-10.4-9.508-32.271-14.813-36.73,6.909Z" transform="translate(-89.07 -123.826)" fill="#363e44"/>
        <path id="Trazado_152402" data-name="Trazado 152402" d="M270.7,359.04h0l-.052.006c0,.112-.043.263-.155.286a3.268,3.268,0,0,0-.152.651c-.093.342-.617.177-.525-.165.062-.23-.576.328-.866.524-.928.623-1.88,1.2-2.852,1.756-.453.258-.906.518-1.368.76a13.09,13.09,0,0,1-1.7.864,13.643,13.643,0,0,0-1.518,2.833,14.022,14.022,0,0,0,4.584-.022c0-.035,0-.069,0-.1-.018-.342,5.346-2.977,5.556-2.761a14.012,14.012,0,0,0,2.939-4.551,13.927,13.927,0,0,0-3.894-.079" transform="translate(-110.531 -146.82)" fill="#fff"/>
        <path id="Trazado_152403" data-name="Trazado 152403" d="M267.732,360.395a11.2,11.2,0,0,0-3.584,3.4,4.542,4.542,0,0,0,2.987,2.828,10.489,10.489,0,0,0,3.464-1.19,9.973,9.973,0,0,0,2.134-1.656,4.563,4.563,0,0,0-.975-4.655,10.785,10.785,0,0,0-4.026,1.27" transform="translate(-111.644 -146.897)" fill="#363e44"/>
        <path id="Trazado_152404" data-name="Trazado 152404" d="M226.886,370.774h0l.05-.017c.051.1.153.219.264.19a3.29,3.29,0,0,1,.42.52c.232.268.633-.109.4-.376-.156-.18.661.046,1.007.1,1.107.158,2.216.268,3.331.342.52.035,1.042.073,1.563.089a13.134,13.134,0,0,0,1.9.042,13.632,13.632,0,0,1,2.6,1.891,14.038,14.038,0,0,1-4.138,1.972c-.014-.031-.03-.062-.043-.094-.132-.316-6.109-.358-6.2-.071a14.019,14.019,0,0,1-4.624-2.821,13.925,13.925,0,0,1,3.473-1.764" transform="translate(-94.427 -151.685)" fill="#fff"/>
        <path id="Trazado_152405" data-name="Trazado 152405" d="M233.539,369.693a11.2,11.2,0,0,1,4.707,1.507,4.543,4.543,0,0,1-1.461,3.846,10.5,10.5,0,0,1-3.637.434,9.988,9.988,0,0,1-2.641-.565,4.562,4.562,0,0,1-1.145-4.616,10.793,10.793,0,0,1,4.178-.606" transform="translate(-96.852 -151.23)" fill="#363e44"/>
      </g>
    </g>
  </g>
</svg>
