<svg xmlns="http://www.w3.org/2000/svg" xmlns:xlink="http://www.w3.org/1999/xlink" width="77" height="77" viewBox="0 0 77 77">
  <defs>
    <clipPath id="clip-path">
      <rect id="Rectángulo_35109" data-name="Rectángulo 35109" width="18.113" height="19.988" transform="translate(0 0)" fill="#785549"/>
    </clipPath>
  </defs>
  <g id="Grupo_158053" data-name="Grupo 158053" transform="translate(-604 -5914)">
    <circle id="Elipse_4725" data-name="Elipse 4725" cx="38.5" cy="38.5" r="38.5" transform="translate(604 5914)" fill="#f5e8df"/>
    <g id="Grupo_158051" data-name="Grupo 158051" transform="translate(621 5928)">
      <g id="Grupo_158056" data-name="Grupo 158056">
        <path id="Trazado_152530" data-name="Trazado 152530" d="M38.315,0c.178.161.363.315.533.484,1.408,1.4,2.823,2.8,4.207,4.227a1.4,1.4,0,0,1,.384.876q.03,14.545.016,29.091c0,.756-.261,1.012-1.024,1.013-1.192,0-2.385,0-3.632,0v.557q0,5.018,0,10.036a3.119,3.119,0,0,1-3.389,3.373h-32A3.123,3.123,0,0,1,0,46.252q0-11.685,0-23.37c0-.952.207-1.157,1.17-1.157H2.328V18.744c0-.533-.009-1.067,0-1.6a.768.768,0,0,1,.843-.847c2.8-.007,5.593-.012,8.389.012a1.272,1.272,0,0,1,.752.354c.607.556,1.168,1.162,1.762,1.734a.754.754,0,0,0,.45.214c.823.021,1.647.01,2.544.01v-.576q0-8.461-.008-16.921A1.211,1.211,0,0,1,17.557,0ZM32.828,48.1a20.607,20.607,0,0,1-.226-2.137q-.024-11.053-.01-22.105v-.549H1.552v.518q0,11.2,0,22.4c0,1.315.568,1.877,1.895,1.877H32.828Zm-14.18-26.38H33.029c.89,0,1.115.225,1.115,1.115q0,5.358,0,10.716v.559h7.731V6.207c-1.254,0-2.48,0-3.705,0-.633,0-.914-.286-.92-.92-.007-.711,0-1.422,0-2.133V1.576h-18.6ZM3.889,21.7H17.038V20.173c-.985,0-1.938.027-2.887-.016a1.485,1.485,0,0,1-.849-.35c-.591-.524-1.115-1.124-1.7-1.657a1.163,1.163,0,0,0-.7-.292c-2.18-.022-4.361-.013-6.542-.013H3.889ZM34.2,35.714c-.028.049-.042.063-.042.076,0,3.619-.013,7.237,0,10.856a1.419,1.419,0,0,0,.748,1.231,1.543,1.543,0,0,0,2.344-1.395c.01-3.489,0-6.979,0-10.468,0-.093-.01-.185-.016-.3ZM40.817,4.643c-.414-.4-.728-.69-1.034-.993s-.593-.606-.945-.967v1.96Z" transform="translate(0)" fill="#785549"/>
        <path id="Trazado_152532" data-name="Trazado 152532" d="M60.852,28.851H51.879c-.825,0-1.067-.242-1.067-1.067q0-3.612,0-7.225c0-.761.256-1.017,1.017-1.018H69.968c.761,0,1.018.258,1.019,1.017q0,3.637,0,7.274c0,.76-.259,1.018-1.018,1.018q-4.559,0-9.118,0m8.56-7.724H52.388v3.021c1.15.15,2.237.195,2.968-.929a3.81,3.81,0,0,1,.542-.553c1.086-1.086,1.158-1.087,2.23-.014.658.659,1.314,1.32,2.033,2.043.284-.316.526-.575.756-.844a1.06,1.06,0,0,1,1.022-.429,2.868,2.868,0,0,0,2.968-1.2c.4-.525.838-.474,1.324,0A13.93,13.93,0,0,1,67.591,23.6a1.693,1.693,0,0,0,1.821.555Zm-17.024,6.14H69.4v-1.52a8.366,8.366,0,0,0-.908.006,1.671,1.671,0,0,1-1.575-.636c-.412-.485-.9-.909-1.393-1.4-.243.268-.45.474-.63.7a1.353,1.353,0,0,1-1.358.556A2.6,2.6,0,0,0,60.9,26.043c-.561.694-.932.648-1.563.017-.762-.763-1.522-1.528-2.326-2.335-.557.567-1.085,1.085-1.591,1.624a1.214,1.214,0,0,1-.989.4c-.673-.021-1.348-.006-2.045-.006Z" transform="translate(-30.636 -11.782)" fill="#785549"/>
        <rect id="Rectángulo_35102" data-name="Rectángulo 35102" width="17.012" height="1.493" transform="translate(23.306 18.658)" fill="#785549"/>
        <rect id="Rectángulo_35103" data-name="Rectángulo 35103" width="4.577" height="1.51" transform="translate(35.734 21.757)" fill="#785549"/>
        <rect id="Rectángulo_35104" data-name="Rectángulo 35104" width="4.612" height="1.484" transform="translate(35.723 24.867)" fill="#785549"/>
        <rect id="Rectángulo_35105" data-name="Rectángulo 35105" width="4.595" height="1.493" transform="translate(35.719 27.957)" fill="#785549"/>
        <rect id="Rectángulo_35106" data-name="Rectángulo 35106" width="1.492" height="1.495" transform="translate(20.213 18.654)" fill="#785549"/>
        <g id="Grupo_158062" data-name="Grupo 158062" transform="translate(8 25.657)">
          <g id="Grupo_158062-2" data-name="Grupo 158062" transform="translate(0 0)" clip-path="url(#clip-path)">
            <path id="Trazado_152549" data-name="Trazado 152549" d="M0,6.492C1.16,4.611,2.285,2.709,3.492.858a1.941,1.941,0,0,1,3.22,0q1.7,2.553,3.267,5.2A1.832,1.832,0,0,1,8.431,8.77c-.119.008-.239.01-.4.018v8.706H2.213V8.786A2.051,2.051,0,0,1,0,7.316Zm6.556.82c.591,0,1.117.008,1.649,0s.678-.294.4-.742q-1.467-2.355-2.952-4.7c-.325-.516-.778-.506-1.1.01Q3.078,4.208,1.626,6.543c-.309.494-.151.765.436.774.524.005,1.048,0,1.6,0v8.722h2.9Z" transform="translate(0 0)" fill="#785549"/>
            <path id="Trazado_152550" data-name="Trazado 152550" d="M52.584,22.744h5.365v7.969a6.5,6.5,0,0,1,.735.106,1.657,1.657,0,0,1,1.071,2.414c-.965,1.628-1.968,3.235-3.02,4.808a1.785,1.785,0,0,1-2.933-.015q-1.563-2.344-3-4.773a1.682,1.682,0,0,1,1.407-2.5c.11-.007.221,0,.373,0Zm1.341,1.341v8.008c-.514,0-.986,0-1.458,0-.515.006-.667.258-.4.686q1.347,2.161,2.709,4.313c.3.467.71.457,1.014-.018q1.349-2.134,2.683-4.278c.282-.451.135-.7-.409-.7-.48,0-.961,0-1.467,0V24.081Z" transform="translate(-41.848 -18.813)" fill="#785549"/>
          </g>
        </g>
      </g>
    </g>
  </g>
</svg>
