<svg xmlns="http://www.w3.org/2000/svg" xmlns:xlink="http://www.w3.org/1999/xlink" width="77" height="77" viewBox="0 0 77 77">
  <defs>
    <clipPath id="clip-path">
      <rect id="Rectángulo_35107" data-name="Rectángulo 35107" width="23.622" height="19.174" transform="translate(0 0)" fill="#785549"/>
    </clipPath>
  </defs>
  <g id="Grupo_158057" data-name="Grupo 158057" transform="translate(-604 -5914)">
    <circle id="Elipse_4725" data-name="Elipse 4725" cx="38.5" cy="38.5" r="38.5" transform="translate(604 5914)" fill="#f5e8df"/>
    <g id="Grupo_158051" data-name="Grupo 158051" transform="translate(621 5928)">
      <g id="Grupo_158056" data-name="Grupo 158056">
        <path id="Trazado_152530" data-name="Trazado 152530" d="M38.315,0c.178.161.363.315.533.484,1.408,1.4,2.823,2.8,4.207,4.227a1.4,1.4,0,0,1,.384.876q.03,14.545.016,29.091c0,.756-.261,1.012-1.024,1.013-1.192,0-2.385,0-3.632,0v.557q0,5.018,0,10.036a3.119,3.119,0,0,1-3.389,3.373h-32A3.123,3.123,0,0,1,0,46.252q0-11.685,0-23.37c0-.952.207-1.157,1.17-1.157H2.328V18.744c0-.533-.009-1.067,0-1.6a.768.768,0,0,1,.843-.847c2.8-.007,5.593-.012,8.389.012a1.272,1.272,0,0,1,.752.354c.607.556,1.168,1.162,1.762,1.734a.754.754,0,0,0,.45.214c.823.021,1.647.01,2.544.01v-.576q0-8.461-.008-16.921A1.211,1.211,0,0,1,17.557,0ZM32.828,48.1a20.607,20.607,0,0,1-.226-2.137q-.024-11.053-.01-22.105v-.549H1.552v.518q0,11.2,0,22.4c0,1.315.568,1.877,1.895,1.877H32.828Zm-14.18-26.38H33.029c.89,0,1.115.225,1.115,1.115q0,5.358,0,10.716v.559h7.731V6.207c-1.254,0-2.48,0-3.705,0-.633,0-.914-.286-.92-.92-.007-.711,0-1.422,0-2.133V1.576h-18.6ZM3.889,21.7H17.038V20.173c-.985,0-1.938.027-2.887-.016a1.485,1.485,0,0,1-.849-.35c-.591-.524-1.115-1.124-1.7-1.657a1.163,1.163,0,0,0-.7-.292c-2.18-.022-4.361-.013-6.542-.013H3.889ZM34.2,35.714c-.028.049-.042.063-.042.076,0,3.619-.013,7.237,0,10.856a1.419,1.419,0,0,0,.748,1.231,1.543,1.543,0,0,0,2.344-1.395c.01-3.489,0-6.979,0-10.468,0-.093-.01-.185-.016-.3ZM40.817,4.643c-.414-.4-.728-.69-1.034-.993s-.593-.606-.945-.967v1.96Z" transform="translate(0)" fill="#785549"/>
        <path id="Trazado_152532" data-name="Trazado 152532" d="M60.852,28.851H51.879c-.825,0-1.067-.242-1.067-1.067q0-3.612,0-7.225c0-.761.256-1.017,1.017-1.018H69.968c.761,0,1.018.258,1.019,1.017q0,3.637,0,7.274c0,.76-.259,1.018-1.018,1.018q-4.559,0-9.118,0m8.56-7.724H52.388v3.021c1.15.15,2.237.195,2.968-.929a3.81,3.81,0,0,1,.542-.553c1.086-1.086,1.158-1.087,2.23-.014.658.659,1.314,1.32,2.033,2.043.284-.316.526-.575.756-.844a1.06,1.06,0,0,1,1.022-.429,2.868,2.868,0,0,0,2.968-1.2c.4-.525.838-.474,1.324,0A13.93,13.93,0,0,1,67.591,23.6a1.693,1.693,0,0,0,1.821.555Zm-17.024,6.14H69.4v-1.52a8.366,8.366,0,0,0-.908.006,1.671,1.671,0,0,1-1.575-.636c-.412-.485-.9-.909-1.393-1.4-.243.268-.45.474-.63.7a1.353,1.353,0,0,1-1.358.556A2.6,2.6,0,0,0,60.9,26.043c-.561.694-.932.648-1.563.017-.762-.763-1.522-1.528-2.326-2.335-.557.567-1.085,1.085-1.591,1.624a1.214,1.214,0,0,1-.989.4c-.673-.021-1.348-.006-2.045-.006Z" transform="translate(-30.636 -11.782)" fill="#785549"/>
        <rect id="Rectángulo_35102" data-name="Rectángulo 35102" width="17.012" height="1.493" transform="translate(23.306 18.658)" fill="#785549"/>
        <rect id="Rectángulo_35103" data-name="Rectángulo 35103" width="4.577" height="1.51" transform="translate(35.734 21.757)" fill="#785549"/>
        <rect id="Rectángulo_35104" data-name="Rectángulo 35104" width="4.612" height="1.484" transform="translate(35.723 24.867)" fill="#785549"/>
        <rect id="Rectángulo_35105" data-name="Rectángulo 35105" width="4.595" height="1.493" transform="translate(35.719 27.957)" fill="#785549"/>
        <rect id="Rectángulo_35106" data-name="Rectángulo 35106" width="1.492" height="1.495" transform="translate(20.213 18.654)" fill="#785549"/>
        <g id="Grupo_158060" data-name="Grupo 158060" transform="translate(3.768 25.609)">
          <g id="Grupo_158060-2" data-name="Grupo 158060" transform="translate(0 0)" clip-path="url(#clip-path)">
            <path id="Trazado_152544" data-name="Trazado 152544" d="M120.722,77.136a.251.251,0,0,0,.039-.095.616.616,0,0,1-.039.095" transform="translate(-97.185 -62.02)" fill="#785549"/>
            <path id="Trazado_152545" data-name="Trazado 152545" d="M19.093,19.618c0-.313,0-.31-.313-.339A2.6,2.6,0,0,1,16.366,17.5c-.591-1.595-1.221-3.177-1.836-4.76q-2.072-5.36-4.137-10.721a.281.281,0,0,0-.33-.22,5.833,5.833,0,0,1-.783,0,.306.306,0,0,0-.362.238v0q-2.192,5.67-4.4,11.332c-.555,1.42-1.085,2.85-1.709,4.242A2.6,2.6,0,0,1,1,19.148c-.329.083-.664.119-1,.176v1.29c.084,0,.168-.013.252-.013H3.435c1.191,0,2.382,0,3.573,0,.187,0,.237-.053.226-.232-.015-.253,0-.507,0-.76,0-.311,0-.312-.321-.331a5.4,5.4,0,0,1-1.771-.372c-.474-.2-.558-.351-.492-.866.013-.1.021-.2.044-.3a29.134,29.134,0,0,1,1.076-3.3c.05-.141.143-.131.252-.131l5.7,0a.245.245,0,0,1,.278.193c.434,1.2.89,2.383,1.314,3.582.271.768.266.77-.536,1a7.381,7.381,0,0,1-1.436.2c-.145.012-.194.059-.188.208.013.3.016.6,0,.9-.01.183.056.212.221.211,1.115-.007,2.229,0,3.344,0,1.39,0,2.783,0,4.175,0,.161,0,.213-.041.2-.2-.01-.259,0-.521,0-.782m-8.013-6.831q-2.224-.011-4.447,0c-.141,0-.211,0-.14-.182q1.158-2.985,2.3-5.977c.011-.028.025-.054.056-.121.343.88.667,1.714.993,2.547.459,1.177.914,2.355,1.381,3.528.073.176.043.206-.144.205Z" transform="translate(0 -1.44)" fill="#785549"/>
            <path id="Trazado_152546" data-name="Trazado 152546" d="M100.452,2.876C99.87,1.929,99.3.975,98.71,0L96.288,4c.556,0,1.071.011,1.585-.005.206-.006.252.05.251.253q-.011,5.071-.005,10.141c0,.562,0,.562-.558.562H96.286l2.424,4,.485-.8,1.854-3.043a.617.617,0,0,0,.039-.095c0-.05-.038-.072-.141-.07-.484.007-.968,0-1.452.005-.144,0-.2-.028-.2-.189q.008-5.292,0-10.585c0-.166.064-.184.2-.183.546,0,1.092,0,1.638,0V3.951a8.98,8.98,0,0,1-.683-1.075" transform="translate(-77.513 0)" fill="#785549"/>
            <path id="Trazado_152547" data-name="Trazado 152547" d="M111.912,20.516c-.137,0-.2.017-.2.183q.008,5.292,0,10.584c0,.161.055.191.2.189.484-.007.969,0,1.453-.005.1,0,.145.019.141.07.032-.108-.019-.149-.187-.156-.376-.02-.752-.006-1.128-.007-.409,0-.41,0-.41-.4V20.881c0-.268.024-.29.289-.292.384,0,.768,0,1.152,0a.458.458,0,0,0,.329-.073c-.543,0-1.089,0-1.635,0" transform="translate(-89.93 -16.516)" fill="#785549"/>
          </g>
        </g>
      </g>
    </g>
  </g>
</svg>
