<svg xmlns="http://www.w3.org/2000/svg" xmlns:xlink="http://www.w3.org/1999/xlink" width="550" height="223" viewBox="0 0 550 223">
  <defs>
    <clipPath id="clip-path">
      <rect id="Rectángulo_34881" data-name="Rectángulo 34881" width="195.942" height="99.96" fill="#12263f"/>
    </clipPath>
    <clipPath id="clip-path-2">
      <rect id="Rectángulo_35069" data-name="Rectángulo 35069" width="375.914" height="223" fill="none"/>
    </clipPath>
  </defs>
  <g id="Grupo_158033" data-name="Grupo 158033" transform="translate(-227.161 -1724)">
    <g id="Grupo_157916" data-name="Grupo 157916" transform="translate(227.161 1756)">
      <g id="Enmascarar_grupo_63" data-name="Enmascarar grupo 63" transform="translate(280.057 60.55)" clip-path="url(#clip-path)">
        <path id="Trazado_151731" data-name="Trazado 151731" d="M93.295,147.308a54.013,54.013,0,1,1,54.013-54.013,54.074,54.074,0,0,1-54.013,54.013m0,39.282A93.295,93.295,0,1,0,0,93.295,93.295,93.295,0,0,0,93.295,186.59Z" transform="translate(4.047 6.666)" fill="#fd9827"/>
      </g>
      <path id="Trazado_145969" data-name="Trazado 145969" d="M71.675,0A71.469,71.469,0,1,1,0,71.469,71.572,71.572,0,0,1,71.675,0Z" fill="#fd9827" opacity="0.444" style="mix-blend-mode: multiply;isolation: isolate"/>
      <path id="Trazado_145971" data-name="Trazado 145971" d="M8.18,0A8.18,8.18,0,1,1,0,8.18,8.18,8.18,0,0,1,8.18,0Z" transform="translate(32.317 117.046)" fill="#31313c" opacity="0.444" style="mix-blend-mode: multiply;isolation: isolate"/>
      <path id="Trazado_145968" data-name="Trazado 145968" d="M40.14,0A40.14,40.14,0,1,1,0,40.14,40.14,40.14,0,0,1,40.14,0Z" transform="translate(469.719)" fill="#31313c" opacity="0.444" style="mix-blend-mode: multiply;isolation: isolate"/>
      <g id="Grupo_78276" data-name="Grupo 78276" transform="translate(420.493 33.058)">
        <g id="Grupo_53306" data-name="Grupo 53306">
          <path id="Trazado_99200" data-name="Trazado 99200" d="M416.4,51.268a1.094,1.094,0,1,1-1.093-1.044A1.07,1.07,0,0,1,416.4,51.268Z" transform="translate(-414.214 -50.224)" fill="#fff"/>
          <path id="Trazado_99201" data-name="Trazado 99201" d="M424.845,51.268a1.094,1.094,0,1,1-1.092-1.044A1.069,1.069,0,0,1,424.845,51.268Z" transform="translate(-412.827 -50.224)" fill="#fff"/>
          <path id="Trazado_99202" data-name="Trazado 99202" d="M433.291,51.268a1.094,1.094,0,1,1-1.092-1.044A1.069,1.069,0,0,1,433.291,51.268Z" transform="translate(-411.441 -50.224)" fill="#fff"/>
          <path id="Trazado_99203" data-name="Trazado 99203" d="M441.738,51.268a1.094,1.094,0,1,1-1.093-1.044A1.07,1.07,0,0,1,441.738,51.268Z" transform="translate(-410.054 -50.224)" fill="#fff"/>
          <path id="Trazado_99204" data-name="Trazado 99204" d="M450.184,51.268a1.094,1.094,0,1,1-1.092-1.044A1.069,1.069,0,0,1,450.184,51.268Z" transform="translate(-408.667 -50.224)" fill="#fff"/>
          <path id="Trazado_99205" data-name="Trazado 99205" d="M458.63,51.268a1.094,1.094,0,1,1-1.092-1.044A1.069,1.069,0,0,1,458.63,51.268Z" transform="translate(-407.28 -50.224)" fill="#fff"/>
          <path id="Trazado_99206" data-name="Trazado 99206" d="M467.077,51.268a1.094,1.094,0,1,1-1.093-1.044A1.07,1.07,0,0,1,467.077,51.268Z" transform="translate(-405.893 -50.224)" fill="#fff"/>
          <path id="Trazado_99207" data-name="Trazado 99207" d="M475.523,51.268a1.094,1.094,0,1,1-1.092-1.044A1.069,1.069,0,0,1,475.523,51.268Z" transform="translate(-404.507 -50.224)" fill="#fff"/>
          <path id="Trazado_99208" data-name="Trazado 99208" d="M483.969,51.268a1.094,1.094,0,1,1-1.092-1.044A1.069,1.069,0,0,1,483.969,51.268Z" transform="translate(-403.12 -50.224)" fill="#fff"/>
          <path id="Trazado_99209" data-name="Trazado 99209" d="M492.416,51.268a1.094,1.094,0,1,1-1.093-1.044A1.07,1.07,0,0,1,492.416,51.268Z" transform="translate(-401.733 -50.224)" fill="#fff"/>
          <path id="Trazado_99210" data-name="Trazado 99210" d="M500.862,51.268a1.094,1.094,0,1,1-1.093-1.044A1.069,1.069,0,0,1,500.862,51.268Z" transform="translate(-400.347 -50.224)" fill="#fff"/>
        </g>
        <g id="Grupo_53307" data-name="Grupo 53307" transform="translate(0 8.359)">
          <path id="Trazado_99211" data-name="Trazado 99211" d="M416.4,58.776a1.094,1.094,0,1,1-1.093-1.044A1.07,1.07,0,0,1,416.4,58.776Z" transform="translate(-414.214 -57.732)" fill="#fff"/>
          <path id="Trazado_99212" data-name="Trazado 99212" d="M424.845,58.776a1.094,1.094,0,1,1-1.092-1.044A1.069,1.069,0,0,1,424.845,58.776Z" transform="translate(-412.827 -57.732)" fill="#fff"/>
          <path id="Trazado_99213" data-name="Trazado 99213" d="M433.291,58.776a1.094,1.094,0,1,1-1.092-1.044A1.069,1.069,0,0,1,433.291,58.776Z" transform="translate(-411.441 -57.732)" fill="#fff"/>
          <path id="Trazado_99214" data-name="Trazado 99214" d="M441.738,58.776a1.094,1.094,0,1,1-1.093-1.044A1.07,1.07,0,0,1,441.738,58.776Z" transform="translate(-410.054 -57.732)" fill="#fff"/>
          <path id="Trazado_99215" data-name="Trazado 99215" d="M450.184,58.776a1.094,1.094,0,1,1-1.092-1.044A1.069,1.069,0,0,1,450.184,58.776Z" transform="translate(-408.667 -57.732)" fill="#fff"/>
          <path id="Trazado_99216" data-name="Trazado 99216" d="M458.63,58.776a1.094,1.094,0,1,1-1.092-1.044A1.069,1.069,0,0,1,458.63,58.776Z" transform="translate(-407.28 -57.732)" fill="#fff"/>
          <path id="Trazado_99217" data-name="Trazado 99217" d="M467.077,58.776a1.094,1.094,0,1,1-1.093-1.044A1.07,1.07,0,0,1,467.077,58.776Z" transform="translate(-405.893 -57.732)" fill="#fff"/>
          <path id="Trazado_99218" data-name="Trazado 99218" d="M475.523,58.776a1.094,1.094,0,1,1-1.092-1.044A1.069,1.069,0,0,1,475.523,58.776Z" transform="translate(-404.507 -57.732)" fill="#fff"/>
          <path id="Trazado_99219" data-name="Trazado 99219" d="M483.969,58.776a1.094,1.094,0,1,1-1.092-1.044A1.069,1.069,0,0,1,483.969,58.776Z" transform="translate(-403.12 -57.732)" fill="#fff"/>
          <path id="Trazado_99220" data-name="Trazado 99220" d="M492.416,58.776a1.094,1.094,0,1,1-1.093-1.044A1.07,1.07,0,0,1,492.416,58.776Z" transform="translate(-401.733 -57.732)" fill="#fff"/>
          <path id="Trazado_99221" data-name="Trazado 99221" d="M500.862,58.776a1.094,1.094,0,1,1-1.093-1.044A1.069,1.069,0,0,1,500.862,58.776Z" transform="translate(-400.347 -57.732)" fill="#fff"/>
        </g>
        <g id="Grupo_53308" data-name="Grupo 53308" transform="translate(0 16.718)">
          <ellipse id="Elipse_3955" data-name="Elipse 3955" cx="1.093" cy="1.045" rx="1.093" ry="1.045" fill="#fff"/>
          <path id="Trazado_99222" data-name="Trazado 99222" d="M424.845,66.284a1.094,1.094,0,1,1-1.092-1.044A1.07,1.07,0,0,1,424.845,66.284Z" transform="translate(-412.827 -65.24)" fill="#fff"/>
          <ellipse id="Elipse_3956" data-name="Elipse 3956" cx="1.093" cy="1.045" rx="1.093" ry="1.045" transform="translate(19.666)" fill="#fff"/>
          <path id="Trazado_99223" data-name="Trazado 99223" d="M441.738,66.284a1.094,1.094,0,1,1-1.093-1.044A1.07,1.07,0,0,1,441.738,66.284Z" transform="translate(-410.054 -65.24)" fill="#fff"/>
          <path id="Trazado_99224" data-name="Trazado 99224" d="M450.184,66.284a1.094,1.094,0,1,1-1.092-1.044A1.07,1.07,0,0,1,450.184,66.284Z" transform="translate(-408.667 -65.24)" fill="#fff"/>
          <ellipse id="Elipse_3957" data-name="Elipse 3957" cx="1.093" cy="1.045" rx="1.093" ry="1.045" transform="translate(49.165)" fill="#fff"/>
          <path id="Trazado_99225" data-name="Trazado 99225" d="M467.077,66.284a1.094,1.094,0,1,1-1.093-1.044A1.071,1.071,0,0,1,467.077,66.284Z" transform="translate(-405.893 -65.24)" fill="#fff"/>
          <ellipse id="Elipse_3958" data-name="Elipse 3958" cx="1.093" cy="1.045" rx="1.093" ry="1.045" transform="translate(68.831)" fill="#fff"/>
          <ellipse id="Elipse_3959" data-name="Elipse 3959" cx="1.093" cy="1.045" rx="1.093" ry="1.045" transform="translate(78.664)" fill="#fff"/>
          <path id="Trazado_99226" data-name="Trazado 99226" d="M492.416,66.284a1.094,1.094,0,1,1-1.093-1.044A1.071,1.071,0,0,1,492.416,66.284Z" transform="translate(-401.733 -65.24)" fill="#fff"/>
          <path id="Trazado_99227" data-name="Trazado 99227" d="M500.862,66.284a1.094,1.094,0,1,1-1.093-1.044A1.07,1.07,0,0,1,500.862,66.284Z" transform="translate(-400.347 -65.24)" fill="#fff"/>
        </g>
        <g id="Grupo_53309" data-name="Grupo 53309" transform="translate(0 25.076)">
          <ellipse id="Elipse_3960" data-name="Elipse 3960" cx="1.093" cy="1.045" rx="1.093" ry="1.045" transform="translate(0 0)" fill="#fff"/>
          <path id="Trazado_99228" data-name="Trazado 99228" d="M424.845,73.792a1.094,1.094,0,1,1-1.092-1.045A1.069,1.069,0,0,1,424.845,73.792Z" transform="translate(-412.827 -72.747)" fill="#fff"/>
          <ellipse id="Elipse_3961" data-name="Elipse 3961" cx="1.093" cy="1.045" rx="1.093" ry="1.045" transform="translate(19.666 0)" fill="#fff"/>
          <path id="Trazado_99229" data-name="Trazado 99229" d="M441.738,73.792a1.094,1.094,0,1,1-1.093-1.045A1.069,1.069,0,0,1,441.738,73.792Z" transform="translate(-410.054 -72.747)" fill="#fff"/>
          <path id="Trazado_99230" data-name="Trazado 99230" d="M450.184,73.792a1.094,1.094,0,1,1-1.092-1.045A1.069,1.069,0,0,1,450.184,73.792Z" transform="translate(-408.667 -72.747)" fill="#fff"/>
          <ellipse id="Elipse_3962" data-name="Elipse 3962" cx="1.093" cy="1.045" rx="1.093" ry="1.045" transform="translate(49.165 0)" fill="#fff"/>
          <path id="Trazado_99231" data-name="Trazado 99231" d="M467.077,73.792a1.094,1.094,0,1,1-1.093-1.045A1.07,1.07,0,0,1,467.077,73.792Z" transform="translate(-405.893 -72.747)" fill="#fff"/>
          <ellipse id="Elipse_3963" data-name="Elipse 3963" cx="1.093" cy="1.045" rx="1.093" ry="1.045" transform="translate(68.831 0)" fill="#fff"/>
          <ellipse id="Elipse_3964" data-name="Elipse 3964" cx="1.093" cy="1.045" rx="1.093" ry="1.045" transform="translate(78.664 0)" fill="#fff"/>
          <path id="Trazado_99232" data-name="Trazado 99232" d="M492.416,73.792a1.094,1.094,0,1,1-1.093-1.045A1.07,1.07,0,0,1,492.416,73.792Z" transform="translate(-401.733 -72.747)" fill="#fff"/>
          <path id="Trazado_99233" data-name="Trazado 99233" d="M500.862,73.792a1.094,1.094,0,1,1-1.093-1.045A1.069,1.069,0,0,1,500.862,73.792Z" transform="translate(-400.347 -72.747)" fill="#fff"/>
        </g>
        <g id="Grupo_53310" data-name="Grupo 53310" transform="translate(0 33.435)">
          <path id="Trazado_99234" data-name="Trazado 99234" d="M416.4,81.3a1.094,1.094,0,1,1-1.093-1.045A1.069,1.069,0,0,1,416.4,81.3Z" transform="translate(-414.214 -80.255)" fill="#fff"/>
          <path id="Trazado_99235" data-name="Trazado 99235" d="M424.845,81.3a1.094,1.094,0,1,1-1.092-1.045A1.069,1.069,0,0,1,424.845,81.3Z" transform="translate(-412.827 -80.255)" fill="#fff"/>
          <path id="Trazado_99236" data-name="Trazado 99236" d="M433.291,81.3a1.094,1.094,0,1,1-1.092-1.045A1.069,1.069,0,0,1,433.291,81.3Z" transform="translate(-411.441 -80.255)" fill="#fff"/>
          <path id="Trazado_99237" data-name="Trazado 99237" d="M441.738,81.3a1.094,1.094,0,1,1-1.093-1.045A1.069,1.069,0,0,1,441.738,81.3Z" transform="translate(-410.054 -80.255)" fill="#fff"/>
          <path id="Trazado_99238" data-name="Trazado 99238" d="M450.184,81.3a1.094,1.094,0,1,1-1.092-1.045A1.069,1.069,0,0,1,450.184,81.3Z" transform="translate(-408.667 -80.255)" fill="#fff"/>
          <path id="Trazado_99239" data-name="Trazado 99239" d="M458.63,81.3a1.094,1.094,0,1,1-1.092-1.045A1.069,1.069,0,0,1,458.63,81.3Z" transform="translate(-407.28 -80.255)" fill="#fff"/>
          <path id="Trazado_99240" data-name="Trazado 99240" d="M467.077,81.3a1.094,1.094,0,1,1-1.093-1.045A1.07,1.07,0,0,1,467.077,81.3Z" transform="translate(-405.893 -80.255)" fill="#fff"/>
          <path id="Trazado_99241" data-name="Trazado 99241" d="M475.523,81.3a1.094,1.094,0,1,1-1.092-1.045A1.069,1.069,0,0,1,475.523,81.3Z" transform="translate(-404.507 -80.255)" fill="#fff"/>
          <path id="Trazado_99242" data-name="Trazado 99242" d="M483.969,81.3a1.094,1.094,0,1,1-1.092-1.045A1.069,1.069,0,0,1,483.969,81.3Z" transform="translate(-403.12 -80.255)" fill="#fff"/>
          <path id="Trazado_99243" data-name="Trazado 99243" d="M492.416,81.3a1.094,1.094,0,1,1-1.093-1.045A1.07,1.07,0,0,1,492.416,81.3Z" transform="translate(-401.733 -80.255)" fill="#fff"/>
          <path id="Trazado_99244" data-name="Trazado 99244" d="M500.862,81.3a1.094,1.094,0,1,1-1.093-1.045A1.069,1.069,0,0,1,500.862,81.3Z" transform="translate(-400.347 -80.255)" fill="#fff"/>
        </g>
        <g id="Grupo_53311" data-name="Grupo 53311" transform="translate(0 41.793)">
          <ellipse id="Elipse_3965" data-name="Elipse 3965" cx="1.093" cy="1.045" rx="1.093" ry="1.045" transform="translate(0 0)" fill="#fff"/>
          <path id="Trazado_99245" data-name="Trazado 99245" d="M424.845,88.808a1.094,1.094,0,1,1-1.092-1.045A1.069,1.069,0,0,1,424.845,88.808Z" transform="translate(-412.827 -87.763)" fill="#fff"/>
          <ellipse id="Elipse_3966" data-name="Elipse 3966" cx="1.093" cy="1.045" rx="1.093" ry="1.045" transform="translate(19.666 0)" fill="#fff"/>
          <path id="Trazado_99246" data-name="Trazado 99246" d="M441.738,88.808a1.094,1.094,0,1,1-1.093-1.045A1.069,1.069,0,0,1,441.738,88.808Z" transform="translate(-410.054 -87.763)" fill="#fff"/>
          <path id="Trazado_99247" data-name="Trazado 99247" d="M450.184,88.808a1.094,1.094,0,1,1-1.092-1.045A1.069,1.069,0,0,1,450.184,88.808Z" transform="translate(-408.667 -87.763)" fill="#fff"/>
          <ellipse id="Elipse_3967" data-name="Elipse 3967" cx="1.093" cy="1.045" rx="1.093" ry="1.045" transform="translate(49.165 0)" fill="#fff"/>
          <path id="Trazado_99248" data-name="Trazado 99248" d="M467.077,88.808a1.094,1.094,0,1,1-1.093-1.045A1.07,1.07,0,0,1,467.077,88.808Z" transform="translate(-405.893 -87.763)" fill="#fff"/>
          <ellipse id="Elipse_3968" data-name="Elipse 3968" cx="1.093" cy="1.045" rx="1.093" ry="1.045" transform="translate(68.831 0)" fill="#fff"/>
          <ellipse id="Elipse_3969" data-name="Elipse 3969" cx="1.093" cy="1.045" rx="1.093" ry="1.045" transform="translate(78.664 0)" fill="#fff"/>
          <path id="Trazado_99249" data-name="Trazado 99249" d="M492.416,88.808a1.094,1.094,0,1,1-1.093-1.045A1.07,1.07,0,0,1,492.416,88.808Z" transform="translate(-401.733 -87.763)" fill="#fff"/>
          <path id="Trazado_99250" data-name="Trazado 99250" d="M500.862,88.808a1.094,1.094,0,1,1-1.093-1.045A1.069,1.069,0,0,1,500.862,88.808Z" transform="translate(-400.347 -87.763)" fill="#fff"/>
        </g>
        <g id="Grupo_53312" data-name="Grupo 53312" transform="translate(0 50.152)">
          <ellipse id="Elipse_3970" data-name="Elipse 3970" cx="1.093" cy="1.045" rx="1.093" ry="1.045" fill="#fff"/>
          <path id="Trazado_99251" data-name="Trazado 99251" d="M424.845,96.315a1.094,1.094,0,1,1-1.092-1.044A1.069,1.069,0,0,1,424.845,96.315Z" transform="translate(-412.827 -95.271)" fill="#fff"/>
          <ellipse id="Elipse_3971" data-name="Elipse 3971" cx="1.093" cy="1.045" rx="1.093" ry="1.045" transform="translate(19.666)" fill="#fff"/>
          <path id="Trazado_99252" data-name="Trazado 99252" d="M441.738,96.315a1.094,1.094,0,1,1-1.093-1.044A1.07,1.07,0,0,1,441.738,96.315Z" transform="translate(-410.054 -95.271)" fill="#fff"/>
          <path id="Trazado_99253" data-name="Trazado 99253" d="M450.184,96.315a1.094,1.094,0,1,1-1.092-1.044A1.069,1.069,0,0,1,450.184,96.315Z" transform="translate(-408.667 -95.271)" fill="#fff"/>
          <ellipse id="Elipse_3972" data-name="Elipse 3972" cx="1.093" cy="1.045" rx="1.093" ry="1.045" transform="translate(49.165)" fill="#fff"/>
          <path id="Trazado_99254" data-name="Trazado 99254" d="M467.077,96.315a1.094,1.094,0,1,1-1.093-1.044A1.07,1.07,0,0,1,467.077,96.315Z" transform="translate(-405.893 -95.271)" fill="#fff"/>
          <ellipse id="Elipse_3973" data-name="Elipse 3973" cx="1.093" cy="1.045" rx="1.093" ry="1.045" transform="translate(68.831)" fill="#fff"/>
          <ellipse id="Elipse_3974" data-name="Elipse 3974" cx="1.093" cy="1.045" rx="1.093" ry="1.045" transform="translate(78.664)" fill="#fff"/>
          <path id="Trazado_99255" data-name="Trazado 99255" d="M492.416,96.315a1.094,1.094,0,1,1-1.093-1.044A1.07,1.07,0,0,1,492.416,96.315Z" transform="translate(-401.733 -95.271)" fill="#fff"/>
          <path id="Trazado_99256" data-name="Trazado 99256" d="M500.862,96.315a1.094,1.094,0,1,1-1.093-1.044A1.069,1.069,0,0,1,500.862,96.315Z" transform="translate(-400.347 -95.271)" fill="#fff"/>
        </g>
        <g id="Grupo_53313" data-name="Grupo 53313" transform="translate(0 58.511)">
          <path id="Trazado_99257" data-name="Trazado 99257" d="M416.4,103.823a1.094,1.094,0,1,1-1.093-1.044A1.07,1.07,0,0,1,416.4,103.823Z" transform="translate(-414.214 -102.779)" fill="#fff"/>
          <path id="Trazado_99258" data-name="Trazado 99258" d="M424.845,103.823a1.094,1.094,0,1,1-1.092-1.044A1.069,1.069,0,0,1,424.845,103.823Z" transform="translate(-412.827 -102.779)" fill="#fff"/>
          <path id="Trazado_99259" data-name="Trazado 99259" d="M433.291,103.823a1.094,1.094,0,1,1-1.092-1.044A1.069,1.069,0,0,1,433.291,103.823Z" transform="translate(-411.441 -102.779)" fill="#fff"/>
          <path id="Trazado_99260" data-name="Trazado 99260" d="M441.738,103.823a1.094,1.094,0,1,1-1.093-1.044A1.07,1.07,0,0,1,441.738,103.823Z" transform="translate(-410.054 -102.779)" fill="#fff"/>
          <path id="Trazado_99261" data-name="Trazado 99261" d="M450.184,103.823a1.094,1.094,0,1,1-1.092-1.044A1.069,1.069,0,0,1,450.184,103.823Z" transform="translate(-408.667 -102.779)" fill="#fff"/>
          <path id="Trazado_99262" data-name="Trazado 99262" d="M458.63,103.823a1.094,1.094,0,1,1-1.092-1.044A1.069,1.069,0,0,1,458.63,103.823Z" transform="translate(-407.28 -102.779)" fill="#fff"/>
          <path id="Trazado_99263" data-name="Trazado 99263" d="M467.077,103.823a1.094,1.094,0,1,1-1.093-1.044A1.07,1.07,0,0,1,467.077,103.823Z" transform="translate(-405.893 -102.779)" fill="#fff"/>
          <path id="Trazado_99264" data-name="Trazado 99264" d="M475.523,103.823a1.094,1.094,0,1,1-1.092-1.044A1.069,1.069,0,0,1,475.523,103.823Z" transform="translate(-404.507 -102.779)" fill="#fff"/>
          <path id="Trazado_99265" data-name="Trazado 99265" d="M483.969,103.823a1.094,1.094,0,1,1-1.092-1.044A1.069,1.069,0,0,1,483.969,103.823Z" transform="translate(-403.12 -102.779)" fill="#fff"/>
          <path id="Trazado_99266" data-name="Trazado 99266" d="M492.416,103.823a1.094,1.094,0,1,1-1.093-1.044A1.07,1.07,0,0,1,492.416,103.823Z" transform="translate(-401.733 -102.779)" fill="#fff"/>
          <path id="Trazado_99267" data-name="Trazado 99267" d="M500.862,103.823a1.094,1.094,0,1,1-1.093-1.044A1.069,1.069,0,0,1,500.862,103.823Z" transform="translate(-400.347 -102.779)" fill="#fff"/>
        </g>
        <g id="Grupo_53314" data-name="Grupo 53314" transform="translate(0 66.87)">
          <ellipse id="Elipse_3975" data-name="Elipse 3975" cx="1.093" cy="1.045" rx="1.093" ry="1.045" fill="#fff"/>
          <path id="Trazado_99268" data-name="Trazado 99268" d="M424.845,111.331a1.094,1.094,0,1,1-1.092-1.044A1.07,1.07,0,0,1,424.845,111.331Z" transform="translate(-412.827 -110.287)" fill="#fff"/>
          <ellipse id="Elipse_3976" data-name="Elipse 3976" cx="1.093" cy="1.045" rx="1.093" ry="1.045" transform="translate(19.666)" fill="#fff"/>
          <path id="Trazado_99269" data-name="Trazado 99269" d="M441.738,111.331a1.094,1.094,0,1,1-1.093-1.044A1.07,1.07,0,0,1,441.738,111.331Z" transform="translate(-410.054 -110.287)" fill="#fff"/>
          <path id="Trazado_99270" data-name="Trazado 99270" d="M450.184,111.331a1.094,1.094,0,1,1-1.092-1.044A1.07,1.07,0,0,1,450.184,111.331Z" transform="translate(-408.667 -110.287)" fill="#fff"/>
          <ellipse id="Elipse_3977" data-name="Elipse 3977" cx="1.093" cy="1.045" rx="1.093" ry="1.045" transform="translate(49.165)" fill="#fff"/>
          <path id="Trazado_99271" data-name="Trazado 99271" d="M467.077,111.331a1.094,1.094,0,1,1-1.093-1.044A1.071,1.071,0,0,1,467.077,111.331Z" transform="translate(-405.893 -110.287)" fill="#fff"/>
          <ellipse id="Elipse_3978" data-name="Elipse 3978" cx="1.093" cy="1.045" rx="1.093" ry="1.045" transform="translate(68.831)" fill="#fff"/>
          <ellipse id="Elipse_3979" data-name="Elipse 3979" cx="1.093" cy="1.045" rx="1.093" ry="1.045" transform="translate(78.664)" fill="#fff"/>
          <path id="Trazado_99272" data-name="Trazado 99272" d="M492.416,111.331a1.094,1.094,0,1,1-1.093-1.044A1.071,1.071,0,0,1,492.416,111.331Z" transform="translate(-401.733 -110.287)" fill="#fff"/>
          <path id="Trazado_99273" data-name="Trazado 99273" d="M500.862,111.331a1.094,1.094,0,1,1-1.093-1.044A1.07,1.07,0,0,1,500.862,111.331Z" transform="translate(-400.347 -110.287)" fill="#fff"/>
        </g>
        <g id="Grupo_53315" data-name="Grupo 53315" transform="translate(0 75.228)">
          <path id="Trazado_99274" data-name="Trazado 99274" d="M416.4,118.839a1.094,1.094,0,1,1-1.093-1.045A1.07,1.07,0,0,1,416.4,118.839Z" transform="translate(-414.214 -117.794)" fill="#fff"/>
          <path id="Trazado_99275" data-name="Trazado 99275" d="M424.845,118.839a1.094,1.094,0,1,1-1.092-1.045A1.07,1.07,0,0,1,424.845,118.839Z" transform="translate(-412.827 -117.794)" fill="#fff"/>
          <path id="Trazado_99276" data-name="Trazado 99276" d="M433.291,118.839a1.094,1.094,0,1,1-1.092-1.045A1.07,1.07,0,0,1,433.291,118.839Z" transform="translate(-411.441 -117.794)" fill="#fff"/>
          <path id="Trazado_99277" data-name="Trazado 99277" d="M441.738,118.839a1.094,1.094,0,1,1-1.093-1.045A1.07,1.07,0,0,1,441.738,118.839Z" transform="translate(-410.054 -117.794)" fill="#fff"/>
          <path id="Trazado_99278" data-name="Trazado 99278" d="M450.184,118.839a1.094,1.094,0,1,1-1.092-1.045A1.07,1.07,0,0,1,450.184,118.839Z" transform="translate(-408.667 -117.794)" fill="#fff"/>
          <path id="Trazado_99279" data-name="Trazado 99279" d="M458.63,118.839a1.094,1.094,0,1,1-1.092-1.045A1.07,1.07,0,0,1,458.63,118.839Z" transform="translate(-407.28 -117.794)" fill="#fff"/>
          <path id="Trazado_99280" data-name="Trazado 99280" d="M467.077,118.839a1.094,1.094,0,1,1-1.093-1.045A1.071,1.071,0,0,1,467.077,118.839Z" transform="translate(-405.893 -117.794)" fill="#fff"/>
          <path id="Trazado_99281" data-name="Trazado 99281" d="M475.523,118.839a1.094,1.094,0,1,1-1.092-1.045A1.07,1.07,0,0,1,475.523,118.839Z" transform="translate(-404.507 -117.794)" fill="#fff"/>
          <path id="Trazado_99282" data-name="Trazado 99282" d="M483.969,118.839a1.094,1.094,0,1,1-1.092-1.045A1.07,1.07,0,0,1,483.969,118.839Z" transform="translate(-403.12 -117.794)" fill="#fff"/>
          <path id="Trazado_99283" data-name="Trazado 99283" d="M492.416,118.839a1.094,1.094,0,1,1-1.093-1.045A1.071,1.071,0,0,1,492.416,118.839Z" transform="translate(-401.733 -117.794)" fill="#fff"/>
          <path id="Trazado_99284" data-name="Trazado 99284" d="M500.862,118.839a1.094,1.094,0,1,1-1.093-1.045A1.07,1.07,0,0,1,500.862,118.839Z" transform="translate(-400.347 -117.794)" fill="#fff"/>
        </g>
        <g id="Grupo_53316" data-name="Grupo 53316" transform="translate(0 83.587)">
          <ellipse id="Elipse_3980" data-name="Elipse 3980" cx="1.093" cy="1.045" rx="1.093" ry="1.045" transform="translate(0 0)" fill="#fff"/>
          <path id="Trazado_99285" data-name="Trazado 99285" d="M424.845,126.347a1.094,1.094,0,1,1-1.092-1.045A1.069,1.069,0,0,1,424.845,126.347Z" transform="translate(-412.827 -125.302)" fill="#fff"/>
          <ellipse id="Elipse_3981" data-name="Elipse 3981" cx="1.093" cy="1.045" rx="1.093" ry="1.045" transform="translate(19.666 0)" fill="#fff"/>
          <path id="Trazado_99286" data-name="Trazado 99286" d="M441.738,126.347a1.094,1.094,0,1,1-1.093-1.045A1.069,1.069,0,0,1,441.738,126.347Z" transform="translate(-410.054 -125.302)" fill="#fff"/>
          <path id="Trazado_99287" data-name="Trazado 99287" d="M450.184,126.347a1.094,1.094,0,1,1-1.092-1.045A1.069,1.069,0,0,1,450.184,126.347Z" transform="translate(-408.667 -125.302)" fill="#fff"/>
          <ellipse id="Elipse_3982" data-name="Elipse 3982" cx="1.093" cy="1.045" rx="1.093" ry="1.045" transform="translate(49.165 0)" fill="#fff"/>
          <path id="Trazado_99288" data-name="Trazado 99288" d="M467.077,126.347a1.094,1.094,0,1,1-1.093-1.045A1.07,1.07,0,0,1,467.077,126.347Z" transform="translate(-405.893 -125.302)" fill="#fff"/>
          <ellipse id="Elipse_3983" data-name="Elipse 3983" cx="1.093" cy="1.045" rx="1.093" ry="1.045" transform="translate(68.831 0)" fill="#fff"/>
          <ellipse id="Elipse_3984" data-name="Elipse 3984" cx="1.093" cy="1.045" rx="1.093" ry="1.045" transform="translate(78.664 0)" fill="#fff"/>
          <path id="Trazado_99289" data-name="Trazado 99289" d="M492.416,126.347a1.094,1.094,0,1,1-1.093-1.045A1.07,1.07,0,0,1,492.416,126.347Z" transform="translate(-401.733 -125.302)" fill="#fff"/>
          <path id="Trazado_99290" data-name="Trazado 99290" d="M500.862,126.347a1.094,1.094,0,1,1-1.093-1.045A1.069,1.069,0,0,1,500.862,126.347Z" transform="translate(-400.347 -125.302)" fill="#fff"/>
        </g>
        <g id="Grupo_53317" data-name="Grupo 53317" transform="translate(0 91.947)">
          <ellipse id="Elipse_3985" data-name="Elipse 3985" cx="1.093" cy="1.045" rx="1.093" ry="1.045" transform="translate(0 0)" fill="#fff"/>
          <path id="Trazado_99291" data-name="Trazado 99291" d="M424.845,133.855a1.094,1.094,0,1,1-1.092-1.045A1.069,1.069,0,0,1,424.845,133.855Z" transform="translate(-412.827 -132.81)" fill="#fff"/>
          <ellipse id="Elipse_3986" data-name="Elipse 3986" cx="1.093" cy="1.045" rx="1.093" ry="1.045" transform="translate(19.666 0)" fill="#fff"/>
          <path id="Trazado_99292" data-name="Trazado 99292" d="M441.738,133.855a1.094,1.094,0,1,1-1.093-1.045A1.069,1.069,0,0,1,441.738,133.855Z" transform="translate(-410.054 -132.81)" fill="#fff"/>
          <path id="Trazado_99293" data-name="Trazado 99293" d="M450.184,133.855a1.094,1.094,0,1,1-1.092-1.045A1.069,1.069,0,0,1,450.184,133.855Z" transform="translate(-408.667 -132.81)" fill="#fff"/>
          <ellipse id="Elipse_3987" data-name="Elipse 3987" cx="1.093" cy="1.045" rx="1.093" ry="1.045" transform="translate(49.165 0)" fill="#fff"/>
          <path id="Trazado_99294" data-name="Trazado 99294" d="M467.077,133.855a1.094,1.094,0,1,1-1.093-1.045A1.07,1.07,0,0,1,467.077,133.855Z" transform="translate(-405.893 -132.81)" fill="#fff"/>
          <ellipse id="Elipse_3988" data-name="Elipse 3988" cx="1.093" cy="1.045" rx="1.093" ry="1.045" transform="translate(68.831 0)" fill="#fff"/>
          <ellipse id="Elipse_3989" data-name="Elipse 3989" cx="1.093" cy="1.045" rx="1.093" ry="1.045" transform="translate(78.664 0)" fill="#fff"/>
          <path id="Trazado_99295" data-name="Trazado 99295" d="M492.416,133.855a1.094,1.094,0,1,1-1.093-1.045A1.07,1.07,0,0,1,492.416,133.855Z" transform="translate(-401.733 -132.81)" fill="#fff"/>
          <path id="Trazado_99296" data-name="Trazado 99296" d="M500.862,133.855a1.094,1.094,0,1,1-1.093-1.045A1.069,1.069,0,0,1,500.862,133.855Z" transform="translate(-400.347 -132.81)" fill="#fff"/>
        </g>
      </g>
      <line id="Línea_138" data-name="Línea 138" y2="103.53" transform="translate(11.548 46.01)" fill="none" stroke="#31313c" stroke-linecap="round" stroke-width="4" stroke-dasharray="8"/>
    </g>
    <g id="Grupo_158034" data-name="Grupo 158034" transform="translate(303.543 1724)">
      <g id="Grupo_158033-2" data-name="Grupo 158033" transform="translate(0 0)" clip-path="url(#clip-path-2)">
        <path id="Trazado_152232" data-name="Trazado 152232" d="M578.193,161.059A53.9,53.9,0,1,0,543.2,182.771a53.306,53.306,0,0,0,34.995-21.711m-7.409-37.291a36.834,36.834,0,1,1-42.338-30.3,36.817,36.817,0,0,1,42.338,30.3" transform="translate(-372.109 -50.788)" fill="#f2e6dc"/>
        <path id="Trazado_152233" data-name="Trazado 152233" d="M580.736,164.1a51.772,51.772,0,1,0-33.613,20.854A51.2,51.2,0,0,0,580.736,164.1m-3.585-36.4a38.959,38.959,0,1,1-44.78-32.043,38.94,38.94,0,0,1,44.78,32.043" transform="translate(-376.379 -55.061)" fill="#fff"/>
        <path id="Trazado_152234" data-name="Trazado 152234" d="M490.882,95.6a39.028,39.028,0,0,1,34.124,29.373l12.608-2.075a51.733,51.733,0,0,0-46.529-40.067Z" transform="translate(-324.856 -55.348)" fill="#c0c942"/>
        <path id="Trazado_152235" data-name="Trazado 152235" d="M556.742,223.967a38.947,38.947,0,0,1-61.5,34.875L487,268.605c.263.2.527.392.795.584a51.688,51.688,0,0,0,81.559-47.3Z" transform="translate(-355.589 -148.277)" fill="#31313c"/>
        <path id="Trazado_152236" data-name="Trazado 152236" d="M658.467,104.558a38.755,38.755,0,0,1,18.938-8.79q1.944-.32,3.873-.441l.2-12.759a52.722,52.722,0,0,0-6.15.643,51.4,51.4,0,0,0-25.919,12.307Z" transform="translate(-521.413 -55.176)" fill="#785549"/>
        <path id="Trazado_152237" data-name="Trazado 152237" d="M734.69,138.929a51.558,51.558,0,0,0,6.388,67.479l8.254-9.768a38.769,38.769,0,0,1-2.242-52.862l-9.053-9.037a52.561,52.561,0,0,0-3.346,4.188" transform="translate(-614.386 -90.04)" fill="#fd9827"/>
        <path id="Trazado_152238" data-name="Trazado 152238" d="M203.072,390.68a109.558,109.558,0,0,0-16.656,24.605c-10.309,20.895-11.534,54.8-11.326,65.969h58.284c.215-4.766.429-23.962.644-28.729,4.391,2.314,21.221,26.143,23.654,28.7h69.32c-13.754-18.554-37.743-45.779-54.632-59.411,1.221-6.65,2.443-11.514,3.664-18.164L203.072,390.68" transform="translate(-9.267 -261.068)" fill="#363e44"/>
        <path id="Trazado_152239" data-name="Trazado 152239" d="M3.892,249.554c18.2,3.376,71.325,9.91,68.331,32.142C69.746,300.085,18.291,291.443,0,289.26q1.946-19.853,3.892-39.706" transform="translate(303.57 -166.762)" fill="#f8b8a4"/>
        <path id="Trazado_152240" data-name="Trazado 152240" d="M285.69,248.1l6,44.555-107.93-25.935,19.987-29.925-20.653-1.33.666-43.225,132.58,18.62-2,45.885Z" transform="translate(-1.276 -128.461)" fill="#fd9827"/>
        <path id="Trazado_152241" data-name="Trazado 152241" d="M542.922,212.81c-6.11.217-47.7-1.505-53.028,9.135-5.6,11.175,24.907,58.793,35.31,71.986a16.846,16.846,0,0,0,5.5,7.814c3.573,2.7,5.778,1.724,9.993,3.99,7.114,3.825,7.746,10.58,10.451,9.647,1.857-.641,1.66-4.593.541-8.15-1.149-3.652-3.432-5.532-3-5.985.476-.5,2.549,1.712,5.378,4.222,1.315,1.166,2.948,6.587,5.615,6.085,2.126-.4,1.841-6.46-1.16-10.823-2.123-3.087-5.64-4.026-5.336-4.638.229-.459,2.311.152,3.948,1.212,2.7,1.749,4.433,7.278,6.878,6.768,2.4-.5,2.053-5.788-.452-9.975-2.112-3.53-6.085-4.39-5.711-5.153.263-.537,2.122-.521,5.829.665,3.094.99,8.473,4.906,9.994,1.829,1.28-2.588-4.271-6.834-10.112-9.8-3.87-1.968-8.018-3.507-10.374-4.493a30.292,30.292,0,0,1,5.33-2.66c4.223-1.609,5.949-1.637,6.268-3.653.329-2.077-3.185-2.908-7.284-2.788-4.89.143-8.325,2.187-10.476,2.95L534.2,247.714c2.332.166,5.853.3,8.184.462.11-11.079.542-22.515.539-35.366" transform="translate(-360.547 -142.208)" fill="#f8b8a4"/>
        <path id="Trazado_152242" data-name="Trazado 152242" d="M616.909,283.073a.332.332,0,0,0,.294-.486l-8.873-16.838a.332.332,0,0,0-.588.309l8.872,16.838a.333.333,0,0,0,.294.177" transform="translate(-443.311 -177.466)" fill="#363e44"/>
        <path id="Trazado_152243" data-name="Trazado 152243" d="M283.305,323.519a.319.319,0,0,0,.059-.005.332.332,0,0,0,.269-.385l-1.9-10.642a.332.332,0,0,0-.654.117l1.9,10.642a.332.332,0,0,0,.327.273" transform="translate(-1.145 -208.633)" fill="#fff"/>
        <path id="Trazado_152244" data-name="Trazado 152244" d="M272.178,321.495a.319.319,0,0,0,.059-.005.331.331,0,0,0,.269-.385l-1.9-10.642a.332.332,0,0,0-.654.117l1.9,10.642a.332.332,0,0,0,.327.273" transform="translate(13.68 -207.28)" fill="#fff"/>
        <path id="Trazado_152245" data-name="Trazado 152245" d="M258.5,341.8a5.769,5.769,0,0,0,4.757-2.508,5.7,5.7,0,0,0,.9-4.3l-5.943-31.375a2.681,2.681,0,0,0-3.134-2.134l-6.037,1.139a2.678,2.678,0,0,0-2.137,3.128l5.943,31.375A5.762,5.762,0,0,0,258.5,341.8m-2.918-39.7a2.019,2.019,0,0,1,1.978,1.641l5.943,31.375a5.081,5.081,0,0,1-4.056,5.936A5.1,5.1,0,0,1,253.5,337l-5.943-31.375a2.015,2.015,0,0,1,1.608-2.353l6.037-1.14a2.071,2.071,0,0,1,.379-.035" transform="translate(29.613 -201.43)" fill="#fff"/>
        <path id="Trazado_152246" data-name="Trazado 152246" d="M279.973,231.45l6.7-1.264-6.888-36.362-6.7,1.265Zm5.923-1.793-5.393,1.018-6.641-35.057,5.394-1.018Z" transform="translate(-1.526 -129.521)" fill="#fff"/>
        <path id="Trazado_152247" data-name="Trazado 152247" d="M75.944,300.118c-15.233,3.194-51.48,8.943-55,9.645-6.572,1.312-20.656,3.719-20.7,8.31A4.723,4.723,0,0,0,2.842,322a4.771,4.771,0,0,0-.954,5.2A5.007,5.007,0,0,0,5.5,329.9a4,4,0,0,0-1.539,3.766A4.2,4.2,0,0,0,8.586,336.8a4.683,4.683,0,0,0-.052,3.394,4.933,4.933,0,0,0,4.57,2.915c5.84-1.161,15.24-1.485,26.46-2.557,26.35-2.518,37.994-4.744,50.5-8.261a20.97,20.97,0,0,0,15.01-17.142c-9.779-5.07-19.354-9.956-29.133-15.026" transform="translate(270.755 -200.551)" fill="#f8b8a4"/>
        <path id="Trazado_152248" data-name="Trazado 152248" d="M84.8,303.809a.332.332,0,0,0,.067-.007c3.11-.638,10-1.99,16.659-3.3s13.552-2.659,16.665-3.3a.332.332,0,1,0-.134-.65c-3.11.638-10,1.99-16.659,3.3s-13.552,2.659-16.665,3.3a.332.332,0,0,0,.066.657" transform="translate(229.385 -198.167)" fill="#363e44"/>
        <path id="Trazado_152249" data-name="Trazado 152249" d="M286.6,348.833a.338.338,0,0,0,.086-.011.332.332,0,0,0,.235-.407l-.766-2.843a.332.332,0,0,0-.642.172l.767,2.843a.332.332,0,0,0,.321.246" transform="translate(-5.91 -230.761)" fill="#363e44"/>
        <path id="Trazado_152250" data-name="Trazado 152250" d="M280.777,370.584a.337.337,0,0,0,.086-.011.332.332,0,0,0,.235-.407l-.766-2.842a.332.332,0,0,0-.642.172l.767,2.843a.332.332,0,0,0,.321.246" transform="translate(1.847 -245.296)" fill="#363e44"/>
        <path id="Trazado_152251" data-name="Trazado 152251" d="M275.092,392.8a.338.338,0,0,0,.086-.011.332.332,0,0,0,.235-.407l-.766-2.843a.332.332,0,0,0-.642.172l.767,2.843a.332.332,0,0,0,.321.245" transform="translate(9.421 -260.14)" fill="#363e44"/>
        <path id="Trazado_152252" data-name="Trazado 152252" d="M269.522,412.837a.337.337,0,0,0,.086-.011.332.332,0,0,0,.235-.407l-.766-2.843a.332.332,0,0,0-.642.172l.767,2.843a.332.332,0,0,0,.321.245" transform="translate(16.843 -273.532)" fill="#363e44"/>
        <path id="Trazado_152253" data-name="Trazado 152253" d="M343.332,15.307A15.335,15.335,0,1,0,358.667,0a15.321,15.321,0,0,0-15.335,15.307" transform="translate(-112.203 0)" fill="#363e44"/>
        <path id="Trazado_152254" data-name="Trazado 152254" d="M431.033,80.006C418.5,81.07,413.6,85.8,411.546,89.482c-4,7.149-1.693,12.067-5.5,21.446-3.117,7.688-8.923,12.535-12.991,15.295A37.942,37.942,0,0,0,423.371,136.7a101.184,101.184,0,0,1,7.662-56.692" transform="translate(-185.761 -53.464)" fill="#363e44"/>
        <path id="Trazado_152255" data-name="Trazado 152255" d="M358.144,89.562c-.841-.081-8.909-.74-13.769,4.766-3.616,4.1-4.05,9.357-3.442,18.288.716,10.517,2.616,16.7,5.649,18.781,4.793,3.28,19.153-4.056,24.553-13.239a21.143,21.143,0,0,0-.666-21.723c-4.108-6.539-11.788-6.82-12.325-6.872" transform="translate(-111.15 -59.805)" fill="#f8b8a4"/>
        <path id="Trazado_152256" data-name="Trazado 152256" d="M369.141,210.109h0a7.735,7.735,0,0,0,7.742-7.728V195.1a7.742,7.742,0,0,0-15.485,0v7.286a7.735,7.735,0,0,0,7.742,7.728" transform="translate(-121.089 -125.206)" fill="#f8b8a4"/>
        <path id="Trazado_152257" data-name="Trazado 152257" d="M351.151,190.594a13.213,13.213,0,0,0,2.857-.35c6.258-1.4,15.127-6.922,19.137-13.741a.332.332,0,0,0-.573-.335c-3.919,6.663-12.59,12.061-18.71,13.429-2.442.546-4.333.427-5.467-.347a.332.332,0,1,0-.375.548,5.514,5.514,0,0,0,3.131.8" transform="translate(-112.901 -117.612)" fill="#363e44"/>
        <path id="Trazado_152258" data-name="Trazado 152258" d="M343.569,87.059c-3.231,7.271,8.161,14.815,18.184,11.972,5.862-1.662,11.335-7.734,10.132-11.425-2.07-6.35-25-8.013-28.316-.547" transform="translate(-110.146 -54.875)" fill="#363e44"/>
        <path id="Trazado_152259" data-name="Trazado 152259" d="M440.308,129.846a13.928,13.928,0,0,0,3.18,5.218c.487.485,3.467-4.338,2.781-4.58a14.015,14.015,0,0,0-5.961-.638" transform="translate(-216.804 -86.713)" fill="#fff"/>
        <path id="Trazado_152260" data-name="Trazado 152260" d="M429.6,139.472a13.147,13.147,0,0,1-7.993-1.618,9.827,9.827,0,0,1-1.656-1.338,5.476,5.476,0,0,1,2.78-4.579,9.9,9.9,0,0,1,2.032.979,13.1,13.1,0,0,1,4.837,6.555" transform="translate(-193.264 -88.167)" fill="#363e44"/>
        <path id="Trazado_152261" data-name="Trazado 152261" d="M207.135,78.918A34.852,34.852,0,1,0,241.987,44.13a34.82,34.82,0,0,0-34.852,34.788" transform="translate(30.229 -29.49)" fill="#e2a18d"/>
        <path id="Trazado_152262" data-name="Trazado 152262" d="M241.32,113.369a35.12,35.12,0,1,0-35.185-35.12,35.077,35.077,0,0,0,35.185,35.12m0-69.576a34.527,34.527,0,0,1,34.52,34.456,34.489,34.489,0,0,1-34.52,34.456,34.456,34.456,0,1,1,0-68.912" transform="translate(30.896 -28.822)" fill="#fff"/>
        <path id="Trazado_152263" data-name="Trazado 152263" d="M269.448,223.886a29.307,29.307,0,0,0,18.423-6.422.332.332,0,1,0-.414-.519,29,29,0,0,1-30.789,3.313.332.332,0,1,0-.294.595,29.333,29.333,0,0,0,13.075,3.033" transform="translate(2.767 -144.924)" fill="#fff"/>
        <path id="Trazado_152264" data-name="Trazado 152264" d="M371.4,97.965a.332.332,0,0,0,.32-.245,28.829,28.829,0,0,1,8.169-13.493.332.332,0,1,0-.454-.485,29.488,29.488,0,0,0-8.356,13.8.332.332,0,0,0,.321.419" transform="translate(-127.416 -55.9)" fill="#fff"/>
        <path id="Trazado_152265" data-name="Trazado 152265" d="M274.163,65.175a.333.333,0,0,0,.178-.052,29.018,29.018,0,0,1,27.717-1.8.332.332,0,1,0,.281-.6,29.684,29.684,0,0,0-28.355,1.845.332.332,0,0,0,.179.612" transform="translate(-17.631 -40.071)" fill="#fff"/>
        <path id="Trazado_152266" data-name="Trazado 152266" d="M228.352,188.7a.332.332,0,0,0,.238-.1,29.731,29.731,0,0,0,6.689-10.717.332.332,0,0,0-.627-.222,29.065,29.065,0,0,1-6.539,10.477.331.331,0,0,0,.238.563" transform="translate(64.828 -118.575)" fill="#fff"/>
        <path id="Trazado_152267" data-name="Trazado 152267" d="M328.12,139.24a54.409,54.409,0,0,0,23.107,5.624c2.687,0-2.382-21.463-4.933-20.248A54.425,54.425,0,0,0,328.12,139.24" transform="translate(-85.134 -83.24)" fill="#fff"/>
        <path id="Trazado_152268" data-name="Trazado 152268" d="M226.7,117.168a38.6,38.6,0,0,1,8.3-2.89c15.971-3.522,31.381,4.751,31.381,4.751s-10.484,13.982-26.456,17.5a38.394,38.394,0,0,1-8.265.872,21.31,21.31,0,0,1-4.962-20.237" transform="translate(34.439 -75.782)" fill="#363e44"/>
        <rect id="Rectángulo_35066" data-name="Rectángulo 35066" width="50.118" height="60.066" transform="translate(138.988 162.934)" fill="#c0c942"/>
        <rect id="Rectángulo_35067" data-name="Rectángulo 35067" width="50.118" height="91.863" transform="translate(69.494 131.137)" fill="#c0c942"/>
        <path id="Trazado_152269" data-name="Trazado 152269" d="M687.96,554.67a.332.332,0,0,0,.332-.332V501.364a.332.332,0,0,0-.665,0v52.974a.332.332,0,0,0,.332.332" transform="translate(-540.928 -334.81)" fill="#776e42"/>
        <rect id="Rectángulo_35068" data-name="Rectángulo 35068" width="50.118" height="129.973" transform="translate(0 93.027)" fill="#c0c942"/>
        <path id="Trazado_152270" data-name="Trazado 152270" d="M1106.128,413.861a.332.332,0,0,0,.332-.332V290.647a.332.332,0,0,0-.665,0V413.529a.332.332,0,0,0,.332.332" transform="translate(-1098.084 -194)" fill="#776e42"/>
        <path id="Trazado_152271" data-name="Trazado 152271" d="M896.26,490.26a.332.332,0,0,0,.332-.332V404.977a.332.332,0,0,0-.665,0v84.952a.332.332,0,0,0,.332.332" transform="translate(-818.461 -270.4)" fill="#776e42"/>
        <path id="Trazado_152272" data-name="Trazado 152272" d="M872.954,272.418H866.7a57.66,57.66,0,0,1-2.375,8.864l5.415,3.121-10.588,18.305-5.427-3.128a58.559,58.559,0,0,1-6.5,6.484l3.134,5.417L832.021,322.05h0l-3.126-5.405a57.9,57.9,0,0,1-8.88,2.371v6.245H798.838v-6.245a57.9,57.9,0,0,1-8.88-2.371l-3.126,5.405-18.339-10.569,3.134-5.417a58.5,58.5,0,0,1-6.5-6.484l-5.427,3.128L749.115,284.4l5.415-3.121a57.632,57.632,0,0,1-2.375-8.864H745.9V251.281h6.257a57.631,57.631,0,0,1,2.375-8.864l-5.415-3.121L759.7,220.992l5.427,3.128a58.5,58.5,0,0,1,6.5-6.484l-3.134-5.417,18.339-10.569,3.126,5.405a57.9,57.9,0,0,1,8.88-2.371v-6.245h21.176v6.245a57.9,57.9,0,0,1,8.88,2.371l3.126-5.405,18.339,10.569-3.134,5.417a58.557,58.557,0,0,1,6.5,6.484l5.427-3.128L869.737,239.3l-5.415,3.121a57.659,57.659,0,0,1,2.375,8.864h6.257Zm-64.677-45.577A35.028,35.028,0,1,0,844.5,263a35.186,35.186,0,0,0-36.222-36.155" transform="translate(-744.957 -132.605)" fill="#31313c"/>
        <path id="Trazado_152273" data-name="Trazado 152273" d="M847.573,343.277a46.733,46.733,0,0,0,45.261-34.911.435.435,0,0,0-.843-.218,45.881,45.881,0,1,1-51.29-56.834.435.435,0,0,0,.366-.495.44.44,0,0,0-.5-.366,46.669,46.669,0,0,0,7,92.824" transform="translate(-783.103 -167.361)" fill="#f2e6dc"/>
      </g>
    </g>
  </g>
</svg>
