<svg xmlns="http://www.w3.org/2000/svg" xmlns:xlink="http://www.w3.org/1999/xlink" width="718" height="272" viewBox="0 0 718 272">
  <defs>
    <clipPath id="clip-path">
      <rect id="Rectángulo_35195" data-name="Rectángulo 35195" width="45.284" height="49.125" fill="#31313c"/>
    </clipPath>
    <clipPath id="clip-path-2">
      <rect id="Rectángulo_35196" data-name="Rectángulo 35196" width="44.957" height="46.486" fill="#31313c"/>
    </clipPath>
    <clipPath id="clip-path-3">
      <rect id="Rectángulo_35204" data-name="Rectángulo 35204" width="47.278" height="47.268" fill="#31313c"/>
    </clipPath>
    <clipPath id="clip-path-4">
      <rect id="Rectángulo_35212" data-name="Rectángulo 35212" width="37.584" height="46.959" fill="#31313c"/>
    </clipPath>
  </defs>
  <g id="Grupo_158216" data-name="Grupo 158216" transform="translate(1141.5 10063)">
    <path id="Trazado_153147" data-name="Trazado 153147" d="M0,0H715" transform="translate(-1140 -9876)" fill="none" stroke="#31313c" stroke-linecap="round" stroke-width="3"/>
    <path id="Trazado_153136" data-name="Trazado 153136" d="M10,0H128a10,10,0,0,1,10,10v95a10,10,0,0,1-10,10H10A10,10,0,0,1,0,105V10A10,10,0,0,1,10,0Z" transform="translate(-1140 -10026)" fill="#31313c"/>
    <path id="Trazado_153137" data-name="Trazado 153137" d="M14,0,28,24H0Z" transform="translate(-1057 -9896) rotate(180)" fill="#31313c"/>
    <path id="Trazado_153138" data-name="Trazado 153138" d="M10,0H118a10,10,0,0,1,10,10V95a10,10,0,0,1-10,10H10A10,10,0,0,1,0,95V10A10,10,0,0,1,10,0Z" transform="translate(-1135 -10021)" fill="#f5e8df"/>
    <path id="Trazado_153139" data-name="Trazado 153139" d="M18.547,10.352h-4.5V15H11.7V3.625h7.406v1.9H14.047V8.461h4.5Zm6.664,3.789A2.831,2.831,0,0,1,22.9,15.156a2.67,2.67,0,0,1-2.074-.781,3.335,3.335,0,0,1-.73-2.289V6.547h2.258v5.467q0,1.322,1.2,1.322a1.63,1.63,0,0,0,1.578-.8V6.547H27.4V15H25.273ZM31.18,6.547l.07.977a2.951,2.951,0,0,1,2.43-1.133,2.453,2.453,0,0,1,2,.789,3.682,3.682,0,0,1,.672,2.359V15H34.094V9.581a1.47,1.47,0,0,0-.312-1.045,1.4,1.4,0,0,0-1.039-.325,1.553,1.553,0,0,0-1.43.814V15H29.055V6.547Zm10.4,6.789a1.481,1.481,0,0,0,1.016-.344A1.2,1.2,0,0,0,43,12.078h2.117a2.9,2.9,0,0,1-.469,1.574,3.093,3.093,0,0,1-1.262,1.109,3.949,3.949,0,0,1-1.77.395A3.67,3.67,0,0,1,38.758,14a4.56,4.56,0,0,1-1.047-3.184v-.148A4.508,4.508,0,0,1,38.75,7.555,3.627,3.627,0,0,1,41.6,6.391a3.555,3.555,0,0,1,2.543.9,3.2,3.2,0,0,1,.973,2.4H43a1.551,1.551,0,0,0-.406-1.072,1.51,1.51,0,0,0-2.223.163,3.333,3.333,0,0,0-.4,1.866v.235a3.375,3.375,0,0,0,.4,1.878A1.377,1.377,0,0,0,41.578,13.336ZM48.789,15H46.523V6.547h2.266Zm-2.4-10.641a1.112,1.112,0,0,1,.34-.836,1.465,1.465,0,0,1,1.848,0,1.105,1.105,0,0,1,.344.836,1.108,1.108,0,0,1-.348.844,1.448,1.448,0,0,1-1.836,0A1.108,1.108,0,0,1,46.391,4.359ZM50.3,10.7a5.013,5.013,0,0,1,.484-2.242A3.546,3.546,0,0,1,52.176,6.93a4.069,4.069,0,0,1,2.113-.539,3.849,3.849,0,0,1,2.793,1.047,4.2,4.2,0,0,1,1.207,2.844l.016.578a4.418,4.418,0,0,1-1.086,3.121,4.209,4.209,0,0,1-5.832,0A4.5,4.5,0,0,1,50.3,10.8Zm2.258.16a3.16,3.16,0,0,0,.453,1.843,1.628,1.628,0,0,0,2.578.008,3.457,3.457,0,0,0,.461-2.015,3.128,3.128,0,0,0-.461-1.831,1.5,1.5,0,0,0-1.3-.649,1.474,1.474,0,0,0-1.281.646A3.516,3.516,0,0,0,52.555,10.856Zm9.219-4.309.07.977a2.951,2.951,0,0,1,2.43-1.133,2.453,2.453,0,0,1,2,.789,3.682,3.682,0,0,1,.672,2.359V15H64.688V9.581a1.47,1.47,0,0,0-.312-1.045,1.4,1.4,0,0,0-1.039-.325,1.553,1.553,0,0,0-1.43.814V15H59.648V6.547Zm10.773,8.609a4.15,4.15,0,0,1-3.027-1.141,4.054,4.054,0,0,1-1.168-3.039v-.219a5.106,5.106,0,0,1,.492-2.277,3.612,3.612,0,0,1,1.395-1.547A3.914,3.914,0,0,1,72.3,6.391a3.508,3.508,0,0,1,2.73,1.094,4.444,4.444,0,0,1,1,3.1v.922H70.641a2.1,2.1,0,0,0,.66,1.328,2,2,0,0,0,1.395.5,2.437,2.437,0,0,0,2.039-.945l1.109,1.242a3.389,3.389,0,0,1-1.375,1.121A4.511,4.511,0,0,1,72.547,15.156Zm-.258-6.945a1.411,1.411,0,0,0-1.09.455,2.357,2.357,0,0,0-.535,1.3H73.8V9.788A1.681,1.681,0,0,0,73.4,8.623,1.456,1.456,0,0,0,72.289,8.211Zm9.594,4.453a.727.727,0,0,0-.41-.652,4.659,4.659,0,0,0-1.316-.426q-3.016-.633-3.016-2.562a2.323,2.323,0,0,1,.934-1.879,3.766,3.766,0,0,1,2.441-.754,4.053,4.053,0,0,1,2.574.758,2.388,2.388,0,0,1,.965,1.969H81.8a1.092,1.092,0,0,0-.312-.8A1.322,1.322,0,0,0,80.508,8a1.351,1.351,0,0,0-.883.258.814.814,0,0,0-.312.656.7.7,0,0,0,.355.605,3.657,3.657,0,0,0,1.2.4,9.8,9.8,0,0,1,1.422.379,2.336,2.336,0,0,1,1.789,2.273,2.2,2.2,0,0,1-.992,1.871,4.28,4.28,0,0,1-2.562.715,4.47,4.47,0,0,1-1.887-.379,3.166,3.166,0,0,1-1.293-1.039,2.414,2.414,0,0,1-.469-1.426h2.141a1.179,1.179,0,0,0,.445.922,1.766,1.766,0,0,0,1.109.32,1.635,1.635,0,0,0,.98-.246A.766.766,0,0,0,81.883,12.664Zm7.281-1.953a5.094,5.094,0,0,1,.887-3.148,2.877,2.877,0,0,1,2.426-1.172,2.589,2.589,0,0,1,2.039.922V3h2.266V15H94.742l-.109-.9a2.657,2.657,0,0,1-2.172,1.055,2.869,2.869,0,0,1-2.395-1.176A5.258,5.258,0,0,1,89.164,10.711Zm2.258.161a3.355,3.355,0,0,0,.414,1.829,1.348,1.348,0,0,0,1.2.636,1.51,1.51,0,0,0,1.477-.887V9.1a1.489,1.489,0,0,0-1.461-.887Q91.422,8.211,91.422,10.872Zm11,4.285a4.15,4.15,0,0,1-3.027-1.141,4.054,4.054,0,0,1-1.168-3.039v-.219a5.106,5.106,0,0,1,.492-2.277,3.612,3.612,0,0,1,1.395-1.547,3.914,3.914,0,0,1,2.059-.543,3.508,3.508,0,0,1,2.73,1.094,4.444,4.444,0,0,1,1,3.1v.922h-5.383a2.1,2.1,0,0,0,.66,1.328,2,2,0,0,0,1.395.5,2.437,2.437,0,0,0,2.039-.945l1.109,1.242a3.389,3.389,0,0,1-1.375,1.121A4.511,4.511,0,0,1,102.422,15.156Zm-.258-6.945a1.411,1.411,0,0,0-1.09.455,2.357,2.357,0,0,0-.535,1.3h3.141V9.788a1.681,1.681,0,0,0-.406-1.165A1.456,1.456,0,0,0,102.164,8.211Zm-80.781,20.5a4.954,4.954,0,0,1,.926-3.133,3,3,0,0,1,2.5-1.187,2.631,2.631,0,0,1,2.164.953l.094-.8h2.047v8.172a3.613,3.613,0,0,1-.5,1.93,3.236,3.236,0,0,1-1.418,1.25,4.985,4.985,0,0,1-2.141.43,4.635,4.635,0,0,1-1.812-.371A3.217,3.217,0,0,1,21.9,35l1-1.375a2.645,2.645,0,0,0,2.047.945,1.936,1.936,0,0,0,1.4-.48,1.8,1.8,0,0,0,.5-1.363v-.453a2.612,2.612,0,0,1-2.055.883,2.992,2.992,0,0,1-2.465-1.191,4.953,4.953,0,0,1-.941-3.16Zm2.258.161a3.1,3.1,0,0,0,.461,1.809,1.465,1.465,0,0,0,1.266.655,1.567,1.567,0,0,0,1.477-.777V26.988a1.563,1.563,0,0,0-1.461-.777,1.474,1.474,0,0,0-1.277.667A3.5,3.5,0,0,0,23.641,28.872Zm11.094,4.285a4.15,4.15,0,0,1-3.027-1.141,4.054,4.054,0,0,1-1.168-3.039v-.219a5.106,5.106,0,0,1,.492-2.277,3.612,3.612,0,0,1,1.395-1.547,3.914,3.914,0,0,1,2.059-.543,3.508,3.508,0,0,1,2.73,1.094,4.444,4.444,0,0,1,1,3.1v.922H32.828a2.1,2.1,0,0,0,.66,1.328,2,2,0,0,0,1.395.5,2.437,2.437,0,0,0,2.039-.945l1.109,1.242a3.389,3.389,0,0,1-1.375,1.121A4.511,4.511,0,0,1,34.734,33.156Zm-.258-6.945a1.411,1.411,0,0,0-1.09.455,2.357,2.357,0,0,0-.535,1.3h3.141v-.181a1.681,1.681,0,0,0-.406-1.165A1.456,1.456,0,0,0,34.477,26.211Zm9.594,4.453a.727.727,0,0,0-.41-.652,4.659,4.659,0,0,0-1.316-.426q-3.016-.633-3.016-2.562a2.323,2.323,0,0,1,.934-1.879,3.766,3.766,0,0,1,2.441-.754,4.053,4.053,0,0,1,2.574.758,2.388,2.388,0,0,1,.965,1.969H43.984a1.092,1.092,0,0,0-.312-.8A1.322,1.322,0,0,0,42.7,26a1.351,1.351,0,0,0-.883.258.814.814,0,0,0-.312.656.7.7,0,0,0,.355.605,3.657,3.657,0,0,0,1.2.4,9.8,9.8,0,0,1,1.422.379,2.336,2.336,0,0,1,1.789,2.273,2.2,2.2,0,0,1-.992,1.871,4.28,4.28,0,0,1-2.562.715,4.47,4.47,0,0,1-1.887-.379,3.166,3.166,0,0,1-1.293-1.039,2.414,2.414,0,0,1-.469-1.426H41.2a1.179,1.179,0,0,0,.445.922,1.766,1.766,0,0,0,1.109.32,1.635,1.635,0,0,0,.98-.246A.766.766,0,0,0,44.07,30.664Zm6.352-8.2v2.078h1.445V26.2H50.422v4.219a1.007,1.007,0,0,0,.18.672.9.9,0,0,0,.688.2,3.6,3.6,0,0,0,.664-.055v1.711a4.648,4.648,0,0,1-1.367.2,2.156,2.156,0,0,1-2.422-2.4V26.2H46.93V24.547h1.234V22.469ZM55.508,33H53.242V24.547h2.266Zm-2.4-10.641a1.112,1.112,0,0,1,.34-.836,1.465,1.465,0,0,1,1.848,0,1.193,1.193,0,0,1,0,1.68,1.448,1.448,0,0,1-1.836,0A1.108,1.108,0,0,1,53.109,22.359ZM57.016,28.7a5.013,5.013,0,0,1,.484-2.242,3.546,3.546,0,0,1,1.395-1.523,4.069,4.069,0,0,1,2.113-.539A3.849,3.849,0,0,1,63.8,25.438a4.2,4.2,0,0,1,1.207,2.844l.016.578a4.418,4.418,0,0,1-1.086,3.121,4.209,4.209,0,0,1-5.832,0,4.5,4.5,0,0,1-1.09-3.187Zm2.258.16a3.16,3.16,0,0,0,.453,1.843,1.628,1.628,0,0,0,2.578.008,3.457,3.457,0,0,0,.461-2.015A3.128,3.128,0,0,0,62.3,26.86a1.5,1.5,0,0,0-1.3-.649,1.474,1.474,0,0,0-1.281.646A3.516,3.516,0,0,0,59.273,28.856ZM61.453,21h2.461L61.75,23.422H59.914Zm7.039,3.547.07.977a2.951,2.951,0,0,1,2.43-1.133,2.453,2.453,0,0,1,2,.789,3.682,3.682,0,0,1,.672,2.359V33H71.406V27.581a1.47,1.47,0,0,0-.312-1.045,1.4,1.4,0,0,0-1.039-.325,1.553,1.553,0,0,0-1.43.814V33H66.367V24.547Zm10.516,4.164a5.094,5.094,0,0,1,.887-3.148,2.877,2.877,0,0,1,2.426-1.172,2.589,2.589,0,0,1,2.039.922V21h2.266V33H84.586l-.109-.9A2.657,2.657,0,0,1,82.3,33.156,2.869,2.869,0,0,1,79.91,31.98,5.258,5.258,0,0,1,79.008,28.711Zm2.258.161A3.355,3.355,0,0,0,81.68,30.7a1.348,1.348,0,0,0,1.2.636,1.51,1.51,0,0,0,1.477-.887V27.1a1.489,1.489,0,0,0-1.461-.887Q81.266,26.211,81.266,28.872Zm11,4.285a4.15,4.15,0,0,1-3.027-1.141,4.054,4.054,0,0,1-1.168-3.039v-.219a5.106,5.106,0,0,1,.492-2.277,3.612,3.612,0,0,1,1.395-1.547,3.914,3.914,0,0,1,2.059-.543,3.508,3.508,0,0,1,2.73,1.094,4.444,4.444,0,0,1,1,3.1v.922H90.359a2.1,2.1,0,0,0,.66,1.328,2,2,0,0,0,1.395.5,2.437,2.437,0,0,0,2.039-.945l1.109,1.242a3.389,3.389,0,0,1-1.375,1.121A4.511,4.511,0,0,1,92.266,33.156Zm-.258-6.945a1.411,1.411,0,0,0-1.09.455,2.357,2.357,0,0,0-.535,1.3h3.141v-.181a1.681,1.681,0,0,0-.406-1.165A1.456,1.456,0,0,0,92.008,26.211Zm-77.625,20.5a5.094,5.094,0,0,1,.887-3.148A2.877,2.877,0,0,1,17.7,42.391a2.589,2.589,0,0,1,2.039.922V39H22V51H19.961l-.109-.9a2.657,2.657,0,0,1-2.172,1.055,2.869,2.869,0,0,1-2.395-1.176A5.258,5.258,0,0,1,14.383,46.711Zm2.258.161a3.355,3.355,0,0,0,.414,1.829,1.348,1.348,0,0,0,1.2.636,1.51,1.51,0,0,0,1.477-.887V45.1a1.489,1.489,0,0,0-1.461-.887Q16.641,44.211,16.641,46.872ZM23.4,46.7a5.013,5.013,0,0,1,.484-2.242,3.546,3.546,0,0,1,1.395-1.523,4.069,4.069,0,0,1,2.113-.539,3.849,3.849,0,0,1,2.793,1.047,4.2,4.2,0,0,1,1.207,2.844l.016.578A4.418,4.418,0,0,1,30.32,49.98a3.775,3.775,0,0,1-2.914,1.176,3.793,3.793,0,0,1-2.918-1.172A4.5,4.5,0,0,1,23.4,46.8Zm2.258.16a3.16,3.16,0,0,0,.453,1.843,1.628,1.628,0,0,0,2.578.008,3.457,3.457,0,0,0,.461-2.015,3.128,3.128,0,0,0-.461-1.831,1.5,1.5,0,0,0-1.3-.649,1.474,1.474,0,0,0-1.281.646A3.516,3.516,0,0,0,25.656,46.856Zm10.656,2.48a1.481,1.481,0,0,0,1.016-.344,1.2,1.2,0,0,0,.406-.914h2.117a2.9,2.9,0,0,1-.469,1.574,3.093,3.093,0,0,1-1.262,1.109,3.949,3.949,0,0,1-1.77.395A3.67,3.67,0,0,1,33.492,50a4.56,4.56,0,0,1-1.047-3.184v-.148a4.508,4.508,0,0,1,1.039-3.117,3.627,3.627,0,0,1,2.852-1.164,3.555,3.555,0,0,1,2.543.9,3.2,3.2,0,0,1,.973,2.4H37.734a1.551,1.551,0,0,0-.406-1.072,1.51,1.51,0,0,0-2.223.163,3.333,3.333,0,0,0-.4,1.866v.235a3.375,3.375,0,0,0,.4,1.878A1.377,1.377,0,0,0,36.313,49.336Zm9.891.8a2.831,2.831,0,0,1-2.312,1.016,2.67,2.67,0,0,1-2.074-.781,3.335,3.335,0,0,1-.73-2.289V42.547h2.258v5.467q0,1.322,1.2,1.322a1.63,1.63,0,0,0,1.578-.8V42.547h2.266V51H46.266Zm6.008-7.594.07.945a2.971,2.971,0,0,1,2.43-1.1,2.255,2.255,0,0,1,2.242,1.289,2.9,2.9,0,0,1,2.539-1.289,2.521,2.521,0,0,1,2.047.8,3.681,3.681,0,0,1,.672,2.41V51H59.945V45.6a1.616,1.616,0,0,0-.281-1.053,1.245,1.245,0,0,0-.992-.333,1.409,1.409,0,0,0-1.406.971L57.273,51H55.016V45.6a1.6,1.6,0,0,0-.289-1.065,1.257,1.257,0,0,0-.984-.329,1.463,1.463,0,0,0-1.391.8V51H50.094V42.547Zm15.625,8.609a4.15,4.15,0,0,1-3.027-1.141,4.054,4.054,0,0,1-1.168-3.039v-.219a5.106,5.106,0,0,1,.492-2.277,3.612,3.612,0,0,1,1.395-1.547,3.914,3.914,0,0,1,2.059-.543,3.508,3.508,0,0,1,2.73,1.094,4.444,4.444,0,0,1,1,3.1v.922H65.93a2.1,2.1,0,0,0,.66,1.328,2,2,0,0,0,1.395.5,2.437,2.437,0,0,0,2.039-.945l1.109,1.242a3.389,3.389,0,0,1-1.375,1.121A4.511,4.511,0,0,1,67.836,51.156Zm-.258-6.945a1.411,1.411,0,0,0-1.09.455,2.357,2.357,0,0,0-.535,1.3h3.141v-.181a1.681,1.681,0,0,0-.406-1.165A1.456,1.456,0,0,0,67.578,44.211Zm7.094-1.664.07.977a2.951,2.951,0,0,1,2.43-1.133,2.453,2.453,0,0,1,2,.789,3.682,3.682,0,0,1,.672,2.359V51H77.586V45.581a1.47,1.47,0,0,0-.312-1.045,1.4,1.4,0,0,0-1.039-.325,1.553,1.553,0,0,0-1.43.814V51H72.547V42.547Zm9.586-2.078v2.078H85.7V44.2H84.258v4.219a1.007,1.007,0,0,0,.18.672.9.9,0,0,0,.688.2,3.6,3.6,0,0,0,.664-.055v1.711a4.648,4.648,0,0,1-1.367.2A2.156,2.156,0,0,1,82,48.758V44.2H80.766V42.547H82V40.469ZM86.375,46.7a5.013,5.013,0,0,1,.484-2.242,3.546,3.546,0,0,1,1.395-1.523,4.069,4.069,0,0,1,2.113-.539,3.849,3.849,0,0,1,2.793,1.047,4.2,4.2,0,0,1,1.207,2.844l.016.578A4.418,4.418,0,0,1,93.3,49.98a4.209,4.209,0,0,1-5.832,0,4.5,4.5,0,0,1-1.09-3.187Zm2.258.16a3.16,3.16,0,0,0,.453,1.843,1.628,1.628,0,0,0,2.578.008,3.457,3.457,0,0,0,.461-2.015,3.128,3.128,0,0,0-.461-1.831,1.5,1.5,0,0,0-1.3-.649,1.474,1.474,0,0,0-1.281.646A3.516,3.516,0,0,0,88.633,46.856Zm11.719,1.808a.727.727,0,0,0-.41-.652,4.659,4.659,0,0,0-1.316-.426q-3.016-.633-3.016-2.562a2.323,2.323,0,0,1,.934-1.879,3.766,3.766,0,0,1,2.441-.754,4.053,4.053,0,0,1,2.574.758,2.388,2.388,0,0,1,.965,1.969h-2.258a1.092,1.092,0,0,0-.312-.8A1.322,1.322,0,0,0,98.977,44a1.351,1.351,0,0,0-.883.258.814.814,0,0,0-.312.656.7.7,0,0,0,.355.605,3.657,3.657,0,0,0,1.2.4,9.8,9.8,0,0,1,1.422.379,2.336,2.336,0,0,1,1.789,2.273,2.2,2.2,0,0,1-.992,1.871,4.28,4.28,0,0,1-2.562.715,4.47,4.47,0,0,1-1.887-.379,3.166,3.166,0,0,1-1.293-1.039,2.414,2.414,0,0,1-.469-1.426h2.141a1.179,1.179,0,0,0,.445.922,1.766,1.766,0,0,0,1.109.32,1.635,1.635,0,0,0,.98-.246A.766.766,0,0,0,100.352,48.664Z" transform="translate(-1129 -9983)" fill="#31313c"/>
    <path id="Trazado_153140" data-name="Trazado 153140" d="M10,0H182a10,10,0,0,1,10,10v95a10,10,0,0,1-10,10H10A10,10,0,0,1,0,105V10A10,10,0,0,1,10,0Z" transform="translate(-965 -10026)" fill="#31313c"/>
    <path id="Trazado_153141" data-name="Trazado 153141" d="M14,0,28,24H0Z" transform="translate(-855 -9896) rotate(180)" fill="#31313c"/>
    <path id="Trazado_153142" data-name="Trazado 153142" d="M10,0H172a10,10,0,0,1,10,10V95a10,10,0,0,1-10,10H10A10,10,0,0,1,0,95V10A10,10,0,0,1,10,0Z" transform="translate(-960 -10021)" fill="#f5e8df"/>
    <path id="Trazado_153143" data-name="Trazado 153143" d="M35,10.352H30.5V15H28.152V3.625h7.406v1.9H30.5V8.461H35Zm6.664,3.789a2.831,2.831,0,0,1-2.312,1.016,2.67,2.67,0,0,1-2.074-.781,3.335,3.335,0,0,1-.73-2.289V6.547H38.8v5.467q0,1.322,1.2,1.322a1.63,1.63,0,0,0,1.578-.8V6.547h2.266V15H41.723Zm5.969-7.594.07.977a2.951,2.951,0,0,1,2.43-1.133,2.453,2.453,0,0,1,2,.789A3.682,3.682,0,0,1,52.8,9.539V15H50.543V9.581a1.47,1.47,0,0,0-.312-1.045,1.4,1.4,0,0,0-1.039-.325,1.553,1.553,0,0,0-1.43.814V15H45.5V6.547Zm10.4,6.789a1.481,1.481,0,0,0,1.016-.344,1.2,1.2,0,0,0,.406-.914h2.117a2.9,2.9,0,0,1-.469,1.574,3.093,3.093,0,0,1-1.262,1.109,3.949,3.949,0,0,1-1.77.395A3.67,3.67,0,0,1,55.207,14,4.56,4.56,0,0,1,54.16,10.82v-.148A4.508,4.508,0,0,1,55.2,7.555a3.627,3.627,0,0,1,2.852-1.164,3.555,3.555,0,0,1,2.543.9,3.2,3.2,0,0,1,.973,2.4H59.449a1.551,1.551,0,0,0-.406-1.072,1.51,1.51,0,0,0-2.223.163,3.333,3.333,0,0,0-.4,1.866v.235a3.375,3.375,0,0,0,.4,1.878A1.377,1.377,0,0,0,58.027,13.336ZM65.238,15H62.973V6.547h2.266ZM62.84,4.359a1.112,1.112,0,0,1,.34-.836,1.465,1.465,0,0,1,1.848,0,1.105,1.105,0,0,1,.344.836,1.108,1.108,0,0,1-.348.844,1.448,1.448,0,0,1-1.836,0A1.108,1.108,0,0,1,62.84,4.359ZM66.746,10.7a5.013,5.013,0,0,1,.484-2.242A3.546,3.546,0,0,1,68.625,6.93a4.069,4.069,0,0,1,2.113-.539,3.849,3.849,0,0,1,2.793,1.047,4.2,4.2,0,0,1,1.207,2.844l.016.578a4.418,4.418,0,0,1-1.086,3.121,4.209,4.209,0,0,1-5.832,0,4.5,4.5,0,0,1-1.09-3.187Zm2.258.16a3.16,3.16,0,0,0,.453,1.843,1.628,1.628,0,0,0,2.578.008,3.457,3.457,0,0,0,.461-2.015,3.128,3.128,0,0,0-.461-1.831,1.5,1.5,0,0,0-1.3-.649,1.474,1.474,0,0,0-1.281.646A3.516,3.516,0,0,0,69,10.856Zm9.219-4.309.07.977a2.951,2.951,0,0,1,2.43-1.133,2.453,2.453,0,0,1,2,.789,3.682,3.682,0,0,1,.672,2.359V15H81.137V9.581a1.47,1.47,0,0,0-.312-1.045,1.4,1.4,0,0,0-1.039-.325,1.553,1.553,0,0,0-1.43.814V15H76.1V6.547ZM89,15.156a4.15,4.15,0,0,1-3.027-1.141A4.054,4.054,0,0,1,84.8,10.977v-.219a5.106,5.106,0,0,1,.492-2.277,3.612,3.612,0,0,1,1.395-1.547,3.914,3.914,0,0,1,2.059-.543,3.508,3.508,0,0,1,2.73,1.094,4.444,4.444,0,0,1,1,3.1v.922H87.09a2.1,2.1,0,0,0,.66,1.328,2,2,0,0,0,1.395.5,2.437,2.437,0,0,0,2.039-.945l1.109,1.242a3.389,3.389,0,0,1-1.375,1.121A4.511,4.511,0,0,1,89,15.156Zm-.258-6.945a1.411,1.411,0,0,0-1.09.455,2.357,2.357,0,0,0-.535,1.3h3.141V9.788a1.681,1.681,0,0,0-.406-1.165A1.456,1.456,0,0,0,88.738,8.211Zm9.594,4.453a.727.727,0,0,0-.41-.652,4.659,4.659,0,0,0-1.316-.426q-3.016-.633-3.016-2.562a2.323,2.323,0,0,1,.934-1.879,3.766,3.766,0,0,1,2.441-.754,4.053,4.053,0,0,1,2.574.758,2.388,2.388,0,0,1,.965,1.969H98.246a1.092,1.092,0,0,0-.312-.8A1.322,1.322,0,0,0,96.957,8a1.351,1.351,0,0,0-.883.258.814.814,0,0,0-.312.656.7.7,0,0,0,.355.605,3.657,3.657,0,0,0,1.2.4,9.8,9.8,0,0,1,1.422.379,2.336,2.336,0,0,1,1.789,2.273,2.2,2.2,0,0,1-.992,1.871,4.28,4.28,0,0,1-2.562.715,4.47,4.47,0,0,1-1.887-.379,3.166,3.166,0,0,1-1.293-1.039,2.414,2.414,0,0,1-.469-1.426h2.141a1.179,1.179,0,0,0,.445.922,1.766,1.766,0,0,0,1.109.32,1.635,1.635,0,0,0,.98-.246A.766.766,0,0,0,98.332,12.664Zm15.242-1.812a5.07,5.07,0,0,1-.887,3.129,2.843,2.843,0,0,1-2.395,1.176,2.633,2.633,0,0,1-2.07-.891V18.25h-2.258V6.547h2.094l.078.828a2.654,2.654,0,0,1,2.141-.984,2.862,2.862,0,0,1,2.43,1.156,5.207,5.207,0,0,1,.867,3.188Zm-2.258-.172a3.345,3.345,0,0,0-.418-1.826,1.36,1.36,0,0,0-1.215-.643,1.478,1.478,0,0,0-1.461.815V12.5a1.5,1.5,0,0,0,1.477.839Q111.316,13.336,111.316,10.679ZM119.871,15a2.507,2.507,0,0,1-.227-.758,2.732,2.732,0,0,1-2.133.914,3,3,0,0,1-2.059-.719,2.312,2.312,0,0,1-.816-1.812,2.389,2.389,0,0,1,1-2.062,4.915,4.915,0,0,1,2.879-.727h1.039V9.352a1.393,1.393,0,0,0-.3-.937,1.183,1.183,0,0,0-.949-.352,1.345,1.345,0,0,0-.895.273.929.929,0,0,0-.324.75h-2.258a2.268,2.268,0,0,1,.453-1.359,3,3,0,0,1,1.281-.98,4.669,4.669,0,0,1,1.859-.355,3.689,3.689,0,0,1,2.48.785,2.747,2.747,0,0,1,.918,2.207v3.664a4.041,4.041,0,0,0,.336,1.82V15ZM118,13.43a1.945,1.945,0,0,0,.922-.223,1.462,1.462,0,0,0,.625-.6V11.156h-.844q-1.7,0-1.8,1.172l-.008.133a.9.9,0,0,0,.3.7A1.153,1.153,0,0,0,118,13.43Zm10.3-4.766a6.134,6.134,0,0,0-.812-.062,1.654,1.654,0,0,0-1.68.867V15h-2.258V6.547h2.133l.063,1.008a2.092,2.092,0,0,1,1.883-1.164,2.366,2.366,0,0,1,.7.1ZM134.051,15a2.507,2.507,0,0,1-.227-.758,2.732,2.732,0,0,1-2.133.914,3,3,0,0,1-2.059-.719,2.312,2.312,0,0,1-.816-1.812,2.389,2.389,0,0,1,1-2.062,4.915,4.915,0,0,1,2.879-.727h1.039V9.352a1.393,1.393,0,0,0-.3-.937,1.183,1.183,0,0,0-.949-.352,1.345,1.345,0,0,0-.895.273.929.929,0,0,0-.324.75H129a2.268,2.268,0,0,1,.453-1.359,3,3,0,0,1,1.281-.98,4.669,4.669,0,0,1,1.859-.355,3.689,3.689,0,0,1,2.48.785A2.747,2.747,0,0,1,136,9.383v3.664a4.041,4.041,0,0,0,.336,1.82V15Zm-1.867-1.57a1.945,1.945,0,0,0,.922-.223,1.462,1.462,0,0,0,.625-.6V11.156h-.844q-1.7,0-1.8,1.172l-.008.133a.9.9,0,0,0,.3.7A1.153,1.153,0,0,0,132.184,13.43ZM.883,28.711a4.954,4.954,0,0,1,.926-3.133,3,3,0,0,1,2.5-1.187,2.631,2.631,0,0,1,2.164.953l.094-.8H8.609v8.172a3.613,3.613,0,0,1-.5,1.93A3.236,3.236,0,0,1,6.688,35.9a4.985,4.985,0,0,1-2.141.43,4.635,4.635,0,0,1-1.812-.371A3.217,3.217,0,0,1,1.4,35l1-1.375a2.645,2.645,0,0,0,2.047.945,1.936,1.936,0,0,0,1.4-.48,1.8,1.8,0,0,0,.5-1.363v-.453a2.612,2.612,0,0,1-2.055.883,2.992,2.992,0,0,1-2.465-1.191A4.953,4.953,0,0,1,.883,28.8Zm2.258.161A3.1,3.1,0,0,0,3.6,30.681a1.465,1.465,0,0,0,1.266.655,1.567,1.567,0,0,0,1.477-.777V26.988a1.563,1.563,0,0,0-1.461-.777,1.474,1.474,0,0,0-1.277.667A3.5,3.5,0,0,0,3.141,28.872Zm11.094,4.285a4.15,4.15,0,0,1-3.027-1.141,4.054,4.054,0,0,1-1.168-3.039v-.219a5.106,5.106,0,0,1,.492-2.277,3.612,3.612,0,0,1,1.395-1.547,3.914,3.914,0,0,1,2.059-.543,3.508,3.508,0,0,1,2.73,1.094,4.444,4.444,0,0,1,1,3.1v.922H12.328a2.1,2.1,0,0,0,.66,1.328,2,2,0,0,0,1.395.5,2.437,2.437,0,0,0,2.039-.945l1.109,1.242a3.389,3.389,0,0,1-1.375,1.121A4.511,4.511,0,0,1,14.234,33.156Zm-.258-6.945a1.411,1.411,0,0,0-1.09.455,2.357,2.357,0,0,0-.535,1.3h3.141v-.181a1.681,1.681,0,0,0-.406-1.165A1.456,1.456,0,0,0,13.977,26.211Zm9.594,4.453a.727.727,0,0,0-.41-.652,4.659,4.659,0,0,0-1.316-.426q-3.016-.633-3.016-2.562a2.323,2.323,0,0,1,.934-1.879,3.766,3.766,0,0,1,2.441-.754,4.053,4.053,0,0,1,2.574.758,2.388,2.388,0,0,1,.965,1.969H23.484a1.092,1.092,0,0,0-.312-.8A1.322,1.322,0,0,0,22.2,26a1.351,1.351,0,0,0-.883.258.814.814,0,0,0-.312.656.7.7,0,0,0,.355.605,3.657,3.657,0,0,0,1.2.4,9.8,9.8,0,0,1,1.422.379,2.336,2.336,0,0,1,1.789,2.273,2.2,2.2,0,0,1-.992,1.871,4.28,4.28,0,0,1-2.562.715,4.47,4.47,0,0,1-1.887-.379,3.166,3.166,0,0,1-1.293-1.039,2.414,2.414,0,0,1-.469-1.426H20.7a1.179,1.179,0,0,0,.445.922,1.766,1.766,0,0,0,1.109.32,1.635,1.635,0,0,0,.98-.246A.766.766,0,0,0,23.57,30.664Zm6.352-8.2v2.078h1.445V26.2H29.922v4.219a1.007,1.007,0,0,0,.18.672.9.9,0,0,0,.688.2,3.6,3.6,0,0,0,.664-.055v1.711a4.648,4.648,0,0,1-1.367.2,2.156,2.156,0,0,1-2.422-2.4V26.2H26.43V24.547h1.234V22.469ZM35.008,33H32.742V24.547h2.266Zm-2.4-10.641a1.112,1.112,0,0,1,.34-.836,1.465,1.465,0,0,1,1.848,0,1.193,1.193,0,0,1,0,1.68,1.448,1.448,0,0,1-1.836,0A1.108,1.108,0,0,1,32.609,22.359ZM36.516,28.7A5.013,5.013,0,0,1,37,26.453a3.546,3.546,0,0,1,1.395-1.523,4.069,4.069,0,0,1,2.113-.539A3.849,3.849,0,0,1,43.3,25.438a4.2,4.2,0,0,1,1.207,2.844l.016.578a4.418,4.418,0,0,1-1.086,3.121,4.209,4.209,0,0,1-5.832,0,4.5,4.5,0,0,1-1.09-3.187Zm2.258.16a3.16,3.16,0,0,0,.453,1.843,1.628,1.628,0,0,0,2.578.008,3.457,3.457,0,0,0,.461-2.015A3.128,3.128,0,0,0,41.8,26.86a1.5,1.5,0,0,0-1.3-.649,1.474,1.474,0,0,0-1.281.646A3.516,3.516,0,0,0,38.773,28.856ZM40.953,21h2.461L41.25,23.422H39.414Zm7.039,3.547.07.977a2.951,2.951,0,0,1,2.43-1.133,2.453,2.453,0,0,1,2,.789,3.682,3.682,0,0,1,.672,2.359V33H50.906V27.581a1.47,1.47,0,0,0-.312-1.045,1.4,1.4,0,0,0-1.039-.325,1.553,1.553,0,0,0-1.43.814V33H45.867V24.547Zm10.516,4.164a5.094,5.094,0,0,1,.887-3.148,2.877,2.877,0,0,1,2.426-1.172,2.589,2.589,0,0,1,2.039.922V21h2.266V33H64.086l-.109-.9A2.657,2.657,0,0,1,61.8,33.156,2.869,2.869,0,0,1,59.41,31.98,5.258,5.258,0,0,1,58.508,28.711Zm2.258.161A3.355,3.355,0,0,0,61.18,30.7a1.348,1.348,0,0,0,1.2.636,1.51,1.51,0,0,0,1.477-.887V27.1a1.489,1.489,0,0,0-1.461-.887Q60.766,26.211,60.766,28.872Zm11,4.285a4.15,4.15,0,0,1-3.027-1.141,4.054,4.054,0,0,1-1.168-3.039v-.219a5.106,5.106,0,0,1,.492-2.277,3.612,3.612,0,0,1,1.395-1.547,3.914,3.914,0,0,1,2.059-.543,3.508,3.508,0,0,1,2.73,1.094,4.444,4.444,0,0,1,1,3.1v.922H69.859a2.1,2.1,0,0,0,.66,1.328,2,2,0,0,0,1.395.5,2.437,2.437,0,0,0,2.039-.945l1.109,1.242a3.389,3.389,0,0,1-1.375,1.121A4.511,4.511,0,0,1,71.766,33.156Zm-.258-6.945a1.411,1.411,0,0,0-1.09.455,2.357,2.357,0,0,0-.535,1.3h3.141v-.181a1.681,1.681,0,0,0-.406-1.165A1.456,1.456,0,0,0,71.508,26.211Zm11.7-3.742v2.078h1.445V26.2H83.211v4.219a1.007,1.007,0,0,0,.18.672.9.9,0,0,0,.688.2,3.6,3.6,0,0,0,.664-.055v1.711a4.648,4.648,0,0,1-1.367.2,2.156,2.156,0,0,1-2.422-2.4V26.2H79.719V24.547h1.234V22.469ZM89.8,33.156a4.15,4.15,0,0,1-3.027-1.141,4.054,4.054,0,0,1-1.168-3.039v-.219A5.106,5.106,0,0,1,86.1,26.48,3.612,3.612,0,0,1,87.5,24.934a3.914,3.914,0,0,1,2.059-.543,3.508,3.508,0,0,1,2.73,1.094,4.444,4.444,0,0,1,1,3.1v.922H87.9a2.1,2.1,0,0,0,.66,1.328,2,2,0,0,0,1.395.5,2.437,2.437,0,0,0,2.039-.945L93.1,31.633a3.389,3.389,0,0,1-1.375,1.121A4.511,4.511,0,0,1,89.8,33.156Zm-.258-6.945a1.411,1.411,0,0,0-1.09.455,2.357,2.357,0,0,0-.535,1.3h3.141v-.181a1.681,1.681,0,0,0-.406-1.165A1.456,1.456,0,0,0,89.547,26.211Zm8.531,5.125a1.481,1.481,0,0,0,1.016-.344,1.2,1.2,0,0,0,.406-.914h2.117a2.9,2.9,0,0,1-.469,1.574,3.093,3.093,0,0,1-1.262,1.109,3.949,3.949,0,0,1-1.77.395A3.67,3.67,0,0,1,95.258,32a4.56,4.56,0,0,1-1.047-3.184v-.148a4.508,4.508,0,0,1,1.039-3.117A3.627,3.627,0,0,1,98.1,24.391a3.555,3.555,0,0,1,2.543.9,3.2,3.2,0,0,1,.973,2.4H99.5a1.551,1.551,0,0,0-.406-1.072,1.51,1.51,0,0,0-2.223.163,3.333,3.333,0,0,0-.4,1.866v.235a3.375,3.375,0,0,0,.4,1.878A1.377,1.377,0,0,0,98.078,31.336Zm6.906-6.789.07.977a2.951,2.951,0,0,1,2.43-1.133,2.453,2.453,0,0,1,2,.789,3.682,3.682,0,0,1,.672,2.359V33H107.9V27.581a1.47,1.47,0,0,0-.312-1.045,1.4,1.4,0,0,0-1.039-.325,1.553,1.553,0,0,0-1.43.814V33h-2.258V24.547Zm6.531,4.148A5.013,5.013,0,0,1,112,26.453a3.546,3.546,0,0,1,1.395-1.523,4.069,4.069,0,0,1,2.113-.539,3.849,3.849,0,0,1,2.793,1.047,4.2,4.2,0,0,1,1.207,2.844l.016.578a4.418,4.418,0,0,1-1.086,3.121,4.209,4.209,0,0,1-5.832,0,4.5,4.5,0,0,1-1.09-3.187Zm2.258.16a3.16,3.16,0,0,0,.453,1.843,1.628,1.628,0,0,0,2.578.008,3.457,3.457,0,0,0,.461-2.015,3.128,3.128,0,0,0-.461-1.831,1.5,1.5,0,0,0-1.3-.649,1.474,1.474,0,0,0-1.281.646A3.516,3.516,0,0,0,113.773,28.856ZM123.3,33h-2.266V21H123.3Zm1.508-4.3a5.013,5.013,0,0,1,.484-2.242,3.546,3.546,0,0,1,1.395-1.523,4.069,4.069,0,0,1,2.113-.539,3.849,3.849,0,0,1,2.793,1.047,4.2,4.2,0,0,1,1.207,2.844l.016.578a4.418,4.418,0,0,1-1.086,3.121,4.209,4.209,0,0,1-5.832,0A4.5,4.5,0,0,1,124.8,28.8Zm2.258.16a3.16,3.16,0,0,0,.453,1.843,1.628,1.628,0,0,0,2.578.008,3.457,3.457,0,0,0,.461-2.015,3.128,3.128,0,0,0-.461-1.831,1.5,1.5,0,0,0-1.3-.649,1.474,1.474,0,0,0-1.281.646A3.516,3.516,0,0,0,127.063,28.856Zm6.813-.145a4.954,4.954,0,0,1,.926-3.133,3,3,0,0,1,2.5-1.187,2.631,2.631,0,0,1,2.164.953l.094-.8H141.6v8.172a3.613,3.613,0,0,1-.5,1.93,3.236,3.236,0,0,1-1.418,1.25,4.985,4.985,0,0,1-2.141.43,4.635,4.635,0,0,1-1.812-.371A3.217,3.217,0,0,1,134.391,35l1-1.375a2.645,2.645,0,0,0,2.047.945,1.936,1.936,0,0,0,1.4-.48,1.8,1.8,0,0,0,.5-1.363v-.453a2.612,2.612,0,0,1-2.055.883,2.992,2.992,0,0,1-2.465-1.191,4.953,4.953,0,0,1-.941-3.16Zm2.258.161a3.1,3.1,0,0,0,.461,1.809,1.465,1.465,0,0,0,1.266.655,1.567,1.567,0,0,0,1.477-.777V26.988a1.563,1.563,0,0,0-1.461-.777,1.474,1.474,0,0,0-1.277.667A3.5,3.5,0,0,0,136.133,28.872ZM145.773,33h-2.258V24.547h2.258Zm-.664-11.883h2.461l-2.164,2.422H143.57ZM152.617,33a2.507,2.507,0,0,1-.227-.758,2.732,2.732,0,0,1-2.133.914,3,3,0,0,1-2.059-.719,2.312,2.312,0,0,1-.816-1.812,2.389,2.389,0,0,1,1-2.062,4.915,4.915,0,0,1,2.879-.727H152.3v-.484a1.393,1.393,0,0,0-.3-.937,1.183,1.183,0,0,0-.949-.352,1.345,1.345,0,0,0-.895.273.929.929,0,0,0-.324.75H147.57a2.268,2.268,0,0,1,.453-1.359,3,3,0,0,1,1.281-.98,4.669,4.669,0,0,1,1.859-.355,3.689,3.689,0,0,1,2.48.785,2.747,2.747,0,0,1,.918,2.207v3.664a4.041,4.041,0,0,0,.336,1.82V33Zm-1.867-1.57a1.945,1.945,0,0,0,.922-.223,1.462,1.462,0,0,0,.625-.6V29.156h-.844q-1.7,0-1.8,1.172l-.008.133a.9.9,0,0,0,.3.7A1.153,1.153,0,0,0,150.75,31.43Zm10.125-.766a.727.727,0,0,0-.41-.652,4.659,4.659,0,0,0-1.316-.426q-3.016-.633-3.016-2.562a2.323,2.323,0,0,1,.934-1.879,3.766,3.766,0,0,1,2.441-.754,4.053,4.053,0,0,1,2.574.758,2.388,2.388,0,0,1,.965,1.969h-2.258a1.092,1.092,0,0,0-.312-.8A1.322,1.322,0,0,0,159.5,26a1.351,1.351,0,0,0-.883.258.814.814,0,0,0-.312.656.7.7,0,0,0,.355.605,3.657,3.657,0,0,0,1.2.4,9.8,9.8,0,0,1,1.422.379,2.336,2.336,0,0,1,1.789,2.273,2.205,2.205,0,0,1-.992,1.871,4.28,4.28,0,0,1-2.562.715,4.47,4.47,0,0,1-1.887-.379,3.166,3.166,0,0,1-1.293-1.039,2.414,2.414,0,0,1-.469-1.426h2.141a1.179,1.179,0,0,0,.445.922,1.766,1.766,0,0,0,1.109.32,1.635,1.635,0,0,0,.98-.246A.766.766,0,0,0,160.875,30.664ZM28.27,46.711a5.094,5.094,0,0,1,.887-3.148,2.877,2.877,0,0,1,2.426-1.172,2.589,2.589,0,0,1,2.039.922V39h2.266V51H33.848l-.109-.9a2.657,2.657,0,0,1-2.172,1.055,2.869,2.869,0,0,1-2.395-1.176A5.258,5.258,0,0,1,28.27,46.711Zm2.258.161a3.355,3.355,0,0,0,.414,1.829,1.348,1.348,0,0,0,1.2.636,1.51,1.51,0,0,0,1.477-.887V45.1a1.489,1.489,0,0,0-1.461-.887Q30.527,44.211,30.527,46.872Zm11,4.285A4.15,4.15,0,0,1,38.5,50.016a4.054,4.054,0,0,1-1.168-3.039v-.219a5.106,5.106,0,0,1,.492-2.277,3.612,3.612,0,0,1,1.395-1.547,3.914,3.914,0,0,1,2.059-.543,3.508,3.508,0,0,1,2.73,1.094,4.444,4.444,0,0,1,1,3.1v.922H39.621a2.1,2.1,0,0,0,.66,1.328,2,2,0,0,0,1.395.5,2.437,2.437,0,0,0,2.039-.945l1.109,1.242a3.389,3.389,0,0,1-1.375,1.121A4.511,4.511,0,0,1,41.527,51.156Zm-.258-6.945a1.411,1.411,0,0,0-1.09.455,2.357,2.357,0,0,0-.535,1.3h3.141v-.181a1.681,1.681,0,0,0-.406-1.165A1.456,1.456,0,0,0,41.27,44.211ZM52.652,51H50.387V42.547h2.266Zm-2.4-10.641a1.112,1.112,0,0,1,.34-.836,1.465,1.465,0,0,1,1.848,0,1.193,1.193,0,0,1,0,1.68,1.448,1.448,0,0,1-1.836,0A1.108,1.108,0,0,1,50.254,40.359Zm6.336,2.188.07.977a2.951,2.951,0,0,1,2.43-1.133,2.453,2.453,0,0,1,2,.789,3.682,3.682,0,0,1,.672,2.359V51H59.5V45.581a1.47,1.47,0,0,0-.312-1.045,1.4,1.4,0,0,0-1.039-.325,1.553,1.553,0,0,0-1.43.814V51H54.465V42.547ZM64.09,51V44.2H62.832V42.547H64.09v-.719a2.918,2.918,0,0,1,.816-2.207,3.162,3.162,0,0,1,2.285-.785,5.321,5.321,0,0,1,1.148.155l-.023,1.736a2.878,2.878,0,0,0-.687-.07q-1.273,0-1.273,1.205v.685h1.68V44.2h-1.68V51Zm4.766-4.3a5.013,5.013,0,0,1,.484-2.242,3.546,3.546,0,0,1,1.395-1.523,4.069,4.069,0,0,1,2.113-.539,3.849,3.849,0,0,1,2.793,1.047,4.2,4.2,0,0,1,1.207,2.844l.016.578a4.418,4.418,0,0,1-1.086,3.121,4.209,4.209,0,0,1-5.832,0,4.5,4.5,0,0,1-1.09-3.187Zm2.258.16a3.16,3.16,0,0,0,.453,1.843,1.628,1.628,0,0,0,2.578.008,3.457,3.457,0,0,0,.461-2.015,3.128,3.128,0,0,0-.461-1.831,1.5,1.5,0,0,0-1.3-.649,1.474,1.474,0,0,0-1.281.646A3.516,3.516,0,0,0,71.113,46.856ZM83,44.664a6.134,6.134,0,0,0-.812-.062,1.654,1.654,0,0,0-1.68.867V51H78.254V42.547h2.133l.063,1.008a2.092,2.092,0,0,1,1.883-1.164,2.366,2.366,0,0,1,.7.1Zm3.2-2.117.07.945a2.971,2.971,0,0,1,2.43-1.1,2.255,2.255,0,0,1,2.242,1.289,2.9,2.9,0,0,1,2.539-1.289,2.521,2.521,0,0,1,2.047.8,3.681,3.681,0,0,1,.672,2.41V51H93.941V45.6a1.616,1.616,0,0,0-.281-1.053,1.245,1.245,0,0,0-.992-.333,1.409,1.409,0,0,0-1.406.971L91.27,51H89.012V45.6a1.6,1.6,0,0,0-.289-1.065,1.257,1.257,0,0,0-.984-.329,1.463,1.463,0,0,0-1.391.8V51H84.09V42.547ZM102.84,51a2.507,2.507,0,0,1-.227-.758,2.732,2.732,0,0,1-2.133.914,3,3,0,0,1-2.059-.719,2.312,2.312,0,0,1-.816-1.812,2.389,2.389,0,0,1,1-2.062,4.915,4.915,0,0,1,2.879-.727h1.039v-.484a1.393,1.393,0,0,0-.3-.937,1.183,1.183,0,0,0-.949-.352,1.345,1.345,0,0,0-.895.273.929.929,0,0,0-.324.75H97.793a2.268,2.268,0,0,1,.453-1.359,3,3,0,0,1,1.281-.98,4.669,4.669,0,0,1,1.859-.355,3.689,3.689,0,0,1,2.48.785,2.747,2.747,0,0,1,.918,2.207v3.664a4.041,4.041,0,0,0,.336,1.82V51Zm-1.867-1.57a1.945,1.945,0,0,0,.922-.223,1.462,1.462,0,0,0,.625-.6V47.156h-.844q-1.7,0-1.8,1.172l-.008.133a.9.9,0,0,0,.3.7A1.153,1.153,0,0,0,100.973,49.43Zm9.063-.094a1.481,1.481,0,0,0,1.016-.344,1.2,1.2,0,0,0,.406-.914h2.117a2.9,2.9,0,0,1-.469,1.574,3.093,3.093,0,0,1-1.262,1.109,3.949,3.949,0,0,1-1.77.395A3.67,3.67,0,0,1,107.215,50a4.56,4.56,0,0,1-1.047-3.184v-.148a4.508,4.508,0,0,1,1.039-3.117,3.627,3.627,0,0,1,2.852-1.164,3.555,3.555,0,0,1,2.543.9,3.2,3.2,0,0,1,.973,2.4h-2.117a1.551,1.551,0,0,0-.406-1.072,1.51,1.51,0,0,0-2.223.163,3.333,3.333,0,0,0-.4,1.866v.235a3.375,3.375,0,0,0,.4,1.878A1.377,1.377,0,0,0,110.035,49.336ZM117.246,51H114.98V42.547h2.266Zm-2.4-10.641a1.112,1.112,0,0,1,.34-.836,1.465,1.465,0,0,1,1.848,0,1.193,1.193,0,0,1,0,1.68,1.448,1.448,0,0,1-1.836,0A1.108,1.108,0,0,1,114.848,40.359Zm3.906,6.336a5.013,5.013,0,0,1,.484-2.242,3.546,3.546,0,0,1,1.395-1.523,4.069,4.069,0,0,1,2.113-.539,3.849,3.849,0,0,1,2.793,1.047,4.2,4.2,0,0,1,1.207,2.844l.016.578a4.418,4.418,0,0,1-1.086,3.121,4.209,4.209,0,0,1-5.832,0,4.5,4.5,0,0,1-1.09-3.187Zm2.258.16a3.16,3.16,0,0,0,.453,1.843,1.628,1.628,0,0,0,2.578.008,3.457,3.457,0,0,0,.461-2.015,3.128,3.128,0,0,0-.461-1.831,1.5,1.5,0,0,0-1.3-.649,1.474,1.474,0,0,0-1.281.646A3.516,3.516,0,0,0,121.012,46.856ZM123.191,39h2.461l-2.164,2.422h-1.836Zm7.039,3.547.07.977a2.951,2.951,0,0,1,2.43-1.133,2.453,2.453,0,0,1,2,.789,3.682,3.682,0,0,1,.672,2.359V51h-2.258V45.581a1.47,1.47,0,0,0-.312-1.045,1.4,1.4,0,0,0-1.039-.325,1.553,1.553,0,0,0-1.43.814V51h-2.258V42.547Z" transform="translate(-951 -9983)" fill="#31313c"/>
    <path id="Trazado_153148" data-name="Trazado 153148" d="M10,0H128a10,10,0,0,1,10,10v95a10,10,0,0,1-10,10H10A10,10,0,0,1,0,105V10A10,10,0,0,1,10,0Z" transform="translate(-736 -10026)" fill="#31313c"/>
    <path id="Trazado_153151" data-name="Trazado 153151" d="M14,0,28,24H0Z" transform="translate(-653 -9896) rotate(180)" fill="#31313c"/>
    <path id="Trazado_153149" data-name="Trazado 153149" d="M10,0H118a10,10,0,0,1,10,10V95a10,10,0,0,1-10,10H10A10,10,0,0,1,0,95V10A10,10,0,0,1,10,0Z" transform="translate(-731 -10021)" fill="#f5e8df"/>
    <path id="Trazado_153150" data-name="Trazado 153150" d="M18.547,10.352h-4.5V15H11.7V3.625h7.406v1.9H14.047V8.461h4.5Zm6.664,3.789A2.831,2.831,0,0,1,22.9,15.156a2.67,2.67,0,0,1-2.074-.781,3.335,3.335,0,0,1-.73-2.289V6.547h2.258v5.467q0,1.322,1.2,1.322a1.63,1.63,0,0,0,1.578-.8V6.547H27.4V15H25.273ZM31.18,6.547l.07.977a2.951,2.951,0,0,1,2.43-1.133,2.453,2.453,0,0,1,2,.789,3.682,3.682,0,0,1,.672,2.359V15H34.094V9.581a1.47,1.47,0,0,0-.312-1.045,1.4,1.4,0,0,0-1.039-.325,1.553,1.553,0,0,0-1.43.814V15H29.055V6.547Zm10.4,6.789a1.481,1.481,0,0,0,1.016-.344A1.2,1.2,0,0,0,43,12.078h2.117a2.9,2.9,0,0,1-.469,1.574,3.093,3.093,0,0,1-1.262,1.109,3.949,3.949,0,0,1-1.77.395A3.67,3.67,0,0,1,38.758,14a4.56,4.56,0,0,1-1.047-3.184v-.148A4.508,4.508,0,0,1,38.75,7.555,3.627,3.627,0,0,1,41.6,6.391a3.555,3.555,0,0,1,2.543.9,3.2,3.2,0,0,1,.973,2.4H43a1.551,1.551,0,0,0-.406-1.072,1.51,1.51,0,0,0-2.223.163,3.333,3.333,0,0,0-.4,1.866v.235a3.375,3.375,0,0,0,.4,1.878A1.377,1.377,0,0,0,41.578,13.336ZM48.789,15H46.523V6.547h2.266Zm-2.4-10.641a1.112,1.112,0,0,1,.34-.836,1.465,1.465,0,0,1,1.848,0,1.105,1.105,0,0,1,.344.836,1.108,1.108,0,0,1-.348.844,1.448,1.448,0,0,1-1.836,0A1.108,1.108,0,0,1,46.391,4.359ZM50.3,10.7a5.013,5.013,0,0,1,.484-2.242A3.546,3.546,0,0,1,52.176,6.93a4.069,4.069,0,0,1,2.113-.539,3.849,3.849,0,0,1,2.793,1.047,4.2,4.2,0,0,1,1.207,2.844l.016.578a4.418,4.418,0,0,1-1.086,3.121,4.209,4.209,0,0,1-5.832,0A4.5,4.5,0,0,1,50.3,10.8Zm2.258.16a3.16,3.16,0,0,0,.453,1.843,1.628,1.628,0,0,0,2.578.008,3.457,3.457,0,0,0,.461-2.015,3.128,3.128,0,0,0-.461-1.831,1.5,1.5,0,0,0-1.3-.649,1.474,1.474,0,0,0-1.281.646A3.516,3.516,0,0,0,52.555,10.856Zm9.219-4.309.07.977a2.951,2.951,0,0,1,2.43-1.133,2.453,2.453,0,0,1,2,.789,3.682,3.682,0,0,1,.672,2.359V15H64.688V9.581a1.47,1.47,0,0,0-.312-1.045,1.4,1.4,0,0,0-1.039-.325,1.553,1.553,0,0,0-1.43.814V15H59.648V6.547Zm10.773,8.609a4.15,4.15,0,0,1-3.027-1.141,4.054,4.054,0,0,1-1.168-3.039v-.219a5.106,5.106,0,0,1,.492-2.277,3.612,3.612,0,0,1,1.395-1.547A3.914,3.914,0,0,1,72.3,6.391a3.508,3.508,0,0,1,2.73,1.094,4.444,4.444,0,0,1,1,3.1v.922H70.641a2.1,2.1,0,0,0,.66,1.328,2,2,0,0,0,1.395.5,2.437,2.437,0,0,0,2.039-.945l1.109,1.242a3.389,3.389,0,0,1-1.375,1.121A4.511,4.511,0,0,1,72.547,15.156Zm-.258-6.945a1.411,1.411,0,0,0-1.09.455,2.357,2.357,0,0,0-.535,1.3H73.8V9.788A1.681,1.681,0,0,0,73.4,8.623,1.456,1.456,0,0,0,72.289,8.211Zm9.594,4.453a.727.727,0,0,0-.41-.652,4.659,4.659,0,0,0-1.316-.426q-3.016-.633-3.016-2.562a2.323,2.323,0,0,1,.934-1.879,3.766,3.766,0,0,1,2.441-.754,4.053,4.053,0,0,1,2.574.758,2.388,2.388,0,0,1,.965,1.969H81.8a1.092,1.092,0,0,0-.312-.8A1.322,1.322,0,0,0,80.508,8a1.351,1.351,0,0,0-.883.258.814.814,0,0,0-.312.656.7.7,0,0,0,.355.605,3.657,3.657,0,0,0,1.2.4,9.8,9.8,0,0,1,1.422.379,2.336,2.336,0,0,1,1.789,2.273,2.2,2.2,0,0,1-.992,1.871,4.28,4.28,0,0,1-2.562.715,4.47,4.47,0,0,1-1.887-.379,3.166,3.166,0,0,1-1.293-1.039,2.414,2.414,0,0,1-.469-1.426h2.141a1.179,1.179,0,0,0,.445.922,1.766,1.766,0,0,0,1.109.32,1.635,1.635,0,0,0,.98-.246A.766.766,0,0,0,81.883,12.664Zm7.281-1.953a5.094,5.094,0,0,1,.887-3.148,2.877,2.877,0,0,1,2.426-1.172,2.589,2.589,0,0,1,2.039.922V3h2.266V15H94.742l-.109-.9a2.657,2.657,0,0,1-2.172,1.055,2.869,2.869,0,0,1-2.395-1.176A5.258,5.258,0,0,1,89.164,10.711Zm2.258.161a3.355,3.355,0,0,0,.414,1.829,1.348,1.348,0,0,0,1.2.636,1.51,1.51,0,0,0,1.477-.887V9.1a1.489,1.489,0,0,0-1.461-.887Q91.422,8.211,91.422,10.872Zm11,4.285a4.15,4.15,0,0,1-3.027-1.141,4.054,4.054,0,0,1-1.168-3.039v-.219a5.106,5.106,0,0,1,.492-2.277,3.612,3.612,0,0,1,1.395-1.547,3.914,3.914,0,0,1,2.059-.543,3.508,3.508,0,0,1,2.73,1.094,4.444,4.444,0,0,1,1,3.1v.922h-5.383a2.1,2.1,0,0,0,.66,1.328,2,2,0,0,0,1.395.5,2.437,2.437,0,0,0,2.039-.945l1.109,1.242a3.389,3.389,0,0,1-1.375,1.121A4.511,4.511,0,0,1,102.422,15.156Zm-.258-6.945a1.411,1.411,0,0,0-1.09.455,2.357,2.357,0,0,0-.535,1.3h3.141V9.788a1.681,1.681,0,0,0-.406-1.165A1.456,1.456,0,0,0,102.164,8.211ZM25.75,28.711a5.094,5.094,0,0,1,.887-3.148,2.877,2.877,0,0,1,2.426-1.172,2.589,2.589,0,0,1,2.039.922V21h2.266V33H31.328l-.109-.9a2.657,2.657,0,0,1-2.172,1.055,2.869,2.869,0,0,1-2.395-1.176A5.258,5.258,0,0,1,25.75,28.711Zm2.258.161a3.355,3.355,0,0,0,.414,1.829,1.348,1.348,0,0,0,1.2.636,1.51,1.51,0,0,0,1.477-.887V27.1a1.489,1.489,0,0,0-1.461-.887Q28.008,26.211,28.008,28.872ZM37.5,33H35.234V24.547H37.5ZM35.1,22.359a1.112,1.112,0,0,1,.34-.836,1.465,1.465,0,0,1,1.848,0,1.193,1.193,0,0,1,0,1.68,1.448,1.448,0,0,1-1.836,0A1.108,1.108,0,0,1,35.1,22.359Zm9.008,4.3A6.134,6.134,0,0,0,43.3,26.6a1.654,1.654,0,0,0-1.68.867V33H39.359V24.547h2.133l.063,1.008a2.092,2.092,0,0,1,1.883-1.164,2.366,2.366,0,0,1,.7.1Zm4.828,6.492a4.15,4.15,0,0,1-3.027-1.141,4.054,4.054,0,0,1-1.168-3.039v-.219a5.106,5.106,0,0,1,.492-2.277,3.612,3.612,0,0,1,1.395-1.547,3.914,3.914,0,0,1,2.059-.543,3.508,3.508,0,0,1,2.73,1.094,4.444,4.444,0,0,1,1,3.1v.922H47.031a2.1,2.1,0,0,0,.66,1.328,2,2,0,0,0,1.395.5,2.437,2.437,0,0,0,2.039-.945l1.109,1.242a3.389,3.389,0,0,1-1.375,1.121A4.511,4.511,0,0,1,48.938,33.156Zm-.258-6.945a1.411,1.411,0,0,0-1.09.455,2.357,2.357,0,0,0-.535,1.3H50.2v-.181a1.681,1.681,0,0,0-.406-1.165A1.456,1.456,0,0,0,48.68,26.211Zm8.531,5.125a1.481,1.481,0,0,0,1.016-.344,1.2,1.2,0,0,0,.406-.914H60.75a2.9,2.9,0,0,1-.469,1.574,3.093,3.093,0,0,1-1.262,1.109,3.949,3.949,0,0,1-1.77.395A3.67,3.67,0,0,1,54.391,32a4.56,4.56,0,0,1-1.047-3.184v-.148a4.508,4.508,0,0,1,1.039-3.117,3.627,3.627,0,0,1,2.852-1.164,3.555,3.555,0,0,1,2.543.9,3.2,3.2,0,0,1,.973,2.4H58.633a1.551,1.551,0,0,0-.406-1.072A1.51,1.51,0,0,0,56,26.786a3.333,3.333,0,0,0-.4,1.866v.235a3.375,3.375,0,0,0,.4,1.878A1.377,1.377,0,0,0,57.211,31.336Zm8.344,0a1.481,1.481,0,0,0,1.016-.344,1.2,1.2,0,0,0,.406-.914h2.117a2.9,2.9,0,0,1-.469,1.574,3.093,3.093,0,0,1-1.262,1.109,3.949,3.949,0,0,1-1.77.395A3.67,3.67,0,0,1,62.734,32a4.56,4.56,0,0,1-1.047-3.184v-.148a4.508,4.508,0,0,1,1.039-3.117,3.627,3.627,0,0,1,2.852-1.164,3.555,3.555,0,0,1,2.543.9,3.2,3.2,0,0,1,.973,2.4H66.977a1.551,1.551,0,0,0-.406-1.072,1.51,1.51,0,0,0-2.223.163,3.333,3.333,0,0,0-.4,1.866v.235a3.375,3.375,0,0,0,.4,1.878A1.377,1.377,0,0,0,65.555,31.336ZM72.766,33H70.5V24.547h2.266Zm-2.4-10.641a1.112,1.112,0,0,1,.34-.836,1.465,1.465,0,0,1,1.848,0,1.193,1.193,0,0,1,0,1.68,1.448,1.448,0,0,1-1.836,0A1.108,1.108,0,0,1,70.367,22.359ZM74.273,28.7a5.013,5.013,0,0,1,.484-2.242,3.546,3.546,0,0,1,1.395-1.523,4.069,4.069,0,0,1,2.113-.539,3.849,3.849,0,0,1,2.793,1.047,4.2,4.2,0,0,1,1.207,2.844l.016.578A4.418,4.418,0,0,1,81.2,31.98a4.209,4.209,0,0,1-5.832,0,4.5,4.5,0,0,1-1.09-3.187Zm2.258.16a3.16,3.16,0,0,0,.453,1.843,1.628,1.628,0,0,0,2.578.008,3.457,3.457,0,0,0,.461-2.015,3.128,3.128,0,0,0-.461-1.831,1.5,1.5,0,0,0-1.3-.649,1.474,1.474,0,0,0-1.281.646A3.516,3.516,0,0,0,76.531,28.856ZM78.711,21h2.461l-2.164,2.422H77.172Zm7.039,3.547.07.977a2.951,2.951,0,0,1,2.43-1.133,2.453,2.453,0,0,1,2,.789,3.682,3.682,0,0,1,.672,2.359V33H88.664V27.581a1.47,1.47,0,0,0-.312-1.045,1.4,1.4,0,0,0-1.039-.325,1.553,1.553,0,0,0-1.43.814V33H83.625V24.547Z" transform="translate(-725 -9974)" fill="#31313c"/>
    <path id="Trazado_153154" data-name="Trazado 153154" d="M10,0H128a10,10,0,0,1,10,10v95a10,10,0,0,1-10,10H10A10,10,0,0,1,0,105V10A10,10,0,0,1,10,0Z" transform="translate(-563 -10026)" fill="#31313c"/>
    <path id="Trazado_153158" data-name="Trazado 153158" d="M14,0,28,24H0Z" transform="translate(-480 -9896) rotate(180)" fill="#31313c"/>
    <path id="Trazado_153155" data-name="Trazado 153155" d="M10,0H118a10,10,0,0,1,10,10V95a10,10,0,0,1-10,10H10A10,10,0,0,1,0,95V10A10,10,0,0,1,10,0Z" transform="translate(-558 -10021)" fill="#f5e8df"/>
    <path id="Trazado_153156" data-name="Trazado 153156" d="M29.371,10.352h-4.5V15H22.527V3.625h7.406v1.9H24.871V8.461h4.5Zm6.664,3.789a2.831,2.831,0,0,1-2.312,1.016,2.67,2.67,0,0,1-2.074-.781,3.335,3.335,0,0,1-.73-2.289V6.547h2.258v5.467q0,1.322,1.2,1.322a1.63,1.63,0,0,0,1.578-.8V6.547h2.266V15H36.1ZM42,6.547l.07.977A2.951,2.951,0,0,1,44.5,6.391a2.453,2.453,0,0,1,2,.789,3.682,3.682,0,0,1,.672,2.359V15H44.918V9.581a1.47,1.47,0,0,0-.312-1.045,1.4,1.4,0,0,0-1.039-.325,1.553,1.553,0,0,0-1.43.814V15H39.879V6.547Zm10.4,6.789a1.481,1.481,0,0,0,1.016-.344,1.2,1.2,0,0,0,.406-.914h2.117a2.9,2.9,0,0,1-.469,1.574,3.093,3.093,0,0,1-1.262,1.109,3.949,3.949,0,0,1-1.77.395A3.67,3.67,0,0,1,49.582,14a4.56,4.56,0,0,1-1.047-3.184v-.148a4.508,4.508,0,0,1,1.039-3.117,3.627,3.627,0,0,1,2.852-1.164,3.555,3.555,0,0,1,2.543.9,3.2,3.2,0,0,1,.973,2.4H53.824a1.551,1.551,0,0,0-.406-1.072,1.51,1.51,0,0,0-2.223.163,3.333,3.333,0,0,0-.4,1.866v.235a3.375,3.375,0,0,0,.4,1.878A1.377,1.377,0,0,0,52.4,13.336ZM59.613,15H57.348V6.547h2.266Zm-2.4-10.641a1.112,1.112,0,0,1,.34-.836,1.465,1.465,0,0,1,1.848,0,1.105,1.105,0,0,1,.344.836A1.108,1.108,0,0,1,59.4,5.2a1.448,1.448,0,0,1-1.836,0A1.108,1.108,0,0,1,57.215,4.359ZM61.121,10.7a5.013,5.013,0,0,1,.484-2.242A3.546,3.546,0,0,1,63,6.93a4.069,4.069,0,0,1,2.113-.539,3.849,3.849,0,0,1,2.793,1.047,4.2,4.2,0,0,1,1.207,2.844l.016.578a4.418,4.418,0,0,1-1.086,3.121,4.209,4.209,0,0,1-5.832,0,4.5,4.5,0,0,1-1.09-3.187Zm2.258.16a3.16,3.16,0,0,0,.453,1.843,1.628,1.628,0,0,0,2.578.008,3.457,3.457,0,0,0,.461-2.015A3.128,3.128,0,0,0,66.41,8.86a1.5,1.5,0,0,0-1.3-.649,1.474,1.474,0,0,0-1.281.646A3.516,3.516,0,0,0,63.379,10.856ZM72.6,6.547l.07.977A2.951,2.951,0,0,1,75.1,6.391a2.453,2.453,0,0,1,2,.789,3.682,3.682,0,0,1,.672,2.359V15H75.512V9.581A1.47,1.47,0,0,0,75.2,8.536a1.4,1.4,0,0,0-1.039-.325,1.553,1.553,0,0,0-1.43.814V15H70.473V6.547Zm10.773,8.609a4.15,4.15,0,0,1-3.027-1.141,4.054,4.054,0,0,1-1.168-3.039v-.219a5.106,5.106,0,0,1,.492-2.277,3.612,3.612,0,0,1,1.395-1.547,3.914,3.914,0,0,1,2.059-.543,3.508,3.508,0,0,1,2.73,1.094,4.444,4.444,0,0,1,1,3.1v.922H81.465a2.1,2.1,0,0,0,.66,1.328,2,2,0,0,0,1.395.5,2.437,2.437,0,0,0,2.039-.945l1.109,1.242a3.389,3.389,0,0,1-1.375,1.121A4.511,4.511,0,0,1,83.371,15.156Zm-.258-6.945a1.411,1.411,0,0,0-1.09.455,2.357,2.357,0,0,0-.535,1.3h3.141V9.788a1.681,1.681,0,0,0-.406-1.165A1.456,1.456,0,0,0,83.113,8.211Zm9.594,4.453a.727.727,0,0,0-.41-.652,4.659,4.659,0,0,0-1.316-.426q-3.016-.633-3.016-2.562A2.323,2.323,0,0,1,88.9,7.145a3.766,3.766,0,0,1,2.441-.754,4.053,4.053,0,0,1,2.574.758,2.388,2.388,0,0,1,.965,1.969H92.621a1.092,1.092,0,0,0-.312-.8A1.322,1.322,0,0,0,91.332,8a1.351,1.351,0,0,0-.883.258.814.814,0,0,0-.312.656.7.7,0,0,0,.355.605,3.657,3.657,0,0,0,1.2.4,9.8,9.8,0,0,1,1.422.379A2.336,2.336,0,0,1,94.9,12.57a2.2,2.2,0,0,1-.992,1.871,4.28,4.28,0,0,1-2.562.715,4.47,4.47,0,0,1-1.887-.379,3.166,3.166,0,0,1-1.293-1.039,2.414,2.414,0,0,1-.469-1.426H89.84a1.179,1.179,0,0,0,.445.922,1.766,1.766,0,0,0,1.109.32,1.635,1.635,0,0,0,.98-.246A.766.766,0,0,0,92.707,12.664ZM23.7,28.711a4.954,4.954,0,0,1,.926-3.133,3,3,0,0,1,2.5-1.187,2.631,2.631,0,0,1,2.164.953l.094-.8h2.047v8.172a3.613,3.613,0,0,1-.5,1.93A3.236,3.236,0,0,1,29.5,35.9a4.985,4.985,0,0,1-2.141.43,4.635,4.635,0,0,1-1.812-.371A3.217,3.217,0,0,1,24.211,35l1-1.375a2.645,2.645,0,0,0,2.047.945,1.936,1.936,0,0,0,1.4-.48,1.8,1.8,0,0,0,.5-1.363v-.453a2.612,2.612,0,0,1-2.055.883,2.992,2.992,0,0,1-2.465-1.191A4.953,4.953,0,0,1,23.7,28.8Zm2.258.161a3.1,3.1,0,0,0,.461,1.809,1.465,1.465,0,0,0,1.266.655,1.567,1.567,0,0,0,1.477-.777V26.988a1.563,1.563,0,0,0-1.461-.777,1.474,1.474,0,0,0-1.277.667A3.5,3.5,0,0,0,25.953,28.872Zm11.094,4.285a4.15,4.15,0,0,1-3.027-1.141,4.054,4.054,0,0,1-1.168-3.039v-.219a5.106,5.106,0,0,1,.492-2.277,3.612,3.612,0,0,1,1.395-1.547,3.914,3.914,0,0,1,2.059-.543,3.508,3.508,0,0,1,2.73,1.094,4.444,4.444,0,0,1,1,3.1v.922H35.141a2.1,2.1,0,0,0,.66,1.328,2,2,0,0,0,1.395.5,2.437,2.437,0,0,0,2.039-.945l1.109,1.242a3.389,3.389,0,0,1-1.375,1.121A4.511,4.511,0,0,1,37.047,33.156Zm-.258-6.945a1.411,1.411,0,0,0-1.09.455,2.357,2.357,0,0,0-.535,1.3H38.3v-.181a1.681,1.681,0,0,0-.406-1.165A1.456,1.456,0,0,0,36.789,26.211Zm7.094-1.664.07.977a2.951,2.951,0,0,1,2.43-1.133,2.453,2.453,0,0,1,2,.789,3.682,3.682,0,0,1,.672,2.359V33H46.8V27.581a1.47,1.47,0,0,0-.312-1.045,1.4,1.4,0,0,0-1.039-.325,1.553,1.553,0,0,0-1.43.814V33H41.758V24.547Zm10.773,8.609a4.15,4.15,0,0,1-3.027-1.141,4.054,4.054,0,0,1-1.168-3.039v-.219a5.106,5.106,0,0,1,.492-2.277,3.612,3.612,0,0,1,1.395-1.547,3.914,3.914,0,0,1,2.059-.543,3.508,3.508,0,0,1,2.73,1.094,4.444,4.444,0,0,1,1,3.1v.922H52.75a2.1,2.1,0,0,0,.66,1.328,2,2,0,0,0,1.395.5,2.437,2.437,0,0,0,2.039-.945l1.109,1.242a3.389,3.389,0,0,1-1.375,1.121A4.511,4.511,0,0,1,54.656,33.156ZM54.4,26.211a1.411,1.411,0,0,0-1.09.455,2.357,2.357,0,0,0-.535,1.3h3.141v-.181a1.681,1.681,0,0,0-.406-1.165A1.456,1.456,0,0,0,54.4,26.211Zm9.766.453a6.134,6.134,0,0,0-.812-.062,1.654,1.654,0,0,0-1.68.867V33H59.414V24.547h2.133l.063,1.008a2.092,2.092,0,0,1,1.883-1.164,2.366,2.366,0,0,1,.7.1ZM69.914,33a2.507,2.507,0,0,1-.227-.758,2.732,2.732,0,0,1-2.133.914,3,3,0,0,1-2.059-.719,2.312,2.312,0,0,1-.816-1.812,2.389,2.389,0,0,1,1-2.062,4.915,4.915,0,0,1,2.879-.727h1.039v-.484a1.393,1.393,0,0,0-.3-.937,1.183,1.183,0,0,0-.949-.352,1.345,1.345,0,0,0-.895.273.929.929,0,0,0-.324.75H64.867a2.268,2.268,0,0,1,.453-1.359,3,3,0,0,1,1.281-.98,4.669,4.669,0,0,1,1.859-.355,3.689,3.689,0,0,1,2.48.785,2.747,2.747,0,0,1,.918,2.207v3.664a4.041,4.041,0,0,0,.336,1.82V33Zm-1.867-1.57a1.945,1.945,0,0,0,.922-.223,1.462,1.462,0,0,0,.625-.6V29.156H68.75q-1.7,0-1.8,1.172l-.008.133a.9.9,0,0,0,.3.7A1.153,1.153,0,0,0,68.047,31.43ZM75.977,33H73.711V21h2.266Zm5.75.156A4.15,4.15,0,0,1,78.7,32.016a4.054,4.054,0,0,1-1.168-3.039v-.219a5.106,5.106,0,0,1,.492-2.277,3.612,3.612,0,0,1,1.395-1.547,3.914,3.914,0,0,1,2.059-.543,3.508,3.508,0,0,1,2.73,1.094,4.444,4.444,0,0,1,1,3.1v.922H79.82a2.1,2.1,0,0,0,.66,1.328,2,2,0,0,0,1.395.5,2.437,2.437,0,0,0,2.039-.945l1.109,1.242a3.389,3.389,0,0,1-1.375,1.121A4.511,4.511,0,0,1,81.727,33.156Zm-.258-6.945a1.411,1.411,0,0,0-1.09.455,2.357,2.357,0,0,0-.535,1.3h3.141v-.181a1.681,1.681,0,0,0-.406-1.165A1.456,1.456,0,0,0,81.469,26.211Zm9.594,4.453a.727.727,0,0,0-.41-.652,4.659,4.659,0,0,0-1.316-.426q-3.016-.633-3.016-2.562a2.323,2.323,0,0,1,.934-1.879,3.766,3.766,0,0,1,2.441-.754,4.053,4.053,0,0,1,2.574.758,2.388,2.388,0,0,1,.965,1.969H90.977a1.092,1.092,0,0,0-.312-.8A1.322,1.322,0,0,0,89.688,26a1.351,1.351,0,0,0-.883.258.814.814,0,0,0-.312.656.7.7,0,0,0,.355.605,3.657,3.657,0,0,0,1.2.4,9.8,9.8,0,0,1,1.422.379,2.336,2.336,0,0,1,1.789,2.273,2.2,2.2,0,0,1-.992,1.871,4.28,4.28,0,0,1-2.562.715,4.47,4.47,0,0,1-1.887-.379,3.166,3.166,0,0,1-1.293-1.039,2.414,2.414,0,0,1-.469-1.426H88.2a1.179,1.179,0,0,0,.445.922,1.766,1.766,0,0,0,1.109.32,1.635,1.635,0,0,0,.98-.246A.766.766,0,0,0,91.063,30.664Z" transform="translate(-552 -9983)" fill="#31313c"/>
    <path id="Trazado_153133" data-name="Trazado 153133" d="M25-15.281S50,11.193,50,25A25,25,0,0,1,0,25C0,11.193,25-15.281,25-15.281Z" transform="translate(-1096 -9841)" fill="#fd9827"/>
    <path id="Trazado_153129" data-name="Trazado 153129" d="M25-15.281S50,11.193,50,25A25,25,0,0,1,0,25C0,11.193,25-15.281,25-15.281Z" transform="translate(-894 -9841)" fill="#fd9827"/>
    <path id="Trazado_153130" data-name="Trazado 153130" d="M25-15.281S50,11.193,50,25A25,25,0,0,1,0,25C0,11.193,25-15.281,25-15.281Z" transform="translate(-692 -9841)" fill="#fd9827"/>
    <path id="Trazado_153127" data-name="Trazado 153127" d="M25-15.281S50,11.193,50,25A25,25,0,0,1,0,25C0,11.193,25-15.281,25-15.281Z" transform="translate(-519 -9841)" fill="#fd9827"/>
    <path id="Trazado_153131" data-name="Trazado 153131" d="M11.129,0H-10.338V-4.2L-.428-15.4A25.046,25.046,0,0,0,2.725-19.83a7.357,7.357,0,0,0,.934-3.329,4.784,4.784,0,0,0-.989-3.164A3.641,3.641,0,0,0-.3-27.51a3.807,3.807,0,0,0-3.23,1.516,6.211,6.211,0,0,0-1.143,3.845h-6.24l-.044-.132A9.5,9.5,0,0,1-8.141-29.5,10.534,10.534,0,0,1-.3-32.454q4.922,0,7.646,2.516a8.751,8.751,0,0,1,2.725,6.757A9.5,9.5,0,0,1,8.547-17.93a59.123,59.123,0,0,1-5.262,6.57L-1.989-5.032l.044.11H11.129Z" transform="translate(-869 -9802)" fill="#12263f"/>
    <path id="Trazado_153134" data-name="Trazado 153134" d="M4.581,0H-1.813V-26.411H-8.427v-4.9L4.581-32.454Z" transform="translate(-1071 -9802)" fill="#12263f"/>
    <path id="Trazado_153132" data-name="Trazado 153132" d="M-.187-18.809A4.437,4.437,0,0,0,3.208-20a4.7,4.7,0,0,0,1.11-3.34,4.092,4.092,0,0,0-1.165-2.988A4.349,4.349,0,0,0-.1-27.51a4.258,4.258,0,0,0-2.955,1.077,3.529,3.529,0,0,0-1.2,2.747h-6.2l-.044-.132a7.261,7.261,0,0,1,2.9-6.2A11.572,11.572,0,0,1-.1-32.454a12.267,12.267,0,0,1,7.888,2.34A8.1,8.1,0,0,1,10.712-23.4a6.957,6.957,0,0,1-1.263,4.032,8.633,8.633,0,0,1-3.461,2.889,8.079,8.079,0,0,1,3.867,2.867,7.83,7.83,0,0,1,1.362,4.647,8.335,8.335,0,0,1-3.175,6.91A12.708,12.708,0,0,1-.1.461,12.683,12.683,0,0,1-7.745-1.912a7.49,7.49,0,0,1-3.164-6.658l.044-.132h6.24A4.03,4.03,0,0,0-3.362-5.68,4.5,4.5,0,0,0-.1-4.46a4.951,4.951,0,0,0,3.56-1.3A4.327,4.327,0,0,0,4.823-9.031a4.966,4.966,0,0,0-1.274-3.746A5.2,5.2,0,0,0-.187-14H-3.724v-4.812Z" transform="translate(-665 -9802)" fill="#12263f"/>
    <path id="Trazado_153128" data-name="Trazado 153128" d="M8.075-11.909h3.6v4.966h-3.6V0H1.659V-6.943h-13.03l-.308-3.845,13.271-21.2H8.075Zm-13.931,0H1.659V-23.533l-.132-.022L.868-22.126Z" transform="translate(-494 -9802)" fill="#12263f"/>
    <path id="Trazado_153135" data-name="Trazado 153135" d="M37,0A37,37,0,1,1,0,37,37,37,0,0,1,37,0Z" transform="translate(-1108 -10063)" fill="#fd9827"/>
    <g id="Grupo_158183" data-name="Grupo 158183" transform="translate(-1094 -10051)" clip-path="url(#clip-path)">
      <path id="Trazado_153059" data-name="Trazado 153059" d="M11.709,0c.068.157.223.088.335.121A4.208,4.208,0,0,1,15.033,2.97c.117.355.274.418.6.417q9.352-.012,18.7-.006A4.2,4.2,0,0,1,38.831,6.8a.565.565,0,0,0,.366.389c1.17.584,2.343,1.162,3.51,1.752a4.4,4.4,0,0,1,2.465,5.087q-3.091,15.419-6.156,30.843a8.185,8.185,0,0,1-.845,2.661.683.683,0,0,0-.056.22c-.05-.168-.06-.177-.2-.028a4.286,4.286,0,0,1-2.064,1.242,5.014,5.014,0,0,1-1.279.156q-15.084,0-30.168,0A4.185,4.185,0,0,1,0,44.73Q0,26.265,0,7.8A4.223,4.223,0,0,1,3.187,3.544c.163-.049.289-.1.338-.284A4.23,4.23,0,0,1,6.724.094c.036-.01.061-.062.092-.094ZM38.973,11.435c0,.112-.014.223-.014.335q0,11.911,0,23.823c0,.119-.049.254.064.388.78-3.9,1.558-7.776,2.327-11.653q1.044-5.255,2.073-10.512a2.458,2.458,0,0,0-.848-2.948,29.458,29.458,0,0,0-3.6-1.877ZM37.256,26.266q0-9.234,0-18.468a2.489,2.489,0,0,0-2.713-2.714q-9.426,0-18.852-.01c-.356,0-.45.082-.447.443.017,2.606.009,5.213.009,7.819s.02,5.213-.006,7.819a4.243,4.243,0,1,1-8.478-.24c.033-4.333.009-8.667.01-13a3.081,3.081,0,0,1,.02-.431.765.765,0,0,1,.871-.7.755.755,0,0,1,.784.739c.016.175.009.352.009.527q0,6.476,0,12.952a2.52,2.52,0,0,0,1.1,2.266,2.486,2.486,0,0,0,2.639.144A2.348,2.348,0,0,0,13.537,21.2q.012-6.476,0-12.952c0-.944-.005-1.887,0-2.83,0-.225-.025-.342-.3-.341-3.054.011-6.109,0-9.162.019A2.415,2.415,0,0,0,1.81,6.848,3.715,3.715,0,0,0,1.7,7.988q0,18.277,0,36.553c0,.16,0,.32.008.48A2.437,2.437,0,0,0,4.15,47.412c.751.021,1.5-.007,2.254.013.294.008.386-.083.377-.377-.019-.687-.015-1.375,0-2.062.011-.623.308-.943.841-.944s.833.327.839.94c.008.688.016,1.376,0,2.063-.009.292.076.381.373.38q3.861-.016,7.723,0c.33,0,.4-.113.389-.412q-.027-1.031,0-2.063c.016-.6.343-.928.876-.91.514.018.8.337.808.925.007.4,0,.8,0,1.2s-.128.922.072,1.157c.236.276.781.049,1.187.1.357.044.459-.077.454-.443-.02-1.807-.014-3.614-.006-5.421a.815.815,0,0,1,1.066-.874c.5.119.619.5.619.952,0,1.5-.006,3.006,0,4.509,0,.409-.181.943.084,1.195s.793.042,1.2.081c.3.029.418-.062.4-.388-.027-.638-.009-1.279-.007-1.919,0-.725.29-1.08.863-1.074s.841.361.844,1.1c0,.624.021,1.248-.008,1.87-.016.344.1.42.427.418,2.926-.013,5.853-.006,8.779-.011a3.142,3.142,0,0,0,.759-.076,2.468,2.468,0,0,0,1.882-2.653q0-9.21,0-18.421M5.315,3.339c.012.008.024.022.036.022q3.879.01,7.757.021c.274,0,.237-.114.148-.29a2.223,2.223,0,0,0-1.9-1.353c-1.37-.062-2.746-.053-4.117,0a2.191,2.191,0,0,0-1.929,1.6" transform="translate(0)" fill="#31313c"/>
      <path id="Trazado_153060" data-name="Trazado 153060" d="M99.706,30.337Q98.67,35.594,97.633,40.85c-.769,3.876-1.547,7.751-2.327,11.652-.112-.133-.064-.268-.064-.388q0-11.911,0-23.823c0-.112.009-.223.014-.335q1.759.863,3.517,1.727a2.976,2.976,0,0,1,.935.654" transform="translate(-56.281 -16.522)" fill="#31313c"/>
      <path id="Trazado_153061" data-name="Trazado 153061" d="M25.914,74.563q4.169,0,8.337,0c.721,0,1.105.475.917,1.1a.713.713,0,0,1-.643.556,5.256,5.256,0,0,1-.573.025q-8.05,0-16.1,0a4.7,4.7,0,0,1-.526-.017.771.771,0,0,1-.735-.882.747.747,0,0,1,.793-.778c1.246-.015,2.492-.007,3.738-.007h4.792" transform="translate(-9.804 -44.065)" fill="#31313c"/>
      <path id="Trazado_153062" data-name="Trazado 153062" d="M55.651,82.819c1.646,0,3.292,0,4.938,0,.624,0,.939.288.947.831s-.306.861-.913.868c-1.023.011-2.046,0-3.068,0q-3.428,0-6.856,0c-.577,0-.9-.219-.984-.645a.831.831,0,0,1,.9-1.054c1.678-.009,3.356,0,5.034,0" transform="translate(-29.367 -48.944)" fill="#31313c"/>
      <path id="Trazado_153063" data-name="Trazado 153063" d="M55.625,24.855q2.469,0,4.938,0c.664,0,.986.276.991.832s-.313.863-.969.864q-4.938.01-9.876,0c-.683,0-1.009-.314-.991-.892.018-.549.335-.8,1.017-.8q2.445,0,4.89,0" transform="translate(-29.382 -14.689)" fill="#31313c"/>
      <path id="Trazado_153064" data-name="Trazado 153064" d="M22.471,82.821q2.469,0,4.938,0c.69,0,1.023.287,1.018.86-.005.55-.337.841-.993.841q-4.938.006-9.877,0c-.65,0-.973-.3-.967-.863s.331-.836.991-.837c1.63,0,3.26,0,4.891,0" transform="translate(-9.804 -48.946)" fill="#31313c"/>
      <path id="Trazado_153065" data-name="Trazado 153065" d="M55.616,49.707c1.678,0,3.356,0,5.033,0a.807.807,0,0,1,.89,1.01.7.7,0,0,1-.569.63,2.915,2.915,0,0,1-.618.05q-4.722,0-9.443,0a3.429,3.429,0,0,1-.43-.018.78.78,0,0,1-.761-.865.764.764,0,0,1,.818-.806c.7-.016,1.406-.005,2.109-.006h2.972" transform="translate(-29.382 -29.374)" fill="#31313c"/>
      <path id="Trazado_153066" data-name="Trazado 153066" d="M55.644,67.94q-2.469,0-4.937,0c-.667,0-.985-.274-.991-.83s.309-.859.972-.86q4.961-.011,9.922,0c.649,0,.96.32.941.887-.018.535-.33.8-.97.8-1.646,0-3.291,0-4.937,0" transform="translate(-29.382 -39.149)" fill="#31313c"/>
      <path id="Trazado_153067" data-name="Trazado 153067" d="M55.616,43.1c-1.677,0-3.355.006-5.032,0a.83.83,0,0,1-.85-1.156c.169-.454.55-.528.975-.527q2.325,0,4.649,0c1.725,0,3.451,0,5.176,0,.676,0,.987.276.991.833s-.309.845-.924.847c-1.661.006-3.323,0-4.984,0" transform="translate(-29.354 -24.476)" fill="#31313c"/>
      <path id="Trazado_153068" data-name="Trazado 153068" d="M52.214,34.81c-.542,0-1.085.011-1.626,0a.847.847,0,1,1-.027-1.693q1.7-.028,3.4,0a.846.846,0,1,1-.021,1.692c-.573.016-1.148,0-1.722,0" transform="translate(-29.382 -19.562)" fill="#31313c"/>
      <path id="Trazado_153069" data-name="Trazado 153069" d="M68.8,34.812c-.542,0-1.084.008-1.626,0a.851.851,0,1,1,0-1.7q1.626-.018,3.252,0a.8.8,0,0,1,.9.874c-.011.522-.321.814-.9.824-.542.01-1.084,0-1.626,0" transform="translate(-39.159 -19.563)" fill="#31313c"/>
      <path id="Trazado_153070" data-name="Trazado 153070" d="M52.229,59.664c-.542,0-1.085.011-1.626,0a.849.849,0,1,1-.009-1.7q1.65-.02,3.3,0a.849.849,0,1,1,.008,1.7c-.557.014-1.116,0-1.674,0" transform="translate(-29.383 -34.251)" fill="#31313c"/>
      <path id="Trazado_153071" data-name="Trazado 153071" d="M68.762,57.964c.542,0,1.084-.006,1.626,0,.617.009.934.3.941.836s-.308.859-.912.864q-1.626.015-3.252,0a.811.811,0,0,1-.9-.834c-.009-.53.328-.853.922-.864.526-.01,1.052,0,1.578,0" transform="translate(-39.16 -34.254)" fill="#31313c"/>
      <path id="Trazado_153072" data-name="Trazado 153072" d="M68.812,74.563c.56,0,1.119-.01,1.679,0a.833.833,0,0,1,.052,1.664q-1.75.034-3.5,0a.763.763,0,0,1-.778-.848.783.783,0,0,1,.822-.812c.575-.015,1.151,0,1.727,0" transform="translate(-39.161 -44.064)" fill="#31313c"/>
    </g>
    <path id="Trazado_153146" data-name="Trazado 153146" d="M37,0A37,37,0,1,1,0,37,37,37,0,0,1,37,0Z" transform="translate(-906 -10063)" fill="#fd9827"/>
    <g id="Grupo_158185" data-name="Grupo 158185" transform="translate(-891.478 -10049.393)" clip-path="url(#clip-path-2)">
      <path id="Trazado_153073" data-name="Trazado 153073" d="M56.328,0a.984.984,0,0,1,.554,1.044c-.019.179,0,.363,0,.544-.008.274-.017.508.3.674a.8.8,0,0,0,.9.016c1.281-.774,1.386-.735,2.128.549.355.615.715,1.228,1.063,1.846A.835.835,0,0,1,60.92,6c-.155.094-.313.183-.47.274-.694.4-.692,1.007.006,1.409,1.267.73,1.293.827.56,2.1-.355.615-.706,1.233-1.067,1.844s-.726.705-1.356.354c-.158-.088-.315-.18-.472-.271-.7-.4-1.241-.077-1.241.736,0,1.434-.08,1.514-1.514,1.514-.711,0-1.422.007-2.133,0s-.985-.286-.993-.991a3.194,3.194,0,0,1,0-.544.71.71,0,0,0-.5-.834.5.5,0,0,0-.573.018,7.009,7.009,0,0,1-.784.453.752.752,0,0,1-1.1-.289q-.784-1.3-1.517-2.63a.758.758,0,0,1,.3-1.1,3.392,3.392,0,0,1,.628-.361.625.625,0,0,0,.444-.806.948.948,0,0,0-.285-.487c-.246-.2-.549-.316-.812-.493a.754.754,0,0,1-.282-1.066q.742-1.35,1.541-2.669a.749.749,0,0,1,1.067-.276,2.573,2.573,0,0,1,.585.342A.712.712,0,0,0,52,2.2a.689.689,0,0,0,.227-.38,3.007,3.007,0,0,0,.007-.724A1.03,1.03,0,0,1,52.787,0Zm3.31,9.047c-.272-.16-.487-.3-.714-.416a.96.96,0,0,1-.553-1.117,4.745,4.745,0,0,0,0-1.173.9.9,0,0,1,.527-1c.24-.121.469-.262.738-.414L58.87,3.591c-.256.149-.481.266-.692.4a.963.963,0,0,1-1.213-.037,4.848,4.848,0,0,0-.975-.566.973.973,0,0,1-.66-1.063c.015-.25,0-.5,0-.748H53.786a4.69,4.69,0,0,0,0,.576,1.069,1.069,0,0,1-.818,1.276.691.691,0,0,0-.246.113,1.546,1.546,0,0,1-2.442-.042l-.8,1.4c.261.15.463.282.679.387a1.009,1.009,0,0,1,.6,1.184,4.263,4.263,0,0,0,0,.99.972.972,0,0,1-.609,1.179c-.218.122-.435.245-.668.377l.769,1.333c.257-.148.477-.254.674-.391A.967.967,0,0,1,52.174,10a6.813,6.813,0,0,0,1.056.606.879.879,0,0,1,.557.9c-.009.283,0,.567,0,.871h1.547c0-.24.016-.452,0-.661a1.025,1.025,0,0,1,.727-1.159,3.2,3.2,0,0,0,.821-.47,1.028,1.028,0,0,1,1.366-.062c.192.134.4.241.624.37l.771-1.342" transform="translate(-31.302)" fill="#31313c"/>
      <path id="Trazado_153074" data-name="Trazado 153074" d="M29.055,55.769c.155.166.26.286.373.4q2.792,2.794,5.584,5.587a2.251,2.251,0,0,1,.328.374A.757.757,0,0,1,34.3,63.176a2.4,2.4,0,0,1-.409-.356q-3.374-3.368-6.738-6.744a1.056,1.056,0,0,0-.832-.336c-3.238.011-6.477.006-9.715.007-.86,0-1.107.246-1.108,1.105q0,3.836,0,7.672v.508c.441,0,.843.007,1.246,0a2.451,2.451,0,0,1,2.429,1.35c.062.118.316.191.481.192,2.361.012,4.722.007,7.082.011a2.354,2.354,0,0,1,.628.066.689.689,0,0,1,.521.756.7.7,0,0,1-.6.695,3.108,3.108,0,0,1-.542.032q-3.405,0-6.81,0h-.516v1.552h.522q3.019,0,6.038,0c.777,0,1.147.258,1.14.787s-.371.765-1.161.767c-1.618,0-1.618,0-2.535,1.33-.032.046-.052.1-.115.222.483,0,.915,0,1.347,0,.59,0,1.181-.01,1.77.023a.709.709,0,0,1,.693.706.733.733,0,0,1-.614.777,2.1,2.1,0,0,1-.449.044c-1.362,0-2.724,0-4.086,0a.835.835,0,0,1-.721-1.46c.389-.514.773-1.031,1.207-1.611H19.419v4.62c.461,0,.911-.007,1.36,0,.64.011.893.27.927.913A3.186,3.186,0,0,1,19.954,80.2a3.591,3.591,0,0,1-1.485.329c-5.069.023-10.139.016-15.209.013-2.042,0-3.543-1.553-3.214-3.993a.72.72,0,0,1,.8-.648c.48-.009.96,0,1.488,0v-.54q0-3.836,0-7.672a2.387,2.387,0,0,1,2.633-2.651q4.2,0,8.4,0h.591v-.521c0-2.558.031-5.116-.011-7.672a2.489,2.489,0,0,1,2.642-2.656c6.522.038,13.044.015,19.567.017a2.338,2.338,0,0,1,2.6,2.571q0,3.518,0,7.037c0,.691-.552,1.091-1.1.814A.9.9,0,0,1,37.2,63.7q0-3.268,0-6.537c0-.181,0-.363,0-.545a.784.784,0,0,0-.876-.866c-1.225-.009-2.451,0-3.677,0H29.377c-.085,0-.17.011-.323.022m-16.3,10.82c.178.19.277.3.382.407q1.348,1.347,2.7,2.693a2.2,2.2,0,0,1,.321.379.7.7,0,0,1-.122.945.712.712,0,0,1-.953.076,2.452,2.452,0,0,1-.371-.331c-1.294-1.294-2.58-2.6-3.89-3.875a1.12,1.12,0,0,0-.7-.288c-1.709-.024-3.418-.014-5.127-.012-.853,0-1.11.259-1.111,1.112q0,3.857,0,7.714c0,.146.015.293.024.457H17.782c.025-.054.047-.081.047-.107,0-2.783.014-5.565,0-8.348a.745.745,0,0,0-.8-.813c-1.387-.024-2.776-.008-4.28-.008M1.536,77.468a4.238,4.238,0,0,0,.232.711,1.6,1.6,0,0,0,1.556.816q7.536-.006,15.072-.006a2.459,2.459,0,0,0,.67-.085,1.423,1.423,0,0,0,1.045-1.436Z" transform="translate(0 -35.593)" fill="#31313c"/>
      <path id="Trazado_153075" data-name="Trazado 153075" d="M93.653,95.736h2.761c.59,0,1.181-.005,1.77,0a1.523,1.523,0,0,1,1.662,1.586c.023,2.527.014,5.054.005,7.58,0,.559-.3.891-.752.9s-.78-.336-.791-.915c-.015-.771,0-1.544-.012-2.315a.762.762,0,0,0-.166-.483C96.7,100.639,95.248,99.2,93.8,97.756a.683.683,0,0,0-.149-.062v.493q0,3.246,0,6.491a3.163,3.163,0,0,1-.015.453.718.718,0,0,1-.693.664.678.678,0,0,1-.776-.551,7.132,7.132,0,0,1-.089-.979H86.244a2.39,2.39,0,0,1-2.663-2.664q0-4.313,0-8.624a2.4,2.4,0,0,1,2.661-2.669c1.589,0,3.178.028,4.766-.008a2.43,2.43,0,0,1,2.654,2.636c-.052.9-.01,1.813-.01,2.8m-6.625-3.868c.195.2.305.324.421.439q1.4,1.394,2.792,2.788c.264.264.452.591.235.93a1.006,1.006,0,0,1-.655.45,1.131,1.131,0,0,1-.732-.352c-1.18-1.15-2.336-2.324-3.5-3.49-.1-.1-.216-.2-.4-.371v7.319H92.1c0-2.335.005-4.632-.005-6.929a.724.724,0,0,0-.775-.776c-1.387-.024-2.774-.008-4.294-.008m-1.89,9.327c0,.277-.019.5,0,.727a.77.77,0,0,0,.824.788q2.653.024,5.306,0a.755.755,0,0,0,.817-.692,8.231,8.231,0,0,0,.005-.825Zm10.6-3.887,2.543,2.533V97.307Z" transform="translate(-54.905 -59.319)" fill="#31313c"/>
      <path id="Trazado_153076" data-name="Trazado 153076" d="M100.492,33.506q0-5.675,0-11.35A2.334,2.334,0,0,0,98.8,19.707a3.861,3.861,0,0,0-.986-.11c-2.073-.01-4.147,0-6.22-.006a3.04,3.04,0,0,1-.543-.026.7.7,0,0,1-.624-.723.693.693,0,0,1,.547-.739,1.834,1.834,0,0,1,.492-.059c2.164,0,4.328-.013,6.492,0a3.843,3.843,0,0,1,3.93,2.926,4.618,4.618,0,0,1,.144,1.209q.012,11.327,0,22.654a2.054,2.054,0,0,1-.056.538.692.692,0,0,1-.779.546.7.7,0,0,1-.695-.655,3.215,3.215,0,0,1-.016-.5q0-5.629,0-11.259" transform="translate(-59.404 -11.849)" fill="#31313c"/>
      <path id="Trazado_153077" data-name="Trazado 153077" d="M20.8,9.012c.877,0,1.755-.008,2.631,0a.8.8,0,0,1,.889.67c.07.5-.3.87-.9.872-1.588.006-3.176,0-4.764,0-.121,0-.242,0-.363,0a.832.832,0,0,0-.928.928c-.015.665,0,1.331-.006,2-.007.593-.284.937-.747.951s-.79-.354-.8-.958c-.009-.665-.013-1.331,0-2a2.353,2.353,0,0,1,2.492-2.469c.832-.009,1.664,0,2.5,0" transform="translate(-10.384 -5.918)" fill="#31313c"/>
      <path id="Trazado_153078" data-name="Trazado 153078" d="M8.35,31.659a6.886,6.886,0,0,1,4.832,1.962.758.758,0,0,1,.17,1.02.71.71,0,0,1-.909.3A1.439,1.439,0,0,1,12,34.629a5.393,5.393,0,0,0-7.341.009c-.466.4-.915.427-1.237.062s-.231-.813.22-1.221a6.877,6.877,0,0,1,4.707-1.82" transform="translate(-2.126 -20.797)" fill="#31313c"/>
      <path id="Trazado_153079" data-name="Trazado 153079" d="M93.389,35.478c0,.483.009.967,0,1.451a.775.775,0,1,1-1.54-.009c-.01-.876-.014-1.753,0-2.629a.933.933,0,0,0-.6-.967,5.056,5.056,0,0,1-.6-.311.764.764,0,0,1,.684-1.366c1.311.547,2.15,1.2,2.059,2.97-.015.286,0,.574,0,.861" transform="translate(-59.283 -20.745)" fill="#31313c"/>
      <path id="Trazado_153080" data-name="Trazado 153080" d="M15.387,42.234c.011.705-.665,1.128-1.145.751A2.593,2.593,0,0,0,10.626,43a.707.707,0,0,1-.975-.162.774.774,0,0,1,.082-1.066,3.861,3.861,0,0,1,4.321-.727,6.724,6.724,0,0,1,1.136.809.943.943,0,0,1,.2.383" transform="translate(-6.225 -26.72)" fill="#31313c"/>
      <path id="Trazado_153081" data-name="Trazado 153081" d="M17.362,61.48c0,.6.009,1.207,0,1.811-.01.527-.29.843-.73.863a.768.768,0,0,1-.808-.838q-.029-1.856,0-3.712a.778.778,0,0,1,.807-.844c.442.019.721.335.731.864.012.619,0,1.238,0,1.856" transform="translate(-10.384 -38.6)" fill="#31313c"/>
      <path id="Trazado_153082" data-name="Trazado 153082" d="M69.76,119c-.363,0-.727.016-1.089,0a.773.773,0,0,1-.823-.782.753.753,0,0,1,.835-.759q1.089-.02,2.179,0a.753.753,0,0,1,.825.725.785.785,0,0,1-.792.817.884.884,0,0,1-.091,0H69.76Z" transform="translate(-44.57 -77.155)" fill="#31313c"/>
      <path id="Trazado_153083" data-name="Trazado 153083" d="M17.394,50.5a.774.774,0,0,1-.746.76.792.792,0,0,1-.778-.779.771.771,0,0,1,.753-.75.749.749,0,0,1,.771.77" transform="translate(-10.425 -32.671)" fill="#31313c"/>
      <path id="Trazado_153084" data-name="Trazado 153084" d="M65.668,15.859a2.317,2.317,0,1,1-4.634,0,2.317,2.317,0,0,1,4.634,0M63.337,15.1a.79.79,0,0,0-.752.805.767.767,0,0,0,1.532-.075.785.785,0,0,0-.779-.73" transform="translate(-40.094 -8.896)" fill="#31313c"/>
    </g>
    <path id="Trazado_153153" data-name="Trazado 153153" d="M37,0A37,37,0,1,1,0,37,37,37,0,0,1,37,0Z" transform="translate(-704 -10063)" fill="#fd9827"/>
    <g id="Grupo_158187" data-name="Grupo 158187" transform="translate(-691 -10050)" clip-path="url(#clip-path-3)">
      <path id="Trazado_153085" data-name="Trazado 153085" d="M6.111,10.672h-3.9c-.46,0-.921.01-1.381,0a.746.746,0,0,1-.813-.8C.011,7.759-.029,5.646.036,3.536a3.763,3.763,0,0,1,3.6-3.53C3.765,0,3.892,0,4.019,0Q18.308,0,32.6,0a5.293,5.293,0,0,1,5.367,4.112,6.637,6.637,0,0,1,.154,1.508q.017,6.622,0,13.244a1.4,1.4,0,0,0,.47,1.112c1.253,1.216,2.478,2.461,3.711,3.7.551.553.548.89-.009,1.45q-.907.912-1.818,1.819c-.643.641-.848.657-1.586.11l-.568.624c.079.084.192.209.311.328l8.183,8.186c.626.627.628.934.012,1.552q-.723.725-1.448,1.448c-.618.616-.921.612-1.551-.017l-5.254-5.254c-.118-.118-.244-.229-.415-.389v7.635c.673,0,1.349,0,2.025,0,.745,0,1,.254,1,1a13.317,13.317,0,0,1-.038,1.76,3.784,3.784,0,0,1-3.885,3.333q-8.74.008-17.479,0-4.787,0-9.573,0a3.827,3.827,0,0,1-4.083-4.078q0-15.935,0-31.871v-.645m28.548,20.55c.576.763.559.971-.089,1.619s-1.274,1.286-1.922,1.918a.767.767,0,0,1-1.243,0q-2.583-2.571-5.154-5.154a.777.777,0,0,1,0-1.277c.612-.623,1.234-1.237,1.851-1.854.7-.7.845-.719,1.592-.209l4.2-4.211c-.511-.679-.5-.879.152-1.527.584-.584,1.161-1.175,1.755-1.748.222-.214.484-.385.792-.626v-.281q0-6.194,0-12.387a3.8,3.8,0,0,0-3.961-3.96q-12.647-.005-25.293,0c-.134,0-.267.013-.473.023a4.787,4.787,0,0,1,.772,3.087q-.017,19.176-.007,38.353c0,.175,0,.35,0,.524a2.284,2.284,0,0,0,4.566.015c.014-.412,0-.826,0-1.239,0-.91.21-1.121,1.118-1.121H36.569a2.26,2.26,0,0,0,.027-.228q0-4.36,0-8.719a.5.5,0,0,0-.064-.312c-.4-.437-.826-.86-1.253-1.3l-.62.612m4.954,11.5h-25.9a4.4,4.4,0,0,1-.722,3.015H28.167q4.549,0,9.1,0A2.265,2.265,0,0,0,39.6,43.849a6.848,6.848,0,0,0,.01-1.123M6.111,9.13c0-1.762,0-3.472,0-5.183a2.29,2.29,0,1,0-4.571.01q-.006,2.377,0,4.755c0,.136.017.273.027.418Zm27.4,20.922,4.129-4.121-2.579-2.579L30.944,27.48l2.571,2.572m2.934-.6,8.183,8.182.677-.58L37.1,28.829l-.648.62m4.288-5.014-4.16-4.16L35.483,21.31l4.176,4.18,1.077-1.055M27.909,28.9l4.142,4.146,1.083-.979-4.184-4.18L27.909,28.9" transform="translate(0 0.001)" fill="#31313c"/>
      <path id="Trazado_153086" data-name="Trazado 153086" d="M29.706,64.585A6.861,6.861,0,1,1,22.824,71.4a6.871,6.871,0,0,1,6.882-6.813m-.03,1.526a5.335,5.335,0,1,0,5.341,5.327,5.35,5.35,0,0,0-5.341-5.327" transform="translate(-13.664 -38.664)" fill="#31313c"/>
      <rect id="Rectángulo_35197" data-name="Rectángulo 35197" width="25.108" height="1.465" transform="translate(9.943 4.601)" fill="#31313c"/>
      <rect id="Rectángulo_35198" data-name="Rectángulo 35198" width="25.091" height="1.469" transform="translate(9.945 7.648)" fill="#31313c"/>
      <rect id="Rectángulo_35199" data-name="Rectángulo 35199" width="25.075" height="1.484" transform="translate(9.962 10.682)" fill="#31313c"/>
      <rect id="Rectángulo_35200" data-name="Rectángulo 35200" width="25.084" height="1.484" transform="translate(9.961 13.755)" fill="#31313c"/>
      <rect id="Rectángulo_35201" data-name="Rectángulo 35201" width="25.091" height="1.469" transform="translate(9.961 16.804)" fill="#31313c"/>
      <rect id="Rectángulo_35202" data-name="Rectángulo 35202" width="22.043" height="1.468" transform="translate(9.945 19.846)" fill="#31313c"/>
      <rect id="Rectángulo_35203" data-name="Rectángulo 35203" width="20.535" height="1.465" transform="translate(9.945 22.906)" fill="#31313c"/>
      <path id="Trazado_153087" data-name="Trazado 153087" d="M60.86,93.175V91.606c.3-.056.614-.091.912-.173a3.524,3.524,0,0,0,2.1-1.608c.226-.362.5-.641.965-.515.429.117.549.454.586.875a1.5,1.5,0,0,0,1.549,1.378c.982.011,1.963,0,2.978,0v1.493c-1.158,0-2.314.057-3.462-.018A2.81,2.81,0,0,1,64.4,91.744a14.269,14.269,0,0,1-1.687.956,13.539,13.539,0,0,1-1.855.475" transform="translate(-36.434 -53.447)" fill="#31313c"/>
      <path id="Trazado_153088" data-name="Trazado 153088" d="M38.042,76.017a3.809,3.809,0,1,1-3.8-3.831,3.822,3.822,0,0,1,3.8,3.831m-3.8-2.306a2.286,2.286,0,1,0,2.279,2.315,2.295,2.295,0,0,0-2.279-2.315" transform="translate(-18.213 -43.214)" fill="#31313c"/>
    </g>
    <path id="Trazado_153157" data-name="Trazado 153157" d="M37,0A37,37,0,1,1,0,37,37,37,0,0,1,37,0Z" transform="translate(-531 -10063)" fill="#fd9827"/>
    <g id="Grupo_158189" data-name="Grupo 158189" transform="translate(-513 -10049)" clip-path="url(#clip-path-4)">
      <path id="Trazado_153089" data-name="Trazado 153089" d="M8.153,46.959A4.415,4.415,0,0,1,5.7,45.642,4.165,4.165,0,0,1,4.7,42.819c0-.138,0-.275-.011-.412a.276.276,0,0,0-.031-.082,11.638,11.638,0,0,1-1.667-.2A3.9,3.9,0,0,1,0,38.086Q0,30.751,0,23.415q0-9.6,0-19.209A3.829,3.829,0,0,1,2.243.425,4.789,4.789,0,0,1,4.188.02Q16.452-.02,28.716,0a3.945,3.945,0,0,1,4.168,4.081c0,.181,0,.363,0,.548a12.316,12.316,0,0,1,1.7.2,3.907,3.907,0,0,1,3,4.031q.009,4.814,0,9.628,0,12.126,0,24.252a3.933,3.933,0,0,1-2.266,3.824,8.351,8.351,0,0,1-1.209.392ZM28.178,1.59V3.366q0,1.811,0,3.622a.754.754,0,0,1-.475.767.782.782,0,0,1-.885-.191q-.2-.191-.391-.387c-.445-.453-.89-.908-1.38-1.408-.574.59-1.1,1.119-1.613,1.662a.882.882,0,0,1-1.016.329.872.872,0,0,1-.5-.941c.007-1.406,0-2.812,0-4.218V1.565h-.452q-8.643,0-17.285,0A2.392,2.392,0,0,0,1.569,4.2q0,16.94,0,33.881A2.394,2.394,0,0,0,4.184,40.7q12.264,0,24.528,0a2.374,2.374,0,0,0,2.6-2.591Q31.321,21.126,31.3,4.14a3,3,0,0,0-.293-1.318A2.538,2.538,0,0,0,28.178,1.59m4.706,4.724v.659q0,15.476,0,30.953a4.533,4.533,0,0,1-.4,2.094,3.958,3.958,0,0,1-3.836,2.252H6.334A2.45,2.45,0,0,0,8.865,45.4q12.266,0,24.533,0a2.391,2.391,0,0,0,2.617-2.625q0-16.944,0-33.887a2.465,2.465,0,0,0-3.13-2.571M26.571,5.168V1.605H23.512V5.039l.095.063c.255-.277.5-.565.768-.829a.823.823,0,0,1,1.346-.011c.268.26.511.544.85.907" transform="translate(0 0)" fill="#31313c"/>
      <path id="Trazado_153090" data-name="Trazado 153090" d="M19.36,43.762l.91-1.026,1.091,1.172c-.526.527-1.1,1.13-1.709,1.7a.981.981,0,0,0-.324.8c.018,1.192.009,2.384.006,3.576,0,.842-.261,1.112-1.085,1.114q-2.843.006-5.686,0c-.8,0-1.065-.271-1.066-1.085q-.006-2.843,0-5.686c0-.8.279-1.064,1.087-1.065,1.9,0,3.791-.016,5.685.013a4.161,4.161,0,0,1,1.035.291l.056.191m-1.612,3.891-.111-.065c-.282.3-.554.606-.85.889a.7.7,0,0,1-1.028.105c-.558-.53-1.061-1.12-1.526-1.62l1-1.112.944,1.058c.531-.539,1.021-1.017,1.482-1.523.1-.11.092-.318.144-.522H13.1V49.5h4.649Z" transform="translate(-6.797 -25.271)" fill="#31313c"/>
      <path id="Trazado_153091" data-name="Trazado 153091" d="M19.292,16.986l1.015-1.1,1.059,1.182c-.531.531-1.113,1.132-1.718,1.707a.935.935,0,0,0-.322.756c.018,1.221.01,2.443.006,3.664,0,.8-.266,1.061-1.079,1.062q-2.863,0-5.726,0c-.75,0-1.027-.267-1.03-1.016q-.01-2.886,0-5.772c0-.758.271-1.022,1.021-1.023,1.908,0,3.817,0,5.726,0a.979.979,0,0,1,1.048.54m-1.545,3.84-.119-.082c-.279.3-.544.614-.84.9a.743.743,0,0,1-1.07.089c-.552-.517-1.06-1.081-1.546-1.584L15.268,19l.923,1.049c.5-.506.973-.96,1.413-1.445a1.7,1.7,0,0,0,.2-.562H13.1v4.624h4.649Z" transform="translate(-6.796 -9.397)" fill="#31313c"/>
      <path id="Trazado_153092" data-name="Trazado 153092" d="M11.5,72.858c0-.963-.006-1.926,0-2.888.006-.767.287-1.043,1.062-1.044q2.865,0,5.73,0c.76,0,1.042.29,1.043,1.064q.006,2.865,0,5.73c0,.748-.278,1.036-1.017,1.038q-2.911.011-5.822,0c-.714,0-.988-.289-1-1.012-.009-.963,0-1.926,0-2.888m1.6-2.343v4.621a.687.687,0,0,0,.157.046c1.405,0,2.81,0,4.216.011.3,0,.3-.168.3-.385,0-1.329,0-2.658,0-3.987a2.011,2.011,0,0,0-.048-.306Z" transform="translate(-6.796 -40.756)" fill="#31313c"/>
      <rect id="Rectángulo_35205" data-name="Rectángulo 35205" width="7.767" height="1.507" transform="translate(15.692 22.731)" fill="#31313c"/>
      <rect id="Rectángulo_35206" data-name="Rectángulo 35206" width="7.762" height="1.506" transform="translate(15.684 11.769)" fill="#31313c"/>
      <rect id="Rectángulo_35207" data-name="Rectángulo 35207" width="7.765" height="1.507" transform="translate(15.692 32.894)" fill="#31313c"/>
      <rect id="Rectángulo_35208" data-name="Rectángulo 35208" width="4.627" height="1.514" transform="translate(15.693 8.637)" fill="#31313c"/>
      <rect id="Rectángulo_35209" data-name="Rectángulo 35209" width="4.622" height="1.506" transform="translate(15.695 19.6)" fill="#31313c"/>
      <rect id="Rectángulo_35210" data-name="Rectángulo 35210" width="4.64" height="1.497" transform="translate(15.687 29.765)" fill="#31313c"/>
      <rect id="Rectángulo_35211" data-name="Rectángulo 35211" width="1.488" height="1.521" transform="translate(21.954 29.75)" fill="#31313c"/>
    </g>
  </g>
</svg>
