<svg xmlns="http://www.w3.org/2000/svg" xmlns:xlink="http://www.w3.org/1999/xlink" width="77" height="77" viewBox="0 0 77 77">
  <defs>
    <clipPath id="clip-path">
      <rect id="Rectángulo_35108" data-name="Rectángulo 35108" width="16.538" height="22.389" fill="#785549" stroke="#785549" stroke-width="0.5"/>
    </clipPath>
  </defs>
  <g id="Grupo_158058" data-name="Grupo 158058" transform="translate(-604 -5914)">
    <circle id="Elipse_4725" data-name="Elipse 4725" cx="38.5" cy="38.5" r="38.5" transform="translate(604 5914)" fill="#f5e8df"/>
    <g id="Grupo_158051" data-name="Grupo 158051" transform="translate(621 5928)">
      <g id="Grupo_158056" data-name="Grupo 158056">
        <path id="Trazado_152530" data-name="Trazado 152530" d="M38.315,0c.178.161.363.315.533.484,1.408,1.4,2.823,2.8,4.207,4.227a1.4,1.4,0,0,1,.384.876q.03,14.545.016,29.091c0,.756-.261,1.012-1.024,1.013-1.192,0-2.385,0-3.632,0v.557q0,5.018,0,10.036a3.119,3.119,0,0,1-3.389,3.373h-32A3.123,3.123,0,0,1,0,46.252q0-11.685,0-23.37c0-.952.207-1.157,1.17-1.157H2.328V18.744c0-.533-.009-1.067,0-1.6a.768.768,0,0,1,.843-.847c2.8-.007,5.593-.012,8.389.012a1.272,1.272,0,0,1,.752.354c.607.556,1.168,1.162,1.762,1.734a.754.754,0,0,0,.45.214c.823.021,1.647.01,2.544.01v-.576q0-8.461-.008-16.921A1.211,1.211,0,0,1,17.557,0ZM32.828,48.1a20.607,20.607,0,0,1-.226-2.137q-.024-11.053-.01-22.105v-.549H1.552v.518q0,11.2,0,22.4c0,1.315.568,1.877,1.895,1.877H32.828Zm-14.18-26.38H33.029c.89,0,1.115.225,1.115,1.115q0,5.358,0,10.716v.559h7.731V6.207c-1.254,0-2.48,0-3.705,0-.633,0-.914-.286-.92-.92-.007-.711,0-1.422,0-2.133V1.576h-18.6ZM3.889,21.7H17.038V20.173c-.985,0-1.938.027-2.887-.016a1.485,1.485,0,0,1-.849-.35c-.591-.524-1.115-1.124-1.7-1.657a1.163,1.163,0,0,0-.7-.292c-2.18-.022-4.361-.013-6.542-.013H3.889ZM34.2,35.714c-.028.049-.042.063-.042.076,0,3.619-.013,7.237,0,10.856a1.419,1.419,0,0,0,.748,1.231,1.543,1.543,0,0,0,2.344-1.395c.01-3.489,0-6.979,0-10.468,0-.093-.01-.185-.016-.3ZM40.817,4.643c-.414-.4-.728-.69-1.034-.993s-.593-.606-.945-.967v1.96Z" transform="translate(0)" fill="#785549"/>
        <path id="Trazado_152532" data-name="Trazado 152532" d="M60.852,28.851H51.879c-.825,0-1.067-.242-1.067-1.067q0-3.612,0-7.225c0-.761.256-1.017,1.017-1.018H69.968c.761,0,1.018.258,1.019,1.017q0,3.637,0,7.274c0,.76-.259,1.018-1.018,1.018q-4.559,0-9.118,0m8.56-7.724H52.388v3.021c1.15.15,2.237.195,2.968-.929a3.81,3.81,0,0,1,.542-.553c1.086-1.086,1.158-1.087,2.23-.014.658.659,1.314,1.32,2.033,2.043.284-.316.526-.575.756-.844a1.06,1.06,0,0,1,1.022-.429,2.868,2.868,0,0,0,2.968-1.2c.4-.525.838-.474,1.324,0A13.93,13.93,0,0,1,67.591,23.6a1.693,1.693,0,0,0,1.821.555Zm-17.024,6.14H69.4v-1.52a8.366,8.366,0,0,0-.908.006,1.671,1.671,0,0,1-1.575-.636c-.412-.485-.9-.909-1.393-1.4-.243.268-.45.474-.63.7a1.353,1.353,0,0,1-1.358.556A2.6,2.6,0,0,0,60.9,26.043c-.561.694-.932.648-1.563.017-.762-.763-1.522-1.528-2.326-2.335-.557.567-1.085,1.085-1.591,1.624a1.214,1.214,0,0,1-.989.4c-.673-.021-1.348-.006-2.045-.006Z" transform="translate(-30.636 -11.782)" fill="#785549"/>
        <rect id="Rectángulo_35102" data-name="Rectángulo 35102" width="17.012" height="1.493" transform="translate(23.306 18.658)" fill="#785549"/>
        <rect id="Rectángulo_35103" data-name="Rectángulo 35103" width="4.577" height="1.51" transform="translate(35.734 21.757)" fill="#785549"/>
        <rect id="Rectángulo_35104" data-name="Rectángulo 35104" width="4.612" height="1.484" transform="translate(35.723 24.867)" fill="#785549"/>
        <rect id="Rectángulo_35105" data-name="Rectángulo 35105" width="4.595" height="1.493" transform="translate(35.719 27.957)" fill="#785549"/>
        <rect id="Rectángulo_35106" data-name="Rectángulo 35106" width="1.492" height="1.495" transform="translate(20.213 18.654)" fill="#785549"/>
        <g id="Grupo_158061" data-name="Grupo 158061" transform="translate(8.66 24.828)">
          <g id="Grupo_158061-2" data-name="Grupo 158061" clip-path="url(#clip-path)">
            <path id="Trazado_152548" data-name="Trazado 152548" d="M6.437,22.39c-.106-.089-.233-.044-.349-.046a4.132,4.132,0,0,1-2.21-.573A3.732,3.732,0,0,1,2.06,18.753c-.019-.247-.031-.495-.035-.742,0-.1-.038-.134-.128-.163a1.675,1.675,0,0,1-.711-2.861.222.222,0,0,0,.074-.208C1.148,13.89,1.017,13,.948,12.11a10.446,10.446,0,0,1-.031-1.637c.024-.3.121-.4.42-.4.729,0,1.457,0,2.186,0,.067,0,.192.054.2-.054,0-.131.059-.305-.124-.38A4.21,4.21,0,0,1,2.543,9.02a.176.176,0,0,0-.216-.014c-.17.081-.344.157-.518.229A.619.619,0,0,1,.964,8.97Q.524,8.23.1,7.479A.579.579,0,0,1,.29,6.637a.877.877,0,0,0,.518-1.1.545.545,0,0,1,.007-.282c.113-.384-.054-.6-.374-.8-.509-.324-.549-.6-.25-1.115.247-.428.492-.857.742-1.284a.6.6,0,0,1,.9-.291.845.845,0,0,0,1.134-.09A1.526,1.526,0,0,1,3.5,1.388a.3.3,0,0,0,.222-.322c.005-.16.027-.319.046-.478A.624.624,0,0,1,4.4.006q.885-.011,1.771,0a.617.617,0,0,1,.62.562,2.128,2.128,0,0,0,.1.686c.1.194.4.205.589.332a2.4,2.4,0,0,1,.382.251.41.41,0,0,0,.574.048,1.933,1.933,0,0,1,.257-.118.648.648,0,0,1,.954.307c.14.238.284.474.414.718a.227.227,0,0,0,.239.138c.313-.008.627-.007.94,0a.6.6,0,0,1,.662.63.813.813,0,0,0,.608.918,1.693,1.693,0,0,1,.551.346.286.286,0,0,0,.366.034,4.84,4.84,0,0,1,.477-.213.6.6,0,0,1,.782.243q.467.775.9,1.569a.586.586,0,0,1-.164.782c-.191.156-.476.259-.568.457s0,.481.014.728a.6.6,0,0,1-.009.2.645.645,0,0,0,.39.836.7.7,0,0,1,.409.534c.013.106.082.08.142.083.644.029.651.035.665.675a13.581,13.581,0,0,1-.564,3.9.29.29,0,0,0,.1.349,1.678,1.678,0,0,1-.645,2.842.233.233,0,0,0-.2.269,4.435,4.435,0,0,1-.407,2.1c-.033.065-.066.13-.1.192-.135.235-.237.275-.5.2a.375.375,0,0,1-.07-.525,2.732,2.732,0,0,0,.377-1.129,34.04,34.04,0,0,0,.071-3.647.349.349,0,0,0-.188-.33,1.923,1.923,0,0,1-.552-.553,4.067,4.067,0,0,1-.6-1.346A1.486,1.486,0,0,0,10.7,12.32a2.992,2.992,0,0,1-1.866.759,3.274,3.274,0,0,1-2.4-.791,1.263,1.263,0,0,0-.78-.349,1.438,1.438,0,0,0-1.572.931c-.053.143-.088.292-.138.436A3.029,3.029,0,0,1,2.756,15.03c-.091.056-.078.129-.08.206-.028,1.15-.027,2.3.036,3.449a3.136,3.136,0,0,0,2.07,2.793,6.063,6.063,0,0,0,2.049.213.659.659,0,0,0,.086.014c1.533.054,3.065.032,4.6-.048a3.006,3.006,0,0,0,1.655-.593.4.4,0,0,1,.517-.024c.135.287.108.382-.144.567a4.071,4.071,0,0,1-2.408.735c-.137,0-.283-.04-.412.047h-.306a.236.236,0,0,0-.306,0H7.137a.189.189,0,0,0-.262,0ZM1.464,4.458a1.089,1.089,0,0,1,.04.491,3.367,3.367,0,0,0,0,1.062,1.093,1.093,0,0,1-.04.512.032.032,0,0,0-.015.028c-.031,0-.04.026-.041.054l-.531.422c-.082.06-.244.066-.141.241.248.423.491.848.736,1.273.04.069.083.124.161.041.167-.069.336-.134.5-.209a.678.678,0,0,1,.771.093,3.5,3.5,0,0,0,.954.557.884.884,0,0,1,.438.338,4.23,4.23,0,0,1,.082.528c.006.175.079.21.227.168.131,0,.261.007.392.007.055,0,.119.016.126-.076a.747.747,0,0,1,.454-.574.6.6,0,0,0,.356-.73c-.041-.178-.067-.213-.242-.189A2.95,2.95,0,0,1,3.17,7.678c-.2-.19-.212-.317-.058-.552.211-.138.374-.06.542.1a2.33,2.33,0,0,0,2.14.594c.056-.011.144,0,.162-.08s-.065-.1-.114-.141c-.134-.1-.271-.2-.405-.3a.641.641,0,0,1-.2-.932q.4-.7.807-1.4a.637.637,0,0,1,.9-.3c.2.087.407.177.615.267a.4.4,0,0,0-.048-.29A2.383,2.383,0,0,0,2.961,6.027c.052.219.051.4-.154.536-.308.018-.406-.048-.476-.32A3.045,3.045,0,0,1,5.97,2.525,2.938,2.938,0,0,1,8.1,4.351c.053.128.085.132.222.09a.66.66,0,0,0,.533-.776.924.924,0,0,1,.027-.216.708.708,0,0,1,.205-.376c.076-.083.259-.068.25-.189s-.113-.215-.174-.322A1.108,1.108,0,0,1,9.1,2.45c-.04-.092-.092-.111-.187-.064-.175.087-.356.165-.537.239a.619.619,0,0,1-.659-.078,4.354,4.354,0,0,0-1.11-.641.61.61,0,0,1-.4-.553c-.017-.189-.046-.376-.06-.564C6.144.687,6.106.657,6,.659c-.466.008-.932.007-1.4.01-.141-.043-.188.015-.2.156a3.879,3.879,0,0,1-.113.795.787.787,0,0,1-.321.281,4.324,4.324,0,0,0-1.125.648.62.62,0,0,1-.657.078C2,2.55,1.816,2.466,1.63,2.385c-.122-.09-.145.024-.184.092-.221.38-.431.767-.664,1.139-.107.171-.1.268.1.332.185.181.439.283.585.509m13.425,5.6.022-.041-.451-.329a.672.672,0,0,1-.3-.717,3.384,3.384,0,0,0,0-1.152.65.65,0,0,1,.265-.67c.139-.106.279-.212.426-.306.113-.072.14-.137.064-.262-.237-.393-.465-.79-.688-1.191-.067-.12-.136-.124-.246-.069-.163.081-.33.153-.5.223a.6.6,0,0,1-.64-.07A4.567,4.567,0,0,0,11.71,4.82a.592.592,0,0,1-.384-.515c-.022-.188-.059-.375-.066-.563-.006-.142-.07-.163-.191-.161-.364.006-.728,0-1.093,0-.434,0-.434,0-.476.431-.033.332-.078.662-.441.81a4.6,4.6,0,0,0-1.111.642.61.61,0,0,1-.659.074c-.154-.067-.308-.132-.458-.2-.124-.06-.209-.077-.287.082-.131.267-.3.518-.442.778-.1.17-.287.341-.258.513s.276.278.443.388a.686.686,0,0,1,.336.724,3.354,3.354,0,0,0-.005,1.086.759.759,0,0,1-.4.861.894.894,0,0,0-.326.28H9.764A1.749,1.749,0,1,1,12.04,7.874a1.683,1.683,0,0,1-.082,1.275,1.869,1.869,0,0,1-.993.91ZM8.7,10.723v0q-3.465,0-6.929,0c-.151,0-.22.02-.218.2a30.227,30.227,0,0,0,.333,3.543c.008.061.009.115.1.1a1.009,1.009,0,0,0,.533-.165,2.041,2.041,0,0,0,.506-.622,5.711,5.711,0,0,0,.4-1.035,2.117,2.117,0,0,1,2.3-1.468,2.261,2.261,0,0,1,1.187.556,2.542,2.542,0,0,0,1.5.594,2.685,2.685,0,0,0,1.953-.664,2.009,2.009,0,0,1,1.837-.446,2.086,2.086,0,0,1,1.583,1.528,3.432,3.432,0,0,0,.694,1.393.889.889,0,0,0,.62.325c.106.006.151-.011.181-.123a14.354,14.354,0,0,0,.534-3.465c0-.192-.039-.256-.248-.255-2.288.009-4.576.005-6.864.005M11.467,8.4a1.079,1.079,0,1,0-1.076,1.087A1.084,1.084,0,0,0,11.467,8.4m-9.45,8.8c0-.622-.006-1.2,0-1.784,0-.175-.047-.187-.18-.108a1,1,0,0,0-.538.956,1.024,1.024,0,0,0,.714.936m13.153-.028a.469.469,0,0,0,.278-.119,1.029,1.029,0,0,0-.13-1.754c-.076-.036-.15-.086-.149.066,0,.6,0,1.2,0,1.807" transform="translate(0 0)" fill="#785549" stroke="#785549" stroke-width="0.5"/>
          </g>
        </g>
      </g>
    </g>
  </g>
</svg>
