<svg xmlns="http://www.w3.org/2000/svg" width="77" height="77" viewBox="0 0 77 77">
  <g id="Grupo_158059" data-name="Grupo 158059" transform="translate(-604 -5914)">
    <circle id="Elipse_4725" data-name="Elipse 4725" cx="38.5" cy="38.5" r="38.5" transform="translate(604 5914)" fill="#f5e8df"/>
    <g id="Grupo_158051" data-name="Grupo 158051" transform="translate(621 5928)">
      <g id="Grupo_158056" data-name="Grupo 158056">
        <path id="Trazado_152530" data-name="Trazado 152530" d="M38.315,0c.178.161.363.315.533.484,1.408,1.4,2.823,2.8,4.207,4.227a1.4,1.4,0,0,1,.384.876q.03,14.545.016,29.091c0,.756-.261,1.012-1.024,1.013-1.192,0-2.385,0-3.632,0v.557q0,5.018,0,10.036a3.119,3.119,0,0,1-3.389,3.373h-32A3.123,3.123,0,0,1,0,46.252q0-11.685,0-23.37c0-.952.207-1.157,1.17-1.157H2.328V18.744c0-.533-.009-1.067,0-1.6a.768.768,0,0,1,.843-.847c2.8-.007,5.593-.012,8.389.012a1.272,1.272,0,0,1,.752.354c.607.556,1.168,1.162,1.762,1.734a.754.754,0,0,0,.45.214c.823.021,1.647.01,2.544.01v-.576q0-8.461-.008-16.921A1.211,1.211,0,0,1,17.557,0ZM32.828,48.1a20.607,20.607,0,0,1-.226-2.137q-.024-11.053-.01-22.105v-.549H1.552v.518q0,11.2,0,22.4c0,1.315.568,1.877,1.895,1.877H32.828Zm-14.18-26.38H33.029c.89,0,1.115.225,1.115,1.115q0,5.358,0,10.716v.559h7.731V6.207c-1.254,0-2.48,0-3.705,0-.633,0-.914-.286-.92-.92-.007-.711,0-1.422,0-2.133V1.576h-18.6ZM3.889,21.7H17.038V20.173c-.985,0-1.938.027-2.887-.016a1.485,1.485,0,0,1-.849-.35c-.591-.524-1.115-1.124-1.7-1.657a1.163,1.163,0,0,0-.7-.292c-2.18-.022-4.361-.013-6.542-.013H3.889ZM34.2,35.714c-.028.049-.042.063-.042.076,0,3.619-.013,7.237,0,10.856a1.419,1.419,0,0,0,.748,1.231,1.543,1.543,0,0,0,2.344-1.395c.01-3.489,0-6.979,0-10.468,0-.093-.01-.185-.016-.3ZM40.817,4.643c-.414-.4-.728-.69-1.034-.993s-.593-.606-.945-.967v1.96Z" transform="translate(0)" fill="#785549"/>
        <path id="Trazado_152532" data-name="Trazado 152532" d="M60.852,28.851H51.879c-.825,0-1.067-.242-1.067-1.067q0-3.612,0-7.225c0-.761.256-1.017,1.017-1.018H69.968c.761,0,1.018.258,1.019,1.017q0,3.637,0,7.274c0,.76-.259,1.018-1.018,1.018q-4.559,0-9.118,0m8.56-7.724H52.388v3.021c1.15.15,2.237.195,2.968-.929a3.81,3.81,0,0,1,.542-.553c1.086-1.086,1.158-1.087,2.23-.014.658.659,1.314,1.32,2.033,2.043.284-.316.526-.575.756-.844a1.06,1.06,0,0,1,1.022-.429,2.868,2.868,0,0,0,2.968-1.2c.4-.525.838-.474,1.324,0A13.93,13.93,0,0,1,67.591,23.6a1.693,1.693,0,0,0,1.821.555Zm-17.024,6.14H69.4v-1.52a8.366,8.366,0,0,0-.908.006,1.671,1.671,0,0,1-1.575-.636c-.412-.485-.9-.909-1.393-1.4-.243.268-.45.474-.63.7a1.353,1.353,0,0,1-1.358.556A2.6,2.6,0,0,0,60.9,26.043c-.561.694-.932.648-1.563.017-.762-.763-1.522-1.528-2.326-2.335-.557.567-1.085,1.085-1.591,1.624a1.214,1.214,0,0,1-.989.4c-.673-.021-1.348-.006-2.045-.006Z" transform="translate(-30.636 -11.782)" fill="#785549"/>
        <rect id="Rectángulo_35102" data-name="Rectángulo 35102" width="17.012" height="1.493" transform="translate(23.306 18.658)" fill="#785549"/>
        <rect id="Rectángulo_35103" data-name="Rectángulo 35103" width="4.577" height="1.51" transform="translate(35.734 21.757)" fill="#785549"/>
        <rect id="Rectángulo_35104" data-name="Rectángulo 35104" width="4.612" height="1.484" transform="translate(35.723 24.867)" fill="#785549"/>
        <rect id="Rectángulo_35105" data-name="Rectángulo 35105" width="4.595" height="1.493" transform="translate(35.719 27.957)" fill="#785549"/>
        <rect id="Rectángulo_35106" data-name="Rectángulo 35106" width="1.492" height="1.495" transform="translate(20.213 18.654)" fill="#785549"/>
        <g id="Grupo_158054" data-name="Grupo 158054" transform="translate(6.471 24.828)">
          <g id="Grupo_158055" data-name="Grupo 158055">
            <path id="Trazado_152533" data-name="Trazado 152533" d="M10.765,0A10.853,10.853,0,1,0,21.707,10.847,10.857,10.857,0,0,0,10.765,0m.068,21.083A10.232,10.232,0,1,1,21.086,10.87,10.225,10.225,0,0,1,10.832,21.083" transform="translate(0 0)" fill="#785549" stroke="#785549" stroke-width="0.5"/>
            <path id="Trazado_152534" data-name="Trazado 152534" d="M21.5,12.567a8.992,8.992,0,1,0,9.035,9.011A8.972,8.972,0,0,0,21.5,12.567m-.113,17.37a8.377,8.377,0,1,1,8.525-8.159,8.391,8.391,0,0,1-8.525,8.159" transform="translate(-10.688 -10.707)" fill="#785549" stroke="#785549" stroke-width="0.5"/>
            <path id="Trazado_152535" data-name="Trazado 152535" d="M61.944,42.433v-.717c0-.523,0-1.045,0-1.568a.32.32,0,0,0-.313-.36c-.183,0-.3.142-.309.365,0,.052,0,.1,0,.157,0,1.359,0,2.718,0,4.077a.511.511,0,0,1-.165.409c-.472.457-.933.925-1.4,1.391-.186.186-.211.368-.074.505s.321.12.506-.064c.524-.522,1.042-1.048,1.57-1.566a.579.579,0,0,0,.183-.456c-.008-.724,0-1.448,0-2.173" transform="translate(-50.778 -33.898)" fill="#785549" stroke="#785549" stroke-width="0.5"/>
            <path id="Trazado_152536" data-name="Trazado 152536" d="M71.51,24.247a.293.293,0,0,0-.3.3,2.4,2.4,0,0,0,0,.267,2.771,2.771,0,0,0,0,.289.291.291,0,0,0,.306.29.285.285,0,0,0,.31-.285,3.457,3.457,0,0,0,0-.578.284.284,0,0,0-.314-.279" transform="translate(-60.665 -20.658)" fill="#785549" stroke="#785549" stroke-width="0.5"/>
            <path id="Trazado_152537" data-name="Trazado 152537" d="M25.11,71.185a3.525,3.525,0,0,0-.578,0,.284.284,0,0,0-.282.311.293.293,0,0,0,.292.3,2.228,2.228,0,0,0,.267,0,2.812,2.812,0,0,0,.289,0,.293.293,0,0,0,.294-.3.284.284,0,0,0-.281-.312" transform="translate(-20.66 -60.638)" fill="#785549" stroke="#785549" stroke-width="0.5"/>
            <path id="Trazado_152538" data-name="Trazado 152538" d="M115.535,71.187a3.7,3.7,0,0,0-.578,0,.282.282,0,0,0-.275.3.291.291,0,0,0,.278.316,2.164,2.164,0,0,0,.289,0h0a2.165,2.165,0,0,0,.289,0,.292.292,0,0,0,.285-.31.285.285,0,0,0-.289-.305" transform="translate(-97.706 -60.641)" fill="#785549" stroke="#785549" stroke-width="0.5"/>
            <path id="Trazado_152539" data-name="Trazado 152539" d="M71.8,114.976a.292.292,0,0,0-.3-.293.284.284,0,0,0-.312.282,3.508,3.508,0,0,0,0,.578.284.284,0,0,0,.311.282.293.293,0,0,0,.3-.292,2.29,2.29,0,0,0,0-.267,2.817,2.817,0,0,0,0-.289" transform="translate(-60.64 -97.707)" fill="#785549" stroke="#785549" stroke-width="0.5"/>
            <path id="Trazado_152540" data-name="Trazado 152540" d="M38.623,101.982c-.03.006-.083,0-.115.027a2.043,2.043,0,0,0-.524.537.262.262,0,0,0,.074.342.268.268,0,0,0,.349.04,2.047,2.047,0,0,0,.488-.485.3.3,0,0,0-.272-.462" transform="translate(-32.331 -86.886)" fill="#785549" stroke="#785549" stroke-width="0.5"/>
            <path id="Trazado_152541" data-name="Trazado 152541" d="M102.372,101.96a.267.267,0,0,0-.359.087.276.276,0,0,0-.005.369,4.842,4.842,0,0,0,.44.442.266.266,0,0,0,.314.027.322.322,0,0,0,.175-.279.352.352,0,0,0-.033-.117,1.853,1.853,0,0,0-.532-.529" transform="translate(-86.851 -86.836)" fill="#785549" stroke="#785549" stroke-width="0.5"/>
            <path id="Trazado_152542" data-name="Trazado 152542" d="M38.485,38.905a.27.27,0,0,0,.315.022.3.3,0,0,0,.164-.283.289.289,0,0,0-.028-.116A2,2,0,0,0,38.4,38a.263.263,0,0,0-.342.076.27.27,0,0,0-.026.368,4.485,4.485,0,0,0,.454.458" transform="translate(-32.35 -32.347)" fill="#785549" stroke="#785549" stroke-width="0.5"/>
            <path id="Trazado_152543" data-name="Trazado 152543" d="M102.471,38.9c.126-.116.242-.241.364-.362a.349.349,0,0,0,.1-.215.306.306,0,0,0-.163-.278.29.29,0,0,0-.352.043c-.13.122-.258.247-.378.378a.3.3,0,0,0-.007.438.3.3,0,0,0,.439,0" transform="translate(-86.851 -32.378)" fill="#785549" stroke="#785549" stroke-width="0.5"/>
          </g>
        </g>
      </g>
    </g>
  </g>
</svg>
