<svg xmlns="http://www.w3.org/2000/svg" xmlns:xlink="http://www.w3.org/1999/xlink" width="505" height="528" viewBox="0 0 505 528">
  <defs>
    <clipPath id="clip-path">
      <rect id="Rectángulo_34881" data-name="Rectángulo 34881" width="254.168" height="129.664" fill="#fff0de"/>
    </clipPath>
  </defs>
  <g id="Grupo_158069" data-name="Grupo 158069" transform="translate(-180 -922)">
    <g id="Grupo_157921" data-name="Grupo 157921" transform="translate(178.662 921.742)">
      <path id="Rectángulo_34948" data-name="Rectángulo 34948" d="M56,0H488.338a0,0,0,0,1,0,0V445.679a56,56,0,0,1-56,56H0a0,0,0,0,1,0,0V56A56,56,0,0,1,56,0Z" transform="translate(8 17.779)" fill="#fff0de"/>
      <g id="Enmascarar_grupo_63" data-name="Enmascarar grupo 63" transform="translate(252.169 0.257)" clip-path="url(#clip-path)">
        <path id="Trazado_151731" data-name="Trazado 151731" d="M121.018,191.081a70.063,70.063,0,1,1,70.063-70.063,70.142,70.142,0,0,1-70.063,70.063m0,50.955A121.018,121.018,0,1,0,0,121.018,121.018,121.018,0,0,0,121.018,242.036Z" transform="translate(5.25 8.647)" fill="#fff0de"/>
      </g>
      <g id="Grupo_78301" data-name="Grupo 78301" transform="translate(1.338 0.257)">
        <path id="Trazado_145969" data-name="Trazado 145969" d="M71.675,0A71.675,71.675,0,1,1,0,71.675,71.675,71.675,0,0,1,71.675,0Z" transform="translate(0 3.637)" fill="#ebc9b1" opacity="0.444" style="mix-blend-mode: multiply;isolation: isolate"/>
        <rect id="Rectángulo_34812" data-name="Rectángulo 34812" width="504.999" height="517.031" transform="translate(0 0)" fill="none"/>
        <path id="Trazado_145971" data-name="Trazado 145971" d="M8.18,0A8.18,8.18,0,1,1,0,8.18,8.18,8.18,0,0,1,8.18,0Z" transform="translate(32.317 484.46)" fill="#fff0de" opacity="0.444" style="mix-blend-mode: multiply;isolation: isolate"/>
        <g id="Grupo_80270" data-name="Grupo 80270" transform="translate(344.078 367.079)">
          <path id="Trazado_145968" data-name="Trazado 145968" d="M80.461,0A80.461,80.461,0,1,1,0,80.461,80.461,80.461,0,0,1,80.461,0Z" transform="translate(0)" fill="#ddd4d1" opacity="0.444" style="mix-blend-mode: multiply;isolation: isolate"/>
          <g id="Grupo_78276" data-name="Grupo 78276" transform="translate(31.415 33.263)">
            <g id="Grupo_53306" data-name="Grupo 53306">
              <path id="Trazado_99200" data-name="Trazado 99200" d="M416.4,51.268a1.094,1.094,0,1,1-1.093-1.044A1.07,1.07,0,0,1,416.4,51.268Z" transform="translate(-414.214 -50.224)" fill="#31313c"/>
              <path id="Trazado_99201" data-name="Trazado 99201" d="M424.845,51.268a1.094,1.094,0,1,1-1.092-1.044A1.069,1.069,0,0,1,424.845,51.268Z" transform="translate(-412.827 -50.224)" fill="#31313c"/>
              <path id="Trazado_99202" data-name="Trazado 99202" d="M433.291,51.268a1.094,1.094,0,1,1-1.092-1.044A1.069,1.069,0,0,1,433.291,51.268Z" transform="translate(-411.441 -50.224)" fill="#31313c"/>
              <path id="Trazado_99203" data-name="Trazado 99203" d="M441.738,51.268a1.094,1.094,0,1,1-1.093-1.044A1.07,1.07,0,0,1,441.738,51.268Z" transform="translate(-410.054 -50.224)" fill="#31313c"/>
              <path id="Trazado_99204" data-name="Trazado 99204" d="M450.184,51.268a1.094,1.094,0,1,1-1.092-1.044A1.069,1.069,0,0,1,450.184,51.268Z" transform="translate(-408.667 -50.224)" fill="#31313c"/>
              <path id="Trazado_99205" data-name="Trazado 99205" d="M458.63,51.268a1.094,1.094,0,1,1-1.092-1.044A1.069,1.069,0,0,1,458.63,51.268Z" transform="translate(-407.28 -50.224)" fill="#31313c"/>
              <path id="Trazado_99206" data-name="Trazado 99206" d="M467.077,51.268a1.094,1.094,0,1,1-1.093-1.044A1.07,1.07,0,0,1,467.077,51.268Z" transform="translate(-405.893 -50.224)" fill="#31313c"/>
              <path id="Trazado_99207" data-name="Trazado 99207" d="M475.523,51.268a1.094,1.094,0,1,1-1.092-1.044A1.069,1.069,0,0,1,475.523,51.268Z" transform="translate(-404.507 -50.224)" fill="#31313c"/>
              <path id="Trazado_99208" data-name="Trazado 99208" d="M483.969,51.268a1.094,1.094,0,1,1-1.092-1.044A1.069,1.069,0,0,1,483.969,51.268Z" transform="translate(-403.12 -50.224)" fill="#31313c"/>
              <path id="Trazado_99209" data-name="Trazado 99209" d="M492.416,51.268a1.094,1.094,0,1,1-1.093-1.044A1.07,1.07,0,0,1,492.416,51.268Z" transform="translate(-401.733 -50.224)" fill="#31313c"/>
              <path id="Trazado_99210" data-name="Trazado 99210" d="M500.862,51.268a1.094,1.094,0,1,1-1.093-1.044A1.069,1.069,0,0,1,500.862,51.268Z" transform="translate(-400.347 -50.224)" fill="#31313c"/>
            </g>
            <g id="Grupo_53307" data-name="Grupo 53307" transform="translate(0 8.359)">
              <path id="Trazado_99211" data-name="Trazado 99211" d="M416.4,58.776a1.094,1.094,0,1,1-1.093-1.044A1.07,1.07,0,0,1,416.4,58.776Z" transform="translate(-414.214 -57.732)" fill="#31313c"/>
              <path id="Trazado_99212" data-name="Trazado 99212" d="M424.845,58.776a1.094,1.094,0,1,1-1.092-1.044A1.069,1.069,0,0,1,424.845,58.776Z" transform="translate(-412.827 -57.732)" fill="#31313c"/>
              <path id="Trazado_99213" data-name="Trazado 99213" d="M433.291,58.776a1.094,1.094,0,1,1-1.092-1.044A1.069,1.069,0,0,1,433.291,58.776Z" transform="translate(-411.441 -57.732)" fill="#31313c"/>
              <path id="Trazado_99214" data-name="Trazado 99214" d="M441.738,58.776a1.094,1.094,0,1,1-1.093-1.044A1.07,1.07,0,0,1,441.738,58.776Z" transform="translate(-410.054 -57.732)" fill="#31313c"/>
              <path id="Trazado_99215" data-name="Trazado 99215" d="M450.184,58.776a1.094,1.094,0,1,1-1.092-1.044A1.069,1.069,0,0,1,450.184,58.776Z" transform="translate(-408.667 -57.732)" fill="#31313c"/>
              <path id="Trazado_99216" data-name="Trazado 99216" d="M458.63,58.776a1.094,1.094,0,1,1-1.092-1.044A1.069,1.069,0,0,1,458.63,58.776Z" transform="translate(-407.28 -57.732)" fill="#31313c"/>
              <path id="Trazado_99217" data-name="Trazado 99217" d="M467.077,58.776a1.094,1.094,0,1,1-1.093-1.044A1.07,1.07,0,0,1,467.077,58.776Z" transform="translate(-405.893 -57.732)" fill="#31313c"/>
              <path id="Trazado_99218" data-name="Trazado 99218" d="M475.523,58.776a1.094,1.094,0,1,1-1.092-1.044A1.069,1.069,0,0,1,475.523,58.776Z" transform="translate(-404.507 -57.732)" fill="#31313c"/>
              <path id="Trazado_99219" data-name="Trazado 99219" d="M483.969,58.776a1.094,1.094,0,1,1-1.092-1.044A1.069,1.069,0,0,1,483.969,58.776Z" transform="translate(-403.12 -57.732)" fill="#31313c"/>
              <path id="Trazado_99220" data-name="Trazado 99220" d="M492.416,58.776a1.094,1.094,0,1,1-1.093-1.044A1.07,1.07,0,0,1,492.416,58.776Z" transform="translate(-401.733 -57.732)" fill="#31313c"/>
              <path id="Trazado_99221" data-name="Trazado 99221" d="M500.862,58.776a1.094,1.094,0,1,1-1.093-1.044A1.069,1.069,0,0,1,500.862,58.776Z" transform="translate(-400.347 -57.732)" fill="#31313c"/>
            </g>
            <g id="Grupo_53308" data-name="Grupo 53308" transform="translate(0 16.718)">
              <ellipse id="Elipse_3955" data-name="Elipse 3955" cx="1.093" cy="1.045" rx="1.093" ry="1.045" fill="#31313c"/>
              <path id="Trazado_99222" data-name="Trazado 99222" d="M424.845,66.284a1.094,1.094,0,1,1-1.092-1.044A1.07,1.07,0,0,1,424.845,66.284Z" transform="translate(-412.827 -65.24)" fill="#31313c"/>
              <ellipse id="Elipse_3956" data-name="Elipse 3956" cx="1.093" cy="1.045" rx="1.093" ry="1.045" transform="translate(19.666)" fill="#31313c"/>
              <path id="Trazado_99223" data-name="Trazado 99223" d="M441.738,66.284a1.094,1.094,0,1,1-1.093-1.044A1.07,1.07,0,0,1,441.738,66.284Z" transform="translate(-410.054 -65.24)" fill="#31313c"/>
              <path id="Trazado_99224" data-name="Trazado 99224" d="M450.184,66.284a1.094,1.094,0,1,1-1.092-1.044A1.07,1.07,0,0,1,450.184,66.284Z" transform="translate(-408.667 -65.24)" fill="#31313c"/>
              <ellipse id="Elipse_3957" data-name="Elipse 3957" cx="1.093" cy="1.045" rx="1.093" ry="1.045" transform="translate(49.165)" fill="#31313c"/>
              <path id="Trazado_99225" data-name="Trazado 99225" d="M467.077,66.284a1.094,1.094,0,1,1-1.093-1.044A1.071,1.071,0,0,1,467.077,66.284Z" transform="translate(-405.893 -65.24)" fill="#31313c"/>
              <ellipse id="Elipse_3958" data-name="Elipse 3958" cx="1.093" cy="1.045" rx="1.093" ry="1.045" transform="translate(68.831)" fill="#31313c"/>
              <ellipse id="Elipse_3959" data-name="Elipse 3959" cx="1.093" cy="1.045" rx="1.093" ry="1.045" transform="translate(78.664)" fill="#31313c"/>
              <path id="Trazado_99226" data-name="Trazado 99226" d="M492.416,66.284a1.094,1.094,0,1,1-1.093-1.044A1.071,1.071,0,0,1,492.416,66.284Z" transform="translate(-401.733 -65.24)" fill="#31313c"/>
              <path id="Trazado_99227" data-name="Trazado 99227" d="M500.862,66.284a1.094,1.094,0,1,1-1.093-1.044A1.07,1.07,0,0,1,500.862,66.284Z" transform="translate(-400.347 -65.24)" fill="#31313c"/>
            </g>
            <g id="Grupo_53309" data-name="Grupo 53309" transform="translate(0 25.076)">
              <ellipse id="Elipse_3960" data-name="Elipse 3960" cx="1.093" cy="1.045" rx="1.093" ry="1.045" transform="translate(0 0)" fill="#31313c"/>
              <path id="Trazado_99228" data-name="Trazado 99228" d="M424.845,73.792a1.094,1.094,0,1,1-1.092-1.045A1.069,1.069,0,0,1,424.845,73.792Z" transform="translate(-412.827 -72.747)" fill="#31313c"/>
              <ellipse id="Elipse_3961" data-name="Elipse 3961" cx="1.093" cy="1.045" rx="1.093" ry="1.045" transform="translate(19.666 0)" fill="#31313c"/>
              <path id="Trazado_99229" data-name="Trazado 99229" d="M441.738,73.792a1.094,1.094,0,1,1-1.093-1.045A1.069,1.069,0,0,1,441.738,73.792Z" transform="translate(-410.054 -72.747)" fill="#31313c"/>
              <path id="Trazado_99230" data-name="Trazado 99230" d="M450.184,73.792a1.094,1.094,0,1,1-1.092-1.045A1.069,1.069,0,0,1,450.184,73.792Z" transform="translate(-408.667 -72.747)" fill="#31313c"/>
              <ellipse id="Elipse_3962" data-name="Elipse 3962" cx="1.093" cy="1.045" rx="1.093" ry="1.045" transform="translate(49.165 0)" fill="#31313c"/>
              <path id="Trazado_99231" data-name="Trazado 99231" d="M467.077,73.792a1.094,1.094,0,1,1-1.093-1.045A1.07,1.07,0,0,1,467.077,73.792Z" transform="translate(-405.893 -72.747)" fill="#31313c"/>
              <ellipse id="Elipse_3963" data-name="Elipse 3963" cx="1.093" cy="1.045" rx="1.093" ry="1.045" transform="translate(68.831 0)" fill="#31313c"/>
              <ellipse id="Elipse_3964" data-name="Elipse 3964" cx="1.093" cy="1.045" rx="1.093" ry="1.045" transform="translate(78.664 0)" fill="#31313c"/>
              <path id="Trazado_99232" data-name="Trazado 99232" d="M492.416,73.792a1.094,1.094,0,1,1-1.093-1.045A1.07,1.07,0,0,1,492.416,73.792Z" transform="translate(-401.733 -72.747)" fill="#31313c"/>
              <path id="Trazado_99233" data-name="Trazado 99233" d="M500.862,73.792a1.094,1.094,0,1,1-1.093-1.045A1.069,1.069,0,0,1,500.862,73.792Z" transform="translate(-400.347 -72.747)" fill="#31313c"/>
            </g>
            <g id="Grupo_53310" data-name="Grupo 53310" transform="translate(0 33.435)">
              <path id="Trazado_99234" data-name="Trazado 99234" d="M416.4,81.3a1.094,1.094,0,1,1-1.093-1.045A1.069,1.069,0,0,1,416.4,81.3Z" transform="translate(-414.214 -80.255)" fill="#31313c"/>
              <path id="Trazado_99235" data-name="Trazado 99235" d="M424.845,81.3a1.094,1.094,0,1,1-1.092-1.045A1.069,1.069,0,0,1,424.845,81.3Z" transform="translate(-412.827 -80.255)" fill="#31313c"/>
              <path id="Trazado_99236" data-name="Trazado 99236" d="M433.291,81.3a1.094,1.094,0,1,1-1.092-1.045A1.069,1.069,0,0,1,433.291,81.3Z" transform="translate(-411.441 -80.255)" fill="#31313c"/>
              <path id="Trazado_99237" data-name="Trazado 99237" d="M441.738,81.3a1.094,1.094,0,1,1-1.093-1.045A1.069,1.069,0,0,1,441.738,81.3Z" transform="translate(-410.054 -80.255)" fill="#31313c"/>
              <path id="Trazado_99238" data-name="Trazado 99238" d="M450.184,81.3a1.094,1.094,0,1,1-1.092-1.045A1.069,1.069,0,0,1,450.184,81.3Z" transform="translate(-408.667 -80.255)" fill="#31313c"/>
              <path id="Trazado_99239" data-name="Trazado 99239" d="M458.63,81.3a1.094,1.094,0,1,1-1.092-1.045A1.069,1.069,0,0,1,458.63,81.3Z" transform="translate(-407.28 -80.255)" fill="#31313c"/>
              <path id="Trazado_99240" data-name="Trazado 99240" d="M467.077,81.3a1.094,1.094,0,1,1-1.093-1.045A1.07,1.07,0,0,1,467.077,81.3Z" transform="translate(-405.893 -80.255)" fill="#31313c"/>
              <path id="Trazado_99241" data-name="Trazado 99241" d="M475.523,81.3a1.094,1.094,0,1,1-1.092-1.045A1.069,1.069,0,0,1,475.523,81.3Z" transform="translate(-404.507 -80.255)" fill="#31313c"/>
              <path id="Trazado_99242" data-name="Trazado 99242" d="M483.969,81.3a1.094,1.094,0,1,1-1.092-1.045A1.069,1.069,0,0,1,483.969,81.3Z" transform="translate(-403.12 -80.255)" fill="#31313c"/>
              <path id="Trazado_99243" data-name="Trazado 99243" d="M492.416,81.3a1.094,1.094,0,1,1-1.093-1.045A1.07,1.07,0,0,1,492.416,81.3Z" transform="translate(-401.733 -80.255)" fill="#31313c"/>
              <path id="Trazado_99244" data-name="Trazado 99244" d="M500.862,81.3a1.094,1.094,0,1,1-1.093-1.045A1.069,1.069,0,0,1,500.862,81.3Z" transform="translate(-400.347 -80.255)" fill="#31313c"/>
            </g>
            <g id="Grupo_53311" data-name="Grupo 53311" transform="translate(0 41.793)">
              <ellipse id="Elipse_3965" data-name="Elipse 3965" cx="1.093" cy="1.045" rx="1.093" ry="1.045" transform="translate(0 0)" fill="#31313c"/>
              <path id="Trazado_99245" data-name="Trazado 99245" d="M424.845,88.808a1.094,1.094,0,1,1-1.092-1.045A1.069,1.069,0,0,1,424.845,88.808Z" transform="translate(-412.827 -87.763)" fill="#31313c"/>
              <ellipse id="Elipse_3966" data-name="Elipse 3966" cx="1.093" cy="1.045" rx="1.093" ry="1.045" transform="translate(19.666 0)" fill="#31313c"/>
              <path id="Trazado_99246" data-name="Trazado 99246" d="M441.738,88.808a1.094,1.094,0,1,1-1.093-1.045A1.069,1.069,0,0,1,441.738,88.808Z" transform="translate(-410.054 -87.763)" fill="#31313c"/>
              <path id="Trazado_99247" data-name="Trazado 99247" d="M450.184,88.808a1.094,1.094,0,1,1-1.092-1.045A1.069,1.069,0,0,1,450.184,88.808Z" transform="translate(-408.667 -87.763)" fill="#31313c"/>
              <ellipse id="Elipse_3967" data-name="Elipse 3967" cx="1.093" cy="1.045" rx="1.093" ry="1.045" transform="translate(49.165 0)" fill="#31313c"/>
              <path id="Trazado_99248" data-name="Trazado 99248" d="M467.077,88.808a1.094,1.094,0,1,1-1.093-1.045A1.07,1.07,0,0,1,467.077,88.808Z" transform="translate(-405.893 -87.763)" fill="#31313c"/>
              <ellipse id="Elipse_3968" data-name="Elipse 3968" cx="1.093" cy="1.045" rx="1.093" ry="1.045" transform="translate(68.831 0)" fill="#31313c"/>
              <ellipse id="Elipse_3969" data-name="Elipse 3969" cx="1.093" cy="1.045" rx="1.093" ry="1.045" transform="translate(78.664 0)" fill="#31313c"/>
              <path id="Trazado_99249" data-name="Trazado 99249" d="M492.416,88.808a1.094,1.094,0,1,1-1.093-1.045A1.07,1.07,0,0,1,492.416,88.808Z" transform="translate(-401.733 -87.763)" fill="#31313c"/>
              <path id="Trazado_99250" data-name="Trazado 99250" d="M500.862,88.808a1.094,1.094,0,1,1-1.093-1.045A1.069,1.069,0,0,1,500.862,88.808Z" transform="translate(-400.347 -87.763)" fill="#31313c"/>
            </g>
            <g id="Grupo_53312" data-name="Grupo 53312" transform="translate(0 50.152)">
              <ellipse id="Elipse_3970" data-name="Elipse 3970" cx="1.093" cy="1.045" rx="1.093" ry="1.045" fill="#31313c"/>
              <path id="Trazado_99251" data-name="Trazado 99251" d="M424.845,96.315a1.094,1.094,0,1,1-1.092-1.044A1.069,1.069,0,0,1,424.845,96.315Z" transform="translate(-412.827 -95.271)" fill="#31313c"/>
              <ellipse id="Elipse_3971" data-name="Elipse 3971" cx="1.093" cy="1.045" rx="1.093" ry="1.045" transform="translate(19.666)" fill="#31313c"/>
              <path id="Trazado_99252" data-name="Trazado 99252" d="M441.738,96.315a1.094,1.094,0,1,1-1.093-1.044A1.07,1.07,0,0,1,441.738,96.315Z" transform="translate(-410.054 -95.271)" fill="#31313c"/>
              <path id="Trazado_99253" data-name="Trazado 99253" d="M450.184,96.315a1.094,1.094,0,1,1-1.092-1.044A1.069,1.069,0,0,1,450.184,96.315Z" transform="translate(-408.667 -95.271)" fill="#31313c"/>
              <ellipse id="Elipse_3972" data-name="Elipse 3972" cx="1.093" cy="1.045" rx="1.093" ry="1.045" transform="translate(49.165)" fill="#31313c"/>
              <path id="Trazado_99254" data-name="Trazado 99254" d="M467.077,96.315a1.094,1.094,0,1,1-1.093-1.044A1.07,1.07,0,0,1,467.077,96.315Z" transform="translate(-405.893 -95.271)" fill="#31313c"/>
              <ellipse id="Elipse_3973" data-name="Elipse 3973" cx="1.093" cy="1.045" rx="1.093" ry="1.045" transform="translate(68.831)" fill="#31313c"/>
              <ellipse id="Elipse_3974" data-name="Elipse 3974" cx="1.093" cy="1.045" rx="1.093" ry="1.045" transform="translate(78.664)" fill="#31313c"/>
              <path id="Trazado_99255" data-name="Trazado 99255" d="M492.416,96.315a1.094,1.094,0,1,1-1.093-1.044A1.07,1.07,0,0,1,492.416,96.315Z" transform="translate(-401.733 -95.271)" fill="#31313c"/>
              <path id="Trazado_99256" data-name="Trazado 99256" d="M500.862,96.315a1.094,1.094,0,1,1-1.093-1.044A1.069,1.069,0,0,1,500.862,96.315Z" transform="translate(-400.347 -95.271)" fill="#31313c"/>
            </g>
            <g id="Grupo_53313" data-name="Grupo 53313" transform="translate(0 58.511)">
              <path id="Trazado_99257" data-name="Trazado 99257" d="M416.4,103.823a1.094,1.094,0,1,1-1.093-1.044A1.07,1.07,0,0,1,416.4,103.823Z" transform="translate(-414.214 -102.779)" fill="#31313c"/>
              <path id="Trazado_99258" data-name="Trazado 99258" d="M424.845,103.823a1.094,1.094,0,1,1-1.092-1.044A1.069,1.069,0,0,1,424.845,103.823Z" transform="translate(-412.827 -102.779)" fill="#31313c"/>
              <path id="Trazado_99259" data-name="Trazado 99259" d="M433.291,103.823a1.094,1.094,0,1,1-1.092-1.044A1.069,1.069,0,0,1,433.291,103.823Z" transform="translate(-411.441 -102.779)" fill="#31313c"/>
              <path id="Trazado_99260" data-name="Trazado 99260" d="M441.738,103.823a1.094,1.094,0,1,1-1.093-1.044A1.07,1.07,0,0,1,441.738,103.823Z" transform="translate(-410.054 -102.779)" fill="#31313c"/>
              <path id="Trazado_99261" data-name="Trazado 99261" d="M450.184,103.823a1.094,1.094,0,1,1-1.092-1.044A1.069,1.069,0,0,1,450.184,103.823Z" transform="translate(-408.667 -102.779)" fill="#31313c"/>
              <path id="Trazado_99262" data-name="Trazado 99262" d="M458.63,103.823a1.094,1.094,0,1,1-1.092-1.044A1.069,1.069,0,0,1,458.63,103.823Z" transform="translate(-407.28 -102.779)" fill="#31313c"/>
              <path id="Trazado_99263" data-name="Trazado 99263" d="M467.077,103.823a1.094,1.094,0,1,1-1.093-1.044A1.07,1.07,0,0,1,467.077,103.823Z" transform="translate(-405.893 -102.779)" fill="#31313c"/>
              <path id="Trazado_99264" data-name="Trazado 99264" d="M475.523,103.823a1.094,1.094,0,1,1-1.092-1.044A1.069,1.069,0,0,1,475.523,103.823Z" transform="translate(-404.507 -102.779)" fill="#31313c"/>
              <path id="Trazado_99265" data-name="Trazado 99265" d="M483.969,103.823a1.094,1.094,0,1,1-1.092-1.044A1.069,1.069,0,0,1,483.969,103.823Z" transform="translate(-403.12 -102.779)" fill="#31313c"/>
              <path id="Trazado_99266" data-name="Trazado 99266" d="M492.416,103.823a1.094,1.094,0,1,1-1.093-1.044A1.07,1.07,0,0,1,492.416,103.823Z" transform="translate(-401.733 -102.779)" fill="#31313c"/>
              <path id="Trazado_99267" data-name="Trazado 99267" d="M500.862,103.823a1.094,1.094,0,1,1-1.093-1.044A1.069,1.069,0,0,1,500.862,103.823Z" transform="translate(-400.347 -102.779)" fill="#31313c"/>
            </g>
            <g id="Grupo_53314" data-name="Grupo 53314" transform="translate(0 66.87)">
              <ellipse id="Elipse_3975" data-name="Elipse 3975" cx="1.093" cy="1.045" rx="1.093" ry="1.045" fill="#31313c"/>
              <path id="Trazado_99268" data-name="Trazado 99268" d="M424.845,111.331a1.094,1.094,0,1,1-1.092-1.044A1.07,1.07,0,0,1,424.845,111.331Z" transform="translate(-412.827 -110.287)" fill="#31313c"/>
              <ellipse id="Elipse_3976" data-name="Elipse 3976" cx="1.093" cy="1.045" rx="1.093" ry="1.045" transform="translate(19.666)" fill="#31313c"/>
              <path id="Trazado_99269" data-name="Trazado 99269" d="M441.738,111.331a1.094,1.094,0,1,1-1.093-1.044A1.07,1.07,0,0,1,441.738,111.331Z" transform="translate(-410.054 -110.287)" fill="#31313c"/>
              <path id="Trazado_99270" data-name="Trazado 99270" d="M450.184,111.331a1.094,1.094,0,1,1-1.092-1.044A1.07,1.07,0,0,1,450.184,111.331Z" transform="translate(-408.667 -110.287)" fill="#31313c"/>
              <ellipse id="Elipse_3977" data-name="Elipse 3977" cx="1.093" cy="1.045" rx="1.093" ry="1.045" transform="translate(49.165)" fill="#31313c"/>
              <path id="Trazado_99271" data-name="Trazado 99271" d="M467.077,111.331a1.094,1.094,0,1,1-1.093-1.044A1.071,1.071,0,0,1,467.077,111.331Z" transform="translate(-405.893 -110.287)" fill="#31313c"/>
              <ellipse id="Elipse_3978" data-name="Elipse 3978" cx="1.093" cy="1.045" rx="1.093" ry="1.045" transform="translate(68.831)" fill="#31313c"/>
              <ellipse id="Elipse_3979" data-name="Elipse 3979" cx="1.093" cy="1.045" rx="1.093" ry="1.045" transform="translate(78.664)" fill="#31313c"/>
              <path id="Trazado_99272" data-name="Trazado 99272" d="M492.416,111.331a1.094,1.094,0,1,1-1.093-1.044A1.071,1.071,0,0,1,492.416,111.331Z" transform="translate(-401.733 -110.287)" fill="#31313c"/>
              <path id="Trazado_99273" data-name="Trazado 99273" d="M500.862,111.331a1.094,1.094,0,1,1-1.093-1.044A1.07,1.07,0,0,1,500.862,111.331Z" transform="translate(-400.347 -110.287)" fill="#31313c"/>
            </g>
            <g id="Grupo_53315" data-name="Grupo 53315" transform="translate(0 75.228)">
              <path id="Trazado_99274" data-name="Trazado 99274" d="M416.4,118.839a1.094,1.094,0,1,1-1.093-1.045A1.07,1.07,0,0,1,416.4,118.839Z" transform="translate(-414.214 -117.794)" fill="#31313c"/>
              <path id="Trazado_99275" data-name="Trazado 99275" d="M424.845,118.839a1.094,1.094,0,1,1-1.092-1.045A1.07,1.07,0,0,1,424.845,118.839Z" transform="translate(-412.827 -117.794)" fill="#31313c"/>
              <path id="Trazado_99276" data-name="Trazado 99276" d="M433.291,118.839a1.094,1.094,0,1,1-1.092-1.045A1.07,1.07,0,0,1,433.291,118.839Z" transform="translate(-411.441 -117.794)" fill="#31313c"/>
              <path id="Trazado_99277" data-name="Trazado 99277" d="M441.738,118.839a1.094,1.094,0,1,1-1.093-1.045A1.07,1.07,0,0,1,441.738,118.839Z" transform="translate(-410.054 -117.794)" fill="#31313c"/>
              <path id="Trazado_99278" data-name="Trazado 99278" d="M450.184,118.839a1.094,1.094,0,1,1-1.092-1.045A1.07,1.07,0,0,1,450.184,118.839Z" transform="translate(-408.667 -117.794)" fill="#31313c"/>
              <path id="Trazado_99279" data-name="Trazado 99279" d="M458.63,118.839a1.094,1.094,0,1,1-1.092-1.045A1.07,1.07,0,0,1,458.63,118.839Z" transform="translate(-407.28 -117.794)" fill="#31313c"/>
              <path id="Trazado_99280" data-name="Trazado 99280" d="M467.077,118.839a1.094,1.094,0,1,1-1.093-1.045A1.071,1.071,0,0,1,467.077,118.839Z" transform="translate(-405.893 -117.794)" fill="#31313c"/>
              <path id="Trazado_99281" data-name="Trazado 99281" d="M475.523,118.839a1.094,1.094,0,1,1-1.092-1.045A1.07,1.07,0,0,1,475.523,118.839Z" transform="translate(-404.507 -117.794)" fill="#31313c"/>
              <path id="Trazado_99282" data-name="Trazado 99282" d="M483.969,118.839a1.094,1.094,0,1,1-1.092-1.045A1.07,1.07,0,0,1,483.969,118.839Z" transform="translate(-403.12 -117.794)" fill="#31313c"/>
              <path id="Trazado_99283" data-name="Trazado 99283" d="M492.416,118.839a1.094,1.094,0,1,1-1.093-1.045A1.071,1.071,0,0,1,492.416,118.839Z" transform="translate(-401.733 -117.794)" fill="#31313c"/>
              <path id="Trazado_99284" data-name="Trazado 99284" d="M500.862,118.839a1.094,1.094,0,1,1-1.093-1.045A1.07,1.07,0,0,1,500.862,118.839Z" transform="translate(-400.347 -117.794)" fill="#31313c"/>
            </g>
            <g id="Grupo_53316" data-name="Grupo 53316" transform="translate(0 83.587)">
              <ellipse id="Elipse_3980" data-name="Elipse 3980" cx="1.093" cy="1.045" rx="1.093" ry="1.045" transform="translate(0 0)" fill="#31313c"/>
              <path id="Trazado_99285" data-name="Trazado 99285" d="M424.845,126.347a1.094,1.094,0,1,1-1.092-1.045A1.069,1.069,0,0,1,424.845,126.347Z" transform="translate(-412.827 -125.302)" fill="#31313c"/>
              <ellipse id="Elipse_3981" data-name="Elipse 3981" cx="1.093" cy="1.045" rx="1.093" ry="1.045" transform="translate(19.666 0)" fill="#31313c"/>
              <path id="Trazado_99286" data-name="Trazado 99286" d="M441.738,126.347a1.094,1.094,0,1,1-1.093-1.045A1.069,1.069,0,0,1,441.738,126.347Z" transform="translate(-410.054 -125.302)" fill="#31313c"/>
              <path id="Trazado_99287" data-name="Trazado 99287" d="M450.184,126.347a1.094,1.094,0,1,1-1.092-1.045A1.069,1.069,0,0,1,450.184,126.347Z" transform="translate(-408.667 -125.302)" fill="#31313c"/>
              <ellipse id="Elipse_3982" data-name="Elipse 3982" cx="1.093" cy="1.045" rx="1.093" ry="1.045" transform="translate(49.165 0)" fill="#31313c"/>
              <path id="Trazado_99288" data-name="Trazado 99288" d="M467.077,126.347a1.094,1.094,0,1,1-1.093-1.045A1.07,1.07,0,0,1,467.077,126.347Z" transform="translate(-405.893 -125.302)" fill="#31313c"/>
              <ellipse id="Elipse_3983" data-name="Elipse 3983" cx="1.093" cy="1.045" rx="1.093" ry="1.045" transform="translate(68.831 0)" fill="#31313c"/>
              <ellipse id="Elipse_3984" data-name="Elipse 3984" cx="1.093" cy="1.045" rx="1.093" ry="1.045" transform="translate(78.664 0)" fill="#31313c"/>
              <path id="Trazado_99289" data-name="Trazado 99289" d="M492.416,126.347a1.094,1.094,0,1,1-1.093-1.045A1.07,1.07,0,0,1,492.416,126.347Z" transform="translate(-401.733 -125.302)" fill="#31313c"/>
              <path id="Trazado_99290" data-name="Trazado 99290" d="M500.862,126.347a1.094,1.094,0,1,1-1.093-1.045A1.069,1.069,0,0,1,500.862,126.347Z" transform="translate(-400.347 -125.302)" fill="#31313c"/>
            </g>
            <g id="Grupo_53317" data-name="Grupo 53317" transform="translate(0 91.947)">
              <ellipse id="Elipse_3985" data-name="Elipse 3985" cx="1.093" cy="1.045" rx="1.093" ry="1.045" transform="translate(0 0)" fill="#31313c"/>
              <path id="Trazado_99291" data-name="Trazado 99291" d="M424.845,133.855a1.094,1.094,0,1,1-1.092-1.045A1.069,1.069,0,0,1,424.845,133.855Z" transform="translate(-412.827 -132.81)" fill="#31313c"/>
              <ellipse id="Elipse_3986" data-name="Elipse 3986" cx="1.093" cy="1.045" rx="1.093" ry="1.045" transform="translate(19.666 0)" fill="#31313c"/>
              <path id="Trazado_99292" data-name="Trazado 99292" d="M441.738,133.855a1.094,1.094,0,1,1-1.093-1.045A1.069,1.069,0,0,1,441.738,133.855Z" transform="translate(-410.054 -132.81)" fill="#31313c"/>
              <path id="Trazado_99293" data-name="Trazado 99293" d="M450.184,133.855a1.094,1.094,0,1,1-1.092-1.045A1.069,1.069,0,0,1,450.184,133.855Z" transform="translate(-408.667 -132.81)" fill="#31313c"/>
              <ellipse id="Elipse_3987" data-name="Elipse 3987" cx="1.093" cy="1.045" rx="1.093" ry="1.045" transform="translate(49.165 0)" fill="#31313c"/>
              <path id="Trazado_99294" data-name="Trazado 99294" d="M467.077,133.855a1.094,1.094,0,1,1-1.093-1.045A1.07,1.07,0,0,1,467.077,133.855Z" transform="translate(-405.893 -132.81)" fill="#31313c"/>
              <ellipse id="Elipse_3988" data-name="Elipse 3988" cx="1.093" cy="1.045" rx="1.093" ry="1.045" transform="translate(68.831 0)" fill="#31313c"/>
              <ellipse id="Elipse_3989" data-name="Elipse 3989" cx="1.093" cy="1.045" rx="1.093" ry="1.045" transform="translate(78.664 0)" fill="#31313c"/>
              <path id="Trazado_99295" data-name="Trazado 99295" d="M492.416,133.855a1.094,1.094,0,1,1-1.093-1.045A1.07,1.07,0,0,1,492.416,133.855Z" transform="translate(-401.733 -132.81)" fill="#31313c"/>
              <path id="Trazado_99296" data-name="Trazado 99296" d="M500.862,133.855a1.094,1.094,0,1,1-1.093-1.045A1.069,1.069,0,0,1,500.862,133.855Z" transform="translate(-400.347 -132.81)" fill="#31313c"/>
            </g>
          </g>
        </g>
        <line id="Línea_138" data-name="Línea 138" y2="175" transform="translate(17.548 182.988)" fill="none" stroke="#31313c" stroke-linecap="round" stroke-width="4" stroke-dasharray="8"/>
      </g>
    </g>
    <g id="Grupo_158068" data-name="Grupo 158068" transform="translate(189 944)">
      <g id="Grupo_158073" data-name="Grupo 158073">
        <path id="Trazado_152591" data-name="Trazado 152591" d="M461.719,49.357h-126.3L322.1,90.921l-5.124,43.746a2.1,2.1,0,0,0,2.082,2.34h8.068s-1.169,17.118.386,17.118c2.1,0,9.958-17.118,9.958-17.118H451.944a2.1,2.1,0,0,0,2.082-1.852L463.8,51.7a2.1,2.1,0,0,0-2.082-2.34" transform="translate(24.185 3.766)" fill="#31313c"/>
        <path id="Trazado_152592" data-name="Trazado 152592" d="M447.943,56.656a3.229,3.229,0,1,1-3.229-3.229,3.229,3.229,0,0,1,3.229,3.229" transform="translate(33.687 4.077)" fill="#fff"/>
        <path id="Trazado_152593" data-name="Trazado 152593" d="M437.943,56.656a3.229,3.229,0,1,1-3.229-3.229,3.229,3.229,0,0,1,3.229,3.229" transform="translate(32.923 4.077)" fill="#fff"/>
        <path id="Trazado_152594" data-name="Trazado 152594" d="M437.971,134.405H339.382c1.485-7.792,2.971-15.122,3.735-17.877a72.418,72.418,0,0,1,3.8-11.28,36.014,36.014,0,0,1,5.1-8.309c7.114-8.557,16.188-11.538,25.013-12.722a122.785,122.785,0,0,1,21.365-.646c7.276.3,14.293,1.238,20.385,3.552A26.341,26.341,0,0,1,432.923,98.93c3.132,5.7,5.155,30.319,5.048,35.475" transform="translate(25.896 6.363)" fill="#ffeae0"/>
        <path id="Trazado_152595" data-name="Trazado 152595" d="M428.445,98.9A26.341,26.341,0,0,0,414.3,87.093,58.729,58.729,0,0,0,398.072,83.8a178.3,178.3,0,0,1,2.4,40.264c-.194,3.444-.5,6.888-.883,10.311h33.9c.108-5.177-1.927-29.76-5.048-35.475" transform="translate(30.374 6.394)" fill="#ccb16c"/>
        <path id="Trazado_152596" data-name="Trazado 152596" d="M382.273,83.659c-1.733.129-3.476.3-5.242.538-8.826,1.184-17.9,4.176-25.013,12.733a35.952,35.952,0,0,0-5.1,8.3,72.539,72.539,0,0,0-3.8,11.29c-.764,2.755-2.249,10.085-3.735,17.867h41.352c-.387-3.433-.689-6.856-.872-10.311a179.636,179.636,0,0,1,2.411-40.415" transform="translate(25.896 6.383)" fill="#ccb16c"/>
        <path id="Trazado_152597" data-name="Trazado 152597" d="M396.879,84.635s-3.969,3.425-7.784,3.425c-3.121,0-7.558-3.592-7.558-3.592l.99-14.991,13.766.31Z" transform="translate(29.112 5.301)" fill="#e0785e"/>
        <path id="Trazado_152598" data-name="Trazado 152598" d="M398.651,46.784c-2.917-3.823-7.41-5.768-12.127-4.42-9.082,2.595-11.732,15.117-10.007,23.365a31.788,31.788,0,0,0,7.146,14.309,7.608,7.608,0,0,0,11.714,0,31.788,31.788,0,0,0,7.146-14.309c.634-3.034,1.555-11.83-3.871-18.945" transform="translate(28.692 3.2)" fill="#e0785e"/>
        <path id="Trazado_152599" data-name="Trazado 152599" d="M383.553,62.091a5.365,5.365,0,1,1-6.637-3.676,5.365,5.365,0,0,1,6.637,3.676" transform="translate(28.463 4.441)" fill="#e0785e"/>
        <path id="Trazado_152600" data-name="Trazado 152600" d="M378.577,57.354s.354,7.3,0,8.192-1.562.633-1.819-.4-1.118-7.552-1.118-7.552Z" transform="translate(28.662 4.376)" fill="#2b244a"/>
        <path id="Trazado_152601" data-name="Trazado 152601" d="M404.814,62.091a5.365,5.365,0,1,1-6.636-3.676,5.365,5.365,0,0,1,6.636,3.676" transform="translate(30.086 4.441)" fill="#e0785e"/>
        <path id="Trazado_152602" data-name="Trazado 152602" d="M398.764,56.576s-.354,8.133,0,9.029,1.562.633,1.819-.4,1.118-7.551,1.118-7.551Z" transform="translate(30.415 4.317)" fill="#2b244a"/>
        <path id="Trazado_152603" data-name="Trazado 152603" d="M390.366,58.916c.477,1.658,2.012.484,3.938,1.052,1.772.521,2.994.386,3.051-.564.07-1.147-1.583-2.541-4.153-2.609-2.407-.063-3.184.913-2.836,2.121" transform="translate(29.78 4.333)" fill="#2b244a"/>
        <path id="Trazado_152604" data-name="Trazado 152604" d="M386.634,57.792c-.132,1.72-1.872.88-3.645,1.824-1.629.868-2.854.983-3.1.063-.3-1.11,1.038-2.808,3.541-3.394,2.345-.548,3.3.252,3.206,1.506" transform="translate(28.983 4.281)" fill="#2b244a"/>
        <path id="Trazado_152605" data-name="Trazado 152605" d="M384.712,61.191a1.252,1.252,0,0,0-1.034-.613,1.184,1.184,0,0,0-1.024.841,4.114,4.114,0,0,0-.2,1.455,2.622,2.622,0,0,0,.471,1.634,1.1,1.1,0,0,0,1.88-.4,3.634,3.634,0,0,0-.1-2.912" transform="translate(29.183 4.622)" fill="#2b244a"/>
        <path id="Trazado_152606" data-name="Trazado 152606" d="M386.631,70.2a.374.374,0,0,0-.185.626,3.79,3.79,0,0,0,2.658,1.435,3.523,3.523,0,0,0,3.325-2.826.377.377,0,0,0-.458-.469c-1.939.479-3.691.866-5.34,1.235" transform="translate(29.479 5.262)" fill="#fff"/>
        <path id="Trazado_152607" data-name="Trazado 152607" d="M387.782,61.853q-.45,1.542-.9,3.083a2.206,2.206,0,0,0-.058,1.452,3.336,3.336,0,0,0,.835,1.139c.5.486,1.256-.274.761-.761a1.989,1.989,0,0,1-.61-.814,2.324,2.324,0,0,1,.223-1.115l.789-2.7a.538.538,0,0,0-1.038-.286" transform="translate(29.508 4.691)" fill="#2b244a"/>
        <path id="Trazado_152608" data-name="Trazado 152608" d="M388.914,80.895a7.431,7.431,0,0,0,4.349-1.462,13.653,13.653,0,0,0,2.867-3,.541.541,0,0,0-.193-.736.551.551,0,0,0-.736.193c-1.532,2.084-3.561,3.909-6.288,3.931a.538.538,0,0,0,0,1.076" transform="translate(29.636 5.77)" fill="#2b244a"/>
        <path id="Trazado_152609" data-name="Trazado 152609" d="M404.653,48.123a3.69,3.69,0,0,0-2.874-2.948,7.884,7.884,0,0,0-3.43.34c-1.63-2.929-3.324-6.273-6.714-7.364-2.542-.818-6.5-.178-7.084,2.81a15.846,15.846,0,0,0-6.619,1.226c-1.663.736-3.6,2.005-4.324,3.756-.631,1.538.191,2.751,1.281,3.7a14.47,14.47,0,0,0-2.811,1.337,6.761,6.761,0,0,0-2.626,2.492c-1.11,2.2.722,3.879,2.65,4.568a4.463,4.463,0,0,0,3.152,2.6A5.257,5.257,0,0,0,379.6,59.6c1.7-1.12,3.127-2.587,4.717-3.847.767-.608,1.989-1.7,3.029-1.392.512.154.963.451,1.49.579a5.377,5.377,0,0,0,1.669.132c2.293-.175,4.125-1.527,5.8-2.985a14.68,14.68,0,0,0,2.442,4.538,12.984,12.984,0,0,0,5.044,3.619s1.915-8.326.862-12.121" transform="translate(28.165 2.886)" fill="#2b244a"/>
        <path id="Trazado_152610" data-name="Trazado 152610" d="M374.432,48.628a3.151,3.151,0,0,0,2.069,2.823,4.216,4.216,0,0,0,2.132.215,6.2,6.2,0,0,0,1.133-.259c.195-.065.385-.138.575-.216.028-.012.383-.2.372-.2.1.027.407.648.5.761a4.4,4.4,0,0,0,.593.609,5.041,5.041,0,0,0,1.51.876,4.8,4.8,0,0,0,3.6-.1c.635-.271.087-1.2-.544-.929a3.721,3.721,0,0,1-2.926-.07,3.777,3.777,0,0,1-1.268-.907c-.313-.345-.471-.881-.867-1.139-.484-.313-.964-.043-1.438.143a5.194,5.194,0,0,1-1.935.411,2.273,2.273,0,0,1-2.422-2.013.538.538,0,0,0-1.076,0" transform="translate(28.57 3.671)" fill="#8c75b5"/>
        <path id="Trazado_152611" data-name="Trazado 152611" d="M394.794,51.624a15.71,15.71,0,0,0,2.016-6.4.543.543,0,0,0-.538-.538.55.55,0,0,0-.538.538,14.453,14.453,0,0,1-1.868,5.855.538.538,0,0,0,.929.544" transform="translate(30.047 3.41)" fill="#8c75b5"/>
        <path id="Trazado_152612" data-name="Trazado 152612" d="M383.707,41.509a34.038,34.038,0,0,1,5.784,1.031.538.538,0,0,0,.285-1.038,35.7,35.7,0,0,0-6.069-1.07.543.543,0,0,0-.538.538.55.55,0,0,0,.538.538" transform="translate(29.237 3.085)" fill="#8c75b5"/>
        <path id="Trazado_152613" data-name="Trazado 152613" d="M361.341,118.221a99.093,99.093,0,0,0-.324,13.281c.03.69,1.106.693,1.076,0a99.088,99.088,0,0,1,.324-13.281c.064-.69-1.014-.686-1.076,0" transform="translate(27.54 8.981)" fill="#2b244a"/>
        <path id="Trazado_152614" data-name="Trazado 152614" d="M411.415,118.221a99.1,99.1,0,0,1,.324,13.281c-.03.692,1.046.691,1.076,0a99.1,99.1,0,0,0-.324-13.281c-.062-.685-1.14-.691-1.076,0" transform="translate(31.392 8.981)" fill="#2b244a"/>
        <path id="Trazado_152615" data-name="Trazado 152615" d="M378.53,86.953a15.3,15.3,0,0,0,21.69.265c.5-.483-.264-1.243-.761-.761a14.225,14.225,0,0,1-20.168-.265c-.484-.5-1.245.265-.761.761" transform="translate(28.871 6.564)" fill="#2b244a"/>
        <path id="Trazado_152616" data-name="Trazado 152616" d="M401.3,106.619a44.061,44.061,0,0,0,4.692-21.277c-.023-.691-1.1-.694-1.076,0a42.927,42.927,0,0,1-4.544,20.734c-.311.618.617,1.162.929.544" transform="translate(30.544 6.472)" fill="#2b244a"/>
        <path id="Trazado_152617" data-name="Trazado 152617" d="M377.179,105.566a42.918,42.918,0,0,1-4.545-20.734c.024-.693-1.053-.692-1.076,0a44.065,44.065,0,0,0,4.693,21.277c.311.619,1.24.074.929-.544" transform="translate(28.349 6.433)" fill="#2b244a"/>
        <path id="Trazado_152618" data-name="Trazado 152618" d="M392.109,63.256a2.209,2.209,0,0,1,.161-.171c.026-.025.052-.047.077-.071.066-.058-.055.039.015-.013a1.988,1.988,0,0,1,.2-.128l.093-.051s.127-.059.079-.039.048-.017.057-.02c.042-.014.083-.028.125-.04.068-.019.136-.034.2-.047.04-.009.07-.01.012,0,.044,0,.087-.008.131-.01.079,0,.156,0,.236,0,.043,0,.066.006.009,0l.1.018a1.962,1.962,0,0,1,.221.059l.1.033c.085.032-.107-.055.036.016.061.031.122.062.18.1.037.023.072.045.108.07.008,0,.087.063.048.033s.038.032.044.038q.048.042.094.087c.048.048.094.1.139.151-.048-.057,0,.006.024.033s.046.07.069.107a.539.539,0,1,0,.93-.544,2.708,2.708,0,0,0-2.047-1.269,2.64,2.64,0,0,0-2.2.9.538.538,0,0,0,.761.761" transform="translate(29.849 4.699)" fill="#2b244a"/>
        <path id="Trazado_152619" data-name="Trazado 152619" d="M154.56,239.429a5.632,5.632,0,0,1,4.578,2.188,11.089,11.089,0,0,1,1.708,5.313q.6,4.27,1.194,8.542,1.377,9.848,2.761,19.7,3.282,23.376,6.576,46.75,3.6,25.586,7.21,51.17,3.457,24.541,6.91,49.083,2.806,19.956,5.6,39.916.283,2.033.566,4.064c.1.683,1.133.393,1.039-.286q-2.732-19.588-5.489-39.174-3.439-24.464-6.887-48.928-3.654-25.938-7.309-51.877-3.376-23.962-6.743-47.923-1.422-10.132-2.841-20.265-.631-4.5-1.259-9.009c-.446-3.19-.65-6.845-3.417-8.981a6.914,6.914,0,0,0-4.192-1.355.538.538,0,0,0,0,1.076" transform="translate(11.754 18.187)" fill="#2b244a"/>
        <path id="Trazado_152620" data-name="Trazado 152620" d="M99.517,238.353c-3.739.058-6.192,2.651-6.991,6.186-.635,2.815-.847,5.785-1.246,8.643q-1.369,9.8-2.745,19.592-3.3,23.49-6.607,46.978-3.645,25.885-7.294,51.767-3.5,24.824-6.991,49.65-2.856,20.315-5.7,40.632-.284,2.033-.567,4.064c-.093.678.944.971,1.039.286q2.691-19.309,5.411-38.616,3.387-24.105,6.785-48.211,3.61-25.626,7.222-51.254,3.365-23.891,6.724-47.784,1.427-10.158,2.85-20.316.63-4.5,1.258-9c.422-3.018.392-6.841,2.273-9.357a5.628,5.628,0,0,1,4.578-2.188.538.538,0,0,0,0-1.076" transform="translate(4.683 18.187)" fill="#2b244a"/>
        <path id="Trazado_152621" data-name="Trazado 152621" d="M70.466,240.556H412.821a2.676,2.676,0,1,0,0-5.351H70.466a2.676,2.676,0,1,0,0,5.351" transform="translate(5.173 17.947)" fill="#b06641"/>
        <path id="Trazado_152622" data-name="Trazado 152622" d="M285.085,235.357a5.725,5.725,0,0,0,.079,5.064.538.538,0,1,0,.929-.544,4.578,4.578,0,0,1-.079-3.977.552.552,0,0,0-.193-.736.543.543,0,0,0-.736.193" transform="translate(21.711 17.938)" fill="#2b244a"/>
        <path id="Trazado_152623" data-name="Trazado 152623" d="M383.208,166.349H297.749a2.455,2.455,0,0,0-2.276,1.536l-29.3,72.577h90.753l28.555-70.74a2.454,2.454,0,0,0-2.276-3.373" transform="translate(20.31 12.693)" fill="#dec6bd"/>
        <path id="Trazado_152624" data-name="Trazado 152624" d="M378.309,172.449,353.1,234.907H268.085l25.207-62.458Z" transform="translate(20.456 13.158)" fill="#31313c"/>
        <path id="Trazado_152625" data-name="Trazado 152625" d="M291.226,230.661H234.68a2.625,2.625,0,0,0-2.625,2.626v2.268h59.171Z" transform="translate(17.706 17.6)" fill="#dec6bd"/>
        <path id="Trazado_152626" data-name="Trazado 152626" d="M296.374,235.07a5.043,5.043,0,0,1,1.731-3.987.541.541,0,0,0,0-.761.552.552,0,0,0-.761,0,5.224,5.224,0,0,0-1.538,2.168,6.453,6.453,0,0,0-.508,2.58.538.538,0,0,0,1.076,0" transform="translate(22.532 17.563)" fill="#2b244a"/>
        <path id="Trazado_152627" data-name="Trazado 152627" d="M345.01,235.108a5.029,5.029,0,0,1,2.071-4.12.554.554,0,0,0,.193-.736.541.541,0,0,0-.736-.193,6.136,6.136,0,0,0-2.6,5.049.538.538,0,0,0,1.076,0" transform="translate(26.243 17.548)" fill="#2b244a"/>
        <path id="Trazado_152628" data-name="Trazado 152628" d="M347.34,235.524q5.389-13.224,10.777-26.449l11.4-27.968q1.469-3.6,2.937-7.209l1.35-3.311c.523-1.285,1.3-3.127,2.921-3.2.69-.029.693-1.105,0-1.076-2.6.111-3.529,2.933-4.354,4.955l-2.593,6.361-5.67,13.916q-5.906,14.495-11.812,28.99-3,7.351-5.991,14.7c-.262.641.779.92,1.038.286" transform="translate(26.421 12.69)" fill="#2b244a"/>
        <path id="Trazado_152629" data-name="Trazado 152629" d="M326.106,170.44h9.934a.538.538,0,0,0,0-1.076h-9.934a.538.538,0,0,0,0,1.076" transform="translate(24.843 12.923)" fill="#2b244a"/>
        <path id="Trazado_152630" data-name="Trazado 152630" d="M323.457,169.364h-.579a.517.517,0,0,0-.492.33.4.4,0,0,0-.046.208c.005.047.012.1.018.143a.544.544,0,0,0,.139.238.563.563,0,0,0,.381.157h.579a.406.406,0,0,0,.208-.046.479.479,0,0,0,.284-.284A.406.406,0,0,0,324,169.9l-.019-.143a.552.552,0,0,0-.138-.238.565.565,0,0,0-.381-.157" transform="translate(24.595 12.923)" fill="#2b244a"/>
        <path id="Trazado_152631" data-name="Trazado 152631" d="M260.873,430.34l-2.667-11.954,26.462-17.422,6.1,30.514a118.144,118.144,0,0,1-11.748,3.824c-9.976,2.7-18.142-4.962-18.142-4.962" transform="translate(19.702 30.595)" fill="#ffa58f"/>
        <path id="Trazado_152632" data-name="Trazado 152632" d="M260.684,428.509,264,452.25h44.15s1.459-11.387-5.785-14.579a40.358,40.358,0,0,1-11.8-8.025,39.364,39.364,0,0,1-13.9-3.411,15.437,15.437,0,0,0-15.987,2.273" transform="translate(19.891 32.426)" fill="#f0d3c5"/>
        <path id="Trazado_152633" data-name="Trazado 152633" d="M262.08,436.067c6.652.75,13.43-2.344,16.275-8.585.285-.625-.641-1.173-.929-.542a13.52,13.52,0,0,1-6.767,6.79,16.43,16.43,0,0,1-8.579,1.26c-.687-.077-.681,1,0,1.076" transform="translate(19.958 32.555)" fill="#2b244a"/>
        <path id="Trazado_152634" data-name="Trazado 152634" d="M287.886,379.507c-4.1-16.62-8.121-33.266-12.824-49.728a406.1,406.1,0,0,0-15.584-45.364,496.679,496.679,0,0,0-28.594,58.9q2.686,9.206,5.5,18.376,7.475,24.306,15.845,48.325,3.4,9.745,6.963,19.43c14.646-1.846,27.566-4,40.083-6.719-4.357-14.765-7.7-28.276-11.384-43.22" transform="translate(17.617 21.702)" fill="#785549"/>
        <path id="Trazado_152635" data-name="Trazado 152635" d="M169.627,400.142l4.285-8.634,32.4,3.305-14.541,23.751a19.187,19.187,0,0,1-12.574-.835c-9.437-4.213-9.569-17.587-9.569-17.587" transform="translate(12.943 29.873)" fill="#ffa58f"/>
        <path id="Trazado_152636" data-name="Trazado 152636" d="M158.425,422.005s-1.475,4.125,3.636,10.2c5.378,6.394,14.507,14.923,23.319,22.006h34s-.221-12.581-11.54-16.456l-13.045-23.3s-2.527-.9-6.294-1.8c-3.652-.87-5.773-3.931-8.5-9.87-1.456-3.169-4.892-4.125-9.5-3.231Z" transform="translate(12.073 30.463)" fill="#f0d3c5"/>
        <path id="Trazado_152637" data-name="Trazado 152637" d="M166.7,406.523a20.339,20.339,0,0,0,7.93.1,11.237,11.237,0,0,0,5.179-2.263c.527-.451-.237-1.21-.761-.761a10.244,10.244,0,0,1-4.7,1.987,18.963,18.963,0,0,1-7.359-.1c-.677-.137-.965.9-.286,1.038" transform="translate(12.69 30.785)" fill="#2b244a"/>
        <path id="Trazado_152638" data-name="Trazado 152638" d="M160.1,419.109a9.092,9.092,0,0,1,6.628-1.147,12.266,12.266,0,0,1,5.865,3.348c3.7,3.506,6.244,8.057,9.11,12.218,2.636,3.828,5.636,7.547,9.623,10.041a18.218,18.218,0,0,0,6.459,2.491,72.056,72.056,0,0,0,7.825.666,21.321,21.321,0,0,1,6.969,1.567,12.454,12.454,0,0,1,5.444,3.989c.4.563,1.328.025.929-.544-2.328-3.32-6.667-5.135-10.549-5.792-2.522-.426-5.1-.379-7.648-.591a19.774,19.774,0,0,1-7.593-1.976c-9.366-4.872-12.478-15.878-19.807-22.831a13.271,13.271,0,0,0-6.435-3.644,10.2,10.2,0,0,0-7.362,1.275c-.585.367-.045,1.3.544.929" transform="translate(12.155 31.796)" fill="#2b244a"/>
        <path id="Trazado_152639" data-name="Trazado 152639" d="M162.839,414.253a7.939,7.939,0,0,1,6.468-.395,10.783,10.783,0,0,1,4.969,3.524,120.194,120.194,0,0,1,8.186,11.336,42.006,42.006,0,0,0,8.38,9.5,18.753,18.753,0,0,0,5.132,2.949,24.268,24.268,0,0,0,6.715,1.186,45.292,45.292,0,0,1,7.615.716,16.158,16.158,0,0,1,6.217,3.2c.537.426,1.3-.33.761-.761a18.363,18.363,0,0,0-5.342-3.084,23.283,23.283,0,0,0-6.385-.989,43.879,43.879,0,0,1-7.386-.753,16.341,16.341,0,0,1-5.892-2.722c-3.63-2.6-6.455-6.233-8.956-9.885a117.984,117.984,0,0,0-8.355-11.532,11.7,11.7,0,0,0-5.608-3.792,8.891,8.891,0,0,0-7.064.575.538.538,0,0,0,.544.929" transform="translate(12.364 31.459)" fill="#2b244a"/>
        <path id="Trazado_152640" data-name="Trazado 152640" d="M274.176,267.892c-1.944-6.669-7.828-12.965-13.759-16.324-7.359-4.169-15.828-5.679-24.034-7.24-9.316-1.774-41.553-6.782-50.105-8.14-2.843,2.266-10.921,1.059-12.2,5.289-1.308,4.332-22.088-3.266-21.51,1.288.528,4.157-26.837,5.882-27.1,10.045-1.674,26.161,9.707,37.363,51.065,46.52,5.058,1.12,34.261,7.816,39.814,9.914-5.835,13.377-37.722,88.341-39.932,94.857a101.87,101.87,0,0,1,26.97,13.2l-3.635,5.608c10.6,6.023,14.192,2.756,14.192,2.756,7.138-14.507,11.625-24.362,18.126-38.314,7.23-15.517,34.225-82.565,39.723-95.1,5.307-12.1,3.575-20.275,2.386-24.357" transform="translate(9.561 18.022)" fill="#785549"/>
        <path id="Trazado_152641" data-name="Trazado 152641" d="M177.954,245.952c14.4,3.363,28.821,6.647,43.146,10.327q5.776,1.485,11.536,3.046a81.281,81.281,0,0,1,10.6,3.261c5.04,2.141,9.7,5.531,12.47,10.339a21.344,21.344,0,0,1,2.054,15.329,59.773,59.773,0,0,1-3.615,9.938q-2.507,6.025-5.046,12.036-9.984,23.645-20.309,47.144-10.268,23.508-20.564,47-1.274,2.922-2.543,5.846c-.273.629.653,1.177.929.544q10.465-24.088,21.043-48.126,10.408-23.8,20.6-47.683,2.5-5.9,4.977-11.81c1.6-3.825,3.407-7.633,4.721-11.568a24.185,24.185,0,0,0,.178-16,23.612,23.612,0,0,0-10-11.68,36.115,36.115,0,0,0-8.4-3.721c-3.972-1.215-8.018-2.226-12.033-3.288-14.541-3.849-29.187-7.26-43.837-10.665q-2.812-.654-5.625-1.31c-.674-.157-.961.879-.286,1.038" transform="translate(13.549 18.686)" fill="#392720"/>
        <path id="Trazado_152642" data-name="Trazado 152642" d="M175.975,385.364c10.507,3.837,20.681,8.5,29.844,14.972,2.595,1.833,5.1,3.788,7.53,5.833.526.443,1.292-.314.761-.761a109.674,109.674,0,0,0-13.6-9.843,116.154,116.154,0,0,0-14.724-7.49c-3.137-1.342-6.319-2.579-9.523-3.749-.652-.238-.933.8-.286,1.038" transform="translate(13.399 29.322)" fill="#392720"/>
        <path id="Trazado_152643" data-name="Trazado 152643" d="M263.806,445.263h43.41a.538.538,0,0,0,0-1.076h-43.41a.538.538,0,0,0,0,1.076" transform="translate(20.089 33.893)" fill="#2b244a"/>
        <path id="Trazado_152644" data-name="Trazado 152644" d="M235.847,357.372q5.071-12.7,10.285-25.35,5.218-12.714,10.453-25.418,2.988-7.284,5.945-14.58c.259-.643-.781-.921-1.039-.286q-5.208,12.864-10.511,25.688-5.21,12.656-10.391,25.324-2.912,7.158-5.781,14.335c-.257.644.784.922,1.038.286" transform="translate(17.914 22.233)" fill="#392720"/>
        <path id="Trazado_152645" data-name="Trazado 152645" d="M254.759,411.8c10.5-1.133,20.923-2.979,31.275-5.052q4.188-.84,8.362-1.737c.677-.145.391-1.183-.286-1.038-10.165,2.182-20.385,4.161-30.677,5.648q-4.327.625-8.674,1.1c-.681.073-.689,1.151,0,1.076" transform="translate(19.4 30.824)" fill="#392720"/>
        <path id="Trazado_152646" data-name="Trazado 152646" d="M255.029,303.247q2.93,10.194,5.841,20.393,3.226,11.285,6.446,22.572,3.314,11.608,6.638,23.213,3.2,11.159,6.415,22.312,2.87,9.942,5.779,19.872.325,1.1.649,2.205a.539.539,0,0,0,1.038-.286q-2.862-9.724-5.672-19.464-3.2-11.043-6.359-22.094-3.324-11.59-6.632-23.185-3.247-11.367-6.492-22.735-2.964-10.373-5.938-20.745-.336-1.172-.674-2.344a.538.538,0,0,0-1.038.286" transform="translate(19.458 23.088)" fill="#392720"/>
        <path id="Trazado_152647" data-name="Trazado 152647" d="M130.2,95.38c-.586-11.61,8.681-15.6,19.551-14.765s14.229,4.871,17.187,13.722,5.667,19.46,5.906,22.418c.3,3.676-2.154,9.84-10.543,8.636a41.094,41.094,0,0,1-19.236-8.3c-3.185-2.426-12.278-10.1-12.865-21.714" transform="translate(9.932 6.143)" fill="#ffa58f"/>
        <path id="Trazado_152648" data-name="Trazado 152648" d="M165.227,96.779s3.08,2.506,4.65,4.022c.894.864.737,1.616.266,2.122a31.549,31.549,0,0,1-2.676,2.372l-3.939-2.656Z" transform="translate(12.478 7.385)" fill="#ffa58f"/>
        <rect id="Rectángulo_35114" data-name="Rectángulo 35114" width="31.285" height="19.25" transform="translate(143.793 142.131) rotate(-80.084)" fill="#ffa58f"/>
        <path id="Trazado_152649" data-name="Trazado 152649" d="M.174,136.248c-.888,2.342,1.815,4.342,3.339,5.6,4.227,3.479,19.4,17.122,22.753,21.224,3.272,4.009,15.644,21.246,17.98,26.514a2.659,2.659,0,0,1,.643.851c5.006,1.731,9.72-1.574,13.712-4.18l7.069-4.615a24.069,24.069,0,0,0,5.052-3.949.551.551,0,0,0,.711-.76c-.019-.039-.042-.076-.062-.114a.609.609,0,0,0-.4-.71A204.516,204.516,0,0,0,57.5,155.029c-5.86-8.06-25.088-33.347-25.605-33.651a2.314,2.314,0,0,0-3.3,1.282c-.76,2.521-.131,5.53.675,8.065-2.094-1.191-4.233-2.313-6.423-3.34A72.007,72.007,0,0,0,12.5,123.273a2.75,2.75,0,0,0-3.424,1.166,3.423,3.423,0,0,0,.344,3.663,17.582,17.582,0,0,0,3.77,3.677,3.419,3.419,0,0,0,.6.394c-.944-.45-1.885-.9-2.834-1.343q-1.8-.833-3.617-1.652A16.468,16.468,0,0,0,4.6,128.088a3.544,3.544,0,0,0-4.115,2.506c-.3,1.465.662,2.848,1.688,4a2.969,2.969,0,0,0-1.994,1.65" transform="translate(0 9.239)" fill="#ffa58f"/>
        <path id="Trazado_152650" data-name="Trazado 152650" d="M34.386,136.282c-1.083-1.227-2.176-2.449-3.366-3.575s-2.468-2.153-3.751-3.168a.555.555,0,0,0-.761,0,.54.54,0,0,0,0,.761c1.283,1.015,2.562,2.042,3.751,3.168s2.283,2.348,3.366,3.575c.46.521,1.218-.243.761-.761" transform="translate(2.011 9.873)" fill="#2b244a"/>
        <path id="Trazado_152651" data-name="Trazado 152651" d="M25.088,140.025q-6.537-4.709-12.89-9.665c-.539-.422-1.307.335-.761.761q6.459,5.042,13.107,9.833c.563.406,1.1-.527.544-.929" transform="translate(0.858 9.937)" fill="#2b244a"/>
        <path id="Trazado_152652" data-name="Trazado 152652" d="M19.945,145.45,2.6,133.4c-.569-.4-1.108.536-.542.929L19.4,146.379c.57.4,1.109-.536.544-.929" transform="translate(0.139 10.171)" fill="#2b244a"/>
        <path id="Trazado_152653" data-name="Trazado 152653" d="M313.988,126.584c1.117-1.067,2.19-2.366,2.014-3.85a3.545,3.545,0,0,0-3.892-2.839,16.416,16.416,0,0,0-2.82.859q-1.874.665-3.741,1.346c-.983.357-1.959.733-2.936,1.1a3.472,3.472,0,0,0,.626-.342,17.586,17.586,0,0,0,4.063-3.352,3.422,3.422,0,0,0,.647-3.622,2.75,2.75,0,0,0-3.315-1.445,71.979,71.979,0,0,0-10.651,3.24c-2.268.843-4.491,1.781-6.678,2.8,1.014-2.459,1.89-5.406,1.342-7.982a2.315,2.315,0,0,0-3.181-1.551c-.54.259-21.8,23.864-28.309,31.41a204.327,204.327,0,0,0-15.182,19.884.608.608,0,0,0-.453.675l-.072.109a.552.552,0,0,0,.646.817,24.012,24.012,0,0,0,4.709,4.354l6.66,5.187c3.763,2.929,8.185,6.613,13.318,5.3a2.645,2.645,0,0,1,.711-.794c2.764-5.055,16.363-22.321,19.957-26.045,3.678-3.81,20.1-15.032,24.6-18.146,1.624-1.125,4.482-2.893,3.792-5.3a2.967,2.967,0,0,0-1.85-1.81" transform="translate(18.416 8.45)" fill="#ffa58f"/>
        <path id="Trazado_152654" data-name="Trazado 152654" d="M276.093,137.571c-8.149,6.484-38.39,33.193-40.286,34.953-1.518-1.844-32.753-26.82-35.287-29.066-10.145-8.991-20.75-12.636-34.706-13.594-14.146-.971-10.242-1.593-24.31.187-11.485,1.452-22.8,4.485-31.1,13.066-5.371,5.552-30.345,32.5-29.529,33.2-6.138-5.282-27.194-24.4-28.622-25.971C48.284,155.241,33.9,171.63,30.33,176c3.247,4.538,18.881,25.292,26.684,35.473a93.058,93.058,0,0,0,18.117,17.348c11.032,8.341,21.782,4.72,25.682,3.495a32.094,32.094,0,0,0,12.736-8.107q1.329,4.275,3.049,8.42c2.915,6.976,6.591,14.015,12.4,19.028,5.679,4.9,12.974,7.09,20.345,7.665,7.914.618,15.968-.4,23.732-1.9,5.163-1,4.508-7.644,9.506-9.281,5.92.987,12.421.793,15.935-2.98a79.27,79.27,0,0,0,3.018-11.506,63.558,63.558,0,0,0,.16-15.006q-.58-7.72-1.172-15.442l-.184-2.436a108.355,108.355,0,0,0,12.292,15.062c5.817,5.936,13.124,11.624,21.627,12.68a19.141,19.141,0,0,0,11.7-2.3c6.4-3.575,10.408-9.863,14.7-15.567,10.357-13.318,20.609-26.665,30.669-40.211-3.528-8.73-11.964-26.55-15.24-32.863" transform="translate(2.314 9.837)" fill="#ebc9b1"/>
        <path id="Trazado_152655" data-name="Trazado 152655" d="M105.116,187.259a191.8,191.8,0,0,1,2.392-25.345c.111-.677-.927-.969-1.038-.286a193.749,193.749,0,0,0-2.43,25.631.538.538,0,0,0,1.076,0" transform="translate(7.939 12.303)" fill="#2b244a"/>
        <path id="Trazado_152656" data-name="Trazado 152656" d="M277.712,126.2c1.17-1.122,2.349-2.239,3.613-3.254s2.592-1.9,3.93-2.792c.575-.381.037-1.314-.542-.929-1.389.922-2.77,1.859-4.074,2.9s-2.495,2.17-3.687,3.314c-.5.48.26,1.241.761.761" transform="translate(21.12 9.091)" fill="#2b244a"/>
        <path id="Trazado_152657" data-name="Trazado 152657" d="M286.876,130.867q6.963-4.186,13.763-8.637c.577-.378.039-1.31-.544-.93q-6.8,4.451-13.763,8.638a.538.538,0,0,0,.544.929" transform="translate(21.828 9.249)" fill="#2b244a"/>
        <path id="Trazado_152658" data-name="Trazado 152658" d="M291.867,136.695l18.286-10.569a.539.539,0,0,0-.543-.93l-18.286,10.569a.539.539,0,0,0,.544.93" transform="translate(22.209 9.547)" fill="#2b244a"/>
        <path id="Trazado_152659" data-name="Trazado 152659" d="M71.8,196.836a88.053,88.053,0,0,1,6.178-23.524c.266-.638-.775-.917-1.039-.286a89.037,89.037,0,0,0-6.216,23.81c-.081.687,1,.68,1.076,0" transform="translate(5.396 13.175)" fill="#2b244a"/>
        <path id="Trazado_152660" data-name="Trazado 152660" d="M220.662,169.741a114.389,114.389,0,0,1,11.75,24.3c.224.651,1.265.371,1.038-.286A115.512,115.512,0,0,0,221.591,169.2c-.371-.582-1.3-.043-.929.544" transform="translate(16.83 12.891)" fill="#2b244a"/>
        <path id="Trazado_152661" data-name="Trazado 152661" d="M173.258,170.092a311.974,311.974,0,0,0,14.749,27.975.539.539,0,0,0,.93-.544,311.837,311.837,0,0,1-14.75-27.975c-.291-.627-1.218-.082-.929.544" transform="translate(13.216 12.916)" fill="#2b244a"/>
        <path id="Trazado_152662" data-name="Trazado 152662" d="M35.912,181l17.682-20.282,4.656-5.342c.453-.52-.3-1.284-.761-.761L39.807,174.9l-4.656,5.342c-.453.52.3,1.284.761.761" transform="translate(2.671 11.784)" fill="#2b244a"/>
        <path id="Trazado_152663" data-name="Trazado 152663" d="M252.468,142.738q6.206,13.277,12.042,26.722,1.663,3.833,3.295,7.678c.27.636,1.2.088.93-.542q-5.728-13.49-11.827-26.818-1.74-3.8-3.51-7.584c-.293-.626-1.221-.081-.929.544" transform="translate(19.26 10.829)" fill="#2b244a"/>
        <path id="Trazado_152664" data-name="Trazado 152664" d="M130.939,106.33a16.043,16.043,0,0,0,8.943,8.085c3.291,1.148,5.109,1.124,10.856-.047,4.812-.981,9.326-7.619,10.013-11.6a19.757,19.757,0,0,0,.263-3.29,40.8,40.8,0,0,0,3.384-5.547c1.213-2.9,1.372-5.488-.78-8.059-.147-.175-.486-.657-.753-.963a14.786,14.786,0,0,0-2.7-2.45,19.215,19.215,0,0,0-3.7-2.131,22.654,22.654,0,0,0-8.367-1.861c-7.627-.238-16.111,3.145-18.826,10.805-2.025,5.715-.819,11.74,1.671,17.062" transform="translate(9.785 5.986)" fill="#31313c"/>
        <path id="Trazado_152665" data-name="Trazado 152665" d="M172.293,122.306a11.355,11.355,0,0,0-1.958-4.819c-2.51-3.451-6.2-5.6-9.91-7.516-.592-.306-6.406-4.846-6.358-5.143l-2.088,6.509L134.9,95.12c.453.431-.513,3.832-.654,4.443a29.231,29.231,0,0,1-1.426,4.508,29.6,29.6,0,0,1-5.051,8.236c-2.011,2.315-4.744,3.79-6.7,6.082a11.809,11.809,0,0,0-2.844,8.353c.269,3.929,3,8.338,6.781,9.753,2.254.845,3.988.2,6.043-.734,4.172-1.9,8.48-.4,12.062,2.042a13.61,13.61,0,0,0,9.284,2.411c3.331-.443,4.259-3,6.995-4.316,1.468-.706,3.2-.434,4.814-.639,6.248-.8,9.038-7.294,8.095-12.952" transform="translate(9.019 7.258)" fill="#31313c"/>
        <path id="Trazado_152666" data-name="Trazado 152666" d="M141.787,136.64c-1.23-4.282-.593-9.8,2.37-13.272,1.585-1.858,3.648-3.279,4.99-5.349,1.508-2.327,1.495-5.1,1.928-7.744a11.768,11.768,0,0,1,4.33-7.475c.542-.428-.223-1.186-.762-.761a12.45,12.45,0,0,0-4.265,6.371c-.775,2.762-.42,5.856-1.792,8.444-1.23,2.318-3.517,3.793-5.189,5.754a13.837,13.837,0,0,0-2.891,6.3,17.1,17.1,0,0,0,.244,8.017.538.538,0,0,0,1.038-.286" transform="translate(10.693 7.776)" fill="#8c75b5"/>
        <path id="Trazado_152667" data-name="Trazado 152667" d="M155.814,109.283a34.99,34.99,0,0,1,2.051,7.007c.411,2.282.41,4.622.868,6.894a20.915,20.915,0,0,0,5.421,9.76c.477.5,1.237-.258.761-.761a19.563,19.563,0,0,1-5.215-9.672c-.382-2.24-.424-4.518-.844-6.755A34.817,34.817,0,0,0,156.852,109c-.258-.633-1.3-.355-1.038.286" transform="translate(11.886 8.289)" fill="#8c75b5"/>
        <path id="Trazado_152668" data-name="Trazado 152668" d="M119.485,128.573a19.231,19.231,0,0,1,6.21-7.039,39.947,39.947,0,0,1,7.558-3.9,31.561,31.561,0,0,0,8.839-4.983c2.55-2.249,4.43-5.138,6.935-7.433,2.568-2.353,5.815-4.1,9.383-3.906.692.039.69-1.039,0-1.076a13.325,13.325,0,0,0-8.8,3.09c-2.618,2.021-4.523,4.726-6.782,7.107a26.331,26.331,0,0,1-9.065,5.822,49.225,49.225,0,0,0-8.152,4.031,20.575,20.575,0,0,0-7.059,7.743c-.31.618.619,1.163.93.544" transform="translate(9.041 7.647)" fill="#8c75b5"/>
        <path id="Trazado_152669" data-name="Trazado 152669" d="M165.677,103.461a6.122,6.122,0,1,1-6.656-5.538,6.123,6.123,0,0,1,6.656,5.538" transform="translate(11.709 7.47)" fill="#ffa58f"/>
        <path id="Trazado_152670" data-name="Trazado 152670" d="M159.667,121.817A7.332,7.332,0,1,1,167,114.485a7.34,7.34,0,0,1-7.331,7.332m0-13.587a6.255,6.255,0,1,0,6.254,6.255,6.262,6.262,0,0,0-6.254-6.255" transform="translate(11.624 8.176)" fill="#ffeae0"/>
        <path id="Trazado_152671" data-name="Trazado 152671" d="M141.835,94.188c.086-.072.173-.143.258-.215-.184-.187-.382-.372-.587-.556-1.823-4.016-5.691-8.593-8.323-11.662a18.215,18.215,0,0,0-5.729-4.717,9.387,9.387,0,0,0-7.25-.578c-3.791,1.414-5.637,5.9-4.991,9.92a7.412,7.412,0,0,0-.925.819c-3.333,3.558-2.161,9.866,1.637,12.923s9.3,3.253,13.911,1.673a35.467,35.467,0,0,0,10.7-6.531q.781-.181,1.556-.369c-.076-.232-.165-.468-.258-.706" transform="translate(8.571 5.797)" fill="#31313c"/>
        <path id="Trazado_152672" data-name="Trazado 152672" d="M165.66,97.109c-1.388.872-2.432,1.012-2.712.129-.269-.861.377-2.163,1.787-3.057a2.248,2.248,0,0,1,.926,2.928" transform="translate(12.429 7.186)" fill="#2b244a"/>
        <path id="Trazado_152673" data-name="Trazado 152673" d="M158.74,106.863a3.414,3.414,0,0,1-.671-5.475c.5-.484-.265-1.245-.761-.761a4.5,4.5,0,0,0,.888,7.165.538.538,0,0,0,.544-.929" transform="translate(11.897 7.666)" fill="#2b244a"/>
        <path id="Trazado_152674" data-name="Trazado 152674" d="M129.956,101.413c4.383-4.835,5.849-12.122,4.4-18.4-.156-.674-1.194-.389-1.038.286,1.362,5.892-.005,12.814-4.121,17.355-.464.512.295,1.275.761.761" transform="translate(9.847 6.305)" fill="#8c75b5"/>
        <path id="Trazado_152675" data-name="Trazado 152675" d="M115.045,86.886a26.144,26.144,0,0,0,20.021,2.336.538.538,0,0,0-.286-1.038,25.044,25.044,0,0,1-19.192-2.227.538.538,0,0,0-.544.929" transform="translate(8.758 6.553)" fill="#8c75b5"/>
        <path id="Trazado_152676" data-name="Trazado 152676" d="M113.6,95.733a26.147,26.147,0,0,0,10.973,1.412c3.559-.242,7.353-1.056,10.267-3.226.55-.409.014-1.343-.542-.929-2.818,2.1-6.474,2.88-9.918,3.091A25.323,25.323,0,0,1,113.884,94.7c-.648-.248-.928.793-.286,1.038" transform="translate(8.64 7.088)" fill="#8c75b5"/>
        <path id="Trazado_152677" data-name="Trazado 152677" d="M131.609,107.179a14.423,14.423,0,0,0,8.025-1.275,11.8,11.8,0,0,0,5.194-5.086c1.239-2.18,2.231-4.758,4.325-6.286a17.681,17.681,0,0,1,4.075-1.844,11.148,11.148,0,0,0,3.306-1.967,12.648,12.648,0,0,0,4.073-7.563c.1-.677-.939-.97-1.038-.285a11.777,11.777,0,0,1-3.356,6.677,9.9,9.9,0,0,1-3.378,2.143,24.361,24.361,0,0,0-3.684,1.555c-4.276,2.552-4.637,8.4-8.84,11.054a13.221,13.221,0,0,1-8.7,1.8c-.686-.088-.679.989,0,1.076" transform="translate(10.003 6.294)" fill="#8c75b5"/>
        <path id="Trazado_152678" data-name="Trazado 152678" d="M133.533,93.208a15.068,15.068,0,0,0,6.359-1.483,7.891,7.891,0,0,0,3.555-4.094,6.425,6.425,0,0,1,1.588-2.51,20.92,20.92,0,0,1,2.517-1.507,17.042,17.042,0,0,0,4.326-3.955c.417-.553-.517-1.09-.93-.544a15.69,15.69,0,0,1-4.288,3.792,19.375,19.375,0,0,0-2.214,1.307,5.758,5.758,0,0,0-1.565,2.04,21.831,21.831,0,0,1-1.112,2.372,6.233,6.233,0,0,1-2.056,1.959,13.246,13.246,0,0,1-6.18,1.548c-.688.042-.693,1.119,0,1.076" transform="translate(10.149 6.019)" fill="#8c75b5"/>
        <rect id="Rectángulo_35115" data-name="Rectángulo 35115" width="10.424" height="70.941" transform="translate(153.135 332.34)" fill="#31313c"/>
        <path id="Trazado_152679" data-name="Trazado 152679" d="M153.845,323.293H141.609a2.421,2.421,0,0,1-2.421-2.421V308.779h17.078v12.093a2.421,2.421,0,0,1-2.421,2.421" transform="translate(10.62 23.561)" fill="#31313c"/>
        <rect id="Rectángulo_35116" data-name="Rectángulo 35116" width="6.583" height="74.149" transform="translate(155.056 398.479)" fill="#31313c"/>
        <path id="Trazado_152680" data-name="Trazado 152680" d="M156.138,443.07a8.419,8.419,0,1,1-8.419-8.419,8.419,8.419,0,0,1,8.419,8.419" transform="translate(10.629 33.165)" fill="#31313c"/>
        <path id="Trazado_152681" data-name="Trazado 152681" d="M147.849,367.453q-7.554,8.172-15.107,16.334-15.255,16.485-30.5,32.962c-5.439,5.884-11.184,11.682-15.535,18.107a50.064,50.064,0,0,0-.122.359v14.269h6.563v-13.17c3.85-5.666,8.8-10.82,13.6-16.012q7.646-8.271,15.3-16.533,15.236-16.485,30.5-32.962c1.039-1.118,2.078-2.235,3.105-3.354Z" transform="translate(6.607 28.038)" fill="#31313c"/>
        <path id="Trazado_152682" data-name="Trazado 152682" d="M98.495,443.07a8.419,8.419,0,1,1-8.419-8.419,8.419,8.419,0,0,1,8.419,8.419" transform="translate(6.231 33.165)" fill="#31313c"/>
        <path id="Trazado_152683" data-name="Trazado 152683" d="M213.632,443.007a8.419,8.419,0,1,1-8.419-8.419,8.419,8.419,0,0,1,8.419,8.419" transform="translate(15.016 33.16)" fill="#31313c"/>
        <path id="Trazado_152684" data-name="Trazado 152684" d="M212.48,435a.218.218,0,0,0-.05-.142c-4.35-6.423-10.1-12.222-15.522-18.106q-15.253-16.472-30.495-32.962-7.554-8.172-15.108-16.335h-7.823c1.039,1.118,2.066,2.237,3.105,3.355q15.253,16.485,30.508,32.962,7.644,8.271,15.29,16.533c4.8,5.192,9.755,10.346,13.616,16.012v13.17h6.551v-14.27a.33.33,0,0,0-.073-.217" transform="translate(10.948 28.038)" fill="#31313c"/>
        <path id="Trazado_152685" data-name="Trazado 152685" d="M144.708,435.765a7.436,7.436,0,0,1,5.305-.017.542.542,0,0,0,.662-.376.551.551,0,0,0-.376-.662,8.354,8.354,0,0,0-5.878.017.553.553,0,0,0-.376.662.542.542,0,0,0,.662.376" transform="translate(10.99 33.13)" fill="#8c75b5"/>
        <path id="Trazado_152686" data-name="Trazado 152686" d="M87.211,435.637a5.494,5.494,0,0,1,4.9.019c.615.315,1.16-.613.542-.93a6.639,6.639,0,0,0-5.989-.018c-.619.311-.074,1.239.544.929" transform="translate(6.592 33.116)" fill="#8c75b5"/>
        <path id="Trazado_152687" data-name="Trazado 152687" d="M201.958,435.6a9.057,9.057,0,0,1,5.545-.287.538.538,0,0,0,.286-1.038,10.056,10.056,0,0,0-6.118.287.553.553,0,0,0-.376.662.542.542,0,0,0,.662.376" transform="translate(15.358 33.11)" fill="#8c75b5"/>
        <path id="Trazado_152688" data-name="Trazado 152688" d="M142.909,369.442h9.149a.538.538,0,0,0,0-1.076h-9.149a.538.538,0,0,0,0,1.076" transform="translate(10.865 28.107)" fill="#8c75b5"/>
        <path id="Trazado_152689" data-name="Trazado 152689" d="M142.825,323.192h9.418a.538.538,0,0,0,0-1.076h-9.418a.538.538,0,0,0,0,1.076" transform="translate(10.858 24.578)" fill="#8c75b5"/>
        <path id="Trazado_152690" data-name="Trazado 152690" d="M145.359,320.547h74.761c3.5,0,8.757-3.794,4.325-11.027-1.814-2.96-8.5-3.514-10.8-4.824-7.227-4.121-16.928-28.087-24.917-57.38s-26.058-64.1-55.161-72.66S94.384,181.123,92.1,197.672s-4.177,84.072.2,98.339,15.6,24.536,31.574,24.536Z" transform="translate(6.842 13.137)" fill="#31313c"/>
        <path id="Trazado_152691" data-name="Trazado 152691" d="M96.305,184.945c8.971-7.1,22.007-6.262,32.409-3.415a60.027,60.027,0,0,1,15.647,6.687,60.9,60.9,0,0,1,11.463,9.62c8.575,8.816,14.75,19.512,19.119,30.961,2.769,7.256,4.922,14.751,7.14,22.188,2.276,7.631,4.555,15.263,7.165,22.789,2.221,6.405,4.747,12.757,8.534,18.42,3.123,4.669,7.142,8.888,12.24,11.387a25.27,25.27,0,0,0,3.652,1.447c.663.206.947-.833.286-1.038-12.068-3.736-18.534-16.266-22.549-27.321-2.769-7.623-5.132-15.389-7.452-23.159-2.225-7.451-4.363-14.95-6.976-22.278-4.24-11.9-10.236-23.157-18.825-32.493a69.253,69.253,0,0,0-11.087-10.033,57.732,57.732,0,0,0-15.033-7.3,56.921,56.921,0,0,0-17.481-2.986,32.305,32.305,0,0,0-15.891,3.658,23.692,23.692,0,0,0-3.123,2.106c-.544.429.223,1.186.761.761" transform="translate(7.276 13.614)" fill="#2b244a"/>
        <path id="Trazado_152692" data-name="Trazado 152692" d="M372.482,241.063c2.2,2.531,2.169,6.539,2.613,9.725l1.23,8.791q1.377,9.84,2.76,19.679,3.26,23.2,6.531,46.409,3.52,24.995,7.043,49.991,3.348,23.766,6.691,47.533,2.741,19.5,5.469,39l.533,3.821c.1.682,1.133.392,1.039-.286q-2.627-18.837-5.278-37.672-3.313-23.576-6.635-47.152-3.547-25.169-7.093-50.339-3.327-23.615-6.648-47.231-2.651-18.865-5.287-37.732a9.954,9.954,0,0,0-2.206-5.3c-.455-.523-1.214.24-.761.761" transform="translate(28.411 18.322)" fill="#2b244a"/>
        <path id="Trazado_152693" data-name="Trazado 152693" d="M308.582,240.315c-2.326,2.517-2.374,6.228-2.824,9.451q-.6,4.3-1.2,8.6-1.387,9.9-2.777,19.8-3.261,23.217-6.534,46.434-3.542,25.148-7.086,50.3-3.373,23.934-6.739,47.869-2.745,19.519-5.474,39.041-.274,1.962-.548,3.923c-.094.677.943.971,1.039.286q2.606-18.7,5.238-37.4,3.3-23.477,6.608-46.955,3.523-25.011,7.048-50.021,3.314-23.526,6.624-47.053,2.67-19,5.326-38.007c.277-1.985.655-3.982,2.063-5.506.469-.508-.29-1.271-.761-.761" transform="translate(21.013 18.324)" fill="#2b244a"/>
        <path id="Trazado_152694" data-name="Trazado 152694" d="M340.4,94.188H207.516a2.1,2.1,0,0,1-2.082-2.34L215.209,8.39a2.1,2.1,0,0,1,2.082-1.852H350.174a2.1,2.1,0,0,1,2.082,2.34l-9.775,83.458a2.1,2.1,0,0,1-2.082,1.852" transform="translate(15.674 0.499)" fill="#ffc37a"/>
        <path id="Trazado_152695" data-name="Trazado 152695" d="M336.4,13.837a3.229,3.229,0,1,1-3.229-3.229,3.229,3.229,0,0,1,3.229,3.229" transform="translate(25.175 0.809)" fill="#fff"/>
        <path id="Trazado_152696" data-name="Trazado 152696" d="M326.4,13.837a3.229,3.229,0,1,1-3.229-3.229,3.229,3.229,0,0,1,3.229,3.229" transform="translate(24.412 0.809)" fill="#fff"/>
        <path id="Trazado_152697" data-name="Trazado 152697" d="M306.611,25.1a20.628,20.628,0,0,0-4.953-9.2,7.448,7.448,0,0,0-1.775-4.453c-1.371-1.671-3.236-2.664-4.992-3.86a7.824,7.824,0,0,1-2.3-2.371,16.807,16.807,0,0,0-1.7-2.533A7.393,7.393,0,0,0,286.426.428a8.335,8.335,0,0,0-5.433,1.053,3.565,3.565,0,0,0-.561.363A8.245,8.245,0,0,0,274.491.009a7.382,7.382,0,0,0-5.375,2.973,13.2,13.2,0,0,0-3.841,2.258,9.056,9.056,0,0,0-3.134,5.87,3.429,3.429,0,0,1-1.02,2.086c-.442.468-.9.921-1.344,1.387a33.015,33.015,0,0,0-2.547,2.962,10.575,10.575,0,0,0-2.442,6.794A18.456,18.456,0,0,0,255.931,29c.127.382.26.763.4,1.139a17.218,17.218,0,0,0-1.354,5.745c-.25,2.925.225,6.135,3.245,7.4a7.792,7.792,0,0,0,4.107.436,4.815,4.815,0,0,1,2.553-.022,3.575,3.575,0,0,1,1.345,1.137c.76.959,1.3,2.076,2.16,2.962a4.278,4.278,0,0,0,3.446,1.336c3.566-.282,5.279-3.547,6.523-6.485a16.12,16.12,0,0,0,5.978-2.5c1.809,2.816,4.058,5.792,7.7,5.955a5.4,5.4,0,0,0,4.235-1.87,10.8,10.8,0,0,1,1.751-1.677,7.937,7.937,0,0,1,2.714-.731c3.121-.742,4.982-3.838,5.8-6.727a19.924,19.924,0,0,0,.076-10" transform="translate(19.44 0)" fill="#2b244a"/>
        <path id="Trazado_152698" data-name="Trazado 152698" d="M328.464,91.363H233.042c1.582-7.943.748-12.673,1.555-15.483,1.068-3.8-3.016-6.777-1.283-10.452a35.776,35.776,0,0,1,5.347-8.306c7.437-8.56,16.927-11.547,26.164-12.737a134.174,134.174,0,0,1,22.348-.648c7.607.295,14.94,1.225,21.317,3.538,6.377,2.345,11.554,6.191,14.788,11.8,3.349,5.855,5.431,28.051,5.186,32.285" transform="translate(17.769 3.324)" fill="#ffeae0"/>
        <path id="Trazado_152699" data-name="Trazado 152699" d="M300.217,75.334q.923,6.558,1.848,13.117c.1.683,1.133.393,1.038-.285q-.923-6.56-1.848-13.118c-.1-.682-1.133-.392-1.038.286" transform="translate(22.907 5.697)" fill="#2b244a"/>
        <path id="Trazado_152700" data-name="Trazado 152700" d="M219.942,70.385l2.71,20.024h19.176l-7.964-34.357Z" transform="translate(16.782 4.277)" fill="#ffeae0"/>
        <path id="Trazado_152701" data-name="Trazado 152701" d="M236.431,65.73,241.8,82.893q.988,3.159,1.977,6.319c.206.66,1.245.378,1.038-.285q-2.683-8.582-5.368-17.163l-1.976-6.32c-.206-.659-1.245-.378-1.038.286" transform="translate(18.038 4.965)" fill="#2b244a"/>
        <path id="Trazado_152702" data-name="Trazado 152702" d="M277.513,52.074q-.329,14.795-.658,29.591l-.187,8.436a.538.538,0,0,0,1.076,0q.329-14.8.658-29.592l.187-8.435a.538.538,0,0,0-1.076,0" transform="translate(21.111 3.934)" fill="#2b244a"/>
        <path id="Trazado_152703" data-name="Trazado 152703" d="M270.949,43.6q-1.574,3.287-2.878,6.7c-.415,1.081-.84,2.166-1.195,3.268a3.242,3.242,0,0,0,.183,2.8c1.151,1.73,3.435,1.209,5.02.54,2.317-.976,4.621-1.988,6.93-2.982.634-.273.086-1.2-.544-.929l-5.77,2.484a9.673,9.673,0,0,1-2.9,1A1.839,1.839,0,0,1,267.8,55.44c-.295-.908.226-1.921.529-2.761q.505-1.4,1.052-2.791,1.148-2.916,2.5-5.744c.3-.622-.63-1.169-.929-.544" transform="translate(20.346 3.306)" fill="#2b244a"/>
        <path id="Trazado_152704" data-name="Trazado 152704" d="M284.779,44.143q1.327,2.77,2.453,5.629.571,1.445,1.1,2.906c.3.828.836,1.865.53,2.762-.692,2.02-3.563.609-4.779.086l-5.887-2.536c-.63-.271-1.179.655-.544.929,2.31.995,4.612,2.006,6.929,2.984,1.585.668,3.87,1.188,5.02-.541a3.244,3.244,0,0,0,.184-2.8c-.352-1.1-.78-2.188-1.2-3.269q-1.309-3.4-2.878-6.7c-.3-.624-1.227-.079-.929.544" transform="translate(21.164 3.306)" fill="#2b244a"/>
        <path id="Trazado_152705" data-name="Trazado 152705" d="M286.2,44.883s-3.856,11.005-7.671,11.005c-3.122,0-7.671-11.172-7.671-11.172l.99-14.991,13.766.31Z" transform="translate(20.667 2.268)" fill="#e0785e"/>
        <path id="Trazado_152706" data-name="Trazado 152706" d="M287.973,8.581c-2.917-3.823-7.41-5.769-12.127-4.42-9.083,2.595-11.732,15.117-10.007,23.365a31.788,31.788,0,0,0,7.146,14.309,7.608,7.608,0,0,0,11.714,0,31.788,31.788,0,0,0,7.146-14.309c.634-3.034,1.555-11.83-3.871-18.945" transform="translate(20.246 0.285)" fill="#e0785e"/>
        <path id="Trazado_152707" data-name="Trazado 152707" d="M272.875,23.889a5.365,5.365,0,1,1-6.636-3.676,5.363,5.363,0,0,1,6.636,3.676" transform="translate(20.018 1.526)" fill="#e0785e"/>
        <path id="Trazado_152708" data-name="Trazado 152708" d="M295.474,22.545a1.628,1.628,0,0,0-1.063-.221c-.584-.985-.456-2.933-1.155-3.826-.857-1.092.046-2.5-.48-3.827s-1.069-2.944-1.673-4.245a18.985,18.985,0,0,0-2.094-3.648c-1.513-1.771-5.62-3.639-7.814-4.066-2.766-.539-6.445,1.251-9.033,2.3-1.535.622-2.083,1.837-3.6,2.512-.682.3-1.423,1.842-2.033,2.3a1.073,1.073,0,0,0-.625-.459c-.754-.129-1.281,12.556-.522,12.414a14.042,14.042,0,0,0,7.33-3.793,12.128,12.128,0,0,0,1.185-1.062c.367-.38.779-1.109,1.267-1.294a7.937,7.937,0,0,1,1.522-.163,11.379,11.379,0,0,0,1.448-.314,12.142,12.142,0,0,0,2.778-1.214,12.263,12.263,0,0,0,1.977-1.493,4.958,4.958,0,0,0,1.592,2.55,7.9,7.9,0,0,0,2.708,1.306,6.337,6.337,0,0,1,1.366.46c.3.184.24.113.138.434-.077.25-.17.491-.237.745a9.546,9.546,0,0,0,3.359,9.94c.645.468,4.3-4.865,3.661-5.33" transform="translate(20.221 0.199)" fill="#2b244a"/>
        <path id="Trazado_152709" data-name="Trazado 152709" d="M279.459,19.589c.132,1.72,1.872.88,3.645,1.824,1.63.868,2.854.983,3.1.064.3-1.11-1.038-2.808-3.542-3.394-2.344-.548-3.3.252-3.205,1.506" transform="translate(21.323 1.366)" fill="#2b244a"/>
        <path id="Trazado_152710" data-name="Trazado 152710" d="M275.712,19.589c-.132,1.72-1.872.88-3.645,1.824-1.63.868-2.854.983-3.1.064-.3-1.11,1.038-2.808,3.542-3.394,2.344-.548,3.3.252,3.205,1.506" transform="translate(20.52 1.366)" fill="#2b244a"/>
        <path id="Trazado_152711" data-name="Trazado 152711" d="M283.394,22.989a1.257,1.257,0,0,0-1.034-.613,1.188,1.188,0,0,0-1.025.842,4.131,4.131,0,0,0-.2,1.455,2.619,2.619,0,0,0,.471,1.633,1.1,1.1,0,0,0,1.88-.4,3.634,3.634,0,0,0-.1-2.912" transform="translate(21.452 1.707)" fill="#2b244a"/>
        <path id="Trazado_152712" data-name="Trazado 152712" d="M273.79,22.989a1.257,1.257,0,0,0-1.034-.613,1.185,1.185,0,0,0-1.024.842,4.108,4.108,0,0,0-.2,1.455,2.619,2.619,0,0,0,.471,1.633,1.1,1.1,0,0,0,1.88-.4,3.634,3.634,0,0,0-.1-2.912" transform="translate(20.719 1.707)" fill="#2b244a"/>
        <path id="Trazado_152713" data-name="Trazado 152713" d="M264.928,23.692a24.27,24.27,0,0,0,2.13,9.451c.283.632,1.211.085.929-.544A22.948,22.948,0,0,1,266,23.692a.538.538,0,0,0-1.076,0" transform="translate(20.215 1.768)" fill="#2b244a"/>
        <path id="Trazado_152714" data-name="Trazado 152714" d="M277,24.278q-.231,1.179-.461,2.358c-.15.764-.35,1.537-.428,2.312a1.472,1.472,0,0,0,.8,1.628,2.954,2.954,0,0,0,1.9-.072.538.538,0,0,0-.286-1.038,3.184,3.184,0,0,1-.782.156,1.253,1.253,0,0,1-.464-.056c-.044-.022-.042-.046-.021-.009-.043-.08,0,.015-.018-.027a1.016,1.016,0,0,1-.06-.31,4,4,0,0,1,.111-.8q.378-1.931.754-3.86a.552.552,0,0,0-.376-.662.543.543,0,0,0-.662.376" transform="translate(21.067 1.822)" fill="#2b244a"/>
        <path id="Trazado_152715" data-name="Trazado 152715" d="M275.084,31.556a.374.374,0,0,0-.328.565A3.787,3.787,0,0,0,277,34.143a3.522,3.522,0,0,0,3.9-1.957.377.377,0,0,0-.335-.565c-2,.006-3.791-.032-5.479-.066" transform="translate(20.961 2.408)" fill="#2b244a"/>
        <path id="Trazado_152716" data-name="Trazado 152716" d="M277.382,42.073c3.354.281,6.33-1.6,8.61-3.882a.539.539,0,0,0-.762-.761c-2.093,2.093-4.766,3.825-7.848,3.567-.69-.058-.687,1.019,0,1.076" transform="translate(21.126 2.844)" fill="#2b244a"/>
        <path id="Trazado_152717" data-name="Trazado 152717" d="M289.205,26.527c1.7,2.647,4.421,5.318,7.866,4.6.5-.1.964-.373,1.421-.02.273.212.474.517.744.738a3.245,3.245,0,0,0,1.679.7,3.512,3.512,0,0,0,3.288-1.4c.413-.556-.52-1.094-.93-.544a2.461,2.461,0,0,1-2.962.667c-.54-.265-.832-.8-1.314-1.134a1.908,1.908,0,0,0-1.768-.16c-3.109.872-5.559-1.607-7.094-3.994-.372-.58-1.3-.041-.929.544" transform="translate(22.06 1.964)" fill="#8c75b5"/>
        <path id="Trazado_152718" data-name="Trazado 152718" d="M278.724,1.338a4.469,4.469,0,0,0,.018,5.618,14.513,14.513,0,0,0,2.28,2.087,1.841,1.841,0,0,1,.855,1.379,3.91,3.91,0,0,1-.687,1.833.538.538,0,0,0,.929.544,3.97,3.97,0,0,0,.714-3.14c-.33-.978-1.274-1.536-2.027-2.166a5.427,5.427,0,0,1-1.864-2.36,3.354,3.354,0,0,1,.544-3.034c.423-.538-.334-1.306-.761-.761" transform="translate(21.192 0.088)" fill="#8c75b5"/>
        <path id="Trazado_152719" data-name="Trazado 152719" d="M261.249,11.6c-.158,1.543-.224,3.218.812,4.495,1.059,1.306,2.726,1.282,4.167.665a19.425,19.425,0,0,1,2.322-1.1c.446-.124.57.206.838.526a6.364,6.364,0,0,0,.819.841c1.006.832,2.627,1.163,3.569.039.442-.528-.315-1.294-.761-.761-.94,1.123-2.288-.178-2.923-.95-.373-.453-.734-.864-1.371-.829a5.128,5.128,0,0,0-1.878.736c-1.129.581-2.713,1.422-3.806.315-1.024-1.038-.847-2.658-.711-3.979.07-.689-1.006-.683-1.076,0" transform="translate(19.927 0.846)" fill="#8c75b5"/>
        <path id="Trazado_152720" data-name="Trazado 152720" d="M287.043,17a8.542,8.542,0,0,0,3.091,2.7,4.149,4.149,0,0,0,3.743-.186,4,4,0,0,0,1.324-1.251c.074-.11.145-.308.264-.371.165-.089.455-.005.629,0a3.785,3.785,0,0,0,.888-.095,3.737,3.737,0,0,0,2.684-2.4c.235-.652-.805-.933-1.038-.285a2.66,2.66,0,0,1-2.535,1.7c-.59-.013-1.062-.05-1.489.425a6.989,6.989,0,0,1-.981,1.159c-2.245,1.656-4.458-.445-5.821-2.155-.432-.541-1.188.224-.761.761" transform="translate(21.893 1.125)" fill="#8c75b5"/>
        <path id="Trazado_152721" data-name="Trazado 152721" d="M237.889,41.621c-.178-.908-.647-1.786-1.614-1.723a2.665,2.665,0,0,0-1.829,1.27,40.687,40.687,0,0,0-2.877,7.025c-1.314-3.523-2.721-6.835-4.036-10.357a42.352,42.352,0,0,0-2.8-6.527,2.3,2.3,0,0,0-1.661-1.26,1.773,1.773,0,0,0-1.607,1.013,4.417,4.417,0,0,0-.394,1.953,38.136,38.136,0,0,0,.765,7.46,69.808,69.808,0,0,0-5.717-8.1c-.659-.786-1.65-1.631-2.585-1.209a2.063,2.063,0,0,0-.949,2.156c.538,4.276,2.815,8.6,4.419,12.446-1.7-2.317-5.594-6.527-6.289-6.8a1.99,1.99,0,0,0-2.1.3,2.322,2.322,0,0,0-.485,2.293A52.724,52.724,0,0,0,213.4,54.049a103.962,103.962,0,0,0,6.167,9.662c2.023,2.568,4.455,3.267,7.9,2.93,6.281-.615,8.109-7.1,9.114-12.314.5-2.616.961-5.244,1.281-7.89a15.436,15.436,0,0,0,.024-4.815" transform="translate(15.872 2.292)" fill="#e0785e"/>
        <path id="Trazado_152722" data-name="Trazado 152722" d="M218.541,61.514l1.508,8.947a45.807,45.807,0,0,0,18.143-4.669L235.2,55.055Z" transform="translate(16.675 4.201)" fill="#e0785e"/>
        <path id="Trazado_152723" data-name="Trazado 152723" d="M220,39.452q1.537,4.734,3.451,9.333c.262.631,1.3.354,1.038-.286q-1.912-4.595-3.451-9.333c-.213-.655-1.253-.376-1.038.286" transform="translate(16.784 2.96)" fill="#37374c"/>
        <path id="Trazado_152724" data-name="Trazado 152724" d="M215.357,43.682q1.6,3.206,3.191,6.413c.308.62,1.237.075.929-.544q-1.6-3.206-3.191-6.413c-.308-.62-1.237-.075-.929.544" transform="translate(16.428 3.271)" fill="#37374c"/>
        <path id="Trazado_152725" data-name="Trazado 152725" d="M218.973,53.023a15.6,15.6,0,0,1,7.626-4.5.538.538,0,0,0-.286-1.038,16.622,16.622,0,0,0-8.1,4.777c-.471.506.287,1.269.761.761" transform="translate(16.639 3.622)" fill="#37374c"/>
        <path id="Trazado_152726" data-name="Trazado 152726" d="M226.135,56.133a15.154,15.154,0,0,1,2.524-7.914c.383-.579-.549-1.119-.93-.544a16.24,16.24,0,0,0-2.67,8.458c-.02.693,1.056.692,1.076,0" transform="translate(17.173 3.619)" fill="#37374c"/>
        <path id="Trazado_152727" data-name="Trazado 152727" d="M221.511,78.553a30.892,30.892,0,0,0,19.44-3.98.538.538,0,0,0-.544-.929,29.954,29.954,0,0,1-18.9,3.833c-.686-.086-.679.991,0,1.076" transform="translate(16.863 5.613)" fill="#2b244a"/>
        <path id="Trazado_152728" data-name="Trazado 152728" d="M186.8,108.173h36.3a6.276,6.276,0,0,0,6.259-6.257V98.4a6.277,6.277,0,0,0-6.259-6.259H186.8a6.277,6.277,0,0,0-6.258,6.259v3.517a6.275,6.275,0,0,0,6.258,6.257" transform="translate(13.776 7.031)" fill="#ffeae0"/>
        <path id="Trazado_152729" data-name="Trazado 152729" d="M180.537,101.222v8.49A1.076,1.076,0,0,0,182,110.717l8.455-3.238Z" transform="translate(13.775 7.724)" fill="#ffeae0"/>
        <path id="Trazado_152730" data-name="Trazado 152730" d="M212.256,98.665a.994.994,0,0,1,0,1.987.994.994,0,0,1,0-1.987" transform="translate(16.122 7.528)" fill="#2b244a"/>
        <path id="Trazado_152731" data-name="Trazado 152731" d="M203.282,98.665a.994.994,0,0,1,0,1.987.994.994,0,0,1,0-1.987" transform="translate(15.438 7.528)" fill="#2b244a"/>
        <path id="Trazado_152732" data-name="Trazado 152732" d="M194.308,98.665a.994.994,0,0,1,0,1.987.994.994,0,0,1,0-1.987" transform="translate(14.753 7.528)" fill="#2b244a"/>
      </g>
    </g>
  </g>
</svg>
