<svg xmlns="http://www.w3.org/2000/svg" xmlns:xlink="http://www.w3.org/1999/xlink" width="505" height="367" viewBox="0 0 505 367">
  <defs>
    <clipPath id="clip-path">
      <rect id="Rectángulo_34881" data-name="Rectángulo 34881" width="254.168" height="129.664" fill="#12263f"/>
    </clipPath>
  </defs>
  <g id="Grupo_158066" data-name="Grupo 158066" transform="translate(-915 -404)">
    <g id="Grupo_157884" data-name="Grupo 157884" transform="translate(913.662 403.742)">
      <path id="Rectángulo_34948" data-name="Rectángulo 34948" d="M56,0H488.338a0,0,0,0,1,0,0V284.679a56,56,0,0,1-56,56H0a0,0,0,0,1,0,0V56A56,56,0,0,1,56,0Z" transform="translate(8 17.779)" fill="#fff0de"/>
      <g id="Enmascarar_grupo_63" data-name="Enmascarar grupo 63" transform="translate(252.169 0.257)" clip-path="url(#clip-path)">
        <path id="Trazado_151731" data-name="Trazado 151731" d="M121.018,191.081a70.063,70.063,0,1,1,70.063-70.063,70.142,70.142,0,0,1-70.063,70.063m0,50.955A121.018,121.018,0,1,0,0,121.018,121.018,121.018,0,0,0,121.018,242.036Z" transform="translate(5.25 8.647)" fill="#fd9827"/>
      </g>
      <g id="Grupo_78301" data-name="Grupo 78301" transform="translate(1.338 0.257)">
        <path id="Trazado_145969" data-name="Trazado 145969" d="M71.675,0A71.675,71.675,0,1,1,0,71.675,71.675,71.675,0,0,1,71.675,0Z" transform="translate(0 3.637)" fill="#fd9827" opacity="0.444" style="mix-blend-mode: multiply;isolation: isolate"/>
        <rect id="Rectángulo_34812" data-name="Rectángulo 34812" width="504.999" height="356.031" transform="translate(0 0)" fill="none"/>
        <path id="Trazado_145971" data-name="Trazado 145971" d="M8.18,0A8.18,8.18,0,1,1,0,8.18,8.18,8.18,0,0,1,8.18,0Z" transform="translate(32.317 323.46)" fill="#31313c" opacity="0.444" style="mix-blend-mode: multiply;isolation: isolate"/>
        <g id="Grupo_80270" data-name="Grupo 80270" transform="translate(344.078 206.079)">
          <path id="Trazado_145968" data-name="Trazado 145968" d="M80.461,0A80.461,80.461,0,1,1,0,80.461,80.461,80.461,0,0,1,80.461,0Z" transform="translate(0)" fill="#31313c" opacity="0.444" style="mix-blend-mode: multiply;isolation: isolate"/>
          <g id="Grupo_78276" data-name="Grupo 78276" transform="translate(31.415 33.263)">
            <g id="Grupo_53306" data-name="Grupo 53306">
              <path id="Trazado_99200" data-name="Trazado 99200" d="M416.4,51.268a1.094,1.094,0,1,1-1.093-1.044A1.07,1.07,0,0,1,416.4,51.268Z" transform="translate(-414.214 -50.224)" fill="#fff"/>
              <path id="Trazado_99201" data-name="Trazado 99201" d="M424.845,51.268a1.094,1.094,0,1,1-1.092-1.044A1.069,1.069,0,0,1,424.845,51.268Z" transform="translate(-412.827 -50.224)" fill="#fff"/>
              <path id="Trazado_99202" data-name="Trazado 99202" d="M433.291,51.268a1.094,1.094,0,1,1-1.092-1.044A1.069,1.069,0,0,1,433.291,51.268Z" transform="translate(-411.441 -50.224)" fill="#fff"/>
              <path id="Trazado_99203" data-name="Trazado 99203" d="M441.738,51.268a1.094,1.094,0,1,1-1.093-1.044A1.07,1.07,0,0,1,441.738,51.268Z" transform="translate(-410.054 -50.224)" fill="#fff"/>
              <path id="Trazado_99204" data-name="Trazado 99204" d="M450.184,51.268a1.094,1.094,0,1,1-1.092-1.044A1.069,1.069,0,0,1,450.184,51.268Z" transform="translate(-408.667 -50.224)" fill="#fff"/>
              <path id="Trazado_99205" data-name="Trazado 99205" d="M458.63,51.268a1.094,1.094,0,1,1-1.092-1.044A1.069,1.069,0,0,1,458.63,51.268Z" transform="translate(-407.28 -50.224)" fill="#fff"/>
              <path id="Trazado_99206" data-name="Trazado 99206" d="M467.077,51.268a1.094,1.094,0,1,1-1.093-1.044A1.07,1.07,0,0,1,467.077,51.268Z" transform="translate(-405.893 -50.224)" fill="#fff"/>
              <path id="Trazado_99207" data-name="Trazado 99207" d="M475.523,51.268a1.094,1.094,0,1,1-1.092-1.044A1.069,1.069,0,0,1,475.523,51.268Z" transform="translate(-404.507 -50.224)" fill="#fff"/>
              <path id="Trazado_99208" data-name="Trazado 99208" d="M483.969,51.268a1.094,1.094,0,1,1-1.092-1.044A1.069,1.069,0,0,1,483.969,51.268Z" transform="translate(-403.12 -50.224)" fill="#fff"/>
              <path id="Trazado_99209" data-name="Trazado 99209" d="M492.416,51.268a1.094,1.094,0,1,1-1.093-1.044A1.07,1.07,0,0,1,492.416,51.268Z" transform="translate(-401.733 -50.224)" fill="#fff"/>
              <path id="Trazado_99210" data-name="Trazado 99210" d="M500.862,51.268a1.094,1.094,0,1,1-1.093-1.044A1.069,1.069,0,0,1,500.862,51.268Z" transform="translate(-400.347 -50.224)" fill="#fff"/>
            </g>
            <g id="Grupo_53307" data-name="Grupo 53307" transform="translate(0 8.359)">
              <path id="Trazado_99211" data-name="Trazado 99211" d="M416.4,58.776a1.094,1.094,0,1,1-1.093-1.044A1.07,1.07,0,0,1,416.4,58.776Z" transform="translate(-414.214 -57.732)" fill="#fff"/>
              <path id="Trazado_99212" data-name="Trazado 99212" d="M424.845,58.776a1.094,1.094,0,1,1-1.092-1.044A1.069,1.069,0,0,1,424.845,58.776Z" transform="translate(-412.827 -57.732)" fill="#fff"/>
              <path id="Trazado_99213" data-name="Trazado 99213" d="M433.291,58.776a1.094,1.094,0,1,1-1.092-1.044A1.069,1.069,0,0,1,433.291,58.776Z" transform="translate(-411.441 -57.732)" fill="#fff"/>
              <path id="Trazado_99214" data-name="Trazado 99214" d="M441.738,58.776a1.094,1.094,0,1,1-1.093-1.044A1.07,1.07,0,0,1,441.738,58.776Z" transform="translate(-410.054 -57.732)" fill="#fff"/>
              <path id="Trazado_99215" data-name="Trazado 99215" d="M450.184,58.776a1.094,1.094,0,1,1-1.092-1.044A1.069,1.069,0,0,1,450.184,58.776Z" transform="translate(-408.667 -57.732)" fill="#fff"/>
              <path id="Trazado_99216" data-name="Trazado 99216" d="M458.63,58.776a1.094,1.094,0,1,1-1.092-1.044A1.069,1.069,0,0,1,458.63,58.776Z" transform="translate(-407.28 -57.732)" fill="#fff"/>
              <path id="Trazado_99217" data-name="Trazado 99217" d="M467.077,58.776a1.094,1.094,0,1,1-1.093-1.044A1.07,1.07,0,0,1,467.077,58.776Z" transform="translate(-405.893 -57.732)" fill="#fff"/>
              <path id="Trazado_99218" data-name="Trazado 99218" d="M475.523,58.776a1.094,1.094,0,1,1-1.092-1.044A1.069,1.069,0,0,1,475.523,58.776Z" transform="translate(-404.507 -57.732)" fill="#fff"/>
              <path id="Trazado_99219" data-name="Trazado 99219" d="M483.969,58.776a1.094,1.094,0,1,1-1.092-1.044A1.069,1.069,0,0,1,483.969,58.776Z" transform="translate(-403.12 -57.732)" fill="#fff"/>
              <path id="Trazado_99220" data-name="Trazado 99220" d="M492.416,58.776a1.094,1.094,0,1,1-1.093-1.044A1.07,1.07,0,0,1,492.416,58.776Z" transform="translate(-401.733 -57.732)" fill="#fff"/>
              <path id="Trazado_99221" data-name="Trazado 99221" d="M500.862,58.776a1.094,1.094,0,1,1-1.093-1.044A1.069,1.069,0,0,1,500.862,58.776Z" transform="translate(-400.347 -57.732)" fill="#fff"/>
            </g>
            <g id="Grupo_53308" data-name="Grupo 53308" transform="translate(0 16.718)">
              <ellipse id="Elipse_3955" data-name="Elipse 3955" cx="1.093" cy="1.045" rx="1.093" ry="1.045" fill="#fff"/>
              <path id="Trazado_99222" data-name="Trazado 99222" d="M424.845,66.284a1.094,1.094,0,1,1-1.092-1.044A1.07,1.07,0,0,1,424.845,66.284Z" transform="translate(-412.827 -65.24)" fill="#fff"/>
              <ellipse id="Elipse_3956" data-name="Elipse 3956" cx="1.093" cy="1.045" rx="1.093" ry="1.045" transform="translate(19.666)" fill="#fff"/>
              <path id="Trazado_99223" data-name="Trazado 99223" d="M441.738,66.284a1.094,1.094,0,1,1-1.093-1.044A1.07,1.07,0,0,1,441.738,66.284Z" transform="translate(-410.054 -65.24)" fill="#fff"/>
              <path id="Trazado_99224" data-name="Trazado 99224" d="M450.184,66.284a1.094,1.094,0,1,1-1.092-1.044A1.07,1.07,0,0,1,450.184,66.284Z" transform="translate(-408.667 -65.24)" fill="#fff"/>
              <ellipse id="Elipse_3957" data-name="Elipse 3957" cx="1.093" cy="1.045" rx="1.093" ry="1.045" transform="translate(49.165)" fill="#fff"/>
              <path id="Trazado_99225" data-name="Trazado 99225" d="M467.077,66.284a1.094,1.094,0,1,1-1.093-1.044A1.071,1.071,0,0,1,467.077,66.284Z" transform="translate(-405.893 -65.24)" fill="#fff"/>
              <ellipse id="Elipse_3958" data-name="Elipse 3958" cx="1.093" cy="1.045" rx="1.093" ry="1.045" transform="translate(68.831)" fill="#fff"/>
              <ellipse id="Elipse_3959" data-name="Elipse 3959" cx="1.093" cy="1.045" rx="1.093" ry="1.045" transform="translate(78.664)" fill="#fff"/>
              <path id="Trazado_99226" data-name="Trazado 99226" d="M492.416,66.284a1.094,1.094,0,1,1-1.093-1.044A1.071,1.071,0,0,1,492.416,66.284Z" transform="translate(-401.733 -65.24)" fill="#fff"/>
              <path id="Trazado_99227" data-name="Trazado 99227" d="M500.862,66.284a1.094,1.094,0,1,1-1.093-1.044A1.07,1.07,0,0,1,500.862,66.284Z" transform="translate(-400.347 -65.24)" fill="#fff"/>
            </g>
            <g id="Grupo_53309" data-name="Grupo 53309" transform="translate(0 25.076)">
              <ellipse id="Elipse_3960" data-name="Elipse 3960" cx="1.093" cy="1.045" rx="1.093" ry="1.045" transform="translate(0 0)" fill="#fff"/>
              <path id="Trazado_99228" data-name="Trazado 99228" d="M424.845,73.792a1.094,1.094,0,1,1-1.092-1.045A1.069,1.069,0,0,1,424.845,73.792Z" transform="translate(-412.827 -72.747)" fill="#fff"/>
              <ellipse id="Elipse_3961" data-name="Elipse 3961" cx="1.093" cy="1.045" rx="1.093" ry="1.045" transform="translate(19.666 0)" fill="#fff"/>
              <path id="Trazado_99229" data-name="Trazado 99229" d="M441.738,73.792a1.094,1.094,0,1,1-1.093-1.045A1.069,1.069,0,0,1,441.738,73.792Z" transform="translate(-410.054 -72.747)" fill="#fff"/>
              <path id="Trazado_99230" data-name="Trazado 99230" d="M450.184,73.792a1.094,1.094,0,1,1-1.092-1.045A1.069,1.069,0,0,1,450.184,73.792Z" transform="translate(-408.667 -72.747)" fill="#fff"/>
              <ellipse id="Elipse_3962" data-name="Elipse 3962" cx="1.093" cy="1.045" rx="1.093" ry="1.045" transform="translate(49.165 0)" fill="#fff"/>
              <path id="Trazado_99231" data-name="Trazado 99231" d="M467.077,73.792a1.094,1.094,0,1,1-1.093-1.045A1.07,1.07,0,0,1,467.077,73.792Z" transform="translate(-405.893 -72.747)" fill="#fff"/>
              <ellipse id="Elipse_3963" data-name="Elipse 3963" cx="1.093" cy="1.045" rx="1.093" ry="1.045" transform="translate(68.831 0)" fill="#fff"/>
              <ellipse id="Elipse_3964" data-name="Elipse 3964" cx="1.093" cy="1.045" rx="1.093" ry="1.045" transform="translate(78.664 0)" fill="#fff"/>
              <path id="Trazado_99232" data-name="Trazado 99232" d="M492.416,73.792a1.094,1.094,0,1,1-1.093-1.045A1.07,1.07,0,0,1,492.416,73.792Z" transform="translate(-401.733 -72.747)" fill="#fff"/>
              <path id="Trazado_99233" data-name="Trazado 99233" d="M500.862,73.792a1.094,1.094,0,1,1-1.093-1.045A1.069,1.069,0,0,1,500.862,73.792Z" transform="translate(-400.347 -72.747)" fill="#fff"/>
            </g>
            <g id="Grupo_53310" data-name="Grupo 53310" transform="translate(0 33.435)">
              <path id="Trazado_99234" data-name="Trazado 99234" d="M416.4,81.3a1.094,1.094,0,1,1-1.093-1.045A1.069,1.069,0,0,1,416.4,81.3Z" transform="translate(-414.214 -80.255)" fill="#fff"/>
              <path id="Trazado_99235" data-name="Trazado 99235" d="M424.845,81.3a1.094,1.094,0,1,1-1.092-1.045A1.069,1.069,0,0,1,424.845,81.3Z" transform="translate(-412.827 -80.255)" fill="#fff"/>
              <path id="Trazado_99236" data-name="Trazado 99236" d="M433.291,81.3a1.094,1.094,0,1,1-1.092-1.045A1.069,1.069,0,0,1,433.291,81.3Z" transform="translate(-411.441 -80.255)" fill="#fff"/>
              <path id="Trazado_99237" data-name="Trazado 99237" d="M441.738,81.3a1.094,1.094,0,1,1-1.093-1.045A1.069,1.069,0,0,1,441.738,81.3Z" transform="translate(-410.054 -80.255)" fill="#fff"/>
              <path id="Trazado_99238" data-name="Trazado 99238" d="M450.184,81.3a1.094,1.094,0,1,1-1.092-1.045A1.069,1.069,0,0,1,450.184,81.3Z" transform="translate(-408.667 -80.255)" fill="#fff"/>
              <path id="Trazado_99239" data-name="Trazado 99239" d="M458.63,81.3a1.094,1.094,0,1,1-1.092-1.045A1.069,1.069,0,0,1,458.63,81.3Z" transform="translate(-407.28 -80.255)" fill="#fff"/>
              <path id="Trazado_99240" data-name="Trazado 99240" d="M467.077,81.3a1.094,1.094,0,1,1-1.093-1.045A1.07,1.07,0,0,1,467.077,81.3Z" transform="translate(-405.893 -80.255)" fill="#fff"/>
              <path id="Trazado_99241" data-name="Trazado 99241" d="M475.523,81.3a1.094,1.094,0,1,1-1.092-1.045A1.069,1.069,0,0,1,475.523,81.3Z" transform="translate(-404.507 -80.255)" fill="#fff"/>
              <path id="Trazado_99242" data-name="Trazado 99242" d="M483.969,81.3a1.094,1.094,0,1,1-1.092-1.045A1.069,1.069,0,0,1,483.969,81.3Z" transform="translate(-403.12 -80.255)" fill="#fff"/>
              <path id="Trazado_99243" data-name="Trazado 99243" d="M492.416,81.3a1.094,1.094,0,1,1-1.093-1.045A1.07,1.07,0,0,1,492.416,81.3Z" transform="translate(-401.733 -80.255)" fill="#fff"/>
              <path id="Trazado_99244" data-name="Trazado 99244" d="M500.862,81.3a1.094,1.094,0,1,1-1.093-1.045A1.069,1.069,0,0,1,500.862,81.3Z" transform="translate(-400.347 -80.255)" fill="#fff"/>
            </g>
            <g id="Grupo_53311" data-name="Grupo 53311" transform="translate(0 41.793)">
              <ellipse id="Elipse_3965" data-name="Elipse 3965" cx="1.093" cy="1.045" rx="1.093" ry="1.045" transform="translate(0 0)" fill="#fff"/>
              <path id="Trazado_99245" data-name="Trazado 99245" d="M424.845,88.808a1.094,1.094,0,1,1-1.092-1.045A1.069,1.069,0,0,1,424.845,88.808Z" transform="translate(-412.827 -87.763)" fill="#fff"/>
              <ellipse id="Elipse_3966" data-name="Elipse 3966" cx="1.093" cy="1.045" rx="1.093" ry="1.045" transform="translate(19.666 0)" fill="#fff"/>
              <path id="Trazado_99246" data-name="Trazado 99246" d="M441.738,88.808a1.094,1.094,0,1,1-1.093-1.045A1.069,1.069,0,0,1,441.738,88.808Z" transform="translate(-410.054 -87.763)" fill="#fff"/>
              <path id="Trazado_99247" data-name="Trazado 99247" d="M450.184,88.808a1.094,1.094,0,1,1-1.092-1.045A1.069,1.069,0,0,1,450.184,88.808Z" transform="translate(-408.667 -87.763)" fill="#fff"/>
              <ellipse id="Elipse_3967" data-name="Elipse 3967" cx="1.093" cy="1.045" rx="1.093" ry="1.045" transform="translate(49.165 0)" fill="#fff"/>
              <path id="Trazado_99248" data-name="Trazado 99248" d="M467.077,88.808a1.094,1.094,0,1,1-1.093-1.045A1.07,1.07,0,0,1,467.077,88.808Z" transform="translate(-405.893 -87.763)" fill="#fff"/>
              <ellipse id="Elipse_3968" data-name="Elipse 3968" cx="1.093" cy="1.045" rx="1.093" ry="1.045" transform="translate(68.831 0)" fill="#fff"/>
              <ellipse id="Elipse_3969" data-name="Elipse 3969" cx="1.093" cy="1.045" rx="1.093" ry="1.045" transform="translate(78.664 0)" fill="#fff"/>
              <path id="Trazado_99249" data-name="Trazado 99249" d="M492.416,88.808a1.094,1.094,0,1,1-1.093-1.045A1.07,1.07,0,0,1,492.416,88.808Z" transform="translate(-401.733 -87.763)" fill="#fff"/>
              <path id="Trazado_99250" data-name="Trazado 99250" d="M500.862,88.808a1.094,1.094,0,1,1-1.093-1.045A1.069,1.069,0,0,1,500.862,88.808Z" transform="translate(-400.347 -87.763)" fill="#fff"/>
            </g>
            <g id="Grupo_53312" data-name="Grupo 53312" transform="translate(0 50.152)">
              <ellipse id="Elipse_3970" data-name="Elipse 3970" cx="1.093" cy="1.045" rx="1.093" ry="1.045" fill="#fff"/>
              <path id="Trazado_99251" data-name="Trazado 99251" d="M424.845,96.315a1.094,1.094,0,1,1-1.092-1.044A1.069,1.069,0,0,1,424.845,96.315Z" transform="translate(-412.827 -95.271)" fill="#fff"/>
              <ellipse id="Elipse_3971" data-name="Elipse 3971" cx="1.093" cy="1.045" rx="1.093" ry="1.045" transform="translate(19.666)" fill="#fff"/>
              <path id="Trazado_99252" data-name="Trazado 99252" d="M441.738,96.315a1.094,1.094,0,1,1-1.093-1.044A1.07,1.07,0,0,1,441.738,96.315Z" transform="translate(-410.054 -95.271)" fill="#fff"/>
              <path id="Trazado_99253" data-name="Trazado 99253" d="M450.184,96.315a1.094,1.094,0,1,1-1.092-1.044A1.069,1.069,0,0,1,450.184,96.315Z" transform="translate(-408.667 -95.271)" fill="#fff"/>
              <ellipse id="Elipse_3972" data-name="Elipse 3972" cx="1.093" cy="1.045" rx="1.093" ry="1.045" transform="translate(49.165)" fill="#fff"/>
              <path id="Trazado_99254" data-name="Trazado 99254" d="M467.077,96.315a1.094,1.094,0,1,1-1.093-1.044A1.07,1.07,0,0,1,467.077,96.315Z" transform="translate(-405.893 -95.271)" fill="#fff"/>
              <ellipse id="Elipse_3973" data-name="Elipse 3973" cx="1.093" cy="1.045" rx="1.093" ry="1.045" transform="translate(68.831)" fill="#fff"/>
              <ellipse id="Elipse_3974" data-name="Elipse 3974" cx="1.093" cy="1.045" rx="1.093" ry="1.045" transform="translate(78.664)" fill="#fff"/>
              <path id="Trazado_99255" data-name="Trazado 99255" d="M492.416,96.315a1.094,1.094,0,1,1-1.093-1.044A1.07,1.07,0,0,1,492.416,96.315Z" transform="translate(-401.733 -95.271)" fill="#fff"/>
              <path id="Trazado_99256" data-name="Trazado 99256" d="M500.862,96.315a1.094,1.094,0,1,1-1.093-1.044A1.069,1.069,0,0,1,500.862,96.315Z" transform="translate(-400.347 -95.271)" fill="#fff"/>
            </g>
            <g id="Grupo_53313" data-name="Grupo 53313" transform="translate(0 58.511)">
              <path id="Trazado_99257" data-name="Trazado 99257" d="M416.4,103.823a1.094,1.094,0,1,1-1.093-1.044A1.07,1.07,0,0,1,416.4,103.823Z" transform="translate(-414.214 -102.779)" fill="#fff"/>
              <path id="Trazado_99258" data-name="Trazado 99258" d="M424.845,103.823a1.094,1.094,0,1,1-1.092-1.044A1.069,1.069,0,0,1,424.845,103.823Z" transform="translate(-412.827 -102.779)" fill="#fff"/>
              <path id="Trazado_99259" data-name="Trazado 99259" d="M433.291,103.823a1.094,1.094,0,1,1-1.092-1.044A1.069,1.069,0,0,1,433.291,103.823Z" transform="translate(-411.441 -102.779)" fill="#fff"/>
              <path id="Trazado_99260" data-name="Trazado 99260" d="M441.738,103.823a1.094,1.094,0,1,1-1.093-1.044A1.07,1.07,0,0,1,441.738,103.823Z" transform="translate(-410.054 -102.779)" fill="#fff"/>
              <path id="Trazado_99261" data-name="Trazado 99261" d="M450.184,103.823a1.094,1.094,0,1,1-1.092-1.044A1.069,1.069,0,0,1,450.184,103.823Z" transform="translate(-408.667 -102.779)" fill="#fff"/>
              <path id="Trazado_99262" data-name="Trazado 99262" d="M458.63,103.823a1.094,1.094,0,1,1-1.092-1.044A1.069,1.069,0,0,1,458.63,103.823Z" transform="translate(-407.28 -102.779)" fill="#fff"/>
              <path id="Trazado_99263" data-name="Trazado 99263" d="M467.077,103.823a1.094,1.094,0,1,1-1.093-1.044A1.07,1.07,0,0,1,467.077,103.823Z" transform="translate(-405.893 -102.779)" fill="#fff"/>
              <path id="Trazado_99264" data-name="Trazado 99264" d="M475.523,103.823a1.094,1.094,0,1,1-1.092-1.044A1.069,1.069,0,0,1,475.523,103.823Z" transform="translate(-404.507 -102.779)" fill="#fff"/>
              <path id="Trazado_99265" data-name="Trazado 99265" d="M483.969,103.823a1.094,1.094,0,1,1-1.092-1.044A1.069,1.069,0,0,1,483.969,103.823Z" transform="translate(-403.12 -102.779)" fill="#fff"/>
              <path id="Trazado_99266" data-name="Trazado 99266" d="M492.416,103.823a1.094,1.094,0,1,1-1.093-1.044A1.07,1.07,0,0,1,492.416,103.823Z" transform="translate(-401.733 -102.779)" fill="#fff"/>
              <path id="Trazado_99267" data-name="Trazado 99267" d="M500.862,103.823a1.094,1.094,0,1,1-1.093-1.044A1.069,1.069,0,0,1,500.862,103.823Z" transform="translate(-400.347 -102.779)" fill="#fff"/>
            </g>
            <g id="Grupo_53314" data-name="Grupo 53314" transform="translate(0 66.87)">
              <ellipse id="Elipse_3975" data-name="Elipse 3975" cx="1.093" cy="1.045" rx="1.093" ry="1.045" fill="#fff"/>
              <path id="Trazado_99268" data-name="Trazado 99268" d="M424.845,111.331a1.094,1.094,0,1,1-1.092-1.044A1.07,1.07,0,0,1,424.845,111.331Z" transform="translate(-412.827 -110.287)" fill="#fff"/>
              <ellipse id="Elipse_3976" data-name="Elipse 3976" cx="1.093" cy="1.045" rx="1.093" ry="1.045" transform="translate(19.666)" fill="#fff"/>
              <path id="Trazado_99269" data-name="Trazado 99269" d="M441.738,111.331a1.094,1.094,0,1,1-1.093-1.044A1.07,1.07,0,0,1,441.738,111.331Z" transform="translate(-410.054 -110.287)" fill="#fff"/>
              <path id="Trazado_99270" data-name="Trazado 99270" d="M450.184,111.331a1.094,1.094,0,1,1-1.092-1.044A1.07,1.07,0,0,1,450.184,111.331Z" transform="translate(-408.667 -110.287)" fill="#fff"/>
              <ellipse id="Elipse_3977" data-name="Elipse 3977" cx="1.093" cy="1.045" rx="1.093" ry="1.045" transform="translate(49.165)" fill="#fff"/>
              <path id="Trazado_99271" data-name="Trazado 99271" d="M467.077,111.331a1.094,1.094,0,1,1-1.093-1.044A1.071,1.071,0,0,1,467.077,111.331Z" transform="translate(-405.893 -110.287)" fill="#fff"/>
              <ellipse id="Elipse_3978" data-name="Elipse 3978" cx="1.093" cy="1.045" rx="1.093" ry="1.045" transform="translate(68.831)" fill="#fff"/>
              <ellipse id="Elipse_3979" data-name="Elipse 3979" cx="1.093" cy="1.045" rx="1.093" ry="1.045" transform="translate(78.664)" fill="#fff"/>
              <path id="Trazado_99272" data-name="Trazado 99272" d="M492.416,111.331a1.094,1.094,0,1,1-1.093-1.044A1.071,1.071,0,0,1,492.416,111.331Z" transform="translate(-401.733 -110.287)" fill="#fff"/>
              <path id="Trazado_99273" data-name="Trazado 99273" d="M500.862,111.331a1.094,1.094,0,1,1-1.093-1.044A1.07,1.07,0,0,1,500.862,111.331Z" transform="translate(-400.347 -110.287)" fill="#fff"/>
            </g>
            <g id="Grupo_53315" data-name="Grupo 53315" transform="translate(0 75.228)">
              <path id="Trazado_99274" data-name="Trazado 99274" d="M416.4,118.839a1.094,1.094,0,1,1-1.093-1.045A1.07,1.07,0,0,1,416.4,118.839Z" transform="translate(-414.214 -117.794)" fill="#fff"/>
              <path id="Trazado_99275" data-name="Trazado 99275" d="M424.845,118.839a1.094,1.094,0,1,1-1.092-1.045A1.07,1.07,0,0,1,424.845,118.839Z" transform="translate(-412.827 -117.794)" fill="#fff"/>
              <path id="Trazado_99276" data-name="Trazado 99276" d="M433.291,118.839a1.094,1.094,0,1,1-1.092-1.045A1.07,1.07,0,0,1,433.291,118.839Z" transform="translate(-411.441 -117.794)" fill="#fff"/>
              <path id="Trazado_99277" data-name="Trazado 99277" d="M441.738,118.839a1.094,1.094,0,1,1-1.093-1.045A1.07,1.07,0,0,1,441.738,118.839Z" transform="translate(-410.054 -117.794)" fill="#fff"/>
              <path id="Trazado_99278" data-name="Trazado 99278" d="M450.184,118.839a1.094,1.094,0,1,1-1.092-1.045A1.07,1.07,0,0,1,450.184,118.839Z" transform="translate(-408.667 -117.794)" fill="#fff"/>
              <path id="Trazado_99279" data-name="Trazado 99279" d="M458.63,118.839a1.094,1.094,0,1,1-1.092-1.045A1.07,1.07,0,0,1,458.63,118.839Z" transform="translate(-407.28 -117.794)" fill="#fff"/>
              <path id="Trazado_99280" data-name="Trazado 99280" d="M467.077,118.839a1.094,1.094,0,1,1-1.093-1.045A1.071,1.071,0,0,1,467.077,118.839Z" transform="translate(-405.893 -117.794)" fill="#fff"/>
              <path id="Trazado_99281" data-name="Trazado 99281" d="M475.523,118.839a1.094,1.094,0,1,1-1.092-1.045A1.07,1.07,0,0,1,475.523,118.839Z" transform="translate(-404.507 -117.794)" fill="#fff"/>
              <path id="Trazado_99282" data-name="Trazado 99282" d="M483.969,118.839a1.094,1.094,0,1,1-1.092-1.045A1.07,1.07,0,0,1,483.969,118.839Z" transform="translate(-403.12 -117.794)" fill="#fff"/>
              <path id="Trazado_99283" data-name="Trazado 99283" d="M492.416,118.839a1.094,1.094,0,1,1-1.093-1.045A1.071,1.071,0,0,1,492.416,118.839Z" transform="translate(-401.733 -117.794)" fill="#fff"/>
              <path id="Trazado_99284" data-name="Trazado 99284" d="M500.862,118.839a1.094,1.094,0,1,1-1.093-1.045A1.07,1.07,0,0,1,500.862,118.839Z" transform="translate(-400.347 -117.794)" fill="#fff"/>
            </g>
            <g id="Grupo_53316" data-name="Grupo 53316" transform="translate(0 83.587)">
              <ellipse id="Elipse_3980" data-name="Elipse 3980" cx="1.093" cy="1.045" rx="1.093" ry="1.045" transform="translate(0 0)" fill="#fff"/>
              <path id="Trazado_99285" data-name="Trazado 99285" d="M424.845,126.347a1.094,1.094,0,1,1-1.092-1.045A1.069,1.069,0,0,1,424.845,126.347Z" transform="translate(-412.827 -125.302)" fill="#fff"/>
              <ellipse id="Elipse_3981" data-name="Elipse 3981" cx="1.093" cy="1.045" rx="1.093" ry="1.045" transform="translate(19.666 0)" fill="#fff"/>
              <path id="Trazado_99286" data-name="Trazado 99286" d="M441.738,126.347a1.094,1.094,0,1,1-1.093-1.045A1.069,1.069,0,0,1,441.738,126.347Z" transform="translate(-410.054 -125.302)" fill="#fff"/>
              <path id="Trazado_99287" data-name="Trazado 99287" d="M450.184,126.347a1.094,1.094,0,1,1-1.092-1.045A1.069,1.069,0,0,1,450.184,126.347Z" transform="translate(-408.667 -125.302)" fill="#fff"/>
              <ellipse id="Elipse_3982" data-name="Elipse 3982" cx="1.093" cy="1.045" rx="1.093" ry="1.045" transform="translate(49.165 0)" fill="#fff"/>
              <path id="Trazado_99288" data-name="Trazado 99288" d="M467.077,126.347a1.094,1.094,0,1,1-1.093-1.045A1.07,1.07,0,0,1,467.077,126.347Z" transform="translate(-405.893 -125.302)" fill="#fff"/>
              <ellipse id="Elipse_3983" data-name="Elipse 3983" cx="1.093" cy="1.045" rx="1.093" ry="1.045" transform="translate(68.831 0)" fill="#fff"/>
              <ellipse id="Elipse_3984" data-name="Elipse 3984" cx="1.093" cy="1.045" rx="1.093" ry="1.045" transform="translate(78.664 0)" fill="#fff"/>
              <path id="Trazado_99289" data-name="Trazado 99289" d="M492.416,126.347a1.094,1.094,0,1,1-1.093-1.045A1.07,1.07,0,0,1,492.416,126.347Z" transform="translate(-401.733 -125.302)" fill="#fff"/>
              <path id="Trazado_99290" data-name="Trazado 99290" d="M500.862,126.347a1.094,1.094,0,1,1-1.093-1.045A1.069,1.069,0,0,1,500.862,126.347Z" transform="translate(-400.347 -125.302)" fill="#fff"/>
            </g>
            <g id="Grupo_53317" data-name="Grupo 53317" transform="translate(0 91.947)">
              <ellipse id="Elipse_3985" data-name="Elipse 3985" cx="1.093" cy="1.045" rx="1.093" ry="1.045" transform="translate(0 0)" fill="#fff"/>
              <path id="Trazado_99291" data-name="Trazado 99291" d="M424.845,133.855a1.094,1.094,0,1,1-1.092-1.045A1.069,1.069,0,0,1,424.845,133.855Z" transform="translate(-412.827 -132.81)" fill="#fff"/>
              <ellipse id="Elipse_3986" data-name="Elipse 3986" cx="1.093" cy="1.045" rx="1.093" ry="1.045" transform="translate(19.666 0)" fill="#fff"/>
              <path id="Trazado_99292" data-name="Trazado 99292" d="M441.738,133.855a1.094,1.094,0,1,1-1.093-1.045A1.069,1.069,0,0,1,441.738,133.855Z" transform="translate(-410.054 -132.81)" fill="#fff"/>
              <path id="Trazado_99293" data-name="Trazado 99293" d="M450.184,133.855a1.094,1.094,0,1,1-1.092-1.045A1.069,1.069,0,0,1,450.184,133.855Z" transform="translate(-408.667 -132.81)" fill="#fff"/>
              <ellipse id="Elipse_3987" data-name="Elipse 3987" cx="1.093" cy="1.045" rx="1.093" ry="1.045" transform="translate(49.165 0)" fill="#fff"/>
              <path id="Trazado_99294" data-name="Trazado 99294" d="M467.077,133.855a1.094,1.094,0,1,1-1.093-1.045A1.07,1.07,0,0,1,467.077,133.855Z" transform="translate(-405.893 -132.81)" fill="#fff"/>
              <ellipse id="Elipse_3988" data-name="Elipse 3988" cx="1.093" cy="1.045" rx="1.093" ry="1.045" transform="translate(68.831 0)" fill="#fff"/>
              <ellipse id="Elipse_3989" data-name="Elipse 3989" cx="1.093" cy="1.045" rx="1.093" ry="1.045" transform="translate(78.664 0)" fill="#fff"/>
              <path id="Trazado_99295" data-name="Trazado 99295" d="M492.416,133.855a1.094,1.094,0,1,1-1.093-1.045A1.07,1.07,0,0,1,492.416,133.855Z" transform="translate(-401.733 -132.81)" fill="#fff"/>
              <path id="Trazado_99296" data-name="Trazado 99296" d="M500.862,133.855a1.094,1.094,0,1,1-1.093-1.045A1.069,1.069,0,0,1,500.862,133.855Z" transform="translate(-400.347 -132.81)" fill="#fff"/>
            </g>
          </g>
        </g>
        <line id="Línea_138" data-name="Línea 138" y2="175" transform="translate(17.548 99.529)" fill="none" stroke="#31313c" stroke-linecap="round" stroke-width="4" stroke-dasharray="8"/>
      </g>
    </g>
    <g id="Grupo_158064" data-name="Grupo 158064" transform="translate(945 412)">
      <g id="Grupo_158065" data-name="Grupo 158065" transform="translate(0 0)">
        <path id="Trazado_152551" data-name="Trazado 152551" d="M983.414,860.014l-1.52.9-73.975,53.052,21.385,13.5a25.979,25.979,0,0,0,28.211-.312l54.19-35.9Z" transform="translate(-755.646 -680.234)" fill="#f9c6b7"/>
        <path id="Trazado_152552" data-name="Trazado 152552" d="M729.995,676.007c-21.861-14.025-44.8-5.031-68.3,16.182l-33.733,16.952,43.512,39.867Z" transform="translate(-415.412 -529.351)" fill="#31313c"/>
        <path id="Rectángulo_35110" data-name="Rectángulo 35110" d="M2.447-2.154H-1.7a.45.45,0,0,0-.45.45V56.57a.45.45,0,0,0,.45.45h4.15a.45.45,0,0,0,.45-.45V-1.7A.45.45,0,0,0,2.447-2.154Zm-3.7.9H2V56.12h-3.25Z" transform="translate(121.243 29.63)" fill="#b4daef"/>
        <path id="Trazado_152553" data-name="Trazado 152553" d="M726.421,1441.408l-1.646,9.24H584.734l33.322-54.7Z" transform="translate(-402.802 -1104.133)" fill="#231f20"/>
        <path id="Trazado_152554" data-name="Trazado 152554" d="M48.131,1315.543l7.759,49.2a22.873,22.873,0,0,1-24.873,26.382,66.535,66.535,0,0,1-17.268-4.6L0,1315.954Z" transform="translate(389.677 -1040.537)" fill="#f9c6b7"/>
        <path id="Trazado_152555" data-name="Trazado 152555" d="M1587.862,553.478a49.17,49.17,0,0,1-7.284-8.627,99.014,99.014,0,0,1-6.029-9.94l-10.287-18.561c-5.486,2.616-11.885,3.617-17.935,4.206a3.312,3.312,0,0,1-2.141-.288,2.343,2.343,0,0,1-.349-3.187,6.808,6.808,0,0,1,2.858-2.066l13.168-6.364c-5.106-1.068-8.9-3.855-13.345-6.591-4-2.466-7.9-6.077-8.286-10.764a1.329,1.329,0,0,1,1.467-1.732c3.257-.172,6.386,1.158,9.351,2.515q8.376,3.834,16.471,8.244a76.808,76.808,0,0,0-9.474-8.5c-3.677-2.852-7.164-6.282-8.668-10.686A1.609,1.609,0,0,1,1547.3,480a1.417,1.417,0,0,1,.786-.669c2.218-.969,4.759.113,6.874,1.289a68.7,68.7,0,0,1,16.755,13.089,72.515,72.515,0,0,1-9.272-12.983,7.8,7.8,0,0,1-1.106-3.112,2.868,2.868,0,0,1,1.411-2.8c1.163-.552,2.529.04,3.635.7,6.474,3.855,11.113,10.089,15.575,16.16l34.145,40.653Z" transform="translate(-1491.801 -375.389)" fill="#f9c6b7"/>
        <path id="Trazado_152556" data-name="Trazado 152556" d="M416.636,727.885l23.6,9.15-1.172,77.3L386.288,869.81l-13.969,29.75-113-52.375L294.7,789.4c6.023-20.986,9.139-28.568,21.484-47.761l46.99-40.079,14.8,8.228Z" transform="translate(-48.589 -554.901)" fill="#31313c"/>
        <path id="Trazado_152557" data-name="Trazado 152557" d="M690.34,838.832a.45.45,0,0,0,.432-.326c1.21-4.217,2.191-7.5,3.085-10.316,1.016-3.2,1.978-5.993,2.943-8.531a111.492,111.492,0,0,1,7.246-15.409,72.006,72.006,0,0,1,8.058-11.553,73.427,73.427,0,0,1,10.143-9.781L745.7,764.29a.45.45,0,0,0-.56-.705l-23.45,18.626a74.337,74.337,0,0,0-10.267,9.9,72.91,72.91,0,0,0-8.159,11.7,112.357,112.357,0,0,0-7.3,15.529c-.971,2.553-1.939,5.359-2.96,8.579-.9,2.829-1.88,6.115-3.093,10.34a.451.451,0,0,0,.433.575Z" transform="translate(-444.231 -603.885)" fill="#231f20"/>
        <path id="Trazado_152558" data-name="Trazado 152558" d="M31.8,871.276c21.8,3.577,36.65,16.794,38.928,48.223l11.18,48.972-53.452.576-8.845-25.959Z" transform="translate(359.84 -689.141)" fill="#31313c"/>
        <path id="Trazado_152559" data-name="Trazado 152559" d="M149.269,368.734a31.482,31.482,0,0,0,10.563.773,104.121,104.121,0,0,0,36.619-10.6,40.96,40.96,0,0,0,17.661-16.457c7.088-12.831,4.157-28.808-5.383-39.85-7.976-9.232-20.957-14.323-33.456-13.12-12.855,1.237-19.743,12.759-24.661,23.409q-2.581,5.588-4.947,11.272c-1.4,3.355-2.506,6.782-3.967,10.138-4.785,10.993-7.552,30.5,7.571,34.434" transform="translate(198.985 -228.828)" fill="#f9c6b7"/>
        <path id="Trazado_152560" data-name="Trazado 152560" d="M322.151,620.765l-23.86,43.217c-29.623,7.971-45.462,4.406-38.669-18.1,5.517-3.051,10.253-11.591,14.809-21.392Z" transform="translate(69.756 -490.998)" fill="#f9c6b7"/>
        <path id="Rectángulo_35111" data-name="Rectángulo 35111" d="M180.886-2.154H9.054A11.2,11.2,0,0,0-2.154,9.054V333.6A11.2,11.2,0,0,0,9.054,344.811H180.886A11.2,11.2,0,0,0,192.094,333.6V9.054A11.2,11.2,0,0,0,180.886-2.154ZM9.054,343.911A10.3,10.3,0,0,1-1.253,333.6V9.054A10.3,10.3,0,0,1,9.054-1.253H180.886A10.3,10.3,0,0,1,191.193,9.054V333.6a10.3,10.3,0,0,1-10.307,10.307Z" transform="translate(125.393 2.154)" fill="#31313c"/>
        <path id="Rectángulo_35112" data-name="Rectángulo 35112" d="M175.836-2.154H8.756A10.9,10.9,0,0,0-2.154,8.756V324.33a10.9,10.9,0,0,0,10.91,10.91h167.08a10.9,10.9,0,0,0,10.91-10.91V8.756a10.9,10.9,0,0,0-10.91-10.91ZM8.756,334.34A10,10,0,0,1-1.253,324.33V8.756A10,10,0,0,1,8.756-1.253H175.836a10,10,0,0,1,10.01,10.01V324.33a10,10,0,0,1-10.01,10.01Z" transform="translate(128.067 6.939)" fill="#31313c"/>
        <path id="Trazado_152561" data-name="Trazado 152561" d="M1043.257,66.033a6.171,6.171,0,1,0,6.171-6.171,6.171,6.171,0,0,0-6.171,6.171" transform="translate(-827.83 -47.347)" fill="#231f20"/>
        <path id="Trazado_152562" data-name="Trazado 152562" d="M289.355,1332.392l-86.395-55.1,10.112-30.191,75.356,32.492Z" transform="translate(114.071 -986.405)" fill="#f9c6b7"/>
        <path id="Trazado_152563" data-name="Trazado 152563" d="M1323.462,807.718l-65.151-56.2L1231,772.508l56.212,55.646Z" transform="translate(-1134.942 -594.418)" fill="#f9c6b7"/>
        <path id="Trazado_152564" data-name="Trazado 152564" d="M387.439,462.609a.456.456,0,0,0,.084-.008.45.45,0,0,0,.358-.526c-.278-1.466-.573-2.676-.81-3.648-.412-1.69-.684-2.806-.352-3.209.422-.512,2.2-.469,5.091-.337a.45.45,0,0,0,.4-.2l5.348-8.181A.45.45,0,1,0,396.8,446L391.6,453.97a34.226,34.226,0,0,0-3.58-.046,4.9,4.9,0,0,0-1.172.2,1.711,1.711,0,0,0-.819.523,2.127,2.127,0,0,0-.324,1.626,21.11,21.11,0,0,0,.5,2.368c.234.962.526,2.159.8,3.6A.45.45,0,0,0,387.439,462.609Z" transform="translate(-32.398 -352.608)" fill="#231f20"/>
        <path id="Trazado_152565" data-name="Trazado 152565" d="M402.354,553.439a7.889,7.889,0,0,0,2.684-.489,12.673,12.673,0,0,0,3.546-2.07.45.45,0,0,0-.562-.7,11.784,11.784,0,0,1-3.29,1.927,6.784,6.784,0,0,1-2.984.406,6.964,6.964,0,0,1-2.787-.932,11.934,11.934,0,0,1-2.672-2.18.45.45,0,1,0-.655.618,12.827,12.827,0,0,0,2.878,2.343,7.857,7.857,0,0,0,3.147,1.048Q402,553.439,402.354,553.439Z" transform="translate(-45.579 -434.437)" fill="#231f20"/>
        <path id="Trazado_152566" data-name="Trazado 152566" d="M335.864,479.15c-.523,1.37-.337,2.713.415,3s1.785-.591,2.308-1.961.337-2.713-.415-3-1.786.591-2.308,1.961" transform="translate(36.82 -377.392)" fill="#231f20"/>
        <path id="Trazado_152567" data-name="Trazado 152567" d="M429.773,435.137c-.523,1.37-.337,2.713.415,3s1.785-.591,2.308-1.961.337-2.713-.415-3-1.785.591-2.308,1.961" transform="translate(-76.719 -342.58)" fill="#231f20"/>
        <path id="Trazado_152568" data-name="Trazado 152568" d="M297.438,423.579c-1.061-1.064-3.092-3.108-1.722-4.647.863-.971,2.538-.746,3.635-.391a22.42,22.42,0,0,1,9.744,8.133,4.25,4.25,0,0,1,.578,1.954,2.053,2.053,0,0,1-.886,1.758c-1.8,1.1-4.2-1.3-5.576-2.219a37.621,37.621,0,0,1-5.772-4.587" transform="translate(74.46 -330.807)" fill="#231f20"/>
        <path id="Trazado_152569" data-name="Trazado 152569" d="M399.636,375.734c-.7-.669-1.347-1.364-1.1-2.367a3.324,3.324,0,0,1,1.852-2.094c2.006-.646,4.753,1.779,6.139,2.862a15.456,15.456,0,0,1,4.189,4.384,3.673,3.673,0,0,1,.549,1.758,1.818,1.818,0,0,1-.842,1.582c-1.709.986-4-1.17-5.3-2a35.522,35.522,0,0,1-5.487-4.128" transform="translate(-48.713 -293.575)" fill="#231f20"/>
        <path id="Trazado_152570" data-name="Trazado 152570" d="M136.13,306.844c-2.243.082-3.933-2.317-3.944-4.561s1.157-4.3,2.291-6.24l9.221-15.757c-.267-1.539-2.158-2.814-3.64-3.307-3.825-1.274-8.256.317-11.935-1.333-3.994-1.791-5.639-6.711-9.3-9.112-4.043-2.653-9.74-1.73-13.637-4.593a8.313,8.313,0,0,1,5.673-14.978c.014-2.78,2.27-5.085,4.753-6.338a14.756,14.756,0,0,1,12.821-.13c2.4,1.152,4.567,2.99,7.208,3.335,2.045.267,4.089-.409,6.149-.5a10.993,10.993,0,0,1,8.017,3.038c2.8,2.7,3.97,6.712,6.608,9.568,3.5,3.793,9.234,5.182,12.157,9.438a10.178,10.178,0,0,1-.268,11.587c3.793,1.63,5.37,5.794,5.276,9.921s-2,8.01-4.346,11.409c-4.714,6.839-8.3,13.319-15.692,17.623-4.143,2.412-8.557,4.567-11.837,8.063-2.209,2.354-3.8,5.216-5.888,7.68a3.812,3.812,0,0,1-1.938,1.43,2.806,2.806,0,0,1-2.994-2.039,7.825,7.825,0,0,1,.053-3.925,119.806,119.806,0,0,1,5.728-20.172" transform="translate(250.978 -189.112)" fill="#231f20"/>
        <path id="Trazado_152571" data-name="Trazado 152571" d="M928.872,215.478h123.2a19.353,19.353,0,0,0,19.353-19.352v-3.288a19.353,19.353,0,0,0-19.353-19.353h-123.2a19.353,19.353,0,0,0-19.353,19.353v3.288a19.353,19.353,0,0,0,19.353,19.352" transform="translate(-815.703 -137.218)" fill="#fdb768"/>
        <path id="Trazado_152572" data-name="Trazado 152572" d="M562.537,312.718h22.586a19.784,19.784,0,0,0,19.784-19.784v-2.425a19.784,19.784,0,0,0-19.784-19.784H562.537a19.784,19.784,0,0,0-19.784,19.784v2.425a19.784,19.784,0,0,0,19.784,19.784" transform="translate(-272.512 -214.131)" fill="#785549"/>
        <rect id="Rectángulo_35113" data-name="Rectángulo 35113" width="82.595" height="75.871" transform="translate(197.279 106.087)" fill="#ebc9b1"/>
        <path id="Trazado_152573" data-name="Trazado 152573" d="M747.1,1074.043h80.057a28.552,28.552,0,0,0,28.552-28.552v-2.561a28.552,28.552,0,0,0-28.552-28.552H747.1a28.552,28.552,0,0,0-28.552,28.552v2.561a28.552,28.552,0,0,0,28.552,28.552" transform="translate(-560.069 -802.329)" fill="#fd9827"/>
        <path id="Trazado_152574" data-name="Trazado 152574" d="M926.863,584.476a11.365,11.365,0,1,0,11.365-11.365,11.365,11.365,0,0,0-11.365,11.365" transform="translate(-697.495 -453.305)" fill="#fff"/>
        <path id="Trazado_152575" data-name="Trazado 152575" d="M876.052,718a22.094,22.094,0,0,1,43.974,0Z" transform="translate(-657.305 -552.147)" fill="#fff"/>
        <path id="Rectángulo_35114" data-name="Rectángulo 35114" d="M133.9-2.154H17.2a19.5,19.5,0,0,0-3.9.393A19.251,19.251,0,0,0,6.38,1.152,19.41,19.41,0,0,0-.632,9.667,19.261,19.261,0,0,0-1.76,13.3a19.5,19.5,0,0,0-.393,3.9v4.183a19.5,19.5,0,0,0,.393,3.9,19.251,19.251,0,0,0,2.913,6.922,19.41,19.41,0,0,0,8.515,7.012A19.261,19.261,0,0,0,13.3,40.346a19.5,19.5,0,0,0,3.9.393H133.9a19.5,19.5,0,0,0,3.9-.393,19.251,19.251,0,0,0,6.922-2.913,19.41,19.41,0,0,0,7.012-8.515,19.261,19.261,0,0,0,1.128-3.634,19.5,19.5,0,0,0,.393-3.9V17.2a19.5,19.5,0,0,0-.393-3.9,19.252,19.252,0,0,0-2.913-6.922A19.41,19.41,0,0,0,141.43-.632,19.262,19.262,0,0,0,137.8-1.76,19.5,19.5,0,0,0,133.9-2.154ZM17.2,39.839a18.594,18.594,0,0,1-3.72-.375,18.351,18.351,0,0,1-6.6-2.777A18.51,18.51,0,0,1,.2,28.568,18.358,18.358,0,0,1-.878,25.1a18.593,18.593,0,0,1-.375-3.72V17.2a18.593,18.593,0,0,1,.375-3.72A18.351,18.351,0,0,1,1.9,6.884,18.51,18.51,0,0,1,10.018.2,18.36,18.36,0,0,1,13.482-.878a18.594,18.594,0,0,1,3.72-.375H133.9a18.594,18.594,0,0,1,3.72.375,18.351,18.351,0,0,1,6.6,2.777,18.51,18.51,0,0,1,6.687,8.12,18.359,18.359,0,0,1,1.075,3.464,18.593,18.593,0,0,1,.375,3.72v4.183a18.593,18.593,0,0,1-.375,3.72,18.351,18.351,0,0,1-2.777,6.6,18.51,18.51,0,0,1-8.12,6.687,18.36,18.36,0,0,1-3.464,1.075,18.594,18.594,0,0,1-3.72.375Z" transform="translate(17.072 100.477)" fill="#31313c"/>
        <path id="Trazado_152576" data-name="Trazado 152576" d="M1397.489,526.136l-1.749,5.384h-5.661a1.553,1.553,0,0,0-.913,2.809l4.58,3.328L1392,543.04a1.553,1.553,0,0,0,2.39,1.736l4.58-3.328,4.58,3.328a1.553,1.553,0,0,0,2.389-1.736l-1.749-5.384,4.58-3.328a1.553,1.553,0,0,0-.913-2.809h-5.661l-1.749-5.384a1.553,1.553,0,0,0-2.953,0" transform="translate(-1253.817 -415.301)" fill="#31313c"/>
        <path id="Trazado_152577" data-name="Trazado 152577" d="M1534.22,526.136l-1.749,5.384h-5.661a1.553,1.553,0,0,0-.913,2.809l4.58,3.328-1.749,5.384a1.553,1.553,0,0,0,2.389,1.736l4.58-3.328,4.58,3.328a1.553,1.553,0,0,0,2.389-1.736l-1.749-5.384,4.58-3.328a1.553,1.553,0,0,0-.913-2.809h-5.661l-1.749-5.384a1.553,1.553,0,0,0-2.954,0" transform="translate(-1419.13 -415.301)" fill="#31313c"/>
        <path id="Trazado_152578" data-name="Trazado 152578" d="M1650.554,526.136l-1.749,5.384h-5.661a1.553,1.553,0,0,0-.913,2.809l4.58,3.328-1.749,5.384a1.553,1.553,0,0,0,2.39,1.736l4.58-3.328,4.58,3.328A1.553,1.553,0,0,0,1659,543.04l-1.749-5.384,4.58-3.328a1.553,1.553,0,0,0-.913-2.809h-5.661l-1.749-5.384a1.553,1.553,0,0,0-2.954,0" transform="translate(-1559.783 -415.301)" fill="#31313c"/>
        <path id="Trazado_152579" data-name="Trazado 152579" d="M1775.024,526.136l-1.749,5.384h-5.661a1.553,1.553,0,0,0-.913,2.809l4.58,3.328-1.75,5.384a1.553,1.553,0,0,0,2.389,1.736l4.58-3.328,4.58,3.328a1.553,1.553,0,0,0,2.389-1.736l-1.749-5.384,4.58-3.328a1.553,1.553,0,0,0-.913-2.809h-5.661l-1.749-5.384a1.553,1.553,0,0,0-2.954,0" transform="translate(-1710.273 -415.301)" fill="#31313c"/>
        <path id="Trazado_152580" data-name="Trazado 152580" d="M1902.218,526.136l-1.749,5.384h-5.661a1.553,1.553,0,0,0-.913,2.809l4.58,3.328-1.75,5.384a1.553,1.553,0,0,0,2.39,1.736l4.58-3.328,4.58,3.328a1.553,1.553,0,0,0,2.389-1.736l-1.749-5.384,4.58-3.328a1.553,1.553,0,0,0-.913-2.809h-5.661l-1.749-5.384a1.553,1.553,0,0,0-2.953,0" transform="translate(-1864.056 -415.301)" fill="#31313c"/>
        <path id="Trazado_152581" data-name="Trazado 152581" d="M141.916,526.385a16.027,16.027,0,1,0,16.027-16.027,16.027,16.027,0,0,0-16.027,16.027" transform="translate(242.216 -403.671)" fill="#f9c6b7"/>
        <path id="Trazado_152582" data-name="Trazado 152582" d="M162.01,542.372a.45.45,0,0,0,.45-.45,11.021,11.021,0,1,1,22.041,0,.45.45,0,0,0,.9,0,11.867,11.867,0,0,0-2.036-6.665,11.955,11.955,0,0,0-5.244-4.319,11.905,11.905,0,0,0-11.306,1.1,11.954,11.954,0,0,0-4.318,5.244,11.847,11.847,0,0,0-.937,4.64A.45.45,0,0,0,162.01,542.372Z" transform="translate(226.679 -419.207)" fill="#231f20"/>
        <path id="Trazado_152583" data-name="Trazado 152583" d="M1576.662,529.311a5.72,5.72,0,0,0-4.441-4.5l-27.717-10.6c-1.752-.67-3.877-1.3-5.373-.163-2.446,1.853-.444,5.743,1.824,7.81a47.928,47.928,0,0,0,13.837,8.807,7.611,7.611,0,0,1,3.24,1.988,7.5,7.5,0,0,1,1.127,4.067c.761,8.382,3.439,16.833,9.035,23.121,3.555,3.994,20.729,15.028,19.719,3.2-.454-5.326-3.592-11.222-5.308-16.265Z" transform="translate(-1463.613 -406.097)" fill="#f9c6b7"/>
        <path id="Trazado_152584" data-name="Trazado 152584" d="M1661.025,558.592a.45.45,0,0,0,.336-.75,33.276,33.276,0,0,1-6.244-10.632,47.574,47.574,0,0,1-2.678-12.23l-.011-.125a15.924,15.924,0,0,0-.293-2.143,4.626,4.626,0,0,0-2.438-3.29,15.56,15.56,0,0,0-1.721-.8l-.179-.074a47.481,47.481,0,0,1-13.707-8.724,10.141,10.141,0,0,1-2-2.54,5.445,5.445,0,0,1-.791-2.767,2.468,2.468,0,0,1,.246-1,2.33,2.33,0,0,1,.692-.817,3.072,3.072,0,0,1,2.271-.506,11.108,11.108,0,0,1,2.659.727l12.915,5.661a.45.45,0,0,0,.362-.825l-12.925-5.665-.02-.008a11.949,11.949,0,0,0-2.9-.785,4.92,4.92,0,0,0-1.5.055,3.464,3.464,0,0,0-1.4.629,3.222,3.222,0,0,0-.954,1.133,3.363,3.363,0,0,0-.339,1.357,6.323,6.323,0,0,0,.9,3.242,11.07,11.07,0,0,0,2.185,2.771,48.384,48.384,0,0,0,13.967,8.89l.18.075a4.938,4.938,0,0,1,3.9,5.48l.011.126a48.45,48.45,0,0,0,2.731,12.462,34.17,34.17,0,0,0,6.416,10.917A.449.449,0,0,0,1661.025,558.592Z" transform="translate(-1556.445 -404.395)" fill="#231f20"/>
        <path id="Trazado_152585" data-name="Trazado 152585" d="M619.888,1091.407l-20.644-29.9c-2.256-3.267-4.586-6.61-7.861-8.856-3.531-2.421-7.844-3.351-12.036-4.231-4.426-.928-31.154-8.85-31-2.779.105,4.179,7.84,5.654,10.629,6.3,5.667,1.311,11.431,2.639,16.422,5.768a188.479,188.479,0,0,0-25.356-6.3,10.244,10.244,0,0,0-4.21-.11,3.212,3.212,0,0,0-1.255,5.966,10.647,10.647,0,0,0,3.358,1.475l23.569,7.244c-7.594-2.176-14.51-3.524-22.234-5.179-2.277-.488-4.736-.937-6.866.007a2.886,2.886,0,0,0-1.746,1.784c-.3,1.225.652,2.4,1.671,3.147a20.653,20.653,0,0,0,6.8,2.8l19.533,5.417a140.022,140.022,0,0,0-23.083-3.849c-1.894-.127-4.392.287-4.685,2.162-.279,1.787,1.767,2.963,3.47,3.57a238.137,238.137,0,0,0,27.549,7.978c9.12,14.348,17.038,24.563,32.16,32.332Z" transform="translate(-287.044 -825.258)" fill="#f9c6b7"/>
        <path id="Trazado_152586" data-name="Trazado 152586" d="M1127.619,238.33a.45.45,0,0,0,.341-.744,62.523,62.523,0,0,0-14.91-12.6,15.1,15.1,0,0,0-2.432-1.189,10.843,10.843,0,0,0-2.649-.665,4.625,4.625,0,0,0-4.6,1.765,7.364,7.364,0,0,0-1.013,3.105,10.062,10.062,0,0,1-.484,2.039,4.637,4.637,0,0,1-1.357,1.863,6.193,6.193,0,0,1-2.109,1.13,8.711,8.711,0,0,1-5.045.028,15.265,15.265,0,0,1-3.454-1.586c-1.109-.666-2.2-1.447-3.251-2.2-.726-.521-1.477-1.059-2.233-1.559a22.28,22.28,0,0,0-5.284-2.541,21.456,21.456,0,0,0-2.875-.73,18.5,18.5,0,0,0-2.9-.294q-.166,0-.331,0a12.951,12.951,0,0,0-5.11.967,9.484,9.484,0,0,0-4.219,3.463,18.654,18.654,0,0,0-1.089,1.928,11.509,11.509,0,0,1-1.647,2.617,5.8,5.8,0,0,1-1.372,1.1,6,6,0,0,1-1.573.623,9.2,9.2,0,0,1-3.625.062,18.67,18.67,0,0,1-3.9-1.128,32.2,32.2,0,0,1-3.708-1.784l-15.266-8.506a41.476,41.476,0,0,0-3.907-1.991,13.706,13.706,0,0,0-4.27-1.124,8.647,8.647,0,0,0-4.475.848,6.789,6.789,0,0,0-1.839,1.319,5.535,5.535,0,0,0-1.234,1.915,10.664,10.664,0,0,0-.486,2.085,6.928,6.928,0,0,1-.715,2.475,3.893,3.893,0,0,1-2.879,1.736,7.871,7.871,0,0,1-3.823-.468,26.673,26.673,0,0,1-2.773-1.314,16.984,16.984,0,0,0-4.674-1.872.45.45,0,1,0-.165.885,16.066,16.066,0,0,1,4.422,1.786,27.365,27.365,0,0,0,2.869,1.357,9.154,9.154,0,0,0,2.1.525,7.99,7.99,0,0,0,2.175-.007,5.571,5.571,0,0,0,2-.674,4.209,4.209,0,0,0,1.52-1.492,7.7,7.7,0,0,0,.83-2.791,9.839,9.839,0,0,1,.44-1.911,4.642,4.642,0,0,1,1.035-1.6,5.892,5.892,0,0,1,1.6-1.143,7.442,7.442,0,0,1,1.947-.645,7.817,7.817,0,0,1,2.056-.112,12.827,12.827,0,0,1,3.99,1.055,39.446,39.446,0,0,1,3.82,1.948l15.266,8.506a33.113,33.113,0,0,0,3.813,1.834,19.567,19.567,0,0,0,4.1,1.181,10.086,10.086,0,0,0,3.981-.076,6.682,6.682,0,0,0,3.394-1.993,12.352,12.352,0,0,0,1.785-2.815,18.014,18.014,0,0,1,1.034-1.836,8.6,8.6,0,0,1,3.826-3.138,12.234,12.234,0,0,1,5.069-.892,17.6,17.6,0,0,1,2.754.28,20.55,20.55,0,0,1,2.754.7,21.369,21.369,0,0,1,5.067,2.436c.742.491,1.486,1.024,2.205,1.54a24.322,24.322,0,0,0,6.971,3.919,9.634,9.634,0,0,0,5.578-.033,7.091,7.091,0,0,0,2.412-1.3,5.526,5.526,0,0,0,1.616-2.222,10.894,10.894,0,0,0,.535-2.221,6.6,6.6,0,0,1,.864-2.74,3.135,3.135,0,0,1,1.6-1.2,5.038,5.038,0,0,1,2.165-.182,9.949,9.949,0,0,1,2.427.612,14.18,14.18,0,0,1,2.284,1.117,61.621,61.621,0,0,1,14.695,12.421A.449.449,0,0,0,1127.619,238.33Z" transform="translate(-891.242 -174.286)" fill="#785549"/>
        <path id="Trazado_152587" data-name="Trazado 152587" d="M1087.889,1408.866H1202.6a20.141,20.141,0,0,0,20.141-20.141h0a20.141,20.141,0,0,0-20.141-20.141H1087.889a20.141,20.141,0,0,0-20.141,20.141h0a20.141,20.141,0,0,0,20.141,20.141" transform="translate(-1000.097 -1082.491)" fill="#f5e8df"/>
        <path id="Trazado_152588" data-name="Trazado 152588" d="M1235.416,1450.027h.13a7.438,7.438,0,0,0,5.325-2.066,12.479,12.479,0,0,0,1.657-2.256,13.8,13.8,0,0,1,1.279-1.828,7.5,7.5,0,0,1,4.757-2.4,11.145,11.145,0,0,1,5.592.742,18.345,18.345,0,0,1,4.813,3.012,57.005,57.005,0,0,1,4.225,4.049.45.45,0,0,0,.646-.628,57.677,57.677,0,0,0-4.293-4.113,19.223,19.223,0,0,0-5.05-3.155,12.061,12.061,0,0,0-6.051-.8,9.4,9.4,0,0,0-2.9.859,7.676,7.676,0,0,0-2.415,1.835,14.7,14.7,0,0,0-1.365,1.945,11.617,11.617,0,0,1-1.532,2.1,5.786,5.786,0,0,1-2.132,1.354,7.706,7.706,0,0,1-2.565.446h-.12a11.86,11.86,0,0,1-5.218-1.3,35.4,35.4,0,0,1-4.813-3.125,38.305,38.305,0,0,0-4.641-3.049,13.239,13.239,0,0,0-5.707-1.555,8.8,8.8,0,0,0-2.881.385,6.837,6.837,0,0,0-2.535,1.44,13.631,13.631,0,0,0-2.159,2.768c-.93,1.43-1.808,2.781-3.258,3.321a3.866,3.866,0,0,1-1.655.226,6.1,6.1,0,0,1-1.719-.4,20.233,20.233,0,0,1-3.448-1.861l-.164-.1a43.085,43.085,0,0,0-11.4-4.99,5.07,5.07,0,0,0-2.737-.192,3.508,3.508,0,0,0-1.694,1.129,11.484,11.484,0,0,0-1.127,1.639,12.511,12.511,0,0,1-.932,1.4,5.913,5.913,0,0,1-4,2.033,10.19,10.19,0,0,1-4.84-.669,29.179,29.179,0,0,1-5.228-2.948c-1.115-.734-2.269-1.493-3.47-2.137a8.023,8.023,0,0,0-1.883-.767,3.649,3.649,0,0,0-2.092.046c-1.423.5-2.084,1.826-2.724,3.111a14.925,14.925,0,0,1-.763,1.407,4.037,4.037,0,0,1-.946,1.069,3.683,3.683,0,0,1-2.794.586,13.143,13.143,0,0,1-3.217-.963l-13.239-5.474a.45.45,0,1,0-.344.832l13.239,5.474a13.971,13.971,0,0,0,3.448,1.024,5.719,5.719,0,0,0,1.785-.033,3.99,3.99,0,0,0,1.662-.727,7.424,7.424,0,0,0,1.974-2.795,10.912,10.912,0,0,1,.953-1.674,2.654,2.654,0,0,1,1.261-.988,2.733,2.733,0,0,1,1.582-.022,7.158,7.158,0,0,1,1.672.686c1.165.625,2.3,1.373,3.4,2.1a29.859,29.859,0,0,0,5.394,3.034,11.1,11.1,0,0,0,5.276.725,6.793,6.793,0,0,0,4.594-2.359,13.124,13.124,0,0,0,1-1.5c.646-1.067,1.257-2.075,2.3-2.368a4.339,4.339,0,0,1,2.254.194,42.176,42.176,0,0,1,11.157,4.886l.163.1a21.225,21.225,0,0,0,3.609,1.94,5.553,5.553,0,0,0,4,.178c1.729-.644,2.731-2.184,3.7-3.674a12.96,12.96,0,0,1,2.008-2.591,5.94,5.94,0,0,1,2.2-1.25,7.912,7.912,0,0,1,2.588-.343,12.323,12.323,0,0,1,5.309,1.452,37.632,37.632,0,0,1,4.53,2.98,36.061,36.061,0,0,0,4.939,3.2A12.779,12.779,0,0,0,1235.416,1450.027Z" transform="translate(-1055.064 -1139.053)" fill="#231f20"/>
        <path id="Trazado_152589" data-name="Trazado 152589" d="M391.2,663.7l23.419,1.162-28.181,6.753Z" transform="translate(-49.545 -524.954)" fill="#f4a592"/>
        <path id="Línea_158" data-name="Línea 158" d="M-1.7,15.317a.45.45,0,0,0,.424-.3L4.627-1.553a.45.45,0,0,0-.273-.575.45.45,0,0,0-.575.273L-2.128,14.716a.45.45,0,0,0,.273.575A.449.449,0,0,0-1.7,15.317Z" transform="translate(393.611 113.188)" fill="#231f20"/>
        <path id="Línea_159" data-name="Línea 159" d="M5.47,25.191a.451.451,0,0,0,.435-.568L-1.269-1.822a.45.45,0,0,0-.552-.317.45.45,0,0,0-.317.552L5.036,24.858A.45.45,0,0,0,5.47,25.191Z" transform="translate(378.662 241.357)" fill="#231f20"/>
        <path id="Línea_160" data-name="Línea 160" d="M18.281,9.066a.45.45,0,0,0,.207-.85L-1.5-2.1A.45.45,0,0,0-2.1-1.91.45.45,0,0,0-1.91-1.3L18.075,9.016A.448.448,0,0,0,18.281,9.066Z" transform="translate(393.348 290.215)" fill="#231f20"/>
        <path id="Trazado_152590" data-name="Trazado 152590" d="M1456.251,914.75H1594.3a1.891,1.891,0,0,0,1.892-1.892V818.915a1.892,1.892,0,0,0-1.892-1.892H1456.251a1.892,1.892,0,0,0-1.892,1.892v93.944a1.892,1.892,0,0,0,1.892,1.892" transform="translate(-1454.359 -646.229)" fill="#785549"/>
        <path id="Rectángulo_35115" data-name="Rectángulo 35115" d="M.45,3.385H2.506a.45.45,0,0,0,.45-.45V.45A.45.45,0,0,0,2.506,0H.45A.45.45,0,0,0,0,.45V2.935A.45.45,0,0,0,.45,3.385Zm1.605-.9H.9V.9H2.056Z" transform="translate(136.762 180.717) rotate(-179.825)" fill="#31313c"/>
        <path id="Rectángulo_35116" data-name="Rectángulo 35116" d="M.45,3.385H5.063a.45.45,0,0,0,.45-.45V.45A.45.45,0,0,0,5.063,0H.45A.45.45,0,0,0,0,.45V2.935A.45.45,0,0,0,.45,3.385Zm4.163-.9H.9V.9H4.613Z" transform="translate(132.81 180.704) rotate(-179.826)" fill="#31313c"/>
        <path id="Rectángulo_35117" data-name="Rectángulo 35117" d="M.45,3.385H7.243a.45.45,0,0,0,.45-.45V.45A.45.45,0,0,0,7.243,0H.45A.45.45,0,0,0,0,.45V2.935A.45.45,0,0,0,.45,3.385Zm6.343-.9H.9V.9H6.793Z" transform="translate(125.834 180.683) rotate(-179.825)" fill="#31313c"/>
        <path id="Rectángulo_35118" data-name="Rectángulo 35118" d="M.45,3.385H7.8a.45.45,0,0,0,.45-.45V.45A.45.45,0,0,0,7.8,0H.45A.45.45,0,0,0,0,.45V2.935A.45.45,0,0,0,.45,3.385Zm6.9-.9H.9V.9H7.348Z" transform="translate(89.02 180.571) rotate(-179.826)" fill="#31313c"/>
        <path id="Rectángulo_35119" data-name="Rectángulo 35119" d="M.45,3.385H13.779a.45.45,0,0,0,.45-.45V.45a.45.45,0,0,0-.45-.45H.45A.45.45,0,0,0,0,.45V2.935A.45.45,0,0,0,.45,3.385Zm12.879-.9H.9V.9H13.329Z" transform="matrix(-1, -0.003, 0.003, -1, 111.692, 180.64)" fill="#31313c"/>
        <path id="Rectángulo_35120" data-name="Rectángulo 35120" d="M.45,3.385H5.125a.45.45,0,0,0,.45-.45V.45A.45.45,0,0,0,5.125,0H.45A.45.45,0,0,0,0,.45V2.935A.45.45,0,0,0,.45,3.385Zm4.225-.9H.9V.9H4.675Z" transform="matrix(-1, -0.003, 0.003, -1, 117.862, 180.659)" fill="#31313c"/>
        <path id="Rectángulo_35121" data-name="Rectángulo 35121" d="M.45,3.385H5.125a.45.45,0,0,0,.45-.45V.45A.45.45,0,0,0,5.125,0H.45A.45.45,0,0,0,0,.45V2.935A.45.45,0,0,0,.45,3.385Zm4.225-.9H.9V.9H4.675Z" transform="matrix(-1, -0.003, 0.003, -1, 95.933, 180.592)" fill="#31313c"/>
        <path id="Rectángulo_35122" data-name="Rectángulo 35122" d="M.45,3.385H3.585a.45.45,0,0,0,.45-.45V.45A.45.45,0,0,0,3.585,0H.45A.45.45,0,0,0,0,.45V2.935A.45.45,0,0,0,.45,3.385Zm2.685-.9H.9V.9H3.135Z" transform="matrix(-1, -0.003, 0.003, -1, 45.731, 180.439)" fill="#31313c"/>
        <path id="Rectángulo_35123" data-name="Rectángulo 35123" d="M.45,3.385H22.063a.45.45,0,0,0,.45-.45V.45a.45.45,0,0,0-.45-.45H.45A.45.45,0,0,0,0,.45V2.935A.45.45,0,0,0,.45,3.385Zm21.163-.9H.9V.9H21.613Z" transform="translate(40.561 180.423) rotate(-179.825)" fill="#31313c"/>
        <path id="Rectángulo_35124" data-name="Rectángulo 35124" d="M.45,3.385H12.409a.45.45,0,0,0,.45-.45V.45a.45.45,0,0,0-.45-.45H.45A.45.45,0,0,0,0,.45V2.935A.45.45,0,0,0,.45,3.385Zm11.509-.9H.9V.9H11.959Z" transform="translate(59.745 180.482) rotate(-179.826)" fill="#31313c"/>
        <path id="Rectángulo_35125" data-name="Rectángulo 35125" d="M.45,3.385H15.862a.45.45,0,0,0,.45-.45V.45a.45.45,0,0,0-.45-.45H.45A.45.45,0,0,0,0,.45V2.935A.45.45,0,0,0,.45,3.385Zm14.962-.9H.9V.9H15.412Z" transform="matrix(-1, -0.003, 0.003, -1, 78.956, 180.541)" fill="#31313c"/>
        <path id="Rectángulo_35126" data-name="Rectángulo 35126" d="M.45,3.385H2.506a.45.45,0,0,0,.45-.45V.45A.45.45,0,0,0,2.506,0H.45A.45.45,0,0,0,0,.45V2.935A.45.45,0,0,0,.45,3.385Zm1.605-.9H.9V.9H2.056Z" transform="translate(136.742 187.113) rotate(-179.825)" fill="#31313c"/>
        <path id="Rectángulo_35127" data-name="Rectángulo 35127" d="M.45,3.385H12.413a.45.45,0,0,0,.45-.45V.45a.45.45,0,0,0-.45-.45H.45A.45.45,0,0,0,0,.45V2.935A.45.45,0,0,0,.45,3.385Zm11.512-.9H.9V.9H11.963Z" transform="matrix(-1, -0.003, 0.003, -1, 132.791, 187.101)" fill="#31313c"/>
        <path id="Rectángulo_35128" data-name="Rectángulo 35128" d="M.45,3.385H26.675a.45.45,0,0,0,.45-.45V.45a.45.45,0,0,0-.45-.45H.45A.45.45,0,0,0,0,.45V2.935A.45.45,0,0,0,.45,3.385Zm25.774-.9H.9V.9H26.224Z" transform="matrix(-1, -0.003, 0.003, -1, 107.877, 187.025)" fill="#31313c"/>
        <path id="Rectángulo_35129" data-name="Rectángulo 35129" d="M.45,3.385H7.928a.45.45,0,0,0,.45-.45V.45A.45.45,0,0,0,7.928,0H.45A.45.45,0,0,0,0,.45V2.935A.45.45,0,0,0,.45,3.385Zm7.028-.9H.9V.9H7.478Z" transform="translate(117.842 187.055) rotate(-179.825)" fill="#31313c"/>
        <path id="Rectángulo_35130" data-name="Rectángulo 35130" d="M.45,3.385H46.32a.45.45,0,0,0,.45-.45V.45A.45.45,0,0,0,46.32,0H.45A.45.45,0,0,0,0,.45V2.935A.45.45,0,0,0,.45,3.385Zm45.419-.9H.9V.9H45.87Z" transform="translate(78.937 186.937) rotate(-179.826)" fill="#31313c"/>
        <path id="Rectángulo_35131" data-name="Rectángulo 35131" d="M.45,3.385H2.506a.45.45,0,0,0,.45-.45V.45A.45.45,0,0,0,2.506,0H.45A.45.45,0,0,0,0,.45V2.935A.45.45,0,0,0,.45,3.385Zm1.605-.9H.9V.9H2.056Z" transform="translate(136.723 193.573) rotate(-179.825)" fill="#31313c"/>
        <path id="Rectángulo_35132" data-name="Rectángulo 35132" d="M.45,3.385H6.432a.45.45,0,0,0,.45-.45V.45A.45.45,0,0,0,6.432,0H.45A.45.45,0,0,0,0,.45V2.935A.45.45,0,0,0,.45,3.385Zm5.531-.9H.9V.9H5.981Z" transform="translate(132.771 193.561) rotate(-179.826)" fill="#31313c"/>
        <path id="Rectángulo_35133" data-name="Rectángulo 35133" d="M.45,3.385H15.837a.45.45,0,0,0,.45-.45V.45a.45.45,0,0,0-.45-.45H.45A.45.45,0,0,0,0,.45V2.935A.45.45,0,0,0,.45,3.385Zm14.936-.9H.9V.9H15.387Z" transform="translate(101.876 193.467) rotate(-179.826)" fill="#31313c"/>
        <path id="Rectángulo_35134" data-name="Rectángulo 35134" d="M.45,3.385H4.44a.45.45,0,0,0,.45-.45V.45A.45.45,0,0,0,4.44,0H.45A.45.45,0,0,0,0,.45V2.935A.45.45,0,0,0,.45,3.385Zm3.54-.9H.9V.9H3.99Z" transform="matrix(-1, -0.003, 0.003, -1, 107.857, 193.485)" fill="#31313c"/>
        <path id="Rectángulo_35135" data-name="Rectángulo 35135" d="M.45,3.385H14.776a.45.45,0,0,0,.45-.45V.45a.45.45,0,0,0-.45-.45H.45A.45.45,0,0,0,0,.45V2.935A.45.45,0,0,0,.45,3.385Zm13.876-.9H.9V.9H14.326Z" transform="matrix(-1, -0.003, 0.003, -1, 124.67, 193.536)" fill="#31313c"/>
        <path id="Rectángulo_35136" data-name="Rectángulo 35136" d="M.45,3.385H16.084a.45.45,0,0,0,.45-.45V.45a.45.45,0,0,0-.45-.45H.45A.45.45,0,0,0,0,.45V2.935A.45.45,0,0,0,.45,3.385Zm15.184-.9H.9V.9H15.634Z" transform="translate(67.367 193.361) rotate(-179.825)" fill="#31313c"/>
        <path id="Rectángulo_35137" data-name="Rectángulo 35137" d="M.45,3.385H6.866a.45.45,0,0,0,.45-.45V.45A.45.45,0,0,0,6.866,0H.45A.45.45,0,0,0,0,.45V2.935A.45.45,0,0,0,.45,3.385Zm5.965-.9H.9V.9H6.416Z" transform="translate(84.621 193.414) rotate(-179.824)" fill="#31313c"/>
        <path id="Rectángulo_35138" data-name="Rectángulo 35138" d="M.45,3.385H6.866a.45.45,0,0,0,.45-.45V.45A.45.45,0,0,0,6.866,0H.45A.45.45,0,0,0,0,.45V2.935A.45.45,0,0,0,.45,3.385Zm5.965-.9H.9V.9H6.416Z" transform="translate(75.925 193.388) rotate(-179.824)" fill="#31313c"/>
        <path id="Rectángulo_35139" data-name="Rectángulo 35139" d="M.45,3.385H2.506a.45.45,0,0,0,.45-.45V.45A.45.45,0,0,0,2.506,0H.45A.45.45,0,0,0,0,.45V2.935A.45.45,0,0,0,.45,3.385Zm1.605-.9H.9V.9H2.056Z" transform="translate(136.682 207.072) rotate(-179.825)" fill="#31313c"/>
        <path id="Rectángulo_35140" data-name="Rectángulo 35140" d="M.45,3.385H12.413a.45.45,0,0,0,.45-.45V.45a.45.45,0,0,0-.45-.45H.45A.45.45,0,0,0,0,.45V2.935A.45.45,0,0,0,.45,3.385Zm11.512-.9H.9V.9H11.963Z" transform="matrix(-1, -0.003, 0.003, -1, 132.73, 207.06)" fill="#31313c"/>
        <path id="Rectángulo_35141" data-name="Rectángulo 35141" d="M.45,3.385H12.413a.45.45,0,0,0,.45-.45V.45a.45.45,0,0,0-.45-.45H.45A.45.45,0,0,0,0,.45V2.935A.45.45,0,0,0,.45,3.385Zm11.512-.9H.9V.9H11.963Z" transform="matrix(-1, -0.003, 0.003, -1, 93.554, 206.94)" fill="#31313c"/>
        <path id="Rectángulo_35142" data-name="Rectángulo 35142" d="M.45,3.385H12.413a.45.45,0,0,0,.45-.45V.45a.45.45,0,0,0-.45-.45H.45A.45.45,0,0,0,0,.45V2.935A.45.45,0,0,0,.45,3.385Zm11.512-.9H.9V.9H11.963Z" transform="matrix(-1, -0.003, 0.003, -1, 107.816, 206.984)" fill="#31313c"/>
        <path id="Rectángulo_35143" data-name="Rectángulo 35143" d="M.45,3.385H7.928a.45.45,0,0,0,.45-.45V.45A.45.45,0,0,0,7.928,0H.45A.45.45,0,0,0,0,.45V2.935A.45.45,0,0,0,.45,3.385Zm7.028-.9H.9V.9H7.478Z" transform="translate(117.782 207.014) rotate(-179.825)" fill="#31313c"/>
        <path id="Rectángulo_35144" data-name="Rectángulo 35144" d="M.45,3.385H2.506a.45.45,0,0,0,.45-.45V.45A.45.45,0,0,0,2.506,0H.45A.45.45,0,0,0,0,.45V2.935A.45.45,0,0,0,.45,3.385Zm1.605-.9H.9V.9H2.056Z" transform="translate(125.609 244.666) rotate(-179.825)" fill="#31313c"/>
        <path id="Rectángulo_35145" data-name="Rectángulo 35145" d="M.45,3.385H12.413a.45.45,0,0,0,.45-.45V.45a.45.45,0,0,0-.45-.45H.45A.45.45,0,0,0,0,.45V2.935A.45.45,0,0,0,.45,3.385Zm11.512-.9H.9V.9H11.963Z" transform="matrix(-1, -0.003, 0.003, -1, 121.657, 244.653)" fill="#31313c"/>
        <path id="Rectángulo_35146" data-name="Rectángulo 35146" d="M.45,3.385H12.413a.45.45,0,0,0,.45-.45V.45a.45.45,0,0,0-.45-.45H.45A.45.45,0,0,0,0,.45V2.935A.45.45,0,0,0,.45,3.385Zm11.512-.9H.9V.9H11.963Z" transform="matrix(-1, -0.003, 0.003, -1, 82.481, 244.534)" fill="#31313c"/>
        <path id="Rectángulo_35147" data-name="Rectángulo 35147" d="M.45,3.385H12.413a.45.45,0,0,0,.45-.45V.45a.45.45,0,0,0-.45-.45H.45A.45.45,0,0,0,0,.45V2.935A.45.45,0,0,0,.45,3.385Zm11.512-.9H.9V.9H11.963Z" transform="matrix(-1, -0.003, 0.003, -1, 96.743, 244.578)" fill="#31313c"/>
        <path id="Rectángulo_35148" data-name="Rectángulo 35148" d="M.45,3.385H7.928a.45.45,0,0,0,.45-.45V.45A.45.45,0,0,0,7.928,0H.45A.45.45,0,0,0,0,.45V2.935A.45.45,0,0,0,.45,3.385Zm7.028-.9H.9V.9H7.478Z" transform="translate(106.708 244.608) rotate(-179.825)" fill="#31313c"/>
        <path id="Rectángulo_35149" data-name="Rectángulo 35149" d="M.45,3.385H20.286a.45.45,0,0,0,.45-.45V.45a.45.45,0,0,0-.45-.45H.45A.45.45,0,0,0,0,.45V2.935A.45.45,0,0,0,.45,3.385Zm19.386-.9H.9V.9H19.836Z" transform="translate(27.63 244.367) rotate(-179.826)" fill="#31313c"/>
        <path id="Rectángulo_35150" data-name="Rectángulo 35150" d="M.45,3.385H20.286a.45.45,0,0,0,.45-.45V.45a.45.45,0,0,0-.45-.45H.45A.45.45,0,0,0,0,.45V2.935A.45.45,0,0,0,.45,3.385Zm19.386-.9H.9V.9H19.836Z" transform="translate(51.278 244.439) rotate(-179.826)" fill="#31313c"/>
        <path id="Rectángulo_35151" data-name="Rectángulo 35151" d="M.45,3.385h12.4a.45.45,0,0,0,.45-.45V.45A.45.45,0,0,0,12.85,0H.45A.45.45,0,0,0,0,.45V2.935A.45.45,0,0,0,.45,3.385Zm11.949-.9H.9V.9H12.4Z" transform="translate(67.803 244.49) rotate(-179.825)" fill="#31313c"/>
        <path id="Rectángulo_35152" data-name="Rectángulo 35152" d="M.45,3.385H2.506a.45.45,0,0,0,.45-.45V.45A.45.45,0,0,0,2.506,0H.45A.45.45,0,0,0,0,.45V2.935A.45.45,0,0,0,.45,3.385Zm1.605-.9H.9V.9H2.056Z" transform="translate(136.662 213.468) rotate(-179.825)" fill="#31313c"/>
        <path id="Rectángulo_35153" data-name="Rectángulo 35153" d="M.45,3.385H3.441a.45.45,0,0,0,.45-.45V.45A.45.45,0,0,0,3.441,0H.45A.45.45,0,0,0,0,.45V2.935A.45.45,0,0,0,.45,3.385Zm2.541-.9H.9V.9h2.09Z" transform="translate(132.711 213.456) rotate(-179.824)" fill="#31313c"/>
        <path id="Rectángulo_35154" data-name="Rectángulo 35154" d="M.45,3.385H12.413a.45.45,0,0,0,.45-.45V.45a.45.45,0,0,0-.45-.45H.45A.45.45,0,0,0,0,.45V2.935A.45.45,0,0,0,.45,3.385Zm11.512-.9H.9V.9H11.963Z" transform="matrix(-1, -0.003, 0.003, -1, 98.767, 213.352)" fill="#31313c"/>
        <path id="Rectángulo_35155" data-name="Rectángulo 35155" d="M.45,3.385H17.332a.45.45,0,0,0,.45-.45V.45a.45.45,0,0,0-.45-.45H.45A.45.45,0,0,0,0,.45V2.935A.45.45,0,0,0,.45,3.385Zm16.431-.9H.9V.9H16.881Z" transform="translate(117.573 213.41) rotate(-179.825)" fill="#31313c"/>
        <path id="Rectángulo_35156" data-name="Rectángulo 35156" d="M.45,3.385H7.928a.45.45,0,0,0,.45-.45V.45A.45.45,0,0,0,7.928,0H.45A.45.45,0,0,0,0,.45V2.935A.45.45,0,0,0,.45,3.385Zm7.028-.9H.9V.9H7.478Z" transform="translate(127.56 213.44) rotate(-179.825)" fill="#31313c"/>
        <path id="Rectángulo_35157" data-name="Rectángulo 35157" d="M.45,3.385H2.506a.45.45,0,0,0,.45-.45V.45A.45.45,0,0,0,2.506,0H.45A.45.45,0,0,0,0,.45V2.935A.45.45,0,0,0,.45,3.385Zm1.605-.9H.9V.9H2.056Z" transform="translate(136.642 219.928) rotate(-179.825)" fill="#31313c"/>
        <path id="Rectángulo_35158" data-name="Rectángulo 35158" d="M.45,3.385H12.413a.45.45,0,0,0,.45-.45V.45a.45.45,0,0,0-.45-.45H.45A.45.45,0,0,0,0,.45V2.935A.45.45,0,0,0,.45,3.385Zm11.513-.9H.9V.9H11.963Z" transform="matrix(-1, -0.003, 0.003, -1, 132.691, 219.916)" fill="#31313c"/>
        <path id="Rectángulo_35159" data-name="Rectángulo 35159" d="M.45,3.385H10.478a.45.45,0,0,0,.45-.45V.45a.45.45,0,0,0-.45-.45H.45A.45.45,0,0,0,0,.45V2.935A.45.45,0,0,0,.45,3.385Zm9.578-.9H.9V.9h9.128Z" transform="translate(94.942 219.801) rotate(-179.826)" fill="#31313c"/>
        <path id="Rectángulo_35160" data-name="Rectángulo 35160" d="M.45,3.385H7.034a.45.45,0,0,0,.45-.45V.45A.45.45,0,0,0,7.034,0H.45A.45.45,0,0,0,0,.45V2.935A.45.45,0,0,0,.45,3.385Zm6.133-.9H.9V.9H6.583Z" transform="translate(111.553 219.851) rotate(-179.825)" fill="#31313c"/>
        <path id="Rectángulo_35161" data-name="Rectángulo 35161" d="M.45,3.385H7.034a.45.45,0,0,0,.45-.45V.45A.45.45,0,0,0,7.034,0H.45A.45.45,0,0,0,0,.45V2.935A.45.45,0,0,0,.45,3.385Zm6.133-.9H.9V.9H6.583Z" transform="translate(103.262 219.826) rotate(-179.825)" fill="#31313c"/>
        <path id="Rectángulo_35162" data-name="Rectángulo 35162" d="M.45,3.385H3.972a.45.45,0,0,0,.45-.45V.45A.45.45,0,0,0,3.972,0H.45A.45.45,0,0,0,0,.45V2.935A.45.45,0,0,0,.45,3.385Zm3.072-.9H.9V.9H3.522Z" transform="matrix(-1, -0.003, 0.003, -1, 117.742, 219.87)" fill="#31313c"/>
        <path id="Rectángulo_35163" data-name="Rectángulo 35163" d="M.45,3.385H13.6a.45.45,0,0,0,.45-.45V.45A.45.45,0,0,0,13.6,0H.45A.45.45,0,0,0,0,.45V2.935A.45.45,0,0,0,.45,3.385Zm12.7-.9H.9V.9H13.152Z" transform="translate(21.881 219.578) rotate(-179.825)" fill="#31313c"/>
        <path id="Rectángulo_35164" data-name="Rectángulo 35164" d="M.45,3.385H2.506a.45.45,0,0,0,.45-.45V.45A.45.45,0,0,0,2.506,0H.45A.45.45,0,0,0,0,.45V2.935A.45.45,0,0,0,.45,3.385Zm1.605-.9H.9V.9H2.056Z" transform="translate(136.623 226.324) rotate(-179.825)" fill="#31313c"/>
        <path id="Rectángulo_35165" data-name="Rectángulo 35165" d="M.45,3.385H12.413a.45.45,0,0,0,.45-.45V.45a.45.45,0,0,0-.45-.45H.45A.45.45,0,0,0,0,.45V2.935A.45.45,0,0,0,.45,3.385Zm11.512-.9H.9V.9H11.963Z" transform="matrix(-1, -0.003, 0.003, -1, 132.671, 226.312)" fill="#31313c"/>
        <path id="Rectángulo_35166" data-name="Rectángulo 35166" d="M.45,3.385H28.234a.45.45,0,0,0,.45-.45V.45a.45.45,0,0,0-.45-.45H.45A.45.45,0,0,0,0,.45V2.935A.45.45,0,0,0,.45,3.385Zm27.333-.9H.9V.9H27.783Z" transform="translate(107.757 226.236) rotate(-179.825)" fill="#31313c"/>
        <path id="Rectángulo_35167" data-name="Rectángulo 35167" d="M.45,3.385H7.928a.45.45,0,0,0,.45-.45V.45A.45.45,0,0,0,7.928,0H.45A.45.45,0,0,0,0,.45V2.935A.45.45,0,0,0,.45,3.385Zm7.028-.9H.9V.9H7.478Z" transform="translate(117.723 226.266) rotate(-179.825)" fill="#31313c"/>
        <path id="Rectángulo_35168" data-name="Rectángulo 35168" d="M.45,3.385H2.506a.45.45,0,0,0,.45-.45V.45A.45.45,0,0,0,2.506,0H.45A.45.45,0,0,0,0,.45V2.935A.45.45,0,0,0,.45,3.385Zm1.605-.9H.9V.9H2.056Z" transform="translate(125.408 239.357) rotate(-179.825)" fill="#31313c"/>
        <path id="Rectángulo_35169" data-name="Rectángulo 35169" d="M.45,3.385H12.413a.45.45,0,0,0,.45-.45V.45a.45.45,0,0,0-.45-.45H.45A.45.45,0,0,0,0,.45V2.935A.45.45,0,0,0,.45,3.385Zm11.512-.9H.9V.9H11.963Z" transform="matrix(-1, -0.003, 0.003, -1, 121.457, 239.345)" fill="#31313c"/>
        <path id="Rectángulo_35170" data-name="Rectángulo 35170" d="M.45,3.385H6.432a.45.45,0,0,0,.45-.45V.45A.45.45,0,0,0,6.432,0H.45A.45.45,0,0,0,0,.45V2.935A.45.45,0,0,0,.45,3.385Zm5.531-.9H.9V.9H5.981Z" transform="translate(82.28 239.226) rotate(-179.826)" fill="#31313c"/>
        <path id="Rectángulo_35171" data-name="Rectángulo 35171" d="M.45,3.385H12.413a.45.45,0,0,0,.45-.45V.45a.45.45,0,0,0-.45-.45H.45A.45.45,0,0,0,0,.45V2.935A.45.45,0,0,0,.45,3.385Zm11.512-.9H.9V.9H11.963Z" transform="matrix(-1, -0.003, 0.003, -1, 96.542, 239.269)" fill="#31313c"/>
        <path id="Rectángulo_35172" data-name="Rectángulo 35172" d="M.45,3.385H7.928a.45.45,0,0,0,.45-.45V.45A.45.45,0,0,0,7.928,0H.45A.45.45,0,0,0,0,.45V2.935A.45.45,0,0,0,.45,3.385Zm7.028-.9H.9V.9H7.478Z" transform="translate(106.508 239.3) rotate(-179.825)" fill="#31313c"/>
        <path id="Rectángulo_35173" data-name="Rectángulo 35173" d="M.45,3.385H17.963a.45.45,0,0,0,.45-.45V.45a.45.45,0,0,0-.45-.45H.45A.45.45,0,0,0,0,.45V2.935A.45.45,0,0,0,.45,3.385Zm17.063-.9H.9V.9H17.513Z" transform="translate(48.236 239.122) rotate(-179.826)" fill="#31313c"/>
        <path id="Rectángulo_35174" data-name="Rectángulo 35174" d="M.45,3.385H14.569a.45.45,0,0,0,.45-.45V.45a.45.45,0,0,0-.45-.45H.45A.45.45,0,0,0,0,.45V2.935A.45.45,0,0,0,.45,3.385Zm13.669-.9H.9V.9H14.119Z" transform="translate(64.504 239.172) rotate(-179.825)" fill="#31313c"/>
        <path id="Rectángulo_35175" data-name="Rectángulo 35175" d="M.45,3.385H8.2a.45.45,0,0,0,.45-.45V.45A.45.45,0,0,0,8.2,0H.45A.45.45,0,0,0,0,.45V2.935A.45.45,0,0,0,.45,3.385Zm7.3-.9H.9V.9h6.85Z" transform="translate(74.641 239.203) rotate(-179.825)" fill="#31313c"/>
        <path id="Rectángulo_35176" data-name="Rectángulo 35176" d="M.45,3.385H2.506a.45.45,0,0,0,.45-.45V.45A.45.45,0,0,0,2.506,0H.45A.45.45,0,0,0,0,.45V2.935A.45.45,0,0,0,.45,3.385Zm1.605-.9H.9V.9H2.056Z" transform="translate(128.524 200.297) rotate(-179.825)" fill="#31313c"/>
        <path id="Rectángulo_35177" data-name="Rectángulo 35177" d="M.45,3.385H9.34a.45.45,0,0,0,.45-.45V.45A.45.45,0,0,0,9.34,0H.45A.45.45,0,0,0,0,.45V2.935A.45.45,0,0,0,.45,3.385Zm8.44-.9H.9V.9H8.89Z" transform="matrix(-1, -0.003, 0.003, -1, 124.572, 200.285)" fill="#31313c"/>
        <path id="Rectángulo_35178" data-name="Rectángulo 35178" d="M.45,3.385H12.413a.45.45,0,0,0,.45-.45V.45a.45.45,0,0,0-.45-.45H.45A.45.45,0,0,0,0,.45V2.935A.45.45,0,0,0,.45,3.385Zm11.512-.9H.9V.9H11.963Z" transform="matrix(-1, -0.003, 0.003, -1, 104.087, 200.223)" fill="#31313c"/>
        <path id="Rectángulo_35179" data-name="Rectángulo 35179" d="M.45,3.385H8.623a.45.45,0,0,0,.45-.45V.45A.45.45,0,0,0,8.623,0H.45A.45.45,0,0,0,0,.45V2.935A.45.45,0,0,0,.45,3.385Zm7.723-.9H.9V.9H8.173Z" transform="translate(113.924 200.253) rotate(-179.826)" fill="#31313c"/>
        <path id="Rectángulo_35180" data-name="Rectángulo 35180" d="M.45,3.385H2.506a.45.45,0,0,0,.45-.45V.45A.45.45,0,0,0,2.506,0H.45A.45.45,0,0,0,0,.45V2.935A.45.45,0,0,0,.45,3.385Zm1.605-.9H.9V.9H2.056Z" transform="translate(136.549 250.683) rotate(-179.825)" fill="#31313c"/>
        <path id="Rectángulo_35181" data-name="Rectángulo 35181" d="M.45,3.385H6.432a.45.45,0,0,0,.45-.45V.45A.45.45,0,0,0,6.432,0H.45A.45.45,0,0,0,0,.45V2.935A.45.45,0,0,0,.45,3.385Zm5.531-.9H.9V.9H5.981Z" transform="matrix(-1, -0.003, 0.003, -1, 132.597, 250.671)" fill="#31313c"/>
        <path id="Rectángulo_35182" data-name="Rectángulo 35182" d="M.45,3.385H15.837a.45.45,0,0,0,.45-.45V.45a.45.45,0,0,0-.45-.45H.45A.45.45,0,0,0,0,.45V2.935A.45.45,0,0,0,.45,3.385Zm14.936-.9H.9V.9H15.387Z" transform="translate(101.702 250.577) rotate(-179.826)" fill="#31313c"/>
        <path id="Rectángulo_35183" data-name="Rectángulo 35183" d="M.45,3.385H4.44a.45.45,0,0,0,.45-.45V.45A.45.45,0,0,0,4.44,0H.45A.45.45,0,0,0,0,.45V2.935A.45.45,0,0,0,.45,3.385Zm3.54-.9H.9V.9H3.99Z" transform="translate(107.683 250.595) rotate(-179.826)" fill="#31313c"/>
        <path id="Rectángulo_35184" data-name="Rectángulo 35184" d="M.45,3.385H14.776a.45.45,0,0,0,.45-.45V.45a.45.45,0,0,0-.45-.45H.45A.45.45,0,0,0,0,.45V2.935A.45.45,0,0,0,.45,3.385Zm13.876-.9H.9V.9H14.326Z" transform="translate(124.496 250.647) rotate(-179.825)" fill="#31313c"/>
        <path id="Rectángulo_35185" data-name="Rectángulo 35185" d="M.45,3.385H16.084a.45.45,0,0,0,.45-.45V.45a.45.45,0,0,0-.45-.45H.45A.45.45,0,0,0,0,.45V2.935A.45.45,0,0,0,.45,3.385Zm15.184-.9H.9V.9H15.634Z" transform="translate(67.193 250.472) rotate(-179.825)" fill="#31313c"/>
        <path id="Rectángulo_35186" data-name="Rectángulo 35186" d="M.45,3.385H6.866a.45.45,0,0,0,.45-.45V.45A.45.45,0,0,0,6.866,0H.45A.45.45,0,0,0,0,.45V2.935A.45.45,0,0,0,.45,3.385Zm5.965-.9H.9V.9H6.416Z" transform="translate(84.447 250.525) rotate(-179.824)" fill="#31313c"/>
        <path id="Rectángulo_35187" data-name="Rectángulo 35187" d="M.45,3.385H6.866a.45.45,0,0,0,.45-.45V.45A.45.45,0,0,0,6.866,0H.45A.45.45,0,0,0,0,.45V2.935A.45.45,0,0,0,.45,3.385Zm5.965-.9H.9V.9H6.416Z" transform="translate(75.751 250.498) rotate(-179.824)" fill="#31313c"/>
        <path id="Rectángulo_35188" data-name="Rectángulo 35188" d="M.45,3.385H2.506a.45.45,0,0,0,.45-.45V.45A.45.45,0,0,0,2.506,0H.45A.45.45,0,0,0,0,.45V2.935A.45.45,0,0,0,.45,3.385Zm1.605-.9H.9V.9H2.056Z" transform="translate(136.515 261.905) rotate(-179.825)" fill="#31313c"/>
        <path id="Rectángulo_35189" data-name="Rectángulo 35189" d="M.45,3.385H12.413a.45.45,0,0,0,.45-.45V.45a.45.45,0,0,0-.45-.45H.45A.45.45,0,0,0,0,.45V2.935A.45.45,0,0,0,.45,3.385Zm11.512-.9H.9V.9H11.963Z" transform="matrix(-1, -0.003, 0.003, -1, 132.563, 261.893)" fill="#31313c"/>
        <path id="Rectángulo_35190" data-name="Rectángulo 35190" d="M.45,3.385H12.413a.45.45,0,0,0,.45-.45V.45a.45.45,0,0,0-.45-.45H.45A.45.45,0,0,0,0,.45V2.935A.45.45,0,0,0,.45,3.385Zm11.512-.9H.9V.9H11.963Z" transform="matrix(-1, -0.003, 0.003, -1, 93.387, 261.773)" fill="#31313c"/>
        <path id="Rectángulo_35191" data-name="Rectángulo 35191" d="M.45,3.385H12.413a.45.45,0,0,0,.45-.45V.45a.45.45,0,0,0-.45-.45H.45A.45.45,0,0,0,0,.45V2.935A.45.45,0,0,0,.45,3.385Zm11.512-.9H.9V.9H11.963Z" transform="matrix(-1, -0.003, 0.003, -1, 107.649, 261.817)" fill="#31313c"/>
        <path id="Rectángulo_35192" data-name="Rectángulo 35192" d="M.45,3.385H7.928a.45.45,0,0,0,.45-.45V.45A.45.45,0,0,0,7.928,0H.45A.45.45,0,0,0,0,.45V2.935A.45.45,0,0,0,.45,3.385Zm7.028-.9H.9V.9H7.478Z" transform="translate(117.614 261.847) rotate(-179.825)" fill="#31313c"/>
        <path id="Rectángulo_35193" data-name="Rectángulo 35193" d="M.45,3.385H7.928a.45.45,0,0,0,.45-.45V.45A.45.45,0,0,0,7.928,0H.45A.45.45,0,0,0,0,.45V2.935A.45.45,0,0,0,.45,3.385Zm7.028-.9H.9V.9H7.478Z" transform="translate(16.079 261.538) rotate(-179.825)" fill="#31313c"/>
        <path id="Rectángulo_35194" data-name="Rectángulo 35194" d="M.45,3.385H20.286a.45.45,0,0,0,.45-.45V.45a.45.45,0,0,0-.45-.45H.45A.45.45,0,0,0,0,.45V2.935A.45.45,0,0,0,.45,3.385Zm19.386-.9H.9V.9H19.836Z" transform="translate(38.536 261.606) rotate(-179.826)" fill="#31313c"/>
        <path id="Rectángulo_35195" data-name="Rectángulo 35195" d="M.45,3.385H20.286a.45.45,0,0,0,.45-.45V.45a.45.45,0,0,0-.45-.45H.45A.45.45,0,0,0,0,.45V2.935A.45.45,0,0,0,.45,3.385Zm19.386-.9H.9V.9H19.836Z" transform="translate(62.184 261.678) rotate(-179.826)" fill="#31313c"/>
        <path id="Rectángulo_35196" data-name="Rectángulo 35196" d="M.45,3.385h12.4a.45.45,0,0,0,.45-.45V.45A.45.45,0,0,0,12.85,0H.45A.45.45,0,0,0,0,.45V2.935A.45.45,0,0,0,.45,3.385Zm11.949-.9H.9V.9H12.4Z" transform="translate(78.709 261.729) rotate(-179.825)" fill="#31313c"/>
        <path id="Rectángulo_35197" data-name="Rectángulo 35197" d="M.45,3.385H2.506a.45.45,0,0,0,.45-.45V.45A.45.45,0,0,0,2.506,0H.45A.45.45,0,0,0,0,.45V2.935A.45.45,0,0,0,.45,3.385Zm1.605-.9H.9V.9H2.056Z" transform="translate(136.531 256.437) rotate(-179.825)" fill="#31313c"/>
        <path id="Rectángulo_35198" data-name="Rectángulo 35198" d="M.45,3.385H9.34a.45.45,0,0,0,.45-.45V.45A.45.45,0,0,0,9.34,0H.45A.45.45,0,0,0,0,.45V2.935A.45.45,0,0,0,.45,3.385Zm8.44-.9H.9V.9H8.89Z" transform="translate(132.58 256.425) rotate(-179.825)" fill="#31313c"/>
        <path id="Rectángulo_35199" data-name="Rectángulo 35199" d="M.45,3.385H12.413a.45.45,0,0,0,.45-.45V.45a.45.45,0,0,0-.45-.45H.45A.45.45,0,0,0,0,.45V2.935A.45.45,0,0,0,.45,3.385Zm11.512-.9H.9V.9H11.963Z" transform="matrix(-1, -0.003, 0.003, -1, 112.095, 256.363)" fill="#31313c"/>
        <path id="Rectángulo_35200" data-name="Rectángulo 35200" d="M.45,3.385H8.623a.45.45,0,0,0,.45-.45V.45A.45.45,0,0,0,8.623,0H.45A.45.45,0,0,0,0,.45V2.935A.45.45,0,0,0,.45,3.385Zm7.723-.9H.9V.9H8.173Z" transform="translate(121.931 256.393) rotate(-179.826)" fill="#31313c"/>
        <path id="Rectángulo_35201" data-name="Rectángulo 35201" d="M.45,3.385H2.506a.45.45,0,0,0,.45-.45V.45A.45.45,0,0,0,2.506,0H.45A.45.45,0,0,0,0,.45V2.935A.45.45,0,0,0,.45,3.385Zm1.605-.9H.9V.9H2.056Z" transform="translate(136.605 232.191) rotate(-179.825)" fill="#31313c"/>
        <path id="Rectángulo_35202" data-name="Rectángulo 35202" d="M.45,3.385H12.413a.45.45,0,0,0,.45-.45V.45a.45.45,0,0,0-.45-.45H.45A.45.45,0,0,0,0,.45V2.935A.45.45,0,0,0,.45,3.385Zm11.513-.9H.9V.9H11.963Z" transform="matrix(-1, -0.003, 0.003, -1, 132.654, 232.179)" fill="#31313c"/>
        <path id="Rectángulo_35203" data-name="Rectángulo 35203" d="M.45,3.385H12.413a.45.45,0,0,0,.45-.45V.45a.45.45,0,0,0-.45-.45H.45A.45.45,0,0,0,0,.45V2.935A.45.45,0,0,0,.45,3.385Zm11.512-.9H.9V.9H11.963Z" transform="matrix(-1, -0.003, 0.003, -1, 107.739, 232.103)" fill="#31313c"/>
        <path id="Rectángulo_35204" data-name="Rectángulo 35204" d="M.45,3.385H7.928a.45.45,0,0,0,.45-.45V.45A.45.45,0,0,0,7.928,0H.45A.45.45,0,0,0,0,.45V2.935A.45.45,0,0,0,.45,3.385Zm7.028-.9H.9V.9H7.478Z" transform="translate(117.705 232.133) rotate(-179.825)" fill="#31313c"/>
      </g>
    </g>
  </g>
</svg>
