<svg id="Grupo_158075" data-name="Grupo 158075" xmlns="http://www.w3.org/2000/svg" xmlns:xlink="http://www.w3.org/1999/xlink" width="104.394" height="104.196" viewBox="0 0 104.394 104.196">
  <defs>
    <clipPath id="clip-path">
      <rect id="Rectángulo_35118" data-name="Rectángulo 35118" width="104.394" height="104.196" fill="#fd9827"/>
    </clipPath>
  </defs>
  <g id="Grupo_158075-2" data-name="Grupo 158075" clip-path="url(#clip-path)">
    <path id="Trazado_152733" data-name="Trazado 152733" d="M12.215,39.876h3.98a11.182,11.182,0,0,0-.223-1.688,5.21,5.21,0,1,1,10.109-1.568,15.787,15.787,0,0,1-.383,1.79c-.082.461-.1.934-.159,1.49h4.033c0-.827.007-1.606,0-2.385a1.812,1.812,0,0,1,1.512-1.954c1.675-.433,3.305-.976,5.065-.12.4.195,1.313-.248,1.754-.653a1.3,1.3,0,0,0-.02-1.952c-.448-.395-1.359-.8-1.772-.605-1.727.836-3.316.3-4.96-.125a1.855,1.855,0,0,1-1.576-2.014c.015-1.3,0-2.6,0-4.077-1.533,0-3.035,0-4.536,0-1.7,0-2.073-.306-2.514-1.907A6.349,6.349,0,0,1,22.5,19.46c.193-.414-.236-1.317-.639-1.759a1.307,1.307,0,0,0-1.953.009c-.4.445-.824,1.361-.624,1.765.873,1.764.287,3.395-.141,5.065a1.775,1.775,0,0,1-1.876,1.472c-2.206,0-4.413.018-6.619-.007a1.727,1.727,0,0,1-1.9-1.882c-.027-1.192-.006-2.384-.006-3.84a12.546,12.546,0,0,0-1.734.242A5.123,5.123,0,0,1,1.375,19.04a4.872,4.872,0,0,1-.824-5.652A4.957,4.957,0,0,1,5.43,10.406a5.58,5.58,0,0,1,1.683.354c1.378.471,1.628.31,1.629-1.168,0-.832-.017-1.665,0-2.5A1.729,1.729,0,0,1,10.62,5.185c2.206-.027,4.413-.023,6.619,0a1.744,1.744,0,1,1-.058,3.465c-1.618.015-3.237,0-4.966,0,0,1.133-.01,2.172,0,3.211a1.86,1.86,0,0,1-1.58,2.014c-1.644.424-3.244.969-4.947.09a1.324,1.324,0,0,0-1.834.707,2.69,2.69,0,0,0,.027,1.9,1.334,1.334,0,0,0,1.859.646c1.782-.946,3.46-.267,5.155.171a1.685,1.685,0,0,1,1.313,1.773c.007,1.08,0,2.16,0,3.31h4.021a10.994,10.994,0,0,0-.256-1.635,5.289,5.289,0,0,1,1.878-5.991,5.209,5.209,0,0,1,7.862,6.2A6.769,6.769,0,0,0,25.54,22.5h3.953V8.645c-1.671,0-3.357.033-5.042-.011a1.652,1.652,0,0,1-1.592-2.45,2.389,2.389,0,0,1,1.634-.967c2.2-.11,4.411-.059,6.617-.035a1.745,1.745,0,0,1,1.933,1.962c.02,2.312.006,4.623.006,7,2.061-.878,4.025-1.766,6.03-2.549,1.342-.524,2.734-.931,4.121-1.329a1.743,1.743,0,1,1,.905,3.344A47.227,47.227,0,0,0,33.887,17.74a1.377,1.377,0,0,0-.858,1.418c.048,3.252.021,6.506.021,10.005a15.435,15.435,0,0,0,1.77-.28,5.139,5.139,0,0,1,5.619,1.535,5.187,5.187,0,0,1-4.161,8.588,13.636,13.636,0,0,1-1.786-.394c-.452-.078-.918-.072-1.444-.107,0,1.153.025,2.092-.007,3.029a1.712,1.712,0,0,1-1.843,1.83c-2.243.031-4.485.017-6.728.012a1.724,1.724,0,0,1-1.806-1.412c-.439-1.7-1.038-3.37-.153-5.17.194-.394-.258-1.309-.668-1.746a1.306,1.306,0,0,0-1.952.04c-.391.45-.8,1.363-.594,1.774.867,1.768.268,3.4-.158,5.065a1.773,1.773,0,0,1-1.9,1.447c-1.266,0-2.533.03-3.8-.013a.845.845,0,0,0-.986.715,43.439,43.439,0,0,0-1.842,16.39c.23,2.618.768,5.211,1.209,7.808.213,1.255-.193,2.154-1.2,2.405s-1.843-.351-2.156-1.594a47.733,47.733,0,0,1,.391-24.968,6.261,6.261,0,0,0,.018-2.047c-.147-3.753-.116-7.515-.044-11.273a1.587,1.587,0,0,1,1.855-1.3,1.725,1.725,0,0,1,1.517,1.82c.026,2.387.01,4.775.011,7.163v1.388" transform="translate(0 -1.704)" fill="#fd9827"/>
    <path id="Trazado_152734" data-name="Trazado 152734" d="M45.819,73.916c.659,1.2,2.777,1.764,1.858,3.864-1.484,3.393-1.463,3.4-5.192,3.664v6.906c2.133-.175,3.771-.1,4.816,2.439,1.036,2.514,0,3.7-1.515,4.921l4.9,4.9c1.155-.613,1.749-2.849,3.866-1.819,1.061.516,2.449.792,3.082,1.634.622.826.474,2.231.69,3.538.427,0,.995-.032,1.558.007a1.718,1.718,0,0,1,1.694,1.758,1.694,1.694,0,0,1-1.657,1.681c-1.191.053-2.388.052-3.579,0a1.681,1.681,0,0,1-1.688-1.758c-.039-.83.006-1.665-.031-2.495-.009-.214-.149-.557-.3-.6a.923.923,0,0,0-.743.167c-.57.5-1.075,1.072-1.626,1.594a1.73,1.73,0,0,1-2.754.056q-3.6-3.536-7.141-7.132a1.705,1.705,0,0,1-.007-2.674c.541-.583,1.142-1.111,1.667-1.707a.922.922,0,0,0,.163-.744c-.042-.15-.381-.292-.594-.3-.794-.035-1.592,0-2.386-.021a1.732,1.732,0,0,1-1.879-1.906q-.033-5.046,0-10.092a1.727,1.727,0,0,1,1.9-1.887c.795-.023,1.592.019,2.386-.016.212-.009.551-.159.592-.308a.93.93,0,0,0-.173-.743c-.5-.569-1.074-1.074-1.6-1.624a1.733,1.733,0,0,1-.053-2.754q3.539-3.6,7.137-7.136a1.711,1.711,0,0,1,2.677,0c.584.54,1.114,1.138,1.7,1.674.157.143.5.274.64.2a.919.919,0,0,0,.395-.647c.046-.793,0-1.592.02-2.386a1.7,1.7,0,0,1,1.794-1.876q5.154-.04,10.309.005a1.689,1.689,0,0,1,1.777,1.783c.035.758-.02,1.521.025,2.277.017.282.181.769.319.783a1.334,1.334,0,0,0,.9-.32c.524-.442.974-.968,1.473-1.44a1.733,1.733,0,0,1,2.755-.039q3.6,3.54,7.129,7.143a1.7,1.7,0,0,1-.012,2.676c-.466.5-.993.954-1.441,1.473a3.877,3.877,0,0,0-.442.89,4.154,4.154,0,0,0,1.012.366c.682.06,1.374,0,2.06.029a1.71,1.71,0,0,1,1.849,1.825q.04,5.1,0,10.2A1.724,1.724,0,0,1,82.216,91.8c-.759.021-1.521-.023-2.278.021a.892.892,0,0,0-.676.348.875.875,0,0,0,.213.73c.53.592,1.135,1.117,1.672,1.7a1.68,1.68,0,0,1,.009,2.6q-3.569,3.644-7.212,7.213a1.706,1.706,0,0,1-2.675-.039c-.5-.47-.947-1-1.465-1.448a3.614,3.614,0,0,0-.892-.421,3.179,3.179,0,0,0-.366.9c-.055.756.011,1.52-.029,2.277a1.715,1.715,0,0,1-1.712,1.742,1.7,1.7,0,0,1-1.733-1.717,28.542,28.542,0,0,1,.039-4.226,3.523,3.523,0,0,1,1.125-1.656c.248-.259.767-.233,1.086-.451,1.932-1.312,3.5-.9,4.812.934a2.124,2.124,0,0,0,.4.358l4.884-4.882c-1.367-1.273-2.694-2.405-1.552-4.985,1.08-2.439,2.554-2.7,4.737-2.406V81.375c-2.026.136-3.7.138-4.724-2.443-.985-2.492-.086-3.712,1.511-4.889l-4.95-4.952c-1.212,1.393-2.391,2.574-4.948,1.473-2.475-1.066-2.627-2.607-2.386-4.738H58.068c.255,2.134.058,3.713-2.45,4.753s-3.686-.04-4.91-1.56l-4.889,4.9" transform="translate(-12.908 -20.61)" fill="#fd9827"/>
    <path id="Trazado_152735" data-name="Trazado 152735" d="M105.9,69.305c-.833-2.733.507-4.065,2.759-4.848a3.19,3.19,0,0,0,.88-.625,1.858,1.858,0,0,1,2.308-.167c.59.341,1.187.67,1.8,1.016.136-.2.248-.339.338-.494.452-.779.9-1.563,1.4-2.441-.638-.384-1.245-.753-1.855-1.117a1.941,1.941,0,0,1-.978-2.1,9.6,9.6,0,0,0,.019-2.583,2.073,2.073,0,0,1,1.161-2.42c.534-.287,1.051-.605,1.652-.953l-1.7-2.975c-.658.364-1.278.7-1.893,1.049a1.913,1.913,0,0,1-2.223-.143,12.684,12.684,0,0,0-2.323-1.366,2.125,2.125,0,0,1-1.507-2.335c.041-.566.007-1.137.007-1.758h-3.468c0,.607-.029,1.209.007,1.806a2.1,2.1,0,0,1-1.461,2.262,9.552,9.552,0,0,0-2.147,1.236,2.127,2.127,0,0,1-2.779.125c-.475-.319-1-.571-1.561-.889l-1.7,2.953c.64.385,1.256.739,1.855,1.119a1.741,1.741,0,1,1-1.713,3.017c-1.11-.6-2.2-1.243-3.279-1.907a1.691,1.691,0,0,1-.693-2.5q1.628-2.939,3.351-5.825a1.707,1.707,0,0,1,2.593-.65,10.1,10.1,0,0,1,1.313.757,1.515,1.515,0,0,0,2.025.039,1.276,1.276,0,0,0,.727-1.266,16.29,16.29,0,0,1,0-2.061,1.668,1.668,0,0,1,1.717-1.727q3.471-.06,6.943-.007a1.688,1.688,0,0,1,1.734,1.717,7.245,7.245,0,0,1,0,1.624,1.564,1.564,0,0,0,1.208,1.94,1.63,1.63,0,0,0,1.052-.006c.657-.291,1.248-.726,1.888-1.06a1.648,1.648,0,0,1,2.439.6q1.79,2.969,3.465,6.008a1.674,1.674,0,0,1-.626,2.36c-.45.3-.935.549-1.4.822-1.572.913-1.584,2.3-.027,3.21,2.814,1.653,2.864,1.846,1.226,4.684-.8,1.376-1.584,2.757-2.386,4.129-.83,1.417-1.592,1.612-3.04.795a7.484,7.484,0,0,1-.933-.55,1.713,1.713,0,0,0-2.222-.068c-.777.468-.616,1.05-.619,1.657-.015,3.2-.187,3.385-3.353,3.384-.615,0-1.232.025-1.845-.01A1.726,1.726,0,1,1,104,69.311c.536-.035,1.076-.006,1.9-.006" transform="translate(-29.294 -13.736)" fill="#fd9827"/>
    <path id="Trazado_152736" data-name="Trazado 152736" d="M136.858,59.892a53.983,53.983,0,0,1-2.626,15.138c-.442,1.343-1.507,1.892-2.56,1.365-.837-.419-1.044-1.244-.758-2.452a82.118,82.118,0,0,0,1.872-8.44,43.919,43.919,0,0,0-9.249-33.649A43.94,43.94,0,0,0,100.25,16.281a5.6,5.6,0,0,1-1.222-.426,1.592,1.592,0,0,1-.869-1.911,1.6,1.6,0,0,1,1.756-1.3,5.241,5.241,0,0,1,1.267.262c19.367,6.19,31.092,19.2,34.864,39.232.479,2.544.552,5.164.813,7.749" transform="translate(-32.464 -4.185)" fill="#fd9827"/>
    <path id="Trazado_152737" data-name="Trazado 152737" d="M24.524,117.836a6.556,6.556,0,0,1,3.123,4.7,57.416,57.416,0,0,1,.118,6.7,1.548,1.548,0,0,1-1.719,1.469q-6.881.028-13.763.009a1.588,1.588,0,0,1-1.776-1.534,51.877,51.877,0,0,1,.062-6.387,6.562,6.562,0,0,1,3.251-4.949,7.159,7.159,0,0,1-1.443-6.037,6.777,6.777,0,0,1,2.509-3.933,6.9,6.9,0,0,1,8.868.291c2.722,2.407,3.01,5.841.77,9.668m-10.582,9.41h10.4c0-1.342.052-2.533-.013-3.718a3.428,3.428,0,0,0-3.347-3.211c-1.226-.046-2.457-.047-3.684-.005a3.405,3.405,0,0,0-3.343,3.209c-.065,1.185-.013,2.376-.013,3.725m5.179-10.427a3.467,3.467,0,1,0-3.447-3.46,3.48,3.48,0,0,0,3.447,3.46" transform="translate(-3.455 -35.216)" fill="#fd9827"/>
    <path id="Trazado_152738" data-name="Trazado 152738" d="M138.7,120.366a7.476,7.476,0,0,1,3.323,7.136c-.063,1.226,0,2.459-.014,3.688-.015,1.25-.724,2.059-1.758,2.043s-1.7-.82-1.709-2.089c-.011-1.555.01-3.11-.006-4.665a3.445,3.445,0,0,0-3.588-3.639c-1.157-.023-2.316-.033-3.471,0a3.371,3.371,0,0,0-3.324,3.1c-.083,1.219-.016,2.449-.016,3.834,1.744,0,3.436-.084,5.111.047a2.245,2.245,0,0,1,1.58,1.006,2.122,2.122,0,0,1-.249,1.753,1.9,1.9,0,0,1-1.395.632c-2.2.068-4.411.058-6.616.027a1.765,1.765,0,0,1-1.913-2c-.019-1.7-.041-3.4.009-5.1a6.976,6.976,0,0,1,3.282-5.772c-2.274-4.212-1.913-7.6,1.03-9.979a6.987,6.987,0,0,1,8.891.163c2.8,2.456,3.126,5.942.832,9.805m-5.384-7.949a3.445,3.445,0,0,0-3.454,3.434,3.468,3.468,0,1,0,6.935-.024,3.456,3.456,0,0,0-3.482-3.41" transform="translate(-41.249 -36.035)" fill="#fd9827"/>
    <path id="Trazado_152739" data-name="Trazado 152739" d="M73.48,11.45c-2.295-3.995-1.927-7.549.979-9.887a6.928,6.928,0,0,1,8.962.164c2.768,2.414,3.084,6.005.793,9.667.255.211.522.43.785.654a6.837,6.837,0,0,1,2.509,5.089,1.735,1.735,0,0,1-1.6,1.95,1.76,1.76,0,0,1-1.85-1.715c-.286-2.338-1.543-3.472-3.872-3.482-1.012,0-2.024-.021-3.035,0a3.465,3.465,0,0,0-3.508,3.51c-.026,1.083,0,2.167,0,3.43h3.221c1.192,0,2.385-.019,3.577.007A1.736,1.736,0,1,1,80.4,24.3c-2.782.021-5.564.009-8.346,0-1,0-1.8-.484-1.832-1.47a53.859,53.859,0,0,1,.11-6.7A6.407,6.407,0,0,1,73.48,11.45M82.3,6.939A3.464,3.464,0,1,0,78.868,10.4,3.476,3.476,0,0,0,82.3,6.939" transform="translate(-23.224 0)" fill="#fd9827"/>
    <path id="Trazado_152740" data-name="Trazado 152740" d="M57.182,90.853A10.42,10.42,0,1,1,67.47,101.3,10.441,10.441,0,0,1,57.182,90.853m3.48-.023a6.941,6.941,0,1,0,7.012-6.9,6.952,6.952,0,0,0-7.012,6.9" transform="translate(-18.925 -26.626)" fill="#fd9827"/>
    <path id="Trazado_152741" data-name="Trazado 152741" d="M69.06,150.114a48.461,48.461,0,0,1-26.345-7.981c-1.147-.746-1.449-1.729-.841-2.63s1.615-1.021,2.762-.267a44.285,44.285,0,0,0,18.073,6.892,44.8,44.8,0,0,0,27.443-4.564c.354-.181.694-.39,1.058-.547a1.7,1.7,0,0,1,2.314.745,1.632,1.632,0,0,1-.749,2.306c-1.966.986-3.941,1.975-5.984,2.781a48.021,48.021,0,0,1-17.732,3.264" transform="translate(-13.757 -45.918)" fill="#fd9827"/>
    <path id="Trazado_152742" data-name="Trazado 152742" d="M114.312,62.34a5.205,5.205,0,1,1-5.126-5.232,5.23,5.23,0,0,1,5.126,5.232m-3.478-.039a1.729,1.729,0,1,0-1.692,1.739,1.74,1.74,0,0,0,1.692-1.739" transform="translate(-34.387 -18.9)" fill="#fd9827"/>
  </g>
</svg>
