<svg id="Grupo_158076" data-name="Grupo 158076" xmlns="http://www.w3.org/2000/svg" xmlns:xlink="http://www.w3.org/1999/xlink" width="96.378" height="96.344" viewBox="0 0 96.378 96.344">
  <defs>
    <clipPath id="clip-path">
      <rect id="Rectángulo_35123" data-name="Rectángulo 35123" width="96.378" height="96.344" fill="#fd9827"/>
    </clipPath>
  </defs>
  <g id="Grupo_158076-2" data-name="Grupo 158076" clip-path="url(#clip-path)">
    <path id="Trazado_152743" data-name="Trazado 152743" d="M69.058,0H92.579c2.867.951,3.87,3,3.8,5.927-.119,4.638-.023,9.281-.035,13.921a4.675,4.675,0,0,1-5,5c-1.4.01-2.809,0-4.267,0v3.161h2.993V31.1H82.352V49.7H75.13c.258.876.53,1.639.7,2.426.122.57.375.741.95.734,2.508-.031,5.017-.013,7.525-.013h1.179V68.368H96.294V96.286H71.553V68.333H82.289V55.952H76.067a22.482,22.482,0,0,1-.669,2.254,10.9,10.9,0,0,1-10.627,7.069q-13.545.009-27.092,0c-2.226,0-4.454.04-6.679-.013a10.854,10.854,0,0,1-10.742-9.957c-.03-.3-.088-.593-.13-.862H17.17v13.91c2.943,0,5.823-.01,8.7,0,3.311.015,5.186,1.9,5.192,5.2q.01,6.161,0,12.323v1.137H34.2c0,1.468.008,2.809,0,4.15-.024,3.283-1.932,5.175-5.229,5.177q-11.9.006-23.8-.005a7.312,7.312,0,0,1-1.584-.152A4.945,4.945,0,0,1,0,92.579V86.934H3.116c0-.5,0-.9,0-1.306.016-4.326-.03-8.653.074-12.976a4.283,4.283,0,0,1,3.97-4.182c1.679-.157,3.379-.088,5.071-.116.552-.009,1.105,0,1.737,0V51.286c2.1,0,4.04.01,5.979-.012.278,0,.708-.082.806-.267.479-.9.87-1.84,1.323-2.837H10.855V40.42c-2.01,0-3.92.007-5.83,0a4.737,4.737,0,0,1-4.3-2.23A15.248,15.248,0,0,1,0,36.693V3.763A5.468,5.468,0,0,1,3.764,0H21.075c2.882.93,3.9,2.967,3.809,5.905-.124,4.2-.032,8.4-.032,12.6q0,8.417,0,16.834a4.709,4.709,0,0,1-5.03,5.077c-1.474.018-2.947,0-4.421,0H14.03v4.635h7.379c2.146,0,4.289.188,6.312-.923a3.073,3.073,0,0,0,1.574-1.4,12.306,12.306,0,0,1,15.222-6.239,1.174,1.174,0,0,0,1.6-.5c3.212-3.984,7.385-5.639,12.413-4.608a12.188,12.188,0,0,1,9.8,11.756,1.091,1.091,0,0,0,.722,1.113c1.169.577,2.254,1.321,3.373,2,.21.127.421.353.634.356,2.028.027,4.057.016,6.127.016V31.056H71.541V27.983h2.965V24.852c-1.4,0-2.746,0-4.087,0-3.265-.011-5.136-1.87-5.141-5.127q-.011-7.288,0-14.577a7.1,7.1,0,0,1,.144-1.582A4.908,4.908,0,0,1,69.058,0M46.8,41.152c-.44-.26-.735-.43-1.026-.609-5.809-3.568-12.265-1.2-14.369,5.288-.2.627-.543.771-1.133.849a7.7,7.7,0,0,0-5.784,11.727c1.578,2.655,4.07,3.745,7.127,3.739q16.558-.031,33.116-.01c.282,0,.565-.01.846-.026a7.722,7.722,0,0,0,1.312-15.271c-.632-.149-1.272-.261-2.014-.412a9.787,9.787,0,0,0-.76-7.326A9.214,9.214,0,0,0,58.3,34.526a8.923,8.923,0,0,0-5.8.348c-2.876,1.137-4.59,3.377-5.7,6.278M27.9,86.95a3.357,3.357,0,0,0,.082-.5c0-4.355.018-8.711,0-13.066-.006-1.362-.6-1.894-2-1.9q-8.883-.009-17.766,0c-1.479,0-2,.545-2,2.076q-.008,5.687,0,11.374V86.95ZM68.355,15.494H93.149a6.85,6.85,0,0,0,.073-.694c0-3.228.013-6.455,0-9.683-.007-1.507-.515-2-2.067-2q-10.341-.011-20.682,0c-1.6,0-2.109.534-2.114,2.166-.008,2.193,0,4.387,0,6.58v3.628M3.19,24.808H21.7V9.391H3.19Zm18.56,3.233H3.168c0,2.675-.037,5.3.021,7.917.02.89.7,1.306,1.553,1.309q7.664.02,15.329,0a1.471,1.471,0,0,0,1.661-1.535c.057-2.532.018-5.066.018-7.691M74.617,80.7H93.152V71.57H74.617Zm18.571,3.281H74.635v9.161H93.188ZM31.062,90.2H3.18c-.239,2.558.179,3.022,2.654,3.022H25.759c1.222,0,2.445.027,3.665-.019a1.517,1.517,0,0,0,1.635-1.656c.019-.433,0-.868,0-1.346M93.179,18.7H68.452c-.343,2.386.226,3.071,2.5,3.071H88.061c1.128,0,2.258.026,3.384-.011,1.043-.034,1.619-.492,1.722-1.37a14.8,14.8,0,0,0,.012-1.69M21.662,6.16c.437-2.767-.634-3.088-2.471-3.063-4.382.06-8.767.018-13.15.021a13.994,13.994,0,0,0-1.593.057A1.333,1.333,0,0,0,3.177,4.455c-.054.549-.01,1.107-.01,1.7ZM77.775,27.9h6.091v-3H77.775Z" fill="#fd9827"/>
    <rect id="Rectángulo_35119" data-name="Rectángulo 35119" width="6.095" height="3.029" transform="translate(9.392 31.117)" fill="#fd9827"/>
    <rect id="Rectángulo_35120" data-name="Rectángulo 35120" width="6.092" height="2.999" transform="translate(83.998 74.65)" fill="#fd9827"/>
    <rect id="Rectángulo_35121" data-name="Rectángulo 35121" width="2.926" height="3.029" transform="translate(77.777 74.611)" fill="#fd9827"/>
    <rect id="Rectángulo_35122" data-name="Rectángulo 35122" width="6.128" height="2.994" transform="translate(77.743 87.066)" fill="#fd9827"/>
    <path id="Trazado_152744" data-name="Trazado 152744" d="M118.213,121.165c-.024-.156-.054-.275-.06-.4-.132-2.795.165-3.045,3.067-2.539v2.935Z" transform="translate(-31.14 -31.112)" fill="#fd9827"/>
  </g>
</svg>
