<svg xmlns="http://www.w3.org/2000/svg" xmlns:xlink="http://www.w3.org/1999/xlink" width="77" height="77" viewBox="0 0 77 77">
  <defs>
    <clipPath id="clip-path">
      <rect id="Rectángulo_35682" data-name="Rectángulo 35682" width="46.77" height="46.723" fill="none"/>
    </clipPath>
  </defs>
  <g id="Grupo_158884" data-name="Grupo 158884" transform="translate(-656.891 -1572)">
    <g id="Grupo_158888" data-name="Grupo 158888">
      <circle id="Elipse_4724" data-name="Elipse 4724" cx="38.5" cy="38.5" r="38.5" transform="translate(656.891 1572)" fill="#fd9827"/>
      <g id="Grupo_158887" data-name="Grupo 158887" transform="translate(671.891 1587)">
        <g id="Grupo_158887-2" data-name="Grupo 158887" clip-path="url(#clip-path)">
          <path id="Trazado_154354" data-name="Trazado 154354" d="M48.268,60.432v-1.45h4.514v1.441H54.3V58.975H58.8c.009.127.026.262.026.4,0,1.571.01,3.142-.008,4.713a1.366,1.366,0,0,1-.211.691c-.83,1.277-1.689,2.534-2.518,3.811a.951.951,0,0,0-.147.643q1.327,6.067,2.691,12.127c.013.059.031.117.047.177.322.051.635.077.935.153a2.981,2.981,0,0,1,2.216,2.738c.033,1.036.007,2.073.007,3.148H39.226V86.527c0-.66-.01-1.32,0-1.979a3.02,3.02,0,0,1,2.8-2.965c.109-.009.217-.015.366-.026q.441-1.97.882-3.936c.616-2.771,1.236-5.542,1.831-8.317a1.073,1.073,0,0,0-.134-.73c-.814-1.268-1.668-2.509-2.488-3.774a1.455,1.455,0,0,1-.23-.732c-.02-1.68-.01-3.361-.01-5.08h4.511v1.444Zm-1.656,9.1-2.671,12.03H57.133l-2.674-12.03ZM60.34,86.084c0-.454,0-.86,0-1.267A1.54,1.54,0,0,0,58.6,83.085q-4.971,0-9.941,0-3.157,0-6.313,0a1.474,1.474,0,0,0-1.577,1.258,15.99,15.99,0,0,0-.013,1.74ZM44.418,65c.625.938,1.214,1.8,1.78,2.685a.625.625,0,0,0,.608.322c2.246-.012,4.494-.052,6.737.017a1.644,1.644,0,0,0,1.75-.947A24.527,24.527,0,0,1,56.655,65Zm5.361-3.066h-4.53V60.487H43.784v2.951H57.3V60.491H55.79V61.94H51.277V60.5h-1.5Z" transform="translate(-27.167 -40.848)"/>
          <path id="Trazado_154355" data-name="Trazado 154355" d="M13.581,6.691a6.745,6.745,0,0,1-2.9,5.636,1.876,1.876,0,0,0-.89,1.739A7.319,7.319,0,0,1,9.7,15.752a2.974,2.974,0,0,1-3.194,2.34A3.032,3.032,0,0,1,3.77,15.215c-.016-.439-.014-.88,0-1.32a1.675,1.675,0,0,0-.793-1.5A6.6,6.6,0,0,1,0,6.523,6.78,6.78,0,0,1,13.48,5.757c.047.341.074.686.1.934m-5.29,6.868a3.548,3.548,0,0,1,1.673-2.591,4.957,4.957,0,0,0,1.979-5.2A4.98,4.98,0,0,0,8.225,1.725,5.016,5.016,0,0,0,2.87,3.265a5.219,5.219,0,0,0,.9,7.842,3.214,3.214,0,0,1,1.474,2.246,1.807,1.807,0,0,0,.047.189h.738c0-1.48.008-2.924-.013-4.368a.6.6,0,0,0-.293-.392,2.259,2.259,0,1,1,3.166-2.8,2.2,2.2,0,0,1-1,2.751.581.581,0,0,0-.359.612c.016,1.225.007,2.451.007,3.676v.538Zm-3,1.55a1.508,1.508,0,0,0,1.505,1.484,1.486,1.486,0,0,0,1.472-1.484ZM6.773,7.54a.75.75,0,1,0-.743-.758.759.759,0,0,0,.743.758" transform="translate(0 0)"/>
          <path id="Trazado_154356" data-name="Trazado 154356" d="M112.335,12.6l-.947.427c-.911-.911-1.823-1.817-2.721-2.737a.425.425,0,0,1-.046-.357,7.457,7.457,0,0,1,.324-.738l-.969-.372V4.77L108.9,4.4c0-.053.013-.094,0-.113-.533-.688-.194-1.142.36-1.62A21.927,21.927,0,0,0,111.025.906a.561.561,0,0,1,.832-.144,3.7,3.7,0,0,0,.483.225l.383-.981c1.283,0,2.569,0,3.855.01a.428.428,0,0,1,.284.226,6.447,6.447,0,0,1,.266.685c.055.009.1.03.113.017.679-.515,1.136-.205,1.625.347.654.739,1.389,1.406,2.112,2.127l-.4.923c.028.037.035.058.045.06.916.117.968.735.921,1.48a22.6,22.6,0,0,0,0,2.449c.019.405-.118.6-.5.684a3.107,3.107,0,0,0-.444.166.45.45,0,0,0,0,.144c.345.866.345.865-.326,1.537-.71.711-1.418,1.424-2.153,2.161l-.922-.394c-.043.034-.085.049-.088.071-.11.816-.613.959-1.351.9a23.03,23.03,0,0,0-2.59-.007c-.356.012-.556-.077-.626-.442a3.185,3.185,0,0,0-.215-.545m-2.025-8.895c.116.255.207.453.295.653a.9.9,0,0,1-.476,1.189c-.624.142-.735.51-.663,1.049a1.5,1.5,0,0,1,0,.47c-.1.546.127.819.655.953a.876.876,0,0,1,.5,1.133.794.794,0,0,0,.263,1.245,1.191,1.191,0,0,1,.3.3.748.748,0,0,0,1.171.236.842.842,0,0,1,1.127.421c.146.695.571.794,1.154.718a1.284,1.284,0,0,1,.376,0,.731.731,0,0,0,.963-.642c.087-.386.787-.749,1.081-.541.629.447,1.012.148,1.39-.327a1.33,1.33,0,0,1,.267-.265.679.679,0,0,0,.2-1.058.857.857,0,0,1,.392-1.175c.718-.156.805-.6.728-1.2a1.672,1.672,0,0,1,0-.47c.07-.444-.1-.669-.543-.8a.911.911,0,0,1-.561-1.333l.266-.576a9.314,9.314,0,0,1-.892-.832c-.339-.4-.654-.534-1.138-.219a.867.867,0,0,1-1.139-.394c-.152-.749-.636-.8-1.235-.74a3.119,3.119,0,0,1-.658,0,.394.394,0,0,0-.5.359c-.081.419-.289.755-.737.789a4.8,4.8,0,0,1-.874-.134c-.16-.019-.381-.055-.48.029-.43.363-.826.767-1.234,1.157" transform="translate(-74.788 -0.004)"/>
          <path id="Trazado_154357" data-name="Trazado 154357" d="M115.52,68.8c0,1.036,0,2.053,0,3.069,0,.738.012,1.477,0,2.215a2.234,2.234,0,0,1-2.18,2.221c-1.727.026-3.455.007-5.183.005a.739.739,0,0,1-.151-.036V74.807h.5q2.261,0,4.523,0c.737,0,.988-.252.989-.991q0-2.238,0-4.477V68.8Z" transform="translate(-74.806 -47.655)"/>
          <path id="Trazado_154358" data-name="Trazado 154358" d="M19.606,83.491h1.508c0,.184,0,.351,0,.518.006.711.258.97.961.972q2.332,0,4.665,0h.368V86.49H22.195a2.31,2.31,0,0,1-2.589-2.625c0-.109,0-.217,0-.374" transform="translate(-13.579 -57.829)"/>
          <rect id="Rectángulo_35678" data-name="Rectángulo 35678" width="1.442" height="1.467" transform="translate(39.243 15.119)"/>
          <rect id="Rectángulo_35679" data-name="Rectángulo 35679" width="1.45" height="1.454" transform="translate(39.242 18.134)"/>
          <rect id="Rectángulo_35680" data-name="Rectángulo 35680" width="1.45" height="1.451" transform="translate(6.063 19.644)"/>
          <rect id="Rectángulo_35681" data-name="Rectángulo 35681" width="1.466" height="1.433" transform="translate(6.036 22.663)"/>
          <path id="Trazado_154359" data-name="Trazado 154359" d="M64.484,107.244l1.467.328-.326,1.464-1.46-.325.319-1.467" transform="translate(-44.443 -74.281)"/>
          <path id="Trazado_154360" data-name="Trazado 154360" d="M68.086,98l-.334,1.459-1.458-.32.315-1.458,1.478.32" transform="translate(-45.917 -67.656)"/>
          <path id="Trazado_154361" data-name="Trazado 154361" d="M62.391,116.805l1.465.334c-.109.493-.214.969-.324,1.468l-1.456-.332c.106-.494.206-.959.315-1.47" transform="translate(-42.996 -80.903)"/>
          <path id="Trazado_154362" data-name="Trazado 154362" d="M125.282,13.6a3.769,3.769,0,1,1-3.776-3.774,3.78,3.78,0,0,1,3.776,3.774m-3.756-2.266a2.261,2.261,0,1,0,2.248,2.3,2.271,2.271,0,0,0-2.248-2.3" transform="translate(-81.554 -6.805)"/>
        </g>
      </g>
    </g>
  </g>
</svg>
