<svg id="Grupo_158077" data-name="Grupo 158077" xmlns="http://www.w3.org/2000/svg" xmlns:xlink="http://www.w3.org/1999/xlink" width="99.109" height="102.481" viewBox="0 0 99.109 102.481">
  <defs>
    <clipPath id="clip-path">
      <rect id="Rectángulo_35124" data-name="Rectángulo 35124" width="99.109" height="102.481" fill="#fd9827"/>
    </clipPath>
  </defs>
  <g id="Grupo_158077-2" data-name="Grupo 158077" clip-path="url(#clip-path)">
    <path id="Trazado_152745" data-name="Trazado 152745" d="M66.781,0A2.17,2.17,0,0,1,68,2.3c-.041.4,0,.8-.009,1.2-.018.6-.039,1.121.667,1.485a1.76,1.76,0,0,0,1.991.035c2.824-1.706,3.055-1.619,4.691,1.21.784,1.356,1.575,2.706,2.344,4.071.74,1.314.51,2.137-.784,2.917-.342.206-.69.4-1.035.605-1.53.889-1.525,2.22.014,3.106,2.794,1.61,2.851,1.823,1.234,4.621-.783,1.356-1.557,2.718-2.351,4.066s-1.6,1.555-2.99.781c-.349-.194-.694-.4-1.04-.6C69.2,24.919,68,25.632,68,27.424c0,3.162-.177,3.338-3.339,3.338-1.567,0-3.135.015-4.7-.005s-2.172-.631-2.19-2.185a7.042,7.042,0,0,1,.01-1.2,1.566,1.566,0,0,0-1.1-1.839,1.109,1.109,0,0,0-1.264.039,15.451,15.451,0,0,1-1.729,1,1.657,1.657,0,0,1-2.418-.637q-1.729-2.865-3.345-5.8a1.671,1.671,0,0,1,.657-2.416,7.477,7.477,0,0,1,1.384-.8,1.378,1.378,0,0,0,.978-1.776,2.09,2.09,0,0,0-.629-1.073c-.542-.43-1.21-.7-1.79-1.087a1.661,1.661,0,0,1-.621-2.349q1.636-2.976,3.4-5.884a1.651,1.651,0,0,1,2.352-.609,5.673,5.673,0,0,1,1.29.755,1.569,1.569,0,0,0,2.3-.054,1.519,1.519,0,0,0,.5-.839,6.63,6.63,0,0,0,.014-1.6A2.27,2.27,0,0,1,58.974,0Zm7.3,19.944c-.6-.352-1.074-.659-1.574-.917a2.117,2.117,0,0,1-1.219-2.463,10.46,10.46,0,0,0,0-2.587,1.985,1.985,0,0,1,1.161-2.2c.529-.266,1.035-.578,1.628-.913l-1.69-2.942c-.564.327-1.06.587-1.526.892a2.123,2.123,0,0,1-2.674-.082,10.688,10.688,0,0,0-2.149-1.248A2.145,2.145,0,0,1,64.58,5.136c.034-.551.005-1.107.005-1.649h-3.41a10.341,10.341,0,0,0,.008,1.271,2.357,2.357,0,0,1-1.8,2.812,1.524,1.524,0,0,0-.542.25c-1.765,1.581-3.551,1.845-5.384-.092l-1.771,3.086c.575.331,1.022.622,1.5.854a2.225,2.225,0,0,1,1.331,2.61,9.4,9.4,0,0,0-.006,2.182,2.143,2.143,0,0,1-1.343,2.6c-.481.269-.96.541-1.473.83l1.694,2.939c.566-.326,1.051-.559,1.485-.863a2.131,2.131,0,0,1,2.752.075,15.02,15.02,0,0,0,2.328,1.336,1.938,1.938,0,0,1,1.228,1.974c-.02.625,0,1.25,0,1.92h3.41c0-.529.036-1-.007-1.457a2.259,2.259,0,0,1,1.6-2.556,7.066,7.066,0,0,0,1.811-1.035A2.265,2.265,0,0,1,71,22.088c.424.295.888.53,1.375.816l1.7-2.96" transform="translate(-11.61)" fill="#fd9827"/>
    <path id="Trazado_152746" data-name="Trazado 152746" d="M64.052,57.68c.341.365.574.63.823.879q6.155,6.159,12.311,12.317a4.961,4.961,0,0,1,.723.824,1.669,1.669,0,0,1-2.283,2.31,5.3,5.3,0,0,1-.9-.785Q67.287,65.8,59.869,58.356a2.327,2.327,0,0,0-1.834-.741c-7.139.025-14.278.014-21.417.016-1.9,0-2.441.542-2.442,2.436q0,8.457,0,16.914V78.1c.971,0,1.858.014,2.746,0a5.4,5.4,0,0,1,5.355,2.976c.137.261.7.422,1.06.424,5.2.027,10.409.015,15.613.024a5.189,5.189,0,0,1,1.384.144,1.519,1.519,0,0,1,1.15,1.666,1.538,1.538,0,0,1-1.33,1.532,6.85,6.85,0,0,1-1.2.07q-7.507.006-15.013,0H42.806V88.36h1.15q6.656,0,13.311,0c1.714,0,2.528.568,2.514,1.736s-.818,1.687-2.559,1.692c-3.568.01-3.568.009-5.588,2.933-.07.1-.116.222-.253.489,1.064,0,2.016,0,2.969,0,1.3.008,2.6-.021,3.9.051a1.563,1.563,0,0,1,1.528,1.556,1.616,1.616,0,0,1-1.354,1.712,4.617,4.617,0,0,1-.99.1c-3,.007-6,0-9.007.007a1.841,1.841,0,0,1-1.589-3.219c.857-1.132,1.7-2.273,2.662-3.551H42.811v10.184c1.017,0,2.008-.014,3,0,1.411.025,1.97.6,2.044,2.013.17,3.249-.749,5.98-3.864,7.469a7.917,7.917,0,0,1-3.274.725c-11.176.051-22.352.035-33.528.03-4.5,0-7.81-3.424-7.086-8.8a1.588,1.588,0,0,1,1.758-1.428c1.058-.02,2.116,0,3.28,0v-1.19q0-8.457,0-16.914c0-3.759,2.065-5.841,5.8-5.844q9.258-.01,18.515,0h1.3V76.953c0-5.639.069-11.278-.025-16.914a5.487,5.487,0,0,1,5.825-5.856c14.378.084,28.757.033,43.136.037,3.671,0,5.718,2.029,5.723,5.668q.01,7.757-.005,15.513c0,1.524-1.217,2.4-2.429,1.8a1.993,1.993,0,0,1-.979-2.036q.009-7.205,0-14.411c0-.4.009-.8,0-1.2a1.729,1.729,0,0,0-1.932-1.91c-2.7-.02-5.4-.007-8.107-.007q-3.6,0-7.206,0c-.188,0-.375.025-.711.048M28.12,81.534c.393.419.61.665.842.9q2.971,2.969,5.945,5.937a4.855,4.855,0,0,1,.707.836,1.544,1.544,0,0,1-.27,2.084,1.57,1.57,0,0,1-2.1.167,5.4,5.4,0,0,1-.818-.73c-2.854-2.852-5.687-5.725-8.575-8.542a2.469,2.469,0,0,0-1.547-.635c-3.767-.053-7.535-.032-11.3-.026-1.88,0-2.448.571-2.448,2.451q0,8.5,0,17c0,.323.033.646.052,1.007H39.2c.054-.12.1-.178.1-.236.009-6.135.03-12.269.005-18.4a1.642,1.642,0,0,0-1.756-1.792c-3.059-.053-6.12-.018-9.435-.018M3.385,105.517a9.343,9.343,0,0,0,.512,1.567,3.531,3.531,0,0,0,3.431,1.8q16.614-.014,33.226-.013a5.422,5.422,0,0,0,1.478-.187,3.137,3.137,0,0,0,2.3-3.165Z" transform="translate(0 -13.202)" fill="#fd9827"/>
    <path id="Trazado_152747" data-name="Trazado 152747" d="M105.787,102.284h6.088c1.3,0,2.6-.012,3.9,0a3.358,3.358,0,0,1,3.664,3.5c.05,5.57.03,11.141.012,16.711,0,1.232-.666,1.964-1.659,1.986-1.021.023-1.719-.741-1.744-2.016-.034-1.7.011-3.4-.026-5.1a1.681,1.681,0,0,0-.366-1.064c-3.162-3.205-6.356-6.38-9.544-9.56a1.506,1.506,0,0,0-.328-.137v1.088q0,7.155,0,14.31a6.974,6.974,0,0,1-.033,1,1.584,1.584,0,0,1-1.527,1.463,1.494,1.494,0,0,1-1.712-1.214,15.72,15.72,0,0,1-.2-2.158q-6.446,0-12.865,0c-3.818,0-5.867-2.05-5.871-5.873q-.006-9.507,0-19.013c0-3.817,2.058-5.877,5.867-5.883,3.5-.006,7.007.061,10.507-.018a5.357,5.357,0,0,1,5.852,5.811c-.115,1.993-.021,4-.021,6.172M91.182,93.756c.43.449.673.714.927.969q3.077,3.073,6.156,6.145c.582.582,1,1.3.518,2.05a2.218,2.218,0,0,1-1.443.993,2.493,2.493,0,0,1-1.615-.775c-2.6-2.535-5.151-5.124-7.718-7.694-.229-.229-.476-.442-.883-.818v16.135h15.245c0-5.148.012-10.212-.011-15.276a1.6,1.6,0,0,0-1.709-1.712c-3.057-.052-6.116-.018-9.466-.018m-4.167,20.562c0,.611-.041,1.112.008,1.6a1.7,1.7,0,0,0,1.817,1.738q5.848.052,11.7,0a1.664,1.664,0,0,0,1.8-1.525,18.143,18.143,0,0,0,.011-1.82Zm23.358-8.57,5.607,5.584v-5.584Z" transform="translate(-20.364 -22.002)" fill="#fd9827"/>
    <path id="Trazado_152748" data-name="Trazado 152748" d="M112.615,52.139q0-12.51,0-25.021c0-2.758-1.366-4.76-3.723-5.4a8.512,8.512,0,0,0-2.174-.244c-4.571-.021-9.141-.01-13.712-.013a6.7,6.7,0,0,1-1.2-.057,1.55,1.55,0,0,1-1.376-1.593,1.527,1.527,0,0,1,1.2-1.628,4.043,4.043,0,0,1,1.085-.131c4.77-.008,9.541-.028,14.312,0,4.377.027,7.545,2.382,8.665,6.451a10.179,10.179,0,0,1,.318,2.666q.027,24.972.009,49.942A4.528,4.528,0,0,1,115.9,78.3a1.526,1.526,0,0,1-1.718,1.2,1.552,1.552,0,0,1-1.532-1.443,7.089,7.089,0,0,1-.035-1.1q0-12.411,0-24.821" transform="translate(-22.033 -4.395)" fill="#fd9827"/>
    <path id="Trazado_152749" data-name="Trazado 152749" d="M26.821,9.016c1.934,0,3.868-.017,5.8.007a1.774,1.774,0,0,1,1.96,1.478c.155,1.107-.657,1.917-1.988,1.922-3.5.014-7,.005-10.5.005-.267,0-.534-.008-.8,0a1.835,1.835,0,0,0-2.045,2.047c-.034,1.466,0,2.934-.013,4.4-.014,1.306-.625,2.066-1.647,2.1-1.045.033-1.742-.78-1.761-2.111-.02-1.467-.028-2.935,0-4.4a5.188,5.188,0,0,1,5.494-5.443c1.834-.019,3.668,0,5.5,0" transform="translate(-3.851 -2.195)" fill="#fd9827"/>
    <path id="Trazado_152750" data-name="Trazado 152750" d="M14.51,31.659a15.18,15.18,0,0,1,10.653,4.325,1.672,1.672,0,0,1,.374,2.248,1.564,1.564,0,0,1-2,.657,3.172,3.172,0,0,1-.973-.681,11.889,11.889,0,0,0-16.184.02c-1.028.891-2.018.941-2.727.137-.688-.781-.51-1.793.485-2.693A15.16,15.16,0,0,1,14.51,31.659" transform="translate(-0.788 -7.714)" fill="#fd9827"/>
    <path id="Trazado_152751" data-name="Trazado 152751" d="M97.177,40.174c0,1.066.02,2.132-.007,3.2a1.708,1.708,0,1,1-3.4-.02c-.023-1.932-.03-3.864,0-5.8a2.057,2.057,0,0,0-1.314-2.131,11.146,11.146,0,0,1-1.33-.685,1.685,1.685,0,0,1,1.509-3.011c2.891,1.206,4.74,2.64,4.54,6.548-.033.632,0,1.265-.005,1.9" transform="translate(-21.988 -7.694)" fill="#fd9827"/>
    <path id="Trazado_152752" data-name="Trazado 152752" d="M22.507,44.112c.025,1.555-1.465,2.487-2.524,1.656-2.715-2.13-5.294-2.16-7.97.025a1.559,1.559,0,0,1-2.149-.356,1.705,1.705,0,0,1,.18-2.35,8.513,8.513,0,0,1,9.526-1.6,14.823,14.823,0,0,1,2.5,1.783,2.079,2.079,0,0,1,.433.845" transform="translate(-2.309 -9.911)" fill="#fd9827"/>
    <path id="Trazado_152753" data-name="Trazado 152753" d="M19.235,64.758c0,1.33.02,2.662-.006,3.992-.023,1.162-.638,1.859-1.61,1.9a1.692,1.692,0,0,1-1.78-1.849q-.064-4.091,0-8.183a1.716,1.716,0,0,1,1.778-1.86c.974.042,1.59.737,1.613,1.9.027,1.364.007,2.728.007,4.092" transform="translate(-3.851 -14.317)" fill="#fd9827"/>
    <path id="Trazado_152754" data-name="Trazado 152754" d="M72.064,120.877c-.8,0-1.6.036-2.4-.008a1.7,1.7,0,0,1-1.814-1.724,1.66,1.66,0,0,1,1.842-1.673q2.4-.043,4.8,0a1.659,1.659,0,0,1,1.819,1.6,1.731,1.731,0,0,1-1.746,1.8,1.948,1.948,0,0,1-.2.008h-2.3Z" transform="translate(-16.531 -28.617)" fill="#fd9827"/>
    <path id="Trazado_152755" data-name="Trazado 152755" d="M19.23,51.431a1.705,1.705,0,0,1-1.644,1.675,1.745,1.745,0,0,1-1.716-1.718,1.7,1.7,0,0,1,1.661-1.654,1.652,1.652,0,0,1,1.7,1.7" transform="translate(-3.867 -12.118)" fill="#fd9827"/>
    <path id="Trazado_152756" data-name="Trazado 152756" d="M71.25,18.65a5.108,5.108,0,1,1-10.216,0,5.108,5.108,0,0,1,10.216,0m-5.138-1.668a1.742,1.742,0,0,0-1.658,1.775,1.69,1.69,0,0,0,3.376-.165,1.73,1.73,0,0,0-1.718-1.61" transform="translate(-14.871 -3.3)" fill="#fd9827"/>
  </g>
</svg>
