<svg xmlns="http://www.w3.org/2000/svg" xmlns:xlink="http://www.w3.org/1999/xlink" width="77" height="77" viewBox="0 0 77 77">
  <defs>
    <clipPath id="clip-path">
      <rect id="Rectángulo_35706" data-name="Rectángulo 35706" width="43.157" height="47.59" fill="#31313c"/>
    </clipPath>
  </defs>
  <g id="Grupo_158007" data-name="Grupo 158007" transform="translate(-656.891 -1571.613)">
    <g id="Grupo_158935" data-name="Grupo 158935">
      <circle id="Elipse_4724" data-name="Elipse 4724" cx="38.5" cy="38.5" r="38.5" transform="translate(656.891 1571.613)" fill="#fd9827"/>
      <g id="Grupo_158934" data-name="Grupo 158934" transform="translate(673.891 1586.613)">
        <g id="Grupo_158934-2" data-name="Grupo 158934" clip-path="url(#clip-path)">
          <path id="Trazado_154458" data-name="Trazado 154458" d="M1.124,47.591c-.28-.23-.633-.361-.845-.687A2,2,0,0,1,0,45.754Q.005,31.721,0,17.687,0,9.764,0,1.841A1.616,1.616,0,0,1,1.857,0H41.264c1.289,0,1.879.584,1.879,1.863q0,9.991,0,19.982a3.143,3.143,0,0,1-.005.371.692.692,0,0,1-1.376.043,2.406,2.406,0,0,1-.013-.464q0-9.921.01-19.842c0-.45-.123-.568-.57-.567q-19.611.018-39.221,0c-.495,0-.579.155-.579.606q.017,21.794.009,43.588c0,.618,0,.619.592.619q19.587,0,39.175.011c.47,0,.6-.117.595-.591q-.024-9.875-.011-19.749c0-.139-.007-.279,0-.418a.7.7,0,1,1,1.39-.005c.008.139,0,.279,0,.418,0,6.568-.013,13.135.014,19.7a1.9,1.9,0,0,1-1.228,2.027Z" transform="translate(0 0)" fill="#31313c"/>
          <path id="Trazado_154459" data-name="Trazado 154459" d="M61.684,79.711q0-8.341,0-16.682c0-1.055.3-1.357,1.349-1.357h28.95c1.051,0,1.353.3,1.353,1.354q0,16.7,0,33.41c0,1.022-.31,1.334-1.326,1.334h-29c-1.019,0-1.329-.311-1.329-1.331q0-8.364,0-16.728m1.4,0V95.84c0,.108,0,.217,0,.325,0,.077-.006.155.076.2a.582.582,0,0,0,.836-.445c.012-.139.021-.278.032-.417a16.466,16.466,0,0,1,3.064-8.577A17.72,17.72,0,0,0,69.1,83.792a2.05,2.05,0,0,0,.224-.872c-.007-3.176,0-6.351-.006-9.527a8.308,8.308,0,0,1,.152-1.755c1.338-6.259,8.107-8.22,12.837-5.34a8.869,8.869,0,0,1,4.172,7.348c.219,3.192.065,6.409.071,9.615a1.281,1.281,0,0,1-.289.816c-.087.109-.121.187-.016.315.412.5.77,1.054,1.223,1.514a9.718,9.718,0,0,1,1.933,2.87,18.253,18.253,0,0,1,1.5,7.169c.014.6.392.385.684.432.407.067.352-.2.352-.449q0-16.2.008-32.392c0-.384-.087-.48-.476-.479q-13.966.018-27.931,0c-.4,0-.472.108-.471.484q.02,8.086.009,16.173m7.648,2.666c.926-.585,1.794-1.114,2.639-1.677a1.67,1.67,0,0,0,.683-1.172.861.861,0,0,0-.258-.829,4.205,4.205,0,0,1-1.212-2.5,36.08,36.08,0,0,1-.076-4.594,4.03,4.03,0,0,1,5.012-3.923,4.646,4.646,0,0,1,3.624,4.62c.01,4.043,0,8.086,0,12.129,0,.543,0,.546.514.331,1.053-.443,2.1-.9,3.158-1.329a.5.5,0,0,0,.354-.557c-.009-2.866.048-5.733-.023-8.6a8.608,8.608,0,0,0-2.27-5.745,7.011,7.011,0,0,0-5.821-2.1,6.685,6.685,0,0,0-6.313,6.33c-.073,3.173-.016,6.35-.016,9.616m1.485.785c-.052,0-.089-.011-.11,0-.434.267-.86.549-1.3.8a1.314,1.314,0,0,0-.508.521,8.214,8.214,0,0,0-.273,7.991,1.061,1.061,0,0,0,1.063.667c.635-.014,1.27-.012,1.9,0a4.129,4.129,0,0,1,4.121,2.979.3.3,0,0,0,.351.253c.65-.008,1.3-.02,1.951,0,.316.012.405-.082.438-.4a19.855,19.855,0,0,1,1.463-6.009,8.188,8.188,0,0,1,2.5-3.4,5.843,5.843,0,0,1,1.742-.852,3.826,3.826,0,0,1-.3-.361c-.236-.377-.507-.418-.914-.221-.763.368-1.559.67-2.338,1.006a1.321,1.321,0,0,1-1.292.016c-.417-.279-.64-.128-.956.153a8.163,8.163,0,0,1-4.013,2.2A3.03,3.03,0,0,1,72,85.736a8.4,8.4,0,0,1,.216-2.571m13.155,13.21c1.254,0,2.509-.01,3.763.007.315,0,.418-.053.4-.4-.043-.82-.1-1.638-.221-2.449a13.627,13.627,0,0,0-1.825-5.4c-.854-1.349-1.315-1.441-2.673-.55a5.858,5.858,0,0,0-2,2.453,18.91,18.91,0,0,0-1.583,6.023c-.037.292.085.322.327.32,1.27-.01,2.539,0,3.809,0M73.891,73.688a16.773,16.773,0,0,0,.089,2.491,2.908,2.908,0,0,0,5.764-.486q.024-1.763,0-3.527a3.252,3.252,0,0,0-2.162-3.005,2.672,2.672,0,0,0-3.689,2.57c0,.6,0,1.207,0,1.958m5.858,5.152a4.516,4.516,0,0,1-4.054.973c-.223-.05-.284.014-.333.23a3.039,3.039,0,0,1-1.053,1.7.922.922,0,0,0-.267.368,9.142,9.142,0,0,0-.683,2.491c-.247,2.078,1.012,3.061,2.957,2.3a10.246,10.246,0,0,0,3.327-2.388.464.464,0,0,0,.106-.383c0-1.732,0-3.464,0-5.288m-12.026,9.7c-.108.146-.138.179-.16.217a16.143,16.143,0,0,0-2.191,7.332c-.018.293.113.288.317.287,1.082,0,2.164-.008,3.246,0,.244,0,.366-.046.372-.32a4.38,4.38,0,0,1,.35-1.573c.065-.16.091-.266-.083-.387a3.3,3.3,0,0,1-1.069-1.537,9.831,9.831,0,0,1-.784-4.022m7.959,7.834a2.566,2.566,0,0,0-2.119-1.783,13.631,13.631,0,0,0-1.436-.049c-1.073-.007-1.193.1-1.385,1.171-.022.121-.013.248-.036.369-.04.213.012.3.255.3,1.562-.01,3.123-.005,4.721-.005" transform="translate(-55.937 -55.926)" fill="#31313c"/>
          <path id="Trazado_154460" data-name="Trazado 154460" d="M30.871,51.759q0-9.666,0-19.332c0-1.177.4-1.576,1.591-1.576h34.2c1.21,0,1.6.393,1.6,1.615q0,19.308,0,38.617c0,1.212-.4,1.61-1.6,1.61h-15.1a3.393,3.393,0,0,1-.418-.007.691.691,0,0,1-.071-1.367,2.019,2.019,0,0,1,.462-.02q7.435,0,14.871.009c.383,0,.479-.085.478-.475q-.017-19.053,0-38.105c0-.427-.122-.491-.51-.49q-16.8.016-33.6,0c-.438,0-.515.127-.514.532q.016,19.006,0,38.012c0,.409.082.532.517.53,4.926-.018,9.852-.011,14.778-.011a4.058,4.058,0,0,1,.418,0,.7.7,0,0,1,.666.7.694.694,0,0,1-.679.684c-.123.01-.248,0-.372,0H32.435c-1.15,0-1.565-.413-1.565-1.556q0-9.689,0-19.378" transform="translate(-27.994 -27.977)" fill="#31313c"/>
        </g>
      </g>
    </g>
  </g>
</svg>
