<svg id="Grupo_158078" data-name="Grupo 158078" xmlns="http://www.w3.org/2000/svg" xmlns:xlink="http://www.w3.org/1999/xlink" width="97.28" height="97.286" viewBox="0 0 97.28 97.286">
  <defs>
    <clipPath id="clip-path">
      <rect id="Rectángulo_35125" data-name="Rectángulo 35125" width="97.28" height="97.286" fill="#fd9827"/>
    </clipPath>
  </defs>
  <g id="Grupo_158078-2" data-name="Grupo 158078" transform="translate(0 0)" clip-path="url(#clip-path)">
    <path id="Trazado_152757" data-name="Trazado 152757" d="M107.347,91a4.6,4.6,0,0,0-.186.514,6.921,6.921,0,0,1-5,5.444,7.014,7.014,0,0,1-7.091-1.818,2.281,2.281,0,0,0-1.369-.587q-5.319-.073-10.639-.015a5.347,5.347,0,0,1-4.147-1.718q-3.261-3.386-6.649-6.649A5.314,5.314,0,0,1,70.5,81.948c.057-1.739,0-3.482.022-5.223a1.824,1.824,0,0,0-.6-1.485,7.088,7.088,0,0,1-2.05-6.338,1.937,1.937,0,0,0-.279-1.273c-1.483-2.052-3.044-4.047-4.533-6.095a1.079,1.079,0,0,0-1.344-.471,12.8,12.8,0,1,1,.039-24.852A1.059,1.059,0,0,0,63.1,35.78c1.477-2.056,3.028-4.058,4.508-6.112A1.781,1.781,0,0,0,67.9,28.48a7.439,7.439,0,0,1,2.108-6.608,1.848,1.848,0,0,0,.485-1.125c.049-1.93.034-3.862.02-5.793a4.745,4.745,0,0,1,1.481-3.57Q75.61,7.813,79.182,4.2A4.639,4.639,0,0,1,82.669,2.76c3.61.021,7.219-.005,10.829.018a1.922,1.922,0,0,0,1.654-.667A8.174,8.174,0,0,1,98.987,0h2.28c.2.069.4.147.61.206a7.081,7.081,0,0,1,5.174,5.1c.094.322.2.643.3.964v1.71a1.384,1.384,0,0,0-.16.325,6.854,6.854,0,0,1-5.113,5.656,6.927,6.927,0,0,1-7.311-2.193,1.629,1.629,0,0,0-1.053-.432c-2.119-.04-4.257.147-6.356-.064a5.611,5.611,0,0,0-5.48,2.3c-.8,1.044-2.2,1.766-2.663,2.9-.474,1.174-.137,2.677-.141,4.036A2.7,2.7,0,0,0,81.34,22.8c4.115,0,8.229.019,12.343-.023a2.05,2.05,0,0,0,1.266-.565,7.007,7.007,0,0,1,6.946-2.029,6.866,6.866,0,0,1,5.123,4.975c.108.355.219.709.328,1.064v1.71a1.4,1.4,0,0,0-.16.325,6.859,6.859,0,0,1-5.115,5.657,6.929,6.929,0,0,1-7.252-2.123,1.618,1.618,0,0,0-1.048-.421q-6.22-.043-12.44,0a1.734,1.734,0,0,0-1.126.471,7.591,7.591,0,0,1-4.74,2.353,1.36,1.36,0,0,0-.847.446q-2.478,3.242-4.882,6.542a.973.973,0,0,0-.094.82c1.089,2.378,1.1,2.374,3.688,2.374h1.33c1.582,0,3.166-.017,4.748.022A1.287,1.287,0,0,1,80.761,45.7a1.339,1.339,0,0,1-1.279,1.479,9.388,9.388,0,0,1-1.232.041c-2.239,0-4.478,0-6.745,0V50H93.061V47.221h-6.02c-.253,0-.507.008-.758-.015a1.474,1.474,0,0,1-1.506-1.4,1.429,1.429,0,0,1,1.561-1.422c2.374-.023,4.749-.033,7.122,0a2.038,2.038,0,0,0,1.639-.7,6.761,6.761,0,0,1,6.962-1.892,6.91,6.91,0,0,1,5.041,5.176c.084.3.164.6.245.9v1.52a1.629,1.629,0,0,0-.149.343,6.824,6.824,0,0,1-5.052,5.709A6.938,6.938,0,0,1,94.865,53.4a1.767,1.767,0,0,0-1.139-.459c-3.23-.036-6.46-.021-9.69-.021-4.148,0-8.3-.01-12.445.02a1.33,1.33,0,0,0-.989.433,25.191,25.191,0,0,0-1.2,2.394c1.72,2.289,3.44,4.6,5.2,6.88a1.373,1.373,0,0,0,.858.431A7.571,7.571,0,0,1,80.2,65.422a1.734,1.734,0,0,0,1.122.479q6.174.05,12.349,0a2.047,2.047,0,0,0,1.271-.557,7.158,7.158,0,0,1,12.206,3.394c.052.206.132.406.2.609v1.71a1.389,1.389,0,0,0-.16.326,7.14,7.14,0,0,1-12.365,3.53,1.494,1.494,0,0,0-.957-.418q-6.316-.042-12.631-.007a1.472,1.472,0,0,0-.845.27,2.918,2.918,0,0,0-1.346,2.975c.134.768-.04,1.586.049,2.367a2.392,2.392,0,0,0,.551,1.3c1.278,1.361,2.594,2.69,3.962,3.958a2.428,2.428,0,0,0,1.472.6c2.785.056,5.572.009,8.357.041a1.889,1.889,0,0,0,1.546-.67,6.761,6.761,0,0,1,6.912-2.069,6.863,6.863,0,0,1,5.127,4.975c.107.355.219.709.328,1.064Zm-48.8-32.41a9.957,9.957,0,1,0-9.872-10.067,9.941,9.941,0,0,0,9.872,10.067M93.089,88.827H91.957c-2.562,0-5.125-.022-7.687.011a2.747,2.747,0,0,1-2.177-.91c-1.664-1.734-3.374-3.426-5.1-5.1a2.415,2.415,0,0,1-.79-1.937c.038-1.192.01-2.386.01-3.624h-2.85c0,1.664-.071,3.277.035,4.879a3.124,3.124,0,0,0,.765,1.817c2.229,2.332,4.553,4.573,6.811,6.877a2.594,2.594,0,0,0,2.01.848c3.1-.025,6.2-.008,9.3-.013.269,0,.538-.048.8-.073ZM76.217,20.009c0-1.273-.076-2.5.032-3.718a3.1,3.1,0,0,1,.711-1.746q2.6-2.765,5.365-5.367a2.725,2.725,0,0,1,1.657-.68c2.687-.07,5.376-.032,8.065-.032h1.028V5.713a1.449,1.449,0,0,0-.307-.081c-3.416-.006-6.833-.031-10.248.016a2.141,2.141,0,0,0-1.31.608c-2.423,2.363-4.811,4.761-7.189,7.169a1.834,1.834,0,0,0-.6,1.031c-.059,1.855-.028,3.713-.028,5.554Zm19.7-12.9a4.258,4.258,0,0,0,4.264,4.288,4.315,4.315,0,0,0,4.274-4.3,4.312,4.312,0,0,0-4.244-4.24A4.257,4.257,0,0,0,95.92,7.109M74.962,22.8a4.272,4.272,0,0,0-.165,8.543,4.272,4.272,0,1,0,.165-8.543m25.265,0a4.272,4.272,0,0,0-.153,8.543,4.272,4.272,0,1,0,.153-8.543M70.648,70.142a4.257,4.257,0,0,0,4.225,4.327,4.272,4.272,0,0,0,.109-8.543,4.254,4.254,0,0,0-4.334,4.217m25.271.025a4.256,4.256,0,0,0,4.25,4.3,4.272,4.272,0,0,0,.058-8.544,4.254,4.254,0,0,0-4.308,4.242m0,19.957a4.257,4.257,0,0,0,4.26,4.292,4.272,4.272,0,0,0,.039-8.544,4.256,4.256,0,0,0-4.3,4.252m0-41.517a4.225,4.225,0,0,0,4.251,4.285,4.258,4.258,0,1,0,.053-8.515,4.222,4.222,0,0,0-4.3,4.23M81.976,71.55h11.1v-2.7h-11.1Zm0-43.106H93.061V25.694H81.98ZM67.545,39.322,71.811,33.6l-2.278-1.706-4.251,5.7,2.263,1.73m4.242,24.361-4.292-5.695-2.262,1.728,4.283,5.68,2.271-1.714" transform="translate(-10.067 0)" fill="#fd9827"/>
    <path id="Trazado_152758" data-name="Trazado 152758" d="M54.906,0c.253.111.5.233.759.332A4.815,4.815,0,0,1,58.6,6.843c-.364.943-.709,1.895-1.091,2.831-.395.967-1.135,1.334-1.937,1s-1.065-1.064-.7-2.065c.315-.861.653-1.713.982-2.568.706-1.838-.209-3.171-2.219-3.186-2.438-.019-4.876,0-7.314,0-.918,0-1.837-.009-2.755,0A2.437,2.437,0,0,0,40.9,5.506c-.027,1.234.005,2.47-.01,3.7a5.229,5.229,0,0,1-3.611,5.143c-1.618.631-3.221,1.3-4.814,2a5.229,5.229,0,0,1-6.189-1.115c-.882-.864-1.736-1.756-2.625-2.613a2.385,2.385,0,0,0-3.685-.014q-3.683,3.638-7.322,7.32a2.381,2.381,0,0,0,.016,3.678c.861.886,1.751,1.742,2.616,2.623a5.259,5.259,0,0,1,1.107,6.192c-.711,1.618-1.379,3.258-2.023,4.9A5.251,5.251,0,0,1,9.253,40.85c-1.266.007-2.534-.018-3.8.009a2.406,2.406,0,0,0-2.567,2.563q-.044,5.223,0,10.447a2.408,2.408,0,0,0,2.591,2.542c1.329.024,2.66-.029,3.989.014a5.051,5.051,0,0,1,4.786,3.283c.775,1.8,1.533,3.6,2.254,5.425a5.108,5.108,0,0,1-1.05,5.717c-.879.954-1.834,1.837-2.743,2.764a2.416,2.416,0,0,0,.016,3.813Q16.277,81,19.848,84.545a2.435,2.435,0,0,0,3.889.021c.883-.863,1.739-1.754,2.626-2.613A5.178,5.178,0,0,1,32.4,80.9c1.682.724,3.384,1.4,5.077,2.1A5.059,5.059,0,0,1,40.88,87.8c.047,1.3,0,2.6.02,3.893a2.475,2.475,0,0,0,2.786,2.73,13.706,13.706,0,0,1,1.613.025,1.311,1.311,0,0,1,1.262,1.4,1.28,1.28,0,0,1-1.27,1.389,12.7,12.7,0,0,1-2.84-.06,5.191,5.191,0,0,1-4.4-5.186c-.04-1.3,0-2.6-.015-3.894a2.4,2.4,0,0,0-1.768-2.509c-1.641-.661-3.278-1.333-4.9-2.03a2.45,2.45,0,0,0-3.173.591c-.879.867-1.735,1.758-2.625,2.614a5.186,5.186,0,0,1-7.492.025q-3.838-3.75-7.588-7.589a5.155,5.155,0,0,1,.028-7.414c.877-.914,1.8-1.787,2.68-2.693a2.491,2.491,0,0,0,.535-3.191c-.687-1.6-1.344-3.2-1.986-4.818a2.461,2.461,0,0,0-2.58-1.815c-1.266-.009-2.533.015-3.8-.009A5.237,5.237,0,0,1,.037,53.972c-.048-3.576-.054-7.155,0-10.731a5.22,5.22,0,0,1,5.283-5.232c1.33-.026,2.66,0,3.99-.009a2.363,2.363,0,0,0,2.339-1.6q1.083-2.628,2.182-5.248a2.439,2.439,0,0,0-.541-2.875c-.891-.9-1.8-1.784-2.683-2.69a5.2,5.2,0,0,1,.043-7.691q3.576-3.61,7.183-7.189c2.444-2.428,5.508-2.409,7.973.036.809.8,1.606,1.618,2.42,2.416a2.432,2.432,0,0,0,3.1.574c1.657-.706,3.318-1.4,4.992-2.064a2.428,2.428,0,0,0,1.724-2.449c0-.918,0-1.836,0-2.754,0-3.783.869-5.082,4.321-6.461Z" transform="translate(0 0)" fill="#fd9827"/>
    <path id="Trazado_152759" data-name="Trazado 152759" d="M55.1,79.423c-.687-1.8-1.289-3.5-2-5.152a1.523,1.523,0,0,0-1.1-.629,20.43,20.43,0,0,1-12.56-5.679c-6.2-6.071-8.3-13.44-5.713-21.716S42.2,33.07,50.757,31.637c1.734-.29,2.624-.844,3.036-2.491a29.608,29.608,0,0,1,1.233-3.276,37.311,37.311,0,0,0-3.905.019A26.84,26.84,0,0,0,27.207,49.433,26.172,26.172,0,0,0,32.271,68.59c.918,1.258.964,2.034.132,2.625-.772.548-1.54.256-2.415-.918C16.832,52.655,27.1,27.029,48.824,23.368c2.386-.4,4.839-.414,7.409-.619.392-1.007.851-2.213,1.328-3.411.407-1.021,1.15-1.414,1.987-1.077a1.469,1.469,0,0,1,.672,2.082q-2.225,5.8-4.475,11.586a3.445,3.445,0,0,1-3.168,2.31,18.3,18.3,0,0,0-16.79,15.394c-1.8,9.866,5.681,19.93,15.643,21.047.44.049.879.116,1.32.154a3.179,3.179,0,0,1,2.9,2.1c2.86,7.4,5.731,14.794,8.518,22.221,1,2.674-1.5,5.871-4.62,6.076a23.381,23.381,0,0,1-2.374.011,1.418,1.418,0,1,1,0-2.833c.664-.029,1.331.015,1.994-.016a2.117,2.117,0,0,0,2.038-3.044c-1.56-4.073-3.134-8.141-4.662-12.226a1.1,1.1,0,0,0-1.292-.851,29.038,29.038,0,0,1-19.493-6.111c-.314-.24-.754-.6-.756-.9a2.466,2.466,0,0,1,.487-1.579c.514-.56,1.184-.308,1.809.078,1.877,1.163,3.713,2.419,5.69,3.384A24.867,24.867,0,0,0,53.942,79.5c.343,0,.685-.045,1.158-.08" transform="translate(-5.305 -3.986)" fill="#fd9827"/>
  </g>
</svg>
