<svg xmlns="http://www.w3.org/2000/svg" width="77" height="77" viewBox="0 0 77 77">
  <g id="Grupo_158238" data-name="Grupo 158238" transform="translate(-1076.891 -1571.613)">
    <circle id="Elipse_4726" data-name="Elipse 4726" cx="38.5" cy="38.5" r="38.5" transform="translate(1076.891 1571.613)" fill="#fd9827"/>
    <g id="Grupo_158942" data-name="Grupo 158942" transform="translate(1092.891 1591.613)">
      <g id="Grupo_158943" data-name="Grupo 158943" transform="translate(0 0)">
        <path id="Trazado_154483" data-name="Trazado 154483" d="M44.416,14.422a6.655,6.655,0,0,0-2.3-2.9,1.563,1.563,0,0,1-.637-.979c-.18-.851-.409-1.693-.6-2.542-.083-.364-.215-.667-.622-.75-.428-.087-.675.16-.89.481-.283.423-.578.837-.869,1.254-.254.365-.484.377-.77.03-.111-.134-.2-.287-.3-.427a7.04,7.04,0,0,0-2.464-2.106,7.136,7.136,0,0,0-6.227-.269c-.151.062-.307.188-.365-.128A14.221,14.221,0,0,0,26.954,2.59c-.272-.573-.624-.678-1.215-.4-.512.239-1.024.481-1.528.739a.27.27,0,0,1-.4-.078,12.089,12.089,0,0,0-3.8-2.721.732.732,0,0,0-1.081.3c-.216.344-.4.705-.612,1.054a8.541,8.541,0,0,0-1.227,2.911c-.041.24-.217.279-.394.337A5.475,5.475,0,0,0,14,6.647c-.2.26-.335.284-.628.147a7.136,7.136,0,0,0-5.219-.4c-.555.166-.793.5-.677.935s.484.623,1.038.5A9.867,9.867,0,0,1,9.8,7.6a5.814,5.814,0,0,1,5.9,3.726c.133.356.158.609-.207.833a1.029,1.029,0,0,0-.387.462c-.144.356-.386.351-.7.306a3.714,3.714,0,0,0-3.241,1.146.729.729,0,0,0,.722,1.221,1.243,1.243,0,0,0,.432-.283,2.488,2.488,0,0,1,1.628-.639c.4-.013.763,0,.764.549a.9.9,0,0,0,.128.368c.091.184.065.269-.156.323a4.46,4.46,0,0,0-1.316.561,2.234,2.234,0,0,0-1.244,1.824c-.043,1.01-.045,1.01-1.072,1.143-.058.007-.117.006-.174.017-.186.037-.282-.023-.347-.218a3.781,3.781,0,0,0-4.787-2.352.294.294,0,0,1-.422-.145,5.794,5.794,0,0,1-.714-4.4,5.858,5.858,0,0,1,1.9-3.107.732.732,0,0,0,.109-1.113.752.752,0,0,0-1.091.013A7.284,7.284,0,0,0,4.038,17.16c.089.147.266.283.064.492a3.89,3.89,0,0,0-.8,1.386C1.8,17.869.673,16,2.255,13.9a.723.723,0,0,0-.132-1.109.776.776,0,0,0-1.089.286A5.855,5.855,0,0,0,0,15.486V16.8c.132.1.08.231.075.356,0,.057,0,.115,0,.173s.039.151-.073.17v.349c.144.042.085.166.1.255a23.015,23.015,0,0,0,.954,4.643A22.3,22.3,0,0,0,20.883,38.254a21.92,21.92,0,0,0,14.034-3.8,22.036,22.036,0,0,0,3.343-2.794c.422-.428.433-.9.039-1.209a.76.76,0,0,0-1.055.135,22.241,22.241,0,0,1-1.814,1.636A20.529,20.529,0,0,1,16.279,35.9a19.769,19.769,0,0,1-8.716-5.247,20.652,20.652,0,0,1-5.685-10.7c.141-.048.223.037.311.114a16.041,16.041,0,0,0,5.1,2.852,39.59,39.59,0,0,0,10.5,2.194,50.861,50.861,0,0,0,15.568-.987,24.213,24.213,0,0,0,7.864-3.073,14.693,14.693,0,0,0,1.642-1.274,18.961,18.961,0,0,1-.656,2.627,21.032,21.032,0,0,1-3.481,6.49c-.363.465-.335.916.032,1.19s.783.168,1.148-.311a25.356,25.356,0,0,0,1.668-2.447,22.489,22.489,0,0,0,3.126-11.372,4.134,4.134,0,0,0-.289-1.533M9.171,20.86c-.272.889-.478,1-1.332.686A20.3,20.3,0,0,1,4.926,20.2a.406.406,0,0,1-.247-.541,2.323,2.323,0,0,1,4.588.555,2.3,2.3,0,0,1-.1.642m2.721,1.875-1.763-.442a4.044,4.044,0,0,0,.56-1.417c.011-.069.038-.187.075-.194.425-.08.853-.15,1.282-.206.1-.013.078.1.078.166,0,.638,0,1.276.005,1.914,0,.195-.082.217-.237.177M28.474,8.446a.789.789,0,0,1,.5-.72,5.851,5.851,0,0,1,8.02,3.1.366.366,0,0,1-.042.4c-.134.17-.252.354-.406.573-.394-.5-.768-.972-1.145-1.444-.5-.631-1.024-.608-1.452.081q-2.044,3.293-4.069,6.6c-.161.264-.266.4-.57.172a1.714,1.714,0,0,0-.9-.3c-.277-.019-.3-.131-.249-.359a1.4,1.4,0,0,0-.024-.649.709.709,0,0,0-.788-.592.7.7,0,0,0-.644.7,3.093,3.093,0,0,1-.071.691,1.38,1.38,0,1,1-1.1-1.747c.143.024.283.069.425.094a.729.729,0,0,0,.419-1.392c-.171-.074-.355-.119-.575-.191a7.974,7.974,0,0,0,1.8-2.2,6.98,6.98,0,0,0,.871-2.8M25.722,3.84c.121-.057.17-.035.231.082a7.668,7.668,0,0,1,1.1,3.581,6.138,6.138,0,0,1-1.9,4.517c-.122.118-.209.208-.3-.022a1.965,1.965,0,0,0-.415-.608.49.49,0,0,1-.11-.441,5.675,5.675,0,0,0-1.582-4.743c-.139-.146-.145-.23-.01-.388A8.235,8.235,0,0,1,25.722,3.84m-2.04,9.451A1.372,1.372,0,1,1,22.306,11.9a1.378,1.378,0,0,1,1.376,1.386M19.781,1.9c.061-.108.113-.144.235-.073a8.1,8.1,0,0,1,2.675,2.007,8.325,8.325,0,0,0-1.182,1.156.207.207,0,0,1-.3.068,4.519,4.519,0,0,0-1.258-.475c-.437-.094-.886-.138-1.338-.206A9.679,9.679,0,0,1,19.781,1.9M15.173,8c-.208-.185-.117-.3.006-.462A4.33,4.33,0,0,1,22.9,10.172c0,.144.066.323-.223.293a2.84,2.84,0,0,0-3.059,1.815,2.913,2.913,0,0,0-2.13-.921c-.184,0-.243-.1-.295-.255A7.066,7.066,0,0,0,15.173,8m3.335,7.113c-.218.242-.218.242-1.079.205-.961-.041-1.174-.186-1.307-.886a1.362,1.362,0,0,1,.8-1.486,1.409,1.409,0,0,1,1.669.447,1.358,1.358,0,0,1-.082,1.719m1.59,8.675a52.938,52.938,0,0,1-6.2-.649c-.18-.03-.309-.063-.3-.316.02-.915.008-1.831.008-2.82a8.035,8.035,0,0,0,3.823.716c.26-.01.521-.042.78-.074.517-.064.8-.375.75-.828a.739.739,0,0,0-.88-.646,8.769,8.769,0,0,1-2.259-.018,4.862,4.862,0,0,1-1.645-.536c-.245-.144-.558-.283-.547-.619.01-.307.3-.446.536-.583a4.8,4.8,0,0,1,1.988-.588,6.983,6.983,0,0,1,3.177.338,2.6,2.6,0,0,1,.9.52.389.389,0,0,1-.016.662c-.145.121-.3.231-.447.348a.687.687,0,0,0-.266.772.653.653,0,0,0,.619.53c.291,0,.314.12.312.359-.012,1.032-.014,2.065,0,3.1,0,.264-.053.348-.333.334m1.7-6.362a3.456,3.456,0,0,0-1.57-1.536,1.3,1.3,0,0,1,1.57,1.536M23.264,23.6c-.194.512-.661.139-.991.236-.161.047-.39.072-.369-.247.019-.3,0-.606,0-.962a2.493,2.493,0,0,0,.942.365c.46.011.538.278.413.607m.223-2a1.384,1.384,0,0,1-.024-2.768,1.384,1.384,0,1,1,.024,2.768m3.782,2.016c-.68.036-1.359.1-2.038.154-.513.027-.549-.016-.433-.523A1.36,1.36,0,0,1,26.214,22.2a1.392,1.392,0,0,1,1.281,1.108c.032.189.007.287-.226.3m-.688-3.932a1.38,1.38,0,1,1,1.309,1.408,1.375,1.375,0,0,1-1.309-1.408m6.61-4.885q-.7,3.967-1.4,7.934c-.029.165-.072.252-.258.279q-1.164.17-2.322.375c-.182.032-.239-.02-.245-.183a.137.137,0,0,0-.008-.043c-.178-.45-.135-.713.4-.967a2.722,2.722,0,0,0,1.366-3.181.812.812,0,0,1,.116-.724c.761-1.218,1.512-2.443,2.266-3.665.01-.084.1-.2.119-.181.123.117.037.239-.031.355M40.412,16.7c-.082-.1-.158-.209-.246-.306a.741.741,0,1,0-1.144.934c.35.464.719.913,1.079,1.37.223.283.445.566.677.861a17.889,17.889,0,0,1-4.289,2.13c-.928.337-1.89.561-2.832.849-.313.1-.336-.021-.289-.283q.68-3.772,1.35-7.546c.132-.742.261-1.484.4-2.3l1.464,1.844c.343.433.679.872,1.03,1.3a.744.744,0,1,0,1.158-.911c-.359-.475-.735-.938-1.1-1.405-.091-.115-.178-.207-.059-.376.711-1.006,1.41-2.021,2.123-3.047.166.384,2.028,7.993,2.139,8.739L40.412,16.7m2.593.068-.716-2.953a2.764,2.764,0,0,1,.716,2.953" transform="translate(0 0)" fill="#31313c"/>
        <path id="Trazado_154484" data-name="Trazado 154484" d="M.045,52.046c-.016-.108.039-.226-.045-.325v.349l.045,0v-.028" transform="translate(0 -34.925)" fill="#31313c"/>
        <path id="Trazado_154485" data-name="Trazado 154485" d="M.045,52.046v.028l.03,0c.005-.125.057-.259-.075-.356.084.1.029.217.045.325" transform="translate(0 -34.925)" fill="#31313c"/>
        <path id="Trazado_154486" data-name="Trazado 154486" d="M.045,52.94v-.116c-.016,0-.031,0-.045-.027v.175l.045,0c0-.011,0-.023,0-.034" transform="translate(0 -35.652)" fill="#31313c"/>
        <path id="Trazado_154487" data-name="Trazado 154487" d="M.138,52.837v.116c0,.011,0,.023,0,.034l.029,0c0-.058,0-.115,0-.173a.061.061,0,0,1-.03.02" transform="translate(-0.093 -35.665)" fill="#31313c"/>
        <path id="Trazado_154488" data-name="Trazado 154488" d="M.045,52.824V52.8L0,52.8c.014.024.029.031.045.027" transform="translate(0 -35.652)" fill="#31313c"/>
        <path id="Trazado_154489" data-name="Trazado 154489" d="M.139,52.832a.061.061,0,0,0,.03-.02l-.03,0v.023" transform="translate(-0.094 -35.66)" fill="#31313c"/>
        <path id="Trazado_154490" data-name="Trazado 154490" d="M0,53.335v.175a.174.174,0,0,0,.044-.148c-.016,0-.031,0-.044-.026" transform="translate(0 -36.015)" fill="#31313c"/>
        <path id="Trazado_154491" data-name="Trazado 154491" d="M.074,53.348h0a.057.057,0,0,1-.029.022A.176.176,0,0,1,0,53.518c.112-.019.083-.1.073-.17" transform="translate(-0.001 -36.024)" fill="#31313c"/>
        <path id="Trazado_154492" data-name="Trazado 154492" d="M.044,53.361c0-.008,0-.016,0-.024l-.045,0c.014.023.029.031.044.026" transform="translate(0 -36.015)" fill="#31313c"/>
        <path id="Trazado_154493" data-name="Trazado 154493" d="M.137,53.367a.055.055,0,0,0,.029-.022l-.029,0c0,.008,0,.016,0,.024" transform="translate(-0.092 -36.02)" fill="#31313c"/>
        <path id="Trazado_154496" data-name="Trazado 154496" d="M101.932,44.641c.165-.011.123.083.089.174.068-.115.153-.238.031-.354-.021-.02-.109.1-.119.181" transform="translate(-68.83 -30.021)" fill="#31313c"/>
        <path id="Trazado_154497" data-name="Trazado 154497" d="M101.932,45.019c.1.025.052.12.089.174.034-.09.077-.185-.089-.174" transform="translate(-68.83 -30.399)" fill="#31313c"/>
        <path id="Trazado_154498" data-name="Trazado 154498" d="M95.932,24.7a.777.777,0,0,0,.715-.744.762.762,0,0,0-.768-.728.73.73,0,0,0-.7.736.75.75,0,0,0,.757.736" transform="translate(-64.268 -15.682)" fill="#31313c"/>
      </g>
    </g>
  </g>
</svg>
