<svg xmlns="http://www.w3.org/2000/svg" xmlns:xlink="http://www.w3.org/1999/xlink" width="77" height="77" viewBox="0 0 77 77">
  <defs>
    <clipPath id="clip-path">
      <rect id="Rectángulo_35713" data-name="Rectángulo 35713" width="49.937" height="49.942" fill="#31313c"/>
    </clipPath>
  </defs>
  <g id="Grupo_158240" data-name="Grupo 158240" transform="translate(-656.891 -1571.613)">
    <circle id="Elipse_4724" data-name="Elipse 4724" cx="38.5" cy="38.5" r="38.5" transform="translate(656.891 1571.613)" fill="#fd9827"/>
    <g id="Grupo_158940" data-name="Grupo 158940" transform="translate(670.891 1585.613)">
      <g id="Grupo_158940-2" data-name="Grupo 158940" clip-path="url(#clip-path)">
        <path id="Trazado_154471" data-name="Trazado 154471" d="M0,41.455c.116-.4.2-.816.352-1.206A6.2,6.2,0,0,1,3.8,36.771c1.894-.839,3.862-1.512,5.811-2.223,1.448-.528,2.912-1.009,4.376-1.493a.506.506,0,0,0,.417-.591,5.652,5.652,0,0,0-.058-1.783c-.208-.492-.813-.816-1.243-1.214a9.5,9.5,0,0,1-3.041-5.942c-.01-.08-.019-.161-.032-.241,0-.013-.02-.024-.053-.062-.392-.027-.813-.032-1.226-.089A3.585,3.585,0,0,1,5.641,19.82c-.04-.615-.03-1.235-.01-1.851a2.026,2.026,0,0,1,1.127-1.813.544.544,0,0,0,.323-.571c-.007-2.081.014-4.161-.01-6.241A3.768,3.768,0,0,1,9.05,5.75.6.6,0,0,0,9.3,5.381a5.663,5.663,0,0,1,3.264-3.932l.652,1.27c-.356.24-.686.443-.994.675a3.339,3.339,0,0,0-1.5,2.949c.014.295-.081.419-.375.5a2.2,2.2,0,0,0-1.8,2.377c-.006,2.048.008,4.1-.01,6.144,0,.4.109.56.519.516.288-.031.582-.006.954-.006v-.842c0-.91-.012-1.821,0-2.731a2.158,2.158,0,0,1,2.164-2.276,2.2,2.2,0,0,0,2.2-1.949c.016-.078.045-.153.071-.239h1.384c.041.238.065.462.119.678A2.886,2.886,0,0,0,18.8,10.737c2.584.013,5.169,0,7.753,0a2.238,2.238,0,0,1,2.473,2.478c0,.747.013,1.5,0,2.243-.007.316.095.441.418.417s.647-.005,1.022-.005c.01-.2.027-.377.027-.549q0-3,0-6A2.235,2.235,0,0,0,28.64,6.834c-.247-.073-.345-.177-.334-.435a3.558,3.558,0,0,0-1.64-3.092A9.232,9.232,0,0,0,22.29,1.665a17.178,17.178,0,0,0-7.525.47,1.906,1.906,0,0,1-.25.033L14.031.729,17.573.1c.19-.034.38-.065.57-.1h2.731c.972.163,1.953.291,2.916.5a9.919,9.919,0,0,1,3.695,1.574,5.175,5.175,0,0,1,2.241,3.3.661.661,0,0,0,.282.4,3.708,3.708,0,0,1,1.942,3.423c0,2.113.006,4.227-.007,6.34a.631.631,0,0,0,.366.651,1.931,1.931,0,0,1,1.069,1.693A11.851,11.851,0,0,1,33.3,20.3a3.588,3.588,0,0,1-3.518,2.884c-.243.009-.486,0-.756,0-.082.447-.147.876-.24,1.3A9.341,9.341,0,0,1,25,30.2a.75.75,0,0,0-.377.714c.026.552-.013,1.107.021,1.657a.554.554,0,0,0,.286.4c.792.287,1.6.535,2.433.806,2.008-4.243,5.276-6.785,9.992-7.206a11.125,11.125,0,0,1,8.365,2.682,11.6,11.6,0,0,1,2.242,15.406L46.808,43.9A10.261,10.261,0,1,0,43.9,46.8l.788,1.191a10.153,10.153,0,0,1-3.841,1.64,15.878,15.878,0,0,1-2.9.3Q18.972,49.957,0,49.941V41.455m1.478,6.993H17.163L14.552,34.38c-3.018,1.052-5.971,2.039-8.887,3.124a11.553,11.553,0,0,0-2.53,1.427A3.578,3.578,0,0,0,1.5,41.793c-.059,2.2-.017,4.412-.017,6.655M15.041,10.132a3.824,3.824,0,0,1-2.716,1.351c-.662.047-.853.26-.857.925-.007,1.2-.013,2.405.008,3.607a1.1,1.1,0,0,0,.226.608c.654.849,1.341,1.674,2,2.522a.5.5,0,0,0,.614.205c1.617-.421,3.24-.821,4.865-1.213a1.469,1.469,0,0,1,.659,0c1.625.389,3.249.785,4.866,1.207a.525.525,0,0,0,.648-.226c.645-.836,1.323-1.647,1.964-2.485a1.2,1.2,0,0,0,.235-.653c.026-.91.014-1.82.01-2.73,0-.818-.228-1.042-1.045-1.042-2.438,0-4.875-.032-7.313.01a4.611,4.611,0,0,1-4.161-2.084m-.65,14.61c0,1.17-.016,2.34.014,3.508a.939.939,0,0,0,.311.635,7.955,7.955,0,0,0,9.6-.005.87.87,0,0,0,.3-.59c.021-2.355.009-4.71.019-7.065a.418.418,0,0,0-.383-.494c-1.482-.354-2.956-.742-4.437-1.1a1.372,1.372,0,0,0-.621,0c-1.45.35-2.892.73-4.345,1.068-.381.089-.477.26-.47.63.024,1.136.009,2.274.009,3.411m12.5,10.424-2.42-.783L21.859,48.444H32.412c-4.807-3.2-6.663-7.59-5.525-13.279m-8.235,13.29h1.716L22.7,35.875l-3.211,2.933L16.325,35.9l2.327,12.552m.829-11.576a.925.925,0,0,0,.151-.1q1.68-1.73,3.356-3.465a.511.511,0,0,0,.167-.283c.016-.575.008-1.15.008-1.79a9.771,9.771,0,0,1-7.3.008c0,.632,0,1.181,0,1.729a.421.421,0,0,0,.105.26q1.751,1.823,3.513,3.636M9.974,17.34c-.723,0-1.417-.011-2.112,0a.707.707,0,0,0-.779.792c-.016.5-.024,1.007.009,1.508a2.231,2.231,0,0,0,2.883,2ZM29.049,21.68c1.824.223,2.891-.7,2.9-2.438,0-.389.009-.779-.009-1.167s-.2-.69-.6-.709c-.755-.036-1.512-.01-2.293-.01ZM12.875,26.941a1.085,1.085,0,0,0,.051-.193q0-2.993,0-5.986a.5.5,0,0,0-.049-.281c-.425-.556-.863-1.1-1.3-1.653-.045,2.789-.548,5.613,1.294,8.113M27.45,18.824c-.342.427-.715.834-1.015,1.289a1.827,1.827,0,0,0-.325.911c-.03,1.784-.015,3.567-.013,5.351,0,.163.018.326.033.583,1.861-2.549,1.356-5.367,1.319-8.134" fill="#31313c"/>
        <path id="Trazado_154472" data-name="Trazado 154472" d="M97.7,84.117h2.844v1.467H99.154c-.011.24-.027.429-.027.618,0,1.886-.013,3.771,0,5.656a2.361,2.361,0,0,1-1.245,2.306.63.63,0,0,0-.212.473c-.021.859-.01,1.719-.01,2.617H96.2c0-.855-.011-1.7.006-2.54a.623.623,0,0,0-.361-.653,2.2,2.2,0,0,1-1.11-2.126c.009-1.9,0-3.8,0-5.7V85.6H93.307V84.119H96.17V81.951h-1.4V80.519H99.1v1.412H97.7Zm-1.459,1.5a2.926,2.926,0,0,0-.04.324q0,3.039,0,6.079a1.427,1.427,0,0,0,.026.29.667.667,0,0,0,.718.587.653.653,0,0,0,.683-.568,2.417,2.417,0,0,0,.032-.484q0-2.845,0-5.69c0-.172-.017-.345-.027-.538Z" transform="translate(-58.695 -50.651)" fill="#31313c"/>
        <path id="Trazado_154473" data-name="Trazado 154473" d="M122.292,121.3l.985,1.007-1.064.948-.929-.931,1.008-1.024" transform="translate(-76.294 -76.304)" fill="#31313c"/>
        <rect id="Rectángulo_35711" data-name="Rectángulo 35711" width="1.414" height="1.38" transform="translate(21.961 3.547)" fill="#31313c"/>
        <rect id="Rectángulo_35712" data-name="Rectángulo 35712" width="1.384" height="1.419" transform="translate(24.893 4.999)" fill="#31313c"/>
      </g>
    </g>
  </g>
</svg>
