<svg xmlns="http://www.w3.org/2000/svg" xmlns:xlink="http://www.w3.org/1999/xlink" width="77" height="77" viewBox="0 0 77 77">
  <defs>
    <clipPath id="clip-path">
      <rect id="Rectángulo_35714" data-name="Rectángulo 35714" width="48.57" height="43.793" fill="#31313c"/>
    </clipPath>
  </defs>
  <g id="Grupo_158239" data-name="Grupo 158239" transform="translate(-866.891 -1571.613)">
    <circle id="Elipse_4725" data-name="Elipse 4725" cx="38.5" cy="38.5" r="38.5" transform="translate(866.891 1571.613)" fill="#fd9827"/>
    <g id="Grupo_158941" data-name="Grupo 158941" transform="translate(880.891 1588.613)">
      <g id="Grupo_158941-2" data-name="Grupo 158941" clip-path="url(#clip-path)">
        <path id="Trazado_154474" data-name="Trazado 154474" d="M24.393,10.361c1.543-.485,3.034-1,4.551-1.42a29.251,29.251,0,0,1,6.485-.958c.383-.018.734.038.75.5s-.33.537-.713.552a30.439,30.439,0,0,0-10.182,2.181.742.742,0,0,0-.561.816q.027,12.706.013,25.411v.627a32.928,32.928,0,0,1,11.4-2.353,27.245,27.245,0,0,1,11.378,2.338v-.606q0-12.73.012-25.46A.7.7,0,0,0,47,11.2c-.542-.191-1.066-.433-1.6-.652-.31-.127-.512-.331-.382-.684.138-.375.438-.416.77-.276.788.332,1.583.651,2.349,1.028.19.093.308.38.4.6a1.344,1.344,0,0,1,.014.49v31c0,.132,0,.264,0,.4-.019.627-.229.8-.844.635a46.806,46.806,0,0,0-7.459-1.424,41.083,41.083,0,0,0-8.827,0,46.274,46.274,0,0,0-6.87,1.353,1.414,1.414,0,0,1-.715-.01,40.225,40.225,0,0,0-12-1.579,45.428,45.428,0,0,0-10.769,1.6c-.868.234-1.057.088-1.057-.827Q.01,27.2,0,11.553a.985.985,0,0,1,.684-1.095C2,9.979,3.291,9.457,4.61,9c.37-.128.514-.255.51-.669C5.1,5.825,5.107,3.32,5.108.815c0-.733.147-.868.879-.8A26.146,26.146,0,0,1,18.11,3.973a21.561,21.561,0,0,1,6.04,6.041c.091.135.186.266.243.347m-.72,26.588c.009-.194.016-.274.016-.354q0-12.5-.007-25.01a1.3,1.3,0,0,0-.189-.639,18.283,18.283,0,0,0-3.073-3.787A22.489,22.489,0,0,0,8.709,1.421c-.83-.154-1.671-.248-2.521-.371V27.718c7.091.623,13.113,3.263,17.485,9.231m-.79.829c-.1-.17-.122-.226-.158-.274a20.827,20.827,0,0,0-8.32-6.644,27.211,27.211,0,0,0-8.2-2.056c-1.056-.107-1.1-.137-1.1-1.181V9.853c-1.248.478-2.421.936-3.6,1.373a.645.645,0,0,0-.467.727q.02,12.777.01,25.553v.57c7.242-3.2,14.478-3,21.834-.3M24.738,42.5a44.979,44.979,0,0,1,22.755.051,3.144,3.144,0,0,1,.023-.369c.093-.515-.105-.772-.614-.966a27.484,27.484,0,0,0-5.173-1.436,31.651,31.651,0,0,0-9.695-.076,34.677,34.677,0,0,0-6.855,1.628.723.723,0,0,0-.423.373,2.922,2.922,0,0,0-.018.794m-1.094.061c.132-1.076.135-1.085-.823-1.392A34.509,34.509,0,0,0,8.013,39.605,23.956,23.956,0,0,0,1.4,41.349a.6.6,0,0,0-.338.335,5.457,5.457,0,0,0-.016.931c7.573-1.948,15.085-2.289,22.594-.052m23.87-2.216a3.16,3.16,0,0,1,0-.479.743.743,0,0,0-.6-.939c-1.151-.388-2.27-.882-3.435-1.217a26.472,26.472,0,0,0-11.5-.564,29.834,29.834,0,0,0-6.782,1.875.81.81,0,0,0-.451.419,3.687,3.687,0,0,0-.02.928,37.653,37.653,0,0,1,11.4-2.053,28.782,28.782,0,0,1,11.376,2.03m-23.859-.014c.095-1.092.1-1.1-.838-1.47A28.994,28.994,0,0,0,8.925,36.941,24.044,24.044,0,0,0,1.4,39.04c-.256.118-.394.251-.358.549a6.711,6.711,0,0,1,.005.744c7.56-2.935,15.068-2.448,22.6,0" transform="translate(0 0)" fill="#31313c"/>
        <path id="Trazado_154475" data-name="Trazado 154475" d="M94.178,23.719c.674-.459,1.4-.935,2.1-1.443a2.222,2.222,0,0,0,.4-.534,2.223,2.223,0,0,0,0-2.822,2.256,2.256,0,0,1-.046-2.4c.4-.81.753-1.646,1.165-2.451.1-.2.354-.454.543-.459s.45.233.562.431c.364.641.674,1.312,1.017,2,.762-.178,1.491-.37,2.231-.507a.79.79,0,0,1,.648.155.784.784,0,0,1,.019.669c-.4.921-.84,1.822-1.263,2.733a2.075,2.075,0,0,1-1.241,1.133,4.474,4.474,0,0,1-1.091.294,1.4,1.4,0,0,0-1.374,1.321c.267.014.536.022.8.042a3.465,3.465,0,0,1,3.236,3.227,5.15,5.15,0,0,1-.91,3.415,18.073,18.073,0,0,1-6.2,5.559,1.065,1.065,0,0,1-1.305-.037c-.324-.244-.692-.431-1.077-.665l-.921,1.961c.359.109.7.207,1.031.314.615.2.716.617.236,1.057-1.082.99-2.166,1.977-3.272,2.939a.759.759,0,0,1-.645.161.743.743,0,0,1-.3-.588c.023-1.466.077-2.932.141-4.4.029-.677.419-.861.988-.5l.871.562c.121-.249.228-.464.33-.682.607-1.3,1.218-2.591,1.816-3.891.157-.341.365-.581.758-.407s.362.492.2.831c-.262.545-.511,1.1-.758,1.627.053.061.07.093.1.109,1.506.924.929.958,2.367.025a16.639,16.639,0,0,0,4.32-3.874,5.5,5.5,0,0,0,1.157-2.48,2.639,2.639,0,0,0-3.573-3.11,4.7,4.7,0,0,0-2.463,1.808c-.461.621-.74.624-1.2,0a4.624,4.624,0,0,0-2.411-1.8,2.819,2.819,0,0,0-2.946.585A2.739,2.739,0,0,0,87.6,26.48a6.349,6.349,0,0,0,1.539,2.669c.534.6,1.121,1.159,1.7,1.718.272.262.511.518.192.874-.291.324-.582.173-.861-.063a10.322,10.322,0,0,1-3.458-4.6,4,4,0,0,1,.528-3.936,3.715,3.715,0,0,1,4.577-.927,20.439,20.439,0,0,1,2.361,1.5m3.76-4.684c.361-.77.712-1.507,1.046-2.251a.447.447,0,0,0-.033-.324c-.173-.37-.365-.732-.588-1.172a15.028,15.028,0,0,1-.683,1.432,1.869,1.869,0,0,0,.257,2.315m.952.442c1.423-.112,2.164-.924,2.5-2.706-.373.088-.741.163-1.1.265a.589.589,0,0,0-.353.212c-.361.729-.7,1.47-1.048,2.229m-9.219,18.6,1.764-1.6-1.764-.823Z" transform="translate(-58.416 -9.199)" fill="#31313c"/>
        <path id="Trazado_154476" data-name="Trazado 154476" d="M32.438,54.265c0-.626-.006-1.251,0-1.876.007-.565.272-.8.775-.576,1.094.481,2.16,1.023,3.235,1.547a.761.761,0,0,1,.424.77c-.01,1.2,0,2.4-.006,3.6-.005.7-.382.869-1,.548-.958-.5-1.935-.967-2.923-1.4a.7.7,0,0,1-.51-.735c.015-.625,0-1.251,0-1.876m1.027-1.353c0,1.024-.006,1.9.007,2.768a.394.394,0,0,0,.165.3c.709.329,1.428.635,2.185.967,0-.872.008-1.709-.009-2.544a.476.476,0,0,0-.207-.342c-.669-.377-1.351-.729-2.141-1.149" transform="translate(-21.921 -34.962)" fill="#31313c"/>
        <path id="Trazado_154477" data-name="Trazado 154477" d="M43.171,35.262c-.161.175-.267.389-.415.425a.748.748,0,0,1-.569-.13c-.665-.537-1.28-1.137-1.955-1.66a19.171,19.171,0,0,0-7.249-3.667c-.371-.089-.621-.278-.507-.689.106-.381.393-.414.748-.327A20.72,20.72,0,0,1,41.3,33.4c.512.412,1,.86,1.477,1.309a3.52,3.52,0,0,1,.391.557" transform="translate(-21.931 -19.717)" fill="#31313c"/>
        <path id="Trazado_154478" data-name="Trazado 154478" d="M32.919,40.676c1.088.383,2.083.68,3.036,1.079a22.471,22.471,0,0,1,6.821,4.555c.116.111.274.253.28.386.009.185-.073.51-.178.537a.922.922,0,0,1-.71-.09c-.664-.512-1.262-1.109-1.925-1.623a19.163,19.163,0,0,0-7.258-3.668c-.316-.076-.6-.231-.5-.6.054-.207.272-.371.435-.579" transform="translate(-21.942 -27.491)" fill="#31313c"/>
        <path id="Trazado_154479" data-name="Trazado 154479" d="M44.209,21.2c.242.092.4.141.546.21a20.313,20.313,0,0,1,5.682,4.042c.264.263.49.57.146.885-.316.289-.63.113-.9-.159a19.319,19.319,0,0,0-5.491-3.885c-.287-.134-.5-.321-.385-.64.064-.181.273-.31.407-.453" transform="translate(-29.583 -14.329)" fill="#31313c"/>
        <path id="Trazado_154480" data-name="Trazado 154480" d="M55.006,76.877c-.2-.128-.376-.215-.524-.332-1.121-.886-2.233-1.783-3.359-2.662-.268-.209-.427-.424-.235-.748a.5.5,0,0,1,.767-.151,16.164,16.164,0,0,1,3.646,2.93.816.816,0,0,1,.117.623c-.022.123-.245.211-.411.341" transform="translate(-34.335 -49.25)" fill="#31313c"/>
        <path id="Trazado_154481" data-name="Trazado 154481" d="M55,65c-.2-.13-.37-.22-.518-.337-1.121-.885-2.234-1.782-3.36-2.661-.27-.211-.421-.429-.226-.749s.478-.309.77-.14a16.135,16.135,0,0,1,3.645,2.93.808.808,0,0,1,.109.624c-.024.123-.251.207-.42.334" transform="translate(-34.336 -41.227)" fill="#31313c"/>
        <path id="Trazado_154482" data-name="Trazado 154482" d="M33.977,18.086c-.119.078-.313.308-.522.323-.578.042-.975-.231-.977-.588a.484.484,0,0,1,.546-.544c.6.013.955.262.953.809" transform="translate(-21.951 -11.676)" fill="#31313c"/>
      </g>
    </g>
  </g>
</svg>
