<svg xmlns="http://www.w3.org/2000/svg" xmlns:xlink="http://www.w3.org/1999/xlink" width="77" height="77" viewBox="0 0 77 77">
  <defs>
    <clipPath id="clip-path">
      <rect id="Rectángulo_35708" data-name="Rectángulo 35708" width="37.597" height="45.961" fill="#31313c"/>
    </clipPath>
  </defs>
  <g id="Grupo_158001" data-name="Grupo 158001" transform="translate(-1076.891 -1571.613)">
    <circle id="Elipse_4726" data-name="Elipse 4726" cx="38.5" cy="38.5" r="38.5" transform="translate(1076.891 1571.613)" fill="#fd9827"/>
    <g id="Grupo_158937" data-name="Grupo 158937" transform="translate(1096.891 1587.613)">
      <g id="Grupo_158937-2" data-name="Grupo 158937" clip-path="url(#clip-path)">
        <path id="Trazado_154465" data-name="Trazado 154465" d="M10.415,10.2a4.264,4.264,0,0,1,2.221-1.443,1.467,1.467,0,0,1,.456-.017q5.446-.026,10.891-.028a3.7,3.7,0,0,1,1.942,6.964c1.022.952,2.032,1.9,2.979,2.921a36.482,36.482,0,0,1,7.365,10.967,16.032,16.032,0,0,1,1.182,8.558,8.012,8.012,0,0,1-6.343,7.055,20.657,20.657,0,0,1-4.51.656c-4.705.207-9.413.1-14.119.067a19.353,19.353,0,0,1-7.257-1.25A7.93,7.93,0,0,1,.145,38.165,16.357,16.357,0,0,1,1.79,28.553,38.554,38.554,0,0,1,9.9,17.363c.567-.566,1.162-1.1,1.765-1.672-.23-.169-.458-.318-.663-.493A3.428,3.428,0,0,1,9.7,12.356a1.528,1.528,0,0,0-.321-1.013A10.35,10.35,0,0,1,7.3,4.72,3.983,3.983,0,0,1,10.337.734a4.411,4.411,0,0,1,3.018.372A7.49,7.49,0,0,1,15,2.213c.253.226.354.259.537-.085a3.763,3.763,0,0,1,6.645-.253c.236.348.358.39.693.118A6.042,6.042,0,0,1,25.495.676a3.672,3.672,0,0,1,4.617,2.946,8.869,8.869,0,0,1-.619,5.384,6.283,6.283,0,0,1-.253.591.739.739,0,0,1-1.351-.6,10.364,10.364,0,0,0,.874-3.007,4.579,4.579,0,0,0-.22-2.28A2.386,2.386,0,0,0,25.53,2.187c-.048.016-.1.033-.142.052a6.425,6.425,0,0,0-2.3,1.436c-.69.63-1.084.57-1.552-.253A4.573,4.573,0,0,0,20.3,1.936a2.142,2.142,0,0,0-2.844.076,5.059,5.059,0,0,0-1.251,1.7c-.356.708-.852.794-1.418.239a6.848,6.848,0,0,0-2.56-1.7,2.432,2.432,0,0,0-3.36,1.962,7.587,7.587,0,0,0,.625,4.2,9.469,9.469,0,0,0,.922,1.79m8.559,34.235h2.364a41.808,41.808,0,0,0,8.168-.555,9.376,9.376,0,0,0,4.053-1.713,7.245,7.245,0,0,0,2.556-5.77A14.893,14.893,0,0,0,34.9,30.085,35.412,35.412,0,0,0,24.212,16.224a.665.665,0,0,0-.469-.135h-9.92a.857.857,0,0,0-.591.208A37.066,37.066,0,0,0,3.158,29.117,14.352,14.352,0,0,0,1.54,37.081a7.134,7.134,0,0,0,3.974,5.91A14.917,14.917,0,0,0,11.1,44.342c2.623.214,5.251.079,7.876.1m-.163-34.23V10.2c-1.76,0-3.521.006-5.28,0a2.317,2.317,0,0,0-1.59.516,2.21,2.21,0,0,0-.659,2.391A2.133,2.133,0,0,0,13.392,14.6q5.4.013,10.793,0a2.366,2.366,0,0,0,.591-.07,2.178,2.178,0,0,0,1.61-2.431,2.138,2.138,0,0,0-2.117-1.887c-1.814-.019-3.634-.006-5.458-.006Z" transform="translate(0 0)" fill="#31313c"/>
        <path id="Trazado_154466" data-name="Trazado 154466" d="M24.693,70.772c.507-.152.8.073,1.051.507A8.475,8.475,0,0,0,33.634,75.8a8.6,8.6,0,1,0-8.856-9.6,6.565,6.565,0,0,0-.062.831.807.807,0,0,1-.679.918l-.033,0c-.6-.118-.783-.338-.78-.942a10.106,10.106,0,1,1,1.219,4.992c-.308-.583-.26-.821.251-1.233" transform="translate(-14.533 -35.722)" fill="#31313c"/>
        <path id="Trazado_154467" data-name="Trazado 154467" d="M44.711,73.2a1.06,1.06,0,0,0,.973,1.141c.033,0,.065,0,.1,0a2.533,2.533,0,0,1,2.5,2.122A2.592,2.592,0,0,1,46.86,79.4a.511.511,0,0,0-.307.447.664.664,0,0,1-.717.591.648.648,0,0,1-.718-.57s0-.008,0-.012c-.029-.272-.165-.344-.373-.434a2.55,2.55,0,0,1-1.428-1.5c-.21-.567-.084-.94.374-1.117s.791.024,1.013.582a1.182,1.182,0,0,0,1.489.759l.035-.012a1.246,1.246,0,0,0,.627-1.6,1.022,1.022,0,0,0-1.05-.688,2.649,2.649,0,0,1-2.482-3.355A2.371,2.371,0,0,1,44.77,70.8a.439.439,0,0,0,.333-.461.771.771,0,0,1,.757-.785H45.9c.4.013.644.283.661.8.007.247.107.333.318.422a2.534,2.534,0,0,1,1.483,1.561c.186.541.053.913-.382,1.076-.463.175-.809-.021-1.018-.576a1.164,1.164,0,0,0-1.413-.815,1.146,1.146,0,0,0-.84,1.182" transform="translate(-27.043 -43.526)" fill="#31313c"/>
      </g>
    </g>
  </g>
</svg>
