<svg xmlns="http://www.w3.org/2000/svg" xmlns:xlink="http://www.w3.org/1999/xlink" width="400" height="192.219" viewBox="0 0 400 192.219">
  <defs>
    <clipPath id="clip-path">
      <rect id="Rectángulo_34881" data-name="Rectángulo 34881" width="117.291" height="59.836" fill="#12263f"/>
    </clipPath>
    <clipPath id="clip-path-2">
      <rect id="Rectángulo_35151" data-name="Rectángulo 35151" width="40.127" height="49.411" fill="none"/>
    </clipPath>
    <clipPath id="clip-path-3">
      <rect id="Rectángulo_35157" data-name="Rectángulo 35157" width="287.329" height="192.219" fill="none"/>
    </clipPath>
  </defs>
  <g id="Grupo_158127" data-name="Grupo 158127" transform="translate(-1020 -5562)">
    <g id="Grupo_158125" data-name="Grupo 158125" transform="translate(1018.662 5578.743)">
      <g id="Enmascarar_grupo_63" data-name="Enmascarar grupo 63" transform="translate(284.046 99.421)" clip-path="url(#clip-path)">
        <path id="Trazado_151731" data-name="Trazado 151731" d="M55.846,88.179A32.332,32.332,0,1,1,88.179,55.846,32.369,32.369,0,0,1,55.846,88.179m0,23.514A55.846,55.846,0,1,0,0,55.846,55.846,55.846,0,0,0,55.846,111.693Z" transform="translate(2.423 3.99)" fill="#fd9827"/>
      </g>
      <g id="Grupo_78301" data-name="Grupo 78301" transform="translate(1.338 0.257)">
        <path id="Trazado_145969" data-name="Trazado 145969" d="M56.572,0A56.572,56.572,0,1,1,0,56.572,56.572,56.572,0,0,1,56.572,0Z" transform="translate(0 3.637)" fill="#fd9827" opacity="0.444" style="mix-blend-mode: multiply;isolation: isolate"/>
        <rect id="Rectángulo_34812" data-name="Rectángulo 34812" width="400" height="157" transform="translate(0)" fill="none"/>
        <path id="Trazado_145971" data-name="Trazado 145971" d="M8.18,0A8.18,8.18,0,1,1,0,8.18,8.18,8.18,0,0,1,8.18,0Z" transform="translate(32.317 124.258)" fill="#31313c" opacity="0.444" style="mix-blend-mode: multiply;isolation: isolate"/>
        <g id="Grupo_80270" data-name="Grupo 80270" transform="translate(276.359 3.638)">
          <path id="Trazado_145968" data-name="Trazado 145968" d="M61.821,0A61.821,61.821,0,1,1,0,61.821,61.821,61.821,0,0,1,61.821,0Z" transform="translate(0)" fill="#31313c" opacity="0.444" style="mix-blend-mode: multiply;isolation: isolate"/>
          <g id="Grupo_78276" data-name="Grupo 78276" transform="translate(24.137 25.557)">
            <g id="Grupo_53306" data-name="Grupo 53306">
              <path id="Trazado_99200" data-name="Trazado 99200" d="M415.893,51.026a.84.84,0,1,1-.84-.8A.822.822,0,0,1,415.893,51.026Z" transform="translate(-414.214 -50.224)" fill="#fff"/>
              <path id="Trazado_99201" data-name="Trazado 99201" d="M424.339,51.026a.84.84,0,1,1-.839-.8A.821.821,0,0,1,424.339,51.026Z" transform="translate(-415.105 -50.224)" fill="#fff"/>
              <path id="Trazado_99202" data-name="Trazado 99202" d="M432.785,51.026a.84.84,0,1,1-.839-.8A.822.822,0,0,1,432.785,51.026Z" transform="translate(-415.996 -50.224)" fill="#fff"/>
              <path id="Trazado_99203" data-name="Trazado 99203" d="M441.232,51.026a.84.84,0,1,1-.84-.8A.822.822,0,0,1,441.232,51.026Z" transform="translate(-416.888 -50.224)" fill="#fff"/>
              <path id="Trazado_99204" data-name="Trazado 99204" d="M449.678,51.026a.84.84,0,1,1-.839-.8A.822.822,0,0,1,449.678,51.026Z" transform="translate(-417.779 -50.224)" fill="#fff"/>
              <path id="Trazado_99205" data-name="Trazado 99205" d="M458.124,51.026a.84.84,0,1,1-.839-.8A.821.821,0,0,1,458.124,51.026Z" transform="translate(-418.67 -50.224)" fill="#fff"/>
              <path id="Trazado_99206" data-name="Trazado 99206" d="M466.571,51.026a.84.84,0,1,1-.84-.8A.822.822,0,0,1,466.571,51.026Z" transform="translate(-419.562 -50.224)" fill="#fff"/>
              <path id="Trazado_99207" data-name="Trazado 99207" d="M475.017,51.026a.84.84,0,1,1-.839-.8A.821.821,0,0,1,475.017,51.026Z" transform="translate(-420.453 -50.224)" fill="#fff"/>
              <path id="Trazado_99208" data-name="Trazado 99208" d="M483.463,51.026a.84.84,0,1,1-.839-.8A.822.822,0,0,1,483.463,51.026Z" transform="translate(-421.344 -50.224)" fill="#fff"/>
              <path id="Trazado_99209" data-name="Trazado 99209" d="M491.91,51.026a.84.84,0,1,1-.84-.8A.822.822,0,0,1,491.91,51.026Z" transform="translate(-422.236 -50.224)" fill="#fff"/>
              <path id="Trazado_99210" data-name="Trazado 99210" d="M500.356,51.026a.84.84,0,1,1-.84-.8A.822.822,0,0,1,500.356,51.026Z" transform="translate(-423.127 -50.224)" fill="#fff"/>
            </g>
            <g id="Grupo_53307" data-name="Grupo 53307" transform="translate(0 6.422)">
              <path id="Trazado_99211" data-name="Trazado 99211" d="M415.893,58.534a.84.84,0,1,1-.84-.8A.822.822,0,0,1,415.893,58.534Z" transform="translate(-414.214 -57.732)" fill="#fff"/>
              <path id="Trazado_99212" data-name="Trazado 99212" d="M424.339,58.534a.84.84,0,1,1-.839-.8A.821.821,0,0,1,424.339,58.534Z" transform="translate(-415.105 -57.732)" fill="#fff"/>
              <path id="Trazado_99213" data-name="Trazado 99213" d="M432.785,58.534a.84.84,0,1,1-.839-.8A.822.822,0,0,1,432.785,58.534Z" transform="translate(-415.996 -57.732)" fill="#fff"/>
              <path id="Trazado_99214" data-name="Trazado 99214" d="M441.232,58.534a.84.84,0,1,1-.84-.8A.822.822,0,0,1,441.232,58.534Z" transform="translate(-416.888 -57.732)" fill="#fff"/>
              <path id="Trazado_99215" data-name="Trazado 99215" d="M449.678,58.534a.84.84,0,1,1-.839-.8A.822.822,0,0,1,449.678,58.534Z" transform="translate(-417.779 -57.732)" fill="#fff"/>
              <path id="Trazado_99216" data-name="Trazado 99216" d="M458.124,58.534a.84.84,0,1,1-.839-.8A.821.821,0,0,1,458.124,58.534Z" transform="translate(-418.67 -57.732)" fill="#fff"/>
              <path id="Trazado_99217" data-name="Trazado 99217" d="M466.571,58.534a.84.84,0,1,1-.84-.8A.822.822,0,0,1,466.571,58.534Z" transform="translate(-419.562 -57.732)" fill="#fff"/>
              <path id="Trazado_99218" data-name="Trazado 99218" d="M475.017,58.534a.84.84,0,1,1-.839-.8A.821.821,0,0,1,475.017,58.534Z" transform="translate(-420.453 -57.732)" fill="#fff"/>
              <path id="Trazado_99219" data-name="Trazado 99219" d="M483.463,58.534a.84.84,0,1,1-.839-.8A.822.822,0,0,1,483.463,58.534Z" transform="translate(-421.344 -57.732)" fill="#fff"/>
              <path id="Trazado_99220" data-name="Trazado 99220" d="M491.91,58.534a.84.84,0,1,1-.84-.8A.822.822,0,0,1,491.91,58.534Z" transform="translate(-422.236 -57.732)" fill="#fff"/>
              <path id="Trazado_99221" data-name="Trazado 99221" d="M500.356,58.534a.84.84,0,1,1-.84-.8A.822.822,0,0,1,500.356,58.534Z" transform="translate(-423.127 -57.732)" fill="#fff"/>
            </g>
            <g id="Grupo_53308" data-name="Grupo 53308" transform="translate(0 12.845)">
              <ellipse id="Elipse_3955" data-name="Elipse 3955" cx="0.839" cy="0.803" rx="0.839" ry="0.803" fill="#fff"/>
              <path id="Trazado_99222" data-name="Trazado 99222" d="M424.339,66.042a.84.84,0,1,1-.839-.8A.822.822,0,0,1,424.339,66.042Z" transform="translate(-415.105 -65.24)" fill="#fff"/>
              <ellipse id="Elipse_3956" data-name="Elipse 3956" cx="0.839" cy="0.803" rx="0.839" ry="0.803" transform="translate(15.11)" fill="#fff"/>
              <path id="Trazado_99223" data-name="Trazado 99223" d="M441.232,66.042a.84.84,0,1,1-.84-.8A.822.822,0,0,1,441.232,66.042Z" transform="translate(-416.888 -65.24)" fill="#fff"/>
              <path id="Trazado_99224" data-name="Trazado 99224" d="M449.678,66.042a.84.84,0,1,1-.839-.8A.822.822,0,0,1,449.678,66.042Z" transform="translate(-417.779 -65.24)" fill="#fff"/>
              <ellipse id="Elipse_3957" data-name="Elipse 3957" cx="0.839" cy="0.803" rx="0.839" ry="0.803" transform="translate(37.775)" fill="#fff"/>
              <path id="Trazado_99225" data-name="Trazado 99225" d="M466.571,66.042a.84.84,0,1,1-.84-.8A.823.823,0,0,1,466.571,66.042Z" transform="translate(-419.562 -65.24)" fill="#fff"/>
              <ellipse id="Elipse_3958" data-name="Elipse 3958" cx="0.839" cy="0.803" rx="0.839" ry="0.803" transform="translate(52.885)" fill="#fff"/>
              <ellipse id="Elipse_3959" data-name="Elipse 3959" cx="0.839" cy="0.803" rx="0.839" ry="0.803" transform="translate(60.44)" fill="#fff"/>
              <path id="Trazado_99226" data-name="Trazado 99226" d="M491.91,66.042a.84.84,0,1,1-.84-.8A.823.823,0,0,1,491.91,66.042Z" transform="translate(-422.235 -65.24)" fill="#fff"/>
              <path id="Trazado_99227" data-name="Trazado 99227" d="M500.356,66.042a.84.84,0,1,1-.84-.8A.822.822,0,0,1,500.356,66.042Z" transform="translate(-423.127 -65.24)" fill="#fff"/>
            </g>
            <g id="Grupo_53309" data-name="Grupo 53309" transform="translate(0 19.266)">
              <ellipse id="Elipse_3960" data-name="Elipse 3960" cx="0.839" cy="0.803" rx="0.839" ry="0.803" transform="translate(0 0)" fill="#fff"/>
              <path id="Trazado_99228" data-name="Trazado 99228" d="M424.339,73.55a.84.84,0,1,1-.839-.8A.821.821,0,0,1,424.339,73.55Z" transform="translate(-415.105 -72.747)" fill="#fff"/>
              <ellipse id="Elipse_3961" data-name="Elipse 3961" cx="0.839" cy="0.803" rx="0.839" ry="0.803" transform="translate(15.11 0)" fill="#fff"/>
              <path id="Trazado_99229" data-name="Trazado 99229" d="M441.232,73.55a.84.84,0,1,1-.84-.8A.822.822,0,0,1,441.232,73.55Z" transform="translate(-416.888 -72.747)" fill="#fff"/>
              <path id="Trazado_99230" data-name="Trazado 99230" d="M449.678,73.55a.84.84,0,1,1-.839-.8A.821.821,0,0,1,449.678,73.55Z" transform="translate(-417.779 -72.747)" fill="#fff"/>
              <ellipse id="Elipse_3962" data-name="Elipse 3962" cx="0.839" cy="0.803" rx="0.839" ry="0.803" transform="translate(37.775 0)" fill="#fff"/>
              <path id="Trazado_99231" data-name="Trazado 99231" d="M466.571,73.55a.84.84,0,1,1-.84-.8A.822.822,0,0,1,466.571,73.55Z" transform="translate(-419.562 -72.747)" fill="#fff"/>
              <ellipse id="Elipse_3963" data-name="Elipse 3963" cx="0.839" cy="0.803" rx="0.839" ry="0.803" transform="translate(52.885 0)" fill="#fff"/>
              <ellipse id="Elipse_3964" data-name="Elipse 3964" cx="0.839" cy="0.803" rx="0.839" ry="0.803" transform="translate(60.44 0)" fill="#fff"/>
              <path id="Trazado_99232" data-name="Trazado 99232" d="M491.91,73.55a.84.84,0,1,1-.84-.8A.822.822,0,0,1,491.91,73.55Z" transform="translate(-422.235 -72.747)" fill="#fff"/>
              <path id="Trazado_99233" data-name="Trazado 99233" d="M500.356,73.55a.84.84,0,1,1-.84-.8A.822.822,0,0,1,500.356,73.55Z" transform="translate(-423.127 -72.747)" fill="#fff"/>
            </g>
            <g id="Grupo_53310" data-name="Grupo 53310" transform="translate(0 25.689)">
              <path id="Trazado_99234" data-name="Trazado 99234" d="M415.893,81.058a.84.84,0,1,1-.84-.8A.822.822,0,0,1,415.893,81.058Z" transform="translate(-414.214 -80.255)" fill="#fff"/>
              <path id="Trazado_99235" data-name="Trazado 99235" d="M424.339,81.058a.84.84,0,1,1-.839-.8A.821.821,0,0,1,424.339,81.058Z" transform="translate(-415.105 -80.255)" fill="#fff"/>
              <path id="Trazado_99236" data-name="Trazado 99236" d="M432.785,81.058a.84.84,0,1,1-.839-.8A.821.821,0,0,1,432.785,81.058Z" transform="translate(-415.996 -80.255)" fill="#fff"/>
              <path id="Trazado_99237" data-name="Trazado 99237" d="M441.232,81.058a.84.84,0,1,1-.84-.8A.822.822,0,0,1,441.232,81.058Z" transform="translate(-416.888 -80.255)" fill="#fff"/>
              <path id="Trazado_99238" data-name="Trazado 99238" d="M449.678,81.058a.84.84,0,1,1-.839-.8A.821.821,0,0,1,449.678,81.058Z" transform="translate(-417.779 -80.255)" fill="#fff"/>
              <path id="Trazado_99239" data-name="Trazado 99239" d="M458.124,81.058a.84.84,0,1,1-.839-.8A.821.821,0,0,1,458.124,81.058Z" transform="translate(-418.67 -80.255)" fill="#fff"/>
              <path id="Trazado_99240" data-name="Trazado 99240" d="M466.571,81.058a.84.84,0,1,1-.84-.8A.822.822,0,0,1,466.571,81.058Z" transform="translate(-419.562 -80.255)" fill="#fff"/>
              <path id="Trazado_99241" data-name="Trazado 99241" d="M475.017,81.058a.84.84,0,1,1-.839-.8A.821.821,0,0,1,475.017,81.058Z" transform="translate(-420.453 -80.255)" fill="#fff"/>
              <path id="Trazado_99242" data-name="Trazado 99242" d="M483.463,81.058a.84.84,0,1,1-.839-.8A.821.821,0,0,1,483.463,81.058Z" transform="translate(-421.344 -80.255)" fill="#fff"/>
              <path id="Trazado_99243" data-name="Trazado 99243" d="M491.91,81.058a.84.84,0,1,1-.84-.8A.822.822,0,0,1,491.91,81.058Z" transform="translate(-422.236 -80.255)" fill="#fff"/>
              <path id="Trazado_99244" data-name="Trazado 99244" d="M500.356,81.058a.84.84,0,1,1-.84-.8A.822.822,0,0,1,500.356,81.058Z" transform="translate(-423.127 -80.255)" fill="#fff"/>
            </g>
            <g id="Grupo_53311" data-name="Grupo 53311" transform="translate(0 32.111)">
              <ellipse id="Elipse_3965" data-name="Elipse 3965" cx="0.839" cy="0.803" rx="0.839" ry="0.803" transform="translate(0 0)" fill="#fff"/>
              <path id="Trazado_99245" data-name="Trazado 99245" d="M424.339,88.566a.84.84,0,1,1-.839-.8A.821.821,0,0,1,424.339,88.566Z" transform="translate(-415.105 -87.763)" fill="#fff"/>
              <ellipse id="Elipse_3966" data-name="Elipse 3966" cx="0.839" cy="0.803" rx="0.839" ry="0.803" transform="translate(15.11 0)" fill="#fff"/>
              <path id="Trazado_99246" data-name="Trazado 99246" d="M441.232,88.566a.84.84,0,1,1-.84-.8A.822.822,0,0,1,441.232,88.566Z" transform="translate(-416.888 -87.763)" fill="#fff"/>
              <path id="Trazado_99247" data-name="Trazado 99247" d="M449.678,88.566a.84.84,0,1,1-.839-.8A.821.821,0,0,1,449.678,88.566Z" transform="translate(-417.779 -87.763)" fill="#fff"/>
              <ellipse id="Elipse_3967" data-name="Elipse 3967" cx="0.839" cy="0.803" rx="0.839" ry="0.803" transform="translate(37.775 0)" fill="#fff"/>
              <path id="Trazado_99248" data-name="Trazado 99248" d="M466.571,88.566a.84.84,0,1,1-.84-.8A.822.822,0,0,1,466.571,88.566Z" transform="translate(-419.562 -87.763)" fill="#fff"/>
              <ellipse id="Elipse_3968" data-name="Elipse 3968" cx="0.839" cy="0.803" rx="0.839" ry="0.803" transform="translate(52.885 0)" fill="#fff"/>
              <ellipse id="Elipse_3969" data-name="Elipse 3969" cx="0.839" cy="0.803" rx="0.839" ry="0.803" transform="translate(60.44 0)" fill="#fff"/>
              <path id="Trazado_99249" data-name="Trazado 99249" d="M491.91,88.566a.84.84,0,1,1-.84-.8A.822.822,0,0,1,491.91,88.566Z" transform="translate(-422.235 -87.763)" fill="#fff"/>
              <path id="Trazado_99250" data-name="Trazado 99250" d="M500.356,88.566a.84.84,0,1,1-.84-.8A.822.822,0,0,1,500.356,88.566Z" transform="translate(-423.127 -87.763)" fill="#fff"/>
            </g>
            <g id="Grupo_53312" data-name="Grupo 53312" transform="translate(0 38.533)">
              <ellipse id="Elipse_3970" data-name="Elipse 3970" cx="0.839" cy="0.803" rx="0.839" ry="0.803" fill="#fff"/>
              <path id="Trazado_99251" data-name="Trazado 99251" d="M424.339,96.073a.84.84,0,1,1-.839-.8A.821.821,0,0,1,424.339,96.073Z" transform="translate(-415.105 -95.271)" fill="#fff"/>
              <ellipse id="Elipse_3971" data-name="Elipse 3971" cx="0.839" cy="0.803" rx="0.839" ry="0.803" transform="translate(15.11)" fill="#fff"/>
              <path id="Trazado_99252" data-name="Trazado 99252" d="M441.232,96.073a.84.84,0,1,1-.84-.8A.822.822,0,0,1,441.232,96.073Z" transform="translate(-416.888 -95.271)" fill="#fff"/>
              <path id="Trazado_99253" data-name="Trazado 99253" d="M449.678,96.073a.84.84,0,1,1-.839-.8A.822.822,0,0,1,449.678,96.073Z" transform="translate(-417.779 -95.271)" fill="#fff"/>
              <ellipse id="Elipse_3972" data-name="Elipse 3972" cx="0.839" cy="0.803" rx="0.839" ry="0.803" transform="translate(37.775)" fill="#fff"/>
              <path id="Trazado_99254" data-name="Trazado 99254" d="M466.571,96.073a.84.84,0,1,1-.84-.8A.822.822,0,0,1,466.571,96.073Z" transform="translate(-419.562 -95.271)" fill="#fff"/>
              <ellipse id="Elipse_3973" data-name="Elipse 3973" cx="0.839" cy="0.803" rx="0.839" ry="0.803" transform="translate(52.885)" fill="#fff"/>
              <ellipse id="Elipse_3974" data-name="Elipse 3974" cx="0.839" cy="0.803" rx="0.839" ry="0.803" transform="translate(60.44)" fill="#fff"/>
              <path id="Trazado_99255" data-name="Trazado 99255" d="M491.91,96.073a.84.84,0,1,1-.84-.8A.822.822,0,0,1,491.91,96.073Z" transform="translate(-422.235 -95.271)" fill="#fff"/>
              <path id="Trazado_99256" data-name="Trazado 99256" d="M500.356,96.073a.84.84,0,1,1-.84-.8A.822.822,0,0,1,500.356,96.073Z" transform="translate(-423.127 -95.271)" fill="#fff"/>
            </g>
            <g id="Grupo_53313" data-name="Grupo 53313" transform="translate(0 44.956)">
              <path id="Trazado_99257" data-name="Trazado 99257" d="M415.893,103.581a.84.84,0,1,1-.84-.8A.822.822,0,0,1,415.893,103.581Z" transform="translate(-414.214 -102.779)" fill="#fff"/>
              <path id="Trazado_99258" data-name="Trazado 99258" d="M424.339,103.581a.84.84,0,1,1-.839-.8A.821.821,0,0,1,424.339,103.581Z" transform="translate(-415.105 -102.779)" fill="#fff"/>
              <path id="Trazado_99259" data-name="Trazado 99259" d="M432.785,103.581a.84.84,0,1,1-.839-.8A.822.822,0,0,1,432.785,103.581Z" transform="translate(-415.996 -102.779)" fill="#fff"/>
              <path id="Trazado_99260" data-name="Trazado 99260" d="M441.232,103.581a.84.84,0,1,1-.84-.8A.822.822,0,0,1,441.232,103.581Z" transform="translate(-416.888 -102.779)" fill="#fff"/>
              <path id="Trazado_99261" data-name="Trazado 99261" d="M449.678,103.581a.84.84,0,1,1-.839-.8A.822.822,0,0,1,449.678,103.581Z" transform="translate(-417.779 -102.779)" fill="#fff"/>
              <path id="Trazado_99262" data-name="Trazado 99262" d="M458.124,103.581a.84.84,0,1,1-.839-.8A.822.822,0,0,1,458.124,103.581Z" transform="translate(-418.67 -102.779)" fill="#fff"/>
              <path id="Trazado_99263" data-name="Trazado 99263" d="M466.571,103.581a.84.84,0,1,1-.84-.8A.822.822,0,0,1,466.571,103.581Z" transform="translate(-419.562 -102.779)" fill="#fff"/>
              <path id="Trazado_99264" data-name="Trazado 99264" d="M475.017,103.581a.84.84,0,1,1-.839-.8A.821.821,0,0,1,475.017,103.581Z" transform="translate(-420.453 -102.779)" fill="#fff"/>
              <path id="Trazado_99265" data-name="Trazado 99265" d="M483.463,103.581a.84.84,0,1,1-.839-.8A.822.822,0,0,1,483.463,103.581Z" transform="translate(-421.344 -102.779)" fill="#fff"/>
              <path id="Trazado_99266" data-name="Trazado 99266" d="M491.91,103.581a.84.84,0,1,1-.84-.8A.822.822,0,0,1,491.91,103.581Z" transform="translate(-422.236 -102.779)" fill="#fff"/>
              <path id="Trazado_99267" data-name="Trazado 99267" d="M500.356,103.581a.84.84,0,1,1-.84-.8A.822.822,0,0,1,500.356,103.581Z" transform="translate(-423.127 -102.779)" fill="#fff"/>
            </g>
            <g id="Grupo_53314" data-name="Grupo 53314" transform="translate(0 51.378)">
              <ellipse id="Elipse_3975" data-name="Elipse 3975" cx="0.839" cy="0.803" rx="0.839" ry="0.803" fill="#fff"/>
              <path id="Trazado_99268" data-name="Trazado 99268" d="M424.339,111.089a.84.84,0,1,1-.839-.8A.822.822,0,0,1,424.339,111.089Z" transform="translate(-415.105 -110.287)" fill="#fff"/>
              <ellipse id="Elipse_3976" data-name="Elipse 3976" cx="0.839" cy="0.803" rx="0.839" ry="0.803" transform="translate(15.11)" fill="#fff"/>
              <path id="Trazado_99269" data-name="Trazado 99269" d="M441.232,111.089a.84.84,0,1,1-.84-.8A.822.822,0,0,1,441.232,111.089Z" transform="translate(-416.888 -110.287)" fill="#fff"/>
              <path id="Trazado_99270" data-name="Trazado 99270" d="M449.678,111.089a.84.84,0,1,1-.839-.8A.822.822,0,0,1,449.678,111.089Z" transform="translate(-417.779 -110.287)" fill="#fff"/>
              <ellipse id="Elipse_3977" data-name="Elipse 3977" cx="0.839" cy="0.803" rx="0.839" ry="0.803" transform="translate(37.775)" fill="#fff"/>
              <path id="Trazado_99271" data-name="Trazado 99271" d="M466.571,111.089a.84.84,0,1,1-.84-.8A.823.823,0,0,1,466.571,111.089Z" transform="translate(-419.562 -110.287)" fill="#fff"/>
              <ellipse id="Elipse_3978" data-name="Elipse 3978" cx="0.839" cy="0.803" rx="0.839" ry="0.803" transform="translate(52.885)" fill="#fff"/>
              <ellipse id="Elipse_3979" data-name="Elipse 3979" cx="0.839" cy="0.803" rx="0.839" ry="0.803" transform="translate(60.44)" fill="#fff"/>
              <path id="Trazado_99272" data-name="Trazado 99272" d="M491.91,111.089a.84.84,0,1,1-.84-.8A.823.823,0,0,1,491.91,111.089Z" transform="translate(-422.235 -110.287)" fill="#fff"/>
              <path id="Trazado_99273" data-name="Trazado 99273" d="M500.356,111.089a.84.84,0,1,1-.84-.8A.822.822,0,0,1,500.356,111.089Z" transform="translate(-423.127 -110.287)" fill="#fff"/>
            </g>
            <g id="Grupo_53315" data-name="Grupo 53315" transform="translate(0 57.8)">
              <path id="Trazado_99274" data-name="Trazado 99274" d="M415.893,118.6a.84.84,0,1,1-.84-.8A.822.822,0,0,1,415.893,118.6Z" transform="translate(-414.214 -117.794)" fill="#fff"/>
              <path id="Trazado_99275" data-name="Trazado 99275" d="M424.339,118.6a.84.84,0,1,1-.839-.8A.822.822,0,0,1,424.339,118.6Z" transform="translate(-415.105 -117.794)" fill="#fff"/>
              <path id="Trazado_99276" data-name="Trazado 99276" d="M432.785,118.6a.84.84,0,1,1-.839-.8A.822.822,0,0,1,432.785,118.6Z" transform="translate(-415.996 -117.794)" fill="#fff"/>
              <path id="Trazado_99277" data-name="Trazado 99277" d="M441.232,118.6a.84.84,0,1,1-.84-.8A.822.822,0,0,1,441.232,118.6Z" transform="translate(-416.888 -117.794)" fill="#fff"/>
              <path id="Trazado_99278" data-name="Trazado 99278" d="M449.678,118.6a.84.84,0,1,1-.839-.8A.822.822,0,0,1,449.678,118.6Z" transform="translate(-417.779 -117.794)" fill="#fff"/>
              <path id="Trazado_99279" data-name="Trazado 99279" d="M458.124,118.6a.84.84,0,1,1-.839-.8A.822.822,0,0,1,458.124,118.6Z" transform="translate(-418.67 -117.794)" fill="#fff"/>
              <path id="Trazado_99280" data-name="Trazado 99280" d="M466.571,118.6a.84.84,0,1,1-.84-.8A.823.823,0,0,1,466.571,118.6Z" transform="translate(-419.562 -117.794)" fill="#fff"/>
              <path id="Trazado_99281" data-name="Trazado 99281" d="M475.017,118.6a.84.84,0,1,1-.839-.8A.822.822,0,0,1,475.017,118.6Z" transform="translate(-420.453 -117.794)" fill="#fff"/>
              <path id="Trazado_99282" data-name="Trazado 99282" d="M483.463,118.6a.84.84,0,1,1-.839-.8A.822.822,0,0,1,483.463,118.6Z" transform="translate(-421.344 -117.794)" fill="#fff"/>
              <path id="Trazado_99283" data-name="Trazado 99283" d="M491.91,118.6a.84.84,0,1,1-.84-.8A.823.823,0,0,1,491.91,118.6Z" transform="translate(-422.236 -117.794)" fill="#fff"/>
              <path id="Trazado_99284" data-name="Trazado 99284" d="M500.356,118.6a.84.84,0,1,1-.84-.8A.822.822,0,0,1,500.356,118.6Z" transform="translate(-423.127 -117.794)" fill="#fff"/>
            </g>
            <g id="Grupo_53316" data-name="Grupo 53316" transform="translate(0 64.222)">
              <ellipse id="Elipse_3980" data-name="Elipse 3980" cx="0.839" cy="0.803" rx="0.839" ry="0.803" transform="translate(0 0)" fill="#fff"/>
              <path id="Trazado_99285" data-name="Trazado 99285" d="M424.339,126.105a.84.84,0,1,1-.839-.8A.821.821,0,0,1,424.339,126.105Z" transform="translate(-415.105 -125.302)" fill="#fff"/>
              <ellipse id="Elipse_3981" data-name="Elipse 3981" cx="0.839" cy="0.803" rx="0.839" ry="0.803" transform="translate(15.11 0)" fill="#fff"/>
              <path id="Trazado_99286" data-name="Trazado 99286" d="M441.232,126.105a.84.84,0,1,1-.84-.8A.822.822,0,0,1,441.232,126.105Z" transform="translate(-416.888 -125.302)" fill="#fff"/>
              <path id="Trazado_99287" data-name="Trazado 99287" d="M449.678,126.105a.84.84,0,1,1-.839-.8A.821.821,0,0,1,449.678,126.105Z" transform="translate(-417.779 -125.302)" fill="#fff"/>
              <ellipse id="Elipse_3982" data-name="Elipse 3982" cx="0.839" cy="0.803" rx="0.839" ry="0.803" transform="translate(37.775 0)" fill="#fff"/>
              <path id="Trazado_99288" data-name="Trazado 99288" d="M466.571,126.105a.84.84,0,1,1-.84-.8A.822.822,0,0,1,466.571,126.105Z" transform="translate(-419.562 -125.302)" fill="#fff"/>
              <ellipse id="Elipse_3983" data-name="Elipse 3983" cx="0.839" cy="0.803" rx="0.839" ry="0.803" transform="translate(52.885 0)" fill="#fff"/>
              <ellipse id="Elipse_3984" data-name="Elipse 3984" cx="0.839" cy="0.803" rx="0.839" ry="0.803" transform="translate(60.44 0)" fill="#fff"/>
              <path id="Trazado_99289" data-name="Trazado 99289" d="M491.91,126.105a.84.84,0,1,1-.84-.8A.822.822,0,0,1,491.91,126.105Z" transform="translate(-422.235 -125.302)" fill="#fff"/>
              <path id="Trazado_99290" data-name="Trazado 99290" d="M500.356,126.105a.84.84,0,1,1-.84-.8A.822.822,0,0,1,500.356,126.105Z" transform="translate(-423.127 -125.302)" fill="#fff"/>
            </g>
            <g id="Grupo_53317" data-name="Grupo 53317" transform="translate(0 70.645)">
              <ellipse id="Elipse_3985" data-name="Elipse 3985" cx="0.839" cy="0.803" rx="0.839" ry="0.803" transform="translate(0 0)" fill="#fff"/>
              <path id="Trazado_99291" data-name="Trazado 99291" d="M424.339,133.613a.84.84,0,1,1-.839-.8A.821.821,0,0,1,424.339,133.613Z" transform="translate(-415.105 -132.81)" fill="#fff"/>
              <ellipse id="Elipse_3986" data-name="Elipse 3986" cx="0.839" cy="0.803" rx="0.839" ry="0.803" transform="translate(15.11 0)" fill="#fff"/>
              <path id="Trazado_99292" data-name="Trazado 99292" d="M441.232,133.613a.84.84,0,1,1-.84-.8A.822.822,0,0,1,441.232,133.613Z" transform="translate(-416.888 -132.81)" fill="#fff"/>
              <path id="Trazado_99293" data-name="Trazado 99293" d="M449.678,133.613a.84.84,0,1,1-.839-.8A.821.821,0,0,1,449.678,133.613Z" transform="translate(-417.779 -132.81)" fill="#fff"/>
              <ellipse id="Elipse_3987" data-name="Elipse 3987" cx="0.839" cy="0.803" rx="0.839" ry="0.803" transform="translate(37.775 0)" fill="#fff"/>
              <path id="Trazado_99294" data-name="Trazado 99294" d="M466.571,133.613a.84.84,0,1,1-.84-.8A.822.822,0,0,1,466.571,133.613Z" transform="translate(-419.562 -132.81)" fill="#fff"/>
              <ellipse id="Elipse_3988" data-name="Elipse 3988" cx="0.839" cy="0.803" rx="0.839" ry="0.803" transform="translate(52.885 0)" fill="#fff"/>
              <ellipse id="Elipse_3989" data-name="Elipse 3989" cx="0.839" cy="0.803" rx="0.839" ry="0.803" transform="translate(60.44 0)" fill="#fff"/>
              <path id="Trazado_99295" data-name="Trazado 99295" d="M491.91,133.613a.84.84,0,1,1-.84-.8A.822.822,0,0,1,491.91,133.613Z" transform="translate(-422.235 -132.81)" fill="#fff"/>
              <path id="Trazado_99296" data-name="Trazado 99296" d="M500.356,133.613a.84.84,0,1,1-.84-.8A.822.822,0,0,1,500.356,133.613Z" transform="translate(-423.127 -132.81)" fill="#fff"/>
            </g>
          </g>
        </g>
        <line id="Línea_138" data-name="Línea 138" y2="131.799" transform="translate(17.548 18.662)" fill="none" stroke="#31313c" stroke-linecap="round" stroke-width="4" stroke-dasharray="8"/>
      </g>
    </g>
    <g id="Grupo_158124" data-name="Grupo 158124" transform="translate(1076 5561.997)">
      <rect id="Rectángulo_35130" data-name="Rectángulo 35130" width="35.379" height="17.491" transform="translate(237.99 66.887) rotate(-40.502)" fill="#5f7472"/>
      <g id="Grupo_158119" data-name="Grupo 158119" transform="translate(0 0.003)">
        <g id="Grupo_158126" data-name="Grupo 158126">
          <path id="Línea_160" data-name="Línea 160" d="M37.856,3.874a.432.432,0,0,1-.061,0l-40.107-5.7a.429.429,0,0,1-.364-.485.429.429,0,0,1,.485-.364l40.107,5.7a.429.429,0,0,1-.06.853Z" transform="translate(128.98 165.13)" fill="#fff"/>
          <path id="Línea_161" data-name="Línea 161" d="M37.856,3.874a.432.432,0,0,1-.061,0l-40.107-5.7a.429.429,0,0,1-.364-.485.429.429,0,0,1,.485-.364l40.107,5.7a.429.429,0,0,1-.06.853Z" transform="translate(132.057 157.61)" fill="#fff"/>
          <path id="Trazado_152999" data-name="Trazado 152999" d="M623.777,926.192c-.855,3.76-4.957,13.673-6.153,16.578l39.652,7.862s6.495-13.673,8.2-20.51Z" transform="translate(-518.811 -778.012)" fill="#fdb768"/>
          <path id="Trazado_153000" data-name="Trazado 153000" d="M345.523,44.529l2.735-25.8c12.615.937,28.84,7.131,45.8,14.4l-2.947,17.091Z" transform="translate(-290.243 -15.736)" fill="#eef2f1"/>
          <rect id="Rectángulo_35131" data-name="Rectángulo 35131" width="69.732" height="31.619" transform="translate(218.189 83.303) rotate(-87.293)" fill="#447f79"/>
          <path id="Trazado_153032" data-name="Trazado 153032" d="M0,0H57.255V68.194H0Z" transform="translate(230.074 68.878)" fill="#f5e8df"/>
          <path id="Trazado_153001" data-name="Trazado 153001" d="M678.149,234.348H569.823a23.773,23.773,0,0,1-23.773-23.773V158.308a23.773,23.773,0,0,1,23.773-23.773H678.149a23.773,23.773,0,0,1,23.773,23.773v52.267a23.773,23.773,0,0,1-23.773,23.773" transform="translate(-458.688 -113.011)" fill="#fff"/>
          <path id="Rectángulo_35134" data-name="Rectángulo 35134" d="M21.522-2.68H129.848a24.229,24.229,0,0,1,24.2,24.2V73.789a24.229,24.229,0,0,1-24.2,24.2H21.522a24.229,24.229,0,0,1-24.2-24.2V21.522A24.229,24.229,0,0,1,21.522-2.68ZM129.848,97.133a23.37,23.37,0,0,0,23.344-23.344V21.522A23.37,23.37,0,0,0,129.848-1.822H21.522A23.37,23.37,0,0,0-1.822,21.522V73.789A23.37,23.37,0,0,0,21.522,97.133Z" transform="translate(89.613 23.775)" fill="#31313c"/>
          <rect id="Rectángulo_35135" data-name="Rectángulo 35135" width="61.636" height="64.597" transform="translate(172.794 14.485) rotate(-10.021)" fill="#80a2a1"/>
          <path id="Trazado_153002" data-name="Trazado 153002" d="M727.9,69.21c.684-4.785-2.279-18.458-2.734-19.6,10.12-1.18,21.088-2.161,32.815-2.963a40.636,40.636,0,0,1,4.1,12.762,43.215,43.215,0,0,1,.228,9.571Z" transform="translate(-609.145 -39.187)" fill="#fd9827"/>
          <path id="Trazado_153003" data-name="Trazado 153003" d="M642.54,269.957H534.214a23.773,23.773,0,0,1-23.773-23.773V193.918a23.773,23.773,0,0,1,23.773-23.773H642.54a23.773,23.773,0,0,1,23.773,23.773v52.267a23.773,23.773,0,0,1-23.773,23.773" transform="translate(-428.776 -142.924)" fill="#fff"/>
          <path id="Rectángulo_35136" data-name="Rectángulo 35136" d="M21.522-2.68H129.848a24.229,24.229,0,0,1,24.2,24.2V73.789a24.229,24.229,0,0,1-24.2,24.2H21.522a24.229,24.229,0,0,1-24.2-24.2V21.522A24.229,24.229,0,0,1,21.522-2.68ZM129.848,97.132a23.37,23.37,0,0,0,23.344-23.344V21.522A23.37,23.37,0,0,0,129.848-1.822H21.522A23.37,23.37,0,0,0-1.822,21.522V73.788A23.37,23.37,0,0,0,21.522,97.132Z" transform="translate(83.916 29.472)" fill="#31313c"/>
          <rect id="Rectángulo_35137" data-name="Rectángulo 35137" width="34.182" height="42.044" transform="translate(199.993 108.871)" fill="#eef2f1"/>
          <rect id="Rectángulo_35138" data-name="Rectángulo 35138" width="42.813" height="43.582" transform="matrix(0.978, -0.208, 0.208, 0.978, 39.11, 32.35)" fill="#fd9827"/>
          <path id="Trazado_153004" data-name="Trazado 153004" d="M606.931,305.566H498.6a23.773,23.773,0,0,1-23.773-23.773V229.527A23.773,23.773,0,0,1,498.6,205.754H606.931A23.773,23.773,0,0,1,630.7,229.527v52.267a23.773,23.773,0,0,1-23.773,23.773" transform="translate(-398.864 -172.836)" fill="#fff"/>
          <path id="Rectángulo_35139" data-name="Rectángulo 35139" d="M21.522-2.68H129.848a24.229,24.229,0,0,1,24.2,24.2V73.788a24.229,24.229,0,0,1-24.2,24.2H21.522a24.229,24.229,0,0,1-24.2-24.2V21.522A24.229,24.229,0,0,1,21.522-2.68ZM129.848,97.132a23.37,23.37,0,0,0,23.344-23.344V21.522A23.37,23.37,0,0,0,129.848-1.822H21.522A23.37,23.37,0,0,0-1.822,21.522V73.788A23.37,23.37,0,0,0,21.522,97.132Z" transform="translate(78.219 35.169)" fill="#31313c"/>
          <path id="Trazado_153005" data-name="Trazado 153005" d="M571.322,341.174H463A23.773,23.773,0,0,1,439.223,317.4V265.135A23.773,23.773,0,0,1,463,241.362H571.322a23.773,23.773,0,0,1,23.773,23.773V317.4a23.773,23.773,0,0,1-23.773,23.773" transform="translate(-368.952 -202.747)" fill="#fff"/>
          <path id="Rectángulo_35140" data-name="Rectángulo 35140" d="M21.522-2.68H129.848a24.229,24.229,0,0,1,24.2,24.2V73.789a24.229,24.229,0,0,1-24.2,24.2H21.522a24.229,24.229,0,0,1-24.2-24.2V21.522A24.229,24.229,0,0,1,21.522-2.68ZM129.848,97.132a23.37,23.37,0,0,0,23.344-23.344V21.522A23.37,23.37,0,0,0,129.848-1.822H21.522A23.37,23.37,0,0,0-1.822,21.522V73.788A23.37,23.37,0,0,0,21.522,97.132Z" transform="translate(72.522 40.866)" fill="#31313c"/>
          <rect id="Rectángulo_35141" data-name="Rectángulo 35141" width="50.94" height="22.124" transform="translate(136.028 33.862) rotate(-3.758)" fill="#fdb768"/>
          <path id="Trazado_153006" data-name="Trazado 153006" d="M9.186,391.682H71.825V377.5H9.186a7.093,7.093,0,1,0,0,14.186" transform="translate(-1.758 -317.101)" fill="#31313c"/>
          <path id="Trazado_153007" data-name="Trazado 153007" d="M9.186,428.922a7.093,7.093,0,0,1-7.093-7.093v79.817a7.093,7.093,0,0,0,7.093,7.093H71.825V428.922Z" transform="translate(-1.758 -354.341)" fill="#f5e8df"/>
          <path id="Trazado_153008" data-name="Trazado 153008" d="M10.931,545.783h-.014a.322.322,0,0,1-.308-.308l-.389-9.516-.339,6.1a.322.322,0,0,1-.627.081l-.589-1.821H7.514a1.578,1.578,0,0,1-1.229-.623l-.08-.1c-.177-.226-.329-.421-.458-.421H5.61a1.889,1.889,0,0,0-1.153.279c-.234.174-.56.054-.877-.1-.269-.132-.581-.32-.883-.5-.194-.116-.378-.226-.532-.311a1.572,1.572,0,0,0-.282-.134.322.322,0,0,1-.242-.133L0,535.987l.522-.375L2.091,537.8a5.7,5.7,0,0,1,.936.5c.248.149.5.3.728.42a2.063,2.063,0,0,0,.387.17,2.663,2.663,0,0,1,1.542-.357h.062c.442,0,.707.34.964.668l.078.1a.94.94,0,0,0,.725.38H8.9a.322.322,0,0,1,.306.223l.13.4.614-11.037a.322.322,0,0,1,.321-.3h0a.322.322,0,0,1,.319.309l.5,12.308.2-1.617a.322.322,0,0,1,.319-.282h1.979a1.1,1.1,0,0,0,.493-.117,1.3,1.3,0,0,0,.427-.344,10.866,10.866,0,0,1,.829-.916,1.635,1.635,0,0,1,.93-.566.709.709,0,0,1,.5.2,1.935,1.935,0,0,1,.331.386,6.127,6.127,0,0,1,.5.938.65.65,0,0,0,.568.425H20.6v.643H18.174a1.182,1.182,0,0,1-.692-.227,1.422,1.422,0,0,1-.464-.579c-.42-.941-.67-1.11-.72-1.136-.066.021-.4.173-1.286,1.246a1.843,1.843,0,0,1-1.417.7H11.9l-.65,5.18A.322.322,0,0,1,10.931,545.783Z" transform="translate(0 -444.332)" fill="#e4a2a0"/>
          <path id="Trazado_153009" data-name="Trazado 153009" d="M137.013,545.783H137a.322.322,0,0,1-.308-.308l-.389-9.517-.339,6.1a.322.322,0,0,1-.627.081l-.589-1.821H133.6a1.578,1.578,0,0,1-1.229-.623c-.381-.481-.628-.609-.714-.609-.034,0-.362.024-1.469.845a1.908,1.908,0,0,1-1.142.387h-2.459v-.643h2.459a1.27,1.27,0,0,0,.759-.26,10.6,10.6,0,0,1,.9-.61,2.052,2.052,0,0,1,.95-.362c.364,0,.762.279,1.217.852a.94.94,0,0,0,.725.38h1.385a.322.322,0,0,1,.306.223l.129.4.614-11.037a.322.322,0,0,1,.642,0l.5,12.309.2-1.618a.322.322,0,0,1,.319-.282h1.979a1.1,1.1,0,0,0,.493-.117,1.3,1.3,0,0,0,.427-.344,10.862,10.862,0,0,1,.83-.916,1.635,1.635,0,0,1,.93-.566.709.709,0,0,1,.5.2,1.935,1.935,0,0,1,.331.386,6.146,6.146,0,0,1,.5.937.65.65,0,0,0,.568.425h2.427v.643h-2.427a1.182,1.182,0,0,1-.692-.227,1.422,1.422,0,0,1-.464-.579c-.42-.941-.67-1.11-.72-1.136-.066.021-.405.173-1.286,1.246a1.842,1.842,0,0,1-1.417.7h-1.7l-.65,5.18A.322.322,0,0,1,137.013,545.783Z" transform="translate(-106.332 -444.332)" fill="#e4a2a0"/>
          <path id="Trazado_153010" data-name="Trazado 153010" d="M260.457,545.783h-.014a.322.322,0,0,1-.308-.308l-.389-9.517-.339,6.1a.322.322,0,0,1-.627.081l-.589-1.821H257.04a1.578,1.578,0,0,1-1.229-.623c-.381-.481-.628-.609-.714-.609-.034,0-.362.024-1.469.845a1.907,1.907,0,0,1-1.142.387h-2.458v-.643h2.458a1.27,1.27,0,0,0,.759-.26,10.618,10.618,0,0,1,.9-.61,2.052,2.052,0,0,1,.95-.362c.364,0,.762.279,1.217.852a.94.94,0,0,0,.725.38h1.385a.322.322,0,0,1,.306.223l.13.4.614-11.037a.322.322,0,0,1,.321-.3h0a.322.322,0,0,1,.319.309l.5,12.308.2-1.618a.322.322,0,0,1,.319-.282h1.979a1.1,1.1,0,0,0,.493-.117,1.3,1.3,0,0,0,.427-.344,10.866,10.866,0,0,1,.829-.916,1.635,1.635,0,0,1,.93-.566.709.709,0,0,1,.5.2,1.932,1.932,0,0,1,.331.386,6.136,6.136,0,0,1,.5.937.65.65,0,0,0,.568.425h2.427v.643H267.7a1.183,1.183,0,0,1-.692-.227,1.421,1.421,0,0,1-.464-.579c-.42-.94-.67-1.11-.72-1.136-.066.021-.4.173-1.286,1.246a1.842,1.842,0,0,1-1.417.7h-1.7l-.65,5.18A.322.322,0,0,1,260.457,545.783Z" transform="translate(-210.026 -444.332)" fill="#e4a2a0"/>
          <path id="Trazado_153011" data-name="Trazado 153011" d="M10.931,741.276h-.014a.322.322,0,0,1-.308-.308l-.389-9.517-.339,6.1a.322.322,0,0,1-.627.081l-.589-1.821H7.514a1.578,1.578,0,0,1-1.229-.623l-.08-.1c-.177-.226-.329-.421-.458-.421H5.61a1.889,1.889,0,0,0-1.153.279c-.234.174-.56.054-.877-.1-.269-.132-.581-.319-.883-.5-.194-.116-.378-.226-.532-.311a1.585,1.585,0,0,0-.282-.134.322.322,0,0,1-.242-.133L0,731.481l.522-.375,1.569,2.184a5.709,5.709,0,0,1,.936.5c.248.149.5.3.728.42a2.075,2.075,0,0,0,.387.17,2.664,2.664,0,0,1,1.542-.357h.062c.442,0,.707.34.964.668l.078.1a.94.94,0,0,0,.725.38H8.9a.322.322,0,0,1,.306.223l.13.4.614-11.037a.322.322,0,0,1,.642,0l.5,12.308.2-1.617a.322.322,0,0,1,.319-.282h1.979a1.1,1.1,0,0,0,.493-.117,1.3,1.3,0,0,0,.427-.344,10.876,10.876,0,0,1,.829-.916,1.634,1.634,0,0,1,.93-.566.71.71,0,0,1,.5.2,1.938,1.938,0,0,1,.331.386,6.13,6.13,0,0,1,.5.938.65.65,0,0,0,.568.425H20.6v.643H18.174a1.182,1.182,0,0,1-.692-.227,1.421,1.421,0,0,1-.464-.579c-.42-.941-.67-1.11-.72-1.136-.066.021-.4.173-1.286,1.246a1.842,1.842,0,0,1-1.417.7H11.9l-.65,5.18A.322.322,0,0,1,10.931,741.276Z" transform="translate(0 -608.549)" fill="#e4a2a0"/>
          <path id="Trazado_153012" data-name="Trazado 153012" d="M137.013,741.276H137a.322.322,0,0,1-.308-.308l-.389-9.517-.339,6.1a.322.322,0,0,1-.627.081l-.589-1.821H133.6a1.578,1.578,0,0,1-1.229-.623c-.381-.481-.628-.609-.714-.609a4.066,4.066,0,0,0-1.469.845,1.91,1.91,0,0,1-1.142.387h-2.459v-.643h2.459a1.27,1.27,0,0,0,.759-.26,10.6,10.6,0,0,1,.9-.61,2.052,2.052,0,0,1,.95-.362c.364,0,.762.279,1.217.852a.94.94,0,0,0,.725.38h1.385a.322.322,0,0,1,.306.223l.129.4.614-11.037a.322.322,0,0,1,.321-.3h0a.322.322,0,0,1,.319.309l.5,12.308.2-1.618a.322.322,0,0,1,.319-.282h1.979a1.1,1.1,0,0,0,.493-.117,1.3,1.3,0,0,0,.427-.344,10.862,10.862,0,0,1,.83-.916,1.634,1.634,0,0,1,.93-.566.71.71,0,0,1,.5.2,1.937,1.937,0,0,1,.331.386,6.154,6.154,0,0,1,.5.937.65.65,0,0,0,.568.425h2.427v.643h-2.427a1.182,1.182,0,0,1-.692-.227,1.421,1.421,0,0,1-.464-.579c-.42-.941-.67-1.11-.72-1.136-.066.021-.405.173-1.286,1.246a1.842,1.842,0,0,1-1.417.7h-1.7l-.65,5.18A.322.322,0,0,1,137.013,741.276Z" transform="translate(-106.332 -608.549)" fill="#e4a2a0"/>
          <path id="Trazado_153013" data-name="Trazado 153013" d="M260.457,741.276h-.014a.322.322,0,0,1-.308-.308l-.389-9.517-.339,6.1a.322.322,0,0,1-.627.081l-.589-1.821H257.04a1.578,1.578,0,0,1-1.229-.623c-.381-.481-.628-.609-.714-.609-.034,0-.362.024-1.469.845a1.909,1.909,0,0,1-1.142.387h-2.458v-.643h2.458a1.27,1.27,0,0,0,.759-.26,10.615,10.615,0,0,1,.9-.61,2.052,2.052,0,0,1,.95-.362c.364,0,.762.279,1.217.852a.94.94,0,0,0,.725.38h1.385a.322.322,0,0,1,.306.223l.13.4.614-11.037a.322.322,0,0,1,.321-.3h0a.322.322,0,0,1,.319.309l.5,12.308.2-1.618a.322.322,0,0,1,.319-.282h1.979a1.1,1.1,0,0,0,.493-.117,1.3,1.3,0,0,0,.427-.344,10.878,10.878,0,0,1,.829-.916,1.634,1.634,0,0,1,.93-.566.709.709,0,0,1,.5.2,1.936,1.936,0,0,1,.331.386,6.14,6.14,0,0,1,.5.937.65.65,0,0,0,.568.425h2.427v.643H267.7a1.183,1.183,0,0,1-.692-.227,1.42,1.42,0,0,1-.464-.579c-.42-.94-.67-1.11-.72-1.136-.066.021-.405.173-1.286,1.246a1.842,1.842,0,0,1-1.417.7h-1.7l-.65,5.18A.322.322,0,0,1,260.457,741.276Z" transform="translate(-210.026 -608.549)" fill="#e4a2a0"/>
          <rect id="Rectángulo_35142" data-name="Rectángulo 35142" width="24.555" height="31.106" transform="translate(216.23 83.747)" fill="#fdb768"/>
          <path id="Trazado_153014" data-name="Trazado 153014" d="M535.713,376.783H427.387a23.773,23.773,0,0,1-23.773-23.773V300.744a23.773,23.773,0,0,1,23.773-23.773H535.713a23.773,23.773,0,0,1,23.773,23.773v52.267a23.773,23.773,0,0,1-23.773,23.773" transform="translate(-339.04 -232.659)" fill="#fff"/>
          <path id="Rectángulo_35143" data-name="Rectángulo 35143" d="M21.522-2.68H129.848a24.229,24.229,0,0,1,24.2,24.2V73.789a24.229,24.229,0,0,1-24.2,24.2H21.522a24.229,24.229,0,0,1-24.2-24.2V21.522A24.229,24.229,0,0,1,21.522-2.68ZM129.848,97.132a23.37,23.37,0,0,0,23.344-23.344V21.522A23.37,23.37,0,0,0,129.848-1.822H21.522A23.37,23.37,0,0,0-1.822,21.522V73.788A23.37,23.37,0,0,0,21.522,97.132Z" transform="translate(66.825 46.563)" fill="#31313c"/>
          <rect id="Rectángulo_35144" data-name="Rectángulo 35144" width="60.027" height="48.539" transform="translate(153.334 118.1)" fill="#31313c"/>
          <path id="Trazado_153015" data-name="Trazado 153015" d="M500.1,412.393H391.778a23.773,23.773,0,0,1-23.773-23.773V336.353a23.773,23.773,0,0,1,23.773-23.773H500.1a23.773,23.773,0,0,1,23.773,23.773V388.62A23.773,23.773,0,0,1,500.1,412.393" transform="translate(-309.128 -262.571)" fill="#fff"/>
          <path id="Rectángulo_35145" data-name="Rectángulo 35145" d="M21.522-2.68H129.848a24.229,24.229,0,0,1,24.2,24.2V73.789a24.229,24.229,0,0,1-24.2,24.2H21.522a24.229,24.229,0,0,1-24.2-24.2V21.522A24.229,24.229,0,0,1,21.522-2.68ZM129.848,97.133a23.37,23.37,0,0,0,23.344-23.344V21.522A23.37,23.37,0,0,0,129.848-1.822H21.522A23.37,23.37,0,0,0-1.822,21.522V73.789A23.37,23.37,0,0,0,21.522,97.133Z" transform="translate(61.128 52.26)" fill="#31313c"/>
          <rect id="Rectángulo_35146" data-name="Rectángulo 35146" width="21.437" height="22.124" transform="translate(100.294 36.157)" fill="#31313c"/>
          <rect id="Rectángulo_35147" data-name="Rectángulo 35147" width="26.182" height="31.619" transform="translate(204.095 72.637)" fill="#e4a2a0"/>
          <path id="Trazado_153016" data-name="Trazado 153016" d="M464.495,448H356.169A23.773,23.773,0,0,1,332.4,424.229V371.962a23.773,23.773,0,0,1,23.773-23.773H464.495a23.773,23.773,0,0,1,23.773,23.773v52.267A23.773,23.773,0,0,1,464.495,448" transform="translate(-279.216 -292.483)" fill="#fff"/>
          <path id="Rectángulo_35148" data-name="Rectángulo 35148" d="M21.522-2.68H129.848a24.229,24.229,0,0,1,24.2,24.2V73.789a24.229,24.229,0,0,1-24.2,24.2H21.522a24.229,24.229,0,0,1-24.2-24.2V21.522A24.229,24.229,0,0,1,21.522-2.68ZM129.848,97.132a23.37,23.37,0,0,0,23.344-23.344V21.522A23.37,23.37,0,0,0,129.848-1.822H21.522A23.37,23.37,0,0,0-1.822,21.522V73.788A23.37,23.37,0,0,0,21.522,97.132Z" transform="translate(55.431 57.957)" fill="#31313c"/>
          <rect id="Rectángulo_35149" data-name="Rectángulo 35149" width="40.127" height="49.411" transform="translate(66.665 80.907)" fill="#eef2f1"/>
        </g>
      </g>
      <g id="Grupo_158121" data-name="Grupo 158121" transform="translate(66.665 80.91)">
        <g id="Grupo_158120" data-name="Grupo 158120" clip-path="url(#clip-path-2)">
          <path id="Trazado_153017" data-name="Trazado 153017" d="M472.34,532.139s1.086-2.177,4.453-1.835a9.39,9.39,0,0,1,7.142,4.884,13.641,13.641,0,0,1,.972,5.88l.073,4.8s1.936,5.13,2.894,8.681.78,10.126.074,11.5-25.543.225-25.543.225-1.167-3.988,1.058-6.012,2.42-2.988,1.929-4.6c-.526-1.728-1.508-3.075-1.41-6.158a9.258,9.258,0,0,1,2.564-5.53s-1.682-4.553-.634-7.455a6.315,6.315,0,0,1,3.818-4.154,6.4,6.4,0,0,1,2.609-.23" transform="translate(-454.834 -526.338)" fill="#3a4e5b"/>
          <path id="Trazado_153018" data-name="Trazado 153018" d="M332.154,760.369h53.982c1.472,0,2.963.066,4.45.073a66.245,66.245,0,0,0-12.1-20.269c-5.631-6.526-17.921-9-17.921-9s-9.1-.721-14.871.389-11,3.633-17.048,7.988-10.834,13.98-12.09,20.395c-.029.151-.056.3-.083.459,5.206.451,10.466-.033,15.681-.033" transform="translate(-332.506 -694.905)" fill="#e4a2a0"/>
          <path id="Trazado_153019" data-name="Trazado 153019" d="M502.51,558.94c-1.007-.725-1.631.688-1.729,1.223a1.392,1.392,0,0,1-.549.787,13.427,13.427,0,0,0-.43-3.8c-.409-1.3-3.088-3.549-6.358-3.7s-3.872-2.174-3.872-2.174a7.654,7.654,0,0,1-.842,3.017c-.78,1.413-2.093,1.175-2.786,2.674a7.915,7.915,0,0,0-.754,2.291l-.26-1.718s-3.084-.228-2.53,3.17a4.021,4.021,0,0,0,3.63,3.549l.363.5s.436,3.742.436,6.3a56.679,56.679,0,0,1-.538,8.438,1.616,1.616,0,0,1-1.273,1.146s.933,8.033,7.907,8.181,6.964-8.57,6.964-8.57-.713-.153-.9-.5a40.135,40.135,0,0,1-.347-6.07c-.015-2.329.388-6.683.388-6.683a13.466,13.466,0,0,0,.7-2.256c.955.037,2.7-.177,3.357-1.488.767-1.528.432-3.589-.574-4.314" transform="translate(-471.831 -543.982)" fill="#f7e5dd"/>
          <path id="Trazado_153020" data-name="Trazado 153020" d="M559.76,584.026a.366.366,0,0,1-.176-.046,3.958,3.958,0,0,0-2.926-.126.369.369,0,0,1-.464-.164.307.307,0,0,1,.12-.44,4.643,4.643,0,0,1,3.553.158.354.354,0,0,1,.167.455.3.3,0,0,1-.273.163" transform="translate(-533.834 -570.604)" fill="#2f3045"/>
          <path id="Trazado_153021" data-name="Trazado 153021" d="M517.75,584.574a.364.364,0,0,1-.128-.013,4.654,4.654,0,0,0-3.255.167.367.367,0,0,1-.476-.122.307.307,0,0,1,.08-.45,5.3,5.3,0,0,1,3.784-.227.366.366,0,0,1,.269.411.3.3,0,0,1-.274.233" transform="translate(-498.285 -571.217)" fill="#2f3045"/>
          <path id="Trazado_153022" data-name="Trazado 153022" d="M525.217,602.012c-.227-.043-.328-.235-.3-.569s.157-.483.384-.439.328.235.3.569-.157.482-.384.439" transform="translate(-507.596 -585.75)" fill="#100c27"/>
          <path id="Trazado_153023" data-name="Trazado 153023" d="M566.439,601.993c-.227-.042-.33-.233-.3-.567s.154-.483.382-.442.33.233.3.568-.154.483-.381.442" transform="translate(-542.22 -585.735)" fill="#100c27"/>
          <path id="Trazado_153024" data-name="Trazado 153024" d="M549.625,600.128a.214.214,0,0,1-.1-.4l1.325-.728c-.169-.186-.431-.478-.691-.786s-.463-.564-.612-.773c-.275-.385-.316-.54-.319-.64a.214.214,0,0,1,.428-.018c.005.028.069.256.85,1.177.42.5.839.944.843.949a.214.214,0,0,1-.054.334l-1.565.86A.213.213,0,0,1,549.625,600.128Z" transform="translate(-528.02 -582.039)" fill="#f3a8a3"/>
          <path id="Trazado_153025" data-name="Trazado 153025" d="M570.824,615.8c-.67-.118-.972-.661-.9-1.609s.455-1.371,1.124-1.253.972.661.9,1.609-.455,1.371-1.124,1.253" transform="translate(-545.401 -595.765)" fill="#f3a8a3"/>
          <path id="Trazado_153026" data-name="Trazado 153026" d="M515.9,618c-.657.068-1.095-.385-1.3-1.344s.028-1.482.685-1.55,1.095.385,1.3,1.344-.028,1.482-.685,1.55" transform="translate(-498.876 -597.596)" fill="#f3a8a3"/>
          <path id="Trazado_153027" data-name="Trazado 153027" d="M589.924,614.644a.214.214,0,0,1-.21-.259l.011-.052a18.029,18.029,0,0,0,.488-3.7.215.215,0,0,1,.214-.212h0a.214.214,0,0,1,.212.217,18.4,18.4,0,0,1-.5,3.782l-.011.053A.214.214,0,0,1,589.924,614.644Z" transform="translate(-562.027 -593.668)" fill="#f3a8a3"/>
          <path id="Trazado_153028" data-name="Trazado 153028" d="M506.87,609.409q-.153,0-.306,0a8.652,8.652,0,0,1-1.916-.266,6.471,6.471,0,0,1-1.837-.783,6.612,6.612,0,0,1-2.152-2.374,13.653,13.653,0,0,1-.976-2.225c-.041-.115-.076-.214-.107-.294a15.18,15.18,0,0,1-.542-2.326,23.254,23.254,0,0,1-.337-3.061.214.214,0,1,1,.429-.011,22.139,22.139,0,0,0,.331,3,15.057,15.057,0,0,0,.52,2.246c.032.084.068.185.11.3a13.071,13.071,0,0,0,.944,2.156,6.19,6.19,0,0,0,2.008,2.224,6.047,6.047,0,0,0,1.716.73,8.221,8.221,0,0,0,1.821.252,9.791,9.791,0,0,0,1.706-.1,8.056,8.056,0,0,0,1.364-.313,5.314,5.314,0,0,0,1.745-1.025,4.925,4.925,0,0,0,1.1-1.286.214.214,0,1,1,.377.2,5.361,5.361,0,0,1-1.2,1.407,5.862,5.862,0,0,1-1.888,1.105,8.48,8.48,0,0,1-1.438.331A10.251,10.251,0,0,1,506.87,609.409Z" transform="translate(-485.577 -583.112)" fill="#f3a8a3"/>
          <path id="Trazado_153029" data-name="Trazado 153029" d="M490.561,603.479a.215.215,0,0,1-.206-.157c0-.005-.153-.546-.375-1.162a5.78,5.78,0,0,0-.785-1.619.214.214,0,0,1,.324-.281,6.031,6.031,0,0,1,.865,1.757c.227.63.377,1.166.384,1.189a.214.214,0,0,1-.149.264A.218.218,0,0,1,490.561,603.479Z" transform="translate(-477.549 -585.071)" fill="#f3a8a3"/>
          <path id="Trazado_153030" data-name="Trazado 153030" d="M596.008,609.036a.217.217,0,0,1-.057-.008.214.214,0,0,1-.15-.263,10.721,10.721,0,0,1,.586-1.423,4.908,4.908,0,0,1,.938-1.438.214.214,0,0,1,.268.334,4.454,4.454,0,0,0-.821,1.291,10.492,10.492,0,0,0-.558,1.349A.214.214,0,0,1,596.008,609.036Z" transform="translate(-567.138 -589.834)" fill="#f3a8a3"/>
          <path id="Trazado_153031" data-name="Trazado 153031" d="M534.873,628.063c.178-.8,1.427-.49,2.26-.381s1.623-.646,2.422.051c.626.547-.593,1.649-2.052,1.653-1.408,0-2.781-.638-2.63-1.323" transform="translate(-515.954 -607.958)" fill="#fff"/>
          <path id="Trazado_153032-2" data-name="Trazado 153032" d="M537.655,626.093a1.341,1.341,0,0,1,.916.353.677.677,0,0,1,.19.783,1.822,1.822,0,0,1-.868.863,3.257,3.257,0,0,1-1.515.383h-.013a4.958,4.958,0,0,1-1.563-.253,2.288,2.288,0,0,1-1.081-.665.777.777,0,0,1-.182-.665.8.8,0,0,1,.444-.569,1.58,1.58,0,0,1,.7-.132,7.052,7.052,0,0,1,1.016.1c.119.018.231.035.337.049a1.143,1.143,0,0,0,.144.009,2.79,2.79,0,0,0,.7-.124A3.062,3.062,0,0,1,537.655,626.093Zm-1.29,1.952h.012a2.819,2.819,0,0,0,1.312-.331,1.431,1.431,0,0,0,.67-.636.25.25,0,0,0-.07-.31.919.919,0,0,0-.634-.246,2.709,2.709,0,0,0-.669.121,3.148,3.148,0,0,1-.806.138,1.572,1.572,0,0,1-.2-.013c-.11-.014-.225-.032-.346-.05a6.621,6.621,0,0,0-.951-.1c-.645,0-.7.256-.726.365a.357.357,0,0,0,.1.3,2.007,2.007,0,0,0,.886.527A4.515,4.515,0,0,0,536.364,628.046Z" transform="translate(-514.828 -606.832)" fill="#f3a8a3"/>
        </g>
      </g>
      <g id="Grupo_158123" data-name="Grupo 158123" transform="translate(0 0.003)">
        <g id="Grupo_158122" data-name="Grupo 158122" clip-path="url(#clip-path-3)">
          <rect id="Rectángulo_35152" data-name="Rectángulo 35152" width="43.241" height="7.691" transform="translate(112.375 80.907)" fill="#31313c"/>
          <path id="Rectángulo_35153" data-name="Rectángulo 35153" d="M-2.251-2.68h21.62a.429.429,0,0,1,.429.429V5.44a.429.429,0,0,1-.429.429H-2.251A.429.429,0,0,1-2.68,5.44V-2.251A.429.429,0,0,1-2.251-2.68Zm21.192.858H-1.822V5.011H18.94Z" transform="translate(114.627 96.222)" fill="#ecc9c6"/>
          <rect id="Rectángulo_35154" data-name="Rectángulo 35154" width="28.67" height="7.691" transform="translate(158.521 80.907)" fill="#31313c"/>
          <rect id="Rectángulo_35155" data-name="Rectángulo 35155" width="28.878" height="7.691" transform="translate(112.375 122.627)" fill="#31313c"/>
          <path id="Rectángulo_35156" data-name="Rectángulo 35156" d="M-2.251-2.68H39.4a.429.429,0,0,1,.429.429V5.44a.429.429,0,0,1-.429.429H-2.251A.429.429,0,0,1-2.68,5.44V-2.251A.429.429,0,0,1-2.251-2.68Zm41.218.858H-1.822V5.011H38.967Z" transform="translate(147.796 124.878)" fill="#c7d5d1"/>
          <path id="Línea_162" data-name="Línea 162" d="M72.565-1.822H-2.251a.429.429,0,0,1-.429-.429.429.429,0,0,1,.429-.429H72.565a.429.429,0,0,1,.429.429A.429.429,0,0,1,72.565-1.822Z" transform="translate(114.626 109.647)" fill="#2f3045"/>
          <path id="Línea_163" data-name="Línea 163" d="M72.565-1.822H-2.251a.429.429,0,0,1-.429-.429.429.429,0,0,1,.429-.429H72.565a.429.429,0,0,1,.429.429A.429.429,0,0,1,72.565-1.822Z" transform="translate(114.626 114.604)" fill="#2f3045"/>
          <path id="Línea_164" data-name="Línea 164" d="M72.565-1.822H-2.251a.429.429,0,0,1-.429-.429.429.429,0,0,1,.429-.429H72.565a.429.429,0,0,1,.429.429A.429.429,0,0,1,72.565-1.822Z" transform="translate(114.626 119.56)" fill="#2f3045"/>
        </g>
      </g>
    </g>
  </g>
</svg>
