<svg xmlns="http://www.w3.org/2000/svg" xmlns:xlink="http://www.w3.org/1999/xlink" width="77" height="77" viewBox="0 0 77 77">
  <defs>
    <clipPath id="clip-path">
      <rect id="Rectángulo_35731" data-name="Rectángulo 35731" width="51.837" height="51.707" fill="#31313c"/>
    </clipPath>
  </defs>
  <g id="Grupo_158267" data-name="Grupo 158267" transform="translate(-656.891 -1571.821)">
    <circle id="Elipse_4724" data-name="Elipse 4724" cx="38.5" cy="38.5" r="38.5" transform="translate(656.891 1571.821)" fill="#fd9827"/>
    <g id="Grupo_158953" data-name="Grupo 158953" transform="translate(668.891 1584.821)">
      <g id="Grupo_158953-2" data-name="Grupo 158953" clip-path="url(#clip-path)">
        <path id="Trazado_154538" data-name="Trazado 154538" d="M5.041,21.536c-.967-.96-1.909-1.9-2.857-2.83-.327-.322-.573-.658-.358-1.141a.962.962,0,0,1,1.027-.527c3.292.006,6.585,0,9.877,0,.81,0,1.1.295,1.1,1.107,0,3.293,0,6.586,0,9.879a.961.961,0,0,1-.53,1.025c-.483.213-.819-.035-1.141-.361-.784-.794-1.575-1.58-2.366-2.367-.124-.124-.257-.238-.518-.477C8.623,27.207,7.9,28.454,7.39,29.78A19.864,19.864,0,0,0,16.7,54.5c.934.488,1.035.8.561,1.757-.545,1.094-1.085,2.19-1.636,3.28-.342.678-.75.831-1.4.484C6.494,55.911,1.777,49.558.359,40.909A25.059,25.059,0,0,1,4.854,21.835c.051-.073.094-.15.187-.3m-.373-2.742c.647.628,1.192,1.146,1.726,1.676.864.856.862,1.015.14,1.995A23.6,23.6,0,0,0,1.89,39.474,23.721,23.721,0,0,0,9.619,54.766a22.942,22.942,0,0,0,4.764,3.39l1.147-2.3c-.191-.115-.342-.209-.5-.3a21.613,21.613,0,0,1-6.952-30.8c.934-1.371,1.2-1.4,2.367-.228l1.63,1.63V18.794Z" transform="translate(0 -11.005)" fill="#31313c"/>
        <path id="Trazado_154539" data-name="Trazado 154539" d="M109.393,46.017c.966.965,1.892,1.895,2.824,2.818.321.318.592.647.395,1.136-.205.509-.636.56-1.114.559-3.238-.007-6.476,0-9.714,0-.922,0-1.193-.268-1.193-1.182q0-4.885,0-9.771c0-.462.067-.867.547-1.068s.818.059,1.137.382c.9.908,1.8,1.809,2.753,2.768.155-.228.288-.408.405-.6a19.892,19.892,0,0,0-7.765-28.026c-.846-.439-.96-.784-.537-1.638.558-1.127,1.114-2.255,1.68-3.378.339-.671.749-.818,1.4-.467,8.007,4.289,12.754,10.912,13.966,19.922a25.145,25.145,0,0,1-4.555,18.188c-.07.1-.134.208-.229.357M98.9,11.7c.205.128.384.244.566.353A21.6,21.6,0,0,1,106.073,43.2c-.6.846-1.058.893-1.778.157-.62-.634-1.221-1.286-1.83-1.93l-.107.106v7.234h7.236l.08-.111c-.581-.552-1.168-1.1-1.74-1.66-.736-.722-.741-.953-.121-1.789a23.431,23.431,0,0,0,4.656-17.518A23.729,23.729,0,0,0,100.615,9.725c-.177-.107-.369-.192-.582-.3L98.9,11.7" transform="translate(-62.577 -4.756)" fill="#31313c"/>
        <path id="Trazado_154540" data-name="Trazado 154540" d="M43.942,46.357q0-5.478,0-10.955a3.467,3.467,0,0,1,3.738-3.732c3.543,0,7.086.006,10.628-.007a1.484,1.484,0,0,1,1.147.471q2.369,2.4,4.768,4.77a1.432,1.432,0,0,1,.449,1.1q-.014,9.687-.007,19.373a3.458,3.458,0,0,1-3.651,3.658q-6.69.006-13.38,0a3.463,3.463,0,0,1-3.692-3.671q0-5.5,0-11.009M57.759,33.4h-.594q-4.749,0-9.5,0a1.769,1.769,0,0,0-2,1.985q0,10.957,0,21.915A1.778,1.778,0,0,0,47.7,59.31H60.863c1.437,0,2.077-.637,2.077-2.069q0-9.014,0-18.028V38.58c-1.395,0-2.739,0-4.083,0-.8,0-1.1-.3-1.1-1.114,0-1.33,0-2.659,0-4.068m1.75,3.407h1.966l-1.966-2.023Z" transform="translate(-28.381 -20.45)" fill="#31313c"/>
        <path id="Trazado_154541" data-name="Trazado 154541" d="M57.081,4.928c.079,1.11-.13,1.344-.935,1.491q-1.612.3-3.213.653c-.714.158-1.069,0-1.279-.678q-.6-1.953-1.174-3.916A.82.82,0,0,1,51.1,1.32Q53.382.812,55.683.393a.826.826,0,0,1,.984.823c.159,1.337.3,2.676.415,3.712m-4.731-2.2.755,2.5,2.218-.462-.288-2.576-2.684.542" transform="translate(-32.567 -0.243)" fill="#31313c"/>
        <path id="Trazado_154542" data-name="Trazado 154542" d="M77.569,0c1.524.319,3.051.623,4.569.967a.79.79,0,0,1,.643,1.062c-.37,1.4-.771,2.8-1.188,4.189a.837.837,0,0,1-1.076.563c-1.18-.216-2.359-.436-3.539-.652a.846.846,0,0,1-.8-.964q.158-2.12.37-4.236C76.6.368,76.979.084,77.569,0m.623,1.886L77.967,4.48l2.226.4.7-2.49-2.7-.5" transform="translate(-49.199)" fill="#31313c"/>
        <path id="Trazado_154543" data-name="Trazado 154543" d="M77.157,129.045c-.077-1.086.143-1.34.9-1.48q1.638-.3,3.265-.663c.7-.155,1.059.008,1.271.695q.594,1.927,1.16,3.863c.183.626-.01,1.064-.626,1.2-1.52.342-3.049.644-4.582.923-.53.1-.9-.256-.97-.839-.159-1.337-.3-2.676-.414-3.7m1.76.171L79.2,131.8l2.69-.549-.757-2.484-2.216.45" transform="translate(-49.825 -81.929)" fill="#31313c"/>
        <path id="Trazado_154544" data-name="Trazado 154544" d="M58.086,129.162c-.1,1.158-.214,2.427-.334,3.7-.062.653-.437,1.011-1.076.906-1.5-.248-3-.532-4.486-.842a.82.82,0,0,1-.674-1.136c.363-1.35.751-2.693,1.149-4.033a.857.857,0,0,1,1.118-.651l3.539.652c.63.116.823.439.764,1.408m-1.758.237L54.1,129l-.7,2.5,2.695.5c.082-.9.157-1.716.237-2.589" transform="translate(-33.242 -82.074)" fill="#31313c"/>
        <rect id="Rectángulo_35721" data-name="Rectángulo 35721" width="8.586" height="1.655" transform="translate(20.78 19.889)" fill="#31313c"/>
        <rect id="Rectángulo_35722" data-name="Rectángulo 35722" width="8.567" height="1.663" transform="translate(19.04 26.795)" fill="#31313c"/>
        <rect id="Rectángulo_35723" data-name="Rectángulo 35723" width="6.84" height="1.665" transform="translate(25.965 23.348)" fill="#31313c"/>
        <rect id="Rectángulo_35724" data-name="Rectángulo 35724" width="6.84" height="1.663" transform="translate(19.041 30.249)" fill="#31313c"/>
        <rect id="Rectángulo_35725" data-name="Rectángulo 35725" width="5.113" height="1.662" transform="translate(19.059 23.35)" fill="#31313c"/>
        <rect id="Rectángulo_35726" data-name="Rectángulo 35726" width="3.386" height="1.662" transform="translate(19.04 14.702)" fill="#31313c"/>
        <rect id="Rectángulo_35727" data-name="Rectángulo 35727" width="3.396" height="1.661" transform="translate(29.402 26.805)" fill="#31313c"/>
        <rect id="Rectángulo_35728" data-name="Rectángulo 35728" width="3.294" height="1.677" transform="translate(27.784 30.252)" fill="#31313c"/>
        <rect id="Rectángulo_35729" data-name="Rectángulo 35729" width="3.291" height="1.674" transform="translate(28.649 33.709)" fill="#31313c"/>
        <rect id="Rectángulo_35730" data-name="Rectángulo 35730" width="1.679" height="1.641" transform="translate(31.141 19.902)" fill="#31313c"/>
      </g>
    </g>
  </g>
</svg>
