<svg xmlns="http://www.w3.org/2000/svg" xmlns:xlink="http://www.w3.org/1999/xlink" width="112" height="112" viewBox="0 0 112 112">
  <defs>
    <clipPath id="clip-path">
      <rect id="Rect치ngulo_35718" data-name="Rect치ngulo 35718" width="83.241" height="94.676" fill="#fd9827"/>
    </clipPath>
  </defs>
  <g id="Grupo_159333" data-name="Grupo 159333" transform="translate(-3960 4615)">
    <g id="Grupo_159329" data-name="Grupo 159329" transform="translate(3974 -4606)">
      <g id="Grupo_158949" data-name="Grupo 158949" clip-path="url(#clip-path)">
        <path id="Trazado_154533" data-name="Trazado 154533" d="M3.357,94.676C.881,93.832-.006,92.08,0,89.5Q.074,55.527.03,21.55a4.179,4.179,0,0,1,2.948-4.393,3.568,3.568,0,0,1,1-.166c2.681-.017,5.364-.057,8.042.018a1.989,1.989,0,0,1,1.363.838,1.382,1.382,0,0,1-.187,1.321,2.3,2.3,0,0,1-1.468.548c-2.249.056-4.5.024-6.749.024-1.838,0-2.173.33-2.173,2.129q0,33.977,0,67.953c0,1.7.376,2.081,2.041,2.081H50.7c1.624,0,2.028-.4,2.029-2q0-15.3,0-30.6v-1.05h-1.11q-15.116,0-30.232,0c-3.085,0-4.716-1.643-4.716-4.746q0-24.407,0-48.815C16.672,1.652,18.322,0,21.353,0Q41.647,0,61.94,0C64.916,0,66.595,1.666,66.6,4.62q0,6.425,0,12.85c0,.185.009.371-.006.555a1.4,1.4,0,0,1-1.339,1.384,1.366,1.366,0,0,1-1.415-1.393c-.036-1.263-.013-2.527-.013-3.791q0-4.807,0-9.615c0-1.372-.46-1.836-1.822-1.836q-20.385,0-40.771,0c-1.311,0-1.783.471-1.783,1.779q0,24.546,0,49.093c0,1.365.462,1.825,1.831,1.826q20.339,0,40.679,0c1.422,0,1.866-.45,1.866-1.885q0-14.7,0-29.4c0-1.605.4-2,2.03-2q3.651,0,7.3,0c1.093,0,1.726.5,1.753,1.341.028.881-.632,1.425-1.761,1.428-2.151.006-4.3,0-6.5,0v5.547h1.229c1.818,0,3.637-.011,5.455,0a1.394,1.394,0,1,1,.011,2.764c-2.212.015-4.425,0-6.692,0v5.548H67.5c1.911,0,3.821-.007,5.732,0,1.057.005,1.7.56,1.681,1.414-.02.823-.64,1.349-1.65,1.353-2.183.01-4.366,0-6.606,0v5.548h5.827c.308,0,.616-.011.924,0a1.39,1.39,0,1,1-.042,2.765c-1.88.017-3.76.005-5.64.005H66.582v5.547h5.673a11.808,11.808,0,0,1,1.385.019A1.3,1.3,0,0,1,74.9,56.84a1.309,1.309,0,0,1-1.217,1.387,4.873,4.873,0,0,1-.83.02h-17.3V63.8H72.8a6.242,6.242,0,0,1,.831.014,1.337,1.337,0,0,1,1.276,1.34,1.365,1.365,0,0,1-1.3,1.408,7.927,7.927,0,0,1-.831.01H55.551V75.26h.873q11.048,0,22.1,0c1.534,0,1.945-.422,1.946-1.992V13.451c0-1.645-.374-2.028-1.994-2.031-2.373,0-4.746,0-7.119,0a3.768,3.768,0,0,1-.827-.047A1.3,1.3,0,0,1,69.4,9.916a1.224,1.224,0,0,1,1.252-1.24c3.02-.02,6.043-.078,9.058.045a4,4,0,0,1,3.524,3.813c.02.307.011.616.011.925q0,29.862,0,59.724c0,3.271-1.593,4.852-4.889,4.852H55.563v8.321h.827q6.934,0,13.868,0c1.436,0,1.88-.444,1.887-1.866,0-.739-.02-1.48.007-2.218a1.391,1.391,0,0,1,1.357-1.457,1.373,1.373,0,0,1,1.4,1.412c.032,1.016.053,2.036-.009,3.05a4.129,4.129,0,0,1-4.2,3.847c-4.685.02-9.369.007-14.053.007H55.477c.322,2.711-.647,4.66-3.3,5.547Z" transform="translate(0 0)" fill="#fd9827"/>
        <path id="Trazado_154534" data-name="Trazado 154534" d="M47.678,54.315q-8.688,0-17.377,0c-1.6,0-2.012-.4-1.991-2.032.027-2.031-.031-4.073.164-6.09a7.97,7.97,0,0,1,4.819-6.733c1.468-.7,3.064-1.121,4.529-1.823a10.192,10.192,0,0,0,2.848-1.918c.775-.786.589-1.221-.268-1.939a10.493,10.493,0,0,1-4.141-7.66,45.574,45.574,0,0,1,.269-9.746c.97-5.546,6.278-9.175,12.157-8.849a11.4,11.4,0,0,1,10.481,10.1,53.4,53.4,0,0,1-.027,8.85,10.443,10.443,0,0,1-4.322,7.46c-.531.414-.681.852-.321,1.3a7.328,7.328,0,0,0,1.858,1.823A22.3,22.3,0,0,0,59.51,38.35c.687.269,1.384.516,2.061.81a8.725,8.725,0,0,1,5.554,8.4c.046,1.663.019,3.327.013,4.991-.005,1.29-.486,1.76-1.8,1.761q-8.827.006-17.654,0m-16.46-2.837H64.329c0-1.506.071-2.955-.015-4.393A5.909,5.909,0,0,0,60.3,41.618c-.8-.319-1.608-.618-2.419-.9-2.647-.934-5.236-1.936-6.155-4.825a33.72,33.72,0,0,1-4.046.46,32.8,32.8,0,0,1-3.976-.476c-.734,2.354-2.648,3.514-4.834,4.367-1.432.559-2.9,1.042-4.3,1.666a5.244,5.244,0,0,0-3.328,4.534c-.135,1.646-.027,3.312-.027,5.039m25.453-29.5-.115-.008c0-1.017.035-2.034-.005-3.049a8.871,8.871,0,0,0-7.78-8.609c-4.583-.462-8.795,2.329-9.576,6.815a35.352,35.352,0,0,0-.224,8.372A8.774,8.774,0,0,0,56.287,26.75a34.8,34.8,0,0,0,.385-4.771" transform="translate(-6.088 -1.614)" fill="#fd9827"/>
      </g>
    </g>
    <rect id="Rect치ngulo_35830" data-name="Rect치ngulo 35830" width="112" height="112" transform="translate(3960 -4615)" fill="none"/>
  </g>
</svg>
