<svg xmlns="http://www.w3.org/2000/svg" xmlns:xlink="http://www.w3.org/1999/xlink" width="77" height="77" viewBox="0 0 77 77">
  <defs>
    <clipPath id="clip-path">
      <rect id="Rectángulo_35732" data-name="Rectángulo 35732" width="42.27" height="48.359" fill="#31313c"/>
    </clipPath>
  </defs>
  <g id="Grupo_158265" data-name="Grupo 158265" transform="translate(-656.891 -1571.821)">
    <circle id="Elipse_4724" data-name="Elipse 4724" cx="38.5" cy="38.5" r="38.5" transform="translate(656.891 1571.821)" fill="#fd9827"/>
    <g id="Grupo_158954" data-name="Grupo 158954" transform="translate(673.891 1585.821)">
      <g id="Grupo_158954-2" data-name="Grupo 158954" clip-path="url(#clip-path)">
        <path id="Trazado_154545" data-name="Trazado 154545" d="M1.586,48.359A2.236,2.236,0,0,1,0,45.936Q.031,31.63.013,17.323a4.852,4.852,0,0,1,3.307-4.87c.279-.1.57-.159.911-.251V11.71c0-1.684,0-3.368,0-5.052a2.271,2.271,0,0,1,2.4-2.4c.6,0,1.191,0,1.849,0,0-.621,0-1.213,0-1.8A2.276,2.276,0,0,1,10.925.006Q21.03,0,31.133,0a1.249,1.249,0,0,1,.959.4c1.851,1.866,3.721,3.713,5.559,5.592a1.456,1.456,0,0,1,.371.9c.037,1.6.017,3.21.017,4.816v.524a5.072,5.072,0,0,1,2.448,1.111,4.916,4.916,0,0,1,1.769,3.907q.007,6.4,0,12.8a1.866,1.866,0,0,1-.007.236.708.708,0,0,1-.749.689.674.674,0,0,1-.655-.726c-.008-1.039-.005-2.077-.005-3.116q0-4.037,0-8.074v-.589H1.429v.513q0,13.527,0,27.054c0,.777.132.909.9.909h37.63c.743,0,.883-.138.883-.879q0-6.02,0-12.04a4.7,4.7,0,0,1,.013-.519.691.691,0,0,1,1.365-.077,2.681,2.681,0,0,1,.037.562c0,3.982-.018,7.964.013,11.945a2.233,2.233,0,0,1-1.586,2.424ZM32.342,17V11.609c-1.209,0-2.387.008-3.565,0a2.28,2.28,0,0,1-2.339-2.325c-.01-.519,0-1.039,0-1.558V5.675H6.792c-.876,0-1.144.273-1.144,1.165q0,4.839,0,9.678c0,.153.013.305.021.477Zm4.25.021V7.36c-1.177,0-2.324.006-3.47,0a2.3,2.3,0,0,1-2.436-2.421c0-.268,0-.535,0-.8V1.422H11a2.24,2.24,0,0,0-.33.008.8.8,0,0,0-.762.769c-.036.67-.01,1.343-.01,2.059h.6q8.189,0,16.378-.006a1.248,1.248,0,0,1,.96.394q2.775,2.8,5.574,5.573a1.24,1.24,0,0,1,.385.965c-.014,1.762-.006,3.524-.006,5.286V17c.158.008.265.018.372.019.8,0,1.6,0,2.43,0m-32.373-3.3a3.2,3.2,0,0,0-2.713,3.267H4.218ZM40.79,16.99a3.319,3.319,0,0,0-2.728-3.257V16.99Zm-8.678-14.4c0,.831-.024,1.7.01,2.572a.741.741,0,0,0,.722.747c.883.039,1.768.012,2.6.012L32.112,2.594m-.961,7.593-3.3-3.3v.345c0,.706-.015,1.412.01,2.117a.809.809,0,0,0,.8.834c.857.028,1.715.008,2.493.008" transform="translate(-0.001 0.001)" fill="#31313c"/>
        <path id="Trazado_154546" data-name="Trazado 154546" d="M57.056,81.841V82.4c0,3.635.008,7.269-.01,10.9,0,.456.127.575.578.573,4.7-.016,9.409-.01,14.114-.01h.513c.012-.2.03-.372.03-.539,0-3.65-.007-7.3.012-10.951,0-.454-.147-.548-.564-.543-1.683.021-3.367.01-5.051.007-.188,0-.429.04-.551-.057a1.3,1.3,0,0,1-.494-.655.587.587,0,0,1,.526-.67,2.17,2.17,0,0,1,.469-.032q2.643,0,5.287,0a1.565,1.565,0,0,1,1.783,1.8q0,5.617,0,11.234a1.582,1.582,0,0,1-1.819,1.82H57.437a1.564,1.564,0,0,1-1.8-1.787q0-5.64,0-11.282a1.561,1.561,0,0,1,1.79-1.787q2.619,0,5.239,0a2.672,2.672,0,0,1,.47.026.69.69,0,0,1,.011,1.356,2.572,2.572,0,0,1-.516.032q-2.479,0-4.956,0h-.622" transform="translate(-35.213 -50.899)" fill="#31313c"/>
        <path id="Trazado_154547" data-name="Trazado 154547" d="M70.412,89.459H65.742a3.132,3.132,0,0,1-.424-.012.7.7,0,0,1-.1-1.36,1.906,1.906,0,0,1,.513-.041q4.669,0,9.338,0a3,3,0,0,1,.377.008.708.708,0,0,1,.663.725.675.675,0,0,1-.7.675c-.565.018-1.132.008-1.7.008h-3.3" transform="translate(-40.954 -55.721)" fill="#31313c"/>
        <path id="Trazado_154548" data-name="Trazado 154548" d="M70.469,96.578c-1.588,0-3.176.006-4.764-.007a1.012,1.012,0,0,1-.654-.17.879.879,0,0,1-.24-.69c.048-.207.316-.379.517-.526.084-.061.244-.023.37-.023h9.527c.063,0,.126,0,.189,0a.706.706,0,1,1,.007,1.41c-.927.015-1.855.005-2.783.006h-2.17" transform="translate(-41.012 -60.22)" fill="#31313c"/>
        <path id="Trazado_154549" data-name="Trazado 154549" d="M70.366,103.676H65.792c-.141,0-.283,0-.424-.009a.652.652,0,0,1-.659-.664.668.668,0,0,1,.646-.726,3.124,3.124,0,0,1,.423-.017H75.02c.756,0,1.1.234,1.091.729-.011.477-.338.686-1.077.686H70.366" transform="translate(-40.953 -64.719)" fill="#31313c"/>
        <path id="Trazado_154550" data-name="Trazado 154550" d="M70.392,110.784c-1.619,0-3.239,0-4.858,0-.529,0-.824-.256-.831-.69s.294-.718.806-.722c1.085-.008,2.17,0,3.254,0,2.138,0,4.276-.009,6.414.012a1.107,1.107,0,0,1,.747.275.773.773,0,0,1,.087.718.929.929,0,0,1-.669.392c-.957.044-1.917.019-2.876.019H70.392" transform="translate(-40.951 -69.217)" fill="#31313c"/>
        <path id="Trazado_154551" data-name="Trazado 154551" d="M32.706,38.517h9.2c.142,0,.283,0,.425,0,.507.019.826.3.815.718-.011.4-.318.668-.8.695-.11.006-.22,0-.33,0q-9.322,0-18.645,0a2.537,2.537,0,0,1-.608-.048.691.691,0,0,1,.074-1.345,3.334,3.334,0,0,1,.518-.021h9.346" transform="translate(-14.093 -24.376)" fill="#31313c"/>
        <path id="Trazado_154552" data-name="Trazado 154552" d="M31.213,31.4H39a2.254,2.254,0,0,1,.471.017.7.7,0,0,1,.03,1.375,1.83,1.83,0,0,1-.47.024H23.264a1.91,1.91,0,0,1-.423-.017.7.7,0,0,1,.015-1.385,2.116,2.116,0,0,1,.424-.013h7.933" transform="translate(-14.092 -19.868)" fill="#31313c"/>
      </g>
    </g>
  </g>
</svg>
