<svg xmlns="http://www.w3.org/2000/svg" xmlns:xlink="http://www.w3.org/1999/xlink" width="112" height="112" viewBox="0 0 112 112">
  <defs>
    <clipPath id="clip-path">
      <rect id="Rect치ngulo_35716" data-name="Rect치ngulo 35716" width="88.229" height="92.157" fill="#fd9827"/>
    </clipPath>
  </defs>
  <g id="Grupo_159331" data-name="Grupo 159331" transform="translate(-3690 4615)">
    <g id="Grupo_159327" data-name="Grupo 159327" transform="translate(3701.885 -4605.849)">
      <g id="Grupo_158947" data-name="Grupo 158947" clip-path="url(#clip-path)">
        <path id="Trazado_154507" data-name="Trazado 154507" d="M51.03,78.438v5.887c3.14,0,6.22-.008,9.3.008a5.9,5.9,0,0,1,1.569.183,3.893,3.893,0,0,1-.817,7.612c-.33.025-.663.027-.994.027q-15.975,0-31.951-.007a6.708,6.708,0,0,1-1.866-.195A3.9,3.9,0,0,1,27.4,84.335c2.886-.032,5.773-.01,8.66-.011H37.2V78.438H35.939q-14.731,0-29.463,0c-3.166,0-5.474-1.627-6.221-4.4a8.406,8.406,0,0,1-.244-2.163Q-.008,46.091,0,20.308c0-4.111,2.454-6.545,6.575-6.555,3.948-.01,7.9,0,11.845,0h1.193c0-1.849,0-3.6,0-5.342,0-1.265.257-1.525,1.5-1.532,1.092-.006,2.184,0,3.4,0,0-1.752,0-3.436,0-5.12,0-1.573.148-1.722,1.7-1.722C35.38.031,44.537.057,53.694,0a3.39,3.39,0,0,1,2.761,1.135c2.195,2.307,4.507,4.5,6.724,6.789A2.283,2.283,0,0,1,63.7,9.309c.067,1.42.024,2.845.024,4.441h1.2q8.311,0,16.622,0c4.248,0,6.675,2.418,6.676,6.657q.008,25.684,0,51.367c0,4.24-2.428,6.658-6.673,6.661q-14.632.008-29.264,0H51.03M63.711,21.622v1.259q0,13.736,0,27.473c0,1.41-.212,1.622-1.612,1.625-2.687.006-5.374,0-8.062.005-.348,0-.7.043-1.116.072,0,1.1,0,2.087,0,3.078,0,1.6-.126,1.727-1.677,1.727q-14.979,0-29.958,0c-1.5,0-1.665-.163-1.666-1.644q0-16.175,0-32.35V21.655H7.937V64.644H80.316V59.826H79.3c-2.754,0-5.507-.006-8.261,0-.73,0-1.416-.125-1.4-1.006s.709-.983,1.432-.979c2.057.012,4.114,0,6.17,0H80.3V54.9H78.275q-3.733,0-7.465,0c-.639,0-1.155-.209-1.187-.912-.035-.762.491-1.02,1.173-1.038.232-.006.465,0,.7,0q3.881,0,7.763,0c.349,0,.7-.032,1.028-.049V50.025c-3.2,0-6.318,0-9.435,0-.675,0-1.226-.239-1.223-.994s.544-.968,1.231-.965c2.223.012,4.446,0,6.668,0h2.757V45.1c-3.169,0-6.252-.006-9.336.005-.709,0-1.322-.159-1.319-.981s.626-1,1.325-1c1.228,0,2.455,0,3.683,0H80.3V40.207h-4.03c-1.858,0-3.716,0-5.574-.011-.6,0-1.056-.279-1.075-.924-.021-.7.433-.99,1.091-1,.265-.006.531-.006.8-.006q3.882,0,7.764,0c.348,0,.7-.032,1.01-.047V21.622ZM26.482,2.069V9.06q0,19.909-.021,39.816c0,.939.285,1.148,1.176,1.146q16.47-.043,32.94-.021c.353,0,.706-.031,1.095-.048V9.856c-2.195,0-4.315-.008-6.436,0-.9.005-1.364-.4-1.355-1.317,0-.431,0-.862,0-1.294V2.069ZM50.845,52.056H26.654c-2.069,0-2.222-.149-2.222-2.18V8.978h-2.7V54.759H50.845ZM48.973,78.52H39.258v5.755h9.715Zm10.97-70.7L55.977,3.851V7.778c.254.018.447.042.641.043,1.12,0,2.24,0,3.326,0" transform="translate(0 0)" fill="#fd9827"/>
        <path id="Trazado_154508" data-name="Trazado 154508" d="M140.919.078A5.385,5.385,0,0,1,146.3,5.438a5.458,5.458,0,0,1-5.464,5.408,5.4,5.4,0,0,1-5.309-5.439,5.337,5.337,0,0,1,5.389-5.33m.014,1.968a3.412,3.412,0,0,0-3.448,3.372,3.421,3.421,0,1,0,6.841.06,3.424,3.424,0,0,0-3.394-3.433" transform="translate(-60.033 -0.035)" fill="#fd9827"/>
        <path id="Trazado_154509" data-name="Trazado 154509" d="M18.586,149.242a4.863,4.863,0,0,1-4.84,4.884,4.9,4.9,0,1,1,4.84-4.884m-7.794-.06a2.965,2.965,0,0,0,2.843,2.978,2.932,2.932,0,0,0,.1-5.863,2.972,2.972,0,0,0-2.938,2.885" transform="translate(-3.901 -63.927)" fill="#fd9827"/>
        <path id="Trazado_154510" data-name="Trazado 154510" d="M36.637,147.264a1.463,1.463,0,0,1-1.408-1.479,1.479,1.479,0,0,1,1.453-1.445,1.5,1.5,0,0,1,1.468,1.541,1.476,1.476,0,0,1-1.512,1.383" transform="translate(-15.604 -63.935)" fill="#fd9827"/>
        <path id="Trazado_154511" data-name="Trazado 154511" d="M124.357,145.838a1.469,1.469,0,1,1-2.936-.108,1.469,1.469,0,0,1,2.936.108" transform="translate(-53.782 -63.935)" fill="#fd9827"/>
        <path id="Trazado_154512" data-name="Trazado 154512" d="M3.208,18.827a1.5,1.5,0,0,1-1.421-1.487,1.456,1.456,0,1,1,1.421,1.487" transform="translate(-0.791 -7.043)" fill="#fd9827"/>
        <path id="Trazado_154513" data-name="Trazado 154513" d="M151.085,154.932a1.463,1.463,0,0,1,1.439,1.452,1.508,1.508,0,0,1-1.448,1.462,1.468,1.468,0,0,1-1.473-1.517,1.448,1.448,0,0,1,1.482-1.4" transform="translate(-66.266 -68.627)" fill="#fd9827"/>
        <path id="Trazado_154514" data-name="Trazado 154514" d="M24.385,3.594a1.417,1.417,0,0,1,1.432,1.459,1.446,1.446,0,0,1-2.892-.02,1.433,1.433,0,0,1,1.461-1.439" transform="translate(-10.154 -1.592)" fill="#fd9827"/>
        <path id="Trazado_154515" data-name="Trazado 154515" d="M120.83,4.994a1.44,1.44,0,0,1-1.41,1.489,1.459,1.459,0,0,1-1.511-1.4,1.479,1.479,0,0,1,1.42-1.5,1.45,1.45,0,0,1,1.5,1.407" transform="translate(-52.227 -1.589)" fill="#fd9827"/>
        <path id="Trazado_154516" data-name="Trazado 154516" d="M63.113,14.083c2.949,0,5.9.008,8.847-.006.735,0,1.4.118,1.409,1s-.661,1.023-1.4,1.022q-8.9-.008-17.792,0c-.748,0-1.392-.2-1.368-1.057.022-.793.645-.964,1.354-.96,2.982.014,5.964.006,8.946.006" transform="translate(-23.393 -6.235)" fill="#fd9827"/>
        <path id="Trazado_154517" data-name="Trazado 154517" d="M63.021,58.3c-2.916,0-5.831-.008-8.747.006-.724,0-1.429-.095-1.456-.956-.029-.924.69-1.064,1.459-1.063q8.846.011,17.693,0c.733,0,1.4.14,1.4,1.015s-.667,1.006-1.4,1C68.985,58.288,66,58.3,63.021,58.3" transform="translate(-23.395 -24.93)" fill="#fd9827"/>
        <path id="Trazado_154518" data-name="Trazado 154518" d="M63.226,21.119q4.223,0,8.445,0c.3,0,.656-.079.878.057.328.2.783.568.772.85a1.623,1.623,0,0,1-.711,1c-.227.164-.639.09-.968.09q-8.545.006-17.09,0c-.2,0-.4,0-.6-.006-.634-.028-1.14-.285-1.155-.972-.017-.746.494-1.024,1.184-1.024q4.62,0,9.24,0" transform="translate(-23.388 -9.345)" fill="#fd9827"/>
        <path id="Trazado_154519" data-name="Trazado 154519" d="M63.051,30.124c-2.981,0-5.963.025-8.943-.028a1.782,1.782,0,0,1-1.178-.647c-.138-.171.06-.758.274-1.021a1.293,1.293,0,0,1,.9-.284q9.042-.023,18.085-.009c.676,0,1.215.259,1.214,1.008s-.517.989-1.213.987c-3.047-.009-6.095,0-9.142,0" transform="translate(-23.425 -12.461)" fill="#fd9827"/>
        <path id="Trazado_154520" data-name="Trazado 154520" d="M63.086,37.194c-2.949,0-5.9-.007-8.847.006-.735,0-1.413-.138-1.425-1s.651-1.025,1.394-1.024q8.9.013,17.793,0c.748,0,1.386.17,1.369,1.043-.017.809-.632.978-1.338.975-2.982-.011-5.964,0-8.946,0" transform="translate(-23.394 -15.583)" fill="#fd9827"/>
        <path id="Trazado_154521" data-name="Trazado 154521" d="M63.106,42.271c2.948,0,5.9.008,8.844-.006.726,0,1.412.087,1.419.977s-.67,1.025-1.4,1.025q-8.894-.005-17.786,0c-.738,0-1.4-.19-1.376-1.053.018-.809.651-.951,1.354-.948,2.98.013,5.962.006,8.943.006" transform="translate(-23.391 -18.721)" fill="#fd9827"/>
        <path id="Trazado_154522" data-name="Trazado 154522" d="M63.1,51.254c-2.981,0-5.962.028-8.942-.027a1.8,1.8,0,0,1-1.291-.634c-.349-.509-.021-1.036.568-1.234a3.431,3.431,0,0,1,1.078-.1q8.545-.008,17.09,0c.2,0,.4,0,.6.006.637.028,1.134.29,1.139.983.005.749-.5,1.014-1.195,1.014q-4.521,0-9.042,0" transform="translate(-23.354 -21.815)" fill="#fd9827"/>
        <path id="Trazado_154523" data-name="Trazado 154523" d="M63.17,63.38c2.915,0,5.83.008,8.745-.006.724,0,1.421.08,1.433.965.013.945-.724,1.042-1.477,1.041q-8.8-.008-17.59,0c-.669,0-1.293-.064-1.487-.843-.162-.652.363-1.149,1.234-1.153,3.048-.011,6.1,0,9.143,0" transform="translate(-23.371 -28.071)" fill="#fd9827"/>
        <path id="Trazado_154524" data-name="Trazado 154524" d="M91.652,81.176c-1.39,0-2.78,0-4.17,0-.683,0-1.2-.224-1.207-.99s.513-1.016,1.191-1.017q4.17-.006,8.34,0c.686,0,1.215.277,1.22,1s-.507,1.011-1.2,1.007c-1.39-.008-2.78,0-4.17,0" transform="translate(-38.215 -35.067)" fill="#fd9827"/>
        <path id="Trazado_154525" data-name="Trazado 154525" d="M91.688,72.129c1.356,0,2.712,0,4.068,0,.71,0,1.3.248,1.272,1.051-.022.744-.587.953-1.259.951q-4.118-.008-8.234,0c-.657,0-1.23-.158-1.259-.937-.032-.829.541-1.059,1.247-1.063,1.389-.008,2.778,0,4.167,0" transform="translate(-38.215 -31.949)" fill="#fd9827"/>
      </g>
    </g>
    <rect id="Rect치ngulo_35828" data-name="Rect치ngulo 35828" width="112" height="112" transform="translate(3690 -4615)" fill="none"/>
  </g>
</svg>
