<svg xmlns="http://www.w3.org/2000/svg" xmlns:xlink="http://www.w3.org/1999/xlink" width="112" height="112" viewBox="0 0 112 112">
  <defs>
    <clipPath id="clip-path">
      <rect id="Rect치ngulo_35717" data-name="Rect치ngulo 35717" width="93.273" height="93.257" fill="#fd9827"/>
    </clipPath>
  </defs>
  <g id="Grupo_159334" data-name="Grupo 159334" transform="translate(-4095 4615)">
    <g id="Grupo_159328" data-name="Grupo 159328" transform="translate(4104.458 -4605.542)">
      <g id="Grupo_158948" data-name="Grupo 158948" clip-path="url(#clip-path)">
        <path id="Trazado_154526" data-name="Trazado 154526" d="M77.707,43.462c4.325.324,6.21,1.784,6.212,4.714,0,2.947-1.931,4.448-6.212,4.718V53.9c0,3.043.089,6.09-.039,9.128a3.117,3.117,0,0,0,1.579,3.023c1.578-1.1,1.922-1.069,3.282.29,2.794,2.793,5.6,5.568,8.373,8.385a7.1,7.1,0,0,1,1.858,7.925c-1.735,4.63-7.615,5.858-11.42,2.4-1.192-1.082-2.241-2.321-3.355-3.488l-.279.126c0,1.208.009,2.416,0,3.623a7.748,7.748,0,0,1-6.671,7.845,9.535,9.535,0,0,1-1.547.09q-30.641.006-61.282,0c-4.909,0-8.2-3.311-8.2-8.242Q0,80.787,0,76.561c0-1.405.539-1.945,1.926-1.954s2.775,0,4.288,0V2.417C6.219.375,6.6,0,8.658,0H75.281c2.045,0,2.426.382,2.426,2.432V43.462ZM38.456,31.086h-1.2q-8.353,0-16.7,0c-1.2,0-1.918-.628-1.888-1.6.03-.941.714-1.5,1.885-1.5q10.877.009,21.754.02a2.659,2.659,0,0,0,.9-.251c1.894-.733,3.758-1.553,5.686-2.178a1.006,1.006,0,0,0,.857-1.19c-.023-4.338-.014-8.678-.011-13.016,0-1.525.513-2.036,2.039-2.037q5.682-.006,11.363,0c1.652,0,2.136.485,2.137,2.137,0,5.084.014,10.167-.016,15.25A1.271,1.271,0,0,0,66,28a23.121,23.121,0,0,1,8.11,7.791,4.386,4.386,0,0,0,.433.5V3.177H9.406V74.549H34.192c0-1.474-.01-2.891,0-4.31.011-1.275.567-1.839,1.835-1.848,1.91-.013,3.82,0,5.73-.007a2.763,2.763,0,0,0,.449-.046l-6.444-5.761c0,.021-.016.2-.019.383-.03,1.93-.421,2.318-2.348,2.318q-7.138,0-14.277,0c-1.511,0-2.022-.522-2.023-2.054q-.006-5.634,0-11.268c0-1.775.45-2.218,2.247-2.219,1.9,0,3.792,0,5.7,0a3.908,3.908,0,0,0-.023-.408,4.645,4.645,0,0,1,4.768-5.808c.575,0,1.15,0,1.6,0L33.61,37.3H21.445c-2.043,0-2.8-.432-2.786-1.579s.733-1.53,2.833-1.53h2.04c3.819,0,7.64.009,11.46-.014a1.557,1.557,0,0,0,1.017-.341c.812-.829,1.55-1.73,2.446-2.753M3.18,77.75a2.034,2.034,0,0,0-.06.292c0,2.363-.013,4.727-.007,7.091a4.679,4.679,0,0,0,5.05,5.013q27.293,0,54.587,0c.268,0,.535-.039.687-.05a30.23,30.23,0,0,1-1.12-3.329,13.749,13.749,0,0,1-.145-2.8c-.017-2.06-.006-4.121-.006-6.215ZM40.411,48.2a13.985,13.985,0,1,0,14.111-14,14.009,14.009,0,0,0-14.111,14M59.058,74.6c1.325,0,2.776,0,4.228,0s1.983.531,1.986,1.991c.007,2.976-.023,5.952.012,8.927a4.654,4.654,0,0,0,9.307.011,33.671,33.671,0,0,1,.034-3.587A5.942,5.942,0,0,0,72.2,75.911c-1-.751-.932-1.549-.147-2.515.1-.118.177-.25.2-.277l-5.3-5.3a24.325,24.325,0,0,1-7.368,3.116.958.958,0,0,0-.492.727c-.06.927-.023,1.862-.023,2.943m16.318.084c2.684,2.7,5.342,5.43,8.076,8.084a3.908,3.908,0,1,0,5.567-5.485c-2.646-2.743-5.382-5.4-8.084-8.088-.036-.036-.12-.025-.063-.015l-5.5,5.5m-55.1-21.842v9.248H32.6c.1-2.979.259-5.893-.935-8.65-.108-.249-.435-.571-.664-.573-3.553-.036-7.107-.025-10.729-.025M62.1,26.155V12.513H52.92v6.318c3.837-.62,6.134,1.344,6.137,5.165,0,.443,0,.887,0,1.337.578.14,1.049.243,1.513.37.494.135.983.291,1.527.453m-12.044,38.6A17.3,17.3,0,0,1,37.822,52.535l-2.975.414c1.44,7.371,8.366,13.687,14.787,14.736.136-.952.273-1.9.42-2.932M49.623,28.6c-8.059,1.787-13.716,8.87-14.776,14.946a12.162,12.162,0,0,1,1.46.012,14.037,14.037,0,0,1,1.5.346,17.35,17.35,0,0,1,12.24-12.3c-.148-1.047-.282-2-.425-3M74,43.548c-1.865-8.389-9.106-13.905-14.841-14.9-.139.976-.278,1.953-.423,2.965a17.339,17.339,0,0,1,12.253,12.3,13.222,13.222,0,0,1,1.487-.356A13.1,13.1,0,0,1,74,43.548m-3.044,8.986a17.3,17.3,0,0,1-12.224,12.22c.152,1.049.293,2.023.434,3a19.89,19.89,0,0,0,14.777-14.8l-2.986-.415M37.349,74.552H49.866c-.07-1.039-.135-2.023-.2-3.009H37.349Zm18.6-48.093c0-1,.019-2.008-.006-3.011a1.553,1.553,0,1,0-3.094.025q-.03,2.962,0,5.924a1.55,1.55,0,0,0,1.509,1.681,1.567,1.567,0,0,0,1.585-1.706c.022-.971,0-1.942,0-2.913M32.576,49.736c1,0,2.007.017,3.01,0a1.568,1.568,0,0,0,1.706-1.585,1.55,1.55,0,0,0-1.68-1.51q-2.961-.032-5.923,0a1.554,1.554,0,1,0-.025,3.1c.97.024,1.941,0,2.913.006m43.569,0c1,0,2.008.021,3.01-.007a1.551,1.551,0,0,0,1.651-1.541,1.533,1.533,0,0,0-1.638-1.549q-3.01-.038-6.02,0a1.548,1.548,0,1,0-.011,3.091c1,.029,2.006.007,3.01.007m-20.2,20.22c0-1,.021-2.008-.006-3.011a1.552,1.552,0,0,0-1.533-1.658,1.53,1.53,0,0,0-1.557,1.63q-.039,3.011,0,6.021a1.548,1.548,0,1,0,3.09.028c.03-1,.007-2.007.007-3.011m16.108-6.322-2.207,2.121,4.838,4.826L76.9,68.453l-4.84-4.82" transform="translate(0)" fill="#fd9827"/>
        <path id="Trazado_154527" data-name="Trazado 154527" d="M35.266,18.927c3.5,0,6.992,0,10.489,0,1.066,0,1.715.5,1.83,1.356a1.578,1.578,0,0,1-1.733,1.743c-2.169.019-4.338.006-6.506.006-4.857,0-9.712.011-14.568-.016a2.1,2.1,0,0,1-1.424-.39,2.247,2.247,0,0,1-.485-1.618c.119-.79.82-1.088,1.617-1.086q4.517.007,9.032,0h1.748" transform="translate(-4.086 -3.384)" fill="#fd9827"/>
        <path id="Trazado_154528" data-name="Trazado 154528" d="M44.141,26.5c1.424,0,2.849-.008,4.273,0,1.153.008,1.848.588,1.864,1.525S49.594,29.6,48.464,29.6q-4.418.017-8.838,0a1.571,1.571,0,0,1-1.765-1.525c-.016-.946.678-1.564,1.812-1.575,1.489-.013,2.978,0,4.467,0" transform="translate(-6.77 -4.737)" fill="#fd9827"/>
        <path id="Trazado_154529" data-name="Trazado 154529" d="M31.115,14.462c-.971,0-1.942.018-2.913,0a1.554,1.554,0,1,1-.007-3.1q2.961-.031,5.923,0a1.554,1.554,0,1,1,.007,3.1c-1,.023-2.007,0-3.011,0" transform="translate(-4.739 -2.029)" fill="#fd9827"/>
        <path id="Trazado_154530" data-name="Trazado 154530" d="M46.388,14.463c-1,0-2.007.016-3.011,0a1.56,1.56,0,1,1,.019-3.1q2.913-.025,5.826,0a1.559,1.559,0,0,1,1.732,1.557A1.578,1.578,0,0,1,49.2,14.459c-.939.017-1.877,0-2.816,0" transform="translate(-7.447 -2.029)" fill="#fd9827"/>
        <path id="Trazado_154531" data-name="Trazado 154531" d="M27.338,29.6c-.971,0-1.942.018-2.913,0a1.554,1.554,0,1,1-.022-3.1q2.961-.032,5.923,0a1.554,1.554,0,1,1,.022,3.1c-1,.024-2.007.006-3.011.006" transform="translate(-4.063 -4.736)" fill="#fd9827"/>
        <path id="Trazado_154532" data-name="Trazado 154532" d="M72.311,57.1a1.517,1.517,0,0,1-1.353,1.416,3,3,0,0,1-.87.019,1.419,1.419,0,0,0-1.608.838,5.719,5.719,0,0,1-1.79,1.7,1.031,1.031,0,0,0-.594,1.06,6.046,6.046,0,0,1-.008,1.163,1.542,1.542,0,0,1-1.539,1.451A1.427,1.427,0,0,1,63.037,63.3a2.473,2.473,0,0,0-1.516-2.822,1.763,1.763,0,0,1-.823-.925c-.361-1-1.079-1.072-1.98-1.031-1.22.055-1.932-.569-1.931-1.538s.71-1.586,1.933-1.536c.894.035,1.537-.053,2-1.017a4.474,4.474,0,0,1,1.682-1.538,1.01,1.01,0,0,0,.6-1.058,5.041,5.041,0,0,1,.019-1.259,1.453,1.453,0,0,1,1.525-1.342c.859,0,1.568.528,1.492,1.334a2.68,2.68,0,0,0,1.612,2.976,1.545,1.545,0,0,1,.7.786c.377,1.064,1.155,1.163,2.124,1.118a1.58,1.58,0,0,1,1.838,1.65M66.1,56.967a1.547,1.547,0,1,0-1.508,1.565A1.562,1.562,0,0,0,66.1,56.967" transform="translate(-10.154 -8.803)" fill="#fd9827"/>
      </g>
    </g>
    <rect id="Rect치ngulo_35831" data-name="Rect치ngulo 35831" width="112" height="112" transform="translate(4095 -4615)" fill="none"/>
  </g>
</svg>
