<svg id="Grupo_158033" data-name="Grupo 158033" xmlns="http://www.w3.org/2000/svg" xmlns:xlink="http://www.w3.org/1999/xlink" width="400" height="162.182" viewBox="0 0 400 162.182">
  <defs>
    <clipPath id="clip-path">
      <rect id="Rectángulo_34881" data-name="Rectángulo 34881" width="142.504" height="72.698" fill="#12263f"/>
    </clipPath>
    <clipPath id="clip-path-2">
      <rect id="Rectángulo_35069" data-name="Rectángulo 35069" width="273.392" height="162.182" fill="none"/>
    </clipPath>
  </defs>
  <g id="Grupo_157916" data-name="Grupo 157916" transform="translate(0 23.273)">
    <g id="Enmascarar_grupo_63" data-name="Enmascarar grupo 63" transform="translate(53.819 44.036)" clip-path="url(#clip-path)">
      <path id="Trazado_151731" data-name="Trazado 151731" d="M67.851,107.133A39.282,39.282,0,1,0,28.569,67.851a39.326,39.326,0,0,0,39.282,39.282m0,28.569A67.851,67.851,0,1,1,135.7,67.851,67.851,67.851,0,0,1,67.851,135.7Z" transform="translate(3.858 4.848)" fill="#fd9827"/>
    </g>
    <path id="Trazado_145969" data-name="Trazado 145969" d="M52.127,0a51.977,51.977,0,1,0,52.127,51.977A52.052,52.052,0,0,0,52.127,0Z" transform="translate(295.746)" fill="#fd9827" opacity="0.444" style="mix-blend-mode: multiply;isolation: isolate"/>
    <path id="Trazado_145971" data-name="Trazado 145971" d="M5.949,0A5.949,5.949,0,1,0,11.9,5.949,5.949,5.949,0,0,0,5.949,0Z" transform="translate(364.598 85.124)" fill="#31313c" opacity="0.444" style="mix-blend-mode: multiply;isolation: isolate"/>
    <path id="Trazado_145968" data-name="Trazado 145968" d="M29.193,0A29.193,29.193,0,1,0,58.386,29.193,29.193,29.193,0,0,0,29.193,0Z" transform="translate(0)" fill="#31313c" opacity="0.444" style="mix-blend-mode: multiply;isolation: isolate"/>
    <g id="Grupo_78276" data-name="Grupo 78276" transform="translate(21.085 24.042)">
      <g id="Grupo_53306" data-name="Grupo 53306" transform="translate(0)">
        <path id="Trazado_99200" data-name="Trazado 99200" d="M414.214,50.984a.8.8,0,1,0,.8-.759A.778.778,0,0,0,414.214,50.984Z" transform="translate(-342.701 -50.224)" fill="#fff"/>
        <path id="Trazado_99201" data-name="Trazado 99201" d="M422.66,50.984a.8.8,0,1,0,.794-.759A.778.778,0,0,0,422.66,50.984Z" transform="translate(-358.298 -50.224)" fill="#fff"/>
        <path id="Trazado_99202" data-name="Trazado 99202" d="M431.106,50.984a.8.8,0,1,0,.794-.759A.778.778,0,0,0,431.106,50.984Z" transform="translate(-373.895 -50.224)" fill="#fff"/>
        <path id="Trazado_99203" data-name="Trazado 99203" d="M439.553,50.984a.8.8,0,1,0,.8-.759A.778.778,0,0,0,439.553,50.984Z" transform="translate(-389.494 -50.224)" fill="#fff"/>
        <path id="Trazado_99204" data-name="Trazado 99204" d="M448,50.984a.8.8,0,1,0,.794-.759A.778.778,0,0,0,448,50.984Z" transform="translate(-405.091 -50.224)" fill="#fff"/>
        <path id="Trazado_99205" data-name="Trazado 99205" d="M456.445,50.984a.8.8,0,1,0,.794-.759A.778.778,0,0,0,456.445,50.984Z" transform="translate(-420.688 -50.224)" fill="#fff"/>
        <path id="Trazado_99206" data-name="Trazado 99206" d="M464.892,50.984a.8.8,0,1,0,.8-.759A.778.778,0,0,0,464.892,50.984Z" transform="translate(-436.287 -50.224)" fill="#fff"/>
        <path id="Trazado_99207" data-name="Trazado 99207" d="M473.338,50.984a.8.8,0,1,0,.794-.759A.778.778,0,0,0,473.338,50.984Z" transform="translate(-451.884 -50.224)" fill="#fff"/>
        <path id="Trazado_99208" data-name="Trazado 99208" d="M481.784,50.984a.8.8,0,1,0,.794-.759A.778.778,0,0,0,481.784,50.984Z" transform="translate(-467.481 -50.224)" fill="#fff"/>
        <path id="Trazado_99209" data-name="Trazado 99209" d="M490.231,50.984a.8.8,0,1,0,.8-.759A.778.778,0,0,0,490.231,50.984Z" transform="translate(-483.08 -50.224)" fill="#fff"/>
        <path id="Trazado_99210" data-name="Trazado 99210" d="M498.677,50.984a.8.8,0,1,0,.8-.759A.778.778,0,0,0,498.677,50.984Z" transform="translate(-498.677 -50.224)" fill="#fff"/>
      </g>
      <g id="Grupo_53307" data-name="Grupo 53307" transform="translate(0 6.079)">
        <path id="Trazado_99211" data-name="Trazado 99211" d="M414.214,58.492a.8.8,0,1,0,.8-.759A.778.778,0,0,0,414.214,58.492Z" transform="translate(-342.701 -57.732)" fill="#fff"/>
        <path id="Trazado_99212" data-name="Trazado 99212" d="M422.66,58.492a.8.8,0,1,0,.794-.759A.778.778,0,0,0,422.66,58.492Z" transform="translate(-358.298 -57.732)" fill="#fff"/>
        <path id="Trazado_99213" data-name="Trazado 99213" d="M431.106,58.492a.8.8,0,1,0,.794-.759A.778.778,0,0,0,431.106,58.492Z" transform="translate(-373.895 -57.732)" fill="#fff"/>
        <path id="Trazado_99214" data-name="Trazado 99214" d="M439.553,58.492a.8.8,0,1,0,.8-.759A.778.778,0,0,0,439.553,58.492Z" transform="translate(-389.494 -57.732)" fill="#fff"/>
        <path id="Trazado_99215" data-name="Trazado 99215" d="M448,58.492a.8.8,0,1,0,.794-.759A.778.778,0,0,0,448,58.492Z" transform="translate(-405.091 -57.732)" fill="#fff"/>
        <path id="Trazado_99216" data-name="Trazado 99216" d="M456.445,58.492a.8.8,0,1,0,.794-.759A.778.778,0,0,0,456.445,58.492Z" transform="translate(-420.688 -57.732)" fill="#fff"/>
        <path id="Trazado_99217" data-name="Trazado 99217" d="M464.892,58.492a.8.8,0,1,0,.8-.759A.778.778,0,0,0,464.892,58.492Z" transform="translate(-436.287 -57.732)" fill="#fff"/>
        <path id="Trazado_99218" data-name="Trazado 99218" d="M473.338,58.492a.8.8,0,1,0,.794-.759A.778.778,0,0,0,473.338,58.492Z" transform="translate(-451.884 -57.732)" fill="#fff"/>
        <path id="Trazado_99219" data-name="Trazado 99219" d="M481.784,58.492a.8.8,0,1,0,.794-.759A.778.778,0,0,0,481.784,58.492Z" transform="translate(-467.481 -57.732)" fill="#fff"/>
        <path id="Trazado_99220" data-name="Trazado 99220" d="M490.231,58.492a.8.8,0,1,0,.8-.759A.778.778,0,0,0,490.231,58.492Z" transform="translate(-483.08 -57.732)" fill="#fff"/>
        <path id="Trazado_99221" data-name="Trazado 99221" d="M498.677,58.492a.8.8,0,1,0,.8-.759A.778.778,0,0,0,498.677,58.492Z" transform="translate(-498.677 -57.732)" fill="#fff"/>
      </g>
      <g id="Grupo_53308" data-name="Grupo 53308" transform="translate(0 12.158)">
        <ellipse id="Elipse_3955" data-name="Elipse 3955" cx="0.795" cy="0.76" rx="0.795" ry="0.76" transform="translate(71.513)" fill="#fff"/>
        <path id="Trazado_99222" data-name="Trazado 99222" d="M422.66,66a.8.8,0,1,0,.794-.759A.778.778,0,0,0,422.66,66Z" transform="translate(-358.298 -65.24)" fill="#fff"/>
        <ellipse id="Elipse_3956" data-name="Elipse 3956" cx="0.795" cy="0.76" rx="0.795" ry="0.76" transform="translate(57.21)" fill="#fff"/>
        <path id="Trazado_99223" data-name="Trazado 99223" d="M439.553,66a.8.8,0,1,0,.8-.759A.778.778,0,0,0,439.553,66Z" transform="translate(-389.494 -65.24)" fill="#fff"/>
        <path id="Trazado_99224" data-name="Trazado 99224" d="M448,66a.8.8,0,1,0,.794-.759A.778.778,0,0,0,448,66Z" transform="translate(-405.091 -65.24)" fill="#fff"/>
        <ellipse id="Elipse_3957" data-name="Elipse 3957" cx="0.795" cy="0.76" rx="0.795" ry="0.76" transform="translate(35.756)" fill="#fff"/>
        <path id="Trazado_99225" data-name="Trazado 99225" d="M464.892,66a.8.8,0,1,0,.8-.759A.779.779,0,0,0,464.892,66Z" transform="translate(-436.287 -65.24)" fill="#fff"/>
        <ellipse id="Elipse_3958" data-name="Elipse 3958" cx="0.795" cy="0.76" rx="0.795" ry="0.76" transform="translate(21.454)" fill="#fff"/>
        <ellipse id="Elipse_3959" data-name="Elipse 3959" cx="0.795" cy="0.76" rx="0.795" ry="0.76" transform="translate(14.303)" fill="#fff"/>
        <path id="Trazado_99226" data-name="Trazado 99226" d="M490.231,66a.8.8,0,1,0,.8-.759A.779.779,0,0,0,490.231,66Z" transform="translate(-483.08 -65.24)" fill="#fff"/>
        <path id="Trazado_99227" data-name="Trazado 99227" d="M498.677,66a.8.8,0,1,0,.8-.759A.778.778,0,0,0,498.677,66Z" transform="translate(-498.677 -65.24)" fill="#fff"/>
      </g>
      <g id="Grupo_53309" data-name="Grupo 53309" transform="translate(0 18.237)">
        <ellipse id="Elipse_3960" data-name="Elipse 3960" cx="0.795" cy="0.76" rx="0.795" ry="0.76" transform="translate(71.513 0)" fill="#fff"/>
        <path id="Trazado_99228" data-name="Trazado 99228" d="M422.66,73.507a.8.8,0,1,0,.794-.76A.777.777,0,0,0,422.66,73.507Z" transform="translate(-358.298 -72.747)" fill="#fff"/>
        <ellipse id="Elipse_3961" data-name="Elipse 3961" cx="0.795" cy="0.76" rx="0.795" ry="0.76" transform="translate(57.21 0)" fill="#fff"/>
        <path id="Trazado_99229" data-name="Trazado 99229" d="M439.553,73.507a.8.8,0,1,0,.8-.76A.778.778,0,0,0,439.553,73.507Z" transform="translate(-389.494 -72.747)" fill="#fff"/>
        <path id="Trazado_99230" data-name="Trazado 99230" d="M448,73.507a.8.8,0,1,0,.794-.76A.778.778,0,0,0,448,73.507Z" transform="translate(-405.091 -72.747)" fill="#fff"/>
        <ellipse id="Elipse_3962" data-name="Elipse 3962" cx="0.795" cy="0.76" rx="0.795" ry="0.76" transform="translate(35.756 0)" fill="#fff"/>
        <path id="Trazado_99231" data-name="Trazado 99231" d="M464.892,73.507a.8.8,0,1,0,.8-.76A.778.778,0,0,0,464.892,73.507Z" transform="translate(-436.287 -72.747)" fill="#fff"/>
        <ellipse id="Elipse_3963" data-name="Elipse 3963" cx="0.795" cy="0.76" rx="0.795" ry="0.76" transform="translate(21.454 0)" fill="#fff"/>
        <ellipse id="Elipse_3964" data-name="Elipse 3964" cx="0.795" cy="0.76" rx="0.795" ry="0.76" transform="translate(14.303 0)" fill="#fff"/>
        <path id="Trazado_99232" data-name="Trazado 99232" d="M490.231,73.507a.8.8,0,1,0,.8-.76A.778.778,0,0,0,490.231,73.507Z" transform="translate(-483.08 -72.747)" fill="#fff"/>
        <path id="Trazado_99233" data-name="Trazado 99233" d="M498.677,73.507a.8.8,0,1,0,.8-.76A.778.778,0,0,0,498.677,73.507Z" transform="translate(-498.677 -72.747)" fill="#fff"/>
      </g>
      <g id="Grupo_53310" data-name="Grupo 53310" transform="translate(0 24.316)">
        <path id="Trazado_99234" data-name="Trazado 99234" d="M414.214,81.015a.8.8,0,1,0,.8-.76A.778.778,0,0,0,414.214,81.015Z" transform="translate(-342.701 -80.255)" fill="#fff"/>
        <path id="Trazado_99235" data-name="Trazado 99235" d="M422.66,81.015a.8.8,0,1,0,.794-.76A.777.777,0,0,0,422.66,81.015Z" transform="translate(-358.298 -80.255)" fill="#fff"/>
        <path id="Trazado_99236" data-name="Trazado 99236" d="M431.106,81.015a.8.8,0,1,0,.794-.76A.777.777,0,0,0,431.106,81.015Z" transform="translate(-373.895 -80.255)" fill="#fff"/>
        <path id="Trazado_99237" data-name="Trazado 99237" d="M439.553,81.015a.8.8,0,1,0,.8-.76A.778.778,0,0,0,439.553,81.015Z" transform="translate(-389.494 -80.255)" fill="#fff"/>
        <path id="Trazado_99238" data-name="Trazado 99238" d="M448,81.015a.8.8,0,1,0,.794-.76A.778.778,0,0,0,448,81.015Z" transform="translate(-405.091 -80.255)" fill="#fff"/>
        <path id="Trazado_99239" data-name="Trazado 99239" d="M456.445,81.015a.8.8,0,1,0,.794-.76A.777.777,0,0,0,456.445,81.015Z" transform="translate(-420.688 -80.255)" fill="#fff"/>
        <path id="Trazado_99240" data-name="Trazado 99240" d="M464.892,81.015a.8.8,0,1,0,.8-.76A.778.778,0,0,0,464.892,81.015Z" transform="translate(-436.287 -80.255)" fill="#fff"/>
        <path id="Trazado_99241" data-name="Trazado 99241" d="M473.338,81.015a.8.8,0,1,0,.794-.76A.777.777,0,0,0,473.338,81.015Z" transform="translate(-451.884 -80.255)" fill="#fff"/>
        <path id="Trazado_99242" data-name="Trazado 99242" d="M481.784,81.015a.8.8,0,1,0,.794-.76A.777.777,0,0,0,481.784,81.015Z" transform="translate(-467.481 -80.255)" fill="#fff"/>
        <path id="Trazado_99243" data-name="Trazado 99243" d="M490.231,81.015a.8.8,0,1,0,.8-.76A.778.778,0,0,0,490.231,81.015Z" transform="translate(-483.08 -80.255)" fill="#fff"/>
        <path id="Trazado_99244" data-name="Trazado 99244" d="M498.677,81.015a.8.8,0,1,0,.8-.76A.778.778,0,0,0,498.677,81.015Z" transform="translate(-498.677 -80.255)" fill="#fff"/>
      </g>
      <g id="Grupo_53311" data-name="Grupo 53311" transform="translate(0 30.395)">
        <ellipse id="Elipse_3965" data-name="Elipse 3965" cx="0.795" cy="0.76" rx="0.795" ry="0.76" transform="translate(71.513 0)" fill="#fff"/>
        <path id="Trazado_99245" data-name="Trazado 99245" d="M422.66,88.523a.8.8,0,1,0,.794-.76A.777.777,0,0,0,422.66,88.523Z" transform="translate(-358.298 -87.763)" fill="#fff"/>
        <ellipse id="Elipse_3966" data-name="Elipse 3966" cx="0.795" cy="0.76" rx="0.795" ry="0.76" transform="translate(57.21 0)" fill="#fff"/>
        <path id="Trazado_99246" data-name="Trazado 99246" d="M439.553,88.523a.8.8,0,1,0,.8-.76A.778.778,0,0,0,439.553,88.523Z" transform="translate(-389.494 -87.763)" fill="#fff"/>
        <path id="Trazado_99247" data-name="Trazado 99247" d="M448,88.523a.8.8,0,1,0,.794-.76A.778.778,0,0,0,448,88.523Z" transform="translate(-405.091 -87.763)" fill="#fff"/>
        <ellipse id="Elipse_3967" data-name="Elipse 3967" cx="0.795" cy="0.76" rx="0.795" ry="0.76" transform="translate(35.756 0)" fill="#fff"/>
        <path id="Trazado_99248" data-name="Trazado 99248" d="M464.892,88.523a.8.8,0,1,0,.8-.76A.778.778,0,0,0,464.892,88.523Z" transform="translate(-436.287 -87.763)" fill="#fff"/>
        <ellipse id="Elipse_3968" data-name="Elipse 3968" cx="0.795" cy="0.76" rx="0.795" ry="0.76" transform="translate(21.454 0)" fill="#fff"/>
        <ellipse id="Elipse_3969" data-name="Elipse 3969" cx="0.795" cy="0.76" rx="0.795" ry="0.76" transform="translate(14.303 0)" fill="#fff"/>
        <path id="Trazado_99249" data-name="Trazado 99249" d="M490.231,88.523a.8.8,0,1,0,.8-.76A.778.778,0,0,0,490.231,88.523Z" transform="translate(-483.08 -87.763)" fill="#fff"/>
        <path id="Trazado_99250" data-name="Trazado 99250" d="M498.677,88.523a.8.8,0,1,0,.8-.76A.778.778,0,0,0,498.677,88.523Z" transform="translate(-498.677 -87.763)" fill="#fff"/>
      </g>
      <g id="Grupo_53312" data-name="Grupo 53312" transform="translate(0 36.474)">
        <ellipse id="Elipse_3970" data-name="Elipse 3970" cx="0.795" cy="0.76" rx="0.795" ry="0.76" transform="translate(71.513)" fill="#fff"/>
        <path id="Trazado_99251" data-name="Trazado 99251" d="M422.66,96.031a.8.8,0,1,0,.794-.76A.778.778,0,0,0,422.66,96.031Z" transform="translate(-358.298 -95.271)" fill="#fff"/>
        <ellipse id="Elipse_3971" data-name="Elipse 3971" cx="0.795" cy="0.76" rx="0.795" ry="0.76" transform="translate(57.21)" fill="#fff"/>
        <path id="Trazado_99252" data-name="Trazado 99252" d="M439.553,96.031a.8.8,0,1,0,.8-.76A.778.778,0,0,0,439.553,96.031Z" transform="translate(-389.494 -95.271)" fill="#fff"/>
        <path id="Trazado_99253" data-name="Trazado 99253" d="M448,96.031a.8.8,0,1,0,.794-.76A.778.778,0,0,0,448,96.031Z" transform="translate(-405.091 -95.271)" fill="#fff"/>
        <ellipse id="Elipse_3972" data-name="Elipse 3972" cx="0.795" cy="0.76" rx="0.795" ry="0.76" transform="translate(35.756)" fill="#fff"/>
        <path id="Trazado_99254" data-name="Trazado 99254" d="M464.892,96.031a.8.8,0,1,0,.8-.76A.778.778,0,0,0,464.892,96.031Z" transform="translate(-436.287 -95.271)" fill="#fff"/>
        <ellipse id="Elipse_3973" data-name="Elipse 3973" cx="0.795" cy="0.76" rx="0.795" ry="0.76" transform="translate(21.454)" fill="#fff"/>
        <ellipse id="Elipse_3974" data-name="Elipse 3974" cx="0.795" cy="0.76" rx="0.795" ry="0.76" transform="translate(14.303)" fill="#fff"/>
        <path id="Trazado_99255" data-name="Trazado 99255" d="M490.231,96.031a.8.8,0,1,0,.8-.76A.778.778,0,0,0,490.231,96.031Z" transform="translate(-483.08 -95.271)" fill="#fff"/>
        <path id="Trazado_99256" data-name="Trazado 99256" d="M498.677,96.031a.8.8,0,1,0,.8-.76A.778.778,0,0,0,498.677,96.031Z" transform="translate(-498.677 -95.271)" fill="#fff"/>
      </g>
      <g id="Grupo_53313" data-name="Grupo 53313" transform="translate(0 42.553)">
        <path id="Trazado_99257" data-name="Trazado 99257" d="M414.214,103.539a.8.8,0,1,0,.8-.759A.778.778,0,0,0,414.214,103.539Z" transform="translate(-342.701 -102.779)" fill="#fff"/>
        <path id="Trazado_99258" data-name="Trazado 99258" d="M422.66,103.539a.8.8,0,1,0,.794-.759A.778.778,0,0,0,422.66,103.539Z" transform="translate(-358.298 -102.779)" fill="#fff"/>
        <path id="Trazado_99259" data-name="Trazado 99259" d="M431.106,103.539a.8.8,0,1,0,.794-.759A.778.778,0,0,0,431.106,103.539Z" transform="translate(-373.895 -102.779)" fill="#fff"/>
        <path id="Trazado_99260" data-name="Trazado 99260" d="M439.553,103.539a.8.8,0,1,0,.8-.759A.778.778,0,0,0,439.553,103.539Z" transform="translate(-389.494 -102.779)" fill="#fff"/>
        <path id="Trazado_99261" data-name="Trazado 99261" d="M448,103.539a.8.8,0,1,0,.794-.759A.778.778,0,0,0,448,103.539Z" transform="translate(-405.091 -102.779)" fill="#fff"/>
        <path id="Trazado_99262" data-name="Trazado 99262" d="M456.445,103.539a.8.8,0,1,0,.794-.759A.778.778,0,0,0,456.445,103.539Z" transform="translate(-420.688 -102.779)" fill="#fff"/>
        <path id="Trazado_99263" data-name="Trazado 99263" d="M464.892,103.539a.8.8,0,1,0,.8-.759A.778.778,0,0,0,464.892,103.539Z" transform="translate(-436.287 -102.779)" fill="#fff"/>
        <path id="Trazado_99264" data-name="Trazado 99264" d="M473.338,103.539a.8.8,0,1,0,.794-.759A.778.778,0,0,0,473.338,103.539Z" transform="translate(-451.884 -102.779)" fill="#fff"/>
        <path id="Trazado_99265" data-name="Trazado 99265" d="M481.784,103.539a.8.8,0,1,0,.794-.759A.778.778,0,0,0,481.784,103.539Z" transform="translate(-467.481 -102.779)" fill="#fff"/>
        <path id="Trazado_99266" data-name="Trazado 99266" d="M490.231,103.539a.8.8,0,1,0,.8-.759A.778.778,0,0,0,490.231,103.539Z" transform="translate(-483.08 -102.779)" fill="#fff"/>
        <path id="Trazado_99267" data-name="Trazado 99267" d="M498.677,103.539a.8.8,0,1,0,.8-.759A.778.778,0,0,0,498.677,103.539Z" transform="translate(-498.677 -102.779)" fill="#fff"/>
      </g>
      <g id="Grupo_53314" data-name="Grupo 53314" transform="translate(0 48.633)">
        <ellipse id="Elipse_3975" data-name="Elipse 3975" cx="0.795" cy="0.76" rx="0.795" ry="0.76" transform="translate(71.513)" fill="#fff"/>
        <path id="Trazado_99268" data-name="Trazado 99268" d="M422.66,111.047a.8.8,0,1,0,.794-.759A.778.778,0,0,0,422.66,111.047Z" transform="translate(-358.298 -110.287)" fill="#fff"/>
        <ellipse id="Elipse_3976" data-name="Elipse 3976" cx="0.795" cy="0.76" rx="0.795" ry="0.76" transform="translate(57.21)" fill="#fff"/>
        <path id="Trazado_99269" data-name="Trazado 99269" d="M439.553,111.047a.8.8,0,1,0,.8-.759A.778.778,0,0,0,439.553,111.047Z" transform="translate(-389.494 -110.287)" fill="#fff"/>
        <path id="Trazado_99270" data-name="Trazado 99270" d="M448,111.047a.8.8,0,1,0,.794-.759A.778.778,0,0,0,448,111.047Z" transform="translate(-405.091 -110.287)" fill="#fff"/>
        <ellipse id="Elipse_3977" data-name="Elipse 3977" cx="0.795" cy="0.76" rx="0.795" ry="0.76" transform="translate(35.756)" fill="#fff"/>
        <path id="Trazado_99271" data-name="Trazado 99271" d="M464.892,111.047a.8.8,0,1,0,.8-.759A.779.779,0,0,0,464.892,111.047Z" transform="translate(-436.287 -110.287)" fill="#fff"/>
        <ellipse id="Elipse_3978" data-name="Elipse 3978" cx="0.795" cy="0.76" rx="0.795" ry="0.76" transform="translate(21.454)" fill="#fff"/>
        <ellipse id="Elipse_3979" data-name="Elipse 3979" cx="0.795" cy="0.76" rx="0.795" ry="0.76" transform="translate(14.303)" fill="#fff"/>
        <path id="Trazado_99272" data-name="Trazado 99272" d="M490.231,111.047a.8.8,0,1,0,.8-.759A.779.779,0,0,0,490.231,111.047Z" transform="translate(-483.08 -110.287)" fill="#fff"/>
        <path id="Trazado_99273" data-name="Trazado 99273" d="M498.677,111.047a.8.8,0,1,0,.8-.759A.778.778,0,0,0,498.677,111.047Z" transform="translate(-498.677 -110.287)" fill="#fff"/>
      </g>
      <g id="Grupo_53315" data-name="Grupo 53315" transform="translate(0 54.711)">
        <path id="Trazado_99274" data-name="Trazado 99274" d="M414.214,118.554a.8.8,0,1,0,.8-.76A.778.778,0,0,0,414.214,118.554Z" transform="translate(-342.701 -117.794)" fill="#fff"/>
        <path id="Trazado_99275" data-name="Trazado 99275" d="M422.66,118.554a.8.8,0,1,0,.794-.76A.778.778,0,0,0,422.66,118.554Z" transform="translate(-358.298 -117.794)" fill="#fff"/>
        <path id="Trazado_99276" data-name="Trazado 99276" d="M431.106,118.554a.8.8,0,1,0,.794-.76A.778.778,0,0,0,431.106,118.554Z" transform="translate(-373.895 -117.794)" fill="#fff"/>
        <path id="Trazado_99277" data-name="Trazado 99277" d="M439.553,118.554a.8.8,0,1,0,.8-.76A.778.778,0,0,0,439.553,118.554Z" transform="translate(-389.494 -117.794)" fill="#fff"/>
        <path id="Trazado_99278" data-name="Trazado 99278" d="M448,118.554a.8.8,0,1,0,.794-.76A.778.778,0,0,0,448,118.554Z" transform="translate(-405.091 -117.794)" fill="#fff"/>
        <path id="Trazado_99279" data-name="Trazado 99279" d="M456.445,118.554a.8.8,0,1,0,.794-.76A.778.778,0,0,0,456.445,118.554Z" transform="translate(-420.688 -117.794)" fill="#fff"/>
        <path id="Trazado_99280" data-name="Trazado 99280" d="M464.892,118.554a.8.8,0,1,0,.8-.76A.779.779,0,0,0,464.892,118.554Z" transform="translate(-436.287 -117.794)" fill="#fff"/>
        <path id="Trazado_99281" data-name="Trazado 99281" d="M473.338,118.554a.8.8,0,1,0,.794-.76A.778.778,0,0,0,473.338,118.554Z" transform="translate(-451.884 -117.794)" fill="#fff"/>
        <path id="Trazado_99282" data-name="Trazado 99282" d="M481.784,118.554a.8.8,0,1,0,.794-.76A.778.778,0,0,0,481.784,118.554Z" transform="translate(-467.481 -117.794)" fill="#fff"/>
        <path id="Trazado_99283" data-name="Trazado 99283" d="M490.231,118.554a.8.8,0,1,0,.8-.76A.779.779,0,0,0,490.231,118.554Z" transform="translate(-483.08 -117.794)" fill="#fff"/>
        <path id="Trazado_99284" data-name="Trazado 99284" d="M498.677,118.554a.8.8,0,1,0,.8-.76A.778.778,0,0,0,498.677,118.554Z" transform="translate(-498.677 -117.794)" fill="#fff"/>
      </g>
      <g id="Grupo_53316" data-name="Grupo 53316" transform="translate(0 60.79)">
        <ellipse id="Elipse_3980" data-name="Elipse 3980" cx="0.795" cy="0.76" rx="0.795" ry="0.76" transform="translate(71.513 0)" fill="#fff"/>
        <path id="Trazado_99285" data-name="Trazado 99285" d="M422.66,126.062a.8.8,0,1,0,.794-.76A.777.777,0,0,0,422.66,126.062Z" transform="translate(-358.298 -125.302)" fill="#fff"/>
        <ellipse id="Elipse_3981" data-name="Elipse 3981" cx="0.795" cy="0.76" rx="0.795" ry="0.76" transform="translate(57.21 0)" fill="#fff"/>
        <path id="Trazado_99286" data-name="Trazado 99286" d="M439.553,126.062a.8.8,0,1,0,.8-.76A.778.778,0,0,0,439.553,126.062Z" transform="translate(-389.494 -125.302)" fill="#fff"/>
        <path id="Trazado_99287" data-name="Trazado 99287" d="M448,126.062a.8.8,0,1,0,.794-.76A.778.778,0,0,0,448,126.062Z" transform="translate(-405.091 -125.302)" fill="#fff"/>
        <ellipse id="Elipse_3982" data-name="Elipse 3982" cx="0.795" cy="0.76" rx="0.795" ry="0.76" transform="translate(35.756 0)" fill="#fff"/>
        <path id="Trazado_99288" data-name="Trazado 99288" d="M464.892,126.062a.8.8,0,1,0,.8-.76A.778.778,0,0,0,464.892,126.062Z" transform="translate(-436.287 -125.302)" fill="#fff"/>
        <ellipse id="Elipse_3983" data-name="Elipse 3983" cx="0.795" cy="0.76" rx="0.795" ry="0.76" transform="translate(21.454 0)" fill="#fff"/>
        <ellipse id="Elipse_3984" data-name="Elipse 3984" cx="0.795" cy="0.76" rx="0.795" ry="0.76" transform="translate(14.303 0)" fill="#fff"/>
        <path id="Trazado_99289" data-name="Trazado 99289" d="M490.231,126.062a.8.8,0,1,0,.8-.76A.778.778,0,0,0,490.231,126.062Z" transform="translate(-483.08 -125.302)" fill="#fff"/>
        <path id="Trazado_99290" data-name="Trazado 99290" d="M498.677,126.062a.8.8,0,1,0,.8-.76A.778.778,0,0,0,498.677,126.062Z" transform="translate(-498.677 -125.302)" fill="#fff"/>
      </g>
      <g id="Grupo_53317" data-name="Grupo 53317" transform="translate(0 66.87)">
        <ellipse id="Elipse_3985" data-name="Elipse 3985" cx="0.795" cy="0.76" rx="0.795" ry="0.76" transform="translate(71.513 0)" fill="#fff"/>
        <path id="Trazado_99291" data-name="Trazado 99291" d="M422.66,133.57a.8.8,0,1,0,.794-.76A.777.777,0,0,0,422.66,133.57Z" transform="translate(-358.298 -132.81)" fill="#fff"/>
        <ellipse id="Elipse_3986" data-name="Elipse 3986" cx="0.795" cy="0.76" rx="0.795" ry="0.76" transform="translate(57.21 0)" fill="#fff"/>
        <path id="Trazado_99292" data-name="Trazado 99292" d="M439.553,133.57a.8.8,0,1,0,.8-.76A.778.778,0,0,0,439.553,133.57Z" transform="translate(-389.494 -132.81)" fill="#fff"/>
        <path id="Trazado_99293" data-name="Trazado 99293" d="M448,133.57a.8.8,0,1,0,.794-.76A.778.778,0,0,0,448,133.57Z" transform="translate(-405.091 -132.81)" fill="#fff"/>
        <ellipse id="Elipse_3987" data-name="Elipse 3987" cx="0.795" cy="0.76" rx="0.795" ry="0.76" transform="translate(35.756 0)" fill="#fff"/>
        <path id="Trazado_99294" data-name="Trazado 99294" d="M464.892,133.57a.8.8,0,1,0,.8-.76A.778.778,0,0,0,464.892,133.57Z" transform="translate(-436.287 -132.81)" fill="#fff"/>
        <ellipse id="Elipse_3988" data-name="Elipse 3988" cx="0.795" cy="0.76" rx="0.795" ry="0.76" transform="translate(21.454 0)" fill="#fff"/>
        <ellipse id="Elipse_3989" data-name="Elipse 3989" cx="0.795" cy="0.76" rx="0.795" ry="0.76" transform="translate(14.303 0)" fill="#fff"/>
        <path id="Trazado_99295" data-name="Trazado 99295" d="M490.231,133.57a.8.8,0,1,0,.8-.76A.778.778,0,0,0,490.231,133.57Z" transform="translate(-483.08 -132.81)" fill="#fff"/>
        <path id="Trazado_99296" data-name="Trazado 99296" d="M498.677,133.57a.8.8,0,1,0,.8-.76A.778.778,0,0,0,498.677,133.57Z" transform="translate(-498.677 -132.81)" fill="#fff"/>
      </g>
    </g>
    <line id="Línea_138" data-name="Línea 138" y2="75.295" transform="translate(391.602 33.462)" fill="none" stroke="#31313c" stroke-linecap="round" stroke-width="4" stroke-dasharray="8"/>
  </g>
  <g id="Grupo_158034" data-name="Grupo 158034" transform="translate(71.058 0)">
    <g id="Grupo_158033-2" data-name="Grupo 158033" transform="translate(0 0)" clip-path="url(#clip-path-2)">
      <path id="Trazado_152232" data-name="Trazado 152232" d="M487.933,137.862a39.2,39.2,0,1,1,25.451,15.79,38.768,38.768,0,0,1-25.451-15.79m5.388-27.12a26.788,26.788,0,1,0,30.791-22.033,26.776,26.776,0,0,0-30.791,22.033" transform="translate(-364.42 -57.665)" fill="#f2e6dc"/>
      <path id="Trazado_152233" data-name="Trazado 152233" d="M494.039,141.815a37.652,37.652,0,1,1,24.446,15.167,37.239,37.239,0,0,1-24.446-15.167m2.607-26.473a28.334,28.334,0,1,0,32.568-23.3,28.32,28.32,0,0,0-32.568,23.3" transform="translate(-369.269 -62.517)" fill="#fff"/>
      <path id="Trazado_152234" data-name="Trazado 152234" d="M524.869,92.113a28.384,28.384,0,0,0-24.818,21.362l-9.169-1.509a37.625,37.625,0,0,1,33.84-29.14Z" transform="translate(-372.223 -62.842)" fill="#785549"/>
      <path id="Trazado_152235" data-name="Trazado 152235" d="M496.376,223.4A28.325,28.325,0,0,0,541.1,248.765l6,7.1c-.191.143-.383.285-.578.424a37.591,37.591,0,0,1-59.315-34.4Z" transform="translate(-369.276 -168.354)" fill="#31313c"/>
      <path id="Trazado_152236" data-name="Trazado 152236" d="M666.148,98.561a28.186,28.186,0,0,0-13.773-6.392q-1.414-.233-2.817-.321l-.147-9.279a38.341,38.341,0,0,1,4.473.468,37.385,37.385,0,0,1,18.851,8.95Z" transform="translate(-492.431 -62.646)" fill="#785549"/>
      <path id="Trazado_152237" data-name="Trazado 152237" d="M735.642,137.787A37.5,37.5,0,0,1,731,186.863l-6-7.1a28.2,28.2,0,0,0,1.63-38.445l6.584-6.572a38.228,38.228,0,0,1,2.434,3.046" transform="translate(-549.744 -102.231)" fill="#fd9827"/>
      <path id="Trazado_152238" data-name="Trazado 152238" d="M265.194,390.68a79.68,79.68,0,0,1,12.113,17.895c7.5,15.2,8.388,39.856,8.237,47.977H243.156c-.156-3.466-.312-17.427-.468-20.893-3.193,1.683-15.434,19.013-17.2,20.871H175.07c10-13.494,27.449-33.293,39.732-43.208-.888-4.836-1.776-8.374-2.665-13.21l53.056-9.431" transform="translate(-132.751 -296.417)" fill="#363e44"/>
      <path id="Trazado_152239" data-name="Trazado 152239" d="M49.784,249.554c-13.237,2.455-51.873,7.207-49.7,23.376,1.8,13.374,39.223,7.089,52.526,5.5q-1.415-14.439-2.831-28.877" transform="translate(0 -189.342)" fill="#f8b8a4"/>
      <path id="Trazado_152240" data-name="Trazado 152240" d="M205.378,232.863l-4.361,32.4,78.494-18.862-14.536-21.764,15.02-.967q-.242-15.718-.484-31.436L183.09,205.78l1.453,33.371Z" transform="translate(-138.832 -145.855)" fill="#c0c942"/>
      <path id="Trazado_152241" data-name="Trazado 152241" d="M511.714,212.81c4.444.158,34.689-1.095,38.565,6.644,4.071,8.127-18.114,42.759-25.68,52.354a12.252,12.252,0,0,1-4,5.683c-2.6,1.966-4.2,1.253-7.268,2.9-5.174,2.782-5.633,7.694-7.6,7.016-1.351-.466-1.207-3.34-.393-5.928.836-2.656,2.5-4.023,2.18-4.353-.346-.361-1.854,1.245-3.911,3.071-.956.848-2.144,4.791-4.083,4.426-1.546-.291-1.339-4.7.844-7.872,1.544-2.245,4.1-2.928,3.88-3.373-.166-.334-1.68.11-2.871.881-1.965,1.272-3.224,5.293-5,4.922-1.743-.363-1.493-4.209.329-7.255,1.536-2.567,4.426-3.193,4.153-3.748-.191-.39-1.543-.379-4.239.484-2.25.72-6.162,3.568-7.268,1.33-.931-1.882,3.106-4.97,7.354-7.131,2.815-1.431,5.831-2.551,7.545-3.268a22.03,22.03,0,0,0-3.876-1.935c-3.071-1.17-4.326-1.19-4.558-2.657-.239-1.511,2.316-2.115,5.3-2.028,3.556.1,6.055,1.591,7.619,2.145l9.327-16.927c-1.7.121-4.257.215-5.952.336-.08-8.058-.395-16.374-.392-25.721" transform="translate(-370.959 -161.463)" fill="#f8b8a4"/>
      <path id="Trazado_152242" data-name="Trazado 152242" d="M607.945,278.3a.241.241,0,0,1-.214-.354l6.453-12.246a.242.242,0,0,1,.428.225l-6.453,12.246a.242.242,0,0,1-.214.129" transform="translate(-460.806 -201.495)" fill="#363e44"/>
      <path id="Trazado_152243" data-name="Trazado 152243" d="M281.316,320.435a.236.236,0,0,1-.043,0,.241.241,0,0,1-.2-.28l1.381-7.74a.242.242,0,0,1,.476.085l-1.381,7.739a.241.241,0,0,1-.238.2" transform="translate(-213.131 -236.882)" fill="#fff"/>
      <path id="Trazado_152244" data-name="Trazado 152244" d="M270.189,318.411a.23.23,0,0,1-.043,0,.241.241,0,0,1-.2-.28l1.381-7.74a.242.242,0,0,1,.476.085l-1.381,7.74a.242.242,0,0,1-.238.2" transform="translate(-204.694 -235.346)" fill="#fff"/>
      <path id="Trazado_152245" data-name="Trazado 152245" d="M251.041,330.792a4.2,4.2,0,0,1-3.459-1.824,4.145,4.145,0,0,1-.655-3.13l4.322-22.818a1.95,1.95,0,0,1,2.279-1.552l4.391.829a1.948,1.948,0,0,1,1.555,2.275l-4.322,22.818a4.191,4.191,0,0,1-4.111,3.4m2.122-28.876a1.468,1.468,0,0,0-1.439,1.193L247.4,325.928a3.7,3.7,0,0,0,2.949,4.317,3.705,3.705,0,0,0,4.325-2.944L259,304.483a1.465,1.465,0,0,0-1.169-1.711l-4.39-.829a1.506,1.506,0,0,0-.276-.026" transform="translate(-187.182 -228.704)" fill="#fff"/>
      <path id="Trazado_152246" data-name="Trazado 152246" d="M277.959,221.188l-4.873-.919,5.009-26.445,4.872.92Zm-4.308-1.3,3.922.74,4.83-25.5-3.923-.741Z" transform="translate(-207.074 -147.058)" fill="#fff"/>
      <path id="Trazado_152247" data-name="Trazado 152247" d="M21.434,300.118c11.079,2.323,37.44,6.5,40,7.014,4.78.954,15.023,2.7,15.056,6.043a3.435,3.435,0,0,1-1.888,2.857,3.47,3.47,0,0,1,.694,3.78,3.641,3.641,0,0,1-2.629,1.966,2.912,2.912,0,0,1,1.119,2.739,3.058,3.058,0,0,1-3.363,2.274,3.406,3.406,0,0,1,.037,2.469,3.588,3.588,0,0,1-3.324,2.12c-4.248-.845-11.084-1.08-19.243-1.86-19.164-1.831-27.632-3.45-36.729-6.008A15.251,15.251,0,0,1,.246,311.046c7.112-3.687,14.076-7.241,21.188-10.928" transform="translate(-0.187 -227.706)" fill="#f8b8a4"/>
      <path id="Trazado_152248" data-name="Trazado 152248" d="M108.944,301.83a.241.241,0,0,1-.049-.005c-2.262-.464-7.271-1.447-12.116-2.4s-9.856-1.934-12.12-2.4a.241.241,0,1,1,.1-.473c2.262.464,7.271,1.447,12.116,2.4s9.856,1.934,12.12,2.4a.241.241,0,0,1-.048.477" transform="translate(-64.049 -224.999)" fill="#363e44"/>
      <path id="Trazado_152249" data-name="Trazado 152249" d="M285.742,347.876a.245.245,0,0,1-.063-.008.241.241,0,0,1-.171-.3l.557-2.067a.242.242,0,0,1,.467.125l-.558,2.067a.242.242,0,0,1-.233.179" transform="translate(-216.487 -262.006)" fill="#363e44"/>
      <path id="Trazado_152250" data-name="Trazado 152250" d="M279.92,369.627a.245.245,0,0,1-.063-.008.241.241,0,0,1-.171-.3l.557-2.067a.242.242,0,0,1,.467.125l-.558,2.068a.242.242,0,0,1-.233.179" transform="translate(-212.073 -278.509)" fill="#363e44"/>
      <path id="Trazado_152251" data-name="Trazado 152251" d="M274.235,391.841a.247.247,0,0,1-.063-.008.241.241,0,0,1-.171-.3l.557-2.068a.242.242,0,0,1,.467.125l-.558,2.068a.242.242,0,0,1-.233.178" transform="translate(-207.762 -295.363)" fill="#363e44"/>
      <path id="Trazado_152252" data-name="Trazado 152252" d="M268.665,411.881a.244.244,0,0,1-.063-.008.241.241,0,0,1-.171-.3l.557-2.067a.242.242,0,0,1,.467.125L268.9,411.7a.242.242,0,0,1-.233.179" transform="translate(-203.538 -310.568)" fill="#363e44"/>
      <path id="Trazado_152253" data-name="Trazado 152253" d="M365.638,11.132A11.153,11.153,0,1,1,354.485,0a11.143,11.143,0,0,1,11.153,11.132" transform="translate(-260.34 0)" fill="#363e44"/>
      <path id="Trazado_152254" data-name="Trazado 152254" d="M393.058,80.006c9.112.774,12.676,4.215,14.173,6.892,2.907,5.2,1.231,8.776,4,15.6a25.143,25.143,0,0,0,9.448,11.123,27.594,27.594,0,0,1-22.046,7.617,73.588,73.588,0,0,0-5.572-41.23" transform="translate(-298.046 -60.702)" fill="#363e44"/>
      <path id="Trazado_152255" data-name="Trazado 152255" d="M352.108,89.544c.612-.059,6.479-.539,10.014,3.466,2.63,2.98,2.946,6.8,2.5,13.3-.521,7.649-1.9,12.149-4.108,13.659-3.485,2.386-13.929-2.95-17.857-9.628a15.377,15.377,0,0,1,.485-15.8c2.988-4.756,8.573-4.96,8.964-5" transform="translate(-258.347 -67.903)" fill="#f8b8a4"/>
      <path id="Trazado_152256" data-name="Trazado 152256" d="M367.03,203.906h0a5.626,5.626,0,0,1-5.631-5.62v-5.3a5.631,5.631,0,0,1,11.262,0v5.3a5.626,5.626,0,0,1-5.631,5.62" transform="translate(-274.039 -142.159)" fill="#f8b8a4"/>
      <path id="Trazado_152257" data-name="Trazado 152257" d="M363.9,186.614a9.609,9.609,0,0,1-2.078-.255c-4.551-1.017-11-5.034-13.918-9.994a.241.241,0,0,1,.417-.244c2.85,4.846,9.157,8.771,13.607,9.767,1.776.4,3.151.31,3.976-.252a.242.242,0,1,1,.273.4,4.01,4.01,0,0,1-2.277.579" transform="translate(-263.784 -133.537)" fill="#363e44"/>
      <path id="Trazado_152258" data-name="Trazado 152258" d="M363.725,85.712c2.35,5.288-5.935,10.775-13.224,8.707-4.263-1.209-8.244-5.625-7.369-8.309,1.505-4.618,18.18-5.828,20.593-.4" transform="translate(-260.096 -62.305)" fill="#363e44"/>
      <path id="Trazado_152259" data-name="Trazado 152259" d="M444.718,129.823a10.128,10.128,0,0,1-2.313,3.8c-.354.353-2.521-3.155-2.023-3.331a10.193,10.193,0,0,1,4.336-.464" transform="translate(-333.874 -98.453)" fill="#fff"/>
      <path id="Trazado_152260" data-name="Trazado 152260" d="M419.949,137.417a9.561,9.561,0,0,0,5.813-1.176,7.149,7.149,0,0,0,1.2-.973,3.983,3.983,0,0,0-2.022-3.33,7.2,7.2,0,0,0-1.478.712,9.527,9.527,0,0,0-3.518,4.767" transform="translate(-318.436 -100.104)" fill="#363e44"/>
      <path id="Trazado_152261" data-name="Trazado 152261" d="M257.829,69.43a25.347,25.347,0,1,1-25.347-25.3,25.324,25.324,0,0,1,25.347,25.3" transform="translate(-157.065 -33.483)" fill="#e2a18d"/>
      <path id="Trazado_152262" data-name="Trazado 152262" d="M231.724,94.213a25.542,25.542,0,1,1,25.589-25.542,25.51,25.51,0,0,1-25.589,25.542m0-50.6a25.111,25.111,0,0,0-25.105,25.059A25.083,25.083,0,0,0,231.724,93.73a25.059,25.059,0,1,0,0-50.118" transform="translate(-156.307 -32.724)" fill="#fff"/>
      <path id="Trazado_152263" data-name="Trazado 152263" d="M269.678,221.974a21.314,21.314,0,0,1-13.4-4.67.242.242,0,1,1,.3-.378,21.088,21.088,0,0,0,22.392,2.41.241.241,0,1,1,.214.433,21.334,21.334,0,0,1-9.509,2.206" transform="translate(-194.261 -164.546)" fill="#fff"/>
      <path id="Trazado_152264" data-name="Trazado 152264" d="M377.32,94.061a.242.242,0,0,1-.233-.178,20.967,20.967,0,0,0-5.941-9.813.242.242,0,1,1,.33-.353,21.446,21.446,0,0,1,6.077,10.039.241.241,0,0,1-.233.3" transform="translate(-281.372 -63.469)" fill="#fff"/>
      <path id="Trazado_152265" data-name="Trazado 152265" d="M294.462,63.754a.242.242,0,0,1-.13-.038A21.1,21.1,0,0,0,274.174,62.4a.241.241,0,1,1-.2-.437,21.588,21.588,0,0,1,20.622,1.342.241.241,0,0,1-.13.445" transform="translate(-207.638 -45.497)" fill="#fff"/>
      <path id="Trazado_152266" data-name="Trazado 152266" d="M233.072,185.634a.242.242,0,0,1-.173-.073,21.622,21.622,0,0,1-4.865-7.794.242.242,0,0,1,.456-.162,21.138,21.138,0,0,0,4.755,7.62.241.241,0,0,1-.173.409" transform="translate(-172.902 -134.63)" fill="#fff"/>
      <path id="Trazado_152267" data-name="Trazado 152267" d="M345.48,135.238a39.57,39.57,0,0,1-16.805,4.09c-1.954,0,1.733-15.61,3.588-14.726a39.582,39.582,0,0,1,13.218,10.636" transform="translate(-248.804 -94.511)" fill="#fff"/>
      <path id="Trazado_152268" data-name="Trazado 152268" d="M254.789,116.142a28.07,28.07,0,0,0-6.038-2.1c-11.615-2.561-22.822,3.455-22.822,3.455s7.625,10.169,19.24,12.73a27.922,27.922,0,0,0,6.011.634,15.5,15.5,0,0,0,3.608-14.718" transform="translate(-171.316 -86.043)" fill="#363e44"/>
      <rect id="Rectángulo_35066" data-name="Rectángulo 35066" width="36.45" height="43.684" transform="translate(135.86 118.497)" fill="#785549"/>
      <rect id="Rectángulo_35067" data-name="Rectángulo 35067" width="36.45" height="66.81" transform="translate(186.401 95.372)" fill="#785549"/>
      <path id="Trazado_152269" data-name="Trazado 152269" d="M687.87,540.041a.241.241,0,0,1-.242-.241V501.273a.242.242,0,0,1,.483,0V539.8a.241.241,0,0,1-.242.241" transform="translate(-521.41 -380.143)" fill="#776e42"/>
      <rect id="Rectángulo_35068" data-name="Rectángulo 35068" width="36.45" height="94.526" transform="translate(236.943 67.656)" fill="#785549"/>
      <path id="Trazado_152270" data-name="Trazado 152270" d="M1106.038,380.166a.241.241,0,0,1-.242-.241V290.556a.242.242,0,0,1,.484,0v89.369a.241.241,0,0,1-.242.241" transform="translate(-838.496 -220.268)" fill="#776e42"/>
      <path id="Trazado_152271" data-name="Trazado 152271" d="M896.17,466.911a.241.241,0,0,1-.242-.241V404.886a.242.242,0,0,1,.483,0v61.783a.241.241,0,0,1-.242.241" transform="translate(-679.359 -307.012)" fill="#776e42"/>
      <path id="Trazado_152272" data-name="Trazado 152272" d="M745.9,252.242h4.551a41.927,41.927,0,0,0,1.727,6.447l-3.938,2.269,7.7,13.313L759.885,272a42.572,42.572,0,0,0,4.724,4.715l-2.279,3.94,13.337,7.686h0l2.273-3.931a42.105,42.105,0,0,0,6.458,1.724v4.542h15.4v-4.542a42.105,42.105,0,0,0,6.458-1.724l2.274,3.931,13.337-7.686-2.279-3.94A42.546,42.546,0,0,0,824.315,272l3.947,2.275,7.7-13.313-3.938-2.269a41.906,41.906,0,0,0,1.727-6.447h4.55V236.87h-4.55a41.9,41.9,0,0,0-1.727-6.447l3.938-2.269-7.7-13.313-3.947,2.275a42.549,42.549,0,0,0-4.724-4.715l2.279-3.94-13.337-7.686-2.274,3.931a42.107,42.107,0,0,0-6.458-1.724v-4.542H784.4v4.542a42.107,42.107,0,0,0-6.458,1.724l-2.273-3.931-13.338,7.686,2.279,3.94a42.575,42.575,0,0,0-4.724,4.715l-3.947-2.275-7.7,13.313,3.938,2.269a41.925,41.925,0,0,0-1.727,6.447H745.9Zm47.038-33.147a25.475,25.475,0,1,1-26.344,26.295,25.59,25.59,0,0,1,26.344-26.295" transform="translate(-565.595 -150.56)" fill="#31313c"/>
      <path id="Trazado_152273" data-name="Trazado 152273" d="M833.742,317.961a33.987,33.987,0,0,1-32.917-25.39.317.317,0,0,1,.613-.159,33.368,33.368,0,1,0,37.3-41.334.316.316,0,0,1-.266-.36.32.32,0,0,1,.36-.266,33.941,33.941,0,0,1-5.092,67.508" transform="translate(-607.237 -190.022)" fill="#f2e6dc"/>
    </g>
  </g>
</svg>
