<svg xmlns="http://www.w3.org/2000/svg" xmlns:xlink="http://www.w3.org/1999/xlink" width="77" height="77" viewBox="0 0 77 77">
  <defs>
    <clipPath id="clip-path">
      <rect id="Rectángulo_35735" data-name="Rectángulo 35735" width="47.997" height="48" fill="#31313c"/>
    </clipPath>
  </defs>
  <g id="Grupo_158268" data-name="Grupo 158268" transform="translate(-656.891 -1571.821)">
    <circle id="Elipse_4724" data-name="Elipse 4724" cx="38.5" cy="38.5" r="38.5" transform="translate(656.891 1571.821)" fill="#fd9827"/>
    <g id="Grupo_158957" data-name="Grupo 158957" transform="translate(671.891 1586.821)">
      <g id="Grupo_158957-2" data-name="Grupo 158957" transform="translate(0 0)" clip-path="url(#clip-path)">
        <path id="Trazado_154567" data-name="Trazado 154567" d="M76.178,44.9a2.268,2.268,0,0,0-.092.254,3.415,3.415,0,0,1-2.467,2.686,3.461,3.461,0,0,1-3.5-.9,1.125,1.125,0,0,0-.675-.29q-2.624-.036-5.249-.007A2.638,2.638,0,0,1,62.15,45.8q-1.609-1.671-3.281-3.281A2.622,2.622,0,0,1,58,40.433c.028-.858,0-1.718.011-2.577a.9.9,0,0,0-.3-.733A3.5,3.5,0,0,1,56.7,34a.956.956,0,0,0-.138-.628c-.731-1.013-1.5-2-2.236-3.007a.533.533,0,0,0-.663-.233,6.318,6.318,0,1,1,.019-12.262.523.523,0,0,0,.664-.213c.729-1.014,1.494-2,2.224-3.016a.879.879,0,0,0,.144-.586,3.67,3.67,0,0,1,1.04-3.261A.912.912,0,0,0,58,10.236c.024-.952.017-1.905.01-2.858a2.341,2.341,0,0,1,.731-1.761q1.784-1.762,3.547-3.545A2.289,2.289,0,0,1,64,1.362c1.781.01,3.562,0,5.343.009a.948.948,0,0,0,.816-.329A4.033,4.033,0,0,1,72.054,0h1.125c.1.034.2.073.3.1a3.494,3.494,0,0,1,2.553,2.516c.047.159.1.317.146.476v.844A.683.683,0,0,0,76.1,4.1a3.382,3.382,0,0,1-2.523,2.791,3.418,3.418,0,0,1-3.607-1.082.8.8,0,0,0-.519-.213c-1.046-.02-2.1.073-3.136-.032a2.768,2.768,0,0,0-2.7,1.133c-.4.515-1.088.871-1.314,1.433a5.685,5.685,0,0,0-.07,1.992,1.332,1.332,0,0,0,1.12,1.129c2.03,0,4.06.009,6.09-.012a1.011,1.011,0,0,0,.625-.279,3.457,3.457,0,0,1,3.427-1,3.388,3.388,0,0,1,2.528,2.455c.053.175.108.35.162.525v.844a.69.69,0,0,0-.079.161,3.384,3.384,0,0,1-2.524,2.791A3.419,3.419,0,0,1,70,15.683a.8.8,0,0,0-.517-.208q-3.069-.021-6.138,0a.856.856,0,0,0-.556.232,3.745,3.745,0,0,1-2.339,1.161.671.671,0,0,0-.418.22q-1.223,1.6-2.409,3.228a.48.48,0,0,0-.047.4c.537,1.173.543,1.171,1.819,1.171h.656c.781,0,1.562-.008,2.343.011a.635.635,0,0,1,.668.644.661.661,0,0,1-.631.73,4.631,4.631,0,0,1-.608.02c-1.1,0-2.209,0-3.328,0v1.369H69.13V23.3h-2.97c-.125,0-.25,0-.374-.007a.727.727,0,0,1-.743-.692.705.705,0,0,1,.77-.7c1.171-.011,2.343-.016,3.514,0a1,1,0,0,0,.809-.345,3.336,3.336,0,0,1,3.435-.934,3.409,3.409,0,0,1,2.487,2.554c.042.148.081.3.121.446v.75a.8.8,0,0,0-.074.169,3.367,3.367,0,0,1-2.493,2.817,3.423,3.423,0,0,1-3.592-1.009.872.872,0,0,0-.562-.226c-1.593-.018-3.187-.01-4.781-.01-2.047,0-4.094-.005-6.14.01a.656.656,0,0,0-.488.214,12.427,12.427,0,0,0-.593,1.181c.849,1.129,1.7,2.268,2.563,3.394a.678.678,0,0,0,.423.213,3.735,3.735,0,0,1,2.342,1.157.856.856,0,0,0,.554.236q3.046.025,6.093,0a1.01,1.01,0,0,0,.627-.275,3.532,3.532,0,0,1,6.022,1.674c.025.1.065.2.1.3v.844a.686.686,0,0,0-.079.161A3.523,3.523,0,0,1,70,36.959a.737.737,0,0,0-.472-.206q-3.116-.021-6.232,0a.726.726,0,0,0-.417.133,1.44,1.44,0,0,0-.664,1.468c.066.379-.02.782.024,1.168a1.18,1.18,0,0,0,.272.641c.631.671,1.28,1.327,1.955,1.953a1.2,1.2,0,0,0,.726.295c1.374.028,2.749,0,4.123.02a.932.932,0,0,0,.763-.331,3.336,3.336,0,0,1,3.41-1.021,3.386,3.386,0,0,1,2.529,2.455c.053.175.108.35.162.525ZM52.1,28.908a4.913,4.913,0,1,0-4.871-4.967A4.9,4.9,0,0,0,52.1,28.908M69.143,43.827h-.558c-1.264,0-2.529-.011-3.793.005a1.355,1.355,0,0,1-1.074-.449c-.821-.855-1.665-1.69-2.514-2.517a1.192,1.192,0,0,1-.39-.956c.019-.588.005-1.177.005-1.788H59.413c0,.821-.035,1.617.017,2.407a1.541,1.541,0,0,0,.378.9c1.1,1.15,2.246,2.256,3.361,3.393a1.28,1.28,0,0,0,.992.418c1.53-.012,3.059,0,4.589-.007.133,0,.265-.023.395-.036ZM60.819,9.872c0-.628-.038-1.235.016-1.834a1.531,1.531,0,0,1,.351-.862q1.281-1.364,2.647-2.648a1.345,1.345,0,0,1,.818-.335c1.326-.035,2.653-.016,3.979-.016h.507V2.819a.715.715,0,0,0-.152-.04c-1.685,0-3.371-.015-5.057.008a1.056,1.056,0,0,0-.646.3c-1.2,1.166-2.374,2.349-3.547,3.537a.9.9,0,0,0-.3.509c-.029.915-.014,1.832-.014,2.74ZM70.54,3.507a2.1,2.1,0,0,0,2.1,2.116A2.129,2.129,0,0,0,74.753,3.5a2.128,2.128,0,0,0-2.094-2.092,2.1,2.1,0,0,0-2.119,2.1M60.2,11.249a2.108,2.108,0,0,0-.082,4.215,2.108,2.108,0,1,0,.082-4.215m12.466,0a2.108,2.108,0,0,0-.075,4.215,2.108,2.108,0,1,0,.075-4.215M58.071,34.607a2.1,2.1,0,0,0,2.084,2.135,2.108,2.108,0,0,0,.054-4.215,2.1,2.1,0,0,0-2.138,2.081m12.469.012a2.1,2.1,0,0,0,2.1,2.122,2.108,2.108,0,0,0,.028-4.216A2.1,2.1,0,0,0,70.54,34.62m0,9.847a2.1,2.1,0,0,0,2.1,2.118,2.108,2.108,0,0,0,.019-4.216,2.1,2.1,0,0,0-2.121,2.1m0-20.484a2.084,2.084,0,0,0,2.1,2.114,2.1,2.1,0,1,0,.026-4.2,2.083,2.083,0,0,0-2.124,2.087M63.66,35.3h5.478V33.968H63.66Zm0-21.268H69.13V12.677H63.663ZM56.54,19.4l2.1-2.825-1.124-.842-2.1,2.813,1.116.854m2.093,12.02-2.118-2.81-1.116.853,2.113,2.8,1.121-.845" transform="translate(-28.181 0)" fill="#31313c"/>
        <path id="Trazado_154568" data-name="Trazado 154568" d="M27.09,0c.125.055.248.115.375.164a2.376,2.376,0,0,1,1.447,3.213c-.18.465-.35.935-.538,1.4-.195.477-.56.658-.956.493s-.526-.525-.344-1.019c.156-.425.322-.845.485-1.267a1.061,1.061,0,0,0-1.095-1.572c-1.2-.009-2.406,0-3.609,0-.453,0-.906,0-1.359,0A1.2,1.2,0,0,0,20.18,2.717c-.013.609,0,1.219-.005,1.828a2.58,2.58,0,0,1-1.782,2.537c-.8.311-1.589.643-2.375.984a2.58,2.58,0,0,1-3.053-.55c-.435-.426-.857-.867-1.3-1.289A1.177,1.177,0,0,0,9.852,6.22Q8.034,8.014,6.239,9.831a1.175,1.175,0,0,0,.008,1.814c.425.437.864.859,1.29,1.294a2.6,2.6,0,0,1,.546,3.055c-.351.8-.68,1.607-1,2.419a2.591,2.591,0,0,1-2.521,1.741c-.625,0-1.25-.009-1.875,0a1.187,1.187,0,0,0-1.267,1.265Q1.4,24,1.424,26.578A1.188,1.188,0,0,0,2.7,27.833c.656.012,1.312-.014,1.968.007a2.492,2.492,0,0,1,2.361,1.62c.382.887.757,1.778,1.112,2.676a2.52,2.52,0,0,1-.518,2.821c-.434.47-.9.906-1.353,1.364A1.192,1.192,0,0,0,6.28,38.2q1.75,1.762,3.513,3.512a1.2,1.2,0,0,0,1.919.01c.436-.426.858-.865,1.3-1.289a2.555,2.555,0,0,1,2.977-.521c.83.357,1.67.693,2.5,1.038a2.5,2.5,0,0,1,1.68,2.365c.023.639,0,1.28.01,1.921a1.221,1.221,0,0,0,1.375,1.347,6.76,6.76,0,0,1,.8.012.647.647,0,0,1,.623.693.631.631,0,0,1-.626.685,6.265,6.265,0,0,1-1.4-.03,2.561,2.561,0,0,1-2.169-2.559c-.02-.64,0-1.281-.007-1.921a1.182,1.182,0,0,0-.872-1.238c-.81-.326-1.617-.658-2.419-1a1.209,1.209,0,0,0-1.566.292c-.434.428-.856.867-1.3,1.29a2.559,2.559,0,0,1-3.7.012q-1.894-1.85-3.744-3.744a2.543,2.543,0,0,1,.014-3.658c.433-.451.886-.882,1.322-1.329a1.229,1.229,0,0,0,.264-1.575c-.339-.787-.663-1.581-.98-2.377a1.214,1.214,0,0,0-1.273-.9c-.625,0-1.25.007-1.875,0A2.584,2.584,0,0,1,.018,26.63c-.023-1.764-.027-3.53,0-5.295a2.575,2.575,0,0,1,2.606-2.581c.656-.013,1.312,0,1.968,0a1.166,1.166,0,0,0,1.154-.792q.534-1.3,1.077-2.589a1.2,1.2,0,0,0-.267-1.419c-.44-.444-.887-.88-1.324-1.327a2.568,2.568,0,0,1,.021-3.794Q7.021,7.047,8.8,5.281a2.6,2.6,0,0,1,3.934.018c.4.4.792.8,1.194,1.192a1.2,1.2,0,0,0,1.528.283c.817-.348,1.637-.691,2.463-1.018a1.2,1.2,0,0,0,.851-1.208c0-.453,0-.906,0-1.359C18.771,1.321,19.2.68,20.9,0Z" transform="translate(0 0)" fill="#31313c"/>
        <path id="Trazado_154569" data-name="Trazado 154569" d="M39.419,48.379c-.339-.889-.636-1.727-.989-2.542a.751.751,0,0,0-.542-.31A10.464,10.464,0,0,1,28.872,32.01a9.965,9.965,0,0,1,8.4-7.209c.855-.143,1.295-.417,1.5-1.229a14.608,14.608,0,0,1,.608-1.616,18.41,18.41,0,0,0-1.927.009,13.242,13.242,0,0,0-11.8,11.617,12.913,12.913,0,0,0,2.5,9.452c.453.621.475,1,.065,1.3-.381.27-.76.126-1.192-.453a14.668,14.668,0,0,1,9.294-23.155c1.177-.2,2.387-.2,3.656-.305.193-.5.42-1.092.655-1.683.2-.5.567-.7.98-.531a.725.725,0,0,1,.331,1.027q-1.1,2.86-2.208,5.716a1.7,1.7,0,0,1-1.563,1.14,9.042,9.042,0,0,0-.566,17.98c.217.024.434.057.651.076a1.568,1.568,0,0,1,1.433,1.038c1.411,3.651,2.828,7.3,4.2,10.963a2.443,2.443,0,0,1-2.28,3,11.533,11.533,0,0,1-1.171.005.7.7,0,1,1,0-1.4c.328-.014.657.007.984-.008a1.044,1.044,0,0,0,1.006-1.5c-.77-2.01-1.546-4.017-2.3-6.032a.54.54,0,0,0-.638-.42,14.327,14.327,0,0,1-9.618-3.015c-.155-.119-.372-.3-.373-.446a1.217,1.217,0,0,1,.24-.779c.254-.276.584-.152.892.039.926.574,1.832,1.193,2.807,1.67a12.269,12.269,0,0,0,5.4,1.164c.169,0,.338-.022.571-.039" transform="translate(-14.85 -11.159)" fill="#31313c"/>
      </g>
    </g>
  </g>
</svg>
