<svg id="Grupo_159088" data-name="Grupo 159088" xmlns="http://www.w3.org/2000/svg" width="377.36" height="354.04" viewBox="0 0 377.36 354.04">
  <g id="Grupo_159089" data-name="Grupo 159089">
    <path id="Trazado_155397" data-name="Trazado 155397" d="M136.284,57.886s31.722,4.749,36.621-25.637C178.12-.106,148.322-6.272,134.2,5.593S121.1,31.08,121.1,31.08s-8.1-8.936-18.822-.053c-7.868,6.52-5.386,18.733-5.386,18.733s-16.375-2.3-16.3,12.215A32.2,32.2,0,0,0,90.2,84.813Z" transform="translate(72.029 0)"/>
    <path id="Trazado_155398" data-name="Trazado 155398" d="M223.372,73.1s4.816,1.2,5.963,3,.835,8.946.835,8.946,49.2,4.749,98.875,60.912c50.261,56.821,56.751,90.815,40.137,115.591-21.946,32.727-97.481,23.893-97.481,23.893s-18.206,2.672-83.023,1.682c-59.883-.915-93.285-1.682-93.285-1.682S-7.751,310.3.466,242c10.9-90.581,119.581-148.688,140.592-156.957a113.91,113.91,0,0,1,36.3-7.658s.945-3.484,1.981-4.087c5.537-3.216,44.031-.2,44.031-.2" transform="translate(0 64.186)" fill="#fd9827"/>
    <path id="Trazado_155399" data-name="Trazado 155399" d="M117.925,40.969s22.456-9.586,24.2,7.8C144.155,68.917,120.078,69.1,120.078,69.1Z" transform="translate(105.392 34.259)" fill="#fac5b5"/>
    <path id="Trazado_155400" data-name="Trazado 155400" d="M124.41,56.48a1.211,1.211,0,0,1-.619-.169,1.231,1.231,0,0,1-.443-1.685l7.493-12.845a1.234,1.234,0,0,1,2.13,1.244l-7.493,12.843a1.237,1.237,0,0,1-1.068.612" transform="translate(110.088 36.793)"/>
    <path id="Trazado_155403" data-name="Trazado 155403" d="M132.037,48.433l-6.427-.108a1.23,1.23,0,0,1-1.21-1.252,1.215,1.215,0,0,1,1.252-1.212l6.406.106a1.233,1.233,0,0,1-.021,2.466" transform="translate(111.179 40.987)"/>
    <path id="Trazado_155404" data-name="Trazado 155404" d="M96.635,68.709l-.189,23.579a49.668,49.668,0,0,0,20.483,5.1c15.362.261,20.547-8.851,20.547-8.851l-.116-27.645Z" transform="translate(86.196 54.417)" fill="#fac5b5"/>
    <path id="Trazado_155405" data-name="Trazado 155405" d="M96.547,67.62s7.361,19.087,24.8,16.481c14.057-2.1,18.076-22.035,18.076-22.035Z" transform="translate(86.286 55.47)"/>
    <path id="Trazado_155406" data-name="Trazado 155406" d="M159.148,38.341S169,81.5,156.635,100.61c-13.256,20.5-34.6,14.377-42.594,8.234a36.061,36.061,0,0,1-12.985-19.784S86.239,92.011,81.3,79.929C76.112,67.239,85.336,57,92.748,56.394s8.274.744,8.274.744L98.848,43.585s45.048-50.07,60.3-5.244" transform="translate(71.307 17.6)" fill="#fac5b5"/>
    <path id="Trazado_155407" data-name="Trazado 155407" d="M95.694,55.532a1.235,1.235,0,0,1-.8-.3L83.459,45.429a1.233,1.233,0,1,1,1.606-1.871L96.5,53.363a1.233,1.233,0,0,1-.8,2.168" transform="translate(74.205 38.664)"/>
    <path id="Trazado_155408" data-name="Trazado 155408" d="M84.725,54.254a1.233,1.233,0,0,1-.744-2.218l6.749-5.075a1.233,1.233,0,1,1,1.483,1.969l-6.747,5.075a1.223,1.223,0,0,1-.74.248" transform="translate(74.617 41.748)"/>
    <path id="Trazado_155409" data-name="Trazado 155409" d="M102.265,48.034a1.229,1.229,0,0,1-1.227-1.161l-.424-7.259a1.229,1.229,0,0,1,1.157-1.3,1.245,1.245,0,0,1,1.3,1.157l.422,7.259a1.229,1.229,0,0,1-1.157,1.3l-.074,0" transform="translate(89.919 34.241)"/>
    <path id="Trazado_155410" data-name="Trazado 155410" d="M116.942,47.232a1.229,1.229,0,0,1-1.227-1.161l-.426-7.261a1.231,1.231,0,0,1,1.157-1.3,1.273,1.273,0,0,1,1.3,1.159l.424,7.261a1.231,1.231,0,0,1-1.157,1.3c-.025,0-.047,0-.074,0" transform="translate(103.034 33.521)"/>
    <path id="Trazado_155411" data-name="Trazado 155411" d="M110.67,63.6a1.293,1.293,0,0,1-.24-.023,1.234,1.234,0,0,1-.971-1.449,38.346,38.346,0,0,0-1.411-19.687,1.232,1.232,0,0,1,2.286-.92A40.333,40.333,0,0,1,111.878,62.6a1.234,1.234,0,0,1-1.208.994" transform="translate(96.484 36.416)"/>
    <path id="Trazado_155412" data-name="Trazado 155412" d="M122.4,36.232a1.22,1.22,0,0,1-.689-.212c-2.189-1.485-5.827-1.382-7.048-1.216a1.233,1.233,0,0,1-.33-2.443c.212-.03,5.354-.693,8.76,1.619a1.232,1.232,0,0,1-.693,2.252" transform="translate(101.233 28.823)"/>
    <path id="Trazado_155413" data-name="Trazado 155413" d="M100.007,39.571a1.21,1.21,0,0,1-.754-.259,1.233,1.233,0,0,1-.222-1.729c2.524-3.253,7.615-4.214,7.829-4.253a1.232,1.232,0,0,1,.445,2.424c-.044.009-4.384.837-6.323,3.341a1.233,1.233,0,0,1-.975.477" transform="translate(88.277 29.77)"/>
    <path id="Trazado_155414" data-name="Trazado 155414" d="M90.181,44.065s4.657,13.307,6.382,12.766S95.383,35.3,90.37,34.452s-.189,9.613-.189,9.613" transform="translate(78.729 30.747)"/>
    <path id="Trazado_155415" data-name="Trazado 155415" d="M139.513,72.714s-4.645,5.308-16.4,6.7-22.986-7.166-22.986-7.166L93.831,86.89,113.677,96.6,144.9,91.022l-1.316-14.11Z" transform="translate(83.859 64.57)" fill="#f08f24"/>
    <path id="Trazado_155416" data-name="Trazado 155416" d="M112.611,146.629a1.224,1.224,0,0,1-.466-.093c-.49-.2-49.222-19.7-89.372-2.051a1.232,1.232,0,1,1-.99-2.255c41.115-18.079,90.8,1.82,91.294,2.024a1.233,1.233,0,0,1-.466,2.375" transform="translate(18.809 120.337)" fill="#fff"/>
    <path id="Trazado_155417" data-name="Trazado 155417" d="M63.218,144.841a1.254,1.254,0,0,1-.35-.051c-6.639-1.96-28.368-8.811-29.1-14.627-.112-.9.133-2.191,1.939-3.269,9.251-5.537,26.506,13.692,28.44,15.9a1.233,1.233,0,0,1-.926,2.045M39.55,128.353a4.942,4.942,0,0,0-2.583.659c-.3.178-.8.525-.756.843.322,2.557,11.44,7.467,22.924,11.2-5.34-5.39-13.906-12.7-19.585-12.7" transform="translate(30.156 112.517)" fill="#fff"/>
    <path id="Trazado_155423" data-name="Trazado 155423" d="M114.24,91.317a30.363,30.363,0,0,1-6.122-.644,1.233,1.233,0,0,1-.96-1.456,1.246,1.246,0,0,1,1.454-.96c16.856,3.467,24.677-9.37,24.755-9.5a1.232,1.232,0,0,1,2.119,1.257,25.7,25.7,0,0,1-21.246,11.3" transform="translate(95.746 69.847)" fill="#fff"/>
    <path id="Trazado_155424" data-name="Trazado 155424" d="M111.273,63.389c-2.557,0-6.554-1.017-9.4-6.548a1.233,1.233,0,0,1,2.193-1.129c3.464,6.744,8.66,5.081,8.876,5.005a1.233,1.233,0,0,1,.812,2.327,8.309,8.309,0,0,1-2.483.345" transform="translate(90.926 49.194)"/>
    <path id="Trazado_155428" data-name="Trazado 155428" d="M71.7,176s19.221-41.143,22.3-44.074,38.908-15.1,43.781-14.864-2.78,11.1-6.615,14.161-8.785,6.374-8.785,6.374,26.823,0,29.315,4.534S147,150.848,147,150.848s9.6.816,6.156,6.978-29.767,13.053-29.767,13.053-5.024,26.167-22.742,32.368-26,4.446-26,4.446Z" transform="translate(64.077 104.619)" fill="#fac5b5"/>
    <path id="Trazado_155429" data-name="Trazado 155429" d="M88.21,131.635a1.234,1.234,0,0,1-.112-2.462l20.505-1.913a1.233,1.233,0,1,1,.229,2.456l-20.505,1.913c-.04,0-.078.006-.117.006" transform="translate(77.735 113.731)"/>
    <path id="Trazado_155430" data-name="Trazado 155430" d="M94.3,138.44a1.234,1.234,0,0,1-.062-2.466l19.706-1.04a1.282,1.282,0,0,1,1.3,1.168,1.235,1.235,0,0,1-1.168,1.3l-19.706,1.04-.066,0" transform="translate(83.179 120.594)"/>
    <path id="Trazado_155431" data-name="Trazado 155431" d="M99.224,59.176s14.854-1.987,24.471-10.215a38.484,38.484,0,0,0,10.931-16.436s6.37-1.14,15.792,4.036,10.995,22.507,10.995,22.507S176.848,28.8,168.29,18.785s-21.3-.716-21.3-.716,7.512-.373-18.754,8.387S90.884,39.525,90.884,39.525s-9.13-.35-9.842,8.128,3.144,16.873,3.144,16.873a9.87,9.87,0,0,1,9.961-2l6.191,1.952Z" transform="translate(72.351 12.637)"/>
    <path id="Trazado_156125" data-name="Trazado 156125" d="M243.227,179.835s58.2,66.108,46.194,117.346-27.249,52.413-27.249,52.413" transform="translate(11.907)" fill="none" stroke="#fff" stroke-linecap="round" stroke-width="2"/>
    <ellipse id="Elipse_4812" data-name="Elipse 4812" cx="24" cy="9" rx="24" ry="9" transform="matrix(0.985, -0.174, 0.174, 0.985, 295.662, 231.304)" fill="#f08f24"/>
    <g id="Grupo_159139" data-name="Grupo 159139" transform="translate(-3 2.026)">
      <path id="Trazado_155401" data-name="Trazado 155401" d="M160.4,112.206s-5.037,30.862,19.954,29.9,26.323-36.632,26.323-36.632Z" transform="translate(142.979 94.263)" fill="#fac5b5"/>
      <path id="Trazado_155402" data-name="Trazado 155402" d="M192.457,111.765s26.876-48.347,32.082-45.9S160.065,173.33,156.944,171.832s35.513-60.067,35.513-60.067" transform="translate(140.104 58.786)" fill="#465884"/>
      <path id="Trazado_155418" data-name="Trazado 155418" d="M197.473,111.365s22.045-.748,16.133-11.338-45.04-18.568-50.2-7.109,34.068,18.447,34.068,18.447" transform="translate(145.62 78.03)" fill="#fac5b5"/>
      <path id="Trazado_155419" data-name="Trazado 155419" d="M195.458,120.79s22.045-.75,16.133-11.338-45.04-18.568-50.2-7.111,34.068,18.449,34.068,18.449" transform="translate(143.819 86.452)" fill="#fac5b5"/>
      <path id="Trazado_155420" data-name="Trazado 155420" d="M183.556,125.42a27.676,27.676,0,0,0,14.595-1c4.159-1.528,7.611-4.195,4.785-8.757-5.649-9.122-40.56-14.612-44.663-4.278-3.06,7.706,15.591,12.23,25.283,14.032" transform="translate(141.153 94.549)" fill="#fac5b5"/>
      <path id="Trazado_155421" data-name="Trazado 155421" d="M198.874,102.125a1.371,1.371,0,0,1-.193-.015l-30.072-4.693a1.233,1.233,0,0,1,.381-2.437l30.074,4.693a1.234,1.234,0,0,1-.189,2.452" transform="translate(149.757 84.871)"/>
      <path id="Trazado_155422" data-name="Trazado 155422" d="M195.492,111.83a1.371,1.371,0,0,1-.193-.015l-30.072-4.693a1.233,1.233,0,1,1,.381-2.437l30.074,4.693a1.234,1.234,0,0,1-.189,2.452" transform="translate(146.734 93.546)"/>
    </g>
    <path id="Trazado_156126" data-name="Trazado 156126" d="M135.774,312.542c-14.234,14.609-39.047,35.813-39.047,35.813H114.5S150.009,297.933,135.774,312.542Z" fill="#f08f24"/>
  </g>
</svg>
