<svg xmlns="http://www.w3.org/2000/svg" xmlns:xlink="http://www.w3.org/1999/xlink" width="328.662" height="412.321" viewBox="0 0 328.662 412.321">
  <defs>
    <clipPath id="clip-path">
      <rect id="Rectángulo_34881" data-name="Rectángulo 34881" width="91.613" height="46.736" transform="translate(0 9)" fill="#12263f"/>
    </clipPath>
  </defs>
  <g id="Grupo_158204" data-name="Grupo 158204" transform="translate(-237 -3807)">
    <g id="Grupo_157882" data-name="Grupo 157882" transform="translate(235.662 3806.743)">
      <path id="Rectángulo_34948" data-name="Rectángulo 34948" d="M56,0H312a0,0,0,0,1,0,0V296a56,56,0,0,1-56,56H0a0,0,0,0,1,0,0V56A56,56,0,0,1,56,0Z" transform="translate(8 36.779)" fill="#ebc9b1"/>
      <g id="Enmascarar_grupo_63" data-name="Enmascarar grupo 63" transform="translate(238.387 -8.44)" clip-path="url(#clip-path)">
        <path id="Trazado_151731" data-name="Trazado 151731" d="M43.62,68.873A25.254,25.254,0,1,1,68.873,43.62,25.282,25.282,0,0,1,43.62,68.873m0,18.366A43.62,43.62,0,1,0,0,43.62,43.62,43.62,0,0,0,43.62,87.24Z" transform="translate(1.892 12.117)" fill="#fd9827"/>
      </g>
      <g id="Grupo_78301" data-name="Grupo 78301" transform="translate(1.338 0.257)">
        <path id="Trazado_145969" data-name="Trazado 145969" d="M34.219,0A34.219,34.219,0,1,1,0,34.219,34.219,34.219,0,0,1,34.219,0Z" transform="translate(0 3.637)" fill="#fd9827" opacity="0.444" style="mix-blend-mode: multiply;isolation: isolate"/>
        <rect id="Rectángulo_34812" data-name="Rectángulo 34812" width="328.662" height="401.352" transform="translate(0 0)" fill="none"/>
        <path id="Trazado_145971" data-name="Trazado 145971" d="M8.18,0A8.18,8.18,0,1,1,0,8.18,8.18,8.18,0,0,1,8.18,0Z" transform="translate(32.317 368.781)" fill="#31313c" opacity="0.444" style="mix-blend-mode: multiply;isolation: isolate"/>
        <g id="Grupo_80270" data-name="Grupo 80270" transform="translate(6.917 14.716)">
          <path id="Trazado_145968" data-name="Trazado 145968" d="M43.541,0A43.541,43.541,0,1,1,0,43.541,43.541,43.541,0,0,1,43.541,0Z" transform="translate(234.662 310.522)" fill="#31313c" opacity="0.444" style="mix-blend-mode: multiply;isolation: isolate"/>
          <g id="Grupo_78276" data-name="Grupo 78276" transform="translate(251.662 328.522)">
            <g id="Grupo_53306" data-name="Grupo 53306">
              <path id="Trazado_99200" data-name="Trazado 99200" d="M415.4,50.789a.592.592,0,1,1-.592-.565A.579.579,0,0,1,415.4,50.789Z" transform="translate(-414.214 -50.224)" fill="#fff"/>
              <path id="Trazado_99201" data-name="Trazado 99201" d="M423.842,50.789a.592.592,0,1,1-.591-.565A.579.579,0,0,1,423.842,50.789Z" transform="translate(-417.339 -50.224)" fill="#fff"/>
              <path id="Trazado_99202" data-name="Trazado 99202" d="M432.288,50.789a.592.592,0,1,1-.591-.565A.579.579,0,0,1,432.288,50.789Z" transform="translate(-420.464 -50.224)" fill="#fff"/>
              <path id="Trazado_99203" data-name="Trazado 99203" d="M440.736,50.789a.592.592,0,1,1-.592-.565A.579.579,0,0,1,440.736,50.789Z" transform="translate(-423.59 -50.224)" fill="#fff"/>
              <path id="Trazado_99204" data-name="Trazado 99204" d="M449.181,50.789a.592.592,0,1,1-.591-.565A.579.579,0,0,1,449.181,50.789Z" transform="translate(-426.715 -50.224)" fill="#fff"/>
              <path id="Trazado_99205" data-name="Trazado 99205" d="M457.627,50.789a.592.592,0,1,1-.591-.565A.579.579,0,0,1,457.627,50.789Z" transform="translate(-429.84 -50.224)" fill="#fff"/>
              <path id="Trazado_99206" data-name="Trazado 99206" d="M466.075,50.789a.592.592,0,1,1-.592-.565A.579.579,0,0,1,466.075,50.789Z" transform="translate(-432.965 -50.224)" fill="#fff"/>
              <path id="Trazado_99207" data-name="Trazado 99207" d="M474.521,50.789a.592.592,0,1,1-.591-.565A.579.579,0,0,1,474.521,50.789Z" transform="translate(-436.09 -50.224)" fill="#fff"/>
              <path id="Trazado_99208" data-name="Trazado 99208" d="M482.966,50.789a.592.592,0,1,1-.591-.565A.579.579,0,0,1,482.966,50.789Z" transform="translate(-439.215 -50.224)" fill="#fff"/>
              <path id="Trazado_99209" data-name="Trazado 99209" d="M491.414,50.789a.592.592,0,1,1-.592-.565A.579.579,0,0,1,491.414,50.789Z" transform="translate(-442.341 -50.224)" fill="#fff"/>
              <path id="Trazado_99210" data-name="Trazado 99210" d="M499.86,50.789a.592.592,0,1,1-.592-.565A.579.579,0,0,1,499.86,50.789Z" transform="translate(-445.466 -50.224)" fill="#fff"/>
            </g>
            <g id="Grupo_53307" data-name="Grupo 53307" transform="translate(0 4.523)">
              <path id="Trazado_99211" data-name="Trazado 99211" d="M415.4,58.3a.592.592,0,1,1-.592-.565A.579.579,0,0,1,415.4,58.3Z" transform="translate(-414.214 -57.732)" fill="#fff"/>
              <path id="Trazado_99212" data-name="Trazado 99212" d="M423.842,58.3a.592.592,0,1,1-.591-.565A.579.579,0,0,1,423.842,58.3Z" transform="translate(-417.339 -57.732)" fill="#fff"/>
              <path id="Trazado_99213" data-name="Trazado 99213" d="M432.288,58.3a.592.592,0,1,1-.591-.565A.579.579,0,0,1,432.288,58.3Z" transform="translate(-420.464 -57.732)" fill="#fff"/>
              <path id="Trazado_99214" data-name="Trazado 99214" d="M440.736,58.3a.592.592,0,1,1-.592-.565A.579.579,0,0,1,440.736,58.3Z" transform="translate(-423.59 -57.732)" fill="#fff"/>
              <path id="Trazado_99215" data-name="Trazado 99215" d="M449.181,58.3a.592.592,0,1,1-.591-.565A.579.579,0,0,1,449.181,58.3Z" transform="translate(-426.715 -57.732)" fill="#fff"/>
              <path id="Trazado_99216" data-name="Trazado 99216" d="M457.627,58.3a.592.592,0,1,1-.591-.565A.579.579,0,0,1,457.627,58.3Z" transform="translate(-429.84 -57.732)" fill="#fff"/>
              <path id="Trazado_99217" data-name="Trazado 99217" d="M466.075,58.3a.592.592,0,1,1-.592-.565A.579.579,0,0,1,466.075,58.3Z" transform="translate(-432.965 -57.732)" fill="#fff"/>
              <path id="Trazado_99218" data-name="Trazado 99218" d="M474.521,58.3a.592.592,0,1,1-.591-.565A.579.579,0,0,1,474.521,58.3Z" transform="translate(-436.09 -57.732)" fill="#fff"/>
              <path id="Trazado_99219" data-name="Trazado 99219" d="M482.966,58.3a.592.592,0,1,1-.591-.565A.579.579,0,0,1,482.966,58.3Z" transform="translate(-439.215 -57.732)" fill="#fff"/>
              <path id="Trazado_99220" data-name="Trazado 99220" d="M491.414,58.3a.592.592,0,1,1-.592-.565A.579.579,0,0,1,491.414,58.3Z" transform="translate(-442.341 -57.732)" fill="#fff"/>
              <path id="Trazado_99221" data-name="Trazado 99221" d="M499.86,58.3a.592.592,0,1,1-.592-.565A.579.579,0,0,1,499.86,58.3Z" transform="translate(-445.466 -57.732)" fill="#fff"/>
            </g>
            <g id="Grupo_53308" data-name="Grupo 53308" transform="translate(0 9.047)">
              <ellipse id="Elipse_3955" data-name="Elipse 3955" cx="0.591" cy="0.565" rx="0.591" ry="0.565" fill="#fff"/>
              <path id="Trazado_99222" data-name="Trazado 99222" d="M423.842,65.805a.592.592,0,1,1-.591-.565A.579.579,0,0,1,423.842,65.805Z" transform="translate(-417.339 -65.24)" fill="#fff"/>
              <ellipse id="Elipse_3956" data-name="Elipse 3956" cx="0.591" cy="0.565" rx="0.591" ry="0.565" transform="translate(10.642)" fill="#fff"/>
              <path id="Trazado_99223" data-name="Trazado 99223" d="M440.736,65.805a.592.592,0,1,1-.592-.565A.579.579,0,0,1,440.736,65.805Z" transform="translate(-423.589 -65.24)" fill="#fff"/>
              <path id="Trazado_99224" data-name="Trazado 99224" d="M449.181,65.805a.592.592,0,1,1-.591-.565A.579.579,0,0,1,449.181,65.805Z" transform="translate(-426.715 -65.24)" fill="#fff"/>
              <ellipse id="Elipse_3957" data-name="Elipse 3957" cx="0.591" cy="0.565" rx="0.591" ry="0.565" transform="translate(26.606)" fill="#fff"/>
              <path id="Trazado_99225" data-name="Trazado 99225" d="M466.075,65.805a.592.592,0,1,1-.592-.565A.58.58,0,0,1,466.075,65.805Z" transform="translate(-432.965 -65.24)" fill="#fff"/>
              <ellipse id="Elipse_3958" data-name="Elipse 3958" cx="0.591" cy="0.565" rx="0.591" ry="0.565" transform="translate(37.248)" fill="#fff"/>
              <ellipse id="Elipse_3959" data-name="Elipse 3959" cx="0.591" cy="0.565" rx="0.591" ry="0.565" transform="translate(42.569)" fill="#fff"/>
              <path id="Trazado_99226" data-name="Trazado 99226" d="M491.414,65.805a.592.592,0,1,1-.592-.565A.58.58,0,0,1,491.414,65.805Z" transform="translate(-442.341 -65.24)" fill="#fff"/>
              <path id="Trazado_99227" data-name="Trazado 99227" d="M499.86,65.805a.592.592,0,1,1-.592-.565A.579.579,0,0,1,499.86,65.805Z" transform="translate(-445.466 -65.24)" fill="#fff"/>
            </g>
            <g id="Grupo_53309" data-name="Grupo 53309" transform="translate(0 13.57)">
              <ellipse id="Elipse_3960" data-name="Elipse 3960" cx="0.591" cy="0.565" rx="0.591" ry="0.565" transform="translate(0 0)" fill="#fff"/>
              <path id="Trazado_99228" data-name="Trazado 99228" d="M423.842,73.313a.592.592,0,1,1-.591-.566A.578.578,0,0,1,423.842,73.313Z" transform="translate(-417.339 -72.747)" fill="#fff"/>
              <ellipse id="Elipse_3961" data-name="Elipse 3961" cx="0.591" cy="0.565" rx="0.591" ry="0.565" transform="translate(10.642 0)" fill="#fff"/>
              <path id="Trazado_99229" data-name="Trazado 99229" d="M440.736,73.313a.592.592,0,1,1-.592-.566A.579.579,0,0,1,440.736,73.313Z" transform="translate(-423.589 -72.747)" fill="#fff"/>
              <path id="Trazado_99230" data-name="Trazado 99230" d="M449.181,73.313a.592.592,0,1,1-.591-.566A.579.579,0,0,1,449.181,73.313Z" transform="translate(-426.715 -72.747)" fill="#fff"/>
              <ellipse id="Elipse_3962" data-name="Elipse 3962" cx="0.591" cy="0.565" rx="0.591" ry="0.565" transform="translate(26.606 0)" fill="#fff"/>
              <path id="Trazado_99231" data-name="Trazado 99231" d="M466.075,73.313a.592.592,0,1,1-.592-.566A.579.579,0,0,1,466.075,73.313Z" transform="translate(-432.965 -72.747)" fill="#fff"/>
              <ellipse id="Elipse_3963" data-name="Elipse 3963" cx="0.591" cy="0.565" rx="0.591" ry="0.565" transform="translate(37.248 0)" fill="#fff"/>
              <ellipse id="Elipse_3964" data-name="Elipse 3964" cx="0.591" cy="0.565" rx="0.591" ry="0.565" transform="translate(42.569 0)" fill="#fff"/>
              <path id="Trazado_99232" data-name="Trazado 99232" d="M491.414,73.313a.592.592,0,1,1-.592-.566A.579.579,0,0,1,491.414,73.313Z" transform="translate(-442.341 -72.747)" fill="#fff"/>
              <path id="Trazado_99233" data-name="Trazado 99233" d="M499.86,73.313a.592.592,0,1,1-.592-.566A.579.579,0,0,1,499.86,73.313Z" transform="translate(-445.466 -72.747)" fill="#fff"/>
            </g>
            <g id="Grupo_53310" data-name="Grupo 53310" transform="translate(0 18.093)">
              <path id="Trazado_99234" data-name="Trazado 99234" d="M415.4,80.821a.592.592,0,1,1-.592-.566A.579.579,0,0,1,415.4,80.821Z" transform="translate(-414.214 -80.255)" fill="#fff"/>
              <path id="Trazado_99235" data-name="Trazado 99235" d="M423.842,80.821a.592.592,0,1,1-.591-.566A.578.578,0,0,1,423.842,80.821Z" transform="translate(-417.339 -80.255)" fill="#fff"/>
              <path id="Trazado_99236" data-name="Trazado 99236" d="M432.288,80.821a.592.592,0,1,1-.591-.566A.578.578,0,0,1,432.288,80.821Z" transform="translate(-420.464 -80.255)" fill="#fff"/>
              <path id="Trazado_99237" data-name="Trazado 99237" d="M440.736,80.821a.592.592,0,1,1-.592-.566A.579.579,0,0,1,440.736,80.821Z" transform="translate(-423.59 -80.255)" fill="#fff"/>
              <path id="Trazado_99238" data-name="Trazado 99238" d="M449.181,80.821a.592.592,0,1,1-.591-.566A.579.579,0,0,1,449.181,80.821Z" transform="translate(-426.715 -80.255)" fill="#fff"/>
              <path id="Trazado_99239" data-name="Trazado 99239" d="M457.627,80.821a.592.592,0,1,1-.591-.566A.578.578,0,0,1,457.627,80.821Z" transform="translate(-429.84 -80.255)" fill="#fff"/>
              <path id="Trazado_99240" data-name="Trazado 99240" d="M466.075,80.821a.592.592,0,1,1-.592-.566A.579.579,0,0,1,466.075,80.821Z" transform="translate(-432.965 -80.255)" fill="#fff"/>
              <path id="Trazado_99241" data-name="Trazado 99241" d="M474.521,80.821a.592.592,0,1,1-.591-.566A.578.578,0,0,1,474.521,80.821Z" transform="translate(-436.09 -80.255)" fill="#fff"/>
              <path id="Trazado_99242" data-name="Trazado 99242" d="M482.966,80.821a.592.592,0,1,1-.591-.566A.579.579,0,0,1,482.966,80.821Z" transform="translate(-439.215 -80.255)" fill="#fff"/>
              <path id="Trazado_99243" data-name="Trazado 99243" d="M491.414,80.821a.592.592,0,1,1-.592-.566A.579.579,0,0,1,491.414,80.821Z" transform="translate(-442.341 -80.255)" fill="#fff"/>
              <path id="Trazado_99244" data-name="Trazado 99244" d="M499.86,80.821a.592.592,0,1,1-.592-.566A.579.579,0,0,1,499.86,80.821Z" transform="translate(-445.466 -80.255)" fill="#fff"/>
            </g>
            <g id="Grupo_53311" data-name="Grupo 53311" transform="translate(0 22.616)">
              <ellipse id="Elipse_3965" data-name="Elipse 3965" cx="0.591" cy="0.565" rx="0.591" ry="0.565" transform="translate(0 0)" fill="#fff"/>
              <path id="Trazado_99245" data-name="Trazado 99245" d="M423.842,88.329a.592.592,0,1,1-.591-.566A.578.578,0,0,1,423.842,88.329Z" transform="translate(-417.339 -87.763)" fill="#fff"/>
              <ellipse id="Elipse_3966" data-name="Elipse 3966" cx="0.591" cy="0.565" rx="0.591" ry="0.565" transform="translate(10.642 0)" fill="#fff"/>
              <path id="Trazado_99246" data-name="Trazado 99246" d="M440.736,88.329a.592.592,0,1,1-.592-.566A.579.579,0,0,1,440.736,88.329Z" transform="translate(-423.589 -87.763)" fill="#fff"/>
              <path id="Trazado_99247" data-name="Trazado 99247" d="M449.181,88.329a.592.592,0,1,1-.591-.566A.579.579,0,0,1,449.181,88.329Z" transform="translate(-426.715 -87.763)" fill="#fff"/>
              <ellipse id="Elipse_3967" data-name="Elipse 3967" cx="0.591" cy="0.565" rx="0.591" ry="0.565" transform="translate(26.606 0)" fill="#fff"/>
              <path id="Trazado_99248" data-name="Trazado 99248" d="M466.075,88.329a.592.592,0,1,1-.592-.566A.579.579,0,0,1,466.075,88.329Z" transform="translate(-432.965 -87.763)" fill="#fff"/>
              <ellipse id="Elipse_3968" data-name="Elipse 3968" cx="0.591" cy="0.565" rx="0.591" ry="0.565" transform="translate(37.248 0)" fill="#fff"/>
              <ellipse id="Elipse_3969" data-name="Elipse 3969" cx="0.591" cy="0.565" rx="0.591" ry="0.565" transform="translate(42.569 0)" fill="#fff"/>
              <path id="Trazado_99249" data-name="Trazado 99249" d="M491.414,88.329a.592.592,0,1,1-.592-.566A.579.579,0,0,1,491.414,88.329Z" transform="translate(-442.341 -87.763)" fill="#fff"/>
              <path id="Trazado_99250" data-name="Trazado 99250" d="M499.86,88.329a.592.592,0,1,1-.592-.566A.579.579,0,0,1,499.86,88.329Z" transform="translate(-445.466 -87.763)" fill="#fff"/>
            </g>
            <g id="Grupo_53312" data-name="Grupo 53312" transform="translate(0 27.14)">
              <ellipse id="Elipse_3970" data-name="Elipse 3970" cx="0.591" cy="0.565" rx="0.591" ry="0.565" fill="#fff"/>
              <path id="Trazado_99251" data-name="Trazado 99251" d="M423.842,95.836a.592.592,0,1,1-.591-.565A.579.579,0,0,1,423.842,95.836Z" transform="translate(-417.339 -95.271)" fill="#fff"/>
              <ellipse id="Elipse_3971" data-name="Elipse 3971" cx="0.591" cy="0.565" rx="0.591" ry="0.565" transform="translate(10.642)" fill="#fff"/>
              <path id="Trazado_99252" data-name="Trazado 99252" d="M440.736,95.836a.592.592,0,1,1-.592-.565A.579.579,0,0,1,440.736,95.836Z" transform="translate(-423.589 -95.271)" fill="#fff"/>
              <path id="Trazado_99253" data-name="Trazado 99253" d="M449.181,95.836a.592.592,0,1,1-.591-.565A.579.579,0,0,1,449.181,95.836Z" transform="translate(-426.715 -95.271)" fill="#fff"/>
              <ellipse id="Elipse_3972" data-name="Elipse 3972" cx="0.591" cy="0.565" rx="0.591" ry="0.565" transform="translate(26.606)" fill="#fff"/>
              <path id="Trazado_99254" data-name="Trazado 99254" d="M466.075,95.836a.592.592,0,1,1-.592-.565A.579.579,0,0,1,466.075,95.836Z" transform="translate(-432.965 -95.271)" fill="#fff"/>
              <ellipse id="Elipse_3973" data-name="Elipse 3973" cx="0.591" cy="0.565" rx="0.591" ry="0.565" transform="translate(37.248)" fill="#fff"/>
              <ellipse id="Elipse_3974" data-name="Elipse 3974" cx="0.591" cy="0.565" rx="0.591" ry="0.565" transform="translate(42.569)" fill="#fff"/>
              <path id="Trazado_99255" data-name="Trazado 99255" d="M491.414,95.836a.592.592,0,1,1-.592-.565A.579.579,0,0,1,491.414,95.836Z" transform="translate(-442.341 -95.271)" fill="#fff"/>
              <path id="Trazado_99256" data-name="Trazado 99256" d="M499.86,95.836a.592.592,0,1,1-.592-.565A.579.579,0,0,1,499.86,95.836Z" transform="translate(-445.466 -95.271)" fill="#fff"/>
            </g>
            <g id="Grupo_53313" data-name="Grupo 53313" transform="translate(0 31.663)">
              <path id="Trazado_99257" data-name="Trazado 99257" d="M415.4,103.344a.592.592,0,1,1-.592-.565A.579.579,0,0,1,415.4,103.344Z" transform="translate(-414.214 -102.779)" fill="#fff"/>
              <path id="Trazado_99258" data-name="Trazado 99258" d="M423.842,103.344a.592.592,0,1,1-.591-.565A.579.579,0,0,1,423.842,103.344Z" transform="translate(-417.339 -102.779)" fill="#fff"/>
              <path id="Trazado_99259" data-name="Trazado 99259" d="M432.288,103.344a.592.592,0,1,1-.591-.565A.579.579,0,0,1,432.288,103.344Z" transform="translate(-420.464 -102.779)" fill="#fff"/>
              <path id="Trazado_99260" data-name="Trazado 99260" d="M440.736,103.344a.592.592,0,1,1-.592-.565A.579.579,0,0,1,440.736,103.344Z" transform="translate(-423.59 -102.779)" fill="#fff"/>
              <path id="Trazado_99261" data-name="Trazado 99261" d="M449.181,103.344a.592.592,0,1,1-.591-.565A.579.579,0,0,1,449.181,103.344Z" transform="translate(-426.715 -102.779)" fill="#fff"/>
              <path id="Trazado_99262" data-name="Trazado 99262" d="M457.627,103.344a.592.592,0,1,1-.591-.565A.579.579,0,0,1,457.627,103.344Z" transform="translate(-429.84 -102.779)" fill="#fff"/>
              <path id="Trazado_99263" data-name="Trazado 99263" d="M466.075,103.344a.592.592,0,1,1-.592-.565A.579.579,0,0,1,466.075,103.344Z" transform="translate(-432.965 -102.779)" fill="#fff"/>
              <path id="Trazado_99264" data-name="Trazado 99264" d="M474.521,103.344a.592.592,0,1,1-.591-.565A.579.579,0,0,1,474.521,103.344Z" transform="translate(-436.09 -102.779)" fill="#fff"/>
              <path id="Trazado_99265" data-name="Trazado 99265" d="M482.966,103.344a.592.592,0,1,1-.591-.565A.579.579,0,0,1,482.966,103.344Z" transform="translate(-439.215 -102.779)" fill="#fff"/>
              <path id="Trazado_99266" data-name="Trazado 99266" d="M491.414,103.344a.592.592,0,1,1-.592-.565A.579.579,0,0,1,491.414,103.344Z" transform="translate(-442.341 -102.779)" fill="#fff"/>
              <path id="Trazado_99267" data-name="Trazado 99267" d="M499.86,103.344a.592.592,0,1,1-.592-.565A.579.579,0,0,1,499.86,103.344Z" transform="translate(-445.466 -102.779)" fill="#fff"/>
            </g>
            <g id="Grupo_53314" data-name="Grupo 53314" transform="translate(0 36.187)">
              <ellipse id="Elipse_3975" data-name="Elipse 3975" cx="0.591" cy="0.565" rx="0.591" ry="0.565" fill="#fff"/>
              <path id="Trazado_99268" data-name="Trazado 99268" d="M423.842,110.852a.592.592,0,1,1-.591-.565A.579.579,0,0,1,423.842,110.852Z" transform="translate(-417.339 -110.287)" fill="#fff"/>
              <ellipse id="Elipse_3976" data-name="Elipse 3976" cx="0.591" cy="0.565" rx="0.591" ry="0.565" transform="translate(10.642)" fill="#fff"/>
              <path id="Trazado_99269" data-name="Trazado 99269" d="M440.736,110.852a.592.592,0,1,1-.592-.565A.579.579,0,0,1,440.736,110.852Z" transform="translate(-423.589 -110.287)" fill="#fff"/>
              <path id="Trazado_99270" data-name="Trazado 99270" d="M449.181,110.852a.592.592,0,1,1-.591-.565A.579.579,0,0,1,449.181,110.852Z" transform="translate(-426.715 -110.287)" fill="#fff"/>
              <ellipse id="Elipse_3977" data-name="Elipse 3977" cx="0.591" cy="0.565" rx="0.591" ry="0.565" transform="translate(26.606)" fill="#fff"/>
              <path id="Trazado_99271" data-name="Trazado 99271" d="M466.075,110.852a.592.592,0,1,1-.592-.565A.58.58,0,0,1,466.075,110.852Z" transform="translate(-432.965 -110.287)" fill="#fff"/>
              <ellipse id="Elipse_3978" data-name="Elipse 3978" cx="0.591" cy="0.565" rx="0.591" ry="0.565" transform="translate(37.248)" fill="#fff"/>
              <ellipse id="Elipse_3979" data-name="Elipse 3979" cx="0.591" cy="0.565" rx="0.591" ry="0.565" transform="translate(42.569)" fill="#fff"/>
              <path id="Trazado_99272" data-name="Trazado 99272" d="M491.414,110.852a.592.592,0,1,1-.592-.565A.58.58,0,0,1,491.414,110.852Z" transform="translate(-442.341 -110.287)" fill="#fff"/>
              <path id="Trazado_99273" data-name="Trazado 99273" d="M499.86,110.852a.592.592,0,1,1-.592-.565A.579.579,0,0,1,499.86,110.852Z" transform="translate(-445.466 -110.287)" fill="#fff"/>
            </g>
            <g id="Grupo_53315" data-name="Grupo 53315" transform="translate(0 40.709)">
              <path id="Trazado_99274" data-name="Trazado 99274" d="M415.4,118.36a.592.592,0,1,1-.592-.566A.579.579,0,0,1,415.4,118.36Z" transform="translate(-414.214 -117.794)" fill="#fff"/>
              <path id="Trazado_99275" data-name="Trazado 99275" d="M423.842,118.36a.592.592,0,1,1-.591-.566A.579.579,0,0,1,423.842,118.36Z" transform="translate(-417.339 -117.794)" fill="#fff"/>
              <path id="Trazado_99276" data-name="Trazado 99276" d="M432.288,118.36a.592.592,0,1,1-.591-.566A.579.579,0,0,1,432.288,118.36Z" transform="translate(-420.464 -117.794)" fill="#fff"/>
              <path id="Trazado_99277" data-name="Trazado 99277" d="M440.736,118.36a.592.592,0,1,1-.592-.566A.579.579,0,0,1,440.736,118.36Z" transform="translate(-423.59 -117.794)" fill="#fff"/>
              <path id="Trazado_99278" data-name="Trazado 99278" d="M449.181,118.36a.592.592,0,1,1-.591-.566A.579.579,0,0,1,449.181,118.36Z" transform="translate(-426.715 -117.794)" fill="#fff"/>
              <path id="Trazado_99279" data-name="Trazado 99279" d="M457.627,118.36a.592.592,0,1,1-.591-.566A.579.579,0,0,1,457.627,118.36Z" transform="translate(-429.84 -117.794)" fill="#fff"/>
              <path id="Trazado_99280" data-name="Trazado 99280" d="M466.075,118.36a.592.592,0,1,1-.592-.566A.58.58,0,0,1,466.075,118.36Z" transform="translate(-432.965 -117.794)" fill="#fff"/>
              <path id="Trazado_99281" data-name="Trazado 99281" d="M474.521,118.36a.592.592,0,1,1-.591-.566A.579.579,0,0,1,474.521,118.36Z" transform="translate(-436.09 -117.794)" fill="#fff"/>
              <path id="Trazado_99282" data-name="Trazado 99282" d="M482.966,118.36a.592.592,0,1,1-.591-.566A.579.579,0,0,1,482.966,118.36Z" transform="translate(-439.215 -117.794)" fill="#fff"/>
              <path id="Trazado_99283" data-name="Trazado 99283" d="M491.414,118.36a.592.592,0,1,1-.592-.566A.58.58,0,0,1,491.414,118.36Z" transform="translate(-442.341 -117.794)" fill="#fff"/>
              <path id="Trazado_99284" data-name="Trazado 99284" d="M499.86,118.36a.592.592,0,1,1-.592-.566A.579.579,0,0,1,499.86,118.36Z" transform="translate(-445.466 -117.794)" fill="#fff"/>
            </g>
            <g id="Grupo_53316" data-name="Grupo 53316" transform="translate(0 45.233)">
              <ellipse id="Elipse_3980" data-name="Elipse 3980" cx="0.591" cy="0.565" rx="0.591" ry="0.565" transform="translate(0 0)" fill="#fff"/>
              <path id="Trazado_99285" data-name="Trazado 99285" d="M423.842,125.868a.592.592,0,1,1-.591-.566A.578.578,0,0,1,423.842,125.868Z" transform="translate(-417.339 -125.302)" fill="#fff"/>
              <ellipse id="Elipse_3981" data-name="Elipse 3981" cx="0.591" cy="0.565" rx="0.591" ry="0.565" transform="translate(10.642 0)" fill="#fff"/>
              <path id="Trazado_99286" data-name="Trazado 99286" d="M440.736,125.868a.592.592,0,1,1-.592-.566A.579.579,0,0,1,440.736,125.868Z" transform="translate(-423.589 -125.302)" fill="#fff"/>
              <path id="Trazado_99287" data-name="Trazado 99287" d="M449.181,125.868a.592.592,0,1,1-.591-.566A.579.579,0,0,1,449.181,125.868Z" transform="translate(-426.715 -125.302)" fill="#fff"/>
              <ellipse id="Elipse_3982" data-name="Elipse 3982" cx="0.591" cy="0.565" rx="0.591" ry="0.565" transform="translate(26.606 0)" fill="#fff"/>
              <path id="Trazado_99288" data-name="Trazado 99288" d="M466.075,125.868a.592.592,0,1,1-.592-.566A.579.579,0,0,1,466.075,125.868Z" transform="translate(-432.965 -125.302)" fill="#fff"/>
              <ellipse id="Elipse_3983" data-name="Elipse 3983" cx="0.591" cy="0.565" rx="0.591" ry="0.565" transform="translate(37.248 0)" fill="#fff"/>
              <ellipse id="Elipse_3984" data-name="Elipse 3984" cx="0.591" cy="0.565" rx="0.591" ry="0.565" transform="translate(42.569 0)" fill="#fff"/>
              <path id="Trazado_99289" data-name="Trazado 99289" d="M491.414,125.868a.592.592,0,1,1-.592-.566A.579.579,0,0,1,491.414,125.868Z" transform="translate(-442.341 -125.302)" fill="#fff"/>
              <path id="Trazado_99290" data-name="Trazado 99290" d="M499.86,125.868a.592.592,0,1,1-.592-.566A.579.579,0,0,1,499.86,125.868Z" transform="translate(-445.466 -125.302)" fill="#fff"/>
            </g>
            <g id="Grupo_53317" data-name="Grupo 53317" transform="translate(0 49.757)">
              <ellipse id="Elipse_3985" data-name="Elipse 3985" cx="0.591" cy="0.565" rx="0.591" ry="0.565" transform="translate(0 0)" fill="#fff"/>
              <path id="Trazado_99291" data-name="Trazado 99291" d="M423.842,133.376a.592.592,0,1,1-.591-.566A.578.578,0,0,1,423.842,133.376Z" transform="translate(-417.339 -132.81)" fill="#fff"/>
              <ellipse id="Elipse_3986" data-name="Elipse 3986" cx="0.591" cy="0.565" rx="0.591" ry="0.565" transform="translate(10.642 0)" fill="#fff"/>
              <path id="Trazado_99292" data-name="Trazado 99292" d="M440.736,133.376a.592.592,0,1,1-.592-.566A.579.579,0,0,1,440.736,133.376Z" transform="translate(-423.589 -132.81)" fill="#fff"/>
              <path id="Trazado_99293" data-name="Trazado 99293" d="M449.181,133.376a.592.592,0,1,1-.591-.566A.579.579,0,0,1,449.181,133.376Z" transform="translate(-426.715 -132.81)" fill="#fff"/>
              <ellipse id="Elipse_3987" data-name="Elipse 3987" cx="0.591" cy="0.565" rx="0.591" ry="0.565" transform="translate(26.606 0)" fill="#fff"/>
              <path id="Trazado_99294" data-name="Trazado 99294" d="M466.075,133.376a.592.592,0,1,1-.592-.566A.579.579,0,0,1,466.075,133.376Z" transform="translate(-432.965 -132.81)" fill="#fff"/>
              <ellipse id="Elipse_3988" data-name="Elipse 3988" cx="0.591" cy="0.565" rx="0.591" ry="0.565" transform="translate(37.248 0)" fill="#fff"/>
              <ellipse id="Elipse_3989" data-name="Elipse 3989" cx="0.591" cy="0.565" rx="0.591" ry="0.565" transform="translate(42.569 0)" fill="#fff"/>
              <path id="Trazado_99295" data-name="Trazado 99295" d="M491.414,133.376a.592.592,0,1,1-.592-.566A.579.579,0,0,1,491.414,133.376Z" transform="translate(-442.341 -132.81)" fill="#fff"/>
              <path id="Trazado_99296" data-name="Trazado 99296" d="M499.86,133.376a.592.592,0,1,1-.592-.566A.579.579,0,0,1,499.86,133.376Z" transform="translate(-445.466 -132.81)" fill="#fff"/>
            </g>
          </g>
        </g>
        <line id="Línea_138" data-name="Línea 138" y2="175" transform="translate(17.548 123.022)" fill="none" stroke="#fff" stroke-linecap="round" stroke-width="4" stroke-dasharray="8"/>
      </g>
    </g>
    <g id="Grupo_158047" data-name="Grupo 158047" transform="translate(239 3841)">
      <g id="Grupo_158817" data-name="Grupo 158817">
        <path id="Trazado_152407" data-name="Trazado 152407" d="M210.745,172.305H28.7a2.872,2.872,0,0,1-2.853-3.206L39.241,54.768a2.871,2.871,0,0,1,2.852-2.538H224.136a2.871,2.871,0,0,1,2.852,3.206L213.6,169.768a2.872,2.872,0,0,1-2.852,2.538" transform="translate(12.255 24.782)" fill="#f5e8df"/>
        <g id="Grupo_158821" data-name="Grupo 158821" transform="translate(84.582 -105.988)">
          <path id="Trazado_153807" data-name="Trazado 153807" d="M1007.195,1606.686H993.883l1.223,81.6,4.186.271Z" transform="translate(-800.252 -1397.352)" fill="#dd7903"/>
          <rect id="Rectángulo_35561" data-name="Rectángulo 35561" width="51.219" height="88.66" transform="translate(136.477 203.408)" fill="#31313c"/>
          <rect id="Rectángulo_35562" data-name="Rectángulo 35562" width="10.096" height="88.66" transform="translate(187.697 203.408)" fill="#12263f"/>
          <path id="Trazado_153808" data-name="Trazado 153808" d="M986.664,1619.253h0a1.8,1.8,0,0,0,1.695-1.891v-23.484a1.705,1.705,0,1,0-3.39,0v23.484a1.8,1.8,0,0,0,1.7,1.891" transform="translate(-793.919 -1386.485)" fill="#2b7ec1"/>
          <rect id="Rectángulo_35563" data-name="Rectángulo 35563" width="1.772" height="32.278" transform="translate(191.86 237.205)" fill="#2b7ec1"/>
          <rect id="Rectángulo_35564" data-name="Rectángulo 35564" width="17.724" height="70.54" transform="translate(147.341 221.484)" fill="#dd4c45"/>
          <rect id="Rectángulo_35565" data-name="Rectángulo 35565" width="17.23" height="70.54" transform="translate(165.066 221.484)" fill="#fc9387"/>
          <path id="Trazado_153809" data-name="Trazado 153809" d="M912.914,1685.054h0c2.781,0,5.035-.653,5.035-1.457V1665.5c0-.8-2.254-1.457-5.035-1.457s-5.035.652-5.035,1.457V1683.6c0,.8,2.254,1.457,5.035,1.457" transform="translate(-739.154 -1439.759)" fill="#dd4c45"/>
          <rect id="Rectángulo_35566" data-name="Rectángulo 35566" width="11.117" height="1.596" transform="translate(168.202 249.218)" fill="#dd4c45"/>
          <rect id="Rectángulo_35567" data-name="Rectángulo 35567" width="11.117" height="1.595" transform="translate(168.202 253.202)" fill="#dd4c45"/>
          <rect id="Rectángulo_35568" data-name="Rectángulo 35568" width="4.552" height="4.408" transform="translate(171.484 284.693)" fill="#dd4c45"/>
          <rect id="Rectángulo_35569" data-name="Rectángulo 35569" width="52.144" height="93.063" transform="translate(89.442 198.96)" fill="#785549"/>
          <rect id="Rectángulo_35570" data-name="Rectángulo 35570" width="12.519" height="93.063" transform="translate(141.587 198.96)" fill="#b58868"/>
          <path id="Trazado_153810" data-name="Trazado 153810" d="M829.94,1604.133h0c1.315,0,2.381-.788,2.381-1.761v-21.865c0-.972-1.066-1.761-2.381-1.761s-2.381.788-2.381,1.761v21.865c0,.973,1.066,1.761,2.381,1.761" transform="translate(-682.093 -1376.696)" fill="#fff"/>
          <rect id="Rectángulo_35571" data-name="Rectángulo 35571" width="1.772" height="30.9" transform="translate(146.96 233.738)" fill="#fff"/>
          <path id="Trazado_153811" data-name="Trazado 153811" d="M832.9,1896.856a2,2,0,1,0-1.986,1.787,1.895,1.895,0,0,0,1.986-1.787" transform="translate(-683.062 -1610.557)" fill="#fff"/>
          <path id="Trazado_153869" data-name="Trazado 153869" d="M0,0,82.247.786,82.337,11.3.091,10.517Z" transform="matrix(0.087, -0.996, 0.996, 0.087, 199.041, 291.204)" fill="#fec001"/>
          <path id="Trazado_153812" data-name="Trazado 153812" d="M1045.724,1637.168h0c1.191.093,2.214-.426,2.285-1.159l.8-8.246.8-8.246c.07-.734-.838-1.4-2.029-1.5s-2.215.426-2.286,1.16l-1.592,16.492c-.07.734.838,1.4,2.03,1.5" transform="translate(-835.637 -1405.723)" fill="#fefefe"/>
          <path id="Trazado_153870" data-name="Trazado 153870" d="M0,0,31.208.3l.013,1.5L.013,1.5Z" transform="translate(205.942 266.587) rotate(-85.032)" fill="#fefefe"/>
          <path id="Trazado_153871" data-name="Trazado 153871" d="M0,0,1.35.013,1.4,5.373.046,5.36Z" transform="translate(201.882 288.557) rotate(-85.031)" fill="#fefefe"/>
        </g>
        <path id="Trazado_152406" data-name="Trazado 152406" d="M281.716,124.29H96.368l-5.4,45.676L83.428,241.16a2.872,2.872,0,0,0,2.852,3.205h4.929s-1.6,23.449.529,23.449c2.874,0,13.642-23.449,13.642-23.449H268.325a2.871,2.871,0,0,0,2.852-2.538L284.567,127.5a2.871,2.871,0,0,0-2.852-3.206" transform="translate(39.575 58.973)" fill="#c0c942"/>
        <path id="Trazado_152408" data-name="Trazado 152408" d="M159.2,60.723a4.423,4.423,0,1,1-4.423-4.423,4.423,4.423,0,0,1,4.423,4.423" transform="translate(71.338 26.713)" fill="#fff"/>
        <path id="Trazado_152409" data-name="Trazado 152409" d="M149.2,60.723a4.423,4.423,0,1,1-4.423-4.423,4.423,4.423,0,0,1,4.423,4.423" transform="translate(66.593 26.713)" fill="#fff"/>
        <path id="Trazado_152410" data-name="Trazado 152410" d="M115.277,81.943c4.858-2.735,8.235-8.688,8.235-15.612,0-9.513-7.744-17.3-18.456-21.151-7.378-2.65-9.932,11.638-9.932,21.151a19.689,19.689,0,0,0,2.66,10.01,15.837,15.837,0,0,0-8.837,4.878c-7.512,8.729-6.586,31.791,11.659,33.9,5.049.587,10.251-1.392,14.422-4.3s7.175-7.812,6.825-12.882c-.268-3.89-2.38-7.369-4.167-10.836q-1.3-2.532-2.409-5.165" transform="translate(40.104 21.284)" fill="#31313c"/>
        <path id="Trazado_152411" data-name="Trazado 152411" d="M103.154,90.094a8.42,8.42,0,1,1,8.421-8.419,8.429,8.429,0,0,1-8.421,8.419m0-15.366a6.946,6.946,0,1,0,6.946,6.946,6.953,6.953,0,0,0-6.946-6.946" transform="translate(44.949 34.757)" fill="#ffc37a"/>
        <path id="Trazado_152412" data-name="Trazado 152412" d="M84.445,60.426c.363,4.58-.164,10.957-9.338,16.527S59.929,83.829,53.727,92.46c-6.1,8.493-6.818,19.27-4.36,32.045,2.369,12.315,25.893,11.759,44.846,5.5S105.578,113,105.578,101.2s4.622-21.784-1.129-33.009-20-7.766-20-7.766" transform="translate(22.797 28.432)" fill="#31313c"/>
        <path id="Trazado_152413" data-name="Trazado 152413" d="M169.677,155.462H28.5c2.254-10.793,4.525-21.041,5.659-24.845a95.638,95.638,0,0,1,5.568-15.246,47.123,47.123,0,0,1,7.392-11.088C57.359,92.959,70.333,89.376,82.94,88.241a181.994,181.994,0,0,1,30.474.31c10.369.811,20.352,2.477,29.018,5.986,8.665,3.553,15.674,9.1,20.015,16.956,4.493,8.2,7.617,38.184,7.231,43.969" transform="translate(13.52 41.623)" fill="#ffc37a"/>
        <path id="Trazado_152414" data-name="Trazado 152414" d="M67.409,86.492c-.223,3-.33,6-.305,9a61.324,61.324,0,0,0,.46,8.518,10.2,10.2,0,0,0,3.726,6.48,78.814,78.814,0,0,0,6.6,4.985,93.977,93.977,0,0,0,8.291,5.08c.833.454,1.578-.818.743-1.272a94.243,94.243,0,0,1-8.711-5.372q-2.163-1.506-4.238-3.135a17.349,17.349,0,0,1-3.642-3.416,9.408,9.408,0,0,1-1.444-4.645c-.161-1.74-.227-3.495-.273-5.24a109.269,109.269,0,0,1,.271-10.988c.071-.947-1.4-.942-1.474,0" transform="translate(31.838 40.702)" fill="#2b244a"/>
        <path id="Trazado_152415" data-name="Trazado 152415" d="M96.445,88.331q2.513,4.242,4.7,8.665c.72,1.463,1.432,2.936,2.072,4.435a7.806,7.806,0,0,1,.814,4.87,8.43,8.43,0,0,1-2.3,3.555c-1.069,1.125-2.181,2.213-3.294,3.294q-3.532,3.428-7.228,6.682c-.712.631.335,1.671,1.042,1.044,2.719-2.4,5.386-4.869,7.975-7.414,2.008-1.974,4.7-4.143,5.29-7.052.649-3.194-1.3-6.441-2.636-9.21q-2.369-4.917-5.159-9.615a.738.738,0,0,0-1.272.745" transform="translate(43.161 41.39)" fill="#2b244a"/>
        <path id="Trazado_152416" data-name="Trazado 152416" d="M95.192,155.989H93.408C90.5,144.37,79.149,99.9,72.971,88.266a15.914,15.914,0,0,0-1.017-1.651l26.673,3.067a.114.114,0,0,0,.015.044c.369,1.342,8.921,33.441-3.45,66.263" transform="translate(34.14 41.097)" fill="#e0785e"/>
        <path id="Trazado_152417" data-name="Trazado 152417" d="M80,66.937,71.573,98s12.706,9.2,27.236,1.022l2.117-13.859Z" transform="translate(33.96 31.76)" fill="#e0785e"/>
        <path id="Trazado_152418" data-name="Trazado 152418" d="M74.765,55.339c4.263-14.873,16.355-16.451,29.683-10.714s15.821,12.262,15.734,24.683a260.028,260.028,0,0,1-2.218,30.775c-.643,3.9-6.61,11.3-16.659,6.169A54.224,54.224,0,0,1,80.579,88.069c-2.965-4.426-10.077-17.857-5.814-32.73" transform="translate(34.844 19.712)" fill="#e0785e"/>
        <path id="Trazado_152419" data-name="Trazado 152419" d="M101.114,64.674c-.863,2.272-2.881.445-5.653,1.016-2.548.525-4.251.193-4.22-1.147.037-1.62,2.52-3.382,6.138-3.179,3.387.192,4.364,1.653,3.735,3.31" transform="translate(43.291 29.108)" fill="#2b244a"/>
        <path id="Trazado_152420" data-name="Trazado 152420" d="M106.619,66.9c-2.465-.932-4.667.24-5.012-2.08-.257-1.747,1-2.977,4.356-2.439.261.043.522.1.768.156,1.224.851,1.1,3.595-.112,4.363" transform="translate(48.195 29.538)" fill="#2b244a"/>
        <path id="Trazado_152421" data-name="Trazado 152421" d="M97.656,66.338a1.773,1.773,0,0,0-1.329-1.053,1.677,1.677,0,0,0-1.589.982,5.835,5.835,0,0,0-.549,1.995,3.7,3.7,0,0,0,.351,2.371,1.55,1.55,0,0,0,2.7-.209,5.123,5.123,0,0,0,.414-4.086" transform="translate(44.668 30.972)" fill="#2b244a"/>
        <path id="Trazado_152422" data-name="Trazado 152422" d="M105.9,67.222a1.773,1.773,0,0,0-1.329-1.053,1.677,1.677,0,0,0-1.589.982,5.826,5.826,0,0,0-.549,1.995,3.69,3.69,0,0,0,.351,2.369,1.55,1.55,0,0,0,2.7-.208,5.123,5.123,0,0,0,.414-4.086" transform="translate(48.578 31.391)" fill="#2b244a"/>
        <path id="Trazado_152423" data-name="Trazado 152423" d="M99.1,77.594a5.8,5.8,0,0,0,2.925-.565,2.93,2.93,0,0,0,1.352-2.881,37,37,0,0,0-.686-3.9l-.787-4.161c-.175-.93-1.6-.537-1.421.392q.644,3.4,1.284,6.8c.147.781.389,1.861-.37,2.408a3.979,3.979,0,0,1-2.3.435.738.738,0,0,0,0,1.474" transform="translate(46.682 31.103)" fill="#2b244a"/>
        <path id="Trazado_152424" data-name="Trazado 152424" d="M119.075,48.561A35.391,35.391,0,0,0,101.8,41.6c-5.554-.531-10.961-.376-16.859,4.047-4.387,3.291-9.46,13.279-6.267,23.578.929,2.995,1.042,17.069,1.042,17.069l-19.5,25.159c35.295,11.264,31.7-9.238,35.092-26.25,2.555-12.834,11.343-10.952,16.881-15.961,6.236-5.638,5.743-15.345,5.743-15.345l7.588,5.373c-.543-3.879-1.846-7.136-6.442-10.706" transform="translate(28.569 19.635)" fill="#31313c"/>
        <path id="Trazado_152425" data-name="Trazado 152425" d="M97.185,69.127A8.387,8.387,0,1,1,86.81,63.383a8.386,8.386,0,0,1,10.376,5.745" transform="translate(38.307 29.918)" fill="#e0785e"/>
        <path id="Trazado_152426" data-name="Trazado 152426" d="M83,88.824A8.42,8.42,0,1,1,91.419,80.4,8.429,8.429,0,0,1,83,88.824m0-15.365A6.946,6.946,0,1,0,89.944,80.4,6.953,6.953,0,0,0,83,73.458" transform="translate(35.386 34.155)" fill="#ffc37a"/>
        <path id="Trazado_152427" data-name="Trazado 152427" d="M86.581,82.044a23.266,23.266,0,0,0,2.378,2.589c.894.823,1.861,1.563,2.825,2.3a.742.742,0,0,0,1.009-.265.757.757,0,0,0-.265-1.009c-.84-.644-1.759-1.361-2.577-2.119A23.153,23.153,0,0,1,87.624,81a.742.742,0,0,0-1.042,0,.756.756,0,0,0,0,1.042" transform="translate(40.981 38.332)" fill="#2b244a"/>
        <path id="Trazado_152428" data-name="Trazado 152428" d="M85.818,73.236a3.724,3.724,0,0,1,.556-5.6,3.933,3.933,0,0,1,2.331-.661.738.738,0,0,0,0-1.474,5.2,5.2,0,0,0-5.245,6.395,5.152,5.152,0,0,0,1.315,2.384c.656.689,1.7-.355,1.042-1.042" transform="translate(39.537 31.078)" fill="#2b244a"/>
        <path id="Trazado_152429" data-name="Trazado 152429" d="M99.785,79.342c-1.625-.1-3.2-1.508-4.176-3.034a.648.648,0,0,1,.647-1,62.46,62.46,0,0,0,7.139.762.642.642,0,0,1,.534.967,4.536,4.536,0,0,1-4.145,2.306" transform="translate(45.312 35.726)" fill="#fff"/>
        <path id="Trazado_152430" data-name="Trazado 152430" d="M57.794,124.125c-.708,4.74-1.34,9.494-1.8,14.266-.091.944,1.385.938,1.474,0,.451-4.64,1.063-9.263,1.75-13.873.139-.929-1.281-1.328-1.421-.392" transform="translate(26.564 58.641)" fill="#2b244a"/>
        <path id="Trazado_152431" data-name="Trazado 152431" d="M105.375,126.058q-.555,5.547-1.109,11.091c-.094.944,1.382.938,1.474,0q.555-5.547,1.109-11.091c.094-.944-1.38-.935-1.474,0" transform="translate(49.47 59.477)" fill="#2b244a"/>
        <path id="Trazado_152432" data-name="Trazado 152432" d="M216.777,132.783a4.423,4.423,0,1,1-4.423-4.423,4.423,4.423,0,0,1,4.423,4.423" transform="translate(98.658 60.904)" fill="#fff"/>
        <path id="Trazado_152433" data-name="Trazado 152433" d="M206.777,132.783a4.423,4.423,0,1,1-4.423-4.423,4.423,4.423,0,0,1,4.423,4.423" transform="translate(93.913 60.904)" fill="#fff"/>
        <path id="Trazado_152434" data-name="Trazado 152434" d="M259.956,200.948l-3.465,29.578a2.841,2.841,0,0,1-2.669,2.521H114.352c.31-1.681,2.33-23.252,2.978-25.051,4.291-12.076,3.509-24.83,9.024-33.5,5.323-8.316,8.744-10.764,18.372-14.863,9.525-4.055,21.277-6.738,32.32-8.478a207.211,207.211,0,0,1,32.276-3.037c13.226,0,26.629,2.462,36.42,12.961a37.176,37.176,0,0,1,6.8,10.513,78.21,78.21,0,0,1,4.468,14.877c.324,1.46,1.607,7.505,2.949,14.479" transform="translate(54.257 70.278)" fill="#ffeae0"/>
        <path id="Trazado_152435" data-name="Trazado 152435" d="M169.167,131.691l4.69,25.572s-8.146,14.072-24.267,4.011l-3.353-15.59Z" transform="translate(69.386 62.484)" fill="#ffa58f"/>
        <path id="Trazado_152436" data-name="Trazado 152436" d="M149.167,124.972a8.181,8.181,0,1,1-8.182-8.182,8.182,8.182,0,0,1,8.182,8.182" transform="translate(63.013 55.414)" fill="#2b244a"/>
        <path id="Trazado_152437" data-name="Trazado 152437" d="M178.413,124.726C175.971,110.69,165.056,108.06,152.291,112s-15.687,9.671-16.828,21.051a239.367,239.367,0,0,0-.994,28.391c.206,3.632,4.942,10.992,14.646,7.285a49.951,49.951,0,0,0,20.761-14.611c3.149-3.763,10.977-15.358,8.537-29.394" transform="translate(63.758 52.354)" fill="#ffa58f"/>
        <path id="Trazado_152438" data-name="Trazado 152438" d="M148.116,151.647a24.244,24.244,0,0,0,8.5-7.434.743.743,0,0,0-.265-1.009.752.752,0,0,0-1.009.264,22.641,22.641,0,0,1-7.974,6.9c-.842.439-.1,1.713.745,1.274" transform="translate(69.748 67.899)" fill="#2b244a"/>
        <path id="Trazado_152439" data-name="Trazado 152439" d="M156.9,145.54l-.075-.041a3.462,3.462,0,0,0-1.587-.3c-2.409,0-4.457,1.137-6.693,1.833a7.012,7.012,0,0,1-2.4.454c-.92-.044-1.34-.715-1.79-1.449-1.048-1.721-3.379-2.321-4.774-.559a11.861,11.861,0,0,1-.737,1.009c-.823.842-1.8-.043-2.633-.407-.5-.218-1.864-.829-1.93.165-.349,5.22,3.949,8.941,8.726,9.071a19.921,19.921,0,0,0,8.266-2.167c2.01-.958,4.46-2.265,5.8-4.129.753-1.05,1.115-2.744-.173-3.477" transform="translate(63.704 68.52)" fill="#2b244a"/>
        <path id="Trazado_152440" data-name="Trazado 152440" d="M140.989,127.045c-.8,2.091-2.647.407-5.2.936-.19.041-.367.068-.544.1-1.047-.529-1-3.223.448-3.991a8.258,8.258,0,0,1,1.861-.1c3.108.177,4.018,1.522,3.434,3.055" transform="translate(63.829 58.823)" fill="#2b244a"/>
        <path id="Trazado_152441" data-name="Trazado 152441" d="M141.834,127.041c.795,2.092,2.653.41,5.2.935,2.346.484,3.913.178,3.885-1.056-.034-1.492-2.321-3.116-5.652-2.927-3.119.175-4.018,1.522-3.438,3.048" transform="translate(67.218 58.824)" fill="#2b244a"/>
        <path id="Trazado_152442" data-name="Trazado 152442" d="M146.408,129.337a1.628,1.628,0,0,0-1.295-.871,1.54,1.54,0,0,0-1.389,1.014,5.321,5.321,0,0,0-.361,1.87,3.4,3.4,0,0,0,.488,2.15,1.429,1.429,0,0,0,2.467-.382,4.72,4.72,0,0,0,.09-3.781" transform="translate(68.019 60.953)" fill="#2b244a"/>
        <path id="Trazado_152443" data-name="Trazado 152443" d="M138.4,129.337a1.628,1.628,0,0,0-1.295-.871,1.54,1.54,0,0,0-1.389,1.014,5.32,5.32,0,0,0-.361,1.87,3.4,3.4,0,0,0,.488,2.15,1.429,1.429,0,0,0,2.467-.382,4.72,4.72,0,0,0,.09-3.781" transform="translate(64.221 60.953)" fill="#2b244a"/>
        <path id="Trazado_152444" data-name="Trazado 152444" d="M176.573,145.6c1.373-2.37,5.277-10.026,5.79-12.716s-.012-5.737-2.014-7.6a9.022,9.022,0,0,1-1.337-1.292c-1.175-1.672-.062-3.969-.289-6a5.53,5.53,0,0,0-4.186-4.443,7.771,7.771,0,0,0-3.3-.09,19.13,19.13,0,0,0-9.267-5.778,6.847,6.847,0,0,0-3.512-.183,3.059,3.059,0,0,0-2.319,2.415,29.816,29.816,0,0,0-15.514,1.827,13.6,13.6,0,0,0-4.4,2.933,9.685,9.685,0,0,0-1.3,1.669,7.078,7.078,0,0,0-.364,7.253,8.128,8.128,0,0,0,6.324,3.6c2.156.2,8.158-.886,15.343-4.285,2.765-.817,4.534,2.28,4.8,4.727.354,3.191-.936,6.272-.991,9.448-.04,2.567.787,5.282,3.436,6.178a5.973,5.973,0,0,0,3.121.149c.231,3.245,1.168,6.421,4.168,8.186a16.086,16.086,0,0,0,6.261,2.029l-1.188-6.477c.257-.571.748-1.553.748-1.553" transform="translate(63.442 50.928)" fill="#2b244a"/>
        <path id="Trazado_152445" data-name="Trazado 152445" d="M163.288,133.315a6.852,6.852,0,1,1-7.908-5.6,6.851,6.851,0,0,1,7.908,5.6" transform="translate(71.02 60.551)" fill="#ffa58f"/>
        <path id="Trazado_152446" data-name="Trazado 152446" d="M137.191,140.734a.656.656,0,0,1,.546-.988,63.973,63.973,0,0,0,7.287-.776.661.661,0,0,1,.661,1.022c-.992,1.556-2.6,3-4.261,3.1a4.635,4.635,0,0,1-4.232-2.355" transform="translate(65.048 65.933)" fill="#2b244a"/>
        <path id="Trazado_152447" data-name="Trazado 152447" d="M139.487,130.761q-.6,1.741-1.209,3.483a17.9,17.9,0,0,0-1.087,3.456,2.35,2.35,0,0,0,1.283,2.569,4.991,4.991,0,0,0,1.561.261l1.87.143c.947.072.942-1.4,0-1.474l-1.531-.117a5.542,5.542,0,0,1-1.23-.134c-.815-.258-.463-1.359-.27-1.935.658-1.96,1.357-3.907,2.033-5.86.313-.9-1.112-1.284-1.421-.392" transform="translate(65.082 61.803)" fill="#2b244a"/>
        <path id="Trazado_152448" data-name="Trazado 152448" d="M154.159,130.759a2.776,2.776,0,0,1,2.887,1.035,3.6,3.6,0,0,1,.249,3.6.758.758,0,0,0,.264,1.009.743.743,0,0,0,1.009-.264,5.106,5.106,0,0,0-.3-5.15,4.255,4.255,0,0,0-4.5-1.647.738.738,0,0,0,.392,1.421" transform="translate(72.712 61.299)" fill="#2b244a"/>
        <path id="Trazado_152449" data-name="Trazado 152449" d="M141.556,157.5c4.966,4.456,12.108,6.539,18.677,6.719a28.458,28.458,0,0,0,18.11-6.178,46.316,46.316,0,0,0,8-8.621c.575-.755-.7-1.491-1.272-.743a48.079,48.079,0,0,1-6.758,7.49,27.325,27.325,0,0,1-7.461,4.533,25.382,25.382,0,0,1-9.267,2.051,31.631,31.631,0,0,1-9.889-1.439,24.208,24.208,0,0,1-9.093-4.854c-.7-.633-1.75.407-1.042,1.042" transform="translate(67.053 70.396)" fill="#2b244a"/>
        <path id="Trazado_152450" data-name="Trazado 152450" d="M122.18,185.725s-4.49-12.12-10.143-24.118c-5.2-11.035-13.211-29.494-18.123-27.088-1.65.808-2.862,3.02-1.663,6.473,1.995,5.746,5.377,16.875,5.377,16.875s-9.392-3.1-9.41,6.791c0,0-6.261-.422-4.5,8.8.006.032.016.06.022.091.644,3.733,2.98,8.907,4.683,12.334,1.062,2.135,8.157,16.831,8.157,16.831Z" transform="translate(39.575 63.725)" fill="#ffa58f"/>
        <path id="Trazado_152451" data-name="Trazado 152451" d="M118.994,169.179l5.419,13.667L94.255,200l-4.13-11.538Z" transform="translate(42.762 80.271)" fill="#ffeae0"/>
        <path id="Trazado_152452" data-name="Trazado 152452" d="M105.475,153.668a49.2,49.2,0,0,0-7.337.336c-1.178.143-2.356.316-3.52.55a4.943,4.943,0,0,0-2.395,1.038c-1.405,1.28-.823,3.172.422,4.3,1.539,1.4,3.711,2.039,5.6,2.809q3.868,1.575,7.8,2.995c.894.324,1.28-1.1.392-1.421q-3.674-1.331-7.3-2.793c-1.246-.5-2.51-.992-3.73-1.554a5.3,5.3,0,0,1-2.287-1.713c-1.411-2.179,3.138-2.482,4.269-2.641a48.3,48.3,0,0,1,8.086-.435.738.738,0,0,0,0-1.474" transform="translate(43.37 72.902)" fill="#2b244a"/>
        <path id="Trazado_152453" data-name="Trazado 152453" d="M102.776,163.279c.1,1.259.257,3.571-1.2,4.165-1.855.758-3.943-2.078-5.038-3.21-2.959-3.063-5.806-6.234-8.817-9.251a.738.738,0,0,0-1.042,1.042c3.556,3.562,6.85,7.384,10.445,10.907,1.455,1.424,3.717,2.977,5.677,1.483,1.525-1.16,1.588-3.4,1.452-5.137-.074-.938-1.548-.948-1.474,0" transform="translate(41.023 73.433)" fill="#2b244a"/>
        <path id="Trazado_152454" data-name="Trazado 152454" d="M92.435,151.383l3.779,5.118a.759.759,0,0,0,1.009.264.743.743,0,0,0,.265-1.009l-3.781-5.118a.759.759,0,0,0-1.009-.264.743.743,0,0,0-.264,1.009" transform="translate(43.807 71.302)" fill="#2b244a"/>
        <path id="Trazado_152455" data-name="Trazado 152455" d="M97.511,163.337a6.19,6.19,0,0,1-1.505,3.686c-1.252,1.163-3.065.361-4.238-.5a34.246,34.246,0,0,1-2.914-2.659q-1.957-1.825-3.944-3.62c-.7-.634-1.75.406-1.044,1.042q2.271,2.048,4.5,4.139a15.537,15.537,0,0,0,3.993,3.151,4.125,4.125,0,0,0,4.869-.693,8.267,8.267,0,0,0,1.758-4.546c.125-.938-1.351-.929-1.474,0" transform="translate(39.681 75.938)" fill="#2b244a"/>
        <path id="Trazado_152456" data-name="Trazado 152456" d="M231.879,186.469a78.211,78.211,0,0,0-4.468-14.877,37.176,37.176,0,0,0-6.8-10.513c-9.791-10.5-23.194-12.961-36.42-12.961a159.482,159.482,0,0,0-16.883.958,286.03,286.03,0,0,1,6.031,30.949,287.038,287.038,0,0,1,2.625,44.146c-.059,3.052-.206,8.876-.206,8.876h52.934a2.841,2.841,0,0,0,2.669-2.521l3.465-29.578c-1.342-6.974-2.625-13.02-2.949-14.479" transform="translate(79.385 70.278)" fill="#31313c"/>
        <path id="Trazado_152457" data-name="Trazado 152457" d="M173.255,206.605a272.68,272.68,0,0,1-8.08-36.42q-1.371-8.957-2.079-17.974c-.767.177-1.519.369-2.271.56s-1.5.383-2.241.59-1.489.413-2.226.634-1.43.428-2.153.663h-.044c-.693.221-1.371.442-2.049.678-1.445.487-2.846,1-4.217,1.548-.678.265-1.342.531-1.991.811-9.628,4.1-13.049,6.547-18.372,14.863-5.515,8.67-8.213,21.572-11.427,37.289-.383,1.873-3.922,19.581-4.232,21.262h69.953c-3.2-7.977-6.138-16.263-8.571-24.506" transform="translate(53.081 72.221)" fill="#31313c"/>
        <path id="Trazado_152458" data-name="Trazado 152458" d="M123.084,178.447,92.926,195.6l8.393,23.071H139.03Z" transform="translate(44.091 84.669)" fill="#31313c"/>
        <path id="Trazado_152459" data-name="Trazado 152459" d="M115.869,186.185c3.714,8.114,7.036,16.421,10.557,24.621.622,1.451,1.231,2.908,1.887,4.344.4.861,1.666.112,1.274-.745-3.714-8.114-7.036-16.423-10.557-24.621-.622-1.451-1.231-2.909-1.887-4.344-.4-.861-1.666-.114-1.274.745" transform="translate(54.942 87.806)" fill="#8c75b5"/>
        <path id="Trazado_152460" data-name="Trazado 152460" d="M141.7,154.322c-.947,8.113-1.727,16.247-2.253,24.4-.06.947,1.414.944,1.474,0,.526-8.151,1.306-16.286,2.253-24.4.111-.941-1.365-.933-1.475,0" transform="translate(66.165 72.889)" fill="#8c75b5"/>
        <path id="Trazado_152461" data-name="Trazado 152461" d="M173.708,149.445c3.431,7.56,7.074,15.047,9.844,22.885.314.888,1.738.506,1.421-.392-2.81-7.958-6.508-15.562-9.991-23.238-.392-.863-1.663-.114-1.274.745" transform="translate(82.385 70.373)" fill="#8c75b5"/>
        <path id="Trazado_152462" data-name="Trazado 152462" d="M185.225,167.58c-1.722,14.792-4.009,29.535-6.532,44.209-.638,3.713-1.3,7.421-2.016,11.119-.178.927,1.243,1.326,1.423.392,2.841-14.73,5.125-29.587,7.159-44.448.513-3.754,1-7.51,1.441-11.272.109-.941-1.365-.933-1.474,0" transform="translate(83.822 79.179)" fill="#8c75b5"/>
        <path id="Trazado_152463" data-name="Trazado 152463" d="M138.555,175.182c4.683,12.179,9.827,24.187,14.99,36.167q1.915,4.446,3.863,8.879c.382.866,1.651.116,1.272-.745q-7.821-17.767-15.152-35.753c-1.208-2.97-2.4-5.947-3.552-8.94-.336-.876-1.763-.5-1.421.391" transform="translate(65.716 82.699)" fill="#8c75b5"/>
        <path id="Trazado_152464" data-name="Trazado 152464" d="M175.255,168.871l8.879-3.45a.758.758,0,0,0,.515-.907.743.743,0,0,0-.907-.515l-8.879,3.45a.758.758,0,0,0-.515.907.743.743,0,0,0,.907.515" transform="translate(82.711 77.796)" fill="#8c75b5"/>
        <path id="Trazado_152465" data-name="Trazado 152465" d="M140.178,171.744c2.955-.137,5.911-.258,8.867-.4.944-.044.95-1.519,0-1.474-2.956.137-5.913.258-8.867.4-.945.044-.95,1.519,0,1.474" transform="translate(66.174 80.601)" fill="#8c75b5"/>
        <path id="Trazado_152466" data-name="Trazado 152466" d="M175.049,167.785l12.015.8c.948.063.944-1.411,0-1.474l-12.015-.8c-.948-.063-.944,1.411,0,1.474" transform="translate(82.72 78.909)" fill="#8c75b5"/>
        <path id="Trazado_152467" data-name="Trazado 152467" d="M187.2,184.321c1.48,8.579,3.312,17.108,5.2,25.606.45,2.026.908,4.05,1.393,6.069.223.922,1.646.531,1.423-.392-2.024-8.4-3.767-16.88-5.419-25.36-.41-2.1-.809-4.205-1.174-6.315-.161-.933-1.582-.537-1.421.392" transform="translate(88.817 87.017)" fill="#8c75b5"/>
        <path id="Trazado_152468" data-name="Trazado 152468" d="M135.249,194.668q1.975,8.077,3.952,16.154c.226.922,1.647.531,1.421-.392q-1.975-8.077-3.952-16.154c-.226-.922-1.647-.531-1.421.392" transform="translate(64.161 91.93)" fill="#8c75b5"/>
        <path id="Trazado_152469" data-name="Trazado 152469" d="M139.618,177.723q5.007-3.4,10.237-6.474a.738.738,0,0,0-.745-1.272q-5.22,3.065-10.237,6.474c-.78.529-.043,1.808.745,1.273" transform="translate(65.735 80.599)" fill="#8c75b5"/>
        <path id="Trazado_152492" data-name="Trazado 152492" d="M217.211,205.647c0,.134-9.953.243-22.226.243s-22.229-.109-22.229-.243,9.95-.243,22.229-.243,22.226.109,22.226.243" transform="translate(81.968 97.459)" fill="#1a2e35"/>
      </g>
    </g>
    <g id="Grupo_158818" data-name="Grupo 158818" transform="translate(266.229 4026.475)">
      <g id="Grupo_158820" data-name="Grupo 158820" transform="translate(0 0)">
        <path id="Trazado_154238" data-name="Trazado 154238" d="M69.223,36.951S59.26,1.923,55.555,2.71,80.737,81.282,82.963,80.791s-13.74-43.839-13.74-43.839" transform="translate(-21.774 0.441)" fill="#fff"/>
        <path id="Trazado_154239" data-name="Trazado 154239" d="M42.753,80.093c2.113.841,13.072-44.03,13.072-44.03s5.46-16.79,7.593-27.456c.939-4.656,1.233-8.161.177-8.589-.705-.275-2.036,2.7-3.719,7.67-6.712,19.94-18.807,71.74-17.123,72.405" transform="translate(11.836 0)" fill="#fd9827"/>
        <path id="Trazado_154240" data-name="Trazado 154240" d="M50.73,78.7H71.314a2.726,2.726,0,0,0,2.678-2.333L79.271,42.1a2.743,2.743,0,0,0-2.677-3.187H45.451A2.744,2.744,0,0,0,42.773,42.1L48.051,76.37A2.726,2.726,0,0,0,50.73,78.7" transform="translate(-3.373 6.362)" fill="#785549"/>
        <path id="Trazado_154241" data-name="Trazado 154241" d="M42.594,7.688l3.542.919c.94-4.656,1.233-8.16.177-8.59-.705-.275-2.036,2.7-3.719,7.671" transform="translate(29.118 0)" fill="#f7b369"/>
        <path id="Trazado_154242" data-name="Trazado 154242" d="M125.334,101.405H9.5a7.518,7.518,0,0,1-7.517-7.517v-.375A7.518,7.518,0,0,1,9.5,86H125.334Z" transform="translate(-1.983 14.06)" fill="#31313c"/>
        <path id="Trazado_154243" data-name="Trazado 154243" d="M81.337,101.405H7.09A7.09,7.09,0,0,1,0,94.315V93.086A7.091,7.091,0,0,1,7.09,86H81.337a2.523,2.523,0,0,1,2.524,2.524V98.882a2.523,2.523,0,0,1-2.524,2.524" transform="translate(41.797 14.06)" fill="#12263f"/>
        <path id="Trazado_154244" data-name="Trazado 154244" d="M80.447,98.057H4.825A4.825,4.825,0,0,1,0,93.232V93.1a4.825,4.825,0,0,1,4.825-4.825H80.447Z" transform="translate(45.211 14.432)" fill="#ddd4d1"/>
        <path id="Trazado_154245" data-name="Trazado 154245" d="M17.978,88.1H88.617a7.5,7.5,0,0,0,0-14.992H17.978a2.347,2.347,0,0,0-2.347,2.347v10.3A2.347,2.347,0,0,0,17.978,88.1" transform="translate(11.361 11.953)" fill="#fdb768"/>
        <path id="Trazado_154246" data-name="Trazado 154246" d="M32.782,88.1h70.639a7.5,7.5,0,0,0,0-14.992H32.782a2.347,2.347,0,0,0-2.347,2.347v10.3A2.347,2.347,0,0,0,32.782,88.1" transform="translate(-20.669 11.953)" fill="#fd9827"/>
        <path id="Trazado_154247" data-name="Trazado 154247" d="M33.25,84.846H105.7a4.759,4.759,0,1,0,0-9.519H33.25Z" transform="translate(-23.484 12.315)" fill="#fff"/>
      </g>
    </g>
  </g>
</svg>
