<svg xmlns="http://www.w3.org/2000/svg" xmlns:xlink="http://www.w3.org/1999/xlink" width="112.594" height="68.501" viewBox="0 0 112.594 68.501">
  <defs>
    <clipPath id="clip-path">
      <rect id="Rect치ngulo_34885" data-name="Rect치ngulo 34885" width="112.594" height="68.501" transform="translate(-0.44 0.243)" fill="#12263f"/>
    </clipPath>
    <clipPath id="clip-path-2">
      <rect id="Rect치ngulo_35048" data-name="Rect치ngulo 35048" width="98.344" height="51.172" fill="none"/>
    </clipPath>
  </defs>
  <g id="Grupo_80200" data-name="Grupo 80200" transform="translate(-305 -1930)">
    <g id="Grupo_158012" data-name="Grupo 158012">
      <g id="Enmascarar_grupo_64" data-name="Enmascarar grupo 64" transform="translate(305.44 1929.757)" clip-path="url(#clip-path)">
        <path id="Trazado_151731" data-name="Trazado 151731" d="M53.61,84.647A31.037,31.037,0,1,0,22.572,53.61,31.072,31.072,0,0,0,53.61,84.647m0,22.572a53.61,53.61,0,1,1,53.61-53.61A53.61,53.61,0,0,1,53.61,107.219Z" transform="translate(2.608 15.135)" fill="#31313c"/>
      </g>
      <g id="Grupo_158011" data-name="Grupo 158011" transform="translate(312 1937.232)">
        <g id="Grupo_158011-2" data-name="Grupo 158011" transform="translate(0 0)" clip-path="url(#clip-path-2)">
          <path id="Trazado_151819" data-name="Trazado 151819" d="M12.635,37.271a1.64,1.64,0,0,1-2.176-.09Q6.6,34.242,3.041,30.954A9.325,9.325,0,0,1,0,26.542V24.621a9.469,9.469,0,0,1,3.062-4.4A76.162,76.162,0,0,1,30.844,3.135,54.419,54.419,0,0,1,57.97.749,65.525,65.525,0,0,1,79.787,8.732a86.189,86.189,0,0,1,9.871,6.606,1.712,1.712,0,0,1,.772,2.135c-.461.877-.726.99-1.882.8a4.713,4.713,0,0,1-1.3-.835A72.629,72.629,0,0,0,65.643,5.782,20.286,20.286,0,0,1,69.7,9.952a25.678,25.678,0,0,1,3.161,25.875A28.526,28.526,0,0,1,67.4,43.885c-.516.559-1.164.965-1.66,1.442a63.938,63.938,0,0,0,9.48-3.949A76.567,76.567,0,0,0,90.813,30.783C92.039,29.7,93.2,28.558,94.338,27.4a2.3,2.3,0,0,0,.015-3.623c-.327-.351-.694-.665-1-1.031a2.259,2.259,0,0,1-.73-1.71c.094-.332.171-.676.546-.822a1.569,1.569,0,0,1,2.369.242,8.319,8.319,0,0,1,2.4,3.062,5.5,5.5,0,0,1-1.378,6.169c-9.309,9.174-20.086,15.932-32.73,19.47a54.044,54.044,0,0,1-29.99-.213,71.838,71.838,0,0,1-17.1-7.544,1.585,1.585,0,0,1-.779-2.175,1.511,1.511,0,0,1,2.268-.561c.89.436,1.733.965,2.59,1.465a67.6,67.6,0,0,0,11.669,5.154,25.433,25.433,0,0,1-8.943-16.788A25.3,25.3,0,0,1,28.613,9.987,26.207,26.207,0,0,1,32.655,5.81,71.762,71.762,0,0,0,11.066,17.459a61,61,0,0,0-6.953,6.161c-1.337,1.4-1.338,2.511-.014,3.909a64.949,64.949,0,0,0,7.935,6.929,3.36,3.36,0,0,1,1.011,1.006,1.261,1.261,0,0,1-.411,1.807" transform="translate(0 0)"/>
          <path id="Trazado_151820" data-name="Trazado 151820" d="M14.353,43.081c.645-1.117.557-1.637-.5-2.438A79.1,79.1,0,0,1,5.844,33.78c-1.682-1.67-1.686-3.144,0-4.764a57.631,57.631,0,0,1,6.812-5.888A93.083,93.083,0,0,1,29.5,15.637c.665-.232.679-.219,1.05.232a26.264,26.264,0,0,0-4.316,8.789,25.233,25.233,0,0,0,2.057,18.68,24.557,24.557,0,0,0,6.175,7.622,1.766,1.766,0,0,1,.476.471,46.938,46.938,0,0,1-8.113-3.013,70.3,70.3,0,0,1-6.751-3.6,1.715,1.715,0,0,0-2.4.218c-1.138-.6-2.018-1.635-3.321-1.951" transform="translate(-1.719 -5.81)" fill="#d1eef1"/>
          <path id="Trazado_151821" data-name="Trazado 151821" d="M141.7,28.591a1.612,1.612,0,0,0,1.886-.629c.116.664.7.914,1.137,1.295.543.469,1.065.961,1.6,1.443l-.373.8a17.305,17.305,0,0,0-3.387-2.135c-.333-.2-.822-.237-.86-.77" transform="translate(-53.156 -10.489)" fill="#b1c9cc"/>
          <path id="Trazado_151822" data-name="Trazado 151822" d="M51.745,12.822a5.34,5.34,0,0,1,1.179-1.09c2.4-1.072,5-1.259,7.552-1.583a47.691,47.691,0,0,1,8.5-.422,45.6,45.6,0,0,1,6.562.65c.569.281.317.606.018.889a6.282,6.282,0,0,0-1.275,2.122c-.374.825-.171,1.54.454,1.821s1.186.025,1.629-.751c.159-.278.322-.552.483-.829.711-1.22.7-1.363-.194-2.518-.126-.163-.232-.322.029-.46a13.031,13.031,0,0,1,5.055,1.082A22.229,22.229,0,0,1,89.833,26.35,22.7,22.7,0,0,1,79.179,48.557c-.163.1-.341.166-.512.248a25.4,25.4,0,0,1-9.481.727c-.446-.027-.892-.061-1.338-.1-.893-.071-1.2-.412-1.1-1.307a9.293,9.293,0,0,0,.107-2.005c-.061-.556-.279-1-.909-1.057a1.13,1.13,0,0,0-1.263.806,7.374,7.374,0,0,0-.2,1.611c-.151,1-.477,1.243-1.433.927A19.622,19.622,0,0,1,50.928,37.931a6.154,6.154,0,0,1-.949-2.685c.166-.469.622-.481.994-.629.629-.251,1.177-.616,1-1.388-.168-.747-.782-.907-1.48-.882-.452.016-.94.29-1.349-.144a7.419,7.419,0,0,1-.642-3.171,30.855,30.855,0,0,1,2.672-15.324,9.963,9.963,0,0,1,.568-.885" transform="translate(-18.162 -3.631)" fill="#79b7e8"/>
          <path id="Trazado_151823" data-name="Trazado 151823" d="M127.53,23.912c1.232.707,2.455,1.427,3.7,2.111a.855.855,0,0,1,.548.795,1.925,1.925,0,0,0,.658,1.437c.345.334.692.665,1.027,1.009a2.774,2.774,0,0,1-.042,4.293,75.6,75.6,0,0,1-11.5,9.387A70.163,70.163,0,0,1,104.986,51.3c-.32.1-.631.337-1.059.2a25.616,25.616,0,0,0,6.352-7.335,25.23,25.23,0,0,0,2.951-17.744A26,26,0,0,0,108.5,15.866c.376-.449.389-.461,1.054-.227,2.438.854,4.875,1.714,7.245,2.744a74.553,74.553,0,0,1,9.589,4.748l1.148.78" transform="translate(-38.986 -5.81)" fill="#d1eef1"/>
          <path id="Trazado_151824" data-name="Trazado 151824" d="M47.76,37.057a20.805,20.805,0,0,0,5.469,8.636,21.55,21.55,0,0,0,7.655,4.413c.778.273,1.02-.088,1.08-.767a7.062,7.062,0,0,1,.1-1.524,1.393,1.393,0,0,1,1.785-1.149c.854.139,1,.784,1,1.5a7.709,7.709,0,0,1-.163,1.9c-.134.551,0,.963.747,1.022a43.689,43.689,0,0,0,5.928.156c1.677-.095,3.344-.363,5.015-.554a19.739,19.739,0,0,1-8.151,2.864,22.487,22.487,0,0,1-25.34-17.7c-1.748-8.01.528-15.048,6.254-20.941a1.755,1.755,0,0,1,.315-.209,12.667,12.667,0,0,1-.979,2.577,31.225,31.225,0,0,0-1.9,8.15,28.229,28.229,0,0,0,.418,8.734c-.015.042-.03.084-.044.126a1.679,1.679,0,0,1-.812.451,1.1,1.1,0,0,0-.762,1.345,1.164,1.164,0,0,0,1.364.894c.309-.024.615-.168.928-.024l.1.094" transform="translate(-15.872 -5.518)" fill="#6ca4d0"/>
          <path id="Trazado_151825" data-name="Trazado 151825" d="M78.486,8.7a72.119,72.119,0,0,0-9.974-.573A65.48,65.48,0,0,0,56.1,9.793a3.679,3.679,0,0,1-.472.054,22.578,22.578,0,0,1,28.817,0l-5.183-.954c-.314.157-.551,0-.779-.193" transform="translate(-20.869 -1.745)" fill="#669cc5"/>
          <path id="Trazado_151826" data-name="Trazado 151826" d="M35.4,13.3c-.439-.462-.832-.027-1.208.1a112.575,112.575,0,0,0-16.145,6.993,3.256,3.256,0,0,1-.539.169,54.528,54.528,0,0,1,7.366-5.125A66.809,66.809,0,0,1,39.43,8.736c.086-.027.179-.034.574-.107A33.332,33.332,0,0,0,35.4,13.3" transform="translate(-6.567 -3.237)" fill="#b2cacd"/>
          <path id="Trazado_151827" data-name="Trazado 151827" d="M126.451,20.567a1.82,1.82,0,0,1-.88-.344A113.561,113.561,0,0,0,109.6,13.328c-.307-.1-.681-.49-1.032-.026a37.085,37.085,0,0,0-4.455-4.649c.565.185,1.131.367,1.695.556s1.15.374,1.715.589a74.209,74.209,0,0,1,18.681,10.5,2.06,2.06,0,0,1,.251.274" transform="translate(-39.054 -3.246)" fill="#b2cacd"/>
          <path id="Trazado_151828" data-name="Trazado 151828" d="M70.307,19.641a13.313,13.313,0,0,1,6.447,1.5,1.087,1.087,0,0,0,1.358-.117A6.992,6.992,0,0,1,89.3,27.028a6.629,6.629,0,0,1-4.524,6.087,1.149,1.149,0,0,0-.871,1.129A13.264,13.264,0,1,1,67.363,20.076a11.966,11.966,0,0,1,2.944-.436" transform="translate(-21.552 -7.33)"/>
          <path id="Trazado_151829" data-name="Trazado 151829" d="M91.02,11.124a1.251,1.251,0,0,1,.779.193c1.255.89,1.369,1.394.615,2.773-.228.418-.475.826-.708,1.242a1.382,1.382,0,0,1-1.851.67,1.455,1.455,0,0,1-.709-1.85,9.472,9.472,0,0,1,1.874-3.028" transform="translate(-33.403 -4.17)" fill="#6ca5d1"/>
          <path id="Trazado_151830" data-name="Trazado 151830" d="M105.874,50.058a9.187,9.187,0,0,1-2.713-.787,1.32,1.32,0,0,1-.7-1.78,1.367,1.367,0,0,1,1.789-.819c.7.219,1.422.368,2.1.644a1.333,1.333,0,0,1,.945,1.492,1.493,1.493,0,0,1-1.416,1.25" transform="translate(-38.386 -17.475)" fill="#6ca5d1"/>
          <path id="Trazado_151831" data-name="Trazado 151831" d="M100.567,59.949a5.059,5.059,0,0,1-3.106-2.542,1.128,1.128,0,0,1,.419-1.2c.429-.29.87-.654,1.483-.307a8.94,8.94,0,0,1,2.294,1.845,1.1,1.1,0,0,1,.212,1.4c-.316.532-.707.908-1.3.8" transform="translate(-36.55 -20.917)" fill="#6ca5d1"/>
          <path id="Trazado_151832" data-name="Trazado 151832" d="M64.032,15.979a1.326,1.326,0,0,1-.94,1.337,1.211,1.211,0,0,1-1.45-.407,9.6,9.6,0,0,1-1.565-2.5c-.26-.6.143-.969.51-1.315.386-.363.862-.642,1.377-.289a5.43,5.43,0,0,1,2.068,3.171" transform="translate(-22.506 -4.744)" fill="#6ca5d1"/>
          <path id="Trazado_151833" data-name="Trazado 151833" d="M49.755,45.727c.536-.016,1.042-.209,1.592-.209a1.365,1.365,0,0,1,1.422,1.154,1.346,1.346,0,0,1-.9,1.513,8.563,8.563,0,0,1-1.348.429l-.01-.009a3.57,3.57,0,0,1-.769-2.865Z" transform="translate(-18.637 -17.075)" fill="#6ca4d0"/>
          <path id="Trazado_151834" data-name="Trazado 151834" d="M48.637,45.874l.769,2.865c-.536.033-1.057.343-1.6.176a1.365,1.365,0,0,1-1.075-1.193,1.308,1.308,0,0,1,.824-1.463c.354-.141.718-.257,1.078-.385" transform="translate(-17.529 -17.209)" fill="#6295bb"/>
          <path id="Trazado_151835" data-name="Trazado 151835" d="M73.811,71.866l2.413.495c-.345.551-.77.83-1.31.679s-1.089-.376-1.1-1.174" transform="translate(-27.689 -26.959)" fill="#6295bc"/>
          <path id="Trazado_151836" data-name="Trazado 151836" d="M72.459,45.082a10.386,10.386,0,1,1,4.217-19.873c.677.3.866.6.632,1.371a6.864,6.864,0,0,0,4.49,8.405c.972.3,1.049.662.881,1.532a10.5,10.5,0,0,1-10.22,8.565" transform="translate(-23.281 -9.124)" fill="#3a6589"/>
          <path id="Trazado_151837" data-name="Trazado 151837" d="M90.654,28.308A4.122,4.122,0,0,1,94.821,24.2a4.14,4.14,0,1,1-4.167,4.112" transform="translate(-34.007 -9.077)" fill="#fefefe"/>
        </g>
      </g>
    </g>
  </g>
</svg>
