<svg xmlns="http://www.w3.org/2000/svg" xmlns:xlink="http://www.w3.org/1999/xlink" width="77" height="77" viewBox="0 0 77 77">
  <defs>
    <clipPath id="clip-path">
      <rect id="Rectángulo_35045" data-name="Rectángulo 35045" width="48.096" height="39.041" fill="#31313c"/>
    </clipPath>
  </defs>
  <g id="Grupo_158004" data-name="Grupo 158004" transform="translate(-867 -1572)">
    <circle id="Elipse_4725" data-name="Elipse 4725" cx="38.5" cy="38.5" r="38.5" transform="translate(867 1572)" fill="#fd9827"/>
    <g id="Grupo_158003" data-name="Grupo 158003" transform="translate(881 1591)">
      <g id="Grupo_158002" data-name="Grupo 158002" transform="translate(0 0)" clip-path="url(#clip-path)">
        <path id="Trazado_151801" data-name="Trazado 151801" d="M120.722,77.234a.511.511,0,0,0,.079-.193,1.255,1.255,0,0,1-.079.193" transform="translate(-72.799 -46.458)" fill="#31313c"/>
        <path id="Trazado_151802" data-name="Trazado 151802" d="M38.874,38.092c0-.638,0-.632-.638-.69a5.3,5.3,0,0,1-4.915-3.631c-1.2-3.247-2.487-6.468-3.739-9.692Q25.365,13.164,21.159,2.25a.572.572,0,0,0-.673-.449,11.876,11.876,0,0,1-1.595,0,.623.623,0,0,0-.737.485v.005Q13.69,13.835,9.192,25.365c-1.131,2.89-2.209,5.8-3.479,8.636a5.3,5.3,0,0,1-3.683,3.133c-.67.17-1.352.243-2.029.358v2.628c.171-.009.342-.026.512-.026H6.993c2.425,0,4.85-.009,7.276.009.381,0,.482-.107.461-.472-.031-.514-.008-1.032-.008-1.548,0-.634,0-.635-.654-.674a10.994,10.994,0,0,1-3.606-.757c-.965-.4-1.136-.715-1-1.763.026-.2.044-.4.089-.606a59.318,59.318,0,0,1,2.191-6.711c.1-.286.292-.266.513-.266q5.8,0,11.6-.006a.5.5,0,0,1,.567.393c.883,2.433,1.813,4.851,2.675,7.292.553,1.564.541,1.568-1.091,2.028a15.029,15.029,0,0,1-2.923.4c-.3.023-.395.12-.383.424.027.606.033,1.222,0,1.831-.021.372.114.432.451.43,2.269-.014,4.539-.007,6.809-.007,2.83,0,5.667-.006,8.5.007.328,0,.434-.083.417-.416-.021-.527,0-1.061,0-1.592M22.559,24.182q-4.528-.021-9.055,0c-.288,0-.43,0-.286-.371q2.359-6.078,4.689-12.17c.022-.057.05-.11.113-.247.7,1.793,1.358,3.491,2.021,5.186.934,2.4,1.861,4.794,2.811,7.183.148.359.087.42-.293.418Z" transform="translate(0 -1.078)" fill="#31313c"/>
        <path id="Trazado_151803" data-name="Trazado 151803" d="M104.768,5.855c-1.183-1.927-2.346-3.869-3.546-5.855L96.29,8.15c1.132,0,2.181.022,3.227-.011.419-.013.512.1.511.514q-.021,10.325-.01,20.649c0,1.143,0,1.143-1.136,1.143h-2.6l4.935,8.154.988-1.628,3.774-6.2a1.254,1.254,0,0,0,.079-.193c.009-.1-.078-.146-.287-.143-.985.015-1.972,0-2.957.011-.293,0-.4-.057-.4-.384q.016-10.775,0-21.551c0-.338.13-.374.41-.372,1.112.009,2.223,0,3.335-.006V8.044a18.285,18.285,0,0,1-1.391-2.189" transform="translate(-58.063 0)" fill="#31313c"/>
        <path id="Trazado_151804" data-name="Trazado 151804" d="M112.12,20.517c-.28,0-.411.035-.41.372q.016,10.775,0,21.55c0,.327.112.389.4.384.986-.015,1.973,0,2.958-.011.208,0,.295.039.286.143.065-.22-.038-.3-.38-.318-.765-.041-1.532-.012-2.3-.015-.832,0-.834,0-.834-.817V21.259c0-.546.048-.59.588-.594.781-.007,1.563,0,2.345,0a.933.933,0,0,0,.669-.149c-1.106,0-2.217.01-3.329,0" transform="translate(-67.364 -12.371)" fill="#31313c"/>
      </g>
    </g>
  </g>
</svg>
