<svg xmlns="http://www.w3.org/2000/svg" xmlns:xlink="http://www.w3.org/1999/xlink" width="77" height="77" viewBox="0 0 77 77">
  <defs>
    <clipPath id="clip-path">
      <rect id="Rectángulo_35046" data-name="Rectángulo 35046" width="42.393" height="37.915" fill="#31313c"/>
    </clipPath>
  </defs>
  <g id="Grupo_158007" data-name="Grupo 158007" transform="translate(-657 -1572)">
    <circle id="Elipse_4724" data-name="Elipse 4724" cx="38.5" cy="38.5" r="38.5" transform="translate(657 1572)" fill="#fd9827"/>
    <g id="Grupo_158006" data-name="Grupo 158006" transform="translate(674 1592)">
      <g id="Grupo_158005" data-name="Grupo 158005" clip-path="url(#clip-path)">
        <path id="Trazado_151805" data-name="Trazado 151805" d="M41.613,1.671A3.878,3.878,0,0,0,38.158,0Q29.694,0,21.231,0,12.726,0,4.221,0a3.87,3.87,0,0,0-3.8,2.283,4.393,4.393,0,0,0-.4,1.792Q-.018,18.955,0,33.834a3.92,3.92,0,0,0,3.03,3.94,4.4,4.4,0,0,0,1.145.131q17.01.01,34.02.01a4.018,4.018,0,0,0,4.142-3.447.419.419,0,0,1,.052-.112V3.555a10.064,10.064,0,0,0-.779-1.884M40.395,33.712a2.016,2.016,0,0,1-2.188,2.2q-17.032.007-34.063,0a2,2,0,0,1-2.178-2.2q-.009-3.745.007-7.491a.848.848,0,0,1,.211-.539q5.333-5.465,10.686-10.911c.076-.078.16-.148.265-.243l2.29,2.631Q19.214,21.509,23,25.865a1.144,1.144,0,0,0,1.853.218l7.432-5.252c.146-.1.293-.2.453-.315l1.819,1.311q2.769,2,5.541,3.987a.619.619,0,0,1,.3.572c-.012,2.442,0,4.884-.008,7.326m.034-10.535c0,.117-.015.235-.026.4-.166-.111-.291-.189-.41-.275L33.541,18.67a1.078,1.078,0,0,0-1.6,0l-7.385,5.251c-.122.087-.248.17-.406.28-.449-.514-.892-1.018-1.333-1.524l-8.671-9.958c-.685-.786-1.193-.8-1.926-.06q-4.921,5-9.84,10.005c-.106.108-.2.228-.3.343l-.12-.042v-.436c0-6.071.021-12.143-.015-18.214A2.151,2.151,0,0,1,4.278,1.992q16.93.025,33.861.01a2.021,2.021,0,0,1,2.21,1.48,2.876,2.876,0,0,1,.078.736q.006,9.479,0,18.959" transform="translate(0 0)" fill="#31313c"/>
        <path id="Trazado_151806" data-name="Trazado 151806" d="M83.342,20.991a5.107,5.107,0,1,0,5.119,5.1,5.107,5.107,0,0,0-5.119-5.1m.019,8.251a3.153,3.153,0,1,1-.017-6.306,3.153,3.153,0,0,1,.017,6.306" transform="translate(-56.119 -15.058)" fill="#31313c"/>
      </g>
    </g>
  </g>
</svg>
