<svg xmlns="http://www.w3.org/2000/svg" xmlns:xlink="http://www.w3.org/1999/xlink" width="295.247" height="298.339" viewBox="0 0 295.247 298.339">
  <defs>
    <clipPath id="clip-path">
      <rect id="Rectángulo_34881" data-name="Rectángulo 34881" width="60.376" height="30.801" fill="#12263f"/>
    </clipPath>
    <clipPath id="clip-path-2">
      <rect id="Rectángulo_35414" data-name="Rectángulo 35414" width="45.961" height="15.259" fill="none"/>
    </clipPath>
    <clipPath id="clip-path-3">
      <rect id="Rectángulo_35415" data-name="Rectángulo 35415" width="50.034" height="46.753" fill="none"/>
    </clipPath>
    <clipPath id="clip-path-4">
      <rect id="Rectángulo_35416" data-name="Rectángulo 35416" width="23.064" height="25.107" fill="none"/>
    </clipPath>
    <clipPath id="clip-path-5">
      <rect id="Rectángulo_35417" data-name="Rectángulo 35417" width="33.337" height="24.743" fill="#b58868"/>
    </clipPath>
    <clipPath id="clip-path-6">
      <rect id="Rectángulo_35418" data-name="Rectángulo 35418" width="37.925" height="8.145" fill="none"/>
    </clipPath>
    <clipPath id="clip-path-7">
      <rect id="Rectángulo_35419" data-name="Rectángulo 35419" width="14.125" height="14.13" fill="none"/>
    </clipPath>
    <clipPath id="clip-path-8">
      <rect id="Rectángulo_35420" data-name="Rectángulo 35420" width="41.619" height="28.038" fill="#31313c"/>
    </clipPath>
    <clipPath id="clip-path-9">
      <rect id="Rectángulo_35421" data-name="Rectángulo 35421" width="46.773" height="15.529" fill="none"/>
    </clipPath>
    <clipPath id="clip-path-10">
      <rect id="Rectángulo_35422" data-name="Rectángulo 35422" width="54.759" height="54.425" fill="none"/>
    </clipPath>
    <clipPath id="clip-path-11">
      <rect id="Rectángulo_35423" data-name="Rectángulo 35423" width="15.567" height="36.477" fill="none"/>
    </clipPath>
    <clipPath id="clip-path-12">
      <rect id="Rectángulo_35424" data-name="Rectángulo 35424" width="23.886" height="68.69" fill="none"/>
    </clipPath>
    <clipPath id="clip-path-13">
      <rect id="Rectángulo_35426" data-name="Rectángulo 35426" width="29.804" height="27.832" fill="none"/>
    </clipPath>
    <clipPath id="clip-path-14">
      <rect id="Rectángulo_35427" data-name="Rectángulo 35427" width="15.723" height="22.25" fill="none"/>
    </clipPath>
    <clipPath id="clip-path-15">
      <rect id="Rectángulo_35428" data-name="Rectángulo 35428" width="17.598" height="24.397" fill="none"/>
    </clipPath>
    <clipPath id="clip-path-16">
      <rect id="Rectángulo_35429" data-name="Rectángulo 35429" width="41.61" height="91.118" fill="none"/>
    </clipPath>
    <clipPath id="clip-path-17">
      <rect id="Rectángulo_35430" data-name="Rectángulo 35430" width="37.045" height="7.956" fill="none"/>
    </clipPath>
    <clipPath id="clip-path-18">
      <rect id="Rectángulo_35431" data-name="Rectángulo 35431" width="37.976" height="40.965" fill="none"/>
    </clipPath>
    <clipPath id="clip-path-19">
      <rect id="Rectángulo_35432" data-name="Rectángulo 35432" width="40.652" height="27.388" fill="none"/>
    </clipPath>
    <clipPath id="clip-path-20">
      <rect id="Rectángulo_35433" data-name="Rectángulo 35433" width="11.209" height="12.608" fill="none"/>
    </clipPath>
  </defs>
  <g id="Grupo_158706" data-name="Grupo 158706" transform="translate(-237 -4042)">
    <g id="Grupo_158234" data-name="Grupo 158234" transform="translate(237 4042)">
      <g id="Grupo_157882" data-name="Grupo 157882" transform="translate(0 0)">
        <path id="Rectángulo_34948" data-name="Rectángulo 34948" d="M56,0H284.267a0,0,0,0,1,0,0V203.179a56,56,0,0,1-56,56H0a0,0,0,0,1,0,0V56A56,56,0,0,1,56,0Z" transform="translate(4.39 23.475)" fill="#f5e8df"/>
        <g id="Enmascarar_grupo_63" data-name="Enmascarar grupo 63" transform="translate(234.871 0.2)" clip-path="url(#clip-path)">
          <path id="Trazado_151731" data-name="Trazado 151731" d="M28.747,45.39A16.643,16.643,0,1,1,45.39,28.747,16.662,16.662,0,0,1,28.747,45.39m0,12.1A28.747,28.747,0,1,0,0,28.747,28.747,28.747,0,0,0,28.747,57.494Z" transform="translate(1.247 2.054)" fill="#fd9827"/>
        </g>
        <g id="Grupo_78301" data-name="Grupo 78301" transform="translate(0)">
          <path id="Trazado_145969" data-name="Trazado 145969" d="M22.552,0A22.552,22.552,0,1,1,0,22.552,22.552,22.552,0,0,1,22.552,0Z" transform="translate(0 2.397)" fill="#fd9827" opacity="0.444" style="mix-blend-mode: multiply;isolation: isolate"/>
          <rect id="Rectángulo_34812" data-name="Rectángulo 34812" width="295.247" height="291.109" transform="translate(0)" fill="none"/>
          <path id="Trazado_145971" data-name="Trazado 145971" d="M5.391,0A5.391,5.391,0,1,1,0,5.391,5.391,5.391,0,0,1,5.391,0Z" transform="translate(21.298 269.644)" fill="#31313c" opacity="0.444" style="mix-blend-mode: multiply;isolation: isolate"/>
          <g id="Grupo_80270" data-name="Grupo 80270" transform="translate(237.857 240.948)">
            <path id="Trazado_145968" data-name="Trazado 145968" d="M28.7,0A28.7,28.7,0,1,1,0,28.7,28.7,28.7,0,0,1,28.7,0Z" fill="#31313c" opacity="0.444" style="mix-blend-mode: multiply;isolation: isolate"/>
            <g id="Grupo_78276" data-name="Grupo 78276" transform="translate(11.204 11.863)">
              <g id="Grupo_53306" data-name="Grupo 53306">
                <path id="Trazado_99200" data-name="Trazado 99200" d="M414.993,50.6a.39.39,0,1,1-.39-.372A.381.381,0,0,1,414.993,50.6Z" transform="translate(-414.214 -50.224)" fill="#fff"/>
                <path id="Trazado_99201" data-name="Trazado 99201" d="M423.439,50.6a.39.39,0,1,1-.389-.372A.381.381,0,0,1,423.439,50.6Z" transform="translate(-419.153 -50.224)" fill="#fff"/>
                <path id="Trazado_99202" data-name="Trazado 99202" d="M431.885,50.6a.39.39,0,1,1-.389-.372A.381.381,0,0,1,431.885,50.6Z" transform="translate(-424.093 -50.224)" fill="#fff"/>
                <path id="Trazado_99203" data-name="Trazado 99203" d="M440.332,50.6a.39.39,0,1,1-.39-.372A.381.381,0,0,1,440.332,50.6Z" transform="translate(-429.033 -50.224)" fill="#fff"/>
                <path id="Trazado_99204" data-name="Trazado 99204" d="M448.778,50.6a.39.39,0,1,1-.389-.372A.381.381,0,0,1,448.778,50.6Z" transform="translate(-433.972 -50.224)" fill="#fff"/>
                <path id="Trazado_99205" data-name="Trazado 99205" d="M457.224,50.6a.39.39,0,1,1-.389-.372A.381.381,0,0,1,457.224,50.6Z" transform="translate(-438.911 -50.224)" fill="#fff"/>
                <path id="Trazado_99206" data-name="Trazado 99206" d="M465.671,50.6a.39.39,0,1,1-.39-.372A.382.382,0,0,1,465.671,50.6Z" transform="translate(-443.851 -50.224)" fill="#fff"/>
                <path id="Trazado_99207" data-name="Trazado 99207" d="M474.117,50.6a.39.39,0,1,1-.389-.372A.381.381,0,0,1,474.117,50.6Z" transform="translate(-448.79 -50.224)" fill="#fff"/>
                <path id="Trazado_99208" data-name="Trazado 99208" d="M482.563,50.6a.39.39,0,1,1-.389-.372A.381.381,0,0,1,482.563,50.6Z" transform="translate(-453.73 -50.224)" fill="#fff"/>
                <path id="Trazado_99209" data-name="Trazado 99209" d="M491.01,50.6a.39.39,0,1,1-.39-.372A.382.382,0,0,1,491.01,50.6Z" transform="translate(-458.67 -50.224)" fill="#fff"/>
                <path id="Trazado_99210" data-name="Trazado 99210" d="M499.456,50.6a.39.39,0,1,1-.39-.372A.381.381,0,0,1,499.456,50.6Z" transform="translate(-463.609 -50.224)" fill="#fff"/>
              </g>
              <g id="Grupo_53307" data-name="Grupo 53307" transform="translate(0 2.981)">
                <path id="Trazado_99211" data-name="Trazado 99211" d="M414.993,58.1a.39.39,0,1,1-.39-.372A.381.381,0,0,1,414.993,58.1Z" transform="translate(-414.214 -57.732)" fill="#fff"/>
                <path id="Trazado_99212" data-name="Trazado 99212" d="M423.439,58.1a.39.39,0,1,1-.389-.372A.381.381,0,0,1,423.439,58.1Z" transform="translate(-419.153 -57.732)" fill="#fff"/>
                <path id="Trazado_99213" data-name="Trazado 99213" d="M431.885,58.1a.39.39,0,1,1-.389-.372A.381.381,0,0,1,431.885,58.1Z" transform="translate(-424.093 -57.732)" fill="#fff"/>
                <path id="Trazado_99214" data-name="Trazado 99214" d="M440.332,58.1a.39.39,0,1,1-.39-.372A.381.381,0,0,1,440.332,58.1Z" transform="translate(-429.033 -57.732)" fill="#fff"/>
                <path id="Trazado_99215" data-name="Trazado 99215" d="M448.778,58.1a.39.39,0,1,1-.389-.372A.381.381,0,0,1,448.778,58.1Z" transform="translate(-433.972 -57.732)" fill="#fff"/>
                <path id="Trazado_99216" data-name="Trazado 99216" d="M457.224,58.1a.39.39,0,1,1-.389-.372A.381.381,0,0,1,457.224,58.1Z" transform="translate(-438.911 -57.732)" fill="#fff"/>
                <path id="Trazado_99217" data-name="Trazado 99217" d="M465.671,58.1a.39.39,0,1,1-.39-.372A.382.382,0,0,1,465.671,58.1Z" transform="translate(-443.851 -57.732)" fill="#fff"/>
                <path id="Trazado_99218" data-name="Trazado 99218" d="M474.117,58.1a.39.39,0,1,1-.389-.372A.381.381,0,0,1,474.117,58.1Z" transform="translate(-448.79 -57.732)" fill="#fff"/>
                <path id="Trazado_99219" data-name="Trazado 99219" d="M482.563,58.1a.39.39,0,1,1-.389-.372A.381.381,0,0,1,482.563,58.1Z" transform="translate(-453.73 -57.732)" fill="#fff"/>
                <path id="Trazado_99220" data-name="Trazado 99220" d="M491.01,58.1a.39.39,0,1,1-.39-.372A.382.382,0,0,1,491.01,58.1Z" transform="translate(-458.67 -57.732)" fill="#fff"/>
                <path id="Trazado_99221" data-name="Trazado 99221" d="M499.456,58.1a.39.39,0,1,1-.39-.372A.381.381,0,0,1,499.456,58.1Z" transform="translate(-463.609 -57.732)" fill="#fff"/>
              </g>
              <g id="Grupo_53308" data-name="Grupo 53308" transform="translate(0 5.962)">
                <ellipse id="Elipse_3955" data-name="Elipse 3955" cx="0.39" cy="0.373" rx="0.39" ry="0.373" fill="#fff"/>
                <path id="Trazado_99222" data-name="Trazado 99222" d="M423.439,65.612a.39.39,0,1,1-.389-.372A.382.382,0,0,1,423.439,65.612Z" transform="translate(-419.153 -65.24)" fill="#fff"/>
                <ellipse id="Elipse_3956" data-name="Elipse 3956" cx="0.39" cy="0.373" rx="0.39" ry="0.373" transform="translate(7.014)" fill="#fff"/>
                <path id="Trazado_99223" data-name="Trazado 99223" d="M440.332,65.612a.39.39,0,1,1-.39-.372A.382.382,0,0,1,440.332,65.612Z" transform="translate(-429.032 -65.24)" fill="#fff"/>
                <path id="Trazado_99224" data-name="Trazado 99224" d="M448.778,65.612a.39.39,0,1,1-.389-.372A.382.382,0,0,1,448.778,65.612Z" transform="translate(-433.972 -65.24)" fill="#fff"/>
                <ellipse id="Elipse_3957" data-name="Elipse 3957" cx="0.39" cy="0.373" rx="0.39" ry="0.373" transform="translate(17.534)" fill="#fff"/>
                <path id="Trazado_99225" data-name="Trazado 99225" d="M465.671,65.612a.39.39,0,1,1-.39-.372A.382.382,0,0,1,465.671,65.612Z" transform="translate(-443.851 -65.24)" fill="#fff"/>
                <ellipse id="Elipse_3958" data-name="Elipse 3958" cx="0.39" cy="0.373" rx="0.39" ry="0.373" transform="translate(24.548)" fill="#fff"/>
                <ellipse id="Elipse_3959" data-name="Elipse 3959" cx="0.39" cy="0.373" rx="0.39" ry="0.373" transform="translate(28.055)" fill="#fff"/>
                <path id="Trazado_99226" data-name="Trazado 99226" d="M491.01,65.612a.39.39,0,1,1-.39-.372A.382.382,0,0,1,491.01,65.612Z" transform="translate(-458.67 -65.24)" fill="#fff"/>
                <path id="Trazado_99227" data-name="Trazado 99227" d="M499.456,65.612a.39.39,0,1,1-.39-.372A.382.382,0,0,1,499.456,65.612Z" transform="translate(-463.609 -65.24)" fill="#fff"/>
              </g>
              <g id="Grupo_53309" data-name="Grupo 53309" transform="translate(0 8.943)">
                <ellipse id="Elipse_3960" data-name="Elipse 3960" cx="0.39" cy="0.373" rx="0.39" ry="0.373" transform="translate(0 0)" fill="#fff"/>
                <path id="Trazado_99228" data-name="Trazado 99228" d="M423.439,73.12a.39.39,0,1,1-.389-.373A.381.381,0,0,1,423.439,73.12Z" transform="translate(-419.153 -72.747)" fill="#fff"/>
                <ellipse id="Elipse_3961" data-name="Elipse 3961" cx="0.39" cy="0.373" rx="0.39" ry="0.373" transform="translate(7.014 0)" fill="#fff"/>
                <path id="Trazado_99229" data-name="Trazado 99229" d="M440.332,73.12a.39.39,0,1,1-.39-.373A.381.381,0,0,1,440.332,73.12Z" transform="translate(-429.032 -72.747)" fill="#fff"/>
                <path id="Trazado_99230" data-name="Trazado 99230" d="M448.778,73.12a.39.39,0,1,1-.389-.373A.381.381,0,0,1,448.778,73.12Z" transform="translate(-433.972 -72.747)" fill="#fff"/>
                <ellipse id="Elipse_3962" data-name="Elipse 3962" cx="0.39" cy="0.373" rx="0.39" ry="0.373" transform="translate(17.534 0)" fill="#fff"/>
                <path id="Trazado_99231" data-name="Trazado 99231" d="M465.671,73.12a.39.39,0,1,1-.39-.373A.382.382,0,0,1,465.671,73.12Z" transform="translate(-443.851 -72.747)" fill="#fff"/>
                <ellipse id="Elipse_3963" data-name="Elipse 3963" cx="0.39" cy="0.373" rx="0.39" ry="0.373" transform="translate(24.548 0)" fill="#fff"/>
                <ellipse id="Elipse_3964" data-name="Elipse 3964" cx="0.39" cy="0.373" rx="0.39" ry="0.373" transform="translate(28.055 0)" fill="#fff"/>
                <path id="Trazado_99232" data-name="Trazado 99232" d="M491.01,73.12a.39.39,0,1,1-.39-.373A.382.382,0,0,1,491.01,73.12Z" transform="translate(-458.67 -72.747)" fill="#fff"/>
                <path id="Trazado_99233" data-name="Trazado 99233" d="M499.456,73.12a.39.39,0,1,1-.39-.373A.381.381,0,0,1,499.456,73.12Z" transform="translate(-463.609 -72.747)" fill="#fff"/>
              </g>
              <g id="Grupo_53310" data-name="Grupo 53310" transform="translate(0 11.924)">
                <path id="Trazado_99234" data-name="Trazado 99234" d="M414.993,80.628a.39.39,0,1,1-.39-.373A.381.381,0,0,1,414.993,80.628Z" transform="translate(-414.214 -80.255)" fill="#fff"/>
                <path id="Trazado_99235" data-name="Trazado 99235" d="M423.439,80.628a.39.39,0,1,1-.389-.373A.381.381,0,0,1,423.439,80.628Z" transform="translate(-419.153 -80.255)" fill="#fff"/>
                <path id="Trazado_99236" data-name="Trazado 99236" d="M431.885,80.628a.39.39,0,1,1-.389-.373A.381.381,0,0,1,431.885,80.628Z" transform="translate(-424.093 -80.255)" fill="#fff"/>
                <path id="Trazado_99237" data-name="Trazado 99237" d="M440.332,80.628a.39.39,0,1,1-.39-.373A.381.381,0,0,1,440.332,80.628Z" transform="translate(-429.033 -80.255)" fill="#fff"/>
                <path id="Trazado_99238" data-name="Trazado 99238" d="M448.778,80.628a.39.39,0,1,1-.389-.373A.381.381,0,0,1,448.778,80.628Z" transform="translate(-433.972 -80.255)" fill="#fff"/>
                <path id="Trazado_99239" data-name="Trazado 99239" d="M457.224,80.628a.39.39,0,1,1-.389-.373A.381.381,0,0,1,457.224,80.628Z" transform="translate(-438.911 -80.255)" fill="#fff"/>
                <path id="Trazado_99240" data-name="Trazado 99240" d="M465.671,80.628a.39.39,0,1,1-.39-.373A.382.382,0,0,1,465.671,80.628Z" transform="translate(-443.851 -80.255)" fill="#fff"/>
                <path id="Trazado_99241" data-name="Trazado 99241" d="M474.117,80.628a.39.39,0,1,1-.389-.373A.381.381,0,0,1,474.117,80.628Z" transform="translate(-448.79 -80.255)" fill="#fff"/>
                <path id="Trazado_99242" data-name="Trazado 99242" d="M482.563,80.628a.39.39,0,1,1-.389-.373A.381.381,0,0,1,482.563,80.628Z" transform="translate(-453.73 -80.255)" fill="#fff"/>
                <path id="Trazado_99243" data-name="Trazado 99243" d="M491.01,80.628a.39.39,0,1,1-.39-.373A.382.382,0,0,1,491.01,80.628Z" transform="translate(-458.67 -80.255)" fill="#fff"/>
                <path id="Trazado_99244" data-name="Trazado 99244" d="M499.456,80.628a.39.39,0,1,1-.39-.373A.381.381,0,0,1,499.456,80.628Z" transform="translate(-463.609 -80.255)" fill="#fff"/>
              </g>
              <g id="Grupo_53311" data-name="Grupo 53311" transform="translate(0 14.905)">
                <ellipse id="Elipse_3965" data-name="Elipse 3965" cx="0.39" cy="0.373" rx="0.39" ry="0.373" transform="translate(0 0)" fill="#fff"/>
                <path id="Trazado_99245" data-name="Trazado 99245" d="M423.439,88.136a.39.39,0,1,1-.389-.373A.381.381,0,0,1,423.439,88.136Z" transform="translate(-419.153 -87.763)" fill="#fff"/>
                <ellipse id="Elipse_3966" data-name="Elipse 3966" cx="0.39" cy="0.373" rx="0.39" ry="0.373" transform="translate(7.014 0)" fill="#fff"/>
                <path id="Trazado_99246" data-name="Trazado 99246" d="M440.332,88.136a.39.39,0,1,1-.39-.373A.381.381,0,0,1,440.332,88.136Z" transform="translate(-429.032 -87.763)" fill="#fff"/>
                <path id="Trazado_99247" data-name="Trazado 99247" d="M448.778,88.136a.39.39,0,1,1-.389-.373A.381.381,0,0,1,448.778,88.136Z" transform="translate(-433.972 -87.763)" fill="#fff"/>
                <ellipse id="Elipse_3967" data-name="Elipse 3967" cx="0.39" cy="0.373" rx="0.39" ry="0.373" transform="translate(17.534 0)" fill="#fff"/>
                <path id="Trazado_99248" data-name="Trazado 99248" d="M465.671,88.136a.39.39,0,1,1-.39-.373A.382.382,0,0,1,465.671,88.136Z" transform="translate(-443.851 -87.763)" fill="#fff"/>
                <ellipse id="Elipse_3968" data-name="Elipse 3968" cx="0.39" cy="0.373" rx="0.39" ry="0.373" transform="translate(24.548 0)" fill="#fff"/>
                <ellipse id="Elipse_3969" data-name="Elipse 3969" cx="0.39" cy="0.373" rx="0.39" ry="0.373" transform="translate(28.055 0)" fill="#fff"/>
                <path id="Trazado_99249" data-name="Trazado 99249" d="M491.01,88.136a.39.39,0,1,1-.39-.373A.382.382,0,0,1,491.01,88.136Z" transform="translate(-458.67 -87.763)" fill="#fff"/>
                <path id="Trazado_99250" data-name="Trazado 99250" d="M499.456,88.136a.39.39,0,1,1-.39-.373A.381.381,0,0,1,499.456,88.136Z" transform="translate(-463.609 -87.763)" fill="#fff"/>
              </g>
              <g id="Grupo_53312" data-name="Grupo 53312" transform="translate(0 17.886)">
                <ellipse id="Elipse_3970" data-name="Elipse 3970" cx="0.39" cy="0.373" rx="0.39" ry="0.373" fill="#fff"/>
                <path id="Trazado_99251" data-name="Trazado 99251" d="M423.439,95.643a.39.39,0,1,1-.389-.372A.381.381,0,0,1,423.439,95.643Z" transform="translate(-419.153 -95.271)" fill="#fff"/>
                <ellipse id="Elipse_3971" data-name="Elipse 3971" cx="0.39" cy="0.373" rx="0.39" ry="0.373" transform="translate(7.014)" fill="#fff"/>
                <path id="Trazado_99252" data-name="Trazado 99252" d="M440.332,95.643a.39.39,0,1,1-.39-.372A.381.381,0,0,1,440.332,95.643Z" transform="translate(-429.032 -95.271)" fill="#fff"/>
                <path id="Trazado_99253" data-name="Trazado 99253" d="M448.778,95.643a.39.39,0,1,1-.389-.372A.381.381,0,0,1,448.778,95.643Z" transform="translate(-433.972 -95.271)" fill="#fff"/>
                <ellipse id="Elipse_3972" data-name="Elipse 3972" cx="0.39" cy="0.373" rx="0.39" ry="0.373" transform="translate(17.534)" fill="#fff"/>
                <path id="Trazado_99254" data-name="Trazado 99254" d="M465.671,95.643a.39.39,0,1,1-.39-.372A.382.382,0,0,1,465.671,95.643Z" transform="translate(-443.851 -95.271)" fill="#fff"/>
                <ellipse id="Elipse_3973" data-name="Elipse 3973" cx="0.39" cy="0.373" rx="0.39" ry="0.373" transform="translate(24.548)" fill="#fff"/>
                <ellipse id="Elipse_3974" data-name="Elipse 3974" cx="0.39" cy="0.373" rx="0.39" ry="0.373" transform="translate(28.055)" fill="#fff"/>
                <path id="Trazado_99255" data-name="Trazado 99255" d="M491.01,95.643a.39.39,0,1,1-.39-.372A.382.382,0,0,1,491.01,95.643Z" transform="translate(-458.67 -95.271)" fill="#fff"/>
                <path id="Trazado_99256" data-name="Trazado 99256" d="M499.456,95.643a.39.39,0,1,1-.39-.372A.381.381,0,0,1,499.456,95.643Z" transform="translate(-463.609 -95.271)" fill="#fff"/>
              </g>
              <g id="Grupo_53313" data-name="Grupo 53313" transform="translate(0 20.867)">
                <path id="Trazado_99257" data-name="Trazado 99257" d="M414.993,103.151a.39.39,0,1,1-.39-.372A.381.381,0,0,1,414.993,103.151Z" transform="translate(-414.214 -102.779)" fill="#fff"/>
                <path id="Trazado_99258" data-name="Trazado 99258" d="M423.439,103.151a.39.39,0,1,1-.389-.372A.381.381,0,0,1,423.439,103.151Z" transform="translate(-419.153 -102.779)" fill="#fff"/>
                <path id="Trazado_99259" data-name="Trazado 99259" d="M431.885,103.151a.39.39,0,1,1-.389-.372A.381.381,0,0,1,431.885,103.151Z" transform="translate(-424.093 -102.779)" fill="#fff"/>
                <path id="Trazado_99260" data-name="Trazado 99260" d="M440.332,103.151a.39.39,0,1,1-.39-.372A.381.381,0,0,1,440.332,103.151Z" transform="translate(-429.033 -102.779)" fill="#fff"/>
                <path id="Trazado_99261" data-name="Trazado 99261" d="M448.778,103.151a.39.39,0,1,1-.389-.372A.381.381,0,0,1,448.778,103.151Z" transform="translate(-433.972 -102.779)" fill="#fff"/>
                <path id="Trazado_99262" data-name="Trazado 99262" d="M457.224,103.151a.39.39,0,1,1-.389-.372A.381.381,0,0,1,457.224,103.151Z" transform="translate(-438.911 -102.779)" fill="#fff"/>
                <path id="Trazado_99263" data-name="Trazado 99263" d="M465.671,103.151a.39.39,0,1,1-.39-.372A.382.382,0,0,1,465.671,103.151Z" transform="translate(-443.851 -102.779)" fill="#fff"/>
                <path id="Trazado_99264" data-name="Trazado 99264" d="M474.117,103.151a.39.39,0,1,1-.389-.372A.381.381,0,0,1,474.117,103.151Z" transform="translate(-448.79 -102.779)" fill="#fff"/>
                <path id="Trazado_99265" data-name="Trazado 99265" d="M482.563,103.151a.39.39,0,1,1-.389-.372A.381.381,0,0,1,482.563,103.151Z" transform="translate(-453.73 -102.779)" fill="#fff"/>
                <path id="Trazado_99266" data-name="Trazado 99266" d="M491.01,103.151a.39.39,0,1,1-.39-.372A.382.382,0,0,1,491.01,103.151Z" transform="translate(-458.67 -102.779)" fill="#fff"/>
                <path id="Trazado_99267" data-name="Trazado 99267" d="M499.456,103.151a.39.39,0,1,1-.39-.372A.381.381,0,0,1,499.456,103.151Z" transform="translate(-463.609 -102.779)" fill="#fff"/>
              </g>
              <g id="Grupo_53314" data-name="Grupo 53314" transform="translate(0 23.848)">
                <ellipse id="Elipse_3975" data-name="Elipse 3975" cx="0.39" cy="0.373" rx="0.39" ry="0.373" fill="#fff"/>
                <path id="Trazado_99268" data-name="Trazado 99268" d="M423.439,110.659a.39.39,0,1,1-.389-.372A.382.382,0,0,1,423.439,110.659Z" transform="translate(-419.153 -110.287)" fill="#fff"/>
                <ellipse id="Elipse_3976" data-name="Elipse 3976" cx="0.39" cy="0.373" rx="0.39" ry="0.373" transform="translate(7.014)" fill="#fff"/>
                <path id="Trazado_99269" data-name="Trazado 99269" d="M440.332,110.659a.39.39,0,1,1-.39-.372A.382.382,0,0,1,440.332,110.659Z" transform="translate(-429.032 -110.287)" fill="#fff"/>
                <path id="Trazado_99270" data-name="Trazado 99270" d="M448.778,110.659a.39.39,0,1,1-.389-.372A.382.382,0,0,1,448.778,110.659Z" transform="translate(-433.972 -110.287)" fill="#fff"/>
                <ellipse id="Elipse_3977" data-name="Elipse 3977" cx="0.39" cy="0.373" rx="0.39" ry="0.373" transform="translate(17.534)" fill="#fff"/>
                <path id="Trazado_99271" data-name="Trazado 99271" d="M465.671,110.659a.39.39,0,1,1-.39-.372A.382.382,0,0,1,465.671,110.659Z" transform="translate(-443.851 -110.287)" fill="#fff"/>
                <ellipse id="Elipse_3978" data-name="Elipse 3978" cx="0.39" cy="0.373" rx="0.39" ry="0.373" transform="translate(24.548)" fill="#fff"/>
                <ellipse id="Elipse_3979" data-name="Elipse 3979" cx="0.39" cy="0.373" rx="0.39" ry="0.373" transform="translate(28.055)" fill="#fff"/>
                <path id="Trazado_99272" data-name="Trazado 99272" d="M491.01,110.659a.39.39,0,1,1-.39-.372A.382.382,0,0,1,491.01,110.659Z" transform="translate(-458.67 -110.287)" fill="#fff"/>
                <path id="Trazado_99273" data-name="Trazado 99273" d="M499.456,110.659a.39.39,0,1,1-.39-.372A.382.382,0,0,1,499.456,110.659Z" transform="translate(-463.609 -110.287)" fill="#fff"/>
              </g>
              <g id="Grupo_53315" data-name="Grupo 53315" transform="translate(0 26.829)">
                <path id="Trazado_99274" data-name="Trazado 99274" d="M414.993,118.167a.39.39,0,1,1-.39-.373A.382.382,0,0,1,414.993,118.167Z" transform="translate(-414.214 -117.794)" fill="#fff"/>
                <path id="Trazado_99275" data-name="Trazado 99275" d="M423.439,118.167a.39.39,0,1,1-.389-.373A.382.382,0,0,1,423.439,118.167Z" transform="translate(-419.153 -117.794)" fill="#fff"/>
                <path id="Trazado_99276" data-name="Trazado 99276" d="M431.885,118.167a.39.39,0,1,1-.389-.373A.382.382,0,0,1,431.885,118.167Z" transform="translate(-424.093 -117.794)" fill="#fff"/>
                <path id="Trazado_99277" data-name="Trazado 99277" d="M440.332,118.167a.39.39,0,1,1-.39-.373A.382.382,0,0,1,440.332,118.167Z" transform="translate(-429.033 -117.794)" fill="#fff"/>
                <path id="Trazado_99278" data-name="Trazado 99278" d="M448.778,118.167a.39.39,0,1,1-.389-.373A.382.382,0,0,1,448.778,118.167Z" transform="translate(-433.972 -117.794)" fill="#fff"/>
                <path id="Trazado_99279" data-name="Trazado 99279" d="M457.224,118.167a.39.39,0,1,1-.389-.373A.382.382,0,0,1,457.224,118.167Z" transform="translate(-438.911 -117.794)" fill="#fff"/>
                <path id="Trazado_99280" data-name="Trazado 99280" d="M465.671,118.167a.39.39,0,1,1-.39-.373A.382.382,0,0,1,465.671,118.167Z" transform="translate(-443.851 -117.794)" fill="#fff"/>
                <path id="Trazado_99281" data-name="Trazado 99281" d="M474.117,118.167a.39.39,0,1,1-.389-.373A.382.382,0,0,1,474.117,118.167Z" transform="translate(-448.79 -117.794)" fill="#fff"/>
                <path id="Trazado_99282" data-name="Trazado 99282" d="M482.563,118.167a.39.39,0,1,1-.389-.373A.382.382,0,0,1,482.563,118.167Z" transform="translate(-453.73 -117.794)" fill="#fff"/>
                <path id="Trazado_99283" data-name="Trazado 99283" d="M491.01,118.167a.39.39,0,1,1-.39-.373A.382.382,0,0,1,491.01,118.167Z" transform="translate(-458.67 -117.794)" fill="#fff"/>
                <path id="Trazado_99284" data-name="Trazado 99284" d="M499.456,118.167a.39.39,0,1,1-.39-.373A.382.382,0,0,1,499.456,118.167Z" transform="translate(-463.609 -117.794)" fill="#fff"/>
              </g>
              <g id="Grupo_53316" data-name="Grupo 53316" transform="translate(0 29.81)">
                <ellipse id="Elipse_3980" data-name="Elipse 3980" cx="0.39" cy="0.373" rx="0.39" ry="0.373" transform="translate(0 0)" fill="#fff"/>
                <path id="Trazado_99285" data-name="Trazado 99285" d="M423.439,125.675a.39.39,0,1,1-.389-.373A.381.381,0,0,1,423.439,125.675Z" transform="translate(-419.153 -125.302)" fill="#fff"/>
                <ellipse id="Elipse_3981" data-name="Elipse 3981" cx="0.39" cy="0.373" rx="0.39" ry="0.373" transform="translate(7.014 0)" fill="#fff"/>
                <path id="Trazado_99286" data-name="Trazado 99286" d="M440.332,125.675a.39.39,0,1,1-.39-.373A.381.381,0,0,1,440.332,125.675Z" transform="translate(-429.032 -125.302)" fill="#fff"/>
                <path id="Trazado_99287" data-name="Trazado 99287" d="M448.778,125.675a.39.39,0,1,1-.389-.373A.381.381,0,0,1,448.778,125.675Z" transform="translate(-433.972 -125.302)" fill="#fff"/>
                <ellipse id="Elipse_3982" data-name="Elipse 3982" cx="0.39" cy="0.373" rx="0.39" ry="0.373" transform="translate(17.534 0)" fill="#fff"/>
                <path id="Trazado_99288" data-name="Trazado 99288" d="M465.671,125.675a.39.39,0,1,1-.39-.373A.382.382,0,0,1,465.671,125.675Z" transform="translate(-443.851 -125.302)" fill="#fff"/>
                <ellipse id="Elipse_3983" data-name="Elipse 3983" cx="0.39" cy="0.373" rx="0.39" ry="0.373" transform="translate(24.548 0)" fill="#fff"/>
                <ellipse id="Elipse_3984" data-name="Elipse 3984" cx="0.39" cy="0.373" rx="0.39" ry="0.373" transform="translate(28.055 0)" fill="#fff"/>
                <path id="Trazado_99289" data-name="Trazado 99289" d="M491.01,125.675a.39.39,0,1,1-.39-.373A.382.382,0,0,1,491.01,125.675Z" transform="translate(-458.67 -125.302)" fill="#fff"/>
                <path id="Trazado_99290" data-name="Trazado 99290" d="M499.456,125.675a.39.39,0,1,1-.39-.373A.381.381,0,0,1,499.456,125.675Z" transform="translate(-463.609 -125.302)" fill="#fff"/>
              </g>
              <g id="Grupo_53317" data-name="Grupo 53317" transform="translate(0 32.791)">
                <ellipse id="Elipse_3985" data-name="Elipse 3985" cx="0.39" cy="0.373" rx="0.39" ry="0.373" transform="translate(0 0)" fill="#fff"/>
                <path id="Trazado_99291" data-name="Trazado 99291" d="M423.439,133.183a.39.39,0,1,1-.389-.373A.381.381,0,0,1,423.439,133.183Z" transform="translate(-419.153 -132.81)" fill="#fff"/>
                <ellipse id="Elipse_3986" data-name="Elipse 3986" cx="0.39" cy="0.373" rx="0.39" ry="0.373" transform="translate(7.014 0)" fill="#fff"/>
                <path id="Trazado_99292" data-name="Trazado 99292" d="M440.332,133.183a.39.39,0,1,1-.39-.373A.381.381,0,0,1,440.332,133.183Z" transform="translate(-429.032 -132.81)" fill="#fff"/>
                <path id="Trazado_99293" data-name="Trazado 99293" d="M448.778,133.183a.39.39,0,1,1-.389-.373A.381.381,0,0,1,448.778,133.183Z" transform="translate(-433.972 -132.81)" fill="#fff"/>
                <ellipse id="Elipse_3987" data-name="Elipse 3987" cx="0.39" cy="0.373" rx="0.39" ry="0.373" transform="translate(17.534 0)" fill="#fff"/>
                <path id="Trazado_99294" data-name="Trazado 99294" d="M465.671,133.183a.39.39,0,1,1-.39-.373A.382.382,0,0,1,465.671,133.183Z" transform="translate(-443.851 -132.81)" fill="#fff"/>
                <ellipse id="Elipse_3988" data-name="Elipse 3988" cx="0.39" cy="0.373" rx="0.39" ry="0.373" transform="translate(24.548 0)" fill="#fff"/>
                <ellipse id="Elipse_3989" data-name="Elipse 3989" cx="0.39" cy="0.373" rx="0.39" ry="0.373" transform="translate(28.055 0)" fill="#fff"/>
                <path id="Trazado_99295" data-name="Trazado 99295" d="M491.01,133.183a.39.39,0,1,1-.39-.373A.382.382,0,0,1,491.01,133.183Z" transform="translate(-458.67 -132.81)" fill="#fff"/>
                <path id="Trazado_99296" data-name="Trazado 99296" d="M499.456,133.183a.39.39,0,1,1-.39-.373A.381.381,0,0,1,499.456,133.183Z" transform="translate(-463.609 -132.81)" fill="#fff"/>
              </g>
            </g>
          </g>
          <line id="Línea_138" data-name="Línea 138" y2="269.483" transform="translate(11.565 14.958)" fill="none" stroke="#fff" stroke-linecap="round" stroke-width="4" stroke-dasharray="8"/>
        </g>
      </g>
    </g>
    <g id="Grupo_158703" data-name="Grupo 158703" transform="translate(241.613 4049.908)">
      <g id="Grupo_158704" data-name="Grupo 158704" transform="translate(0)">
        <g id="Grupo_158701" data-name="Grupo 158701">
          <g id="Grupo_158705" data-name="Grupo 158705">
            <path id="Trazado_153513" data-name="Trazado 153513" d="M348.27,60.412c.831,3.048-.123,5.964-2.132,6.512S341.828,65.445,341,62.4s.123-5.964,2.132-6.512,4.311,1.48,5.143,4.528" transform="translate(-112.417 -15.926)" fill="#965450"/>
            <path id="Trazado_153514" data-name="Trazado 153514" d="M371.821,93.268l-8.557-2.23-.812-12.369-13.013-4.484,1.255,19.4s6.72,11.535,21.128-.313" transform="translate(-114.912 -21.176)" fill="#965450"/>
            <path id="Trazado_153515" data-name="Trazado 153515" d="M350.2,85.9l-.759-11.719L362.45,78.67l.715,10.887A47.241,47.241,0,0,1,350.2,85.9" transform="translate(-114.912 -21.176)" fill="#8e4644"/>
            <path id="Trazado_153516" data-name="Trazado 153516" d="M348.427,67.807s9.677,8.695,16.18,6.6c7.641-2.455,8.795-11.851,7.444-22.877-2.1-17.168-7.732-17.752-16.113-16.287-18.985,3.316-7.51,32.56-7.51,32.56" transform="translate(-113.642 -9.913)" fill="#965450"/>
            <path id="Trazado_153517" data-name="Trazado 153517" d="M345.049,36.438S348.89,40.645,352,39s.815-5.295.815-5.295,2.477,7.673,7.964,6.027.549-6.951.549-6.951,7.683,6.585,10.792,2.2-5.853-5.3-5.853-5.3,10.792-1.463,6.768-8.231-11.3,1.038-11.3,1.038,3.008-5.978-1.2-7.99-6.585,6.037-6.585,6.037,2.378-5.3-1.829-6.037-2.012,8.231-2.012,8.231-2.378-6.768-4.938-6.036-1.1,6.62-1.1,6.62S338.307,16.566,333,21.322,339.744,31.5,339.744,31.5s-7.3-5.616-10.043-1.593,5.283,4.458,5.283,4.458-7.237,2.674-4.128,7.43,9.619-2.8,9.619-2.8-1.646,4.39,1.1,4.939,3.476-7.5,3.476-7.5" transform="translate(-109.115 -4.043)" fill="#352c38"/>
            <path id="Trazado_153518" data-name="Trazado 153518" d="M348.35,44.6s2.476,7.265-2.147,9.906l.5,6.44-1.981.66-.99-6.769s-2.735-.515-2.806,2.146c-.167,6.109,3.631,6.274,3.631,6.274L346.7,70.52s-7.924-8.916-7.76-18.822,9.411-7.1,9.411-7.1" transform="translate(-111.914 -12.626)" fill="#352c38"/>
            <path id="Trazado_153519" data-name="Trazado 153519" d="M371.285,68.365A19.376,19.376,0,0,1,374,67.282l-.284.45c-.2-.8-.387-1.611-.555-2.422s-.327-1.624-.467-2.442a41.088,41.088,0,0,1-.582-4.953,40.952,40.952,0,0,1,1.4,4.787q.286,1.21.524,2.429c.162.812.3,1.629.435,2.447l.062.391-.346.06a19.413,19.413,0,0,1-2.9.336" transform="translate(-121.148 -16.532)" fill="#76413b"/>
            <path id="Trazado_153520" data-name="Trazado 153520" d="M358.778,60.444s.046.139.143.367a6.556,6.556,0,0,0,.449.9,2.92,2.92,0,0,0,.872.95,1.955,1.955,0,0,0,1.308.279l.172-.025.208-.04c.109-.026.219-.053.334-.092a2.477,2.477,0,0,0,.6-.312,2.335,2.335,0,0,0,.74-.987,4.742,4.742,0,0,0,.268-.947c.043-.244.056-.391.056-.391a1.961,1.961,0,0,1,.127.384,2.892,2.892,0,0,1,.055,1.086,2.408,2.408,0,0,1-1.551,1.956,3.963,3.963,0,0,1-.472.147l-.208.038c-.1.016-.166.019-.25.029a2.763,2.763,0,0,1-.98-.084,2.419,2.419,0,0,1-.853-.454,2.924,2.924,0,0,1-.855-1.344,3.92,3.92,0,0,1-.179-1.055,2.869,2.869,0,0,1,.014-.4" transform="translate(-117.574 -17.167)" fill="#211b23"/>
            <path id="Trazado_153521" data-name="Trazado 153521" d="M374.1,58.972s.047.138.146.366a6.682,6.682,0,0,0,.459.89,2.94,2.94,0,0,0,.882.94,1.956,1.956,0,0,0,1.312.263l.171-.026.208-.042c.109-.027.219-.056.334-.1a2.46,2.46,0,0,0,.6-.318,2.335,2.335,0,0,0,.73-1,4.775,4.775,0,0,0,.257-.95c.04-.244.051-.392.051-.392a1.989,1.989,0,0,1,.131.383,2.915,2.915,0,0,1,.068,1.085,2.406,2.406,0,0,1-1.528,1.974,3.925,3.925,0,0,1-.469.153l-.208.041c-.1.017-.165.021-.249.031a2.783,2.783,0,0,1-.981-.074,2.424,2.424,0,0,1-.857-.444,2.924,2.924,0,0,1-.87-1.335,3.917,3.917,0,0,1-.191-1.053,2.833,2.833,0,0,1,.009-.4" transform="translate(-121.947 -16.73)" fill="#211b23"/>
            <path id="Trazado_153522" data-name="Trazado 153522" d="M373.038,75.706s-4.625,5.027-11.462,0" transform="translate(-118.377 -21.61)" fill="#fff"/>
            <path id="Trazado_153523" data-name="Trazado 153523" d="M363.271,52.187s-.179-.006-.466-.022l-1.148-.079c-.232-.007-.472-.042-.727-.05s-.514-.037-.78-.047c-.266-.025-.535-.01-.805-.029-.269.005-.539,0-.8.016-.261.029-.532.018-.781.069-.126.021-.254.036-.382.047s-.241.06-.365.079l-.364.069c-.114.037-.226.077-.34.109a3.552,3.552,0,0,0-.65.217c-.2.085-.409.14-.58.217s-.319.155-.45.215c-.262.118-.437.179-.437.179a3.351,3.351,0,0,1,.148-.446,5.373,5.373,0,0,1,.222-.5,4.543,4.543,0,0,1,.411-.583c.084-.1.171-.213.272-.316l.342-.285c.119-.1.249-.192.38-.291s.29-.154.441-.232a3.863,3.863,0,0,1,.982-.362,5.307,5.307,0,0,1,1.06-.163,6.139,6.139,0,0,1,3.6,1.014,5.368,5.368,0,0,1,.93.8,2.431,2.431,0,0,1,.294.374" transform="translate(-116.268 -14.27)" fill="#352c38"/>
            <path id="Trazado_153524" data-name="Trazado 153524" d="M378.982,52.934l-.371-.053-.9-.14c-.181-.017-.364-.061-.56-.076s-.391-.049-.59-.064c-.2-.032-.4-.011-.6-.036-.192.027-.393-.012-.577.033l-.282.025-.27.061a3.748,3.748,0,0,0-.532.149,4.357,4.357,0,0,0-.511.21,3.226,3.226,0,0,0-.477.249,3.891,3.891,0,0,0-.432.239c-.12.086-.241.154-.34.214-.2.118-.334.181-.334.181a2.54,2.54,0,0,1,.053-.373,2.829,2.829,0,0,1,.334-.943,2.518,2.518,0,0,1,.387-.569,3.082,3.082,0,0,1,.587-.536,2.947,2.947,0,0,1,.775-.405c.142-.048.286-.105.434-.14l.451-.064a4.017,4.017,0,0,1,.89.021,4.157,4.157,0,0,1,.8.217,4.044,4.044,0,0,1,1.218.722,3.812,3.812,0,0,1,.652.745,1.821,1.821,0,0,1,.184.335" transform="translate(-121.413 -14.522)" fill="#352c38"/>
            <path id="Trazado_153525" data-name="Trazado 153525" d="M379.455,373.958s-.181,12.147.448,12.27,35.307-.331,27.746-3.973a56.23,56.23,0,0,0-16.528-4.511l.578-8.59Z" transform="translate(-123.473 -105.373)" fill="#3a323f"/>
            <path id="Trazado_153526" data-name="Trazado 153526" d="M381.523,377.141c-.7-.058-1.394-.13-2.09-.2,0-1.716.023-2.983.023-2.983l12.244-4.8-.514,7.65a29.973,29.973,0,0,1-9.662.337" transform="translate(-123.474 -105.373)" fill="#201a23"/>
            <path id="Trazado_153527" data-name="Trazado 153527" d="M396.667,388.46a20.512,20.512,0,0,1,1.316-5.627,40.415,40.415,0,0,1,10.026,3.381c.943.452,1.232.852,1.02,1.21l-.006.01a.7.7,0,0,1-.09.113l-.016.019a1.22,1.22,0,0,1-.122.1l-.029.023c-.046.033-.1.066-.154.1l-.042.025c-.056.031-.117.062-.182.093l-.054.026c-.066.031-.137.06-.211.09l-.064.024c-.076.029-.156.058-.239.086l-.076.025c-.085.028-.173.056-.266.083l-.084.024c-.094.026-.192.054-.294.08l-.088.022c-.105.026-.213.053-.325.079l-.085.019c-.117.026-.236.052-.36.078l-.076.015c-.131.027-.264.054-.4.079l-.043.008c-.933.173-2.017.327-3.206.464l-.105.012-.453.05-.2.022-.414.042-.259.026-.379.036-.311.029-.369.034-.324.028-.364.031-.358.03-.342.026-.386.03-.326.024-.418.03-.307.021-.438.029-.174.012h0c-7.749.507-16.311.99-16.622.93-.114-.022-.309-.609-.248-1.506,2.6.006,10.152-.122,16.95-.588" transform="translate(-123.552 -109.278)" fill="#fdedee"/>
            <path id="Trazado_153528" data-name="Trazado 153528" d="M402.7,382.316a6.645,6.645,0,0,0-.983,2.554" transform="translate(-129.834 -109.13)" fill="none" stroke="#fdedee" stroke-linecap="round" stroke-miterlimit="10" stroke-width="0.897"/>
            <path id="Trazado_153529" data-name="Trazado 153529" d="M397.761,381.358a6.652,6.652,0,0,0-.983,2.554" transform="translate(-128.425 -108.857)" fill="none" stroke="#fdedee" stroke-linecap="round" stroke-miterlimit="10" stroke-width="0.897"/>
            <path id="Trazado_153530" data-name="Trazado 153530" d="M400.212,381.919a6.645,6.645,0,0,0-.983,2.554" transform="translate(-129.125 -109.017)" fill="none" stroke="#fdedee" stroke-linecap="round" stroke-miterlimit="10" stroke-width="0.897"/>
            <path id="Trazado_153531" data-name="Trazado 153531" d="M335.891,375.235s.853,12.119.232,12.275-35.271,1.626-27.924-2.43a56.246,56.246,0,0,1,16.253-5.42l-1.053-8.545Z" transform="translate(-102.849 -105.933)" fill="#3a323f"/>
            <path id="Trazado_153532" data-name="Trazado 153532" d="M340.484,378.528c.693-.1,1.385-.206,2.076-.314-.1-1.714-.188-2.978-.188-2.978l-12.493-4.118.939,7.609a29.96,29.96,0,0,0,9.666-.2" transform="translate(-109.329 -105.933)" fill="#201a23"/>
            <path id="Trazado_153533" data-name="Trazado 153533" d="M319.257,390.8a20.543,20.543,0,0,0-1.626-5.546,40.46,40.46,0,0,0-9.824,3.931c-.917.5-1.183.92-.951,1.265l.006.009a.665.665,0,0,0,.1.108c.006.006.011.012.017.018a1.214,1.214,0,0,0,.128.1l.031.021c.048.03.1.06.159.089l.043.022c.058.029.121.056.187.083l.056.023c.068.026.14.052.216.077l.066.022c.077.024.159.049.244.072l.077.021c.086.024.176.046.27.068l.085.02c.1.021.2.043.3.064l.089.017c.106.021.216.041.329.061l.086.014c.118.02.239.039.364.058l.076.011.405.056.044.005c.94.121,2.032.215,3.227.286l.106.006.455.025.2.011.416.019.261.012.379.015.312.012.371.013.326.011.366.01.359.01.342.008.387.008.327.006.419.007.308,0,.439.005.174,0c7.766.076,16.341.084,16.648.007.112-.029.274-.625.164-1.518-2.6.15-10.143.44-16.956.352" transform="translate(-102.735 -109.969)" fill="#fdedee"/>
            <path id="Trazado_153534" data-name="Trazado 153534" d="M324.13,384.617a6.646,6.646,0,0,1,1.123,2.5" transform="translate(-107.688 -109.787)" fill="none" stroke="#fdedee" stroke-linecap="round" stroke-miterlimit="10" stroke-width="0.897"/>
            <path id="Trazado_153535" data-name="Trazado 153535" d="M329.005,383.388a6.646,6.646,0,0,1,1.123,2.5" transform="translate(-109.08 -109.436)" fill="none" stroke="#fdedee" stroke-linecap="round" stroke-miterlimit="10" stroke-width="0.897"/>
            <path id="Trazado_153536" data-name="Trazado 153536" d="M326.588,384.084a6.645,6.645,0,0,1,1.123,2.5" transform="translate(-108.39 -109.635)" fill="none" stroke="#fdedee" stroke-linecap="round" stroke-miterlimit="10" stroke-width="0.897"/>
            <path id="Trazado_153537" data-name="Trazado 153537" d="M330.145,184.163s-2.169,81.807-2.075,136.914c0,0,8.538,3.348,15.8.218l6.758-104.811,4.271.059,8.943,106.212s9.741-1.114,12.86-3.24-1.328-131.737-1.328-131.737Z" transform="translate(-108.812 -52.568)" fill="#b58868"/>
            <g id="Grupo_158642" data-name="Grupo 158642" transform="translate(220.958 131.595)" opacity="0.2">
              <g id="Grupo_158641" data-name="Grupo 158641">
                <g id="Grupo_158640" data-name="Grupo 158640" clip-path="url(#clip-path-2)">
                  <path id="Trazado_153538" data-name="Trazado 153538" d="M363.948,198.908q-16.743.318-33.5.514c.223-9.5.376-15.26.376-15.26l45.23,3.616s.141,4.114.355,10.886q-6.232.124-12.463.245" transform="translate(-330.45 -184.163)" fill="#352c38"/>
                </g>
              </g>
            </g>
            <path id="Trazado_153539" data-name="Trazado 153539" d="M326.816,376.512s9,3.73,17.435.978l.423-4a42.234,42.234,0,0,1-17.645-1.247Z" transform="translate(-108.455 -106.254)" fill="#fcab92"/>
            <path id="Trazado_153540" data-name="Trazado 153540" d="M392.656,373.707s-7.763,4.069-16.439,2.188l-.817-3.886a45.274,45.274,0,0,0,17.086-3.258Z" transform="translate(-122.323 -105.258)" fill="#fcab92"/>
            <path id="Trazado_153541" data-name="Trazado 153541" d="M329.188,123.588s-2.422,38.065-1.615,48.561c0,0,20.532,6.345,49.83,1.961l.115-58.02-8.42-4.383Z" transform="translate(-108.624 -31.886)" fill="#fd9827"/>
            <g id="Grupo_158645" data-name="Grupo 158645" transform="translate(218.784 97.014)" opacity="0.2">
              <g id="Grupo_158644" data-name="Grupo 158644">
                <g id="Grupo_158643" data-name="Grupo 158643" clip-path="url(#clip-path-3)">
                  <path id="Trazado_153542" data-name="Trazado 153542" d="M330.788,138.274a44.472,44.472,0,0,0,6.938,6.59c6.559,4.988,14.182,8.291,21.93,10.961,5.887,2.029,11.842,3.861,17.786,5.725l-.039,19.428c-29.3,4.383-49.83-1.961-49.83-1.961-.62-8.065.666-32.406,1.3-43.248.607.859,1.235,1.7,1.919,2.505" transform="translate(-327.408 -135.769)" fill="#352c38"/>
                </g>
              </g>
            </g>
            <path id="Trazado_153543" data-name="Trazado 153543" d="M403.5,156.787s-7.6,5.614-10.236-10.237,5.613-25.1,5.613-25.1l3.633,20.8Z" transform="translate(-127.272 -34.669)" fill="#8e4644"/>
            <path id="Trazado_153544" data-name="Trazado 153544" d="M326.5,142.275l2.884-21.224-9.574-10.958s-7.266,39.218-4.383,44.755S326.5,142.275,326.5,142.275" transform="translate(-105.009 -31.425)" fill="#965450"/>
            <path id="Trazado_153545" data-name="Trazado 153545" d="M317.2,130.624c1.461-10.583,3.3-20.531,3.3-20.531l9.574,10.958-1.717,12.637a59.5,59.5,0,0,0-11.161-3.064" transform="translate(-105.711 -31.425)" fill="#8e4644"/>
            <path id="Trazado_153546" data-name="Trazado 153546" d="M339.708,95.888S321.857,100.8,319.523,105s-4.153,19.609-4.153,19.609l13.15,2.884,22.954,4.5,28.123-7.6s-1.221-11.688-3.962-17.171c-3.8-7.594-17.006-9.411-17.006-9.411s-6.462,11.572-18.92-1.924" transform="translate(-105.187 -27.371)" fill="#fd9827"/>
            <path id="Trazado_153547" data-name="Trazado 153547" d="M393.932,137.127s3.522-9.026,11.667-11.667l1.761,3.082Z" transform="translate(-127.613 -35.812)" fill="#fdedee"/>
            <path id="Trazado_153548" data-name="Trazado 153548" d="M388.48,136.074s2.2-10.567-9.686-18.932l-3.963,7.045Z" transform="translate(-122.16 -33.438)" fill="#fff"/>
            <path id="Trazado_153549" data-name="Trazado 153549" d="M370.21,123.261l1.982-2.422s14.529,6.6,14.969,14.969Z" transform="translate(-120.841 -34.493)" fill="#fdedee"/>
            <path id="Trazado_153550" data-name="Trazado 153550" d="M398.764,124.085l-14.436,9.565-17.451-11.777-9.364,16.163,16.823,11.182,1.361-.026L393.006,137.7Z" transform="translate(-117.217 -34.788)" fill="#31313c"/>
            <g id="Grupo_158648" data-name="Grupo 158648" transform="translate(258.482 89.297)" opacity="0.2">
              <g id="Grupo_158647" data-name="Grupo 158647">
                <g id="Grupo_158646" data-name="Grupo 158646" clip-path="url(#clip-path-4)">
                  <path id="Trazado_153551" data-name="Trazado 153551" d="M406.029,124.968l-14.435,9.565-8.63,15.541,17.307-11.487Z" transform="translate(-382.964 -124.968)" fill="#352c38"/>
                </g>
              </g>
            </g>
            <path id="Trazado_153552" data-name="Trazado 153552" d="M391.995,137.566l-1.945-.075-8.991,16.184,1.361-.026Z" transform="translate(-123.938 -39.246)" fill="#ff847b"/>
            <path id="Trazado_153553" data-name="Trazado 153553" d="M316.924,153.034s25.332-21.838,27.428-22.361,20.265-.7,5.066,1.572c0,0,19.217.7.174,1.921,0,0,15.723,1.223,0,1.573,0,0,14.675,2.445-4.192,1.921,0,0-14.325,24.982-23.76,25.855s-8.211-7.163-4.717-10.482" transform="translate(-104.894 -37.205)" fill="#965450"/>
            <path id="Trazado_153554" data-name="Trazado 153554" d="M409.816,123.178a3.836,3.836,0,0,1,2.446,2.8c.349,2.1-.524,4.717-2.621,8.385s2.8,20.441-1.4,23.76-9.434,1.572-10.483-2.8,6.013-17.869,5.641-21.7a4.716,4.716,0,0,1,1.173-3.983l.7-2.1s-3.8-2.557-.432-2.1c0,0-1.628-1.818,1.481-.867,0,0-2.271-1.573,2.1-.7,0,0-2.1-1.4,1.4-.7" transform="translate(-128.675 -35.105)" fill="#965450"/>
            <path id="Trazado_153555" data-name="Trazado 153555" d="M266.806,323.548s-.8,41.392,3.282,46.2c0,0,27.625,8.818,5.97-2.412L282.84,324.4Z" transform="translate(-91.307 -92.355)" fill="#f5c1ae"/>
            <path id="Trazado_153556" data-name="Trazado 153556" d="M278.952,385.661s8.22,4.179,6.447,5.095-15.577-3.4-15.577-3.4l-.485-3.057s12.832,4.971,9.615,1.359" transform="translate(-92.048 -109.697)" fill="#352c38"/>
            <path id="Trazado_153557" data-name="Trazado 153557" d="M267.365,217.275s-3.663,78.285,1.373,112.163l7.131,1.859s15.3-36.194,7.519-54.964c0,0,15.566-39.371,11.9-68.214s-27.926,9.156-27.926,9.156" transform="translate(-91.118 -56.321)" fill="#f5c1ae"/>
            <path id="Trazado_153558" data-name="Trazado 153558" d="M233.555,325.289s-7.121,40.825-12.2,44.788c0,0-29.787,3.548-5.609-3.476l1.334-43.441Z" transform="translate(-74.051 -92.244)" fill="#f5c1ae"/>
            <path id="Trazado_153559" data-name="Trazado 153559" d="M213.112,384.755s-9.162,2.584-7.534,3.813,16.495-.453,16.495-.453l1.079-2.914s-14,2.507-10.039-.446" transform="translate(-73.792 -109.826)" fill="#352c38"/>
            <path id="Trazado_153560" data-name="Trazado 153560" d="M248.8,219.911s-11.285,77.609-22.9,109.967l-7.609.506s-8.623-38.4,2.891-55.407c0,0-8.282-41.574.973-69.238S248.8,219.911,248.8,219.911" transform="translate(-76.591 -56.028)" fill="#f5c1ae"/>
            <path id="Trazado_153561" data-name="Trazado 153561" d="M248.372,228.172c11.264-.03,23.485-.752,33.255-6.546.973-9.176,1.639-17.2,1.729-22.577.394-23.56-18.144-34.527-18.144-34.527l-32.344,3.25c-7.48,6.883-13.289,28.712-17.56,52.3a87.014,87.014,0,0,0,11.962,4.905c6.215,1.991,13.148,2.674,20.641,3.025l.736-10.68Z" transform="translate(-76.625 -46.962)" fill="#fdb768"/>
            <g id="Grupo_158651" data-name="Grupo 158651" transform="translate(138.684 156.303)" opacity="0.2">
              <g id="Grupo_158650" data-name="Grupo 158650" transform="translate(0)">
                <g id="Grupo_158649" data-name="Grupo 158649" clip-path="url(#clip-path-5)">
                  <path id="Trazado_153562" data-name="Trazado 153562" d="M227.27,240.458c6.215,1.991,14.9,2.908,20.641,3.025l.736-10.679s-20.176-8.614-29.923-14.063c-1.232,5.369-2.369,11.038-3.414,16.812a86.9,86.9,0,0,0,11.96,4.9" transform="translate(-215.31 -218.741)" fill="#b58868"/>
                </g>
              </g>
            </g>
            <g id="Grupo_158654" data-name="Grupo 158654" transform="translate(152.672 117.56)" opacity="0.2">
              <g id="Grupo_158653" data-name="Grupo 158653" transform="translate(0)">
                <g id="Grupo_158652" data-name="Grupo 158652" clip-path="url(#clip-path-6)">
                  <path id="Trazado_153563" data-name="Trazado 153563" d="M234.886,172.368a20.966,20.966,0,0,1,3.571-4.6l32.344-3.249a24.291,24.291,0,0,1,2.01,1.4c-3.715,2.847-13.945,8.049-37.925,6.45" transform="translate(-234.886 -164.522)" fill="#352c38"/>
                </g>
              </g>
            </g>
            <path id="Trazado_153564" data-name="Trazado 153564" d="M272.793,58.782a26.457,26.457,0,0,0-17.174-13.661c-21.631-5.837-31.53,48.522-24.378,50.646a29.923,29.923,0,0,0,19.915-1.03l.277-15.9a73.617,73.617,0,0,0,9.834,1.359Z" transform="translate(-80.516 -12.754)" fill="#fd9827"/>
            <path id="Trazado_153565" data-name="Trazado 153565" d="M271.057,59.388a19.227,19.227,0,0,0-1.969-3.182,27.115,27.115,0,0,0-2.817-3.23,27.382,27.382,0,0,0-10.222-6.309,27.517,27.517,0,0,0-3.443-.927,11.468,11.468,0,0,0-3.65-.016,13.733,13.733,0,0,0-6.8,3.42,27.773,27.773,0,0,0-5.1,6.186,50.366,50.366,0,0,0-3.729,7.169,71.336,71.336,0,0,0-2.677,7.379,80.191,80.191,0,0,0-2.933,13.609,33.646,33.646,0,0,0-.042,9.818,5.548,5.548,0,0,0,1.043,2.515,1.919,1.919,0,0,0,.791.552,1.931,1.931,0,0,1-.818-.527,5.474,5.474,0,0,1-1.145-2.512,32.59,32.59,0,0,1-.212-9.889,76.187,76.187,0,0,1,2.747-13.739,71.94,71.94,0,0,1,2.658-7.458,50.751,50.751,0,0,1,3.739-7.285,28.4,28.4,0,0,1,5.263-6.3,14.347,14.347,0,0,1,7.128-3.524,11.523,11.523,0,0,1,3.851.054,28.134,28.134,0,0,1,3.5,1.008,30.856,30.856,0,0,1,5.929,3,28.02,28.02,0,0,1,4.305,3.6,27.344,27.344,0,0,1,2.745,3.333,21.923,21.923,0,0,1,1.439,2.373c.294.57.422.886.422.886" transform="translate(-79.983 -12.845)" fill="#fddec0"/>
            <path id="Trazado_153566" data-name="Trazado 153566" d="M276.356,52.668s7.619-.458,10.573,5.623c2.87,5.909,1.4,17.205.2,26.422-.826.075-1.665.141-2.51.194l.255-1.591-.746,1.618c-5.193.284-10.58-.047-14.641-2.772l8.983-21.513Z" transform="translate(-92.091 -15.032)" fill="#fd9827"/>
            <path id="Trazado_153567" data-name="Trazado 153567" d="M271.439,105.131s-4.469,0-6.093-1.422.111-13.484.111-13.484L251.332,96.2l.562,9.481-10.472,1.03c-.812,1.219-.651,15.283,12.957,14.268s17.06-15.842,17.06-15.842" transform="translate(-84.002 -25.754)" fill="#f5c1ae"/>
            <g id="Grupo_158657" data-name="Grupo 158657" transform="translate(167.331 64.471)" opacity="0.6">
              <g id="Grupo_158656" data-name="Grupo 158656">
                <g id="Grupo_158655" data-name="Grupo 158655" clip-path="url(#clip-path-7)">
                  <path id="Trazado_153568" data-name="Trazado 153568" d="M256.943,104.079a33.944,33.944,0,0,0,11.825-6.134c.175-3.679.756-7.719.756-7.719L255.4,96.2l.4,8.16c.384-.084.765-.173,1.146-.277" transform="translate(-255.4 -90.225)" fill="#d8866c"/>
                </g>
              </g>
            </g>
            <path id="Trazado_153569" data-name="Trazado 153569" d="M270.812,75.967s7.841-9.048-2.645-15.661c-12.207-7.7-19.971-3.015-23.312,4.95s-5.929,18.755,1.985,23.066c8.28,4.51,18.252,1.049,23.972-12.355" transform="translate(-84.137 -16.094)" fill="#f5c1ae"/>
            <path id="Trazado_153570" data-name="Trazado 153570" d="M218.588,43.688,233.518,46l-5,10.14Z" transform="translate(-77.561 -12.471)" fill="#785549"/>
            <path id="Trazado_153571" data-name="Trazado 153571" d="M218.588,43.688l15.872,4.365-2.778,5.158Z" transform="translate(-77.561 -12.471)" fill="#fddec0"/>
            <path id="Trazado_153572" data-name="Trazado 153572" d="M214.387,43.688,203.873,66.278l16.093,6.971L231,49.531Z" transform="translate(-73.361 -12.471)" fill="#785549"/>
            <path id="Trazado_153573" data-name="Trazado 153573" d="M222.3,109.524l2.709-15.044L200.2,87.634l8.555-24.286s9.959-3.433.844-2.213c0,0,4.963-12.423-1.483-.9,0,0,5.966-14.761-1.608-1.061,0,0,3.787-12.274-1.392-.456,0,0,3.228-9.641-2.563,1.8C196.625,72.219,183.623,89.55,189,95.4S222.3,109.524,222.3,109.524" transform="translate(-68.751 -15.228)" fill="#f5c1ae"/>
            <path id="Trazado_153574" data-name="Trazado 153574" d="M225.969,124.726l-26-11.134,5.952-13.276,26.324,7.554Z" transform="translate(-72.246 -28.635)" fill="#31313c"/>
            <path id="Trazado_153575" data-name="Trazado 153575" d="M235.046,113.457l6.524-2.918,8.012,10.758L268.2,109.666s8.835,3.6,10.51,10.764-7.261,28.637-7.261,28.637c-15.029,6.7-32.7,3.046-32.7,3.046-11.068-17.061-3.7-38.656-3.7-38.656" transform="translate(-81.574 -31.304)" fill="#31313c"/>
            <g id="Grupo_158660" data-name="Grupo 158660" transform="translate(151.05 93.766)" opacity="0.3">
              <g id="Grupo_158659" data-name="Grupo 158659">
                <g id="Grupo_158658" data-name="Grupo 158658" clip-path="url(#clip-path-8)">
                  <path id="Trazado_153576" data-name="Trazado 153576" d="M252.493,144.448a150.216,150.216,0,0,0,21.741,3.442c-1.506,4.232-2.795,7.33-2.795,7.33-15.029,6.7-32.7,3.047-32.7,3.047-6.208-9.569-6.634-19.854-5.811-27.044,4.544,6.995,10.946,11.3,19.563,13.225" transform="translate(-232.616 -131.223)" fill="#31313c"/>
                </g>
              </g>
            </g>
            <path id="Trazado_153577" data-name="Trazado 153577" d="M287.42,129.929l8.012-10.072s26.553,14.421,23.577,22.89-21.517,22.433-23.119,19.915-2.289-2.747-2.289-2.747-7.782,8.241-.687-2.06c0,0-10.072,8.012-.229-.915,0,0-10.988,3.891-.229-1.831,0,0,2.747-1.145,5.264,2.06l8.241-15.337Z" transform="translate(-97.209 -34.213)" fill="#f5c1ae"/>
            <path id="Trazado_153578" data-name="Trazado 153578" d="M282.4,109.665s9.767,1.56,34.03,23.535l-11.9,5.723-21.288-10.3Z" transform="translate(-95.777 -31.303)" fill="#31313c"/>
            <path id="Trazado_153579" data-name="Trazado 153579" d="M270.9,84.818c1.785-2.2,4.412-5.925,3.32-10.271-4.213-16.753,4.172-16.879,4.172-16.879,7.819-.51,5.193,17.851,3.331,28.642-6.337.319-7.349-1.206-10.823-1.492" transform="translate(-92.495 -16.458)" fill="#fd9827"/>
            <path id="Trazado_153580" data-name="Trazado 153580" d="M272.425,81.294s1.1,6.21-5.253,12.562.344,14.936,6.352,12.876,9.785-3.777,15.794.514c0,0,3.777-3.433-.343-9.271s-2.06-14.593-2.06-14.593Z" transform="translate(-90.696 -23.205)" fill="#fd9827"/>
            <path id="Trazado_153581" data-name="Trazado 153581" d="M294.418,99.077a5.059,5.059,0,0,0,.76-1.075,5.966,5.966,0,0,0,.487-1.215,5.771,5.771,0,0,0,.207-1.286,4.291,4.291,0,0,0,0-.65,3.436,3.436,0,0,0-.068-.645,8.048,8.048,0,0,0-.3-1.262,12.59,12.59,0,0,0-.5-1.2,10.038,10.038,0,0,0-.645-1.131l-.722-1.112a10.122,10.122,0,0,1-.68-1.145c-.188-.411-.408-.815-.569-1.236l-.445-1.273-.329-1.307c-.083-.44-.146-.885-.221-1.327s-.089-.891-.134-1.337c-.06-.893-.067-1.788-.042-2.682v-.023c.17-1.395.318-2.779.434-4.173s.214-2.785.277-4.179.086-2.788.069-4.182c-.036-.694-.031-1.393-.1-2.083l-.085-1.038-.141-1.028a8.335,8.335,0,0,0-.18-1.018c-.08-.334-.13-.678-.227-1.005l-.315-.974c-.125-.314-.3-.6-.44-.907a10.349,10.349,0,0,0-1.228-1.65,6.487,6.487,0,0,0-.718-.732,6.943,6.943,0,0,0-.786-.669,7.664,7.664,0,0,0-.844-.6,9.137,9.137,0,0,0-.89-.532,8.88,8.88,0,0,0-.93-.464c-.312-.153-.639-.271-.965-.394a14.327,14.327,0,0,0-2.008-.577,13.16,13.16,0,0,0-2.075-.3,13.82,13.82,0,0,1,4.152.667c.336.11.674.215,1,.356a9.125,9.125,0,0,1,.971.431,11.861,11.861,0,0,1,1.82,1.1,7.179,7.179,0,0,1,.832.67,6.855,6.855,0,0,1,.772.746,10.777,10.777,0,0,1,1.322,1.68c.167.322.361.637.5.97l.361,1.017a15.769,15.769,0,0,1,.457,2.087l.154,1.053.1,1.056c.078.7.079,1.41.122,2.115.031,1.41.029,2.82-.031,4.225-.094,2.813-.4,5.618-.753,8.4l0-.023c-.034.872-.034,1.745.016,2.615.041.433.064.87.119,1.3l.2,1.289.287,1.27.4,1.24c.143.408.339.787.505,1.185A9.56,9.56,0,0,0,294,89.27c.222.382.447.74.69,1.13a10.6,10.6,0,0,1,1.113,2.446,8.3,8.3,0,0,1,.255,1.325,3.581,3.581,0,0,1,.04.672,4.494,4.494,0,0,1-.026.672,5.947,5.947,0,0,1-.272,1.313,5.473,5.473,0,0,1-1.386,2.248" transform="translate(-95.108 -15.035)" fill="#fddec0"/>
            <path id="Trazado_153582" data-name="Trazado 153582" d="M255.339,68.138a11.55,11.55,0,0,0-1.038-.975c-.149-.136-.337-.254-.509-.4-.193-.119-.371-.269-.585-.379l-.31-.182c-.111-.049-.223-.1-.332-.157-.213-.121-.46-.18-.685-.283l-.72-.209c-.247-.036-.486-.109-.727-.144s-.48-.06-.71-.1c-.229-.014-.452-.03-.66-.052-.418-.056-.773-.033-1.033-.068s-.414-.048-.414-.048.122-.087.35-.22c.114-.064.254-.146.42-.224a2.47,2.47,0,0,1,.574-.227c.216-.067.454-.144.711-.2.261-.034.54-.065.831-.086a7.186,7.186,0,0,1,.906.05,7.7,7.7,0,0,1,.924.221,5.38,5.38,0,0,1,.865.408,3.907,3.907,0,0,1,.745.544,4.587,4.587,0,0,1,.583.622,4.479,4.479,0,0,1,.4.642,3.653,3.653,0,0,1,.372,1.045,2.06,2.06,0,0,1,.043.418" transform="translate(-85.848 -18.321)" fill="#352c38"/>
            <path id="Trazado_153583" data-name="Trazado 153583" d="M256.71,72.1a20.615,20.615,0,0,1-1.028,1.8c-.363.585-.749,1.153-1.144,1.712s-.8,1.109-1.225,1.647-.859,1.065-1.29,1.6l.056-.566c.305.668.6,1.343.86,2.033a18.56,18.56,0,0,1,.678,2.127,18.676,18.676,0,0,1-1.328-1.794c-.407-.616-.783-1.248-1.147-1.886l-.162-.285.219-.282c.418-.541.82-1.095,1.26-1.619s.869-1.058,1.325-1.568.919-1.017,1.406-1.5A20.56,20.56,0,0,1,256.71,72.1" transform="translate(-86.807 -20.579)" fill="#c1725d"/>
            <path id="Trazado_153584" data-name="Trazado 153584" d="M271.865,72.989a12.441,12.441,0,0,0-1.111-1.029c-.16-.144-.361-.269-.545-.418-.207-.126-.4-.285-.625-.4l-.331-.194c-.119-.053-.238-.108-.354-.168-.228-.129-.491-.193-.732-.3l-.766-.227c-.263-.041-.517-.118-.775-.159s-.51-.067-.754-.109c-.244-.019-.48-.036-.7-.062-.444-.062-.822-.043-1.1-.081s-.439-.054-.439-.054.131-.091.374-.229c.122-.066.272-.152.449-.234a2.683,2.683,0,0,1,.612-.234c.231-.068.484-.148.758-.2.277-.034.574-.064.883-.084a7.972,7.972,0,0,1,.96.061,8.2,8.2,0,0,1,.978.24,5.722,5.722,0,0,1,.916.434,4.263,4.263,0,0,1,.79.575,4.968,4.968,0,0,1,.622.657,4.894,4.894,0,0,1,.429.677,3.886,3.886,0,0,1,.406,1.106,2.221,2.221,0,0,1,.051.443" transform="translate(-90.42 -19.637)" fill="#352c38"/>
            <path id="Trazado_153585" data-name="Trazado 153585" d="M265.143,77.489c-.377,1.016-1.068,1.7-1.543,1.521s-.554-1.143-.178-2.159,1.067-1.7,1.543-1.521.555,1.143.179,2.159" transform="translate(-90.291 -21.495)" fill="#352c38"/>
            <path id="Trazado_153586" data-name="Trazado 153586" d="M249.707,72.864c-.377,1.016-1.068,1.7-1.543,1.521s-.555-1.143-.178-2.159,1.067-1.7,1.542-1.521.555,1.143.179,2.159" transform="translate(-85.885 -20.174)" fill="#352c38"/>
            <path id="Trazado_153587" data-name="Trazado 153587" d="M278.445,89.138a14.97,14.97,0,0,0,1.961-6.1s3.983-.279,3.328,3.546-3.778,3.46-5.289,2.559" transform="translate(-94.647 -23.7)" fill="#f5c1ae"/>
            <path id="Trazado_153588" data-name="Trazado 153588" d="M279.355,91.389a1.036,1.036,0,1,0,1.273-.727,1.036,1.036,0,0,0-1.273.727" transform="translate(-94.897 -25.869)" fill="#31313c"/>
            <path id="Trazado_153589" data-name="Trazado 153589" d="M283.7,86.964a10.668,10.668,0,0,0-.6-1.268c-.061-.093-.121-.184-.184-.265a1.069,1.069,0,0,0-.2-.212.708.708,0,0,0-.214-.121.566.566,0,0,0-.217-.014l.224-.2a13.509,13.509,0,0,1-1.155,2.8,13.509,13.509,0,0,1,.617-2.965l.056-.181.169-.014a1.118,1.118,0,0,1,.484.05,1.031,1.031,0,0,1,.214.106.87.87,0,0,1,.173.143,1.557,1.557,0,0,1,.256.329,2.2,2.2,0,0,1,.169.352,3.56,3.56,0,0,1,.209,1.455" transform="translate(-95.476 -24.127)" fill="#d8866c"/>
            <path id="Trazado_153590" data-name="Trazado 153590" d="M251.8,89.688a19.875,19.875,0,0,1,3.356,1.819l1.023.662-1.224-.037c-.654-.02-1.308-.06-1.96-.134a13.535,13.535,0,0,1-1.954-.339,13.531,13.531,0,0,1,1.972-.206c.656-.03,1.31-.026,1.965,0l-.2.625a19.8,19.8,0,0,1-2.979-2.387" transform="translate(-86.825 -25.601)" fill="#c1725d"/>
            <path id="Trazado_153591" data-name="Trazado 153591" d="M162.173,366.152s-.184,12.362.457,12.486,35.93-.337,28.236-4.043A57.236,57.236,0,0,0,174.046,370l.588-8.741Z" transform="translate(-61.451 -103.121)" fill="#3a323f"/>
            <path id="Trazado_153592" data-name="Trazado 153592" d="M112.2,367.917s-1.258,12.3-.631,12.479,35.824,2.788,28.481-1.573a57.244,57.244,0,0,0-16.358-6.036l1.346-8.657Z" transform="translate(-46.965 -103.939)" fill="#3a323f"/>
            <path id="Trazado_153593" data-name="Trazado 153593" d="M111.992,173s-2.207,83.253-2.112,139.333c0,0,8.689,3.406,16.082.222l6.878-106.663,4.346.06,9.1,108.089s9.913-1.133,13.087-3.3-1.352-134.065-1.352-134.065Z" transform="translate(-46.531 -49.383)" fill="#b58868"/>
            <g id="Grupo_158663" data-name="Grupo 158663" transform="translate(65.079 123.62)" opacity="0.2">
              <g id="Grupo_158662" data-name="Grupo 158662">
                <g id="Grupo_158661" data-name="Grupo 158661" clip-path="url(#clip-path-9)">
                  <path id="Trazado_153594" data-name="Trazado 153594" d="M146.391,188.009q-17.039.324-34.089.522c.227-9.664.382-15.529.382-15.529l46.029,3.679s.144,4.187.362,11.078q-6.342.126-12.684.249" transform="translate(-112.302 -173.003)" fill="#352c38"/>
                </g>
              </g>
            </g>
            <path id="Trazado_153595" data-name="Trazado 153595" d="M108.6,368.751s9.155,3.8,17.743,1l.43-4.073a42.972,42.972,0,0,1-17.956-1.269Z" transform="translate(-46.167 -104.017)" fill="#af95a4"/>
            <path id="Trazado_153596" data-name="Trazado 153596" d="M175.609,365.9s-7.9,4.142-16.729,2.227l-.832-3.955a46.069,46.069,0,0,0,17.387-3.316Z" transform="translate(-60.281 -103.003)" fill="#af95a4"/>
            <path id="Trazado_153597" data-name="Trazado 153597" d="M115.211,51.624l4.057,19.347,6.079-1.182Z" transform="translate(-48.053 -14.736)" fill="#d8866c"/>
            <path id="Trazado_153598" data-name="Trazado 153598" d="M122.443,64.522,116.871,65.7l1.351,7.767s15.972.251,16.31-.256-7.192-5.822-7.192-5.822Z" transform="translate(-48.527 -18.417)" fill="#352c38"/>
            <path id="Trazado_153599" data-name="Trazado 153599" d="M91.875,80.431s12.693-10.738,33.884-9.479,25.592,3.156,25.946,26.571,1.964,57.148,1.964,57.148l-44.021,3.765Z" transform="translate(-41.392 -20.224)" fill="#352c38"/>
            <g id="Grupo_158666" data-name="Grupo 158666" transform="translate(57.517 83.787)" opacity="0.7">
              <g id="Grupo_158665" data-name="Grupo 158665">
                <g id="Grupo_158664" data-name="Grupo 158664" clip-path="url(#clip-path-10)">
                  <path id="Trazado_153600" data-name="Trazado 153600" d="M154.927,128.148c-2.1-.275-4.19-.552-6.282-.85-15.9-2.258-31.86-4.56-46.926-10.04l10.738,54.425,44.022-3.765s-.95-19.92-1.551-39.77" transform="translate(-101.719 -117.258)" fill="#28202b"/>
                </g>
              </g>
            </g>
            <path id="Trazado_153601" data-name="Trazado 153601" d="M178.036,90.323s-4.657-7.357,4.417-19.857l3.055,4.254Z" transform="translate(-65.645 -20.114)" fill="#fff"/>
            <path id="Trazado_153602" data-name="Trazado 153602" d="M178.682,89s-.126-10.65,7.088-16.7l3.064,2.416Z" transform="translate(-66.171 -20.64)" fill="#fdedee"/>
            <path id="Trazado_153603" data-name="Trazado 153603" d="M171.931,92.783s0-8.981-18.412-11.952l-.394,5.456Z" transform="translate(-58.875 -23.073)" fill="#fff"/>
            <path id="Trazado_153604" data-name="Trazado 153604" d="M147.274,86.231l1.023-3.284s17.527.749,21.421,9.093Z" transform="translate(-57.205 -23.677)" fill="#fdedee"/>
            <path id="Trazado_153605" data-name="Trazado 153605" d="M177.686,74.236l-9.757,12.49-22.636-4.818-3.57,24.531,20.4,4.274,2.7-1.573,8.918.119Z" transform="translate(-55.621 -21.19)" fill="#765e69"/>
            <g id="Grupo_158669" data-name="Grupo 158669" transform="translate(106.498 53.046)" opacity="0.6">
              <g id="Grupo_158668" data-name="Grupo 158668" transform="translate(0)">
                <g id="Grupo_158667" data-name="Grupo 158667" clip-path="url(#clip-path-11)">
                  <path id="Trazado_153606" data-name="Trazado 153606" d="M185.834,74.236l-9.757,12.49-5.81,23.987,2.7-1.573,7.561-.06Z" transform="translate(-170.267 -74.236)" fill="#433947"/>
                </g>
              </g>
            </g>
            <path id="Trazado_153607" data-name="Trazado 153607" d="M176.818,90.4l-2.013.725-4.538,24.2,2.605-.8Z" transform="translate(-63.769 -25.804)" fill="#8e687b"/>
            <path id="Trazado_153608" data-name="Trazado 153608" d="M187.274,79.642c.919.925-.064,47.767-2.97,52.876s-9.05,4.544-11.917.524,9.077-49.179,9.077-49.179-9.1-3.037.88-1.232c0,0-10.428-5.131,1.19-1.472,0,0-9.723-4.893.987-1.571,0,0-8.305-8.539,2.752.054" transform="translate(-64.247 -21.639)" fill="#ffac9d"/>
            <path id="Trazado_153609" data-name="Trazado 153609" d="M173.586,123.06c-3.094,11.044-5.539,21.785-3.965,23.63,3.416,4,10.9,4.447,14.553-.775,1.8-2.57,2.495-12.165,2.841-21.8-4.494-.174-8.972-.512-13.429-1.05" transform="translate(-63.444 -35.127)" fill="#352c38"/>
            <path id="Trazado_153610" data-name="Trazado 153610" d="M117.305,41.267c.625,3.138-.545,6.014-2.613,6.426s-4.249-1.8-4.873-4.936.545-6.015,2.613-6.426,4.249,1.8,4.873,4.936" transform="translate(-46.466 -10.356)" fill="#ffac9d"/>
            <path id="Trazado_153611" data-name="Trazado 153611" d="M116.594,49.09s9.278,8.476,15.994,6.825c7.889-1.941,9.6-10.359,9.013-21.59-.912-17.487-6.553-18.474-15.123-17.587-19.407,2.009-9.884,32.353-9.884,32.353" transform="translate(-47.781 -4.714)" fill="#ffac9d"/>
            <path id="Trazado_153612" data-name="Trazado 153612" d="M117.4,20.09s1.822,10.415-3.033,12.756l.046,6.537-2.048.527-.522-6.906s-2.725-.713-2.986,1.969c-.6,6.157,3.225,6.592,3.225,6.592l1.654,7.489s-10.891-8.588-9.35-27.938c.8-10,13.014-1.028,13.014-1.028" transform="translate(-44.92 -4.679)" fill="#76413b"/>
            <path id="Trazado_153613" data-name="Trazado 153613" d="M116.564,16.781s21.234,3.253,23.8-4.795l-3.767,1.37a10.891,10.891,0,0,0,2.226-10.275s-2.4,4.795-5.651,5.651c0,0,5.479-1.884,1.37-8.733,0,0,0,1.884-4.281,4.281s-27.57-6.85-25.858,16.268Z" transform="translate(-44.943)" fill="#76413b"/>
            <path id="Trazado_153614" data-name="Trazado 153614" d="M141.682,51.042a26.362,26.362,0,0,1,3.42-1.455l-.309.59c-.314-.792-.616-1.588-.894-2.392a43.015,43.015,0,0,1-1.971-7.418,43.094,43.094,0,0,1,2.978,7.073c.326.965.619,1.954.9,2.934a29.123,29.123,0,0,1-4.122.667" transform="translate(-55.609 -11.523)" fill="#d8866c"/>
            <path id="Trazado_153615" data-name="Trazado 153615" d="M128.027,42.08c.371,1.322,1.1,2.82,2.624,2.712,1.548,0,2.368-1.176,2.6-2.653a2.793,2.793,0,0,1-.289,2.389,2.877,2.877,0,0,1-3.589.826,3.166,3.166,0,0,1-1.346-3.273" transform="translate(-51.699 -12.012)" fill="#211b23"/>
            <path id="Trazado_153616" data-name="Trazado 153616" d="M143.6,41.7c.385,1.318,1.129,2.807,2.654,2.681,1.548-.021,2.355-1.2,2.569-2.683a2.791,2.791,0,0,1-.261,2.392,2.877,2.877,0,0,1-3.579.867A3.165,3.165,0,0,1,143.6,41.7" transform="translate(-56.146 -11.902)" fill="#211b23"/>
            <path id="Trazado_153617" data-name="Trazado 153617" d="M133.079,34.067c-3.265-.464-6.123-1.035-9.241.359,1.328-3.951,7.293-3.625,9.241-.359" transform="translate(-50.516 -9.003)" fill="#76413b"/>
            <path id="Trazado_153618" data-name="Trazado 153618" d="M148.65,32.577c-1.716-.675-3.165-1.553-4.993-1.2-.643.081-1.215.337-1.9.492,1.191-3.487,6.173-2.638,6.89.711" transform="translate(-55.631 -8.456)" fill="#76413b"/>
            <path id="Trazado_153619" data-name="Trazado 153619" d="M137.956,56.96c.787.835,1.487,1.739,2.185,2.637a58.515,58.515,0,0,1-7.225.562l.137-.968a37.2,37.2,0,0,1,4.734,2.159,37.3,37.3,0,0,1-5.059-1.218l-2.325-.7,2.462-.264a57.156,57.156,0,0,1,6.592-.2l-.284.552c-.435-.833-.857-1.676-1.218-2.557" transform="translate(-52.39 -16.259)" fill="#d8866c"/>
            <path id="Trazado_153620" data-name="Trazado 153620" d="M95.369,80.528s-13.478,10.6-9.869,28.046,17.855,64.261,21.485,64.812a18.724,18.724,0,0,0,7.792-.944s3.8,17.955,2.447-1.246c0,0,3.573,17.149,1.961-.841,0,0,5.6,16.134,1.27-.9,0,0,7.1,10.755.726-1.142A3.357,3.357,0,0,0,117,166.993l-2.952.961Z" transform="translate(-39.397 -22.986)" fill="#ffac9d"/>
            <g id="Grupo_158672" data-name="Grupo 158672" transform="translate(45.489 57.542)" opacity="0.2">
              <g id="Grupo_158671" data-name="Grupo 158671">
                <g id="Grupo_158670" data-name="Grupo 158670" clip-path="url(#clip-path-12)">
                  <path id="Trazado_153621" data-name="Trazado 153621" d="M96.848,149.218q6.04-2.748,11.923-5.973l-13.4-62.717s-13.478,10.6-9.869,28.046c1.887,9.123,6.683,26.275,11.349,40.645" transform="translate(-84.886 -80.528)" fill="#352c38"/>
                </g>
              </g>
            </g>
            <path id="Trazado_153622" data-name="Trazado 153622" d="M94.914,145.438c4.187-1.695,10.366-3.851,14.442-5.9L96.817,78.246S80.68,81.5,85.4,107.922a345.8,345.8,0,0,0,9.515,37.516" transform="translate(-39.297 -22.335)" fill="#352c38"/>
            <path id="Trazado_153624" data-name="Trazado 153624" d="M98.3,112.636s-4.365,0-5.952-1.389-1.984-10.911-1.984-10.911l-11.705,3.571.4,8.134s-9.523,2.579-10.316,3.769-.4,13.291,12.895,12.3S98.3,112.636,98.3,112.636" transform="translate(-34.719 -28.64)" fill="#ffac9d"/>
            <g id="Grupo_158678" data-name="Grupo 158678" transform="translate(33.778 71.695)" opacity="0.1">
              <g id="Grupo_158677" data-name="Grupo 158677">
                <g id="Grupo_158676" data-name="Grupo 158676" clip-path="url(#clip-path-13)">
                  <path id="Trazado_153625" data-name="Trazado 153625" d="M98.3,112.636s-4.365,0-5.952-1.389-1.984-10.911-1.984-10.911l-11.705,3.571.4,8.134s-9.523,2.579-10.316,3.769-.4,13.291,12.895,12.3S98.3,112.636,98.3,112.636" transform="translate(-68.497 -100.335)" fill="#352c38"/>
                </g>
              </g>
            </g>
            <path id="Trazado_153626" data-name="Trazado 153626" d="M55.372,83.238s0-.236.007-.679.01-1.092.044-1.919.08-1.83.18-2.978.239-2.443.462-3.846.527-2.914.927-4.494a35.975,35.975,0,0,1,1.595-4.875,27.379,27.379,0,0,1,2.567-4.863A17.439,17.439,0,0,1,65.016,55.4a12.677,12.677,0,0,1,5.2-2.349,14.366,14.366,0,0,1,5.509.056A26.38,26.38,0,0,1,80.7,54.4a24.251,24.251,0,0,1,4.123,2.041,19.633,19.633,0,0,1,3.093,2.345,20.207,20.207,0,0,1,2.041,2.184A12.829,12.829,0,0,1,91.4,63.126a12.8,12.8,0,0,0-1.515-2.1,19.978,19.978,0,0,0-2.1-2.1A21.984,21.984,0,0,0,84.66,56.7a23.986,23.986,0,0,0-4.1-1.93,28.6,28.6,0,0,0-4.91-1.2,13.858,13.858,0,0,0-5.338-.026,12.181,12.181,0,0,0-4.969,2.286,16.9,16.9,0,0,0-3.771,4.037,26.826,26.826,0,0,0-2.551,4.759,44.666,44.666,0,0,0-2.657,9.24c-.24,1.391-.436,2.673-.567,3.815s-.225,2.14-.284,2.963-.093,1.472-.11,1.914l-.031.678" transform="translate(-30.972 -15.074)" fill="#352c38"/>
            <path id="Trazado_153627" data-name="Trazado 153627" d="M60.206,83.516l-.112,1.456q-.9-.32-1.8-.676a24.657,24.657,0,0,1,.252-5.288c-.541.92-.764,3.271-.855,5.053q-.921-.382-1.83-.8c.279-17.123,6.762-32.1,19.351-30.674C88.135,54.052,92.55,62.768,92.55,62.768L87.2,85.911a67.671,67.671,0,0,1-15.914,1.32,37.756,37.756,0,0,1-10.548-2.036Z" transform="translate(-31.113 -14.985)" fill="#352c38"/>
            <path id="Trazado_153628" data-name="Trazado 153628" d="M93.511,58.872a10.672,10.672,0,0,1,1.585-.477,13.865,13.865,0,0,1,1.882-.3,11.933,11.933,0,0,1,2.482.023,10.917,10.917,0,0,1,2.852.771,9.272,9.272,0,0,1,2.715,1.894,7.028,7.028,0,0,1,.577.648,6.924,6.924,0,0,1,.539.685,14.729,14.729,0,0,1,.965,1.513,26.167,26.167,0,0,1,1.553,3.271c.427,1.133.808,2.282,1.141,3.423s.622,2.272.885,3.372.479,2.169.677,3.184c.184,1.018.358,1.979.518,2.868.312,1.777.511,3.268.67,4.307.144,1.043.227,1.638.227,1.638s-.481-2.356-1.2-5.889c-.356-1.765-.815-3.815-1.356-6-.272-1.09-.574-2.209-.914-3.338s-.731-2.257-1.16-3.369a25.6,25.6,0,0,0-1.488-3.218,14.311,14.311,0,0,0-.907-1.46,6.489,6.489,0,0,0-.522-.677,6.394,6.394,0,0,0-.547-.628,9.591,9.591,0,0,0-2.541-1.863,10.537,10.537,0,0,0-2.725-.829,13.586,13.586,0,0,0-2.427-.124,13.449,13.449,0,0,0-1.875.2,12.427,12.427,0,0,0-1.606.372" transform="translate(-41.859 -16.568)" fill="#352c38"/>
            <path id="Trazado_153629" data-name="Trazado 153629" d="M93.618,58.464s7.061-2.393,11.409,2.577c4.224,4.828,5.749,15.85,6.993,24.844-.759.283-1.533.561-2.314.828l-.169-1.564-.287,1.716c-4.82,1.606-9.981,2.68-14.509,1.158l2.925-22.583Z" transform="translate(-41.89 -16.524)" fill="#352c38"/>
            <path id="Trazado_153630" data-name="Trazado 153630" d="M93.756,81.015s5.058-10.544-6.523-14.075c-13.484-4.111-19.595,2.3-20.692,10.666s-.758,19.2,7.809,21.222c8.963,2.118,17.468-3.71,19.407-17.813" transform="translate(-34.033 -18.743)" fill="#ffac9d"/>
            <path id="Trazado_153631" data-name="Trazado 153631" d="M95.645,90.233c1.116-2.53,2.632-6.718.484-10.533-8.282-14.7-.414-16.979-.414-16.979,7.236-2.494,9.488,15.484,10.512,26.131-5.889,1.932-7.236.755-10.582,1.38" transform="translate(-41.524 -17.837)" fill="#352c38"/>
            <path id="Trazado_153632" data-name="Trazado 153632" d="M103.018,92.938a14.62,14.62,0,0,0,.276-6.257s3.681-1.288,4.049,2.485-2.668,4.233-4.324,3.773" transform="translate(-44.573 -24.682)" fill="#ffac9d"/>
            <path id="Trazado_153633" data-name="Trazado 153633" d="M75.311,79a11.207,11.207,0,0,0-1.229-.652c-.176-.089-.384-.152-.582-.242-.212-.062-.419-.158-.648-.206l-.339-.092c-.118-.018-.236-.037-.352-.062-.232-.06-.48-.051-.72-.091l-.731-.011c-.242.03-.486.023-.723.051s-.467.067-.693.091c-.22.046-.434.087-.635.121-.408.055-.737.168-.99.2s-.4.061-.4.061.092-.114.273-.3c.091-.09.2-.2.338-.32a2.425,2.425,0,0,1,.482-.362c.186-.119.391-.252.618-.372.237-.1.492-.2.76-.3a7.089,7.089,0,0,1,.867-.186,7.537,7.537,0,0,1,.927-.029,5.253,5.253,0,0,1,.92.161,3.844,3.844,0,0,1,.842.321,4.5,4.5,0,0,1,.71.437,4.418,4.418,0,0,1,.541.5,3.562,3.562,0,0,1,.619.89,2.034,2.034,0,0,1,.149.382" transform="translate(-34.367 -21.781)" fill="#352c38"/>
            <path id="Trazado_153634" data-name="Trazado 153634" d="M89.256,87.61s.011.164.016.447c0,.142.005.314,0,.51-.028.2-.061.428-.111.679a4.392,4.392,0,0,1-.252.787,3.437,3.437,0,0,1-.5.818,4.9,4.9,0,0,1-.372.38,5.362,5.362,0,0,1-.481.309,4.378,4.378,0,0,1-.577.174,3.267,3.267,0,0,1-.615,0,2.452,2.452,0,0,1-1.068-.481c-.138-.123-.274-.248-.4-.378l-.3-.422a4.107,4.107,0,0,1-.394-.855,5.208,5.208,0,0,1-.181-.8c-.028-.249-.043-.478-.054-.677s.022-.377.032-.519c.026-.285.051-.444.051-.444s.058.157.141.425c.039.132.088.293.143.478.072.179.152.377.227.593s.213.425.311.66a6.3,6.3,0,0,0,.428.648l.259.3c.1.079.2.154.3.239a1.755,1.755,0,0,0,.65.274,3.072,3.072,0,0,0,.334.011l.331-.081c.1-.058.207-.119.317-.169.1-.067.191-.163.289-.239a1.747,1.747,0,0,0,.254-.282,1.937,1.937,0,0,0,.234-.3c.115-.222.277-.416.362-.623s.187-.394.273-.565l.179-.477c.105-.264.174-.412.174-.412" transform="translate(-39.136 -24.872)" fill="#352c38"/>
            <path id="Trazado_153635" data-name="Trazado 153635" d="M73.572,87.512s.011.164.016.447c0,.142.005.314,0,.51-.028.2-.061.427-.111.678a4.381,4.381,0,0,1-.252.787,3.4,3.4,0,0,1-.5.817,4.78,4.78,0,0,1-.372.381,5.371,5.371,0,0,1-.481.309,4.371,4.371,0,0,1-.577.174,3.276,3.276,0,0,1-.615,0,2.452,2.452,0,0,1-1.068-.481c-.138-.123-.274-.248-.4-.378l-.3-.422a4.144,4.144,0,0,1-.394-.855,5.119,5.119,0,0,1-.181-.8c-.029-.249-.043-.478-.055-.677s.022-.377.032-.519c.026-.285.051-.444.051-.444s.058.157.141.425l.143.477c.072.179.152.378.226.594s.213.425.311.66a6.38,6.38,0,0,0,.428.648l.259.3c.1.079.2.154.3.239a1.753,1.753,0,0,0,.65.274,3.055,3.055,0,0,0,.334.011l.331-.082c.1-.057.207-.118.317-.168.1-.067.191-.163.289-.239a1.785,1.785,0,0,0,.255-.282,1.976,1.976,0,0,0,.233-.3c.115-.222.277-.416.362-.623s.187-.394.273-.566c.069-.184.129-.344.179-.477.105-.264.174-.412.174-.412" transform="translate(-34.659 -24.844)" fill="#352c38"/>
            <path id="Trazado_153636" data-name="Trazado 153636" d="M78.49,82.17c-.062.792-.174,1.571-.3,2.346s-.277,1.544-.442,2.31-.344,1.526-.539,2.283-.411,1.509-.618,2.263l-.15-.511c.366.378.722.766,1.057,1.179a10.094,10.094,0,0,1,.922,1.327,10.152,10.152,0,0,1-1.4-.8c-.441-.3-.86-.617-1.269-.947l-.232-.187.082-.324c.192-.757.364-1.521.582-2.272s.422-1.506.66-2.252.483-1.49.758-2.226.559-1.47.9-2.189" transform="translate(-36.721 -23.455)" fill="#d8866c"/>
            <path id="Trazado_153637" data-name="Trazado 153637" d="M92.133,79.3a12.149,12.149,0,0,0-1.313-.683c-.188-.1-.409-.161-.621-.254-.227-.066-.447-.166-.692-.217l-.362-.1c-.126-.019-.252-.04-.376-.066-.247-.064-.513-.056-.767-.1l-.78-.016c-.259.029-.519.022-.772.049s-.5.068-.738.091c-.235.046-.462.089-.677.122-.433.055-.785.171-1.054.205s-.428.062-.428.062.1-.119.294-.312c.1-.094.217-.214.362-.336a2.685,2.685,0,0,1,.517-.379c.2-.124.418-.264.662-.387.252-.1.524-.208.81-.307a7.817,7.817,0,0,1,.92-.19,8.178,8.178,0,0,1,.984-.026,5.7,5.7,0,0,1,.975.173,4.182,4.182,0,0,1,.892.338,4.879,4.879,0,0,1,.755.459,4.783,4.783,0,0,1,.578.528,3.815,3.815,0,0,1,.667.938,2.191,2.191,0,0,1,.163.4" transform="translate(-39.017 -21.823)" fill="#352c38"/>
            <path id="Trazado_153638" data-name="Trazado 153638" d="M76.268,100.74a4.921,4.921,0,0,0,1.02.6,4.605,4.605,0,0,0,.5.172,3.887,3.887,0,0,0,.559.109,4.716,4.716,0,0,0,.6.024,3.826,3.826,0,0,0,.625-.064,3.574,3.574,0,0,0,.632-.131l.314-.076.3-.106c.2-.071.407-.112.589-.2s.365-.141.536-.2.318-.13.459-.18.262-.1.366-.135c.208-.071.335-.1.335-.1s-.071.106-.209.279c-.07.085-.154.191-.26.3a2.8,2.8,0,0,1-.366.367,5.51,5.51,0,0,1-1.072.748,3.224,3.224,0,0,1-.692.3,3.287,3.287,0,0,1-.772.2,3.506,3.506,0,0,1-.812.043,3.462,3.462,0,0,1-.785-.139,2.975,2.975,0,0,1-.678-.309,2.5,2.5,0,0,1-.521-.4,2.605,2.605,0,0,1-.554-.773,1.586,1.586,0,0,1-.115-.336" transform="translate(-36.937 -28.674)" fill="#d8866c"/>
            <path id="Trazado_153639" data-name="Trazado 153639" d="M103.919,94.989a1.012,1.012,0,1,0,1.013-1.013,1.013,1.013,0,0,0-1.013,1.013" transform="translate(-44.83 -26.825)" fill="#fff"/>
            <path id="Trazado_153640" data-name="Trazado 153640" d="M107.025,89.706a10.282,10.282,0,0,0-.89-1.04c-.081-.072-.161-.142-.242-.2a1,1,0,0,0-.247-.147.705.705,0,0,0-.232-.059.562.562,0,0,0-.209.043l.161-.242A13.14,13.14,0,0,1,105,90.994a13.137,13.137,0,0,1-.182-2.953l.006-.185.155-.056a1.085,1.085,0,0,1,.469-.079,1.054,1.054,0,0,1,.229.045.812.812,0,0,1,.2.09,1.524,1.524,0,0,1,.325.244,2.093,2.093,0,0,1,.25.288,3.488,3.488,0,0,1,.572,1.317" transform="translate(-45.083 -25.039)" fill="#d8866c"/>
            <path id="Trazado_153641" data-name="Trazado 153641" d="M93.863,325.077s-.783,40.431,3.206,45.123c0,0,26.983,8.613,5.832-2.357l6.623-41.931Z" transform="translate(-41.942 -92.792)" fill="#ffac9d"/>
            <g id="Grupo_158681" data-name="Grupo 158681" transform="translate(51.86 232.285)" opacity="0.2">
              <g id="Grupo_158680" data-name="Grupo 158680">
                <g id="Grupo_158679" data-name="Grupo 158679" clip-path="url(#clip-path-14)">
                  <path id="Trazado_153642" data-name="Trazado 153642" d="M94.016,347.328c-.365-11.211-.152-22.251-.152-22.251l15.661.835-3.254,20.6c-4.077.232-8.164.521-12.255.815" transform="translate(-93.802 -325.077)" fill="#352c38"/>
                </g>
              </g>
            </g>
            <path id="Trazado_153643" data-name="Trazado 153643" d="M105.727,385.748s8.029,4.082,6.3,4.977-15.216-3.318-15.216-3.318l-.473-2.986s12.534,4.856,9.391,1.328" transform="translate(-42.665 -109.731)" fill="#352c38"/>
            <path id="Trazado_153644" data-name="Trazado 153644" d="M51.6,328.5s-10.041,39.3-15.111,42.895c0,0-28.13,1.934-4.954-3.663l4.85-42.139Z" transform="translate(-21.554 -92.938)" fill="#ffac9d"/>
            <g id="Grupo_158684" data-name="Grupo 158684" transform="translate(12.445 232.653)" opacity="0.2">
              <g id="Grupo_158683" data-name="Grupo 158683">
                <g id="Grupo_158682" data-name="Grupo 158682" clip-path="url(#clip-path-15)">
                  <path id="Trazado_153645" data-name="Trazado 153645" d="M50.157,349.99C53.5,339.23,56.241,328.5,56.241,328.5l-15.215-2.907-2.383,20.7c3.841,1.191,7.676,2.44,11.514,3.695" transform="translate(-38.643 -325.592)" fill="#352c38"/>
                </g>
              </g>
            </g>
            <path id="Trazado_153646" data-name="Trazado 153646" d="M29.01,385.173s-8.777,2.045-7.357,3.321,15.452.4,15.452.4l1.25-2.776s-13.3,1.725-9.345-.943" transform="translate(-21.303 -109.945)" fill="#352c38"/>
            <path id="Trazado_153647" data-name="Trazado 153647" d="M88.693,169.743,57.1,172.917c-18.108,16.664-26.2,123-26.2,123,12.33,4.761,26.585,1.984,26.585,1.984l15.026-76.576L70.584,297.5c11.559,3.968,24.273,1.587,24.273,1.587s11.173-72.608,11.559-95.62-17.723-33.725-17.723-33.725" transform="translate(-23.987 -48.452)" fill="#785549"/>
            <g id="Grupo_158687" data-name="Grupo 158687" transform="translate(6.914 159.134)" opacity="0.2">
              <g id="Grupo_158686" data-name="Grupo 158686">
                <g id="Grupo_158685" data-name="Grupo 158685" clip-path="url(#clip-path-16)">
                  <path id="Trazado_153648" data-name="Trazado 153648" d="M43.283,222.7c9.521,5.323,29.228,13.737,29.228,13.737L57.485,313.016S43.23,315.792,30.9,311.031c0,0,3.911-51.4,12.382-88.328" transform="translate(-30.901 -222.703)" fill="#352c38"/>
                </g>
              </g>
            </g>
            <g id="Grupo_158690" data-name="Grupo 158690" transform="translate(29.624 121.291)" opacity="0.2">
              <g id="Grupo_158689" data-name="Grupo 158689">
                <g id="Grupo_158688" data-name="Grupo 158688" clip-path="url(#clip-path-17)">
                  <path id="Trazado_153649" data-name="Trazado 153649" d="M62.684,177.408a20.464,20.464,0,0,1,3.488-4.49l31.593-3.174a23.685,23.685,0,0,1,1.964,1.363c-3.629,2.78-13.622,7.862-37.045,6.3" transform="translate(-62.684 -169.743)" fill="#352c38"/>
                </g>
              </g>
            </g>
            <path id="Trazado_153650" data-name="Trazado 153650" d="M28.94,122.5c-4.2-7.9,2.039.935,2.039.935-6.132-13.84,1.638-.664,1.638-.664-5.118-11.7,1.453-.657,1.453-.657,3.926-7.909,1.192,1.936,1.192,1.936l13.452,20.681,6.387-21c1.349.677,2.732,1.287,4.137,1.855l6.225,8.115s-9.752,23.442-16.931,24.338S36.02,139.006,30.9,127.756c-3.554-7.814-2.85-6.829-1.962-5.257" transform="translate(-23.013 -33.427)" fill="#ffac9d"/>
            <g id="Grupo_158693" data-name="Grupo 158693" transform="translate(4.474 83.679)" opacity="0.1">
              <g id="Grupo_158692" data-name="Grupo 158692">
                <g id="Grupo_158691" data-name="Grupo 158691" clip-path="url(#clip-path-18)">
                  <path id="Trazado_153651" data-name="Trazado 153651" d="M28.94,122.5c-4.2-7.9,2.039.935,2.039.935-6.132-13.84,1.638-.664,1.638-.664-5.118-11.7,1.453-.657,1.453-.657,3.926-7.909,1.192,1.936,1.192,1.936l13.452,20.681,6.387-21c1.349.677,2.732,1.287,4.137,1.855l6.225,8.115s-9.752,23.442-16.931,24.338S36.02,139.006,30.9,127.756c-3.554-7.814-2.85-6.829-1.962-5.257" transform="translate(-27.487 -117.106)" fill="#352c38"/>
                </g>
              </g>
            </g>
            <path id="Trazado_153652" data-name="Trazado 153652" d="M46.755,120.968,30.686,125.73l-2.381-23.855L44.374,97.56Z" transform="translate(-23.246 -27.848)" fill="#785549"/>
            <path id="Trazado_153653" data-name="Trazado 153653" d="M26.285,101.339l-5.059-5.654,2.232,23.806,5.207,5.7Z" transform="translate(-21.225 -27.313)" fill="#785549"/>
            <path id="Trazado_153654" data-name="Trazado 153654" d="M62.779,122.063l6.051-3.521s-1.19,8.927,8.927,9.324,17.458-11.7,17.458-11.7,8.63,3.521,10.266,10.514-7.092,27.972-7.092,27.972c-14.681,6.547-31.94,2.975-31.94,2.975-10.812-16.664-3.67-35.56-3.67-35.56" transform="translate(-32.426 -33.158)" fill="#c0c942"/>
            <g id="Grupo_158696" data-name="Grupo 158696" transform="translate(28.04 98.049)" opacity="0.3">
              <g id="Grupo_158695" data-name="Grupo 158695">
                <g id="Grupo_158694" data-name="Grupo 158694" clip-path="url(#clip-path-19)">
                  <path id="Trazado_153655" data-name="Trazado 153655" d="M79.883,150.136a146.8,146.8,0,0,0,21.237,3.362c-1.471,4.134-2.73,7.16-2.73,7.16-14.681,6.547-31.94,2.976-31.94,2.976-6.064-9.346-6.48-19.393-5.676-26.416,4.439,6.833,10.692,11.036,19.109,12.918" transform="translate(-60.466 -137.217)" fill="#352c38"/>
                </g>
              </g>
            </g>
            <path id="Trazado_153656" data-name="Trazado 153656" d="M64.043,134.569,58.29,131.4s1.388-11.109,9.919-11.9Z" transform="translate(-31.805 -34.108)" fill="#c0c942"/>
            <path id="Trazado_153657" data-name="Trazado 153657" d="M88.885,142.675l-9.919-11.159L58.73,146.445,45.24,125.217s3.373-9.721-1.19-1.984c0,0-6.546-11.308-1.587.6,0,0-7.736-13.49-1.785.6,0,0-7.142-10.316-1.19.793,0,0-5.952-8.332.2,2.58S50.2,160.331,57.937,159.736s30.947-17.061,30.947-17.061" transform="translate(-25.7 -33.684)" fill="#ffac9d"/>
            <g id="Grupo_158699" data-name="Grupo 158699" transform="translate(51.976 97.832)" opacity="0.1">
              <g id="Grupo_158698" data-name="Grupo 158698">
                <g id="Grupo_158697" data-name="Grupo 158697" clip-path="url(#clip-path-20)">
                  <path id="Trazado_153658" data-name="Trazado 153658" d="M93.965,137.865l1.29-.952,9.919,11.159s-.777.551-2.084,1.448a78.259,78.259,0,0,1-9.125-11.656" transform="translate(-93.965 -136.913)" fill="#352c38"/>
                </g>
              </g>
            </g>
          </g>
        </g>
      </g>
    </g>
  </g>
</svg>
