<svg xmlns="http://www.w3.org/2000/svg" xmlns:xlink="http://www.w3.org/1999/xlink" width="77" height="77" viewBox="0 0 77 77">
  <defs>
    <clipPath id="clip-path">
      <rect id="Rectángulo_35044" data-name="Rectángulo 35044" width="44.115" height="35.497" fill="#31313c"/>
    </clipPath>
  </defs>
  <g id="Grupo_158001" data-name="Grupo 158001" transform="translate(-1077 -1572)">
    <circle id="Elipse_4726" data-name="Elipse 4726" cx="38.5" cy="38.5" r="38.5" transform="translate(1077 1572)" fill="#fd9827"/>
    <g id="Grupo_158000" data-name="Grupo 158000" transform="translate(1093 1593)">
      <g id="Grupo_157999" data-name="Grupo 157999" transform="translate(0 0)" clip-path="url(#clip-path)">
        <path id="Trazado_151797" data-name="Trazado 151797" d="M41.146,0Q21.873.04,2.6.015A2.316,2.316,0,0,0,0,2.613V23.461a2.241,2.241,0,0,0,1.233,2.11,2.8,2.8,0,0,0,1.378.26H41.546a2.538,2.538,0,0,0,1.983-.754,5.5,5.5,0,0,0,.582-1.029V1.819C43.63.387,42.573,0,41.146,0m.337,24H2.635c-.754,0-.816-.062-.816-.8V2.649c0-.731.083-.815.812-.815H41.478c.733,0,.817.084.817.811V23.188c0,.747-.062.808-.812.808Z" transform="translate(0.001 0)" fill="#31313c"/>
        <path id="Trazado_151798" data-name="Trazado 151798" d="M42.823,88.44c-5.512.014-11.023.005-16.535.015-.312,0-.477-.062-.591-.386a3.566,3.566,0,0,0-6.678-.007.5.5,0,0,1-.583.392q-8.526-.013-17.052-.005a4.016,4.016,0,0,0-.6.035.889.889,0,0,0-.75.863.879.879,0,0,0,.691.867,3.25,3.25,0,0,0,.64.055q8.526,0,17.052,0c.326,0,.492.063.614.405a3.565,3.565,0,0,0,6.661-.009.507.507,0,0,1,.578-.4c5.468.011,10.938,0,16.406.016a1.574,1.574,0,0,0,1.461-.586v-.6a1.291,1.291,0,0,0-1.316-.65m-20.461,2.7a1.781,1.781,0,1,1,1.777-1.787,1.809,1.809,0,0,1-1.778,1.787Z" transform="translate(-0.024 -57.463)" fill="#31313c"/>
        <path id="Trazado_151799" data-name="Trazado 151799" d="M60.859,24.068l-8.132-5.786a1.07,1.07,0,0,0-1.153-.224c-.463.224-.513.638-.511,1.092.007,1.941,0,3.877,0,5.815s0,3.905,0,5.858a.961.961,0,0,0,1.652.845q4.061-2.9,8.131-5.789c.835-.6.84-1.223.014-1.81m-7.951,5.221V20.648l6.073,4.317Z" transform="translate(-34.204 -12.047)" fill="#31313c"/>
        <path id="Trazado_151800" data-name="Trazado 151800" d="M51.115,27.334c0-1.941,0-3.877,0-5.815.007,1.941,0,3.877,0,5.815s0,3.905,0,5.858c0-1.952,0-3.905,0-5.858" transform="translate(-34.253 -14.42)" fill="#31313c"/>
      </g>
    </g>
  </g>
</svg>
