<svg xmlns="http://www.w3.org/2000/svg" xmlns:xlink="http://www.w3.org/1999/xlink" width="77" height="77" viewBox="0 0 77 77">
  <defs>
    <clipPath id="clip-path">
      <rect id="Rectángulo_35047" data-name="Rectángulo 35047" width="41.035" height="41.016" fill="#31313c"/>
    </clipPath>
  </defs>
  <g id="Grupo_158010" data-name="Grupo 158010" transform="translate(-1287 -1572)">
    <circle id="Elipse_4727" data-name="Elipse 4727" cx="38.5" cy="38.5" r="38.5" transform="translate(1287 1572)" fill="#fd9827"/>
    <g id="Grupo_158009" data-name="Grupo 158009" transform="translate(1305 1590)">
      <g id="Grupo_158008" data-name="Grupo 158008" clip-path="url(#clip-path)">
        <path id="Trazado_151807" data-name="Trazado 151807" d="M111.522,8.744v0c1.534,0,3.067,0,4.6,0a1.282,1.282,0,1,0,.017-2.558c-3.08-.008-6.16-.01-9.241.009a1.7,1.7,0,0,0-.853.273,1.216,1.216,0,0,0-.448,1.387,1.254,1.254,0,0,0,1.2.885c1.574.01,3.147,0,4.72,0m.012,5.127h0c1.534,0,3.067,0,4.6,0a1.28,1.28,0,1,0,.034-2.556q-4.641-.016-9.281.008a1.674,1.674,0,0,0-.85.281,1.214,1.214,0,0,0-.435,1.39,1.255,1.255,0,0,0,1.211.875c1.574.01,3.147,0,4.72,0m0,5.127v0c1.533,0,3.067,0,4.6,0a1.282,1.282,0,1,0,0-2.558c-3.08-.007-6.161-.01-9.241.009a1.679,1.679,0,0,0-.851.278,1.215,1.215,0,0,0-.44,1.389,1.254,1.254,0,0,0,1.208.879c1.573.01,3.147,0,4.72,0" transform="translate(-76.479 -4.479)" fill="#31313c"/>
        <path id="Trazado_151808" data-name="Trazado 151808" d="M0,2.485c.045-.122.1-.242.135-.366A2.954,2.954,0,0,1,2.946.007q9.874-.012,19.748,0a2.946,2.946,0,0,1,2.94,2.937q.026,4.745,0,9.491a2.946,2.946,0,0,1-2.939,2.938q-9.874.019-19.748,0A2.955,2.955,0,0,1,.135,13.265C.1,13.141.045,13.021,0,12.9V2.485" transform="translate(0 0)" fill="#31313c"/>
        <path id="Trazado_151809" data-name="Trazado 151809" d="M108.051,117.475a8.516,8.516,0,0,1-1.317-.628,2.637,2.637,0,0,1-1.173-2.211c-.02-2.094-.032-4.188,0-6.281a2.882,2.882,0,0,1,2.822-2.82q3.14-.051,6.283,0a2.9,2.9,0,0,1,2.826,2.826q.05,3.14,0,6.281a2.952,2.952,0,0,1-2.248,2.743c-.1.026-.2.06-.3.091Z" transform="translate(-76.482 -76.459)" fill="#31313c"/>
        <path id="Trazado_151810" data-name="Trazado 151810" d="M0,66.11a1.568,1.568,0,0,1,1.652-.972q18.888.023,37.776.011c1,0,1.594.478,1.594,1.28s-.594,1.283-1.592,1.283q-18.888,0-37.776.011A1.576,1.576,0,0,1,0,66.751Z" transform="translate(0 -47.203)" fill="#31313c"/>
        <path id="Trazado_151811" data-name="Trazado 151811" d="M0,84.73a1.568,1.568,0,0,1,1.652-.972q18.888.023,37.776.011c1,0,1.594.478,1.594,1.28s-.594,1.283-1.592,1.283q-18.888,0-37.776.011A1.576,1.576,0,0,1,0,85.371Z" transform="translate(0 -60.696)" fill="#31313c"/>
        <path id="Trazado_151812" data-name="Trazado 151812" d="M0,103.349a1.567,1.567,0,0,1,1.652-.972q11.2.027,22.392.011a3.765,3.765,0,0,1,.48.012,1.28,1.28,0,0,1-.037,2.543,4.266,4.266,0,0,1-.44.008q-11.2,0-22.392.011A1.575,1.575,0,0,1,0,103.99Z" transform="translate(0 -74.189)" fill="#31313c"/>
        <path id="Trazado_151813" data-name="Trazado 151813" d="M0,121.969A1.567,1.567,0,0,1,1.652,121q11.2.027,22.392.011a3.765,3.765,0,0,1,.48.012,1.28,1.28,0,0,1-.037,2.543,4.266,4.266,0,0,1-.44.008q-11.2,0-22.392.011A1.575,1.575,0,0,1,0,122.61Z" transform="translate(0 -87.682)" fill="#31313c"/>
        <path id="Trazado_151814" data-name="Trazado 151814" d="M0,140.589a1.566,1.566,0,0,1,1.651-.972q11.212.027,22.425.013a2.524,2.524,0,0,1,.632.058,1.27,1.27,0,0,1,.279,2.333c-.1.062-.206.113-.309.17H.961A1.755,1.755,0,0,1,0,141.23Z" transform="translate(0 -101.175)" fill="#31313c"/>
        <path id="Trazado_151815" data-name="Trazado 151815" d="M0,145.476a1.754,1.754,0,0,0,.961.961H0Z" transform="translate(0 -105.421)" fill="#31313c"/>
        <path id="Trazado_151816" data-name="Trazado 151816" d="M111.522,8.744c-1.574,0-3.147.007-4.72,0a1.254,1.254,0,0,1-1.2-.885,1.215,1.215,0,0,1,.448-1.387A1.7,1.7,0,0,1,106.9,6.2c3.08-.019,6.161-.017,9.241-.009a1.282,1.282,0,1,1-.017,2.558c-1.533.006-3.067,0-4.6,0Z" transform="translate(-76.479 -4.479)" fill="#31313c"/>
        <path id="Trazado_151817" data-name="Trazado 151817" d="M111.534,27.365c-1.574,0-3.147.006-4.72,0a1.255,1.255,0,0,1-1.211-.875,1.214,1.214,0,0,1,.435-1.39,1.676,1.676,0,0,1,.85-.281q4.64-.029,9.281-.008a1.28,1.28,0,1,1-.034,2.556c-1.533.007-3.067,0-4.6,0Z" transform="translate(-76.48 -17.972)" fill="#31313c"/>
        <path id="Trazado_151818" data-name="Trazado 151818" d="M111.53,45.984c-1.574,0-3.147.007-4.72,0A1.254,1.254,0,0,1,105.6,45.1a1.215,1.215,0,0,1,.44-1.389,1.679,1.679,0,0,1,.851-.278c3.08-.02,6.16-.017,9.241-.009a1.282,1.282,0,1,1,0,2.558c-1.533.007-3.067,0-4.6,0Z" transform="translate(-76.479 -31.465)" fill="#31313c"/>
      </g>
    </g>
  </g>
</svg>
