<svg xmlns="http://www.w3.org/2000/svg" xmlns:xlink="http://www.w3.org/1999/xlink" width="313" height="226.501" viewBox="0 0 313 226.501">
  <defs>
    <clipPath id="clip-path">
      <rect id="Rectángulo_34881" data-name="Rectángulo 34881" width="143" height="87" transform="translate(-0.44 0.243)" fill="#12263f"/>
    </clipPath>
    <clipPath id="clip-path-2">
      <rect id="Rectángulo_35040" data-name="Rectángulo 35040" width="121.274" height="140.318" fill="none"/>
    </clipPath>
  </defs>
  <g id="Grupo_157998" data-name="Grupo 157998" transform="translate(-345 -781.999)">
    <g id="Grupo_80196" data-name="Grupo 80196" transform="translate(121 -5426.5)">
      <g id="Enmascarar_grupo_63" data-name="Enmascarar grupo 63" transform="translate(243.192 6208.256)" clip-path="url(#clip-path)">
        <path id="Trazado_151731" data-name="Trazado 151731" d="M68.087,107.506A39.419,39.419,0,1,0,28.668,68.087a39.463,39.463,0,0,0,39.419,39.419m0,28.668a68.087,68.087,0,1,1,68.087-68.087A68.087,68.087,0,0,1,68.087,136.174Z" transform="translate(3.432 19.156)" fill="#fd9827"/>
      </g>
      <path id="Trazado_151733" data-name="Trazado 151733" d="M0,0H271c23.2,0,42,16.091,42,35.939v103.54H42c-23.2,0-42-16.091-42-35.939Z" transform="translate(224 6295.521)" fill="#31313c"/>
      <g id="Grupo_78301" data-name="Grupo 78301" transform="translate(226 6208.756)">
        <path id="Trazado_145968" data-name="Trazado 145968" d="M43.541,0A43.541,43.541,0,1,0,87.083,43.541,43.541,43.541,0,0,0,43.541,0Z" transform="translate(6.692 132.358)" fill="#31313c" opacity="0.444" style="mix-blend-mode: multiply;isolation: isolate"/>
        <path id="Trazado_145969" data-name="Trazado 145969" d="M21.667,0A21.667,21.667,0,1,0,43.333,21.667,21.667,21.667,0,0,0,21.667,0Z" transform="translate(225.831 11.044)" fill="#fd9827" opacity="0.444" style="mix-blend-mode: multiply;isolation: isolate"/>
        <rect id="Rectángulo_34812" data-name="Rectángulo 34812" width="309.662" height="222.853" transform="translate(0 0)" fill="none"/>
        <path id="Trazado_145971" data-name="Trazado 145971" d="M8.18,0a8.18,8.18,0,1,0,8.18,8.18A8.18,8.18,0,0,0,8.18,0Z" transform="translate(260.984 190.282)" fill="#31313c" opacity="0.444" style="mix-blend-mode: multiply;isolation: isolate"/>
        <g id="Grupo_78276" data-name="Grupo 78276" transform="translate(18.831 162.877)">
          <g id="Grupo_53306" data-name="Grupo 53306" transform="translate(0)">
            <path id="Trazado_99200" data-name="Trazado 99200" d="M414.214,50.789a.592.592,0,1,0,.592-.565A.579.579,0,0,0,414.214,50.789Z" transform="translate(-361.003 -50.224)" fill="#fff"/>
            <path id="Trazado_99201" data-name="Trazado 99201" d="M422.66,50.789a.592.592,0,1,0,.591-.565A.579.579,0,0,0,422.66,50.789Z" transform="translate(-374.77 -50.224)" fill="#fff"/>
            <path id="Trazado_99202" data-name="Trazado 99202" d="M431.106,50.789a.592.592,0,1,0,.591-.565A.579.579,0,0,0,431.106,50.789Z" transform="translate(-388.536 -50.224)" fill="#fff"/>
            <path id="Trazado_99203" data-name="Trazado 99203" d="M439.553,50.789a.592.592,0,1,0,.592-.565A.579.579,0,0,0,439.553,50.789Z" transform="translate(-402.305 -50.224)" fill="#fff"/>
            <path id="Trazado_99204" data-name="Trazado 99204" d="M448,50.789a.592.592,0,1,0,.591-.565A.579.579,0,0,0,448,50.789Z" transform="translate(-416.072 -50.224)" fill="#fff"/>
            <path id="Trazado_99205" data-name="Trazado 99205" d="M456.445,50.789a.592.592,0,1,0,.591-.565A.579.579,0,0,0,456.445,50.789Z" transform="translate(-429.839 -50.224)" fill="#fff"/>
            <path id="Trazado_99206" data-name="Trazado 99206" d="M464.892,50.789a.592.592,0,1,0,.592-.565A.579.579,0,0,0,464.892,50.789Z" transform="translate(-443.608 -50.224)" fill="#fff"/>
            <path id="Trazado_99207" data-name="Trazado 99207" d="M473.338,50.789a.592.592,0,1,0,.591-.565A.579.579,0,0,0,473.338,50.789Z" transform="translate(-457.375 -50.224)" fill="#fff"/>
            <path id="Trazado_99208" data-name="Trazado 99208" d="M481.784,50.789a.592.592,0,1,0,.591-.565A.579.579,0,0,0,481.784,50.789Z" transform="translate(-471.142 -50.224)" fill="#fff"/>
            <path id="Trazado_99209" data-name="Trazado 99209" d="M490.231,50.789a.592.592,0,1,0,.592-.565A.579.579,0,0,0,490.231,50.789Z" transform="translate(-484.91 -50.224)" fill="#fff"/>
            <path id="Trazado_99210" data-name="Trazado 99210" d="M498.677,50.789a.592.592,0,1,0,.592-.565A.579.579,0,0,0,498.677,50.789Z" transform="translate(-498.677 -50.224)" fill="#fff"/>
          </g>
          <g id="Grupo_53307" data-name="Grupo 53307" transform="translate(0 4.523)">
            <path id="Trazado_99211" data-name="Trazado 99211" d="M414.214,58.3a.592.592,0,1,0,.592-.565A.579.579,0,0,0,414.214,58.3Z" transform="translate(-361.003 -57.732)" fill="#fff"/>
            <path id="Trazado_99212" data-name="Trazado 99212" d="M422.66,58.3a.592.592,0,1,0,.591-.565A.579.579,0,0,0,422.66,58.3Z" transform="translate(-374.77 -57.732)" fill="#fff"/>
            <path id="Trazado_99213" data-name="Trazado 99213" d="M431.106,58.3a.592.592,0,1,0,.591-.565A.579.579,0,0,0,431.106,58.3Z" transform="translate(-388.536 -57.732)" fill="#fff"/>
            <path id="Trazado_99214" data-name="Trazado 99214" d="M439.553,58.3a.592.592,0,1,0,.592-.565A.579.579,0,0,0,439.553,58.3Z" transform="translate(-402.305 -57.732)" fill="#fff"/>
            <path id="Trazado_99215" data-name="Trazado 99215" d="M448,58.3a.592.592,0,1,0,.591-.565A.579.579,0,0,0,448,58.3Z" transform="translate(-416.072 -57.732)" fill="#fff"/>
            <path id="Trazado_99216" data-name="Trazado 99216" d="M456.445,58.3a.592.592,0,1,0,.591-.565A.579.579,0,0,0,456.445,58.3Z" transform="translate(-429.839 -57.732)" fill="#fff"/>
            <path id="Trazado_99217" data-name="Trazado 99217" d="M464.892,58.3a.592.592,0,1,0,.592-.565A.579.579,0,0,0,464.892,58.3Z" transform="translate(-443.608 -57.732)" fill="#fff"/>
            <path id="Trazado_99218" data-name="Trazado 99218" d="M473.338,58.3a.592.592,0,1,0,.591-.565A.579.579,0,0,0,473.338,58.3Z" transform="translate(-457.375 -57.732)" fill="#fff"/>
            <path id="Trazado_99219" data-name="Trazado 99219" d="M481.784,58.3a.592.592,0,1,0,.591-.565A.579.579,0,0,0,481.784,58.3Z" transform="translate(-471.142 -57.732)" fill="#fff"/>
            <path id="Trazado_99220" data-name="Trazado 99220" d="M490.231,58.3a.592.592,0,1,0,.592-.565A.579.579,0,0,0,490.231,58.3Z" transform="translate(-484.91 -57.732)" fill="#fff"/>
            <path id="Trazado_99221" data-name="Trazado 99221" d="M498.677,58.3a.592.592,0,1,0,.592-.565A.579.579,0,0,0,498.677,58.3Z" transform="translate(-498.677 -57.732)" fill="#fff"/>
          </g>
          <g id="Grupo_53308" data-name="Grupo 53308" transform="translate(0 9.047)">
            <ellipse id="Elipse_3955" data-name="Elipse 3955" cx="0.591" cy="0.565" rx="0.591" ry="0.565" transform="translate(53.211)" fill="#fff"/>
            <path id="Trazado_99222" data-name="Trazado 99222" d="M422.66,65.805a.592.592,0,1,0,.591-.565A.579.579,0,0,0,422.66,65.805Z" transform="translate(-374.77 -65.24)" fill="#fff"/>
            <ellipse id="Elipse_3956" data-name="Elipse 3956" cx="0.591" cy="0.565" rx="0.591" ry="0.565" transform="translate(42.569)" fill="#fff"/>
            <path id="Trazado_99223" data-name="Trazado 99223" d="M439.553,65.805a.592.592,0,1,0,.592-.565A.579.579,0,0,0,439.553,65.805Z" transform="translate(-402.305 -65.24)" fill="#fff"/>
            <path id="Trazado_99224" data-name="Trazado 99224" d="M448,65.805a.592.592,0,1,0,.591-.565A.579.579,0,0,0,448,65.805Z" transform="translate(-416.072 -65.24)" fill="#fff"/>
            <ellipse id="Elipse_3957" data-name="Elipse 3957" cx="0.591" cy="0.565" rx="0.591" ry="0.565" transform="translate(26.606)" fill="#fff"/>
            <path id="Trazado_99225" data-name="Trazado 99225" d="M464.892,65.805a.592.592,0,1,0,.592-.565A.58.58,0,0,0,464.892,65.805Z" transform="translate(-443.608 -65.24)" fill="#fff"/>
            <ellipse id="Elipse_3958" data-name="Elipse 3958" cx="0.591" cy="0.565" rx="0.591" ry="0.565" transform="translate(15.963)" fill="#fff"/>
            <ellipse id="Elipse_3959" data-name="Elipse 3959" cx="0.591" cy="0.565" rx="0.591" ry="0.565" transform="translate(10.642)" fill="#fff"/>
            <path id="Trazado_99226" data-name="Trazado 99226" d="M490.231,65.805a.592.592,0,1,0,.592-.565A.58.58,0,0,0,490.231,65.805Z" transform="translate(-484.91 -65.24)" fill="#fff"/>
            <path id="Trazado_99227" data-name="Trazado 99227" d="M498.677,65.805a.592.592,0,1,0,.592-.565A.579.579,0,0,0,498.677,65.805Z" transform="translate(-498.677 -65.24)" fill="#fff"/>
          </g>
          <g id="Grupo_53309" data-name="Grupo 53309" transform="translate(0 13.57)">
            <ellipse id="Elipse_3960" data-name="Elipse 3960" cx="0.591" cy="0.565" rx="0.591" ry="0.565" transform="translate(53.211 0)" fill="#fff"/>
            <path id="Trazado_99228" data-name="Trazado 99228" d="M422.66,73.313a.592.592,0,1,0,.591-.566A.578.578,0,0,0,422.66,73.313Z" transform="translate(-374.77 -72.747)" fill="#fff"/>
            <ellipse id="Elipse_3961" data-name="Elipse 3961" cx="0.591" cy="0.565" rx="0.591" ry="0.565" transform="translate(42.569 0)" fill="#fff"/>
            <path id="Trazado_99229" data-name="Trazado 99229" d="M439.553,73.313a.592.592,0,1,0,.592-.566A.579.579,0,0,0,439.553,73.313Z" transform="translate(-402.305 -72.747)" fill="#fff"/>
            <path id="Trazado_99230" data-name="Trazado 99230" d="M448,73.313a.592.592,0,1,0,.591-.566A.579.579,0,0,0,448,73.313Z" transform="translate(-416.072 -72.747)" fill="#fff"/>
            <ellipse id="Elipse_3962" data-name="Elipse 3962" cx="0.591" cy="0.565" rx="0.591" ry="0.565" transform="translate(26.606 0)" fill="#fff"/>
            <path id="Trazado_99231" data-name="Trazado 99231" d="M464.892,73.313a.592.592,0,1,0,.592-.566A.579.579,0,0,0,464.892,73.313Z" transform="translate(-443.608 -72.747)" fill="#fff"/>
            <ellipse id="Elipse_3963" data-name="Elipse 3963" cx="0.591" cy="0.565" rx="0.591" ry="0.565" transform="translate(15.963 0)" fill="#fff"/>
            <ellipse id="Elipse_3964" data-name="Elipse 3964" cx="0.591" cy="0.565" rx="0.591" ry="0.565" transform="translate(10.642 0)" fill="#fff"/>
            <path id="Trazado_99232" data-name="Trazado 99232" d="M490.231,73.313a.592.592,0,1,0,.592-.566A.579.579,0,0,0,490.231,73.313Z" transform="translate(-484.91 -72.747)" fill="#fff"/>
            <path id="Trazado_99233" data-name="Trazado 99233" d="M498.677,73.313a.592.592,0,1,0,.592-.566A.579.579,0,0,0,498.677,73.313Z" transform="translate(-498.677 -72.747)" fill="#fff"/>
          </g>
          <g id="Grupo_53310" data-name="Grupo 53310" transform="translate(0 18.093)">
            <path id="Trazado_99234" data-name="Trazado 99234" d="M414.214,80.821a.592.592,0,1,0,.592-.566A.579.579,0,0,0,414.214,80.821Z" transform="translate(-361.003 -80.255)" fill="#fff"/>
            <path id="Trazado_99235" data-name="Trazado 99235" d="M422.66,80.821a.592.592,0,1,0,.591-.566A.578.578,0,0,0,422.66,80.821Z" transform="translate(-374.77 -80.255)" fill="#fff"/>
            <path id="Trazado_99236" data-name="Trazado 99236" d="M431.106,80.821a.592.592,0,1,0,.591-.566A.578.578,0,0,0,431.106,80.821Z" transform="translate(-388.536 -80.255)" fill="#fff"/>
            <path id="Trazado_99237" data-name="Trazado 99237" d="M439.553,80.821a.592.592,0,1,0,.592-.566A.579.579,0,0,0,439.553,80.821Z" transform="translate(-402.305 -80.255)" fill="#fff"/>
            <path id="Trazado_99238" data-name="Trazado 99238" d="M448,80.821a.592.592,0,1,0,.591-.566A.579.579,0,0,0,448,80.821Z" transform="translate(-416.072 -80.255)" fill="#fff"/>
            <path id="Trazado_99239" data-name="Trazado 99239" d="M456.445,80.821a.592.592,0,1,0,.591-.566A.578.578,0,0,0,456.445,80.821Z" transform="translate(-429.839 -80.255)" fill="#fff"/>
            <path id="Trazado_99240" data-name="Trazado 99240" d="M464.892,80.821a.592.592,0,1,0,.592-.566A.579.579,0,0,0,464.892,80.821Z" transform="translate(-443.608 -80.255)" fill="#fff"/>
            <path id="Trazado_99241" data-name="Trazado 99241" d="M473.338,80.821a.592.592,0,1,0,.591-.566A.578.578,0,0,0,473.338,80.821Z" transform="translate(-457.375 -80.255)" fill="#fff"/>
            <path id="Trazado_99242" data-name="Trazado 99242" d="M481.784,80.821a.592.592,0,1,0,.591-.566A.579.579,0,0,0,481.784,80.821Z" transform="translate(-471.142 -80.255)" fill="#fff"/>
            <path id="Trazado_99243" data-name="Trazado 99243" d="M490.231,80.821a.592.592,0,1,0,.592-.566A.579.579,0,0,0,490.231,80.821Z" transform="translate(-484.91 -80.255)" fill="#fff"/>
            <path id="Trazado_99244" data-name="Trazado 99244" d="M498.677,80.821a.592.592,0,1,0,.592-.566A.579.579,0,0,0,498.677,80.821Z" transform="translate(-498.677 -80.255)" fill="#fff"/>
          </g>
          <g id="Grupo_53311" data-name="Grupo 53311" transform="translate(0 22.616)">
            <ellipse id="Elipse_3965" data-name="Elipse 3965" cx="0.591" cy="0.565" rx="0.591" ry="0.565" transform="translate(53.211 0)" fill="#fff"/>
            <path id="Trazado_99245" data-name="Trazado 99245" d="M422.66,88.329a.592.592,0,1,0,.591-.566A.578.578,0,0,0,422.66,88.329Z" transform="translate(-374.77 -87.763)" fill="#fff"/>
            <ellipse id="Elipse_3966" data-name="Elipse 3966" cx="0.591" cy="0.565" rx="0.591" ry="0.565" transform="translate(42.569 0)" fill="#fff"/>
            <path id="Trazado_99246" data-name="Trazado 99246" d="M439.553,88.329a.592.592,0,1,0,.592-.566A.579.579,0,0,0,439.553,88.329Z" transform="translate(-402.305 -87.763)" fill="#fff"/>
            <path id="Trazado_99247" data-name="Trazado 99247" d="M448,88.329a.592.592,0,1,0,.591-.566A.579.579,0,0,0,448,88.329Z" transform="translate(-416.072 -87.763)" fill="#fff"/>
            <ellipse id="Elipse_3967" data-name="Elipse 3967" cx="0.591" cy="0.565" rx="0.591" ry="0.565" transform="translate(26.606 0)" fill="#fff"/>
            <path id="Trazado_99248" data-name="Trazado 99248" d="M464.892,88.329a.592.592,0,1,0,.592-.566A.579.579,0,0,0,464.892,88.329Z" transform="translate(-443.608 -87.763)" fill="#fff"/>
            <ellipse id="Elipse_3968" data-name="Elipse 3968" cx="0.591" cy="0.565" rx="0.591" ry="0.565" transform="translate(15.963 0)" fill="#fff"/>
            <ellipse id="Elipse_3969" data-name="Elipse 3969" cx="0.591" cy="0.565" rx="0.591" ry="0.565" transform="translate(10.642 0)" fill="#fff"/>
            <path id="Trazado_99249" data-name="Trazado 99249" d="M490.231,88.329a.592.592,0,1,0,.592-.566A.579.579,0,0,0,490.231,88.329Z" transform="translate(-484.91 -87.763)" fill="#fff"/>
            <path id="Trazado_99250" data-name="Trazado 99250" d="M498.677,88.329a.592.592,0,1,0,.592-.566A.579.579,0,0,0,498.677,88.329Z" transform="translate(-498.677 -87.763)" fill="#fff"/>
          </g>
          <g id="Grupo_53312" data-name="Grupo 53312" transform="translate(0 27.14)">
            <ellipse id="Elipse_3970" data-name="Elipse 3970" cx="0.591" cy="0.565" rx="0.591" ry="0.565" transform="translate(53.211)" fill="#fff"/>
            <path id="Trazado_99251" data-name="Trazado 99251" d="M422.66,95.836a.592.592,0,1,0,.591-.565A.579.579,0,0,0,422.66,95.836Z" transform="translate(-374.77 -95.271)" fill="#fff"/>
            <ellipse id="Elipse_3971" data-name="Elipse 3971" cx="0.591" cy="0.565" rx="0.591" ry="0.565" transform="translate(42.569)" fill="#fff"/>
            <path id="Trazado_99252" data-name="Trazado 99252" d="M439.553,95.836a.592.592,0,1,0,.592-.565A.579.579,0,0,0,439.553,95.836Z" transform="translate(-402.305 -95.271)" fill="#fff"/>
            <path id="Trazado_99253" data-name="Trazado 99253" d="M448,95.836a.592.592,0,1,0,.591-.565A.579.579,0,0,0,448,95.836Z" transform="translate(-416.072 -95.271)" fill="#fff"/>
            <ellipse id="Elipse_3972" data-name="Elipse 3972" cx="0.591" cy="0.565" rx="0.591" ry="0.565" transform="translate(26.606)" fill="#fff"/>
            <path id="Trazado_99254" data-name="Trazado 99254" d="M464.892,95.836a.592.592,0,1,0,.592-.565A.579.579,0,0,0,464.892,95.836Z" transform="translate(-443.608 -95.271)" fill="#fff"/>
            <ellipse id="Elipse_3973" data-name="Elipse 3973" cx="0.591" cy="0.565" rx="0.591" ry="0.565" transform="translate(15.963)" fill="#fff"/>
            <ellipse id="Elipse_3974" data-name="Elipse 3974" cx="0.591" cy="0.565" rx="0.591" ry="0.565" transform="translate(10.642)" fill="#fff"/>
            <path id="Trazado_99255" data-name="Trazado 99255" d="M490.231,95.836a.592.592,0,1,0,.592-.565A.579.579,0,0,0,490.231,95.836Z" transform="translate(-484.91 -95.271)" fill="#fff"/>
            <path id="Trazado_99256" data-name="Trazado 99256" d="M498.677,95.836a.592.592,0,1,0,.592-.565A.579.579,0,0,0,498.677,95.836Z" transform="translate(-498.677 -95.271)" fill="#fff"/>
          </g>
          <g id="Grupo_53313" data-name="Grupo 53313" transform="translate(0 31.663)">
            <path id="Trazado_99257" data-name="Trazado 99257" d="M414.214,103.344a.592.592,0,1,0,.592-.565A.579.579,0,0,0,414.214,103.344Z" transform="translate(-361.003 -102.779)" fill="#fff"/>
            <path id="Trazado_99258" data-name="Trazado 99258" d="M422.66,103.344a.592.592,0,1,0,.591-.565A.579.579,0,0,0,422.66,103.344Z" transform="translate(-374.77 -102.779)" fill="#fff"/>
            <path id="Trazado_99259" data-name="Trazado 99259" d="M431.106,103.344a.592.592,0,1,0,.591-.565A.579.579,0,0,0,431.106,103.344Z" transform="translate(-388.536 -102.779)" fill="#fff"/>
            <path id="Trazado_99260" data-name="Trazado 99260" d="M439.553,103.344a.592.592,0,1,0,.592-.565A.579.579,0,0,0,439.553,103.344Z" transform="translate(-402.305 -102.779)" fill="#fff"/>
            <path id="Trazado_99261" data-name="Trazado 99261" d="M448,103.344a.592.592,0,1,0,.591-.565A.579.579,0,0,0,448,103.344Z" transform="translate(-416.072 -102.779)" fill="#fff"/>
            <path id="Trazado_99262" data-name="Trazado 99262" d="M456.445,103.344a.592.592,0,1,0,.591-.565A.579.579,0,0,0,456.445,103.344Z" transform="translate(-429.839 -102.779)" fill="#fff"/>
            <path id="Trazado_99263" data-name="Trazado 99263" d="M464.892,103.344a.592.592,0,1,0,.592-.565A.579.579,0,0,0,464.892,103.344Z" transform="translate(-443.608 -102.779)" fill="#fff"/>
            <path id="Trazado_99264" data-name="Trazado 99264" d="M473.338,103.344a.592.592,0,1,0,.591-.565A.579.579,0,0,0,473.338,103.344Z" transform="translate(-457.375 -102.779)" fill="#fff"/>
            <path id="Trazado_99265" data-name="Trazado 99265" d="M481.784,103.344a.592.592,0,1,0,.591-.565A.579.579,0,0,0,481.784,103.344Z" transform="translate(-471.142 -102.779)" fill="#fff"/>
            <path id="Trazado_99266" data-name="Trazado 99266" d="M490.231,103.344a.592.592,0,1,0,.592-.565A.579.579,0,0,0,490.231,103.344Z" transform="translate(-484.91 -102.779)" fill="#fff"/>
            <path id="Trazado_99267" data-name="Trazado 99267" d="M498.677,103.344a.592.592,0,1,0,.592-.565A.579.579,0,0,0,498.677,103.344Z" transform="translate(-498.677 -102.779)" fill="#fff"/>
          </g>
          <g id="Grupo_53314" data-name="Grupo 53314" transform="translate(0 36.187)">
            <ellipse id="Elipse_3975" data-name="Elipse 3975" cx="0.591" cy="0.565" rx="0.591" ry="0.565" transform="translate(53.211)" fill="#fff"/>
            <path id="Trazado_99268" data-name="Trazado 99268" d="M422.66,110.852a.592.592,0,1,0,.591-.565A.579.579,0,0,0,422.66,110.852Z" transform="translate(-374.77 -110.287)" fill="#fff"/>
            <ellipse id="Elipse_3976" data-name="Elipse 3976" cx="0.591" cy="0.565" rx="0.591" ry="0.565" transform="translate(42.569)" fill="#fff"/>
            <path id="Trazado_99269" data-name="Trazado 99269" d="M439.553,110.852a.592.592,0,1,0,.592-.565A.579.579,0,0,0,439.553,110.852Z" transform="translate(-402.305 -110.287)" fill="#fff"/>
            <path id="Trazado_99270" data-name="Trazado 99270" d="M448,110.852a.592.592,0,1,0,.591-.565A.579.579,0,0,0,448,110.852Z" transform="translate(-416.072 -110.287)" fill="#fff"/>
            <ellipse id="Elipse_3977" data-name="Elipse 3977" cx="0.591" cy="0.565" rx="0.591" ry="0.565" transform="translate(26.606)" fill="#fff"/>
            <path id="Trazado_99271" data-name="Trazado 99271" d="M464.892,110.852a.592.592,0,1,0,.592-.565A.58.58,0,0,0,464.892,110.852Z" transform="translate(-443.608 -110.287)" fill="#fff"/>
            <ellipse id="Elipse_3978" data-name="Elipse 3978" cx="0.591" cy="0.565" rx="0.591" ry="0.565" transform="translate(15.963)" fill="#fff"/>
            <ellipse id="Elipse_3979" data-name="Elipse 3979" cx="0.591" cy="0.565" rx="0.591" ry="0.565" transform="translate(10.642)" fill="#fff"/>
            <path id="Trazado_99272" data-name="Trazado 99272" d="M490.231,110.852a.592.592,0,1,0,.592-.565A.58.58,0,0,0,490.231,110.852Z" transform="translate(-484.91 -110.287)" fill="#fff"/>
            <path id="Trazado_99273" data-name="Trazado 99273" d="M498.677,110.852a.592.592,0,1,0,.592-.565A.579.579,0,0,0,498.677,110.852Z" transform="translate(-498.677 -110.287)" fill="#fff"/>
          </g>
          <g id="Grupo_53315" data-name="Grupo 53315" transform="translate(0 40.709)">
            <path id="Trazado_99274" data-name="Trazado 99274" d="M414.214,118.36a.592.592,0,1,0,.592-.566A.579.579,0,0,0,414.214,118.36Z" transform="translate(-361.003 -117.794)" fill="#fff"/>
            <path id="Trazado_99275" data-name="Trazado 99275" d="M422.66,118.36a.592.592,0,1,0,.591-.566A.579.579,0,0,0,422.66,118.36Z" transform="translate(-374.77 -117.794)" fill="#fff"/>
            <path id="Trazado_99276" data-name="Trazado 99276" d="M431.106,118.36a.592.592,0,1,0,.591-.566A.579.579,0,0,0,431.106,118.36Z" transform="translate(-388.536 -117.794)" fill="#fff"/>
            <path id="Trazado_99277" data-name="Trazado 99277" d="M439.553,118.36a.592.592,0,1,0,.592-.566A.579.579,0,0,0,439.553,118.36Z" transform="translate(-402.305 -117.794)" fill="#fff"/>
            <path id="Trazado_99278" data-name="Trazado 99278" d="M448,118.36a.592.592,0,1,0,.591-.566A.579.579,0,0,0,448,118.36Z" transform="translate(-416.072 -117.794)" fill="#fff"/>
            <path id="Trazado_99279" data-name="Trazado 99279" d="M456.445,118.36a.592.592,0,1,0,.591-.566A.579.579,0,0,0,456.445,118.36Z" transform="translate(-429.839 -117.794)" fill="#fff"/>
            <path id="Trazado_99280" data-name="Trazado 99280" d="M464.892,118.36a.592.592,0,1,0,.592-.566A.58.58,0,0,0,464.892,118.36Z" transform="translate(-443.608 -117.794)" fill="#fff"/>
            <path id="Trazado_99281" data-name="Trazado 99281" d="M473.338,118.36a.592.592,0,1,0,.591-.566A.579.579,0,0,0,473.338,118.36Z" transform="translate(-457.375 -117.794)" fill="#fff"/>
            <path id="Trazado_99282" data-name="Trazado 99282" d="M481.784,118.36a.592.592,0,1,0,.591-.566A.579.579,0,0,0,481.784,118.36Z" transform="translate(-471.142 -117.794)" fill="#fff"/>
            <path id="Trazado_99283" data-name="Trazado 99283" d="M490.231,118.36a.592.592,0,1,0,.592-.566A.58.58,0,0,0,490.231,118.36Z" transform="translate(-484.91 -117.794)" fill="#fff"/>
            <path id="Trazado_99284" data-name="Trazado 99284" d="M498.677,118.36a.592.592,0,1,0,.592-.566A.579.579,0,0,0,498.677,118.36Z" transform="translate(-498.677 -117.794)" fill="#fff"/>
          </g>
          <g id="Grupo_53316" data-name="Grupo 53316" transform="translate(0 45.233)">
            <ellipse id="Elipse_3980" data-name="Elipse 3980" cx="0.591" cy="0.565" rx="0.591" ry="0.565" transform="translate(53.211 0)" fill="#fff"/>
            <path id="Trazado_99285" data-name="Trazado 99285" d="M422.66,125.868a.592.592,0,1,0,.591-.566A.578.578,0,0,0,422.66,125.868Z" transform="translate(-374.77 -125.302)" fill="#fff"/>
            <ellipse id="Elipse_3981" data-name="Elipse 3981" cx="0.591" cy="0.565" rx="0.591" ry="0.565" transform="translate(42.569 0)" fill="#fff"/>
            <path id="Trazado_99286" data-name="Trazado 99286" d="M439.553,125.868a.592.592,0,1,0,.592-.566A.579.579,0,0,0,439.553,125.868Z" transform="translate(-402.305 -125.302)" fill="#fff"/>
            <path id="Trazado_99287" data-name="Trazado 99287" d="M448,125.868a.592.592,0,1,0,.591-.566A.579.579,0,0,0,448,125.868Z" transform="translate(-416.072 -125.302)" fill="#fff"/>
            <ellipse id="Elipse_3982" data-name="Elipse 3982" cx="0.591" cy="0.565" rx="0.591" ry="0.565" transform="translate(26.606 0)" fill="#fff"/>
            <path id="Trazado_99288" data-name="Trazado 99288" d="M464.892,125.868a.592.592,0,1,0,.592-.566A.579.579,0,0,0,464.892,125.868Z" transform="translate(-443.608 -125.302)" fill="#fff"/>
            <ellipse id="Elipse_3983" data-name="Elipse 3983" cx="0.591" cy="0.565" rx="0.591" ry="0.565" transform="translate(15.963 0)" fill="#fff"/>
            <ellipse id="Elipse_3984" data-name="Elipse 3984" cx="0.591" cy="0.565" rx="0.591" ry="0.565" transform="translate(10.642 0)" fill="#fff"/>
            <path id="Trazado_99289" data-name="Trazado 99289" d="M490.231,125.868a.592.592,0,1,0,.592-.566A.579.579,0,0,0,490.231,125.868Z" transform="translate(-484.91 -125.302)" fill="#fff"/>
            <path id="Trazado_99290" data-name="Trazado 99290" d="M498.677,125.868a.592.592,0,1,0,.592-.566A.579.579,0,0,0,498.677,125.868Z" transform="translate(-498.677 -125.302)" fill="#fff"/>
          </g>
          <g id="Grupo_53317" data-name="Grupo 53317" transform="translate(0 49.757)">
            <ellipse id="Elipse_3985" data-name="Elipse 3985" cx="0.591" cy="0.565" rx="0.591" ry="0.565" transform="translate(53.211 0)" fill="#fff"/>
            <path id="Trazado_99291" data-name="Trazado 99291" d="M422.66,133.376a.592.592,0,1,0,.591-.566A.578.578,0,0,0,422.66,133.376Z" transform="translate(-374.77 -132.81)" fill="#fff"/>
            <ellipse id="Elipse_3986" data-name="Elipse 3986" cx="0.591" cy="0.565" rx="0.591" ry="0.565" transform="translate(42.569 0)" fill="#fff"/>
            <path id="Trazado_99292" data-name="Trazado 99292" d="M439.553,133.376a.592.592,0,1,0,.592-.566A.579.579,0,0,0,439.553,133.376Z" transform="translate(-402.305 -132.81)" fill="#fff"/>
            <path id="Trazado_99293" data-name="Trazado 99293" d="M448,133.376a.592.592,0,1,0,.591-.566A.579.579,0,0,0,448,133.376Z" transform="translate(-416.072 -132.81)" fill="#fff"/>
            <ellipse id="Elipse_3987" data-name="Elipse 3987" cx="0.591" cy="0.565" rx="0.591" ry="0.565" transform="translate(26.606 0)" fill="#fff"/>
            <path id="Trazado_99294" data-name="Trazado 99294" d="M464.892,133.376a.592.592,0,1,0,.592-.566A.579.579,0,0,0,464.892,133.376Z" transform="translate(-443.608 -132.81)" fill="#fff"/>
            <ellipse id="Elipse_3988" data-name="Elipse 3988" cx="0.591" cy="0.565" rx="0.591" ry="0.565" transform="translate(15.963 0)" fill="#fff"/>
            <ellipse id="Elipse_3989" data-name="Elipse 3989" cx="0.591" cy="0.565" rx="0.591" ry="0.565" transform="translate(10.642 0)" fill="#fff"/>
            <path id="Trazado_99295" data-name="Trazado 99295" d="M490.231,133.376a.592.592,0,1,0,.592-.566A.579.579,0,0,0,490.231,133.376Z" transform="translate(-484.91 -132.81)" fill="#fff"/>
            <path id="Trazado_99296" data-name="Trazado 99296" d="M498.677,133.376a.592.592,0,1,0,.592-.566A.579.579,0,0,0,498.677,133.376Z" transform="translate(-498.677 -132.81)" fill="#fff"/>
          </g>
        </g>
        <line id="Línea_138" data-name="Línea 138" y2="115.674" transform="translate(301.114 61)" fill="none" stroke="#fff" stroke-width="1" stroke-dasharray="8"/>
      </g>
    </g>
    <g id="Grupo_157994" data-name="Grupo 157994" transform="translate(441 825)">
      <g id="Grupo_157993" data-name="Grupo 157993" clip-path="url(#clip-path-2)">
        <path id="Trazado_151775" data-name="Trazado 151775" d="M9.98,129.557c3.8,2.548,7.789,4.418,11.521,6.713.6-.583,1.195-1.164,1.78-1.748,4.2-4.2,8.434-8.366,12.583-12.616a5.1,5.1,0,0,1,3.978-1.668c14.894.046,29.79.013,44.685.055a3.511,3.511,0,0,0,2.738-1.16c8.795-8.846,17.645-17.636,26.426-26.494,3.078-3.106,3.657-6.815,2.079-10.862a15.44,15.44,0,0,0-.933-1.745L96.031,98.816l-2.8-2.737a12.412,12.412,0,0,1-3.077.384c-.422,0-.829-.024-1.227-.06a16.317,16.317,0,0,1-2.04,5.04,9.452,9.452,0,0,1-8.115,4.857c-8.72.128-17.444.042-26.329.042v-4.6H53.96q11.442,0,22.885,0c4.484,0,6.9-2.129,7.524-6.748-.086-.05-.167-.1-.251-.158h-1.2q-25.693,0-51.388-.02a2.912,2.912,0,0,0-2.269.944Q16.792,108.287,4.285,120.781a7.927,7.927,0,0,0-.863,1.31c-1.324-1.36-2.338-2.4-3.422-3.512v2.583a80.769,80.769,0,0,0,9.98,8.4" fill="#feaf9d"/>
        <path id="Trazado_151776" data-name="Trazado 151776" d="M34.113,46.272c1.9.013,2.376.495,3.043,2.3.883,2.386,1.854,4.746,2.923,7.055.819,1.773.813,2.518-.565,3.907-1.64,1.65-3.295,3.284-4.765,4.746L41.3,70.827c1.47-1.47,3.047-3.055,4.631-4.632,1.567-1.56,2.223-1.562,4.238-.582a54.36,54.36,0,0,0,6.285,2.644c2.55.865,2.863,1.128,2.865,3.867,0,2.133,0,4.267,0,6.425h9.247c0-2.424-.012-4.75,0-7.076.013-1.794.555-2.369,2.207-3q3.7-1.4,7.3-3.038c1.628-.739,2.406-.723,3.679.538,1.679,1.663,3.336,3.348,4.949,4.97l6.537-6.592c-1.549-1.546-3.2-3.181-4.833-4.828-1.419-1.429-1.44-2.09-.579-3.887a57.666,57.666,0,0,0,2.682-6.268c.987-2.908,1.1-3.1,4.241-3.1h6.069V37.008c-2.343,0-4.577.005-6.812,0-2.116-.006-2.587-.486-3.305-2.522A63.354,63.354,0,0,0,88,27.93c-1.074-2.218-1.1-2.7.639-4.436,1.569-1.567,3.151-3.122,4.562-4.517l-6.577-6.6c-1.542,1.559-3.167,3.224-4.816,4.865-1.343,1.335-2.08,1.343-3.784.554-2.309-1.068-4.656-2.073-7.046-2.944-1.888-.689-2.4-1.208-2.413-3.26-.008-2.27,0-4.541,0-6.862H59.315c0,2.4.015,4.723,0,7.045-.016,1.9-.534,2.412-2.291,3.059-2.388.878-4.747,1.852-7.054,2.923-1.794.833-2.493.837-3.892-.557-1.645-1.637-3.272-3.293-4.829-4.863L34.664,18.9c1.555,1.547,3.145,3.121,4.726,4.705,1.524,1.529,1.534,2.218.642,4.114-1.045,2.219-1.988,4.5-2.818,6.8C36.5,36.513,36,37,33.869,37.007c-2.268.005-4.537,0-6.825,0v9.26c2.427,0,4.748-.012,7.069,0M63.956,27.74a13.865,13.865,0,1,1,0,27.729,13.865,13.865,0,0,1,0-27.729" fill="#fe9738"/>
        <path id="Trazado_151777" data-name="Trazado 151777" d="M25.4,50.89c2.147.022,4.3.034,6.443-.009a1.3,1.3,0,0,1,1.5,1.01,33.6,33.6,0,0,0,1.735,4.159,1.281,1.281,0,0,1-.367,1.761c-1.58,1.52-3.123,3.08-4.661,4.644-1.468,1.493-1.48,2.64-.007,4.128q4.437,4.48,8.918,8.918c1.511,1.5,2.7,1.472,4.241-.05,1.562-1.541,3.131-3.074,4.642-4.664a1.207,1.207,0,0,1,1.653-.3,44.329,44.329,0,0,0,4.286,1.789,1.221,1.221,0,0,1,.956,1.39q-.06,3.426,0,6.854c.03,1.851.83,2.71,2.676,2.731q6.51.071,13.023,0c1.918-.017,2.74-.9,2.758-2.8.022-2.285.028-4.57-.007-6.854a1.131,1.131,0,0,1,.875-1.295c1.5-.534,2.972-1.162,4.414-1.839a1.132,1.132,0,0,1,1.535.278c1.454,1.517,2.957,2.987,4.445,4.473,1.867,1.864,2.89,1.879,4.72.052q4.221-4.214,8.429-8.437c1.812-1.818,1.821-2.819.034-4.611-1.738-1.743-3.487-3.473-5.158-5.135.736-1.8,1.467-3.422,2.053-5.1a1.373,1.373,0,0,1,1.555-1.117c2.237.058,4.478.054,6.716.005,1.927-.043,2.747-.9,2.755-2.8q.026-6.444,0-12.886c-.008-1.976-.858-2.806-2.869-2.825-2.238-.021-4.479-.038-6.716.013a1.2,1.2,0,0,1-1.384-.939,41.812,41.812,0,0,0-1.767-4.3,1.2,1.2,0,0,1,.31-1.645c1.585-1.516,3.122-3.082,4.662-4.644s1.571-2.667.036-4.218q-4.389-4.432-8.815-8.827c-1.606-1.6-2.723-1.592-4.323,0-1.781,1.768-3.548,3.551-5.289,5.3l-6.2-2.582c0-2.432-.058-4.9.022-7.36A3.12,3.12,0,0,0,71.547,0H56.192a3.539,3.539,0,0,0-1.484,3.418c.075,2.1.053,4.2-.012,6.3a1.488,1.488,0,0,1-.668,1.116c-1.784.792-3.615,1.475-5.565,2.249-1.768-1.782-3.579-3.649-5.437-5.468-1.383-1.354-2.548-1.349-3.923.009q-4.584,4.53-9.115,9.109c-1.392,1.406-1.378,2.6.026,4.031,1.566,1.6,3.143,3.191,4.762,4.737a1.212,1.212,0,0,1,.315,1.653,43.858,43.858,0,0,0-1.783,4.29,1.21,1.21,0,0,1-1.4.933c-2.192-.047-4.386-.028-6.579-.014-2.159.015-2.983.814-3,2.988q-.037,6.237,0,12.475c.01,2.249.811,3.036,3.068,3.06m1.641-13.882c2.289,0,4.557,0,6.825,0C36,37,36.5,36.513,37.214,34.522c.83-2.307,1.773-4.583,2.818-6.8.892-1.9.882-2.586-.642-4.114-1.581-1.584-3.171-3.158-4.725-4.705,2.223-2.221,4.347-4.341,6.579-6.57,1.557,1.57,3.184,3.226,4.829,4.864,1.4,1.394,2.1,1.39,3.892.557,2.308-1.072,4.666-2.046,7.054-2.924,1.757-.646,2.275-1.158,2.291-3.059.02-2.321,0-4.642,0-7.044h9.248c0,2.321-.007,4.592,0,6.862.007,2.051.524,2.571,2.413,3.26,2.389.871,4.736,1.876,7.045,2.944,1.7.788,2.441.781,3.784-.554,1.65-1.641,3.275-3.307,4.816-4.865l6.577,6.6c-1.41,1.4-2.992,2.95-4.562,4.516C86.9,25.23,86.925,25.711,88,27.93a63.582,63.582,0,0,1,2.708,6.555c.717,2.036,1.188,2.516,3.3,2.522,2.235.006,4.47,0,6.812,0v9.269H94.754c-3.146,0-3.253.188-4.241,3.1a57.485,57.485,0,0,1-2.682,6.269c-.861,1.8-.84,2.458.579,3.887,1.635,1.647,3.284,3.281,4.833,4.828-2.216,2.235-4.331,4.367-6.536,6.592-1.614-1.622-3.271-3.307-4.95-4.97-1.273-1.262-2.051-1.277-3.679-.538q-3.6,1.635-7.3,3.038c-1.652.626-2.194,1.2-2.207,3-.016,2.326,0,4.652,0,7.076H59.316c0-2.158,0-4.292,0-6.426,0-2.738-.315-3-2.865-3.866a54.345,54.345,0,0,1-6.284-2.644c-2.016-.981-2.672-.978-4.239.582-1.584,1.577-3.161,3.162-4.631,4.632L34.75,64.28c1.469-1.463,3.125-3.1,4.764-4.746,1.378-1.389,1.384-2.135.565-3.907-1.069-2.309-2.04-4.669-2.923-7.055-.667-1.805-1.141-2.287-3.043-2.3-2.32-.016-4.642,0-7.069,0Z"/>
        <path id="Trazado_151778" data-name="Trazado 151778" d="M40.852,124.843c2.19.078,4.385.024,6.578.024q19.259,0,38.517.006a4,4,0,0,0,3.136-1.016c9.156-9.2,18.4-18.3,27.484-27.569,6.211-6.336,6.231-14.534.326-21.119-1.324-1.476-2.591-1.57-3.99-.176Q102.852,85,92.839,95.054a3.3,3.3,0,0,0-.286.36l3.478,3.4,18.806-18.784a15.456,15.456,0,0,1,.933,1.746c1.578,4.047,1,7.756-2.079,10.861-8.781,8.859-17.631,17.649-26.426,26.494a3.509,3.509,0,0,1-2.738,1.16c-14.895-.041-29.791-.008-44.685-.054a5.1,5.1,0,0,0-3.978,1.667c-4.149,4.251-8.38,8.42-12.583,12.617-.835.833-1.683,1.652-2.541,2.494,1.162,1.147,2.217,2.191,3.341,3.3,4.791-4.8,9.609-9.612,14.388-14.457a2.935,2.935,0,0,1,2.383-1.018"/>
        <path id="Trazado_151779" data-name="Trazado 151779" d="M4.285,120.781q12.482-12.519,24.977-25.023a2.9,2.9,0,0,1,2.268-.943q25.695.041,51.388.02h1.476c-.591,4.731-3.013,6.9-7.548,6.9q-11.443,0-22.885,0H52.445v4.6c8.885,0,17.609.086,26.33-.042a9.451,9.451,0,0,0,8.114-4.858,16.865,16.865,0,0,0,2.437-7.619c.23-2.846-.522-3.621-3.373-3.621q-27.75,0-55.5-.025a4.7,4.7,0,0,0-3.635,1.482Q13.876,104.686.864,117.643c-.31.31-.6.645-.864.936l3.423,3.512a7.861,7.861,0,0,1,.862-1.31"/>
        <path id="Trazado_151780" data-name="Trazado 151780" d="M63.961,55.469A13.865,13.865,0,1,0,50.116,41.625,13.98,13.98,0,0,0,63.961,55.469m-.03-23.093a9.243,9.243,0,0,1,.052,18.486,9.243,9.243,0,0,1-.052-18.486"/>
      </g>
    </g>
  </g>
</svg>
