<svg xmlns="http://www.w3.org/2000/svg" xmlns:xlink="http://www.w3.org/1999/xlink" width="97" height="97" viewBox="0 0 97 97">
  <defs>
    <clipPath id="clip-path">
      <rect id="Rect치ngulo_35224" data-name="Rect치ngulo 35224" width="79.547" height="79.539" fill="#fd9827"/>
    </clipPath>
  </defs>
  <g id="Grupo_158214" data-name="Grupo 158214" transform="translate(-909 -5459)">
    <g id="Grupo_158199" data-name="Grupo 158199" transform="translate(918 5468)">
      <g id="Grupo_158198" data-name="Grupo 158198" clip-path="url(#clip-path)">
        <path id="Trazado_153103" data-name="Trazado 153103" d="M23.628,79.539a1.954,1.954,0,0,1-.713-1.763c.025-2.511.009-5.022.009-7.533v-.918H1.8c-1.486,0-1.778-.289-1.779-1.752,0-.285-.009-.57,0-.854a1.193,1.193,0,0,1,1.093-1.276,1.191,1.191,0,0,1,1.229,1.139c.017.1.021.205.035.36H6.6c0-.8-.02-1.617.009-2.431.013-.352.016-.818.228-1.02a1.532,1.532,0,0,1,1.169-.477,1.468,1.468,0,0,1,.866,1,22.641,22.641,0,0,1,.04,2.918H22.886c.03-.657.022-1.3.092-1.935a7.189,7.189,0,0,1,4.733-6.272c1.073-.437,2.195-.755,3.335-1.14a4.464,4.464,0,0,0-2.63-2.827c-2.391-.894-4.835-1.651-7.3-2.479a4.526,4.526,0,0,1-4.247,2.914,4.473,4.473,0,0,1-4.214-2.881c-.417.126-.831.242-1.239.376-1.841.606-3.685,1.2-5.518,1.829A5.055,5.055,0,0,0,2.35,59.451c-.006.6.032,1.194-.02,1.785A1.068,1.068,0,0,1,1.214,62.3a1.031,1.031,0,0,1-1.165-1,10.392,10.392,0,0,1,.493-4.667,7.286,7.286,0,0,1,4.527-4.29q3.339-1.136,6.7-2.2a.848.848,0,0,0,.681-.924,2.777,2.777,0,0,0-1.19-2.728,7.6,7.6,0,0,1-3.03-5.965,60.188,60.188,0,0,1,.009-6.131A8.167,8.167,0,0,1,13.827,26.8a8.327,8.327,0,0,1,9.282,2.06c.219.213.42.447.679.724.125-.173.228-.306.321-.447A7.442,7.442,0,0,1,28.1,26.086c2.182-.72,4.361-1.458,6.554-2.146.513-.161.639-.395.679-.916a2.813,2.813,0,0,0-1.224-2.791,7.327,7.327,0,0,1-2.945-5.6,44.645,44.645,0,0,1,.1-7.36,8.618,8.618,0,0,1,17.026.012,43.57,43.57,0,0,1,.016,7.816,7.56,7.56,0,0,1-3.391,5.6,1.405,1.405,0,0,0-.675,1.327c.035,1.675.01,1.678,1.572,2.192,1.644.542,3.281,1.107,4.937,1.609A8.083,8.083,0,0,1,55.789,29.7c.214-.286.349-.5.519-.687a8.64,8.64,0,0,1,9.31-2.292,8.485,8.485,0,0,1,5.706,7.685,53.211,53.211,0,0,1-.178,7.279,7.422,7.422,0,0,1-3.324,5.222,1.453,1.453,0,0,0-.7,1.393c.051,1.6.017,1.594,1.509,2.087,1.766.584,3.522,1.2,5.3,1.752a7.45,7.45,0,0,1,5.5,5.927c.014.069.08.126.122.188v3.263c-.353.573-.82.975-1.53.735s-.834-.84-.8-1.512c.022-.491.023-.984,0-1.474a4.685,4.685,0,0,0-2.867-4.437c-2.406-.983-4.914-1.715-7.412-2.567a4.542,4.542,0,0,1-8.485.016c-2.451.82-4.867,1.571-7.236,2.447a4.548,4.548,0,0,0-2.694,2.852c1.124.381,2.217.7,3.269,1.12a7.188,7.188,0,0,1,4.8,6.375c.06.607.009,1.225.009,1.86H70.644a22.781,22.781,0,0,1,.037-2.836,1.59,1.59,0,0,1,.8-1.066,1.354,1.354,0,0,1,1.146.326,1.651,1.651,0,0,1,.325,1.061c.045.839.014,1.682.014,2.527h4.222c.026-.672.174-1.224.865-1.444.706-.226,1.1.223,1.495.676v2.33a1.507,1.507,0,0,1-1.528.827c-2.329-.029-4.658-.011-6.988-.011-4.529,0-9.058.013-13.587-.015-.658,0-.867.2-.816.836a6.407,6.407,0,0,1-.05,1.469,1.027,1.027,0,0,1-1.088.913,1.06,1.06,0,0,1-1.137-.951,5.134,5.134,0,0,1-.043-.851c-.018-1.863.049-3.731-.069-5.588a4.467,4.467,0,0,0-2.9-4.078c-2.394-.942-4.868-1.681-7.334-2.516a4.522,4.522,0,0,1-8.46.026c-2.238.736-4.423,1.447-6.6,2.174a5.022,5.022,0,0,0-3.68,5c-.034,3.65-.01,7.3-.006,10.949a4.052,4.052,0,0,0,.052.464H29.5c.011-.207.023-.359.023-.512,0-2.045-.006-4.09.006-6.135a1.148,1.148,0,0,1,1.147-1.283,1.174,1.174,0,0,1,1.174,1.268c.018.465,0,.932,0,1.4,0,1.752,0,3.5,0,5.274H47.712c0-2.216-.006-4.385,0-6.554,0-.857.438-1.367,1.135-1.386.735-.019,1.186.5,1.19,1.4.007,1.915,0,3.831,0,5.746v.791h4.209c.051-.275.017-.579.151-.714.305-.305.679-.7,1.052-.733a1.384,1.384,0,0,1,1.035.619,3.317,3.317,0,0,1-.552,3.208Zm11.88-53.466c-2.431.823-4.9,1.578-7.3,2.5a4.752,4.752,0,0,0-2.891,4.246c.124,2.32.175,4.645.254,6.968.011.323,0,.646,0,.98h5.466a8.833,8.833,0,0,1,8.42-8.277,8.471,8.471,0,0,1,5.452,1.681,8.814,8.814,0,0,1,3.589,6.6h5.459a1.31,1.31,0,0,0,.071-.256q.116-3.91.222-7.821a2.8,2.8,0,0,0-.1-.765A5,5,0,0,0,50.75,28.3c-1.172-.4-2.356-.772-3.534-1.158-1.072-.351-2.141-.705-3.2-1.055a4.563,4.563,0,0,1-8.505-.012M33.354,11.186l.066,0c0,.906-.021,1.811,0,2.716a6.367,6.367,0,0,0,5.7,6.137,6.167,6.167,0,0,0,6.848-5.152A37.743,37.743,0,0,0,46.1,8.158,6.331,6.331,0,0,0,33.57,7.479a32.672,32.672,0,0,0-.216,3.707M46.212,43.722l-.07,0c0-.931.027-1.863,0-2.793a6.389,6.389,0,0,0-5.92-6.1,6.188,6.188,0,0,0-6.627,5.17,38.65,38.65,0,0,0-.13,6.733,6.335,6.335,0,0,0,12.531.7,32.661,32.661,0,0,0,.22-3.707m-35.79-6.293.121.006c0,.982-.051,1.968.009,2.947a6.33,6.33,0,0,0,12.626.076,55.871,55.871,0,0,0,0-6.047,6.316,6.316,0,0,0-12.433-1.062,28.564,28.564,0,0,0-.326,4.08m58.72.011-.119-.006c0-.982.05-1.968-.009-2.947a6.331,6.331,0,0,0-12.632-.075,55.352,55.352,0,0,0,0,5.97,6.316,6.316,0,0,0,12.447,1.062,28.368,28.368,0,0,0,.316-4M46.255,56.8c1.411-2.832,2.524-3.787,5.515-4.766,1.6-.522,3.188-1.049,4.784-1.566,1.693-.549,1.714-.546,1.671-2.344a1.368,1.368,0,0,0-.391-.968,9.437,9.437,0,0,1-3.026-3.569c-.085-.179-.3-.417-.461-.419-1.93-.029-3.861-.019-5.866-.019,0,.929-.01,1.776,0,2.624a8.752,8.752,0,0,1-3.83,7.636.938.938,0,0,0-.38.517c-.342,2.05-.126,2.355,1.984,2.875m-12.971.013c2.1-.546,2.11-.546,2.008-2.666a1.1,1.1,0,0,0-.391-.738,8.767,8.767,0,0,1-3.817-7.569c.008-.873,0-1.745,0-2.7-1.985,0-3.892-.015-5.8.022-.194,0-.411.3-.566.5a13.758,13.758,0,0,1-2.19,2.762A2.835,2.835,0,0,0,21.3,49.3a.765.765,0,0,0,.612.813c1.944.616,3.859,1.327,5.817,1.893a7.886,7.886,0,0,1,5.554,4.812m8.561-2.026H37.709a21.479,21.479,0,0,0,.022,2.648,2.08,2.08,0,0,0,4.091.038,21.443,21.443,0,0,0,.024-2.686M37.607,22.307a25.97,25.97,0,0,0,.16,2.79,2.075,2.075,0,0,0,4,.106,24.283,24.283,0,0,0,.194-2.9ZM18.979,48.527H14.767c0,.783-.033,1.583.008,2.379a2.1,2.1,0,0,0,4.2,0c.042-.8.008-1.6.008-2.381m41.626,0c0,.823-.067,1.726.018,2.615a2.1,2.1,0,0,0,4.137-.011c.086-.888.018-1.792.018-2.6Z" transform="translate(0 0)" fill="#fd9827"/>
      </g>
    </g>
    <rect id="Rect치ngulo_35226" data-name="Rect치ngulo 35226" width="97" height="97" transform="translate(909 5459)" fill="none"/>
  </g>
</svg>
