<svg xmlns="http://www.w3.org/2000/svg" xmlns:xlink="http://www.w3.org/1999/xlink" width="122" height="122" viewBox="0 0 122 122">
  <defs>
    <clipPath id="clip-path">
      <rect id="Rect치ngulo_35051" data-name="Rect치ngulo 35051" width="85.996" height="98.385" fill="#fd9827"/>
    </clipPath>
  </defs>
  <g id="Grupo_158221" data-name="Grupo 158221" transform="translate(8980 8993)">
    <g id="Grupo_158219" data-name="Grupo 158219">
      <rect id="Rect치ngulo_35251" data-name="Rect치ngulo 35251" width="122" height="122" transform="translate(-8980 -8993)" fill="none"/>
      <g id="Grupo_158218" data-name="Grupo 158218" transform="translate(-8961.893 -8981.021)">
        <g id="Grupo_158016" data-name="Grupo 158016" clip-path="url(#clip-path)">
          <path id="Trazado_151886" data-name="Trazado 151886" d="M3.225,98.385C.861,97.584,0,95.9,0,93.455Q.063,64.35.026,35.245c0-4.805,2.473-8.44,6.728-9.908.568-.2,1.161-.323,1.853-.512v-1c0-3.426-.009-6.852,0-10.278a4.62,4.62,0,0,1,4.88-4.88c1.212-.005,2.424,0,3.762,0,0-1.263,0-2.468,0-3.672A4.629,4.629,0,0,1,22.226.013Q42.783.008,63.338,0a2.541,2.541,0,0,1,1.952.81c3.766,3.8,7.571,7.553,11.31,11.376a2.963,2.963,0,0,1,.754,1.841c.075,3.265.035,6.531.035,9.8V24.89a10.32,10.32,0,0,1,4.981,2.26,10,10,0,0,1,3.6,7.95q.013,13.016,0,26.031a3.8,3.8,0,0,1-.014.479,1.44,1.44,0,0,1-1.523,1.4A1.371,1.371,0,0,1,83.1,61.533c-.016-2.113-.01-4.226-.01-6.339q0-8.213,0-16.426v-1.2H2.906v1.044q0,27.52,0,55.041c0,1.58.268,1.848,1.829,1.848H81.292c1.511,0,1.8-.28,1.8-1.788q0-12.247,0-24.494a9.556,9.556,0,0,1,.027-1.055,1.406,1.406,0,0,1,2.776-.157,5.455,5.455,0,0,1,.075,1.144c0,8.1-.036,16.2.027,24.3.019,2.45-.865,4.127-3.226,4.931ZM65.8,34.578V23.62c-2.459,0-4.857.017-7.253,0a4.639,4.639,0,0,1-4.758-4.729c-.021-1.056,0-2.113,0-3.17v-4.17H13.817c-1.783,0-2.328.555-2.328,2.37q0,9.845,0,19.69c0,.311.027.621.043.971Zm8.646.042V14.974c-2.4,0-4.728.013-7.059,0a4.676,4.676,0,0,1-4.956-4.926c-.005-.544,0-1.088,0-1.633V2.894H22.386a4.558,4.558,0,0,0-.671.016,1.627,1.627,0,0,0-1.55,1.565c-.072,1.363-.019,2.733-.019,4.19h1.212q16.661,0,33.321-.013a2.538,2.538,0,0,1,1.954.8q5.646,5.692,11.34,11.339a2.523,2.523,0,0,1,.783,1.963c-.028,3.585-.013,7.17-.013,10.755v1.07c.321.016.539.037.757.038,1.627,0,3.256,0,4.943,0M8.581,27.9c-3.171.375-5.985,3.817-5.52,6.647h5.52Zm74.4,6.668a6.753,6.753,0,0,0-5.55-6.627v6.627ZM65.33,5.278c0,1.691-.049,3.464.02,5.233a1.508,1.508,0,0,0,1.469,1.519c1.8.079,3.6.025,5.288.025L65.33,5.278M63.374,20.726,56.663,14v.7c0,1.435-.031,2.872.02,4.306a1.646,1.646,0,0,0,1.62,1.7c1.743.057,3.489.016,5.071.016" transform="translate(0 0)" fill="#fd9827"/>
          <path id="Trazado_151887" data-name="Trazado 151887" d="M58.524,83.307v1.131c0,7.395.016,14.789-.02,22.184-.005.927.258,1.17,1.176,1.167,9.571-.033,19.143-.02,28.714-.02h1.044c.025-.416.062-.756.062-1.1,0-7.426-.015-14.853.025-22.279.005-.924-.3-1.114-1.147-1.1-3.424.042-6.85.02-10.275.013-.382,0-.872.082-1.12-.115a2.65,2.65,0,0,1-1.005-1.333,1.194,1.194,0,0,1,1.069-1.362A4.416,4.416,0,0,1,78,80.428q5.377-.007,10.756,0c2.474.005,3.626,1.17,3.627,3.665q0,11.428,0,22.855c0,2.54-1.166,3.7-3.7,3.7q-14.693,0-29.385,0c-2.486,0-3.654-1.153-3.657-3.636q-.009-11.475,0-22.952c0-2.481,1.158-3.631,3.642-3.636q5.329-.009,10.659,0a5.438,5.438,0,0,1,.957.052,1.4,1.4,0,0,1,.022,2.76,5.233,5.233,0,0,1-1.05.065q-5.042.007-10.083,0H58.524" transform="translate(-14.084 -20.358)" fill="#fd9827"/>
          <path id="Trazado_151888" data-name="Trazado 151888" d="M76.31,90.926q-4.749,0-9.5,0a6.37,6.37,0,0,1-.862-.025,1.415,1.415,0,0,1-.2-2.768,3.877,3.877,0,0,1,1.043-.084q9.5-.007,19,0a6.1,6.1,0,0,1,.767.016,1.441,1.441,0,0,1,1.35,1.474A1.373,1.373,0,0,1,86.48,90.91c-1.15.037-2.3.016-3.453.016H76.31" transform="translate(-16.381 -22.287)" fill="#fd9827"/>
          <path id="Trazado_151889" data-name="Trazado 151889" d="M76.332,98.055c-3.23,0-6.461.013-9.691-.014A2.058,2.058,0,0,1,65.31,97.7a1.788,1.788,0,0,1-.489-1.4c.1-.42.643-.772,1.052-1.071.171-.125.5-.046.753-.046H86.009c.128,0,.256,0,.384,0a1.437,1.437,0,1,1,.015,2.868c-1.887.03-3.774.01-5.661.011H76.332" transform="translate(-16.404 -24.086)" fill="#fd9827"/>
          <path id="Trazado_151890" data-name="Trazado 151890" d="M76.219,105.141q-4.653,0-9.305,0c-.288,0-.577.009-.862-.018a1.327,1.327,0,0,1-1.341-1.35,1.358,1.358,0,0,1,1.314-1.477,6.357,6.357,0,0,1,.861-.035q9.4,0,18.8,0c1.539,0,2.244.476,2.22,1.484-.022.97-.688,1.4-2.192,1.4q-4.748,0-9.5,0" transform="translate(-16.38 -25.886)" fill="#fd9827"/>
          <path id="Trazado_151891" data-name="Trazado 151891" d="M76.277,112.251c-3.294,0-6.589.005-9.883,0-1.075,0-1.676-.521-1.69-1.4s.6-1.46,1.639-1.468c2.207-.017,4.414-.005,6.621-.005,4.35,0,8.7-.019,13.05.024a2.252,2.252,0,0,1,1.521.559,1.572,1.572,0,0,1,.177,1.462,1.891,1.891,0,0,1-1.361.8c-1.947.09-3.9.039-5.852.039H76.277" transform="translate(-16.379 -27.685)" fill="#fd9827"/>
          <path id="Trazado_151892" data-name="Trazado 151892" d="M43.5,38.518H62.23c.288,0,.577-.007.865,0,1.031.039,1.681.615,1.659,1.46-.022.813-.647,1.36-1.627,1.414-.223.013-.448,0-.672,0q-18.965,0-37.931,0a5.162,5.162,0,0,1-1.236-.1,1.405,1.405,0,0,1,.151-2.736,6.782,6.782,0,0,1,1.054-.043q9.507,0,19.014,0" transform="translate(-5.637 -9.75)" fill="#fd9827"/>
          <path id="Trazado_151893" data-name="Trazado 151893" d="M40.468,31.4q7.925,0,15.851,0a4.585,4.585,0,0,1,.957.034,1.428,1.428,0,0,1,.062,2.8,3.724,3.724,0,0,1-.955.049q-16.044,0-32.087,0a3.885,3.885,0,0,1-.861-.035,1.43,1.43,0,0,1,.031-2.818,4.306,4.306,0,0,1,.863-.027H40.468" transform="translate(-5.636 -7.947)" fill="#fd9827"/>
        </g>
      </g>
    </g>
  </g>
</svg>
