<svg xmlns="http://www.w3.org/2000/svg" xmlns:xlink="http://www.w3.org/1999/xlink" width="120" height="120" viewBox="0 0 120 120">
  <defs>
    <clipPath id="clip-path">
      <rect id="Rect치ngulo_35581" data-name="Rect치ngulo 35581" width="104.693" height="104.543" fill="#fd9827"/>
    </clipPath>
  </defs>
  <g id="Grupo_159285" data-name="Grupo 159285" transform="translate(6178 5196)">
    <g id="Grupo_159270" data-name="Grupo 159270" transform="translate(-3 0.571)">
      <g id="Grupo_159265" data-name="Grupo 159265" transform="translate(-6167 -5188.57)">
        <g id="Grupo_158728" data-name="Grupo 158728" clip-path="url(#clip-path)">
          <path id="Trazado_153900" data-name="Trazado 153900" d="M133.811,0a1,1,0,0,1,.891.752c.146.461.277.927.424,1.387a3.632,3.632,0,0,0,2.515,2.551c.563.168,1.067.4,1.094,1.075s-.455.963-1.022,1.127A3.9,3.9,0,0,0,135,9.786c-.079.265-.149.533-.22.8-.152.584-.432,1.038-1.122,1.01-.625-.025-.905-.421-1-1a4.4,4.4,0,0,0-3.228-3.807.965.965,0,0,1-.738-1.008.954.954,0,0,1,.771-.985c1.9-.482,2.728-1.864,3.128-3.632.136-.6.354-1.148,1.222-1.167" transform="translate(-34.042)" fill="#fd9827"/>
          <path id="Trazado_153901" data-name="Trazado 153901" d="M134.882,5.644l1.434,1.635c-.01.041-.005.116-.04.152-.473.476-.952.946-1.43,1.417a6.913,6.913,0,0,0-1.611-1.574,10.757,10.757,0,0,0,.938-.748,9.69,9.69,0,0,0,.709-.882" transform="translate(-35.245 -1.493)" fill="#fd9827"/>
          <path id="Trazado_153902" data-name="Trazado 153902" d="M118.773,95.332c-.727-.042-1-.238-.9-.953a2.844,2.844,0,0,0,0-.729,6.285,6.285,0,0,1,1.909-5.444,8.323,8.323,0,0,0-1.311-12.385c-.887-.666-1.81-1.286-2.736-1.9s-1.552-.39-1.895.653a4.14,4.14,0,0,1-4.328,3.173c-2.676.008-5.353,0-8.03,0-2.364,0-4.728,0-7.091,0-5.206.012-8.412,3.237-8.422,8.47-.005,2.712-.021,5.423.013,8.134.009.672-.1.939-.872.981a5.3,5.3,0,0,0,.179,10.579c.9.016,1.2.314,1.439,1.131a15.915,15.915,0,0,0,30.409.007c.241-.833.527-1.119,1.424-1.137a5.3,5.3,0,0,0,.207-10.582m-33.442,8.536a3.314,3.314,0,0,1-3.005-3.049,3.279,3.279,0,0,1,2.7-3.416c.688-.106,1.028.039.958.836s-.015,1.591-.015,2.387h.044c0,.83-.05,1.665.017,2.49.049.591-.08.8-.7.752m27.66,6.844a13.9,13.9,0,0,1-24.949-8.184c-.137-2.519.185-4.745,1.975-6.707a36.55,36.55,0,0,0,3.093-4.31A1.242,1.242,0,0,1,94.3,90.9c2.57.027,5.142.013,7.712.013,2.5,0,5,.017,7.5-.013a1.346,1.346,0,0,1,1.28.649c1.5,2.171,3.041,4.31,4.565,6.462a1.577,1.577,0,0,1,.422.82c.182,4.221-.039,8.326-2.8,11.879M88.019,91.66c-.024-.606.215-.788.787-.755.647.038,1.3.009,2.183.009l-2.74,3.866-.218-.117c0-1,.029-2-.011-3m25.025-.544c.11-.1.154-.172.2-.175,2.533-.129,2.534-.129,2.533,2.4v1.219l-.253.075-2.481-3.518m3.593-2.508c-.314.324-.714.217-1.084.218q-6.619.01-13.24,0c-4.414,0-8.827-.021-13.24.019-.83.007-1.116-.232-1.05-1.055.076-.967-.019-1.941.107-2.912a5.587,5.587,0,0,1,5.581-5.025c5.248-.036,10.5-.018,15.743-.013a6.362,6.362,0,0,0,5.708-3.022c.157-.243.214-.575.683-.314,3.848,2.142,4.923,5.965,3.21,9.251a12.8,12.8,0,0,1-2.416,2.85m1.822,15.262c-.494.016-.663-.1-.63-.629.053-.863.014-1.732.014-2.6h.038c0-.832.045-1.667-.014-2.495-.049-.689.232-.824.845-.76a3.255,3.255,0,0,1-.254,6.482" transform="translate(-21.227 -19.464)" fill="#fd9827"/>
          <path id="Trazado_153903" data-name="Trazado 153903" d="M2.784,42.9c2.155.011,4.311.025,6.466-.011a1,1,0,0,1,1.122.76,13.745,13.745,0,0,0,25.555.009,1,1,0,0,1,1.115-.769c2.155.038,4.311.023,6.466.012,1.284-.007,1.508-.242,1.515-1.543.008-1.426.014-2.851,0-4.277a96.777,96.777,0,0,0-.129-10.007A21.8,21.8,0,0,0,20.584,7.732,22.166,22.166,0,0,0,1.97,24.251a1.264,1.264,0,0,0,.65,1.649c1.009.062,1.247-.625,1.461-1.421A19.925,19.925,0,0,1,27.471,10.062c8.1,1.674,15.038,9.538,15.374,17.628.171,4.1.049,8.2.091,12.3.007.673-.267.815-.865.8-1.425-.03-2.853-.063-4.275.01-.886.046-1.019-.286-.961-1.078.263-3.574.075-7.157.125-10.736.013-.947-.263-1.558-1.38-1.674-2.242-.233-4.471-.6-6.706-.9-4.368-.589-8.729-1.236-13.107-1.738-3.887-.446-6.44,1.909-6.419,5.821.017,3.161-.167,6.327.138,9.482.066.684-.193.827-.807.813-1.425-.033-2.852-.057-4.275.007-.834.038-1.072-.238-1.05-1.057.054-2.015.025-4.032.013-6.048-.005-.812-.122-1.569-1.2-1.569-.822.129-.912.733-.911,1.4,0,2.608-.007,5.215,0,7.822,0,1.278.261,1.537,1.528,1.544m8.682-12.93a3.146,3.146,0,0,1,3.721-3.239c4.546.545,9.08,1.189,13.619,1.793,1.753.233,3.5.507,5.262.689.651.068.793.329.781.919-.032,1.6-.011,3.195-.011,5.108a31.085,31.085,0,0,1-.283,5.81,11.673,11.673,0,0,1-11.8,9.181c-6.138-.4-10.761-4.767-11.22-10.68-.247-3.188-.112-6.388-.07-9.581" transform="translate(-0.331 -2.01)" fill="#fd9827"/>
          <path id="Trazado_153904" data-name="Trazado 153904" d="M70.627,31.508q3.568,1.813,7.153,3.591A3.663,3.663,0,0,1,79.6,36.576c.276.521.775.516,1.274.485.788-.5.8-1.117.314-1.859a5.311,5.311,0,0,0-2.212-1.836c-2.059-1.025-4.11-2.066-6.307-3.173,2.033-1.027,3.884-2.052,5.809-2.912a6.2,6.2,0,0,0,3.483-3.865,19.564,19.564,0,1,1,20.117,26.277A19.213,19.213,0,0,1,85.6,43.1c-.546-.6-1.068-1-1.875-.524-.535.636-.353,1.189.157,1.75,5.5,6.046,12.319,8.626,20.351,7.12,11.481-2.152,18.718-12.113,17.587-23.75a21.643,21.643,0,0,0-41.982-4.542,3.367,3.367,0,0,1-1.811,2.014c-2.5,1.205-4.96,2.473-7.434,3.722-.579.293-1.309.494-1.294,1.319s.759,1.009,1.331,1.3" transform="translate(-18.331 -2.26)" fill="#fd9827"/>
          <path id="Trazado_153905" data-name="Trazado 153905" d="M54.171,94.92c-2.5-1.264-5.009-2.53-7.527-3.767A3.24,3.24,0,0,1,44.923,89.2,21.629,21.629,0,0,0,3.055,99.29c.127.83.46,1.376,1.39,1.334a1.3,1.3,0,0,0,.7-1.567,20.128,20.128,0,0,1,.174-6.741c1.9-10.18,12.3-17.333,22.448-15.368,7.516,1.456,12.584,5.841,15.213,13.019A5.073,5.073,0,0,0,45.66,92.98c1.815.868,3.6,1.793,5.391,2.717.274.142.685.151.782.606-1.777.892-3.506,1.864-5.318,2.642a6.855,6.855,0,0,0-3.883,4.307A19.5,19.5,0,0,1,8.346,107.2c-.443-.633-.875-1.2-1.771-.825a1.159,1.159,0,0,0-.135,1.747c5.109,7.216,12.118,10.589,20.851,9.45,8.645-1.127,14.51-6.154,17.6-14.324a3.419,3.419,0,0,1,1.786-2.028c2.523-1.227,5.023-2.5,7.528-3.77.546-.276,1.2-.473,1.189-1.277s-.682-.974-1.225-1.248" transform="translate(-0.744 -19.735)" fill="#fd9827"/>
          <path id="Trazado_153906" data-name="Trazado 153906" d="M9.4,131.219c-2.053-.49-2.871-2.009-3.3-3.863-.132-.565-.4-.963-1.027-.978-.692-.018-.976.438-1.1,1.026-.4,1.842-1.241,3.3-3.233,3.793a.943.943,0,0,0-.724.917.9.9,0,0,0,.626.98,4.579,4.579,0,0,1,3.39,4.036.956.956,0,0,0,1.033.844.982.982,0,0,0,.986-.775c.055-.2.129-.395.178-.6a4.081,4.081,0,0,1,2.981-3.388.986.986,0,0,0,.851-1,.9.9,0,0,0-.65-1m-3.186,1.269c-.376.4-.741.818-1.154,1.276-.5-.544-1.3-1.036-1.371-1.612-.052-.447.819-1,1.342-1.577.425.457.872.936,1.317,1.418.218.236,0,.347-.135.495" transform="translate(0 -33.431)" fill="#fd9827"/>
          <path id="Trazado_153907" data-name="Trazado 153907" d="M57.261,65.1c-.555.163-1.069.369-1.116,1.054-.052.76.511,1.011,1.077,1.2a3.908,3.908,0,0,1,2.74,3.11c.035.169.105.332.136.5.115.6.391,1.047,1.078,1.044.627,0,.922-.385,1.041-.958.049-.237.129-.467.2-.7A4,4,0,0,1,65.218,67.3c.532-.149.961-.413.967-1.056,0-.7-.474-.952-1.036-1.115a3.666,3.666,0,0,1-2.577-2.618q-.2-.643-.392-1.289a1.061,1.061,0,0,0-.977-.8c-.721.033-.979.492-1.136,1.131-.39,1.6-1.032,3.036-2.807,3.557m3.785-.414c.232-.113.285.006.319.09.26.623,1.245.947,1.084,1.57-.133.518-.853.919-1.259,1.577a8.511,8.511,0,0,0-1.542-1.672,8.242,8.242,0,0,0,1.4-1.564" transform="translate(-14.851 -15.982)" fill="#fd9827"/>
          <path id="Trazado_153908" data-name="Trazado 153908" d="M78.7,81.466c.418-1.7,1.214-3.085,3.09-3.55A1.054,1.054,0,0,0,82.6,76.7c-.054-.469-.462-.733-1-.883a3.908,3.908,0,0,1-2.723-2.886c-.1-.33-.165-.673-.271-1a1.029,1.029,0,0,0-1.052-.835,1.016,1.016,0,0,0-1,.885c-.065.269-.142.535-.218.8a3.99,3.99,0,0,1-2.815,3.054c-.543.152-.949.418-.953,1.06s.417.91.942,1.08a4.152,4.152,0,0,1,2.946,3.437c.121.641.31,1.28,1.1,1.294s.991-.584,1.152-1.239m-1.142-3.1A5.032,5.032,0,0,1,76.228,77.1c-.215-.227,0-.351.143-.5.4-.421.788-.854,1.229-1.335a6.654,6.654,0,0,0,.849,1.012c.556.443.626.8,0,1.221-.364.244-.569,1.014-.891.872" transform="translate(-19.194 -18.806)" fill="#fd9827"/>
          <path id="Trazado_153909" data-name="Trazado 153909" d="M2.208,37.337c.662-.082,1.225-.282,1.285-1.08s-.385-1.13-1.094-1.241A1.078,1.078,0,0,0,1.325,36.03a1.2,1.2,0,0,0,.883,1.307" transform="translate(-0.348 -9.263)" fill="#fd9827"/>
          <path id="Trazado_153910" data-name="Trazado 153910" d="M6.225,114.594c.341-.372.735-.718.506-1.316a1.164,1.164,0,0,0-1.3-.727,1.122,1.122,0,0,0-.606,1.466c.255.633.83.638,1.4.577" transform="translate(-1.251 -29.773)" fill="#fd9827"/>
          <path id="Trazado_153911" data-name="Trazado 153911" d="M85.812,49.888a1.054,1.054,0,0,0-.371,1.422,1.038,1.038,0,0,0,1.3.488c.449-.353.827-.741.531-1.376a1.046,1.046,0,0,0-1.463-.535" transform="translate(-22.564 -13.17)" fill="#fd9827"/>
          <path id="Trazado_153912" data-name="Trazado 153912" d="M107.678,30.006c-.7.05-1.14-.983-1.767-1.467a5.341,5.341,0,0,0-3.363-1.2A5.239,5.239,0,0,0,97.6,30.521a5.034,5.034,0,0,0,.951,5.8c2.69,2.81,5.483,5.52,8.228,8.278a1.071,1.071,0,0,0,1.719.041c2.8-2.8,5.673-5.533,8.364-8.435a5.306,5.306,0,0,0-2.5-8.639,5.185,5.185,0,0,0-4.987,1.011c-.587.478-1.1,1.388-1.694,1.43m2.771.406a3.3,3.3,0,1,1,4.611,4.709c-2.265,2.3-4.571,4.565-6.842,6.861-.378.382-.617.521-1.072.057-2.309-2.357-4.665-4.667-6.983-7.016a3.134,3.134,0,0,1-.658-3.653,3.071,3.071,0,0,1,2.945-1.936,3.178,3.178,0,0,1,2.437,1c.624.6,1.241,1.214,1.844,1.84a1.13,1.13,0,0,0,1.872-.02c.6-.627,1.21-1.247,1.845-1.838" transform="translate(-25.682 -7.226)" fill="#fd9827"/>
          <path id="Trazado_153913" data-name="Trazado 153913" d="M121.874,43.128a15.582,15.582,0,0,1-4.822,2.82c-.574.214-.954.649-.727,1.288a.981.981,0,0,0,1.415.638c.162-.062.332-.1.493-.165a16.689,16.689,0,0,0,10.819-14.984c-.121-5.847-2.084-10.119-5.918-13.469a16.986,16.986,0,0,0-7.251-3.715c-.727-.177-1.37-.111-1.541.744-.154.779.371,1.119,1.05,1.282.2.048.4.114.6.171a14.675,14.675,0,0,1,6.284,3.539,14.368,14.368,0,0,1,4.5,12.926,14.151,14.151,0,0,1-4.9,8.926" transform="translate(-30.24 -4.09)" fill="#fd9827"/>
          <path id="Trazado_153914" data-name="Trazado 153914" d="M111.679,58.018c-.8-.089-1.61-.017-1.59,1.044.014.8.641,1.042,1.388,1.027.767-.015,1.554-.1,1.608-1.04.05-.877-.564-1.175-1.405-1.032" transform="translate(-29.122 -15.338)" fill="#fd9827"/>
          <path id="Trazado_153915" data-name="Trazado 153915" d="M23.963,92.565a5.082,5.082,0,0,0-5.248,5.37c-.009,2.083-.031,4.167.008,6.249a4.978,4.978,0,0,0,4.963,4.994c4.131.052,8.264.012,12.395.022.668,0,1.2-.193,1.3-.9s-.313-1.094-.988-1.221c-4.2.01-8.4.04-12.6.021a2.923,2.923,0,0,1-2.865-2.149c-.168-.57-.041-.737.546-.721,1.18.031,2.361,0,3.542.01a.977.977,0,0,0,1.125-.963,1,1,0,0,0-1.1-1.112c-.833-.027-1.667-.01-2.5-.01-1.806,0-1.773,0-1.761-1.83,0-.63.234-.744.786-.722,1.006.038,2.014-.01,3.021.017.8.021,1.56-.089,1.547-1.075-.012-.909-.726-1.05-1.5-1.025-.8.026-1.6.032-2.4,0-.463-.021-1.166.255-1.336-.155-.218-.527.2-1.124.574-1.589a2.571,2.571,0,0,1,1.756-1.016c.688-.069,1.384-.074,2.076-.1A1.951,1.951,0,0,0,27.441,92.5c.019-.729.018-1.458,0-2.187s.046-1.489.974-1.542,1.054.681,1.12,1.425a4.819,4.819,0,0,0,4.683,4.441c.727.029,1.455.038,2.184.057.662-.139,1.094-.51.988-1.222-.118-.785-.735-.9-1.411-.919-3.61-.108-3.609-.113-4.522-3.555A3.05,3.05,0,0,0,28.2,86.676a3.133,3.133,0,0,0-2.82,2.866c-.04.518-.021,1.041-.021,1.561,0,1.421,0,1.421-1.4,1.461" transform="translate(-4.947 -22.925)" fill="#fd9827"/>
          <path id="Trazado_153916" data-name="Trazado 153916" d="M15.107,86.8a16.252,16.252,0,0,0-5.465,14.883A16.6,16.6,0,0,0,26.1,116.024c.418,0,.836.024,1.251,0a16.062,16.062,0,0,0,4.749-1.035c.617-.24,1.044-.676.744-1.362a.994.994,0,0,0-1.447-.588,5.367,5.367,0,0,1-.591.2,14.351,14.351,0,0,1-8.59.16A14.629,14.629,0,0,1,14.05,91.147a21.581,21.581,0,0,1,2.528-2.895.96.96,0,0,0-.033-1.474c-.488-.513-.936-.438-1.438.021" transform="translate(-2.503 -22.862)" fill="#fd9827"/>
          <path id="Trazado_153917" data-name="Trazado 153917" d="M44.5,121.573c.729.046,2.078-1.213,2.055-1.889a.881.881,0,0,0-.863-.957c-.841.005-2.181,1.18-2.145,1.82a.977.977,0,0,0,.952,1.027" transform="translate(-11.518 -31.407)" fill="#fd9827"/>
          <path id="Trazado_153918" data-name="Trazado 153918" d="M38.055,18.212a16.061,16.061,0,0,1,3.567,2.843.973.973,0,0,0,1.542.114c.527-.514.423-1.034-.052-1.55A17.088,17.088,0,0,0,30.935,14.1c-.682.008-1.292.251-1.33,1s.469,1.033,1.222,1.081a16.108,16.108,0,0,1,7.227,2.031" transform="translate(-7.831 -3.729)" fill="#fd9827"/>
          <path id="Trazado_153919" data-name="Trazado 153919" d="M51.1,29.629a1.1,1.1,0,0,0,.651-1.169,8.221,8.221,0,0,0-.855-1.906.95.95,0,0,0-1.308-.506.922.922,0,0,0-.531,1.214,10.936,10.936,0,0,0,.877,1.98.855.855,0,0,0,1.166.388" transform="translate(-12.961 -6.865)" fill="#fd9827"/>
          <path id="Trazado_153920" data-name="Trazado 153920" d="M6.352,132.085c-.524.577-1.394,1.13-1.343,1.577.067.577.871,1.069,1.372,1.612.413-.458.777-.872,1.154-1.276.138-.148.352-.259.135-.495-.446-.482-.893-.961-1.317-1.418" transform="translate(-1.325 -34.941)" fill="#fd9827"/>
          <path id="Trazado_153921" data-name="Trazado 153921" d="M62.451,69.448c.406-.659,1.127-1.059,1.26-1.578.16-.623-.824-.947-1.084-1.569-.035-.084-.087-.2-.32-.09a8.267,8.267,0,0,1-1.4,1.564,8.468,8.468,0,0,1,1.542,1.672" transform="translate(-16.112 -17.503)" fill="#fd9827"/>
          <path id="Trazado_153922" data-name="Trazado 153922" d="M79.736,79c.627-.42.556-.778,0-1.221a6.74,6.74,0,0,1-.849-1.012c-.441.481-.829.913-1.228,1.335-.141.149-.358.274-.143.5a5.032,5.032,0,0,0,1.329,1.269c.322.143.527-.627.891-.872" transform="translate(-20.481 -20.306)" fill="#fd9827"/>
          <path id="Trazado_153923" data-name="Trazado 153923" d="M112.663,117.916c-.721-.381-1.233-.033-1.575.68a3.59,3.59,0,0,1-6.577-.018c-.316-.673-.808-1.012-1.492-.7-.784.357-.7,1.026-.366,1.681a5.666,5.666,0,0,0,10.305-.013c.309-.613.4-1.26-.3-1.63" transform="translate(-27.091 -31.151)" fill="#fd9827"/>
          <path id="Trazado_153924" data-name="Trazado 153924" d="M108.338,110.915a.98.98,0,0,0,1.052,1.04.958.958,0,0,0,1-.984c.035-1.383.04-2.768,0-4.15a.908.908,0,0,0-1.048-.909.918.918,0,0,0-1,.957c-.029.655-.007,1.314-.008,1.971,0,.691-.021,1.384,0,2.075" transform="translate(-28.655 -28.017)" fill="#fd9827"/>
          <path id="Trazado_153925" data-name="Trazado 153925" d="M99.9,104.714c-.915.028-1.045.741-.988,1.5-.063.786.151,1.445,1.062,1.415s1.033-.738,1.028-1.492c0-.773-.2-1.448-1.1-1.421" transform="translate(-26.162 -27.7)" fill="#fd9827"/>
          <path id="Trazado_153926" data-name="Trazado 153926" d="M118.848,104.716c-.9-.043-1.123.61-1.12,1.4,0,1.02.386,1.6,1.105,1.528.832-.086,1.061-.658.981-1.4.065-.759-.054-1.477-.966-1.521" transform="translate(-31.143 -27.7)" fill="#fd9827"/>
          <path id="Trazado_153927" data-name="Trazado 153927" d="M28.564,58.8a5.886,5.886,0,0,0,5.712-3.339c.274-.638.352-1.249-.373-1.6-.7-.344-1.186-.007-1.5.656a3.6,3.6,0,0,1-6.616.038c-.305-.649-.766-1.038-1.48-.7-.788.369-.7,1.022-.373,1.679A5.422,5.422,0,0,0,28.564,58.8" transform="translate(-6.269 -14.211)" fill="#fd9827"/>
          <path id="Trazado_153928" data-name="Trazado 153928" d="M30.645,47.911a.968.968,0,0,0,1.023-1.061c.024-.622.005-1.246.005-1.869,0-.692.015-1.385,0-2.076a.951.951,0,0,0-1.022-1.052.918.918,0,0,0-1.019.948c-.04,1.382-.042,2.768,0,4.15a.931.931,0,0,0,1.016.96" transform="translate(-7.829 -11.072)" fill="#fd9827"/>
          <path id="Trazado_153929" data-name="Trazado 153929" d="M40.107,43.586c.889,0,1.081-.683,1.072-1.455-.009-.749-.1-1.44-1.055-1.449s-1.075.677-1.033,1.491c-.068.716.113,1.409,1.016,1.414" transform="translate(-10.337 -10.762)" fill="#fd9827"/>
          <path id="Trazado_153930" data-name="Trazado 153930" d="M21.148,43.584c.894.028,1.123-.642,1.069-1.43.034-.74-.032-1.45-1-1.473-.947-.023-1.085.636-1.1,1.405s.136,1.47,1.026,1.5" transform="translate(-5.323 -10.761)" fill="#fd9827"/>
        </g>
      </g>
    </g>
    <rect id="Rect치ngulo_35816" data-name="Rect치ngulo 35816" width="120" height="120" transform="translate(-6178 -5196)" fill="none"/>
  </g>
</svg>
