<svg xmlns="http://www.w3.org/2000/svg" xmlns:xlink="http://www.w3.org/1999/xlink" width="120" height="120" viewBox="0 0 120 120">
  <defs>
    <clipPath id="clip-path">
      <rect id="Rect치ngulo_35582" data-name="Rect치ngulo 35582" width="80.015" height="96.344" fill="#fd9827"/>
    </clipPath>
  </defs>
  <g id="Grupo_159286" data-name="Grupo 159286" transform="translate(6023 5196)">
    <g id="Grupo_159271" data-name="Grupo 159271" transform="translate(-163 -3.628)">
      <g id="Grupo_159267" data-name="Grupo 159267" transform="translate(-5840 -5180.372)">
        <g id="Grupo_158729" data-name="Grupo 158729" clip-path="url(#clip-path)">
          <path id="Trazado_153931" data-name="Trazado 153931" d="M80,7.917A7.515,7.515,0,0,0,72.9.017a7.639,7.639,0,0,0-.812,0H22.137a7.493,7.493,0,0,0-7.986,8q-.015,7.473,0,14.956a5.85,5.85,0,0,0,.038.845,1.286,1.286,0,0,0,1.272,1.161,1.272,1.272,0,0,0,1.4-1,4.522,4.522,0,0,0,.1-1.113q.009-7.385,0-14.768a4.726,4.726,0,0,1,5.295-5.256H71.832A4.783,4.783,0,0,1,77.166,8.18v69.7a4.781,4.781,0,0,1-5.3,5.287H25.521a.373.373,0,0,1-.027-.049,18.522,18.522,0,0,0,1.865-8.235c-.019-.851.189-1.076,1.057-1.075q21.783.045,43.551.021c3.011,0,3.011,0,3.011-3.04V57.525c0-1.1-.517-1.749-1.376-1.774-.887-.024-1.43.663-1.448,1.808v.752c0,3.975,0,7.965.008,11.946,0,.507-.027.768-.679.767q-21.871-.034-43.74-.01c-.464,0-.695-.068-.809-.614a27.307,27.307,0,0,0-4-9.54,1.237,1.237,0,0,1-.2-1.051c.592-2.528,1.192-5.053,1.727-7.592a38.869,38.869,0,0,0,1.087-6,6.678,6.678,0,0,0-2.862-6.449,1.313,1.313,0,0,1-.744-1.289q.023-12.792-.011-25.585c0-.875.238-1.055,1.073-1.052q24.08.038,48.161,0c.781,0,1.035.122,1.032.989q-.053,19.143-.022,38.283c0,1.175.521,1.8,1.452,1.78.894-.019,1.371-.615,1.371-1.749V10.79c0-1.272-.487-1.749-1.765-1.749h-52.3c-1.322,0-1.8.487-1.8,1.824V38.708a4.962,4.962,0,0,1,.033.55,2.958,2.958,0,0,1-.159.3.554.554,0,0,1-.117.073A4.585,4.585,0,0,0,17.145,41.2a.276.276,0,0,1-.159-.088V29.968a4.745,4.745,0,0,0-.07-1.027,1.383,1.383,0,0,0-2.727.132,7.486,7.486,0,0,0-.029.939q0,8.042.008,16.084a3.122,3.122,0,0,1-.37,1.522c-2.2,4.174-4.39,8.356-6.6,12.529A15.573,15.573,0,0,0,5.541,65.1a21.788,21.788,0,0,0,.711,7.632A19.4,19.4,0,0,1,4.3,86.275c-1.35,2.466-2.587,5-3.875,7.5-.653,1.272-.592,1.636.444,2.574H34.922a14.994,14.994,0,0,0,2.555-3.423A2.975,2.975,0,0,1,39.3,91.627a24.738,24.738,0,0,0,9.891-4.962,2.507,2.507,0,0,1,1.826-.687q10.535.037,21.071.013A7.523,7.523,0,0,0,80,78.885a7.742,7.742,0,0,0,0-.8Q80.019,43,80,7.917M33.613,93.352a9.244,9.244,0,0,1-3.883.159H3.881c-.118-.356.133-.564.251-.795.748-1.479,1.461-2.977,2.29-4.409A22.835,22.835,0,0,0,8.872,71.357,14.21,14.21,0,0,1,8.53,64.39a13.871,13.871,0,0,1,1.089-2.782l9.54-18.18c.116-.221.228-.445.36-.657a1.281,1.281,0,0,1,2.242-.14,5.405,5.405,0,0,1,.83,4.649c-.795,4.147-1.693,8.268-2.728,12.366a2.679,2.679,0,0,0,.437,2.363,23.126,23.126,0,0,1,4.26,12.046,16.5,16.5,0,0,1-4.176,11.731c-.181.216-.375.422-.553.636A1.412,1.412,0,1,0,21.744,88.5a1.479,1.479,0,0,0,.182-.2c.544-.6,1.05-1.245,1.542-1.89a.966.966,0,0,1,.859-.434q10.3.019,20.594.013a1.943,1.943,0,0,1,.318.093,28.42,28.42,0,0,1-7.747,3.093,2.516,2.516,0,0,0-1.645,1.113c-.7,1.086-1.23,2.549-2.234,3.069" transform="translate(0 0)" fill="#fd9827"/>
          <path id="Trazado_153932" data-name="Trazado 153932" d="M78.405,51.619q.027-10.812,0-21.624a3.2,3.2,0,0,0-3.147-3.206,13.049,13.049,0,0,0-1.59,0,5.115,5.115,0,0,1-2.849-.672c-3.958-2.035-7.96-2.544-11.925,0a.52.52,0,0,1-.663-.048,10.759,10.759,0,0,0-11.088-.3A9.808,9.808,0,0,1,42.4,26.805a3.264,3.264,0,0,0-3.657,3.657V51.241A3.32,3.32,0,0,0,41.683,54.9a3.369,3.369,0,0,0,.734,0H75.043a3.2,3.2,0,0,0,3.36-3.04c0-.079,0-.159,0-.239M47.631,28.6a9.408,9.408,0,0,1,7.688-.862c1.749.655,1.839.778,1.839,2.6V46.3a11.646,11.646,0,0,0-10.066.282c-.2-.234-.126-.459-.126-.665q0-8.09-.018-16.179a1.072,1.072,0,0,1,.681-1.143Zm9.54,23.1c-.093.606-.506.356-.776.356-4.075.018-8.15.011-12.226.011-.533,0-1.068-.038-1.6.009-.771.069-1.043-.211-1.034-1.008.037-3.417.016-6.838.016-10.251,0-3.386.024-6.772-.018-10.157-.01-.833.266-1.09,1.081-1.069,1.516.043,1.518,0,1.518,1.539v17.21c0,.725-.079,1.465.693,1.908.8.455,1.431.015,2.085-.361a10.289,10.289,0,0,1,7.247-1.6,7.508,7.508,0,0,1,1.256.369c1.709.66,2.024,1.261,1.752,3.046Zm3.671.386c-.7,0-.9-.159-.876-.87.049-1.792.077-1.9,1.779-2.571a8.785,8.785,0,0,1,7.009.477c.686.3,1.328.695,1.988,1.051a1.432,1.432,0,0,0,2.29-1.26c.033-2.412.022-4.825,0-7.239a1.45,1.45,0,0,0-1.265-1.614,1.472,1.472,0,0,0-.167-.011c-.823.02-1.372.658-1.383,1.683-.018,1.59,0,3.188,0,4.929a11.8,11.8,0,0,0-10.227-.335v-.943c0-5.265.018-10.531-.02-15.8a1.336,1.336,0,0,1,.785-1.321,8.106,8.106,0,0,1,6.978-.429c2.489.842,2.484.859,2.484,3.433v3.948c0,1.358.477,2,1.431,1.986s1.388-.628,1.391-2.029c0-1.63.022-3.259-.011-4.889-.011-.544.159-.69.693-.682,2.226.038,1.858-.176,1.862,1.839.013,6.488-.01,12.975.022,19.462,0,.873-.195,1.2-1.135,1.188-4.546-.049-9.087-.04-13.632-.006Z" transform="translate(-11.514 -7.249)" fill="#fd9827"/>
          <path id="Trazado_153933" data-name="Trazado 153933" d="M45.544,78.362c.25.015.5.019.752.01H73.742c.376,0,.754.019,1.128-.01a1.381,1.381,0,0,0,1.358-1.4,1.4,1.4,0,0,0-1.272-1.4,3.944,3.944,0,0,0-.657-.014H46.1a2.745,2.745,0,0,0-.747.039,1.342,1.342,0,0,0-1.1,1.522,1.3,1.3,0,0,0,1.288,1.251" transform="translate(-13.158 -22.466)" fill="#fd9827"/>
          <path id="Trazado_153934" data-name="Trazado 153934" d="M44.484,88.115a1.729,1.729,0,0,0,1.589.617q7.049-.009,14.1,0h14.19c1.171,0,1.843-.512,1.867-1.393s-.648-1.416-1.808-1.431h-28.1a5.736,5.736,0,0,0-.938.035,1.378,1.378,0,0,0-.894,2.172" transform="translate(-13.151 -25.548)" fill="#fd9827"/>
          <path id="Trazado_153935" data-name="Trazado 153935" d="M61.331,109.585a3.975,3.975,0,1,0,4.034-3.942,3.975,3.975,0,0,0-4.034,3.942m5.126-.01a1.166,1.166,0,0,1-1.13,1.2h-.044a1.13,1.13,0,0,1-1.114-1.145v-.008a1.079,1.079,0,0,1,1.02-1.136c.031,0,.062,0,.093,0a1.1,1.1,0,0,1,1.171,1.015c0,.025,0,.05,0,.074" transform="translate(-18.24 -31.419)" fill="#fd9827"/>
          <path id="Trazado_153936" data-name="Trazado 153936" d="M71.671,9.235a1.4,1.4,0,0,0,.041-2.8h-.084c-.906-.022-1.814,0-2.722,0-.97,0-1.94-.019-2.91,0A1.343,1.343,0,0,0,64.585,7.7c0,.016,0,.032,0,.048a1.364,1.364,0,0,0,1.245,1.473c.04,0,.079,0,.119,0,1.906.041,3.816.039,5.724,0" transform="translate(-19.206 -1.91)" fill="#fd9827"/>
          <path id="Trazado_153937" data-name="Trazado 153937" d="M60.546,7.874a1.412,1.412,0,1,0-2.821-.125c0,.027,0,.056,0,.084a1.413,1.413,0,0,0,2.825.041Z" transform="translate(-17.168 -1.903)" fill="#fd9827"/>
        </g>
      </g>
    </g>
    <rect id="Rect치ngulo_35817" data-name="Rect치ngulo 35817" width="120" height="120" transform="translate(-6023 -5196)" fill="none"/>
  </g>
</svg>
