<svg xmlns="http://www.w3.org/2000/svg" xmlns:xlink="http://www.w3.org/1999/xlink" width="97" height="97" viewBox="0 0 97 97">
  <defs>
    <clipPath id="clip-path">
      <rect id="Rectángulo_35223" data-name="Rectángulo 35223" width="81" height="80.919" fill="#fd9827"/>
    </clipPath>
  </defs>
  <g id="Grupo_158213" data-name="Grupo 158213" transform="translate(-594 -5459)">
    <g id="Grupo_158197" data-name="Grupo 158197" transform="translate(602 5467)">
      <g id="Grupo_158196" data-name="Grupo 158196" clip-path="url(#clip-path)">
        <path id="Trazado_153094" data-name="Trazado 153094" d="M54.889,61.5V58.987h7.818v2.495h2.624V58.975h7.8c.015.22.045.453.045.686,0,2.721.018,5.441-.014,8.162a2.366,2.366,0,0,1-.365,1.2c-1.437,2.211-2.926,4.388-4.36,6.6a1.647,1.647,0,0,0-.255,1.114q2.3,10.507,4.66,21c.022.1.054.2.081.307.557.088,1.1.133,1.619.265a5.163,5.163,0,0,1,3.839,4.741c.057,1.793.012,3.59.012,5.452H39.228v-1.809c0-1.142-.017-2.285.006-3.428a5.231,5.231,0,0,1,4.842-5.134c.188-.015.376-.027.635-.045q.764-3.411,1.527-6.817c1.066-4.8,2.14-9.6,3.172-14.4a1.858,1.858,0,0,0-.233-1.265c-1.41-2.2-2.889-4.346-4.309-6.535a2.52,2.52,0,0,1-.4-1.267c-.034-2.91-.018-5.82-.018-8.8h7.812v2.5ZM52.02,77.253c-1.551,6.987-3.084,13.892-4.625,20.835H70.242L65.611,77.253ZM75.8,105.925c0-.786,0-1.489,0-2.194-.005-2-1.013-3-3.021-3q-8.608,0-17.216,0-5.467,0-10.934,0a2.553,2.553,0,0,0-2.731,2.178,27.693,27.693,0,0,0-.022,3.014ZM48.221,69.41c1.082,1.625,2.1,3.125,3.082,4.651a1.083,1.083,0,0,0,1.053.557c3.89-.02,7.783-.09,11.669.03a2.847,2.847,0,0,0,3.032-1.641,42.478,42.478,0,0,1,2.358-3.6Zm9.284-5.31H49.659V61.593H47.122V66.7h23.4V61.6H67.917V64.11H60.1v-2.5H57.505Z" transform="translate(-18.343 -27.581)" fill="#fd9827"/>
        <path id="Trazado_153095" data-name="Trazado 153095" d="M23.52,11.588a11.681,11.681,0,0,1-5.029,9.76A3.249,3.249,0,0,0,16.95,24.36a12.676,12.676,0,0,1-.149,2.92,5.151,5.151,0,0,1-5.532,4.053A5.251,5.251,0,0,1,6.53,26.35c-.028-.761-.025-1.524-.006-2.285a2.9,2.9,0,0,0-1.374-2.606A11.435,11.435,0,0,1,0,11.3,11.742,11.742,0,0,1,23.345,9.971c.081.591.129,1.188.175,1.617m-9.161,11.9c.164-2.026,1.341-3.309,2.9-4.487a8.585,8.585,0,0,0,3.428-9.01,8.625,8.625,0,0,0-6.438-7A8.687,8.687,0,0,0,4.97,5.654,9.039,9.039,0,0,0,6.525,19.235a5.567,5.567,0,0,1,2.553,3.89,3.129,3.129,0,0,0,.081.327h1.278c0-2.563.014-5.064-.022-7.564a1.047,1.047,0,0,0-.507-.679,3.911,3.911,0,1,1,5.484-4.847,3.811,3.811,0,0,1-1.732,4.764,1.007,1.007,0,0,0-.622,1.06c.028,2.122.012,4.244.012,6.367v.932Zm-5.2,2.684a2.612,2.612,0,0,0,2.607,2.57,2.573,2.573,0,0,0,2.55-2.57Zm2.573-13.108a1.3,1.3,0,1,0-1.286-1.313,1.315,1.315,0,0,0,1.286,1.313" transform="translate(0 0)" fill="#fd9827"/>
        <path id="Trazado_153096" data-name="Trazado 153096" d="M115.525,21.824l-1.64.739c-1.577-1.578-3.157-3.147-4.713-4.74a.736.736,0,0,1-.079-.619,12.918,12.918,0,0,1,.562-1.279l-1.677-.644V8.256l1.6-.638c0-.092.022-.162,0-.2-.923-1.192-.335-1.978.623-2.806a37.975,37.975,0,0,0,3.06-3.052.972.972,0,0,1,1.441-.249,6.4,6.4,0,0,0,.837.389l.664-1.7c2.221,0,4.449-.009,6.676.018a.741.741,0,0,1,.492.391,11.17,11.17,0,0,1,.461,1.187c.1.016.167.051.2.03,1.176-.892,1.968-.356,2.814.6,1.133,1.28,2.406,2.435,3.658,3.683l-.691,1.6c.048.064.061.1.079.1,1.586.2,1.676,1.273,1.6,2.563a39.146,39.146,0,0,0,0,4.242c.032.7-.2,1.045-.862,1.184a5.381,5.381,0,0,0-.77.288.779.779,0,0,0,0,.249c.6,1.5.6,1.5-.565,2.662-1.23,1.232-2.457,2.466-3.729,3.743l-1.6-.683c-.075.059-.147.086-.152.122-.191,1.413-1.061,1.661-2.34,1.558a39.884,39.884,0,0,0-4.485-.012c-.617.02-.962-.134-1.084-.765a5.517,5.517,0,0,0-.372-.943m-3.506-15.4c.2.442.358.785.51,1.13a1.559,1.559,0,0,1-.824,2.06c-1.08.245-1.273.883-1.149,1.816a2.605,2.605,0,0,1,0,.813c-.178.946.22,1.419,1.135,1.651a1.518,1.518,0,0,1,.869,1.962,1.375,1.375,0,0,0,.456,2.156,2.062,2.062,0,0,1,.517.518,1.3,1.3,0,0,0,2.028.409,1.459,1.459,0,0,1,1.951.73c.253,1.2.989,1.376,2,1.243a2.223,2.223,0,0,1,.651,0,1.266,1.266,0,0,0,1.668-1.111c.15-.669,1.363-1.3,1.872-.937,1.09.773,1.753.256,2.408-.566a2.3,2.3,0,0,1,.462-.459A1.176,1.176,0,0,0,126.912,16a1.483,1.483,0,0,1,.679-2.036c1.244-.27,1.395-1.039,1.261-2.072a2.9,2.9,0,0,1,0-.814c.122-.769-.176-1.158-.94-1.378a1.578,1.578,0,0,1-.971-2.308l.462-1a16.128,16.128,0,0,1-1.545-1.441c-.587-.7-1.132-.925-1.972-.38a1.5,1.5,0,0,1-1.972-.682c-.264-1.3-1.1-1.385-2.138-1.281a5.4,5.4,0,0,1-1.14,0,.683.683,0,0,0-.858.621c-.141.726-.5,1.307-1.277,1.367a8.307,8.307,0,0,1-1.514-.232c-.278-.032-.66-.095-.831.05-.745.629-1.43,1.329-2.138,2" transform="translate(-50.498 -0.003)" fill="#fd9827"/>
        <path id="Trazado_153097" data-name="Trazado 153097" d="M121.022,68.8c0,1.794,0,3.555,0,5.316,0,1.279.02,2.558-.007,3.836a3.869,3.869,0,0,1-3.775,3.846c-2.992.044-5.984.012-8.977.009a1.279,1.279,0,0,1-.261-.063V79.2h.86q3.917,0,7.834,0c1.277,0,1.711-.436,1.712-1.716q.006-3.877,0-7.754V68.8Z" transform="translate(-50.51 -32.177)" fill="#fd9827"/>
        <path id="Trazado_153098" data-name="Trazado 153098" d="M19.606,83.491h2.612c0,.319,0,.608,0,.9.011,1.231.447,1.68,1.664,1.683q4.04.007,8.079,0H32.6v2.612H24.09c-2.979,0-4.506-1.55-4.484-4.546,0-.188,0-.376,0-.648" transform="translate(-9.169 -39.047)" fill="#fd9827"/>
        <rect id="Rectángulo_35219" data-name="Rectángulo 35219" width="2.497" height="2.54" transform="translate(67.964 26.184)" fill="#fd9827"/>
        <rect id="Rectángulo_35220" data-name="Rectángulo 35220" width="2.511" height="2.517" transform="translate(67.962 31.406)" fill="#fd9827"/>
        <rect id="Rectángulo_35221" data-name="Rectángulo 35221" width="2.511" height="2.514" transform="translate(10.501 34.02)" fill="#fd9827"/>
        <rect id="Rectángulo_35222" data-name="Rectángulo 35222" width="2.54" height="2.482" transform="translate(10.454 39.25)" fill="#fd9827"/>
        <path id="Trazado_153099" data-name="Trazado 153099" d="M64.717,107.244l2.541.568-.565,2.535-2.529-.562c.187-.862.357-1.643.552-2.541" transform="translate(-30.008 -50.155)" fill="#fd9827"/>
        <path id="Trazado_153100" data-name="Trazado 153100" d="M69.4,98.233l-.579,2.527-2.526-.555c.178-.827.346-1.6.546-2.526l2.559.554" transform="translate(-31.004 -45.682)" fill="#fd9827"/>
        <path id="Trazado_153101" data-name="Trazado 153101" d="M62.622,116.805l2.537.579c-.189.854-.371,1.677-.562,2.542l-2.521-.574c.184-.855.356-1.66.546-2.547" transform="translate(-29.031 -54.627)" fill="#fd9827"/>
        <path id="Trazado_153102" data-name="Trazado 153102" d="M130.8,16.361a6.527,6.527,0,1,1-6.539-6.536,6.546,6.546,0,0,1,6.539,6.536m-6.506-3.924a3.916,3.916,0,1,0,3.893,3.978,3.933,3.933,0,0,0-3.893-3.978" transform="translate(-55.066 -4.595)" fill="#fd9827"/>
      </g>
    </g>
    <rect id="Rectángulo_35225" data-name="Rectángulo 35225" width="97" height="97" transform="translate(594 5459)" fill="none"/>
  </g>
</svg>
