<svg xmlns="http://www.w3.org/2000/svg" xmlns:xlink="http://www.w3.org/1999/xlink" width="400" height="395.799" viewBox="0 0 400 395.799">
  <defs>
    <clipPath id="clip-path">
      <rect id="Rectángulo_35188" data-name="Rectángulo 35188" width="40.015" height="49.273" fill="none"/>
    </clipPath>
    <clipPath id="clip-path-2">
      <rect id="Rectángulo_35194" data-name="Rectángulo 35194" width="247.526" height="191.682" fill="none"/>
    </clipPath>
  </defs>
  <g id="Grupo_158217" data-name="Grupo 158217" transform="translate(9508 7135.229)">
    <path id="Trazado_151755" data-name="Trazado 151755" d="M239.091,34.069l-18.16,4.844a4.548,4.548,0,1,0,2.345,8.788l44.005-11.738a4.549,4.549,0,0,0,1.665-7.95L235.078.993a4.548,4.548,0,1,0-5.673,7.11l15.35,12.246A180.542,180.542,0,0,0,121.876,38.731c-.092.05-.183.1-.273.156l-.151.091a7.277,7.277,0,1,0,7.5,12.469l.015-.009a165.955,165.955,0,0,1,110.12-17.37" transform="translate(-9516.496 -7135.229)" fill="#fd9827"/>
    <path id="Trazado_151756" data-name="Trazado 151756" d="M30.92,208.356a158.364,158.364,0,0,1,2.552-28.368l5.354,20.695a4.548,4.548,0,0,0,8.806-2.277L36.226,154.313a4.548,4.548,0,0,0-7.936-1.725L1.015,186.252a4.548,4.548,0,1,0,7.066,5.726l10.858-13.4a173.067,173.067,0,0,0-2.572,29.779,187.686,187.686,0,0,0,23.19,89.449,7.276,7.276,0,1,0,12.778-6.964A173.118,173.118,0,0,1,30.92,208.356" transform="translate(-9505.832 -7148.875)" fill="#fd9827"/>
    <path id="Trazado_151757" data-name="Trazado 151757" d="M291.339,378.3c-27.807,13.713-55.755,20.666-83.065,20.666a156.589,156.589,0,0,1-27.325-2.4l20.38-5.664a4.547,4.547,0,1,0-2.435-8.763L162.12,392.359a7.27,7.27,0,0,0-3.508.975l-3.6,1a4.548,4.548,0,0,0-1.582,7.966l34.146,26.667a4.548,4.548,0,0,0,5.6-7.168l-13.727-10.721a171.136,171.136,0,0,0,28.826,2.44c29.609,0,59.771-7.482,89.645-22.238.129-.064.257-.131.382-.2a7.277,7.277,0,0,0-6.962-12.779m3.446,6.515-.045-.083Z" transform="translate(-9519.549 -7169.361)" fill="#fd9827"/>
    <path id="Trazado_151758" data-name="Trazado 151758" d="M428.106,228.661a4.551,4.551,0,0,0-6.4.663L409.6,244.235a180.6,180.6,0,0,0-18.528-122.371l-.047-.086s-.038-.071-.041-.075a7.277,7.277,0,0,0-12.737,7.041l.071.128a165.966,165.966,0,0,1,17.439,110.289l-4.783-18.578a4.548,4.548,0,0,0-8.808,2.268l11.358,44.1a4.548,4.548,0,0,0,7.934,1.734l27.312-33.632a4.548,4.548,0,0,0-.663-6.4" transform="translate(-9539.955 -7145.895)" fill="#fd9827"/>
    <path id="Trazado_153127" data-name="Trazado 153127" d="M8,0H116a8,8,0,0,1,8,8V26a8,8,0,0,1-8,8H8a8,8,0,0,1-8-8V8A8,8,0,0,1,8,0Z" transform="translate(-9508 -7063.741)" fill="#31313c"/>
    <path id="Trazado_153128" data-name="Trazado 153128" d="M8,0H115a8,8,0,0,1,8,8V27a8,8,0,0,1-8,8H8a8,8,0,0,1-8-8V8A8,8,0,0,1,8,0Z" transform="translate(-9251 -7080.741)" fill="#31313c"/>
    <path id="Trazado_153129" data-name="Trazado 153129" d="M8,0H116a8,8,0,0,1,8,8V27a8,8,0,0,1-8,8H8a8,8,0,0,1-8-8V8A8,8,0,0,1,8,0Z" transform="translate(-9232 -6846.741)" fill="#31313c"/>
    <path id="Trazado_153130" data-name="Trazado 153130" d="M8,0H116a8,8,0,0,1,8,8V26a8,8,0,0,1-8,8H8a8,8,0,0,1-8-8V8A8,8,0,0,1,8,0Z" transform="translate(-9479 -6828.741)" fill="#31313c"/>
    <path id="Trazado_153131" data-name="Trazado 153131" d="M16.781,10.992V15H14.438V3.625h4.438a5.134,5.134,0,0,1,2.254.469,3.454,3.454,0,0,1,1.5,1.332,3.714,3.714,0,0,1,.523,1.965A3.266,3.266,0,0,1,22,10.027a4.767,4.767,0,0,1-3.168.965Zm0-1.9h2.094a2.059,2.059,0,0,0,1.418-.437,1.591,1.591,0,0,0,.488-1.25,1.876,1.876,0,0,0-.492-1.352,1.839,1.839,0,0,0-1.359-.531H16.781Zm12.891,5.047a2.831,2.831,0,0,1-2.312,1.016,2.67,2.67,0,0,1-2.074-.781,3.335,3.335,0,0,1-.73-2.289V6.547h2.258v5.467q0,1.322,1.2,1.322a1.63,1.63,0,0,0,1.578-.8V6.547h2.266V15H29.734ZM28.664,3h2.461L28.961,5.422H27.125ZM41.18,10.852a5.119,5.119,0,0,1-.867,3.168,2.872,2.872,0,0,1-2.422,1.137A2.639,2.639,0,0,1,35.7,14.1l-.1.9H33.563V3H35.82V7.3a2.571,2.571,0,0,1,2.055-.914A2.9,2.9,0,0,1,40.3,7.527a5.126,5.126,0,0,1,.879,3.2Zm-2.258-.172A3.381,3.381,0,0,0,38.516,8.8,1.372,1.372,0,0,0,37.3,8.211,1.489,1.489,0,0,0,35.82,9.1v3.346a1.509,1.509,0,0,0,1.5.893,1.4,1.4,0,0,0,1.438-1.081A5.6,5.6,0,0,0,38.922,10.679ZM44.953,15H42.688V3h2.266ZM49.2,15H46.93V6.547H49.2ZM46.8,4.359a1.112,1.112,0,0,1,.34-.836,1.465,1.465,0,0,1,1.848,0,1.105,1.105,0,0,1,.344.836,1.108,1.108,0,0,1-.348.844,1.448,1.448,0,0,1-1.836,0A1.108,1.108,0,0,1,46.8,4.359Zm7.773,8.977a1.481,1.481,0,0,0,1.016-.344,1.2,1.2,0,0,0,.406-.914h2.117a2.9,2.9,0,0,1-.469,1.574,3.093,3.093,0,0,1-1.262,1.109,3.949,3.949,0,0,1-1.77.395A3.67,3.67,0,0,1,51.75,14,4.56,4.56,0,0,1,50.7,10.82v-.148a4.508,4.508,0,0,1,1.039-3.117,3.627,3.627,0,0,1,2.852-1.164,3.555,3.555,0,0,1,2.543.9,3.2,3.2,0,0,1,.973,2.4H55.992a1.551,1.551,0,0,0-.406-1.072,1.51,1.51,0,0,0-2.223.163,3.333,3.333,0,0,0-.4,1.866v.235a3.375,3.375,0,0,0,.4,1.878A1.377,1.377,0,0,0,54.57,13.336ZM59.047,10.7a5.013,5.013,0,0,1,.484-2.242A3.546,3.546,0,0,1,60.926,6.93a4.069,4.069,0,0,1,2.113-.539,3.849,3.849,0,0,1,2.793,1.047,4.2,4.2,0,0,1,1.207,2.844l.016.578a4.418,4.418,0,0,1-1.086,3.121,4.209,4.209,0,0,1-5.832,0,4.5,4.5,0,0,1-1.09-3.187Zm2.258.16a3.16,3.16,0,0,0,.453,1.843,1.628,1.628,0,0,0,2.578.008,3.457,3.457,0,0,0,.461-2.015,3.128,3.128,0,0,0-.461-1.831,1.5,1.5,0,0,0-1.3-.649,1.474,1.474,0,0,0-1.281.646A3.516,3.516,0,0,0,61.3,10.856Z" transform="translate(-9486 -7056.741)" fill="#fff"/>
    <path id="Trazado_153132" data-name="Trazado 153132" d="M15.824,11.211A4.025,4.025,0,0,1,14.469,14.1a4.76,4.76,0,0,1-3.223,1.055A4.28,4.28,0,0,1,7.8,13.684,6.038,6.038,0,0,1,6.551,9.641v-.7a6.819,6.819,0,0,1,.578-2.891A4.332,4.332,0,0,1,8.781,4.137a4.629,4.629,0,0,1,2.5-.668,4.637,4.637,0,0,1,3.172,1.055A4.326,4.326,0,0,1,15.84,7.484H13.5a2.376,2.376,0,0,0-.613-1.6,2.271,2.271,0,0,0-1.605-.5,1.991,1.991,0,0,0-1.754.84,4.707,4.707,0,0,0-.6,2.605V9.7a5.038,5.038,0,0,0,.559,2.7,1.954,1.954,0,0,0,1.762.852,2.314,2.314,0,0,0,1.621-.5,2.241,2.241,0,0,0,.613-1.535Zm1.039-.516a5.013,5.013,0,0,1,.484-2.242A3.546,3.546,0,0,1,18.742,6.93a4.069,4.069,0,0,1,2.113-.539,3.849,3.849,0,0,1,2.793,1.047,4.2,4.2,0,0,1,1.207,2.844l.016.578a4.418,4.418,0,0,1-1.086,3.121,3.775,3.775,0,0,1-2.914,1.176,3.793,3.793,0,0,1-2.918-1.172,4.5,4.5,0,0,1-1.09-3.187Zm2.258.16a3.16,3.16,0,0,0,.453,1.843,1.628,1.628,0,0,0,2.578.008,3.457,3.457,0,0,0,.461-2.015,3.128,3.128,0,0,0-.461-1.831,1.5,1.5,0,0,0-1.3-.649,1.474,1.474,0,0,0-1.281.646A3.516,3.516,0,0,0,19.121,10.856ZM28.34,6.547l.07.977a2.951,2.951,0,0,1,2.43-1.133,2.453,2.453,0,0,1,2,.789,3.682,3.682,0,0,1,.672,2.359V15H31.254V9.581a1.47,1.47,0,0,0-.312-1.045A1.4,1.4,0,0,0,29.9,8.211a1.553,1.553,0,0,0-1.43.814V15H26.215V6.547ZM35.77,15V8.2H34.512V6.547H35.77V6.156A3.17,3.17,0,0,1,36.75,3.7a3.945,3.945,0,0,1,2.723-.863,9.031,9.031,0,0,1,2.563.461l-.328,1.867a10,10,0,0,0-1.187-.293,5.835,5.835,0,0,0-.906-.066q-1.578,0-1.578,1.4v.344H39.7V8.2H38.035V15Zm7.32,0H40.824V6.547H43.09Zm1.516-4.289a5.094,5.094,0,0,1,.887-3.148,2.877,2.877,0,0,1,2.426-1.172,2.589,2.589,0,0,1,2.039.922V3h2.266V15H50.184l-.109-.9A2.657,2.657,0,0,1,47.9,15.156a2.869,2.869,0,0,1-2.395-1.176A5.258,5.258,0,0,1,44.605,10.711Zm2.258.161a3.355,3.355,0,0,0,.414,1.829,1.348,1.348,0,0,0,1.2.636,1.51,1.51,0,0,0,1.477-.887V9.1A1.489,1.489,0,0,0,48.5,8.211Q46.863,8.211,46.863,10.872Zm11,4.285a4.15,4.15,0,0,1-3.027-1.141,4.054,4.054,0,0,1-1.168-3.039v-.219A5.106,5.106,0,0,1,54.16,8.48a3.612,3.612,0,0,1,1.395-1.547,3.914,3.914,0,0,1,2.059-.543,3.508,3.508,0,0,1,2.73,1.094,4.444,4.444,0,0,1,1,3.1v.922H55.957a2.1,2.1,0,0,0,.66,1.328,2,2,0,0,0,1.395.5,2.437,2.437,0,0,0,2.039-.945l1.109,1.242a3.389,3.389,0,0,1-1.375,1.121A4.511,4.511,0,0,1,57.863,15.156Zm-.258-6.945a1.411,1.411,0,0,0-1.09.455,2.357,2.357,0,0,0-.535,1.3h3.141V9.788a1.681,1.681,0,0,0-.406-1.165A1.456,1.456,0,0,0,57.605,8.211ZM64.7,6.547l.07.977A2.951,2.951,0,0,1,67.2,6.391a2.453,2.453,0,0,1,2,.789,3.682,3.682,0,0,1,.672,2.359V15H67.613V9.581A1.47,1.47,0,0,0,67.3,8.536a1.4,1.4,0,0,0-1.039-.325,1.553,1.553,0,0,0-1.43.814V15H62.574V6.547Zm10.4,6.789a1.481,1.481,0,0,0,1.016-.344,1.2,1.2,0,0,0,.406-.914h2.117a2.9,2.9,0,0,1-.469,1.574,3.093,3.093,0,0,1-1.262,1.109,3.949,3.949,0,0,1-1.77.395A3.67,3.67,0,0,1,72.277,14,4.56,4.56,0,0,1,71.23,10.82v-.148A4.508,4.508,0,0,1,72.27,7.555a3.627,3.627,0,0,1,2.852-1.164,3.555,3.555,0,0,1,2.543.9,3.2,3.2,0,0,1,.973,2.4H76.52a1.551,1.551,0,0,0-.406-1.072,1.51,1.51,0,0,0-2.223.163,3.333,3.333,0,0,0-.4,1.866v.235a3.375,3.375,0,0,0,.4,1.878A1.377,1.377,0,0,0,75.1,13.336ZM82.309,15H80.043V6.547h2.266ZM79.91,4.359a1.112,1.112,0,0,1,.34-.836,1.465,1.465,0,0,1,1.848,0,1.105,1.105,0,0,1,.344.836,1.108,1.108,0,0,1-.348.844,1.448,1.448,0,0,1-1.836,0A1.108,1.108,0,0,1,79.91,4.359ZM89.066,15a2.507,2.507,0,0,1-.227-.758,2.732,2.732,0,0,1-2.133.914,3,3,0,0,1-2.059-.719,2.312,2.312,0,0,1-.816-1.812,2.389,2.389,0,0,1,1-2.062,4.915,4.915,0,0,1,2.879-.727h1.039V9.352a1.393,1.393,0,0,0-.3-.937,1.183,1.183,0,0,0-.949-.352,1.345,1.345,0,0,0-.895.273.929.929,0,0,0-.324.75H84.02a2.268,2.268,0,0,1,.453-1.359,3,3,0,0,1,1.281-.98,4.669,4.669,0,0,1,1.859-.355,3.689,3.689,0,0,1,2.48.785,2.747,2.747,0,0,1,.918,2.207v3.664a4.041,4.041,0,0,0,.336,1.82V15ZM87.2,13.43a1.945,1.945,0,0,0,.922-.223,1.462,1.462,0,0,0,.625-.6V11.156H87.9q-1.7,0-1.8,1.172l-.008.133a.9.9,0,0,0,.3.7A1.153,1.153,0,0,0,87.2,13.43ZM95.129,15H92.863V3h2.266Z" transform="translate(-9240 -7073.741)" fill="#fff"/>
    <path id="Trazado_153133" data-name="Trazado 153133" d="M9.977,10.836H8.109V15H5.766V3.625H9.992a4.778,4.778,0,0,1,3.109.9A3.1,3.1,0,0,1,14.2,7.063,3.5,3.5,0,0,1,13.691,9a3.437,3.437,0,0,1-1.527,1.238l2.461,4.648V15H12.109Zm-1.867-1.9H10a1.936,1.936,0,0,0,1.367-.449,1.606,1.606,0,0,0,.484-1.238,1.719,1.719,0,0,0-.457-1.266,1.9,1.9,0,0,0-1.4-.461H8.109Zm11.609,6.219a4.15,4.15,0,0,1-3.027-1.141,4.054,4.054,0,0,1-1.168-3.039v-.219a5.106,5.106,0,0,1,.492-2.277A3.612,3.612,0,0,1,17.41,6.934a3.914,3.914,0,0,1,2.059-.543A3.508,3.508,0,0,1,22.2,7.484a4.444,4.444,0,0,1,1,3.1v.922H17.813a2.1,2.1,0,0,0,.66,1.328,2,2,0,0,0,1.395.5,2.437,2.437,0,0,0,2.039-.945l1.109,1.242a3.389,3.389,0,0,1-1.375,1.121A4.511,4.511,0,0,1,19.719,15.156Zm-.258-6.945a1.411,1.411,0,0,0-1.09.455,2.357,2.357,0,0,0-.535,1.3h3.141V9.788a1.681,1.681,0,0,0-.406-1.165A1.456,1.456,0,0,0,19.461,8.211Zm9.594,4.453a.727.727,0,0,0-.41-.652,4.659,4.659,0,0,0-1.316-.426q-3.016-.633-3.016-2.562a2.323,2.323,0,0,1,.934-1.879,3.766,3.766,0,0,1,2.441-.754,4.053,4.053,0,0,1,2.574.758,2.388,2.388,0,0,1,.965,1.969H28.969a1.092,1.092,0,0,0-.312-.8A1.322,1.322,0,0,0,27.68,8a1.351,1.351,0,0,0-.883.258.814.814,0,0,0-.312.656.7.7,0,0,0,.355.605,3.657,3.657,0,0,0,1.2.4,9.8,9.8,0,0,1,1.422.379A2.336,2.336,0,0,1,31.25,12.57a2.2,2.2,0,0,1-.992,1.871,4.28,4.28,0,0,1-2.562.715,4.47,4.47,0,0,1-1.887-.379,3.166,3.166,0,0,1-1.293-1.039,2.414,2.414,0,0,1-.469-1.426h2.141a1.179,1.179,0,0,0,.445.922,1.766,1.766,0,0,0,1.109.32,1.635,1.635,0,0,0,.98-.246A.766.766,0,0,0,29.055,12.664Zm6.352-8.2V6.547h1.445V8.2H35.406v4.219a1.007,1.007,0,0,0,.18.672.9.9,0,0,0,.688.2,3.6,3.6,0,0,0,.664-.055v1.711a4.648,4.648,0,0,1-1.367.2,2.156,2.156,0,0,1-2.422-2.4V8.2H31.914V6.547h1.234V4.469Zm7.453,4.2a6.134,6.134,0,0,0-.812-.062,1.654,1.654,0,0,0-1.68.867V15H38.109V6.547h2.133L40.3,7.555a2.092,2.092,0,0,1,1.883-1.164,2.366,2.366,0,0,1,.7.1ZM46.328,15H44.063V6.547h2.266ZM43.93,4.359a1.112,1.112,0,0,1,.34-.836,1.465,1.465,0,0,1,1.848,0,1.105,1.105,0,0,1,.344.836,1.108,1.108,0,0,1-.348.844,1.448,1.448,0,0,1-1.836,0A1.108,1.108,0,0,1,43.93,4.359Zm6.336,2.188.07.977a2.951,2.951,0,0,1,2.43-1.133,2.453,2.453,0,0,1,2,.789,3.682,3.682,0,0,1,.672,2.359V15H53.18V9.581a1.47,1.47,0,0,0-.312-1.045,1.4,1.4,0,0,0-1.039-.325,1.553,1.553,0,0,0-1.43.814V15H48.141V6.547Zm6.555,4.164a4.954,4.954,0,0,1,.926-3.133,3,3,0,0,1,2.5-1.187,2.631,2.631,0,0,1,2.164.953l.094-.8h2.047v8.172a3.613,3.613,0,0,1-.5,1.93,3.236,3.236,0,0,1-1.418,1.25,4.985,4.985,0,0,1-2.141.43,4.635,4.635,0,0,1-1.812-.371A3.217,3.217,0,0,1,57.336,17l1-1.375a2.645,2.645,0,0,0,2.047.945,1.936,1.936,0,0,0,1.4-.48,1.8,1.8,0,0,0,.5-1.363v-.453a2.612,2.612,0,0,1-2.055.883,2.992,2.992,0,0,1-2.465-1.191,4.953,4.953,0,0,1-.941-3.16Zm2.258.161a3.1,3.1,0,0,0,.461,1.809,1.465,1.465,0,0,0,1.266.655,1.567,1.567,0,0,0,1.477-.777V8.988a1.563,1.563,0,0,0-1.461-.777,1.474,1.474,0,0,0-1.277.667A3.5,3.5,0,0,0,59.078,10.872ZM68.664,15H66.4V6.547h2.266Zm-2.4-10.641a1.112,1.112,0,0,1,.34-.836,1.465,1.465,0,0,1,1.848,0,1.105,1.105,0,0,1,.344.836,1.108,1.108,0,0,1-.348.844,1.448,1.448,0,0,1-1.836,0A1.108,1.108,0,0,1,66.266,4.359Zm3.906,6.352a5.094,5.094,0,0,1,.887-3.148,2.877,2.877,0,0,1,2.426-1.172,2.589,2.589,0,0,1,2.039.922V3h2.266V15H75.75l-.109-.9a2.657,2.657,0,0,1-2.172,1.055,2.869,2.869,0,0,1-2.395-1.176A5.258,5.258,0,0,1,70.172,10.711Zm2.258.161a3.355,3.355,0,0,0,.414,1.829,1.348,1.348,0,0,0,1.2.636,1.51,1.51,0,0,0,1.477-.887V9.1a1.489,1.489,0,0,0-1.461-.887Q72.43,8.211,72.43,10.872ZM84.438,15a2.507,2.507,0,0,1-.227-.758,2.732,2.732,0,0,1-2.133.914,3,3,0,0,1-2.059-.719,2.312,2.312,0,0,1-.816-1.812,2.389,2.389,0,0,1,1-2.062,4.915,4.915,0,0,1,2.879-.727h1.039V9.352a1.393,1.393,0,0,0-.3-.937,1.183,1.183,0,0,0-.949-.352,1.345,1.345,0,0,0-.895.273.929.929,0,0,0-.324.75H79.391a2.268,2.268,0,0,1,.453-1.359,3,3,0,0,1,1.281-.98,4.669,4.669,0,0,1,1.859-.355,3.689,3.689,0,0,1,2.48.785,2.747,2.747,0,0,1,.918,2.207v3.664a4.041,4.041,0,0,0,.336,1.82V15ZM82.57,13.43a1.945,1.945,0,0,0,.922-.223,1.462,1.462,0,0,0,.625-.6V11.156h-.844q-1.7,0-1.8,1.172l-.008.133a.9.9,0,0,0,.3.7A1.153,1.153,0,0,0,82.57,13.43Z" transform="translate(-9215 -6838.741)" fill="#fff"/>
    <path id="Trazado_153134" data-name="Trazado 153134" d="M18.48,15H16.137V3.625H18.48Zm4.1-8.453.07.977a2.951,2.951,0,0,1,2.43-1.133,2.453,2.453,0,0,1,2,.789,3.682,3.682,0,0,1,.672,2.359V15H25.5V9.581a1.47,1.47,0,0,0-.312-1.045,1.4,1.4,0,0,0-1.039-.325,1.553,1.553,0,0,0-1.43.814V15H20.457V6.547Zm9.586-2.078V6.547h1.445V8.2H32.168v4.219a1.007,1.007,0,0,0,.18.672.9.9,0,0,0,.688.2,3.6,3.6,0,0,0,.664-.055v1.711a4.648,4.648,0,0,1-1.367.2,2.156,2.156,0,0,1-2.422-2.4V8.2H28.676V6.547H29.91V4.469Zm6.594,10.688a4.15,4.15,0,0,1-3.027-1.141,4.054,4.054,0,0,1-1.168-3.039v-.219a5.106,5.106,0,0,1,.492-2.277,3.612,3.612,0,0,1,1.395-1.547,3.914,3.914,0,0,1,2.059-.543,3.508,3.508,0,0,1,2.73,1.094,4.444,4.444,0,0,1,1,3.1v.922H36.855a2.1,2.1,0,0,0,.66,1.328,2,2,0,0,0,1.395.5,2.437,2.437,0,0,0,2.039-.945l1.109,1.242a3.389,3.389,0,0,1-1.375,1.121A4.511,4.511,0,0,1,38.762,15.156ZM38.5,8.211a1.411,1.411,0,0,0-1.09.455,2.357,2.357,0,0,0-.535,1.3H40.02V9.788a1.681,1.681,0,0,0-.406-1.165A1.456,1.456,0,0,0,38.5,8.211Zm9.766.453a6.134,6.134,0,0,0-.812-.062,1.654,1.654,0,0,0-1.68.867V15H43.52V6.547h2.133l.063,1.008A2.092,2.092,0,0,1,47.6,6.391a2.366,2.366,0,0,1,.7.1Zm3.164-2.117.07.977a2.951,2.951,0,0,1,2.43-1.133,2.453,2.453,0,0,1,2,.789,3.682,3.682,0,0,1,.672,2.359V15H54.348V9.581a1.47,1.47,0,0,0-.312-1.045A1.4,1.4,0,0,0,53,8.211a1.553,1.553,0,0,0-1.43.814V15H49.309V6.547ZM63.215,15a2.507,2.507,0,0,1-.227-.758,2.732,2.732,0,0,1-2.133.914,3,3,0,0,1-2.059-.719,2.312,2.312,0,0,1-.816-1.812,2.389,2.389,0,0,1,1-2.062,4.915,4.915,0,0,1,2.879-.727h1.039V9.352a1.393,1.393,0,0,0-.3-.937,1.183,1.183,0,0,0-.949-.352,1.345,1.345,0,0,0-.895.273.929.929,0,0,0-.324.75H58.168a2.268,2.268,0,0,1,.453-1.359,3,3,0,0,1,1.281-.98,4.669,4.669,0,0,1,1.859-.355,3.689,3.689,0,0,1,2.48.785,2.747,2.747,0,0,1,.918,2.207v3.664a4.041,4.041,0,0,0,.336,1.82V15Zm-1.867-1.57a1.945,1.945,0,0,0,.922-.223,1.462,1.462,0,0,0,.625-.6V11.156h-.844q-1.7,0-1.8,1.172l-.008.133a.9.9,0,0,0,.3.7A1.153,1.153,0,0,0,61.348,13.43Z" transform="translate(-9457 -6821.741)" fill="#fff"/>
    <path id="Trazado_153135" data-name="Trazado 153135" d="M0,0H35.28V17.442H0Z" transform="translate(-9233.675 -6954.648) rotate(-40.502)" fill="#5f7472"/>
    <g id="Grupo_158148" data-name="Grupo 158148" transform="translate(-9432 -7021.346)">
      <g id="Grupo_158155" data-name="Grupo 158155">
        <path id="Trazado_153033" data-name="Trazado 153033" d="M444.2,906.607a62.737,62.737,0,0,1-3.92,22.5,109.5,109.5,0,0,1-8.351,16.191s14.487,2.9,26.417,4.6S488,953.647,488,953.647a67.816,67.816,0,0,0,10.567-19.77c4.261-12.783,3.238-27.269,3.238-27.269Z" transform="translate(-363.017 -761.965)" fill="#ddd4d1"/>
        <path id="Línea_158" data-name="Línea 158" d="M37.743,3.856a.431.431,0,0,1-.061,0l-40-5.681a.428.428,0,0,1-.363-.483.428.428,0,0,1,.483-.363l40,5.681a.428.428,0,0,1-.06.851Z" transform="translate(83.492 179.675)" fill="#fff"/>
        <path id="Línea_159" data-name="Línea 159" d="M37.743,3.856a.431.431,0,0,1-.061,0l-40-5.681a.428.428,0,0,1-.363-.483.428.428,0,0,1,.483-.363l40,5.681a.428.428,0,0,1-.06.851Z" transform="translate(87.752 172.176)" fill="#fff"/>
        <path id="Línea_160" data-name="Línea 160" d="M37.743,3.856a.431.431,0,0,1-.061,0l-40-5.681a.428.428,0,0,1-.363-.483.428.428,0,0,1,.483-.363l40,5.681a.428.428,0,0,1-.06.851Z" transform="translate(89.627 164.677)" fill="#fff"/>
        <path id="Línea_161" data-name="Línea 161" d="M37.743,3.856a.431.431,0,0,1-.061,0l-40-5.681a.428.428,0,0,1-.363-.483.428.428,0,0,1,.483-.363l40,5.681a.428.428,0,0,1-.06.851Z" transform="translate(92.695 157.178)" fill="#fff"/>
        <path id="Trazado_153034" data-name="Trazado 153034" d="M379.309,926.192c-.852,3.75-4.943,13.635-6.136,16.532l39.541,7.84s6.476-13.635,8.181-20.452Z" transform="translate(-313.636 -778.426)" fill="#ffd585"/>
        <path id="Trazado_153035" data-name="Trazado 153035" d="M101.072,44.456,103.8,18.732c12.58.934,28.759,7.111,45.677,14.362l-2.938,17.043Z" transform="translate(-84.947 -15.744)" fill="#eef2f1"/>
        <rect id="Rectángulo_35168" data-name="Rectángulo 35168" width="69.537" height="31.53" transform="translate(178.579 83.07) rotate(-87.293)" fill="#447f79"/>
        <rect id="Rectángulo_35169" data-name="Rectángulo 35169" width="48.574" height="22.838" transform="translate(118.905 0)" fill="#d2b77a"/>
        <rect id="Rectángulo_35170" data-name="Rectángulo 35170" width="57.095" height="68.003" transform="translate(190.431 68.685)" fill="#fdb768"/>
        <path id="Trazado_153036" data-name="Trazado 153036" d="M433.329,234.069H325.305A23.706,23.706,0,0,1,301.6,210.362V158.241a23.706,23.706,0,0,1,23.706-23.706H433.329a23.706,23.706,0,0,1,23.706,23.706v52.121a23.706,23.706,0,0,1-23.706,23.706" transform="translate(-253.481 -113.071)" fill="#fff"/>
        <path id="Rectángulo_35171" data-name="Rectángulo 35171" d="M21.454-2.68H129.477a24.161,24.161,0,0,1,24.134,24.134V73.575a24.161,24.161,0,0,1-24.134,24.134H21.454A24.161,24.161,0,0,1-2.68,73.575V21.454A24.161,24.161,0,0,1,21.454-2.68ZM129.477,96.854a23.305,23.305,0,0,0,23.279-23.279V21.454A23.305,23.305,0,0,0,129.477-1.825H21.454A23.305,23.305,0,0,0-1.825,21.454V73.575A23.305,23.305,0,0,0,21.454,96.854Z" transform="translate(50.37 23.716)" fill="#31313c"/>
        <rect id="Rectángulo_35172" data-name="Rectángulo 35172" width="61.464" height="64.417" transform="matrix(0.985, -0.174, 0.174, 0.985, 133.311, 14.444)" fill="#80a2a1"/>
        <path id="Trazado_153037" data-name="Trazado 153037" d="M483.439,69.147c.682-4.772-2.273-18.407-2.727-19.543,10.091-1.177,21.029-2.154,32.723-2.954a40.524,40.524,0,0,1,4.091,12.726,43.089,43.089,0,0,1,.227,9.544Z" transform="translate(-404.018 -39.208)" fill="#fdb768"/>
        <path id="Trazado_153038" data-name="Trazado 153038" d="M397.72,269.679H289.7a23.706,23.706,0,0,1-23.706-23.706V193.851A23.706,23.706,0,0,1,289.7,170.145H397.72a23.706,23.706,0,0,1,23.706,23.706v52.121a23.706,23.706,0,0,1-23.706,23.706" transform="translate(-223.553 -143)" fill="#fff"/>
        <path id="Rectángulo_35173" data-name="Rectángulo 35173" d="M21.454-2.68H129.477a24.161,24.161,0,0,1,24.134,24.134V73.575a24.161,24.161,0,0,1-24.134,24.134H21.454A24.161,24.161,0,0,1-2.68,73.575V21.454A24.161,24.161,0,0,1,21.454-2.68ZM129.477,96.854a23.305,23.305,0,0,0,23.279-23.279V21.454A23.305,23.305,0,0,0,129.477-1.825H21.454A23.305,23.305,0,0,0-1.825,21.454V73.575A23.305,23.305,0,0,0,21.454,96.854Z" transform="translate(44.689 29.397)" fill="#31313c"/>
        <rect id="Rectángulo_35174" data-name="Rectángulo 35174" width="34.087" height="41.927" transform="translate(160.434 108.567)" fill="#ebc9b1"/>
        <rect id="Rectángulo_35175" data-name="Rectángulo 35175" width="42.694" height="43.461" transform="matrix(0.978, -0.208, 0.208, 0.978, 0, 32.26)" fill="#fdb768"/>
        <path id="Trazado_153039" data-name="Trazado 153039" d="M362.111,305.288H254.087a23.706,23.706,0,0,1-23.706-23.706V229.46a23.706,23.706,0,0,1,23.706-23.706H362.111a23.706,23.706,0,0,1,23.706,23.706v52.121a23.706,23.706,0,0,1-23.706,23.706" transform="translate(-193.625 -172.928)" fill="#fff"/>
        <path id="Rectángulo_35176" data-name="Rectángulo 35176" d="M21.454-2.68H129.477a24.161,24.161,0,0,1,24.134,24.134V73.575a24.161,24.161,0,0,1-24.134,24.134H21.454A24.161,24.161,0,0,1-2.68,73.575V21.454A24.161,24.161,0,0,1,21.454-2.68ZM129.477,96.854a23.305,23.305,0,0,0,23.279-23.279V21.454A23.305,23.305,0,0,0,129.477-1.825H21.454A23.305,23.305,0,0,0-1.825,21.454V73.575A23.305,23.305,0,0,0,21.454,96.854Z" transform="translate(39.008 35.078)" fill="#31313c"/>
        <path id="Trazado_153040" data-name="Trazado 153040" d="M326.5,340.9H218.478a23.706,23.706,0,0,1-23.706-23.706V265.068a23.706,23.706,0,0,1,23.706-23.706H326.5a23.706,23.706,0,0,1,23.706,23.706v52.121A23.706,23.706,0,0,1,326.5,340.9" transform="translate(-163.698 -202.855)" fill="#fff"/>
        <path id="Rectángulo_35177" data-name="Rectángulo 35177" d="M21.454-2.68H129.477a24.161,24.161,0,0,1,24.134,24.134V73.575a24.161,24.161,0,0,1-24.134,24.134H21.454A24.161,24.161,0,0,1-2.68,73.575V21.454A24.161,24.161,0,0,1,21.454-2.68ZM129.477,96.854a23.305,23.305,0,0,0,23.279-23.279V21.454A23.305,23.305,0,0,0,129.477-1.825H21.454A23.305,23.305,0,0,0-1.825,21.454V73.575A23.305,23.305,0,0,0,21.454,96.854Z" transform="translate(33.327 40.76)" fill="#31313c"/>
        <rect id="Rectángulo_35178" data-name="Rectángulo 35178" width="50.798" height="22.062" transform="translate(96.648 33.767) rotate(-3.758)" fill="#ffd585"/>
        <rect id="Rectángulo_35179" data-name="Rectángulo 35179" width="24.487" height="31.019" transform="translate(176.626 83.513)" fill="#ffd585"/>
        <path id="Trazado_153041" data-name="Trazado 153041" d="M290.893,376.5H182.869A23.706,23.706,0,0,1,159.163,352.8V300.677a23.706,23.706,0,0,1,23.706-23.706H290.893A23.706,23.706,0,0,1,314.6,300.677V352.8A23.706,23.706,0,0,1,290.893,376.5" transform="translate(-133.77 -232.783)" fill="#fff"/>
        <path id="Rectángulo_35180" data-name="Rectángulo 35180" d="M21.454-2.68H129.477a24.161,24.161,0,0,1,24.134,24.134V73.575a24.161,24.161,0,0,1-24.134,24.134H21.454A24.161,24.161,0,0,1-2.68,73.575V21.454A24.161,24.161,0,0,1,21.454-2.68ZM129.477,96.854a23.305,23.305,0,0,0,23.279-23.279V21.454A23.305,23.305,0,0,0,129.477-1.825H21.454A23.305,23.305,0,0,0-1.825,21.454V73.575A23.305,23.305,0,0,0,21.454,96.854Z" transform="translate(27.646 46.441)" fill="#31313c"/>
        <rect id="Rectángulo_35181" data-name="Rectángulo 35181" width="59.86" height="48.403" transform="translate(113.906 117.77)" fill="#31313c"/>
        <path id="Trazado_153042" data-name="Trazado 153042" d="M255.284,412.114H147.26a23.706,23.706,0,0,1-23.706-23.706V336.286A23.706,23.706,0,0,1,147.26,312.58H255.284a23.706,23.706,0,0,1,23.706,23.706v52.121a23.706,23.706,0,0,1-23.706,23.706" transform="translate(-103.842 -262.711)" fill="#fff"/>
        <path id="Rectángulo_35182" data-name="Rectángulo 35182" d="M21.454-2.68H129.477a24.161,24.161,0,0,1,24.134,24.134V73.575a24.161,24.161,0,0,1-24.134,24.134H21.454A24.161,24.161,0,0,1-2.68,73.575V21.454A24.161,24.161,0,0,1,21.454-2.68ZM129.477,96.854a23.305,23.305,0,0,0,23.279-23.279V21.454A23.305,23.305,0,0,0,129.477-1.825H21.454A23.305,23.305,0,0,0-1.825,21.454V73.575A23.305,23.305,0,0,0,21.454,96.854Z" transform="translate(21.965 52.122)" fill="#31313c"/>
        <rect id="Rectángulo_35183" data-name="Rectángulo 35183" width="21.377" height="22.062" transform="translate(61.014 36.056)" fill="#31313c"/>
        <rect id="Rectángulo_35184" data-name="Rectángulo 35184" width="26.109" height="31.53" transform="translate(164.525 72.435)" fill="#e4a2a0"/>
        <path id="Trazado_153043" data-name="Trazado 153043" d="M219.675,447.723H111.651a23.706,23.706,0,0,1-23.706-23.706V371.9a23.706,23.706,0,0,1,23.706-23.706H219.675A23.706,23.706,0,0,1,243.381,371.9v52.121a23.706,23.706,0,0,1-23.706,23.706" transform="translate(-73.914 -292.639)" fill="#fff"/>
        <path id="Rectángulo_35185" data-name="Rectángulo 35185" d="M21.454-2.68H129.477a24.161,24.161,0,0,1,24.134,24.134V73.575a24.161,24.161,0,0,1-24.134,24.134H21.454A24.161,24.161,0,0,1-2.68,73.575V21.454A24.161,24.161,0,0,1,21.454-2.68ZM129.477,96.854a23.305,23.305,0,0,0,23.279-23.279V21.454A23.305,23.305,0,0,0,129.477-1.825H21.454A23.305,23.305,0,0,0-1.825,21.454V73.575A23.305,23.305,0,0,0,21.454,96.854Z" transform="translate(16.283 57.803)" fill="#31313c"/>
        <rect id="Rectángulo_35186" data-name="Rectángulo 35186" width="40.015" height="49.273" transform="translate(27.478 80.681)" fill="#eef2f1"/>
      </g>
    </g>
    <g id="Grupo_158150" data-name="Grupo 158150" transform="translate(-9404.521 -6940.665)">
      <g id="Grupo_158149" data-name="Grupo 158149" clip-path="url(#clip-path)">
        <path id="Trazado_153044" data-name="Trazado 153044" d="M227.861,532.134s1.083-2.171,4.441-1.83a9.364,9.364,0,0,1,7.122,4.87,13.607,13.607,0,0,1,.97,5.863l.073,4.791s1.931,5.116,2.886,8.657.778,10.1.074,11.468-25.472.224-25.472.224-1.164-3.977,1.056-6,2.413-2.98,1.924-4.587c-.525-1.723-1.5-3.067-1.406-6.141a9.232,9.232,0,0,1,2.556-5.514s-1.677-4.54-.632-7.434a6.3,6.3,0,0,1,3.808-4.143,6.385,6.385,0,0,1,2.6-.23" transform="translate(-210.403 -526.349)" fill="#3a4e5b"/>
        <path id="Trazado_153045" data-name="Trazado 153045" d="M87.66,760.287h53.831c1.468,0,2.955.066,4.437.073a66.063,66.063,0,0,0-12.066-20.213c-5.615-6.508-17.871-8.977-17.871-8.977s-9.076-.719-14.83.388-10.972,3.623-17,7.966-10.8,13.941-12.056,20.338c-.029.15-.056.3-.083.458,5.192.45,10.437-.033,15.638-.033" transform="translate(-88.01 -695.006)" fill="#e4a2a0"/>
        <path id="Trazado_153046" data-name="Trazado 153046" d="M258,558.919c-1-.723-1.627.686-1.725,1.219a1.388,1.388,0,0,1-.548.785,13.388,13.388,0,0,0-.428-3.792c-.408-1.294-3.079-3.54-6.34-3.69s-3.861-2.168-3.861-2.168a7.634,7.634,0,0,1-.84,3.008c-.777,1.409-2.087,1.172-2.778,2.667a7.89,7.89,0,0,0-.752,2.285l-.259-1.713s-3.076-.227-2.523,3.161a4.01,4.01,0,0,0,3.62,3.539l.362.495s.435,3.731.435,6.282a56.518,56.518,0,0,1-.536,8.415,1.611,1.611,0,0,1-1.269,1.143s.93,8.01,7.885,8.158,6.945-8.546,6.945-8.546-.711-.152-.9-.495a40.015,40.015,0,0,1-.346-6.053c-.015-2.323.387-6.664.387-6.664a13.43,13.43,0,0,0,.7-2.25c.952.037,2.691-.177,3.347-1.484.765-1.523.431-3.579-.572-4.3" transform="translate(-227.409 -544.002)" fill="#f7e5dd"/>
        <path id="Trazado_153047" data-name="Trazado 153047" d="M315.3,584.023a.366.366,0,0,1-.176-.046,3.947,3.947,0,0,0-2.918-.125.367.367,0,0,1-.463-.163.306.306,0,0,1,.119-.439,4.63,4.63,0,0,1,3.543.157.353.353,0,0,1,.167.454.3.3,0,0,1-.272.163" transform="translate(-289.445 -570.638)" fill="#2f3045"/>
        <path id="Trazado_153048" data-name="Trazado 153048" d="M273.287,584.571a.357.357,0,0,1-.127-.013,4.642,4.642,0,0,0-3.246.167.366.366,0,0,1-.475-.122.306.306,0,0,1,.079-.448,5.285,5.285,0,0,1,3.773-.226.365.365,0,0,1,.268.41.3.3,0,0,1-.273.232" transform="translate(-253.877 -571.252)" fill="#2f3045"/>
        <path id="Trazado_153049" data-name="Trazado 153049" d="M280.765,602.009c-.226-.043-.328-.234-.3-.568s.157-.481.383-.438.328.234.3.568-.157.481-.383.438" transform="translate(-263.193 -585.793)" fill="#100c27"/>
        <path id="Trazado_153050" data-name="Trazado 153050" d="M321.987,601.991c-.227-.042-.329-.232-.3-.566s.154-.482.38-.44.329.232.3.566-.154.482-.38.44" transform="translate(-297.836 -585.777)" fill="#100c27"/>
        <path id="Trazado_153051" data-name="Trazado 153051" d="M305.173,600.118a.214.214,0,0,1-.1-.4l1.321-.726c-.168-.185-.43-.477-.689-.783s-.461-.562-.61-.77c-.274-.384-.315-.538-.318-.638a.214.214,0,0,1,.206-.221h.007a.214.214,0,0,1,.213.2c.005.028.068.255.848,1.174.419.494.837.942.841.946a.214.214,0,0,1-.053.333l-1.56.857A.213.213,0,0,1,305.173,600.118Z" transform="translate(-283.628 -582.08)" fill="#f3a8a3"/>
        <path id="Trazado_153052" data-name="Trazado 153052" d="M326.371,615.791c-.668-.118-.969-.659-.894-1.6s.454-1.367,1.121-1.249.969.659.894,1.605-.453,1.367-1.121,1.249" transform="translate(-301.018 -595.813)" fill="#f3a8a3"/>
        <path id="Trazado_153053" data-name="Trazado 153053" d="M271.445,617.989c-.655.068-1.092-.384-1.294-1.34s.028-1.477.683-1.546,1.092.384,1.294,1.34-.028,1.477-.683,1.546" transform="translate(-254.469 -597.644)" fill="#f3a8a3"/>
        <path id="Trazado_153054" data-name="Trazado 153054" d="M345.473,614.632a.214.214,0,0,1-.209-.258l.011-.053a17.977,17.977,0,0,0,.487-3.688.214.214,0,0,1,.214-.211h0a.214.214,0,0,1,.211.216,18.341,18.341,0,0,1-.5,3.772l-.011.052A.214.214,0,0,1,345.473,614.632Z" transform="translate(-317.653 -593.715)" fill="#f3a8a3"/>
        <path id="Trazado_153055" data-name="Trazado 153055" d="M262.4,609.377q-.153,0-.3,0a8.632,8.632,0,0,1-1.911-.265,6.458,6.458,0,0,1-1.832-.781,6.594,6.594,0,0,1-2.146-2.368,13.615,13.615,0,0,1-.973-2.219c-.041-.115-.076-.214-.106-.293a15.124,15.124,0,0,1-.54-2.32,23.2,23.2,0,0,1-.336-3.053.214.214,0,0,1,.427-.011,22.061,22.061,0,0,0,.33,2.991,15,15,0,0,0,.518,2.24c.032.084.068.185.109.3a13.042,13.042,0,0,0,.942,2.151,6.174,6.174,0,0,0,2,2.218,6.032,6.032,0,0,0,1.711.728,8.2,8.2,0,0,0,1.816.252,9.761,9.761,0,0,0,1.7-.1,8.027,8.027,0,0,0,1.36-.312,5.3,5.3,0,0,0,1.74-1.022,4.911,4.911,0,0,0,1.1-1.282.214.214,0,0,1,.376.2,5.349,5.349,0,0,1-1.2,1.4,5.847,5.847,0,0,1-1.882,1.1,8.459,8.459,0,0,1-1.434.33A10.228,10.228,0,0,1,262.4,609.377Z" transform="translate(-241.164 -583.153)" fill="#f3a8a3"/>
        <path id="Trazado_153056" data-name="Trazado 153056" d="M246.106,603.47a.214.214,0,0,1-.206-.156c0-.005-.153-.544-.374-1.158a5.759,5.759,0,0,0-.783-1.614.214.214,0,0,1,.323-.28,6.015,6.015,0,0,1,.863,1.752c.226.628.376,1.163.382,1.185a.214.214,0,0,1-.206.271Z" transform="translate(-233.131 -585.113)" fill="#f3a8a3"/>
        <path id="Trazado_153057" data-name="Trazado 153057" d="M351.557,609.028a.214.214,0,0,1-.206-.27,10.722,10.722,0,0,1,.584-1.419,4.893,4.893,0,0,1,.935-1.434.214.214,0,0,1,.268.333,4.444,4.444,0,0,0-.818,1.287,10.468,10.468,0,0,0-.557,1.345A.214.214,0,0,1,351.557,609.028Z" transform="translate(-322.767 -589.879)" fill="#f3a8a3"/>
        <path id="Trazado_153058" data-name="Trazado 153058" d="M290.423,628.061c.177-.8,1.423-.488,2.254-.38s1.619-.645,2.415.051c.625.545-.591,1.644-2.047,1.648-1.4,0-2.774-.636-2.622-1.319" transform="translate(-271.556 -608.012)" fill="#fff"/>
        <path id="Trazado_153059" data-name="Trazado 153059" d="M293.193,626.093a1.338,1.338,0,0,1,.913.351.675.675,0,0,1,.189.781,1.817,1.817,0,0,1-.865.861,3.246,3.246,0,0,1-1.511.382h-.013a4.942,4.942,0,0,1-1.559-.252,2.282,2.282,0,0,1-1.078-.663.775.775,0,0,1-.181-.664.8.8,0,0,1,.442-.567,1.573,1.573,0,0,1,.7-.132,7.03,7.03,0,0,1,1.013.1c.118.018.23.035.336.049a1.126,1.126,0,0,0,.144.009,2.777,2.777,0,0,0,.694-.124A3.058,3.058,0,0,1,293.193,626.093Zm-1.287,1.947h.012a2.812,2.812,0,0,0,1.308-.33,1.425,1.425,0,0,0,.668-.634.249.249,0,0,0-.07-.309.916.916,0,0,0-.632-.246,2.705,2.705,0,0,0-.667.12,3.138,3.138,0,0,1-.8.138,1.552,1.552,0,0,1-.2-.013c-.11-.014-.224-.032-.345-.05a6.616,6.616,0,0,0-.949-.1c-.644,0-.7.255-.724.364a.356.356,0,0,0,.1.3,2,2,0,0,0,.883.526A4.5,4.5,0,0,0,291.906,628.04Z" transform="translate(-270.43 -606.886)" fill="#f3a8a3"/>
      </g>
    </g>
    <g id="Grupo_158152" data-name="Grupo 158152" transform="translate(-9432 -7021.346)">
      <g id="Grupo_158151" data-name="Grupo 158151" clip-path="url(#clip-path-2)">
        <rect id="Rectángulo_35189" data-name="Rectángulo 35189" width="43.12" height="7.67" transform="translate(73.061 80.681)" fill="#31313c"/>
        <path id="Rectángulo_35190" data-name="Rectángulo 35190" d="M-2.252-2.68h21.56a.428.428,0,0,1,.428.428v7.67a.428.428,0,0,1-.428.428H-2.252a.428.428,0,0,1-.428-.428v-7.67A.428.428,0,0,1-2.252-2.68Zm21.132.855h-20.7V4.99h20.7Z" transform="translate(75.313 95.961)" fill="#ecc9c6"/>
        <rect id="Rectángulo_35191" data-name="Rectángulo 35191" width="28.59" height="7.67" transform="translate(119.078 80.681)" fill="#31313c"/>
        <rect id="Rectángulo_35192" data-name="Rectángulo 35192" width="28.798" height="7.67" transform="translate(73.061 122.284)" fill="#31313c"/>
        <path id="Rectángulo_35193" data-name="Rectángulo 35193" d="M-2.252-2.68H39.278a.428.428,0,0,1,.428.428v7.67a.428.428,0,0,1-.428.428H-2.252a.428.428,0,0,1-.428-.428v-7.67A.428.428,0,0,1-2.252-2.68Zm41.1.855H-1.825V4.99H38.851Z" transform="translate(108.39 124.537)" fill="#c7d5d1"/>
        <path id="Línea_162" data-name="Línea 162" d="M72.355-1.825H-2.252a.428.428,0,0,1-.428-.428.428.428,0,0,1,.428-.428H72.355a.428.428,0,0,1,.428.428A.428.428,0,0,1,72.355-1.825Z" transform="translate(75.313 109.349)" fill="#2f3045"/>
        <path id="Línea_163" data-name="Línea 163" d="M72.355-1.825H-2.252a.428.428,0,0,1-.428-.428.428.428,0,0,1,.428-.428H72.355a.428.428,0,0,1,.428.428A.428.428,0,0,1,72.355-1.825Z" transform="translate(75.313 114.291)" fill="#2f3045"/>
        <path id="Línea_164" data-name="Línea 164" d="M72.355-1.825H-2.252a.428.428,0,0,1-.428-.428.428.428,0,0,1,.428-.428H72.355a.428.428,0,0,1,.428.428A.428.428,0,0,1,72.355-1.825Z" transform="translate(75.313 119.234)" fill="#2f3045"/>
      </g>
    </g>
  </g>
</svg>
