<svg xmlns="http://www.w3.org/2000/svg" xmlns:xlink="http://www.w3.org/1999/xlink" width="112.594" height="75.077" viewBox="0 0 112.594 75.077">
  <defs>
    <clipPath id="clip-path">
      <rect id="Rect치ngulo_34885" data-name="Rect치ngulo 34885" width="112.594" height="68.501" transform="translate(-0.44 0.243)" fill="#12263f"/>
    </clipPath>
    <clipPath id="clip-path-2">
      <rect id="Rect치ngulo_35049" data-name="Rect치ngulo 35049" width="72.571" height="75.077" fill="none"/>
    </clipPath>
  </defs>
  <g id="Grupo_80201" data-name="Grupo 80201" transform="translate(-305 -1927)">
    <g id="Grupo_158014" data-name="Grupo 158014">
      <g id="Enmascarar_grupo_64" data-name="Enmascarar grupo 64" transform="translate(305.44 1929.757)" clip-path="url(#clip-path)">
        <path id="Trazado_151731" data-name="Trazado 151731" d="M53.61,84.647A31.037,31.037,0,1,0,22.572,53.61,31.072,31.072,0,0,0,53.61,84.647m0,22.572a53.61,53.61,0,1,1,53.61-53.61A53.61,53.61,0,0,1,53.61,107.219Z" transform="translate(2.608 15.135)" fill="#31313c"/>
      </g>
      <g id="Grupo_158013" data-name="Grupo 158013" transform="translate(325 1927)">
        <g id="Grupo_158013-2" data-name="Grupo 158013" clip-path="url(#clip-path-2)">
          <path id="Trazado_151838" data-name="Trazado 151838" d="M48.285,75.065c-7.374,0-14.749-.022-22.123.011-2.9.013-2.968-.083-2.916-2.96a14.189,14.189,0,0,1,.3-2.945,10.908,10.908,0,0,1,2.814-5.22c1.066-1.107,2.147-2.2,3.26-3.262a11.01,11.01,0,0,1,7.761-3.136c1.745-.014,3.492-.029,5.237.013.567.014.7-.159.667-.693a8.345,8.345,0,0,0-.067-2.246c-.258-.688-1.226-.726-1.851-1.108a11.158,11.158,0,0,1-5.427-7.905c-.082-.47-.231-.605-.683-.583a5.291,5.291,0,0,1-1.706-.123,3.747,3.747,0,0,1-2.779-3.467c-.028-.833-.014-1.668-.008-2.5a3.754,3.754,0,0,1,3.874-3.906c1.129-.013,1.129-.013,1.129-1.139,0-1.277-.013-2.554.008-3.83a.751.751,0,0,0-.44-.791,6.081,6.081,0,0,1-3.309-5.688,1.065,1.065,0,0,0-.338-.814,7.411,7.411,0,0,1,.02-10.526,1.071,1.071,0,0,0,.316-.822,6.18,6.18,0,0,1,4.632-6.193.738.738,0,0,0,.584-.591A6.221,6.221,0,0,1,43.517,0q4.69-.009,9.381,0c1.217,0,1.626.418,1.63,1.647,0,.86.015,1.72-.007,2.579a.59.59,0,0,0,.406.647c.323.148.471,0,.659-.193.548-.558,1.1-1.115,1.658-1.659a1.261,1.261,0,0,1,2.038-.032q2.395,2.359,4.755,4.753a1.263,1.263,0,0,1-.007,2.039c-.523.545-1.064,1.073-1.6,1.6-.222.22-.44.389-.248.786.167.346.4.344.689.342.912-.006,1.824-.012,2.736,0a1.275,1.275,0,0,1,1.431,1.451q.014,3.557,0,7.113a1.276,1.276,0,0,1-1.445,1.438c-.938.012-1.876.013-2.814,0a.532.532,0,0,0-.595.363.514.514,0,0,0,.143.671c.586.556,1.156,1.129,1.715,1.712a1.265,1.265,0,0,1-.013,2.039c-.928.951-1.864,1.9-2.82,2.818a1.243,1.243,0,0,0-.433,1.013c.03,1.12.033,2.242,0,3.361-.014.455.136.572.568.55a5.1,5.1,0,0,1,1.629.115,3.742,3.742,0,0,1,2.811,3.521c.024.859.018,1.72,0,2.579a3.756,3.756,0,0,1-3.763,3.781c-1.264.027-1.246.031-1.538,1.237a11.03,11.03,0,0,1-6.61,7.873c-.453.2-.641.4-.607.9.054.8-.276,1.888.129,2.337.462.513,1.564.127,2.387.159a31.746,31.746,0,0,1,5.763.264,11.212,11.212,0,0,1,5.539,3.019c.985.969,1.964,1.942,2.929,2.93a11.144,11.144,0,0,1,3.281,8.018c0,.573,0,1.147,0,1.72-.008,1.122-.441,1.563-1.556,1.565q-5,.007-10.006,0Z" transform="translate(-11.989 0)"/>
          <path id="Trazado_151839" data-name="Trazado 151839" d="M126.41,18.092c.781,0,1.562-.011,2.344,0a1.283,1.283,0,0,1,1.4,1.407c.037.771-.337,1.8.155,2.233.428.379,1.437.093,2.188.111a1.264,1.264,0,0,1,1.4,1.4q.022,2.344,0,4.687a1.281,1.281,0,0,1-1.389,1.42c-.772.037-1.8-.334-2.239.145-.38.415-.1,1.431-.122,2.181a1.283,1.283,0,0,1-1.463,1.421q-2.3.016-4.609,0a1.277,1.277,0,0,1-1.431-1.45c-.01-.625-.022-1.251.006-1.875.015-.352-.11-.444-.444-.432-.65.024-1.3.02-1.953,0a1.247,1.247,0,0,1-1.359-1.363q-.025-2.382,0-4.766a1.245,1.245,0,0,1,1.35-1.37c.6-.017,1.2-.032,1.8.005.456.028.666-.066.615-.582a15,15,0,0,1-.011-1.562c.006-1.213.416-1.615,1.655-1.618.7,0,1.406,0,2.109,0" transform="translate(-61.34 -9.332)"/>
          <path id="Trazado_151840" data-name="Trazado 151840" d="M0,28.156c0-.729,0-1.458,0-2.187.009-1.113.441-1.535,1.575-1.543.546,0,1.1-.032,1.639.009.462.035.569-.143.546-.569-.034-.623-.025-1.25,0-1.874A1.228,1.228,0,0,1,5.087,20.68q2.421-.029,4.843,0a1.244,1.244,0,0,1,1.331,1.314c.045.8-.336,1.862.156,2.312.429.394,1.481.1,2.257.124a1.232,1.232,0,0,1,1.333,1.308q.033,2.421,0,4.843a1.249,1.249,0,0,1-1.375,1.348c-.625.015-1.252.032-1.874-.007-.434-.027-.524.141-.506.531.028.623.021,1.25,0,1.874a1.233,1.233,0,0,1-1.291,1.35q-2.461.035-4.921,0A1.217,1.217,0,0,1,3.763,34.4c-.025-.65-.029-1.3,0-1.953.018-.4-.087-.552-.511-.525-.6.037-1.2.017-1.8.008A1.281,1.281,0,0,1,.006,30.5c-.012-.781,0-1.562,0-2.344" transform="translate(0 -10.662)"/>
          <path id="Trazado_151841" data-name="Trazado 151841" d="M21.883,74.71a1.241,1.241,0,0,1-1.261-1.139,3.846,3.846,0,0,1-.005-.857c.05-.424-.124-.546-.522-.507a4,4,0,0,1-.857-.008,1.221,1.221,0,0,1-1.121-1.274,1.192,1.192,0,0,1,1.114-1.2c.431-.061.995.11,1.275-.109.307-.24.056-.827.11-1.259a1.249,1.249,0,0,1,2.491.029c.053.43-.2,1,.126,1.254.262.205.8.043,1.209.08a1.237,1.237,0,0,1,1.167,1.235,1.263,1.263,0,0,1-1.156,1.251c-.431.055-1-.2-1.259.117-.209.251-.055.792-.091,1.2a1.244,1.244,0,0,1-1.219,1.185" transform="translate(-9.346 -34.679)"/>
          <path id="Trazado_151842" data-name="Trazado 151842" d="M123.823,86.457a1.269,1.269,0,0,1-1.384,1.262c-1.084.039-1.084.039-1.113,1.074-.024.863-.491,1.407-1.223,1.424-.762.018-1.259-.542-1.279-1.445a3.42,3.42,0,0,1,0-.546c.058-.412-.106-.557-.514-.514a3.906,3.906,0,0,1-.857-.007,1.22,1.22,0,0,1-1.126-1.268,1.191,1.191,0,0,1,1.108-1.2c.431-.062.993.112,1.277-.106.312-.239.059-.826.113-1.258a1.249,1.249,0,0,1,2.491.017c.053.43-.2,1,.123,1.256.258.206.8.046,1.207.083a1.238,1.238,0,0,1,1.172,1.229" transform="translate(-60.021 -42.68)"/>
          <path id="Trazado_151843" data-name="Trazado 151843" d="M54.292,64.672a6.461,6.461,0,0,0,4.043,2.36,8.821,8.821,0,0,0,1.244.084q4.65.01,9.3,0c1.236,0,1.653-.41,1.658-1.622,0-.86.012-1.72,0-2.579a.6.6,0,0,1,.381-.665c.361-.169.505.042.724.225.848.71,1.4,1.763,2.525,2.153.235.082.123.317.123.479,0,3.725.063,7.452-.024,11.175a8.682,8.682,0,0,1-8.344,8.325,17.734,17.734,0,0,1-5.05-.263,8.71,8.71,0,0,1-6.579-8.308c-.045-3.646-.012-7.294-.013-10.941,0-.092.008-.184.018-.427" transform="translate(-27.997 -32.089)" fill="#f6cba8"/>
          <path id="Trazado_151844" data-name="Trazado 151844" d="M56.367,20.165c0,4.767-.011,9.534.014,14.3,0,.578-.125.76-.721.729-1.039-.055-2.084.013-3.124-.024a3.71,3.71,0,0,1-3.27-2.058c-.207-.372-.27-.578.266-.762a6.116,6.116,0,0,0,4.26-5.02,4.33,4.33,0,0,0,.065-.7,1.274,1.274,0,0,0-1.186-1.456c-.73-.035-1.241.487-1.31,1.34a3.744,3.744,0,1,1-7.446-.657,1.712,1.712,0,0,0-.693-1.821,4.941,4.941,0,0,1,0-7.745,1.7,1.7,0,0,0,.694-1.82,3.746,3.746,0,1,1,7.433-.893,1.859,1.859,0,0,0,.251,1.043,1.174,1.174,0,0,0,1.376.472,1.256,1.256,0,0,0,.891-1.316A6.166,6.166,0,0,0,49.75,8.069c-.746-.254-.716-.532-.378-1.055a3.731,3.731,0,0,1,3.16-1.852c1.041-.029,2.086.03,3.125-.022.589-.03.728.141.725.725-.026,4.767-.015,9.534-.015,14.3" transform="translate(-21.334 -2.65)" fill="#dfb898"/>
          <path id="Trazado_151845" data-name="Trazado 151845" d="M38.977,136.579c-3.28,0-6.56-.015-9.84.015-.58,0-.74-.134-.731-.725a8.8,8.8,0,0,1,2.53-6.272c1.074-1.1,2.152-2.194,3.268-3.247a8.727,8.727,0,0,1,5.114-2.265.743.743,0,0,1,.942.624c.572,1.835,1.195,3.654,1.8,5.478.4,1.216.641,1.387,1.9,1.387,1.692,0,3.384.017,5.076-.01.492-.008.676.1.659.635-.041,1.248-.039,2.5,0,3.748.015.518-.145.647-.651.643-3.358-.022-6.716-.011-10.074-.011" transform="translate(-14.656 -64.016)" fill="#3396e7"/>
          <path id="Trazado_151846" data-name="Trazado 151846" d="M88.127,136.58c-3.306,0-6.612-.013-9.918.013-.539,0-.713-.122-.694-.682.045-1.248.039-2.5,0-3.748-.015-.5.151-.605.618-.6,1.717.027,3.436.011,5.154.01,1.213,0,1.463-.181,1.853-1.35.617-1.848,1.247-3.692,1.829-5.55a.7.7,0,0,1,.888-.591,8.642,8.642,0,0,1,5.124,2.238c1.156,1.088,2.278,2.214,3.378,3.358a8.763,8.763,0,0,1,2.45,6.226c.006.549-.139.691-.688.687-3.332-.026-6.664-.013-10-.013" transform="translate(-39.994 -64.017)" fill="#3396e7"/>
          <path id="Trazado_151847" data-name="Trazado 151847" d="M77.531,32.054c0-.807.027-1.616-.01-2.422-.023-.5.068-.7.65-.741a8.743,8.743,0,0,0-.006-17.441c-.5-.036-.656-.151-.646-.663q.05-2.5,0-5c-.011-.531.167-.637.659-.637,1.856,0,1.856-.015,1.856,1.849,0,.287,0,.573,0,.86.005,1.028.222,1.319,1.168,1.68.557.212,1.107.452,1.642.714a1.311,1.311,0,0,0,1.639-.265c.5-.493,1.006-.984,1.489-1.495.235-.248.4-.24.635,0,.855.876,1.717,1.746,2.6,2.6.295.284.207.456-.042.691-.474.446-.922.92-1.387,1.376a1.358,1.358,0,0,0-.3,1.763,15.511,15.511,0,0,1,.729,1.721,1.4,1.4,0,0,0,1.468,1.036c.781-.019,1.563.016,2.344-.013.407-.015.539.106.531.523q-.038,1.992,0,3.985c.009.431-.151.524-.542.512-.78-.025-1.563,0-2.344-.011a1.363,1.363,0,0,0-1.43.972q-.361.945-.8,1.862a1.3,1.3,0,0,0,.236,1.577c.106.115.225.218.328.335.459.522,1.376.947,1.321,1.525-.052.548-.864,1.028-1.351,1.53-.435.448-.9.869-1.318,1.334-.284.315-.475.283-.747-.014-.457-.5-.951-.964-1.433-1.44a1.312,1.312,0,0,0-1.639-.257c-.607.294-1.232.551-1.862.8a1.331,1.331,0,0,0-.943,1.368c.008.782-.017,1.564.009,2.344.014.412-.068.584-.541.594-1.969.043-1.969.061-1.969-1.895Z" transform="translate(-39.996 -2.657)" fill="#3396e7"/>
          <path id="Trazado_151848" data-name="Trazado 151848" d="M77.533,29.525c0-1.875.016-3.749-.011-5.623-.007-.493.09-.675.63-.62a6.275,6.275,0,0,1,0,12.484c-.537.056-.639-.122-.632-.618.028-1.874.011-3.748.011-5.623" transform="translate(-39.998 -12.008)" fill="#e8edf1"/>
          <path id="Trazado_151849" data-name="Trazado 151849" d="M72.293,113.673c.651,0,1.3.04,1.951-.014.473-.039.562.132.552.555-.026,1.015,0,2.03-.012,3.045a1.28,1.28,0,0,1-1.453,1.432c-.728.011-1.458.016-2.186,0a1.248,1.248,0,0,1-1.357-1.365c-.018-1.067.009-2.135-.012-3.2-.008-.378.1-.486.486-.464.675.039,1.353.011,2.03.011v0" transform="translate(-36.002 -58.641)" fill="#dfb898"/>
          <path id="Trazado_151850" data-name="Trazado 151850" d="M63.641,129.044c-1.219.008-2.439.012-3.658.029a.5.5,0,0,1-.571-.388c-.484-1.5-.991-3-1.532-4.617,1.126,0,2.171,0,3.216,0,.22,0,.306.127.39.308a4.289,4.289,0,0,0,2.166,2.024,3.2,3.2,0,0,1-.012,2.646" transform="translate(-29.864 -64.013)" fill="#2977b7"/>
          <path id="Trazado_151851" data-name="Trazado 151851" d="M79.817,126.4a4.212,4.212,0,0,0,2.161-2.026.5.5,0,0,1,.55-.308c.984,0,1.969,0,3.055,0-.533,1.61-1.047,3.15-1.551,4.693-.094.288-.3.315-.546.312-1.219-.012-2.439-.018-3.658-.027a3.2,3.2,0,0,1-.012-2.646" transform="translate(-41.038 -64.011)" fill="#2977b7"/>
          <path id="Trazado_151852" data-name="Trazado 151852" d="M46.44,79.913c0,.677-.014,1.354.006,2.03.01.327-.08.436-.43.457-1.616.1-2.077-.313-2.078-1.915,0-.6-.02-1.2.006-1.8A1.689,1.689,0,0,1,46.3,77.4c.213.118.134.318.136.485.009.676,0,1.353,0,2.03" transform="translate(-22.667 -39.851)" fill="#dfb898"/>
          <path id="Trazado_151853" data-name="Trazado 151853" d="M100.794,80.014c0-.624.024-1.25-.008-1.873-.023-.442.053-.634.576-.632,1.57.006,1.933.334,1.934,1.906,0,.573.013,1.145,0,1.717a1.673,1.673,0,0,1-2.349,1.386c-.223-.114-.144-.31-.147-.475-.009-.676,0-1.353,0-2.03" transform="translate(-52 -39.991)" fill="#dfb898"/>
          <path id="Trazado_151854" data-name="Trazado 151854" d="M69.781,131.53l.012-2.646c1.244.205,1.244.205,1.244,1.412a2.341,2.341,0,0,0,0,.387c.12.708-.166,1-.874.874a3.636,3.636,0,0,0-.385-.027" transform="translate(-36.004 -66.499)" fill="#12619f"/>
          <path id="Trazado_151855" data-name="Trazado 151855" d="M78.789,128.884l.012,2.646c-1.256.065-1.256.065-1.256-1.156V130.3c0-1.208,0-1.208,1.244-1.413" transform="translate(-40.01 -66.499)" fill="#12619f"/>
          <path id="Trazado_151856" data-name="Trazado 151856" d="M130.31,24.722c0,.26,0,.521,0,.782.016,1.059.459,1.491,1.541,1.5.131,0,.261-.008.391,0,.589.041,1.486-.261,1.7.121.3.542.1,1.357.125,2.055.015.379-.244.322-.471.323-.652,0-1.3-.015-1.954.006a1.237,1.237,0,0,0-1.324,1.32c-.021.651-.025,1.3,0,1.954.015.378-.114.469-.484.485-2.026.087-2.025.1-2.026-1.905,0-1.529-.336-1.858-1.892-1.858-1.9,0-1.88,0-1.874-1.9,0-.47.1-.648.6-.61a16.365,16.365,0,0,0,1.875,0,1.23,1.23,0,0,0,1.284-1.281c.027-.676.024-1.355,0-2.032-.012-.347.108-.472.446-.437.206.021.416,0,.625,0,1.438,0,1.438,0,1.438,1.467" transform="translate(-64 -11.994)" fill="#fed23a"/>
          <path id="Trazado_151857" data-name="Trazado 151857" d="M8.883,34.291c0-.26.006-.521,0-.782a1.287,1.287,0,0,0-1.469-1.419c-.6-.009-1.2-.02-1.8,0-.362.015-.479-.085-.5-.47-.095-2.038-.108-2.037,1.895-2.038,1.537,0,1.869-.334,1.87-1.881,0-1.9,0-1.879,1.893-1.887.551,0,.648.2.618.67-.035.545-.015,1.094-.006,1.641a1.283,1.283,0,0,0,1.43,1.456c.625.012,1.251.017,1.876,0,.33-.011.5.08.446.433a.419.419,0,0,0,0,.078c.081,2,.081,2-1.924,2-1.514,0-1.829.332-1.829,1.919,0,1.855,0,1.84-1.852,1.845-.478,0-.734-.076-.658-.624a6.8,6.8,0,0,0,.008-.937" transform="translate(-2.625 -13.321)" fill="#fed23a"/>
          <path id="Trazado_151858" data-name="Trazado 151858" d="M69.847,92.886a6.49,6.49,0,0,1-3.427-.789,3.637,3.637,0,0,1-1.767-2.542,1.327,1.327,0,0,1,.939-1.648,1.281,1.281,0,0,1,1.522,1.087,1.16,1.16,0,0,0,.044.228c.607,1.143,1.689,1.168,2.77,1.143,1.239-.029,1.974-.5,2.206-1.352.228-.834.813-1.265,1.5-1.109a1.338,1.338,0,0,1,.948,1.709,3.938,3.938,0,0,1-3.25,3.081,5.071,5.071,0,0,1-1.49.193" transform="translate(-33.342 -45.338)"/>
          <path id="Trazado_151859" data-name="Trazado 151859" d="M65.881,77.55a1.248,1.248,0,1,1-1.251,1.222,1.256,1.256,0,0,1,1.251-1.222" transform="translate(-33.347 -40.013)" fill="#030202"/>
          <path id="Trazado_151860" data-name="Trazado 151860" d="M81.389,77.55a1.248,1.248,0,1,1-1.251,1.222,1.256,1.256,0,0,1,1.251-1.222" transform="translate(-41.348 -40.013)" fill="#030202"/>
          <path id="Trazado_151861" data-name="Trazado 151861" d="M55.476,36.02a3.79,3.79,0,0,1-3.752-3.29c-.117-.93.3-1.6,1.069-1.7.739-.1,1.266.378,1.412,1.3a1.233,1.233,0,0,0,1.229,1.175c.676.04,1.14-.425,1.27-1.212.144-.87.652-1.341,1.37-1.27A1.313,1.313,0,0,1,59.2,32.612a3.783,3.783,0,0,1-3.721,3.409" transform="translate(-26.677 -16.004)"/>
        </g>
      </g>
    </g>
  </g>
</svg>
