<svg xmlns="http://www.w3.org/2000/svg" xmlns:xlink="http://www.w3.org/1999/xlink" width="120" height="120" viewBox="0 0 120 120">
  <defs>
    <clipPath id="clip-path">
      <rect id="Rect치ngulo_35583" data-name="Rect치ngulo 35583" width="85.333" height="98.562" fill="#fd9827"/>
    </clipPath>
  </defs>
  <g id="Grupo_159287" data-name="Grupo 159287" transform="translate(5881 5196)">
    <g id="Grupo_159272" data-name="Grupo 159272" transform="translate(-337 24.588)">
      <g id="Grupo_159269" data-name="Grupo 159269" transform="translate(-5527 -5209.588)">
        <g id="Grupo_158730" data-name="Grupo 158730" transform="translate(0 0)" clip-path="url(#clip-path)">
          <path id="Trazado_153938" data-name="Trazado 153938" d="M53.473,42.717c-.519,1.649-.9,3.26-1.527,4.769A16.781,16.781,0,0,1,45.2,55.4a1.411,1.411,0,0,0-.8,1.552,19.291,19.291,0,0,0,.438,3.035,4.453,4.453,0,0,0,2.442,2.5,51.444,51.444,0,0,0,12.076,4.075c1.756.426,3.511.859,5.254,1.338a7.538,7.538,0,0,1,5.622,7.072c.366,6.616.783,13.229,1.14,19.845.141,2.608-1,3.751-3.608,3.751H3.66c-2.652,0-3.794-1.165-3.647-3.82Q.567,84.721,1.179,74.7a7.439,7.439,0,0,1,5.58-6.8c3.708-1,7.465-1.826,11.14-2.93a47.065,47.065,0,0,0,6.351-2.591,4.82,4.82,0,0,0,2.77-4.537,2.874,2.874,0,0,0-1.437-2.9,16.922,16.922,0,0,1-7.342-11.516c-.107-.613-.346-.75-.923-.806a7.981,7.981,0,0,1-4.444-14.164,1.741,1.741,0,0,0,.479-1.14c.094-2.712-.059-5.444.22-8.133A19.558,19.558,0,0,1,29.855,2.159a34.09,34.09,0,0,1,13-.026,18.322,18.322,0,0,1,3.217,1.034,32.225,32.225,0,0,1,2.905,1.6A13.089,13.089,0,0,1,57.5.113a15.188,15.188,0,0,1,1.836-.1q6.352-.012,12.7,0A13.028,13.028,0,0,1,85.333,13.334a51.64,51.64,0,0,1-.418,7.909,10.613,10.613,0,0,1-4.662,7.236c-3.233,2.162-5.867,4.953-8.7,7.549a8.89,8.89,0,0,1-.724.643,2.117,2.117,0,0,1-2.287.207,2.029,2.029,0,0,1-1.228-1.835c-.04-.839-.019-1.68-.015-2.521,0-.687-.318-1.179-1-1.2-1.795-.049-3.592-.016-5.423-.016,2.273,6.259-2.141,11.291-7.409,11.411m15.458,45.89a5.5,5.5,0,0,0,.047-.645c-.253-4.352-.5-8.7-.772-13.055a5.508,5.508,0,0,0-4.033-5.026c-.462-.138-.932-.25-1.4-.375-4.571-1.223-9.261-2.043-13.63-3.946-.794-.346-1.128-.23-1.549.526a13.542,13.542,0,0,1-14.528,6.731A13.225,13.225,0,0,1,23.813,66.1c-.462-.815-.825-.928-1.625-.51a13.113,13.113,0,0,1-2.614,1Q13.8,68.175,8,69.673c-3.253.84-4.732,2.728-4.864,6.072-.154,3.9-.415,7.8-.632,11.705-.021.37-.059.738-.1,1.21,3.03,0,5.932.015,8.834-.035.186,0,.511-.5.521-.778.053-1.485.025-2.973.026-4.46,0-1.067-.022-2.134.018-3.2a1.02,1.02,0,0,1,1.082-1.113c.683,0,.968.446,1.058,1.043a6.516,6.516,0,0,1,.028.967q0,7.128,0,14.255c0,.376.035.753.058,1.218h1.036q20.6,0,41.208.023c.973,0,1.175-.3,1.169-1.205-.038-4.945-.024-9.891-.009-14.837,0-1.035.4-1.518,1.134-1.46.913.073,1.023.732,1.022,1.466,0,2.295.044,4.591-.023,6.884-.028.951.192,1.3,1.211,1.265,2.357-.077,4.718-.022,7.077-.028.345,0,.691-.037,1.07-.059M46.318,21.275a36.956,36.956,0,0,1-3.845,2,17.561,17.561,0,0,1-17.286-2.108c-1.518-1.068-2.512-.933-3.639.54a7.6,7.6,0,0,0-1.594,4.776c.015,4.719,0,9.437.016,14.156a15.722,15.722,0,0,0,31.43.512c.114-3.875.041-7.756.024-11.634a1.3,1.3,0,0,0-.357-.918,13.485,13.485,0,0,1-4.749-7.325m23.007,13.6.288.133c.558-.523,1.119-1.043,1.675-1.568a54.53,54.53,0,0,1,7.49-6.42,9.661,9.661,0,0,0,4.179-6.312,30.073,30.073,0,0,0,.159-9.445c-.478-4.382-4.81-8.81-9.156-9-5.315-.228-10.655-.253-15.971-.038A10.278,10.278,0,0,0,48.4,10.789a52.876,52.876,0,0,0-.267,7.727A10.953,10.953,0,0,0,59.244,29.231c2.327-.02,4.654-.024,6.981.007a3.047,3.047,0,0,1,3.1,3.148c.009.829,0,1.657,0,2.486M46.172,64.157a7.061,7.061,0,0,1-3.736-7.241,17.992,17.992,0,0,1-13.184.117,18.6,18.6,0,0,1-1.111,4.124,19.739,19.739,0,0,1-2.833,3.326c1.468,3.871,6.13,6.7,11.043,6.526,4.152-.143,8.745-3.322,9.821-6.853M17.885,28.794a5.9,5.9,0,1,0,0,11.8Zm41.686,67.8c2.993,0,5.9.033,8.8-.042.358-.009,1-.582,1-.9.029-1.6-.11-3.2-.189-4.784H59.571ZM2.23,90.833c-.093,1.438-.194,2.785-.262,4.134C1.9,96.263,2.222,96.6,3.5,96.6q3.731.009,7.462,0c.278,0,.557-.035.823-.054v-5.71ZM53.523,40.645a5.963,5.963,0,0,0,5.395-8.563c-.148-.3-.4-.688-.669-.753-1.554-.374-3.13-.662-4.726-.984Z" transform="translate(0 0)" fill="#fd9827"/>
          <path id="Trazado_153939" data-name="Trazado 153939" d="M42.035,52.313a7.288,7.288,0,0,1,5.689,2.829c.437.555.585,1.124-.021,1.608-.573.457-1.057.171-1.5-.318-2.591-2.84-5.763-2.839-8.329,0-.442.489-.923.774-1.5.318-.616-.486-.464-1.054-.028-1.6a7.321,7.321,0,0,1,5.692-2.834" transform="translate(-6.339 -9.222)" fill="#fd9827"/>
          <path id="Trazado_153940" data-name="Trazado 153940" d="M35.69,42.511a1.971,1.971,0,0,1-3.942-.022,1.971,1.971,0,1,1,3.942.022" transform="translate(-5.597 -7.138)" fill="#fd9827"/>
          <path id="Trazado_153941" data-name="Trazado 153941" d="M54.073,42.482a1.922,1.922,0,0,1-1.951,1.963,1.948,1.948,0,0,1-2-2.023A1.98,1.98,0,0,1,52.136,40.5a1.948,1.948,0,0,1,1.937,1.986" transform="translate(-8.836 -7.139)" fill="#fd9827"/>
          <path id="Trazado_153942" data-name="Trazado 153942" d="M73.68,21.268c-1.119,0-2.085.012-3.051,0a2.774,2.774,0,0,1-2.682-3.789.311.311,0,0,0,.032-.091q-.01-2.2-.026-4.4c0-.031-.024-.063-.024-.093-.016-1.671-.143-3.35-.006-5.008a2.122,2.122,0,0,1,2.048-1.892,32.189,32.189,0,0,1,9.819.2,21.039,21.039,0,0,0,4.923.791,2.887,2.887,0,0,1,2.939,2.974q.059,4.17,0,8.341a2.866,2.866,0,0,1-3.034,2.958c-2.2-.028-3.965.647-5.017,2.715-.568,1.116-1.285,2.168-1.751,3.323a2.422,2.422,0,0,1-4.03,1.091,3.631,3.631,0,0,1-1.136-3.866c.245-1.053.629-2.073,1-3.25m1.676,5.53c1.2-1.868,2.3-3.664,3.48-5.415a4.313,4.313,0,0,1,3.184-1.978,20.661,20.661,0,0,0,2.58-.361c.328-.081.8-.518.81-.8.061-2.745.058-5.494,0-8.24-.006-.282-.471-.8-.7-.791-2.014.111-3.857-.751-5.78-.965a79.573,79.573,0,0,0-8.311-.2c-.221,0-.444.358-.666.55.2.208.377.571.594.595a24.76,24.76,0,0,0,2.606.1c.754,0,1.546.02,1.521,1.018-.026.98-.829.992-1.573.985a16.855,16.855,0,0,0-2.227.036c-.326.04-.616.375-.923.575.3.219.582.59.9.626a20.013,20.013,0,0,0,2.516.047c.687-.007,1.288.164,1.311.951.023.836-.579,1.058-1.315,1.054-.905,0-1.814-.028-2.712.052-.25.022-.471.381-.705.586.213.189.413.521.643.544a26.873,26.873,0,0,0,2.7.107c.713,0,1.377.115,1.384.971.006.905-.687,1.044-1.433,1.039a22.287,22.287,0,0,0-2.517.048c-.278.03-.521.4-.779.609.258.18.5.5.774.517.932.066,1.872.03,2.81.03,2.733,0,3.135.626,2.18,3.2a23.5,23.5,0,0,0-.934,3.322c-.115.544.075,1.1.572,1.186" transform="translate(-11.946 -1.008)" fill="#fd9827"/>
        </g>
      </g>
    </g>
    <rect id="Rect치ngulo_35818" data-name="Rect치ngulo 35818" width="120" height="120" transform="translate(-5881 -5196)" fill="none"/>
  </g>
</svg>
