<svg xmlns="http://www.w3.org/2000/svg" xmlns:xlink="http://www.w3.org/1999/xlink" width="112.594" height="71.077" viewBox="0 0 112.594 71.077">
  <defs>
    <clipPath id="clip-path">
      <rect id="Rect치ngulo_34885" data-name="Rect치ngulo 34885" width="112.594" height="68.501" transform="translate(-0.44 0.243)" fill="#31313c"/>
    </clipPath>
    <clipPath id="clip-path-2">
      <rect id="Rect치ngulo_35050" data-name="Rect치ngulo 35050" width="71.043" height="71.077" fill="none"/>
    </clipPath>
  </defs>
  <g id="Grupo_80202" data-name="Grupo 80202" transform="translate(-305 -1930)">
    <g id="Enmascarar_grupo_64" data-name="Enmascarar grupo 64" transform="translate(305.44 1929.757)" clip-path="url(#clip-path)">
      <path id="Trazado_151731" data-name="Trazado 151731" d="M53.61,84.647A31.037,31.037,0,1,0,22.572,53.61,31.072,31.072,0,0,0,53.61,84.647m0,22.572a53.61,53.61,0,1,1,53.61-53.61A53.61,53.61,0,0,1,53.61,107.219Z" transform="translate(2.608 15.135)" fill="#31313c"/>
    </g>
    <g id="Grupo_158015" data-name="Grupo 158015" transform="translate(326 1930)">
      <g id="Grupo_158015-2" data-name="Grupo 158015" clip-path="url(#clip-path-2)">
        <path id="Trazado_151862" data-name="Trazado 151862" d="M70.6,11.135c.856.282,1.009.491,1,1.449a11.95,11.95,0,0,1-.2,3.1,5.761,5.761,0,0,1-5.571,4.272c-1.017.024-2.036.033-3.052-.007-.5-.02-.558.154-.475.585.317,1.655.606,3.315.91,4.972a1.653,1.653,0,0,1-.771,1.9,1.561,1.561,0,0,1-1.957-.353q-3.505-3.309-6.986-6.644a1.514,1.514,0,0,0-1.156-.459q-13.909.019-27.818,0a1.593,1.593,0,0,0-1.209.5Q19.893,23.744,16.434,27a1.591,1.591,0,0,1-2.442.077,1.708,1.708,0,0,1-.359-1.554c.311-1.633.584-3.272.911-4.9.111-.556-.037-.679-.589-.675a25.532,25.532,0,0,1-3.809-.076,5.648,5.648,0,0,1-4.869-5.4q-.088-4.507,0-9.017A5.677,5.677,0,0,1,9.751.137c.125-.027.286.031.359-.137H66.749a13.048,13.048,0,0,1,1.4.481,5.658,5.658,0,0,1,3.445,5.076c.034.527,0,1.058.011,1.587a1.087,1.087,0,0,1-.964,1.217,1,1,0,0,1-1.286-.939,10.542,10.542,0,0,1-.032-1.382A3.494,3.494,0,0,0,65.55,2.287c-1.844,0-3.689-.013-5.535.008Q36,2.3,11.988,2.3c-.3,0-.6,0-.9,0a3.385,3.385,0,0,0-3.5,3.317q-.145,4.369,0,8.742a3.445,3.445,0,0,0,3.6,3.317c1.133.041,2.267.014,3.4.009a2.275,2.275,0,0,1,1.932.9,2.694,2.694,0,0,1,.329,1.925c-.216,1.157-.438,2.312-.65,3.588,1.97-1.878,3.911-3.644,5.768-5.5a2.741,2.741,0,0,1,2.22-.921q14.238.019,28.478,0a2.816,2.816,0,0,1,2.275.953c1.2,1.245,2.5,2.4,3.753,3.59.62.587,1.227,1.189,1.914,1.828a22.692,22.692,0,0,0-.37-2.26c-.077-.5-.187-1-.265-1.5A2.148,2.148,0,0,1,62.1,17.728c1.04-.027,2.08,0,3.12-.007,2.715-.005,4.112-1.4,4.118-4.091a10.443,10.443,0,0,1,.036-1.592.952.952,0,0,1,1.223-.9" transform="translate(-2.891)"/>
        <path id="Trazado_151863" data-name="Trazado 151863" d="M.12,79.25A13.091,13.091,0,0,1,11.234,67.728a19.879,19.879,0,0,1,2.352-.131q6.869,0,13.738,0c1.59,0,2.267.815,2.028,2.377a5.563,5.563,0,0,1-1.862,3.458c-.21.184-.329.314-.185.63a16.283,16.283,0,0,1,1.337,7.43,6.324,6.324,0,0,0,.814,3.441c.385.68.7,1.4,1.024,2.115a2.722,2.722,0,0,1-2.312,4.019.783.783,0,0,0-.82.892q.009,2.22,0,4.44a3.918,3.918,0,0,1-4.094,4.1c-1.573,0-3.146.014-4.718,0-1.209-.014-1.557.811-1.279,1.964.078.324.352.235.566.261a2.643,2.643,0,0,1,2.416,2.591,2.712,2.712,0,0,1-2.065,3.029,3.65,3.65,0,0,1-.825.068q-7.112.006-14.224,0a2.625,2.625,0,0,1-2.874-2.886c0-.532-.009-1.064,0-1.6a2.523,2.523,0,0,1,2.021-2.552c.389-.091.463-.232.461-.585-.015-1.873.034-3.748-.021-5.619a24.841,24.841,0,0,0-.672-3.6c-.169-.946-.093-1.161.731-1.622.669-.208,1.147.056,1.389.811A13.889,13.889,0,0,1,4.6,92.8a.736.736,0,0,0,.888.724c.553-.032,1.111.019,1.665-.018a2.061,2.061,0,0,0,2.007-1.775A11.662,11.662,0,0,0,9.248,89.3a4.572,4.572,0,0,1,1.8-3.736c1.094-.89,2.22-1.741,3.335-2.6a4.713,4.713,0,0,0,1.981-3.713A6.539,6.539,0,0,1,18.4,74.535a6.76,6.76,0,0,1,5.144-1.994,3.3,3.3,0,0,0,3.279-2c.279-.58.222-.66-.431-.66q-4.228,0-8.456,0c-1.778-.018-3.556-.027-5.334,0A10.9,10.9,0,0,0,2.4,79.175a14.476,14.476,0,0,0,.386,4.867c.118.542.24,1.082.339,1.627.219,1.209-.21,1.662-1.446,1.537a1.033,1.033,0,0,1-.738-.9c-.26-1.332-.534-2.66-.8-3.99-.021-.108,0-.235-.146-.273v-.694a5.568,5.568,0,0,0,.072-1.391,2.206,2.206,0,0,1,.049-.7" transform="translate(0.001 -37.342)"/>
        <path id="Trazado_151864" data-name="Trazado 151864" d="M.116,95.141c-.033.468.177.956-.116,1.4V95.155c.033-.055.071-.062.116-.014" transform="translate(0 -52.54)" fill="#4c4c4c"/>
        <path id="Trazado_151865" data-name="Trazado 151865" d="M.116,94.325c-.039,0-.078.008-.116.014v-.694l.12-.013,0,.693" transform="translate(0 -51.724)" fill="#888"/>
        <path id="Trazado_151866" data-name="Trazado 151866" d="M100.834,67.6c2.405,0,4.811-.031,7.215.006A13.011,13.011,0,0,1,120.5,82.82c-.713,3.763-1.525,7.507-2.323,11.254a18.72,18.72,0,0,0-.154,3.522c-.026,1.086,0,2.174-.01,3.261,0,.291.054.418.389.5a2.549,2.549,0,0,1,2.092,2.707c.006.555.009,1.11,0,1.665a2.594,2.594,0,0,1-2.734,2.676q-5.793.013-11.586,0c-1.017,0-2.036.016-3.053,0a2.63,2.63,0,0,1-2.61-2.539c-.115-1.638.747-2.967,2.207-3.089.845-.07.845-.512.858-1.073a1.121,1.121,0,0,0-.946-1.186,3.3,3.3,0,0,0-.554-.02c-1.55,0-3.1.005-4.648,0A3.91,3.91,0,0,1,93.4,96.469c-.011-1.48-.014-2.96,0-4.44.008-.632-.259-.914-.892-.972a2.634,2.634,0,0,1-2.268-3.866,15.518,15.518,0,0,0,1.958-8.2,10.957,10.957,0,0,1,1.189-4.8.573.573,0,0,0-.175-.81,5.4,5.4,0,0,1-1.859-3.748A1.7,1.7,0,0,1,93.2,67.594c2.544-.008,5.088,0,7.632,0Z" transform="translate(-49.668 -37.336)"/>
        <path id="Trazado_151867" data-name="Trazado 151867" d="M3.76,89.748c1.159-.017,1.453-.393,1.246-1.545-.241-1.338-.593-2.652-.755-4.008a10.986,10.986,0,0,1,9.156-11.828,50.219,50.219,0,0,1,6.571-.12,15.673,15.673,0,0,0,.7,4.107.939.939,0,0,1-.148.851,7.393,7.393,0,0,0-1.941,5.039,4,4,0,0,1-1.575,3.043c-1.2.976-2.428,1.914-3.649,2.861A4.579,4.579,0,0,0,11.478,91.9c-.005.646.013,1.293-.009,1.939a2.265,2.265,0,0,1-2.451,2.4c-.577.005-1.159-.046-1.73.014-.531.056-.671-.2-.748-.64-.12-.68-.3-1.351-.41-2.032a1.162,1.162,0,0,0-1.279-1.086c-.138-.643-.311-1.281-.4-1.931a.813.813,0,0,0-.69-.813" transform="translate(-2.077 -39.884)" fill="#6b63ae"/>
        <path id="Trazado_151868" data-name="Trazado 151868" d="M81.234,13.7c-.869.2-1.072.445-1.079,1.321,0,.555,0,1.109,0,1.663a3.665,3.665,0,0,1-3.707,3.757c-1.154.026-2.31,0-3.465.007a1.993,1.993,0,0,0-2.152,2.559c.232,1.338.47,2.676.737,4.186l-5.989-5.747a.994.994,0,0,1,.777-.219c.509-.015,1.018,0,1.527-.009a4.345,4.345,0,0,0,4.276-4.252c.038-1.734.016-3.469,0-5.2,0-.7-.087-.768-.82-.787-.231-.006-.462,0-.694,0H26.028a6.946,6.946,0,0,1-.97-.021c-.232-.033-.539.013-.575-.355a1.883,1.883,0,0,1,1.272-.2q16.122-.009,32.244,0H72.422a7.577,7.577,0,0,0,.831-.022.691.691,0,0,0,.683-.578.747.747,0,0,0-.44-.853,5.018,5.018,0,0,0-.931-.255.525.525,0,0,1-.345-.536,4.3,4.3,0,0,0-1.305-3,.492.492,0,0,1-.194-.484c1.984-.006,3.969-.047,5.951-.007a3.61,3.61,0,0,1,3.473,3.471c.025.506,0,1.015.01,1.523.01.845.273,1.141,1.119,1.271q-.021,1.387-.041,2.774" transform="translate(-13.525 -2.567)" fill="#7ac0a4"/>
        <path id="Trazado_151869" data-name="Trazado 151869" d="M62.676,4.674a5.5,5.5,0,0,1,1.5,2.258,5.727,5.727,0,0,1,.172,1.625,1.886,1.886,0,0,1-1.273.2q-19.363.009-38.726,0-3.192,0-6.385,0a4.164,4.164,0,0,0-1.035.082c-.761.193-.969.626-.64,1.336a1.188,1.188,0,0,1,.165.452c.281.246.621.131.932.131q22.969.009,45.939.007c1.156,0,1.014-.129,1.019,1.051.007,1.665,0,3.331,0,5a4.553,4.553,0,0,1-4.658,4.631l-2.151,0a3.466,3.466,0,0,0-2.877-1.019q-13.636.048-27.273,0A3.46,3.46,0,0,0,24.5,21.452a13.561,13.561,0,0,1-5.407,0,2.3,2.3,0,0,0-2.146-1.006c-1.062.043-2.128.02-3.192.008A3.669,3.669,0,0,1,9.929,16.6c-.007-2.752-.015-5.5,0-8.256a3.617,3.617,0,0,1,3.695-3.689q24.386-.011,48.773,0c.092,0,.184.013.276.021" transform="translate(-5.481 -2.57)" fill="#96d4a5"/>
        <path id="Trazado_151870" data-name="Trazado 151870" d="M29.7,42.178l5.407,0-5.99,5.754c.261-1.478.467-2.783.732-4.076a2.832,2.832,0,0,0-.149-1.682" transform="translate(-16.087 -23.3)" fill="#79c0a4"/>
        <path id="Trazado_151871" data-name="Trazado 151871" d="M28.874,88.7c-.05-2.755,1.362-4.653,3.811-5.086.865-.153,1.758.026,2.623-.191.288-.073.333.188.41.371a12.97,12.97,0,0,1,1.038,4.289,24.738,24.738,0,0,1,.066,2.773,6.417,6.417,0,0,0,.88,3.437c.4.752.754,1.533,1.108,2.311.319.7.113,1.044-.645,1.131a2.792,2.792,0,0,0-2.65,2.984c-.006,1.457,0,2.915,0,4.372a1.872,1.872,0,0,1-2.063,2.061c-1.55.007-3.1,0-4.65,0a3.209,3.209,0,0,0-3.452,3.529c.006.242.12.536-.325.489q-3.237-.342-6.473-.673a6.174,6.174,0,0,1,5.474-3.961,5.209,5.209,0,0,0,4.761-5.232q.036-5.341,0-10.683a11.23,11.23,0,0,0,.094-1.925" transform="translate(-10.246 -46.077)" fill="#c1885d"/>
        <path id="Trazado_151872" data-name="Trazado 151872" d="M24.563,95.229c.182.2.11.439.11.662q.006,6.066,0,12.132a5.492,5.492,0,0,1-4.985,5.255,5.631,5.631,0,0,0-4.963,3.224c-.109.222-.171.5-.488.526-1.035-.09-2.069-.19-3.1-.263-.3-.021-.387-.143-.385-.428.009-1.618.015-3.236,0-4.854,0-.384.148-.463.491-.455a21.18,21.18,0,0,0,2.218-.015,4.29,4.29,0,0,0,3.95-4.4c.021-.623.011-1.248,0-1.872a2.659,2.659,0,0,1,1.124-2.262c1.085-.824,2.146-1.681,3.238-2.5a6.873,6.873,0,0,0,2.795-4.76" transform="translate(-5.935 -52.606)" fill="#d39761"/>
        <path id="Trazado_151873" data-name="Trazado 151873" d="M40.36,77.223a11.242,11.242,0,0,0-.6-3,3.689,3.689,0,0,1,.046-1.955c2.976-.009,5.953-.006,8.929-.035.51-.005.438.239.357.551a3.455,3.455,0,0,1-3.358,2.506,7.687,7.687,0,0,0-3.871.836,12.051,12.051,0,0,0-1.5,1.1" transform="translate(-21.903 -39.901)" fill="#5e57a9"/>
        <path id="Trazado_151874" data-name="Trazado 151874" d="M13.29,150.5q-3.675.011-7.349.025c-.487,0-.734-.2-.726-.7.008-.532,0-1.063,0-1.6,0-.472.236-.679.7-.632q3.549.354,7.1.713a1.893,1.893,0,0,1,.279,2.19" transform="translate(-2.881 -81.529)" fill="#df8086"/>
        <path id="Trazado_151875" data-name="Trazado 151875" d="M22.913,151.383a4.977,4.977,0,0,0-.279-2.19q3.719.34,7.439.68c.527.048.6.424.589.85a.614.614,0,0,1-.686.683q-3.531-.014-7.063-.023" transform="translate(-12.503 -82.417)" fill="#da646f"/>
        <path id="Trazado_151876" data-name="Trazado 151876" d="M110.841,110.9c-.756.09-1.512.17-2.266.272-.332.045-.4-.087-.351-.384a3.273,3.273,0,0,0-3.538-3.65c-1.523.068-3.052.018-4.578.011a1.859,1.859,0,0,1-2.039-2.011c-.01-1.456,0-2.913,0-4.37A2.786,2.786,0,0,0,95.4,97.74c-.746-.1-1.012-.49-.617-1.136a14.7,14.7,0,0,0,2.07-8.59,10.15,10.15,0,0,1,1-4.218c.124-.3.271-.453.616-.353a5.742,5.742,0,0,0,1.585.114,4.434,4.434,0,0,1,4.62,4.364,7.02,7.02,0,0,0,3.091,5.741c.918.661,1.768,1.42,2.7,2.064a3.058,3.058,0,0,1,1.365,3.237,36.233,36.233,0,0,0-.779,8.677c.053.8.012,1.61.005,2.415a1.186,1.186,0,0,1-.211.849" transform="translate(-52.259 -46.078)" fill="#fddcce"/>
        <path id="Trazado_151877" data-name="Trazado 151877" d="M121.277,72.258c2.326.014,4.669-.256,6.95.459a11.02,11.02,0,0,1,7.442,13.012q-1.041,4.908-2.044,9.825c-.1.505-.254.762-.829.707-.618-.059-1.247,0-1.871-.019a2.182,2.182,0,0,1-2.211-2.05,10.562,10.562,0,0,1-.026-1.662,5.151,5.151,0,0,0-1.46-4.04c.148-1.224.525-2.4.714-3.618a2.731,2.731,0,0,0,.073-1.009q0-.577,0-1.154a3.784,3.784,0,0,0-.048-1.092,12.027,12.027,0,0,0-6.243-8.9c-.19-.1-.45-.162-.446-.462" transform="translate(-66.996 -39.895)" fill="#df7d4d"/>
        <path id="Trazado_151878" data-name="Trazado 151878" d="M115.3,82.654q0,.626,0,1.252c-.186.3.042.666-.138.971a12.235,12.235,0,0,1-.849,3.619c-1.244-.959-2.482-1.925-3.733-2.875a4.8,4.8,0,0,1-1.988-3.781,6.566,6.566,0,0,0-6.961-6.541,3.561,3.561,0,0,1-3.655-2.5c-.073-.276-.222-.572.327-.567,3.353.027,6.707.026,10.059.034a13.777,13.777,0,0,1,2.866,1.912,11.929,11.929,0,0,1,3.933,7.366c.184.353-.051.759.138,1.111" transform="translate(-54.084 -39.901)" fill="#e1934a"/>
        <path id="Trazado_151879" data-name="Trazado 151879" d="M130.859,130.1c0-2.375-.06-4.753.021-7.126a20.275,20.275,0,0,1,.965-4.816c.026.552.03,1.106.084,1.655a4.249,4.249,0,0,0,4.148,3.886c.669.024,1.34.027,2.008,0,.366-.014.468.1.464.466-.018,1.592-.012,3.186,0,4.779,0,.281-.011.461-.381.492-2.436.205-4.869.438-7.3.662" transform="translate(-72.277 -65.272)" fill="#fdcabe"/>
        <path id="Trazado_151880" data-name="Trazado 151880" d="M133.606,148.411c1.65-.175,3.3-.355,4.951-.524,1.057-.108,2.117-.186,3.172-.3.609-.066.855.184.824.783-.024.461-.017.925,0,1.386.017.519-.2.764-.737.76-2.31-.017-4.62-.02-6.931-.028a.705.705,0,0,1-.184-.5,1.557,1.557,0,0,0-1.094-1.582" transform="translate(-73.806 -81.524)" fill="#92d7f6"/>
        <path id="Trazado_151881" data-name="Trazado 151881" d="M125.11,149.44c.907.053,1.143.3,1.271,1.389a6.1,6.1,0,0,1,.007.69c-2.474.008-4.948.013-7.422.027-.49,0-.731-.214-.739-.7-.008-.43.069-.788.6-.836q3.141-.28,6.281-.57" transform="translate(-65.31 -82.553)" fill="#b2e3f7"/>
        <path id="Trazado_151882" data-name="Trazado 151882" d="M23.716,15.453a1.066,1.066,0,0,1-.592-1.269c.182-.628.674-.766,1.245-.767h2.706q21.819,0,43.638,0c.3,0,.6-.024.9-.037.3.017.6.019.9.056a1.049,1.049,0,0,1,.993,1.05,1.02,1.02,0,0,1-1.033,1c-.507.027-1.017,0-1.525,0q-23.024,0-46.049,0c-.393,0-.785-.021-1.177-.033" transform="translate(-12.747 -7.39)" fill="#000100"/>
        <path id="Trazado_151883" data-name="Trazado 151883" d="M36.132,27.238q-5.859,0-11.719,0a1.223,1.223,0,0,1-1.163-.455,1.025,1.025,0,0,1,.628-1.584,2.859,2.859,0,0,1,.688-.044q11.615,0,23.229,0a4.155,4.155,0,0,1,.554.012,1.031,1.031,0,0,1,.953,1.079.972.972,0,0,1-1.035.982c-1.456.02-2.912.009-4.368.009H36.132" transform="translate(-12.744 -13.895)"/>
        <path id="Trazado_151884" data-name="Trazado 151884" d="M136.59,94.147c-.275-.342-.079-.743-.138-1.111.278.341.079.743.138,1.111" transform="translate(-75.371 -51.395)" fill="#e59660"/>
        <path id="Trazado_151885" data-name="Trazado 151885" d="M136.456,99.287c.052-.323-.128-.679.138-.971-.052.323.128.679-.138.971" transform="translate(-75.374 -54.312)" fill="#e69263"/>
      </g>
    </g>
  </g>
</svg>
