<svg xmlns="http://www.w3.org/2000/svg" xmlns:xlink="http://www.w3.org/1999/xlink" width="120" height="120" viewBox="0 0 120 120">
  <defs>
    <clipPath id="clip-path">
      <rect id="Rect치ngulo_35585" data-name="Rect치ngulo 35585" width="96" height="96" transform="translate(0 0.001)" fill="#fd9827"/>
    </clipPath>
  </defs>
  <g id="Grupo_159289" data-name="Grupo 159289" transform="translate(5546 5196)">
    <g id="Grupo_159282" data-name="Grupo 159282" transform="translate(26 -325)">
      <g id="Grupo_159279" data-name="Grupo 159279" transform="translate(-5560 -4859.001)">
        <g id="Grupo_158732" data-name="Grupo 158732" clip-path="url(#clip-path)">
          <path id="Trazado_153946" data-name="Trazado 153946" d="M0,45.157c.249-1.827.458-3.659.752-5.478C3.646,21.788,17.984,6.172,35.579,1.65A48.88,48.88,0,0,1,53.753.332c1.3.157,2.052.983,1.933,2.072a1.954,1.954,0,0,1-2.409,1.647A44.386,44.386,0,0,0,18.194,80.879,43.087,43.087,0,0,0,42.783,92.224,44.23,44.23,0,0,0,91.135,59.279c3.4-13.142,1.024-25.41-6.626-36.638a2,2,0,0,0-.747-.691c0,.576.021,1.152,0,1.726a1.87,1.87,0,0,1-1.824,1.891,1.831,1.831,0,0,1-1.889-1.731q-.092-3.713,0-7.431a1.77,1.77,0,0,1,1.877-1.729c2.383-.027,4.768-.031,7.15,0a1.8,1.8,0,0,1,1.836,1.862,1.849,1.849,0,0,1-1.836,1.874c-.468.031-.941.01-1.411.011H86.1c.484.662.871,1.176,1.242,1.7a47.59,47.59,0,0,1,8.771,32.783,48.118,48.118,0,0,1-39.638,42.7c-1.755.294-3.527.49-5.291.731H45.165c-.209-.052-.417-.12-.629-.151-2.2-.321-4.418-.533-6.593-.969C19.265,91.486,3.8,75.431.753,56.658c-.3-1.819-.5-3.652-.753-5.479V45.157" transform="translate(0 0)" fill="#fd9827"/>
          <path id="Trazado_153947" data-name="Trazado 153947" d="M50.825,18.535a33.1,33.1,0,0,0-16.3,4.616,9.43,9.43,0,0,1-1.067.591,1.83,1.83,0,0,1-2.349-.79,1.868,1.868,0,0,1,.454-2.376,5.421,5.421,0,0,1,.628-.413,35.827,35.827,0,1,1-11.955,11.9A2.107,2.107,0,0,1,22.168,30.8a1.887,1.887,0,0,1,1.48,2.911c-.938,1.839-1.995,3.634-2.741,5.548A32.133,32.133,0,1,0,56.239,19.1c-1.785-.306-3.609-.383-5.415-.567" transform="translate(-2.688 -2.683)" fill="#fd9827"/>
          <path id="Trazado_153948" data-name="Trazado 153948" d="M55.948,61a6.422,6.422,0,0,1-6.033-8.668,1.208,1.208,0,0,0-.325-1.535c-1.9-1.828-3.742-3.707-5.6-5.574a1.836,1.836,0,0,1-.422-2.313,1.668,1.668,0,0,1,1.964-.938,3.12,3.12,0,0,1,1.325.817q2.73,2.656,5.39,5.385a1.115,1.115,0,0,0,1.448.344,5.821,5.821,0,0,1,4.58,0,1.068,1.068,0,0,0,1.372-.3q5.828-5.878,11.7-11.715a6.252,6.252,0,0,1,.838-.751,1.852,1.852,0,0,1,2.6,2.534,6.2,6.2,0,0,1-.8.914q-5.818,5.824-11.651,11.631A1.147,1.147,0,0,0,62,52.277,6.422,6.422,0,0,1,55.948,61" transform="translate(-7.791 -6.371)" fill="#fd9827"/>
          <path id="Trazado_153949" data-name="Trazado 153949" d="M89.3,60.208c-.406,0-.813.02-1.217,0a1.86,1.86,0,0,1-.151-3.71,16.366,16.366,0,0,1,2.712,0,1.861,1.861,0,0,1-.127,3.711c-.4.025-.811,0-1.217,0" transform="translate(-15.514 -10.149)" fill="#fd9827"/>
          <path id="Trazado_153950" data-name="Trazado 153950" d="M60.17,89.32c0,.406.034.815-.007,1.217A1.857,1.857,0,0,1,58.233,92.3a1.817,1.817,0,0,1-1.8-1.877c-.026-.748-.024-1.5,0-2.247A1.842,1.842,0,0,1,58.2,86.264,1.885,1.885,0,0,1,60.169,88.1c.033.4,0,.811,0,1.217h0" transform="translate(-10.144 -15.512)" fill="#fd9827"/>
          <path id="Trazado_153951" data-name="Trazado 153951" d="M60.218,26.95c0,.375.02.75,0,1.124a1.837,1.837,0,0,1-1.7,1.795,1.812,1.812,0,0,1-1.99-1.585,14.173,14.173,0,0,1,0-2.9,1.784,1.784,0,0,1,2.007-1.551,1.814,1.814,0,0,1,1.685,1.8c.025.436,0,.874,0,1.311" transform="translate(-10.151 -4.285)" fill="#fd9827"/>
          <path id="Trazado_153952" data-name="Trazado 153952" d="M26.9,56.42c.375,0,.75-.016,1.124,0a1.844,1.844,0,0,1,1.857,1.739,1.816,1.816,0,0,1-1.616,1.964,15.107,15.107,0,0,1-2.8,0,1.8,1.8,0,0,1-1.617-1.958,1.82,1.82,0,0,1,1.839-1.747c.4-.02.811,0,1.217,0" transform="translate(-4.287 -10.145)" fill="#fd9827"/>
          <path id="Trazado_153953" data-name="Trazado 153953" d="M76.066,4.162a1.873,1.873,0,0,1-1.854,1.861,1.934,1.934,0,0,1-1.885-1.855,1.893,1.893,0,0,1,1.927-1.891,1.835,1.835,0,0,1,1.813,1.885" transform="translate(-13.006 -0.409)" fill="#fd9827"/>
          <path id="Trazado_153954" data-name="Trazado 153954" d="M30.845,28.961a1.862,1.862,0,0,1-1.836,1.874,1.891,1.891,0,0,1-1.911-1.9,1.923,1.923,0,0,1,1.9-1.84,1.89,1.89,0,0,1,1.851,1.87" transform="translate(-4.873 -4.872)" fill="#fd9827"/>
        </g>
      </g>
    </g>
    <rect id="Rect치ngulo_35820" data-name="Rect치ngulo 35820" width="120" height="120" transform="translate(-5546 -5196)" fill="none"/>
  </g>
</svg>
