<svg xmlns="http://www.w3.org/2000/svg" xmlns:xlink="http://www.w3.org/1999/xlink" width="120" height="120" viewBox="0 0 120 120">
  <defs>
    <clipPath id="clip-path">
      <rect id="Rect치ngulo_35584" data-name="Rect치ngulo 35584" width="98.548" height="84.718" fill="#fd9827"/>
    </clipPath>
  </defs>
  <g id="Grupo_159288" data-name="Grupo 159288" transform="translate(5708 5196)">
    <g id="Grupo_159281" data-name="Grupo 159281" transform="translate(184.233 -339.815)">
      <g id="Grupo_159278" data-name="Grupo 159278" transform="translate(-5882 -4838.686)">
        <g id="Grupo_158731" data-name="Grupo 158731" transform="translate(0 0)" clip-path="url(#clip-path)">
          <path id="Trazado_153943" data-name="Trazado 153943" d="M97.053,70.918Q80.926,44.147,64.784,17.384,60.917,10.97,57.047,4.558A8.67,8.67,0,0,0,49.7.01C45.986-.147,43.282,1.6,41.392,4.738,32.474,19.542,23.474,34.3,14.658,49.163,9.71,57.5,4.126,65.48,0,74.3v2.887a20.806,20.806,0,0,0,.734,2.139A8.79,8.79,0,0,0,9.38,84.718q39.889-.011,79.778,0c.32,0,.642,0,.962-.018a8.5,8.5,0,0,0,5.192-2c3.556-2.962,4.249-7.618,1.741-11.781m-6.862,7.311a6.449,6.449,0,0,1-1.338.088q-19.779.006-39.559,0-19.875,0-39.751,0a3.478,3.478,0,0,1-2.035-.439,2.487,2.487,0,0,1-.564-3.564q3.579-5.972,7.186-11.928C24.957,44.438,35.82,26.5,46.57,8.5c1.62-2.713,3.826-2.666,5.408-.024Q71.559,41.191,91.3,73.8a8.756,8.756,0,0,1,.607,1.088,2.382,2.382,0,0,1-1.72,3.336" transform="translate(0 0)" fill="#fd9827"/>
          <path id="Trazado_153944" data-name="Trazado 153944" d="M65.949,66.018a2.4,2.4,0,0,0,1.66,2.431,4.51,4.51,0,0,0,2.265.285c2.163-.347,3.2-1.224,3.06-3.387-.055-.86.04-1.73.059-2.6.15-6.8.69-13.581.731-20.383a4.046,4.046,0,0,0-.665-2.641A5.022,5.022,0,0,0,67.6,38.491c-1.756.619-2.484,1.791-2.457,3.874.05,3.85.182,7.695.47,12.609.094,2.966.234,7,.341,11.044" transform="translate(-20.152 -11.812)" fill="#fd9827"/>
          <path id="Trazado_153945" data-name="Trazado 153945" d="M69.465,88.431a4.588,4.588,0,0,0-.018,9.175,4.588,4.588,0,0,0,.018-9.175" transform="translate(-20.076 -27.359)" fill="#fd9827"/>
        </g>
      </g>
    </g>
    <rect id="Rect치ngulo_35819" data-name="Rect치ngulo 35819" width="120" height="120" transform="translate(-5708 -5196)" fill="none"/>
  </g>
</svg>
