<svg xmlns="http://www.w3.org/2000/svg" xmlns:xlink="http://www.w3.org/1999/xlink" width="122" height="122" viewBox="0 0 122 122">
  <defs>
    <clipPath id="clip-path">
      <rect id="Rect치ngulo_35052" data-name="Rect치ngulo 35052" width="100.267" height="99.266" fill="#fd9827"/>
    </clipPath>
  </defs>
  <g id="Grupo_158222" data-name="Grupo 158222" transform="translate(9129 8993)">
    <g id="Grupo_158220" data-name="Grupo 158220">
      <rect id="Rect치ngulo_35250" data-name="Rect치ngulo 35250" width="122" height="122" transform="translate(-9129 -8993)" fill="none"/>
      <g id="Grupo_158217" data-name="Grupo 158217" transform="translate(-9118 -8982)">
        <g id="Grupo_158017" data-name="Grupo 158017" clip-path="url(#clip-path)">
          <path id="Trazado_151894" data-name="Trazado 151894" d="M0,28.129a4.308,4.308,0,0,1,2.645-1.947c4.784-1.609,9.551-3.267,14.324-4.909.333-.114.663-.235,1.044-.37-.25-1.441-.486-2.817-.73-4.192-.408-2.305.276-3.3,2.569-3.695,5.3-.916,10.593-1.827,16.015-2.761v-4c0-1.174-.024-2.349.008-3.524a2.533,2.533,0,0,1,2.607-2.7c.326-.022.652-.013.979-.013q22.66,0,45.32-.019a4.259,4.259,0,0,1,3.226,1.275c3.667,3.576,7.385,7.1,11.115,10.61a3.365,3.365,0,0,1,1.143,2.66q-.037,31.323-.019,62.645c0,2.3-.894,3.208-3.179,3.209-4.111,0-8.236-.206-12.328.068a36.034,36.034,0,0,0-9.378,1.647c-15.711,5.483-31.344,11.194-47,16.824-2.115.76-3.247.226-4.01-1.9Q18.842,81.733,13.342,66.423a6.354,6.354,0,0,1-.237-.743,1.429,1.429,0,0,1,.917-1.81,1.392,1.392,0,0,1,1.821.879c.625,1.609,1.189,3.241,1.773,4.865q4.625,12.873,9.249,25.747c.087.242.192.478.348.864L59.341,84.677c-.013-.051-.027-.1-.04-.152q-4.228.718-8.455,1.436-9.25,1.586-18.5,3.177a2.471,2.471,0,0,1-3-2.219Q27.78,77.914,26.243,68.9q-2.793-16.284-5.58-32.57c-.7-4.108-1.412-8.215-2.148-12.493L3.07,29.135c.516,1.457,1,2.828,1.487,4.194Q8.969,45.6,13.387,57.877a4.8,4.8,0,0,1,.275.834,1.388,1.388,0,0,1-.933,1.636,1.333,1.333,0,0,1-1.706-.567,5.137,5.137,0,0,1-.453-1.077Q5.389,44.316.21,29.928A4.2,4.2,0,0,0,0,29.5V28.129m97.243,49.3V15.467c-.453,0-.839,0-1.226,0-3-.012-6.005.03-9-.056a3.3,3.3,0,0,1-3.42-3.593c-.022-2.578-.012-5.156-.02-7.734,0-.345-.031-.689-.048-1.042H38.806V4.3q0,18.4,0,36.806c0,.326.012.654-.014.978a1.337,1.337,0,0,1-1.373,1.367,1.363,1.363,0,0,1-1.5-1.237,5.523,5.523,0,0,1-.043-1.073q0-13.362,0-26.724V13.234l-15.725,2.7c4.018,23.432,8.02,46.771,12.046,70.248L65.053,80.55c0-.05-.009-.1-.012-.149H63.875q-12.432,0-24.864,0c-2.213,0-3.14-.934-3.14-3.166q0-13.851,0-27.7a4.355,4.355,0,0,1,.058-.972A1.37,1.37,0,0,1,37.4,47.382a1.356,1.356,0,0,1,1.391,1.363c.026.324.016.652.016.978q0,13.263,0,26.528v1.174ZM86.525,3.954c0,2.681.03,5.091-.017,7.5-.017.831.306,1.078,1.078,1.07,2.313-.019,4.627,0,6.939,0,.24,0,.479-.045.9-.089l-8.9-8.484" transform="translate(0 0)" fill="#fd9827"/>
          <path id="Trazado_151895" data-name="Trazado 151895" d="M86.142,58.5H106.3a5.353,5.353,0,0,1,.976.03,1.381,1.381,0,0,1,1.241,1.415,1.4,1.4,0,0,1-1.29,1.471,4.067,4.067,0,0,1-.684.019H65.645a4.136,4.136,0,0,1-.781-.025,1.457,1.457,0,0,1-.046-2.872,4.614,4.614,0,0,1,.975-.038q10.174,0,20.349,0" transform="translate(-17.704 -16.275)" fill="#fd9827"/>
          <path id="Trazado_151896" data-name="Trazado 151896" d="M86.136,44.077q10.075,0,20.151,0a7.337,7.337,0,0,1,.977.027,1.227,1.227,0,0,1,1.205,1.294,2.541,2.541,0,0,1-.905,1.439c-.261.227-.806.169-1.224.169q-20.3.011-40.595.006c-.163,0-.326.006-.489,0-1.036-.059-1.68-.671-1.636-1.553.041-.849.65-1.374,1.681-1.376q10.417-.012,20.835,0" transform="translate(-17.701 -12.263)" fill="#fd9827"/>
          <path id="Trazado_151897" data-name="Trazado 151897" d="M86.037,75.868H65.886a8.647,8.647,0,0,1-.977-.019,1.323,1.323,0,0,1-1.265-1.267,1.305,1.305,0,0,1,.957-1.511,4.311,4.311,0,0,1,1.252-.135q20.2-.01,40.4,0a4.755,4.755,0,0,1,1.161.094,1.338,1.338,0,0,1,1.093,1.519,1.352,1.352,0,0,1-1.342,1.308c-.292.024-.586.012-.88.012H86.037" transform="translate(-17.705 -20.292)" fill="#fd9827"/>
          <path id="Trazado_151898" data-name="Trazado 151898" d="M86.033,29.6q10.074,0,20.148,0a6.643,6.643,0,0,1,1.073.043,1.358,1.358,0,0,1,1.256,1.487,1.344,1.344,0,0,1-1.281,1.365,8.716,8.716,0,0,1-1.073.04q-20.1,0-40.2,0a6.856,6.856,0,0,1-1.169-.061,1.43,1.43,0,0,1-.069-2.792,5.445,5.445,0,0,1,1.165-.079q10.075-.006,20.149,0" transform="translate(-17.705 -8.235)" fill="#fd9827"/>
          <path id="Trazado_151899" data-name="Trazado 151899" d="M86.134,87.427q10.025,0,20.051,0a8.877,8.877,0,0,1,1.074.032,1.428,1.428,0,0,1,.145,2.807,4.407,4.407,0,0,1-1.065.093q-20.3.007-40.591,0a3.847,3.847,0,0,1-1.157-.13,1.193,1.193,0,0,1-.915-1.5,2.876,2.876,0,0,1,1.157-1.237c.248-.171.7-.061,1.054-.061q10.124,0,20.247,0" transform="translate(-17.7 -24.316)" fill="#fd9827"/>
        </g>
      </g>
    </g>
  </g>
</svg>
