<svg xmlns="http://www.w3.org/2000/svg" xmlns:xlink="http://www.w3.org/1999/xlink" width="292.106" height="546.229" viewBox="0 0 292.106 546.229">
  <defs>
    <clipPath id="clip-path">
      <rect id="Rectángulo_34881" data-name="Rectángulo 34881" width="145.972" height="74.468" fill="#12263f"/>
    </clipPath>
    <clipPath id="clip-path-2">
      <rect id="Rectángulo_35054" data-name="Rectángulo 35054" width="4.513" height="3.419" fill="none"/>
    </clipPath>
    <clipPath id="clip-path-3">
      <rect id="Rectángulo_35055" data-name="Rectángulo 35055" width="11.014" height="3.639" fill="none"/>
    </clipPath>
  </defs>
  <g id="Grupo_158218" data-name="Grupo 158218" transform="translate(-181.001 -5436)">
    <g id="Grupo_80272" data-name="Grupo 80272" transform="translate(182 5436)">
      <rect id="Rectángulo_34948" data-name="Rectángulo 34948" width="280.458" height="531.112" rx="140.229" transform="translate(3.826 10.063)" fill="#e7e7e8"/>
      <g id="Enmascarar_grupo_63" data-name="Enmascarar grupo 63" transform="translate(144.056 0)" clip-path="url(#clip-path)">
        <path id="Trazado_151731" data-name="Trazado 151731" d="M69.5,109.74A40.238,40.238,0,1,1,109.74,69.5,40.284,40.284,0,0,1,69.5,109.74M69.5,139A69.5,69.5,0,1,0,0,69.5,69.5,69.5,0,0,0,69.5,139Z" transform="translate(3.015 4.966)" fill="#fd9827"/>
      </g>
      <g id="Grupo_78301" data-name="Grupo 78301" transform="translate(0 0)">
        <path id="Trazado_145969" data-name="Trazado 145969" d="M41.164,0A41.164,41.164,0,1,1,0,41.164,41.164,41.164,0,0,1,41.164,0Z" transform="translate(0 2.089)" fill="#fd9827" opacity="0.444" style="mix-blend-mode: multiply;isolation: isolate"/>
        <rect id="Rectángulo_34812" data-name="Rectángulo 34812" width="290.027" height="539.928" transform="translate(0 0)" fill="none"/>
        <path id="Trazado_145971" data-name="Trazado 145971" d="M4.7,0A4.7,4.7,0,1,1,0,4.7,4.7,4.7,0,0,1,4.7,0Z" transform="translate(18.56 521.222)" fill="#31313c" opacity="0.444" style="mix-blend-mode: multiply;isolation: isolate"/>
        <g id="Grupo_80270" data-name="Grupo 80270" transform="translate(197.608 453.809)">
          <path id="Trazado_145968" data-name="Trazado 145968" d="M46.21,0A46.21,46.21,0,1,1,0,46.21,46.21,46.21,0,0,1,46.21,0Z" transform="translate(0)" fill="#31313c" opacity="0.444" style="mix-blend-mode: multiply;isolation: isolate"/>
          <g id="Grupo_78276" data-name="Grupo 78276" transform="translate(18.042 19.103)">
            <g id="Grupo_53306" data-name="Grupo 53306">
              <path id="Trazado_99200" data-name="Trazado 99200" d="M415.469,50.824a.628.628,0,1,1-.628-.6A.614.614,0,0,1,415.469,50.824Z" transform="translate(-414.214 -50.224)" fill="#fff"/>
              <path id="Trazado_99201" data-name="Trazado 99201" d="M423.915,50.824a.628.628,0,1,1-.627-.6A.614.614,0,0,1,423.915,50.824Z" transform="translate(-417.013 -50.224)" fill="#fff"/>
              <path id="Trazado_99202" data-name="Trazado 99202" d="M432.361,50.824a.628.628,0,1,1-.627-.6A.614.614,0,0,1,432.361,50.824Z" transform="translate(-419.812 -50.224)" fill="#fff"/>
              <path id="Trazado_99203" data-name="Trazado 99203" d="M440.808,50.824a.628.628,0,1,1-.628-.6A.614.614,0,0,1,440.808,50.824Z" transform="translate(-422.611 -50.224)" fill="#fff"/>
              <path id="Trazado_99204" data-name="Trazado 99204" d="M449.254,50.824a.628.628,0,1,1-.627-.6A.614.614,0,0,1,449.254,50.824Z" transform="translate(-425.41 -50.224)" fill="#fff"/>
              <path id="Trazado_99205" data-name="Trazado 99205" d="M457.7,50.824a.628.628,0,1,1-.627-.6A.614.614,0,0,1,457.7,50.824Z" transform="translate(-428.209 -50.224)" fill="#fff"/>
              <path id="Trazado_99206" data-name="Trazado 99206" d="M466.147,50.824a.628.628,0,1,1-.628-.6A.615.615,0,0,1,466.147,50.824Z" transform="translate(-431.008 -50.224)" fill="#fff"/>
              <path id="Trazado_99207" data-name="Trazado 99207" d="M474.593,50.824a.628.628,0,1,1-.627-.6A.614.614,0,0,1,474.593,50.824Z" transform="translate(-433.808 -50.224)" fill="#fff"/>
              <path id="Trazado_99208" data-name="Trazado 99208" d="M483.039,50.824a.628.628,0,1,1-.627-.6A.614.614,0,0,1,483.039,50.824Z" transform="translate(-436.606 -50.224)" fill="#fff"/>
              <path id="Trazado_99209" data-name="Trazado 99209" d="M491.486,50.824a.628.628,0,1,1-.628-.6A.615.615,0,0,1,491.486,50.824Z" transform="translate(-439.406 -50.224)" fill="#fff"/>
              <path id="Trazado_99210" data-name="Trazado 99210" d="M499.932,50.824a.628.628,0,1,1-.628-.6A.614.614,0,0,1,499.932,50.824Z" transform="translate(-442.205 -50.224)" fill="#fff"/>
            </g>
            <g id="Grupo_53307" data-name="Grupo 53307" transform="translate(0 4.801)">
              <path id="Trazado_99211" data-name="Trazado 99211" d="M415.469,58.332a.628.628,0,1,1-.628-.6A.614.614,0,0,1,415.469,58.332Z" transform="translate(-414.214 -57.732)" fill="#fff"/>
              <path id="Trazado_99212" data-name="Trazado 99212" d="M423.915,58.332a.628.628,0,1,1-.627-.6A.614.614,0,0,1,423.915,58.332Z" transform="translate(-417.013 -57.732)" fill="#fff"/>
              <path id="Trazado_99213" data-name="Trazado 99213" d="M432.361,58.332a.628.628,0,1,1-.627-.6A.614.614,0,0,1,432.361,58.332Z" transform="translate(-419.812 -57.732)" fill="#fff"/>
              <path id="Trazado_99214" data-name="Trazado 99214" d="M440.808,58.332a.628.628,0,1,1-.628-.6A.614.614,0,0,1,440.808,58.332Z" transform="translate(-422.611 -57.732)" fill="#fff"/>
              <path id="Trazado_99215" data-name="Trazado 99215" d="M449.254,58.332a.628.628,0,1,1-.627-.6A.614.614,0,0,1,449.254,58.332Z" transform="translate(-425.41 -57.732)" fill="#fff"/>
              <path id="Trazado_99216" data-name="Trazado 99216" d="M457.7,58.332a.628.628,0,1,1-.627-.6A.614.614,0,0,1,457.7,58.332Z" transform="translate(-428.209 -57.732)" fill="#fff"/>
              <path id="Trazado_99217" data-name="Trazado 99217" d="M466.147,58.332a.628.628,0,1,1-.628-.6A.615.615,0,0,1,466.147,58.332Z" transform="translate(-431.008 -57.732)" fill="#fff"/>
              <path id="Trazado_99218" data-name="Trazado 99218" d="M474.593,58.332a.628.628,0,1,1-.627-.6A.614.614,0,0,1,474.593,58.332Z" transform="translate(-433.808 -57.732)" fill="#fff"/>
              <path id="Trazado_99219" data-name="Trazado 99219" d="M483.039,58.332a.628.628,0,1,1-.627-.6A.614.614,0,0,1,483.039,58.332Z" transform="translate(-436.606 -57.732)" fill="#fff"/>
              <path id="Trazado_99220" data-name="Trazado 99220" d="M491.486,58.332a.628.628,0,1,1-.628-.6A.615.615,0,0,1,491.486,58.332Z" transform="translate(-439.406 -57.732)" fill="#fff"/>
              <path id="Trazado_99221" data-name="Trazado 99221" d="M499.932,58.332a.628.628,0,1,1-.628-.6A.614.614,0,0,1,499.932,58.332Z" transform="translate(-442.205 -57.732)" fill="#fff"/>
            </g>
            <g id="Grupo_53308" data-name="Grupo 53308" transform="translate(0 9.601)">
              <ellipse id="Elipse_3955" data-name="Elipse 3955" cx="0.627" cy="0.6" rx="0.627" ry="0.6" fill="#fff"/>
              <path id="Trazado_99222" data-name="Trazado 99222" d="M423.915,65.84a.628.628,0,1,1-.627-.6A.614.614,0,0,1,423.915,65.84Z" transform="translate(-417.013 -65.24)" fill="#fff"/>
              <ellipse id="Elipse_3956" data-name="Elipse 3956" cx="0.627" cy="0.6" rx="0.627" ry="0.6" transform="translate(11.294)" fill="#fff"/>
              <path id="Trazado_99223" data-name="Trazado 99223" d="M440.808,65.84a.628.628,0,1,1-.628-.6A.615.615,0,0,1,440.808,65.84Z" transform="translate(-422.611 -65.24)" fill="#fff"/>
              <path id="Trazado_99224" data-name="Trazado 99224" d="M449.254,65.84a.628.628,0,1,1-.627-.6A.615.615,0,0,1,449.254,65.84Z" transform="translate(-425.41 -65.24)" fill="#fff"/>
              <ellipse id="Elipse_3957" data-name="Elipse 3957" cx="0.627" cy="0.6" rx="0.627" ry="0.6" transform="translate(28.236)" fill="#fff"/>
              <path id="Trazado_99225" data-name="Trazado 99225" d="M466.147,65.84a.628.628,0,1,1-.628-.6A.615.615,0,0,1,466.147,65.84Z" transform="translate(-431.008 -65.24)" fill="#fff"/>
              <ellipse id="Elipse_3958" data-name="Elipse 3958" cx="0.627" cy="0.6" rx="0.627" ry="0.6" transform="translate(39.531)" fill="#fff"/>
              <ellipse id="Elipse_3959" data-name="Elipse 3959" cx="0.627" cy="0.6" rx="0.627" ry="0.6" transform="translate(45.178)" fill="#fff"/>
              <path id="Trazado_99226" data-name="Trazado 99226" d="M491.486,65.84a.628.628,0,1,1-.628-.6A.615.615,0,0,1,491.486,65.84Z" transform="translate(-439.406 -65.24)" fill="#fff"/>
              <path id="Trazado_99227" data-name="Trazado 99227" d="M499.932,65.84a.628.628,0,1,1-.628-.6A.615.615,0,0,1,499.932,65.84Z" transform="translate(-442.205 -65.24)" fill="#fff"/>
            </g>
            <g id="Grupo_53309" data-name="Grupo 53309" transform="translate(0 14.401)">
              <ellipse id="Elipse_3960" data-name="Elipse 3960" cx="0.627" cy="0.6" rx="0.627" ry="0.6" transform="translate(0 0)" fill="#fff"/>
              <path id="Trazado_99228" data-name="Trazado 99228" d="M423.915,73.347a.628.628,0,1,1-.627-.6A.614.614,0,0,1,423.915,73.347Z" transform="translate(-417.013 -72.747)" fill="#fff"/>
              <ellipse id="Elipse_3961" data-name="Elipse 3961" cx="0.627" cy="0.6" rx="0.627" ry="0.6" transform="translate(11.294 0)" fill="#fff"/>
              <path id="Trazado_99229" data-name="Trazado 99229" d="M440.808,73.347a.628.628,0,1,1-.628-.6A.614.614,0,0,1,440.808,73.347Z" transform="translate(-422.611 -72.747)" fill="#fff"/>
              <path id="Trazado_99230" data-name="Trazado 99230" d="M449.254,73.347a.628.628,0,1,1-.627-.6A.614.614,0,0,1,449.254,73.347Z" transform="translate(-425.41 -72.747)" fill="#fff"/>
              <ellipse id="Elipse_3962" data-name="Elipse 3962" cx="0.627" cy="0.6" rx="0.627" ry="0.6" transform="translate(28.236 0)" fill="#fff"/>
              <path id="Trazado_99231" data-name="Trazado 99231" d="M466.147,73.347a.628.628,0,1,1-.628-.6A.615.615,0,0,1,466.147,73.347Z" transform="translate(-431.008 -72.747)" fill="#fff"/>
              <ellipse id="Elipse_3963" data-name="Elipse 3963" cx="0.627" cy="0.6" rx="0.627" ry="0.6" transform="translate(39.531 0)" fill="#fff"/>
              <ellipse id="Elipse_3964" data-name="Elipse 3964" cx="0.627" cy="0.6" rx="0.627" ry="0.6" transform="translate(45.178 0)" fill="#fff"/>
              <path id="Trazado_99232" data-name="Trazado 99232" d="M491.486,73.347a.628.628,0,1,1-.628-.6A.615.615,0,0,1,491.486,73.347Z" transform="translate(-439.406 -72.747)" fill="#fff"/>
              <path id="Trazado_99233" data-name="Trazado 99233" d="M499.932,73.347a.628.628,0,1,1-.628-.6A.614.614,0,0,1,499.932,73.347Z" transform="translate(-442.205 -72.747)" fill="#fff"/>
            </g>
            <g id="Grupo_53310" data-name="Grupo 53310" transform="translate(0 19.202)">
              <path id="Trazado_99234" data-name="Trazado 99234" d="M415.469,80.855a.628.628,0,1,1-.628-.6A.614.614,0,0,1,415.469,80.855Z" transform="translate(-414.214 -80.255)" fill="#fff"/>
              <path id="Trazado_99235" data-name="Trazado 99235" d="M423.915,80.855a.628.628,0,1,1-.627-.6A.614.614,0,0,1,423.915,80.855Z" transform="translate(-417.013 -80.255)" fill="#fff"/>
              <path id="Trazado_99236" data-name="Trazado 99236" d="M432.361,80.855a.628.628,0,1,1-.627-.6A.614.614,0,0,1,432.361,80.855Z" transform="translate(-419.812 -80.255)" fill="#fff"/>
              <path id="Trazado_99237" data-name="Trazado 99237" d="M440.808,80.855a.628.628,0,1,1-.628-.6A.614.614,0,0,1,440.808,80.855Z" transform="translate(-422.611 -80.255)" fill="#fff"/>
              <path id="Trazado_99238" data-name="Trazado 99238" d="M449.254,80.855a.628.628,0,1,1-.627-.6A.614.614,0,0,1,449.254,80.855Z" transform="translate(-425.41 -80.255)" fill="#fff"/>
              <path id="Trazado_99239" data-name="Trazado 99239" d="M457.7,80.855a.628.628,0,1,1-.627-.6A.614.614,0,0,1,457.7,80.855Z" transform="translate(-428.209 -80.255)" fill="#fff"/>
              <path id="Trazado_99240" data-name="Trazado 99240" d="M466.147,80.855a.628.628,0,1,1-.628-.6A.615.615,0,0,1,466.147,80.855Z" transform="translate(-431.008 -80.255)" fill="#fff"/>
              <path id="Trazado_99241" data-name="Trazado 99241" d="M474.593,80.855a.628.628,0,1,1-.627-.6A.614.614,0,0,1,474.593,80.855Z" transform="translate(-433.808 -80.255)" fill="#fff"/>
              <path id="Trazado_99242" data-name="Trazado 99242" d="M483.039,80.855a.628.628,0,1,1-.627-.6A.614.614,0,0,1,483.039,80.855Z" transform="translate(-436.606 -80.255)" fill="#fff"/>
              <path id="Trazado_99243" data-name="Trazado 99243" d="M491.486,80.855a.628.628,0,1,1-.628-.6A.615.615,0,0,1,491.486,80.855Z" transform="translate(-439.406 -80.255)" fill="#fff"/>
              <path id="Trazado_99244" data-name="Trazado 99244" d="M499.932,80.855a.628.628,0,1,1-.628-.6A.614.614,0,0,1,499.932,80.855Z" transform="translate(-442.205 -80.255)" fill="#fff"/>
            </g>
            <g id="Grupo_53311" data-name="Grupo 53311" transform="translate(0 24.002)">
              <ellipse id="Elipse_3965" data-name="Elipse 3965" cx="0.627" cy="0.6" rx="0.627" ry="0.6" transform="translate(0 0)" fill="#fff"/>
              <path id="Trazado_99245" data-name="Trazado 99245" d="M423.915,88.363a.628.628,0,1,1-.627-.6A.614.614,0,0,1,423.915,88.363Z" transform="translate(-417.013 -87.763)" fill="#fff"/>
              <ellipse id="Elipse_3966" data-name="Elipse 3966" cx="0.627" cy="0.6" rx="0.627" ry="0.6" transform="translate(11.294 0)" fill="#fff"/>
              <path id="Trazado_99246" data-name="Trazado 99246" d="M440.808,88.363a.628.628,0,1,1-.628-.6A.614.614,0,0,1,440.808,88.363Z" transform="translate(-422.611 -87.763)" fill="#fff"/>
              <path id="Trazado_99247" data-name="Trazado 99247" d="M449.254,88.363a.628.628,0,1,1-.627-.6A.614.614,0,0,1,449.254,88.363Z" transform="translate(-425.41 -87.763)" fill="#fff"/>
              <ellipse id="Elipse_3967" data-name="Elipse 3967" cx="0.627" cy="0.6" rx="0.627" ry="0.6" transform="translate(28.236 0)" fill="#fff"/>
              <path id="Trazado_99248" data-name="Trazado 99248" d="M466.147,88.363a.628.628,0,1,1-.628-.6A.615.615,0,0,1,466.147,88.363Z" transform="translate(-431.008 -87.763)" fill="#fff"/>
              <ellipse id="Elipse_3968" data-name="Elipse 3968" cx="0.627" cy="0.6" rx="0.627" ry="0.6" transform="translate(39.531 0)" fill="#fff"/>
              <ellipse id="Elipse_3969" data-name="Elipse 3969" cx="0.627" cy="0.6" rx="0.627" ry="0.6" transform="translate(45.178 0)" fill="#fff"/>
              <path id="Trazado_99249" data-name="Trazado 99249" d="M491.486,88.363a.628.628,0,1,1-.628-.6A.615.615,0,0,1,491.486,88.363Z" transform="translate(-439.406 -87.763)" fill="#fff"/>
              <path id="Trazado_99250" data-name="Trazado 99250" d="M499.932,88.363a.628.628,0,1,1-.628-.6A.614.614,0,0,1,499.932,88.363Z" transform="translate(-442.205 -87.763)" fill="#fff"/>
            </g>
            <g id="Grupo_53312" data-name="Grupo 53312" transform="translate(0 28.803)">
              <ellipse id="Elipse_3970" data-name="Elipse 3970" cx="0.627" cy="0.6" rx="0.627" ry="0.6" fill="#fff"/>
              <path id="Trazado_99251" data-name="Trazado 99251" d="M423.915,95.871a.628.628,0,1,1-.627-.6A.614.614,0,0,1,423.915,95.871Z" transform="translate(-417.013 -95.271)" fill="#fff"/>
              <ellipse id="Elipse_3971" data-name="Elipse 3971" cx="0.627" cy="0.6" rx="0.627" ry="0.6" transform="translate(11.294)" fill="#fff"/>
              <path id="Trazado_99252" data-name="Trazado 99252" d="M440.808,95.871a.628.628,0,1,1-.628-.6A.614.614,0,0,1,440.808,95.871Z" transform="translate(-422.611 -95.271)" fill="#fff"/>
              <path id="Trazado_99253" data-name="Trazado 99253" d="M449.254,95.871a.628.628,0,1,1-.627-.6A.614.614,0,0,1,449.254,95.871Z" transform="translate(-425.41 -95.271)" fill="#fff"/>
              <ellipse id="Elipse_3972" data-name="Elipse 3972" cx="0.627" cy="0.6" rx="0.627" ry="0.6" transform="translate(28.236)" fill="#fff"/>
              <path id="Trazado_99254" data-name="Trazado 99254" d="M466.147,95.871a.628.628,0,1,1-.628-.6A.615.615,0,0,1,466.147,95.871Z" transform="translate(-431.008 -95.271)" fill="#fff"/>
              <ellipse id="Elipse_3973" data-name="Elipse 3973" cx="0.627" cy="0.6" rx="0.627" ry="0.6" transform="translate(39.531)" fill="#fff"/>
              <ellipse id="Elipse_3974" data-name="Elipse 3974" cx="0.627" cy="0.6" rx="0.627" ry="0.6" transform="translate(45.178)" fill="#fff"/>
              <path id="Trazado_99255" data-name="Trazado 99255" d="M491.486,95.871a.628.628,0,1,1-.628-.6A.615.615,0,0,1,491.486,95.871Z" transform="translate(-439.406 -95.271)" fill="#fff"/>
              <path id="Trazado_99256" data-name="Trazado 99256" d="M499.932,95.871a.628.628,0,1,1-.628-.6A.614.614,0,0,1,499.932,95.871Z" transform="translate(-442.205 -95.271)" fill="#fff"/>
            </g>
            <g id="Grupo_53313" data-name="Grupo 53313" transform="translate(0 33.604)">
              <path id="Trazado_99257" data-name="Trazado 99257" d="M415.469,103.379a.628.628,0,1,1-.628-.6A.614.614,0,0,1,415.469,103.379Z" transform="translate(-414.214 -102.779)" fill="#fff"/>
              <path id="Trazado_99258" data-name="Trazado 99258" d="M423.915,103.379a.628.628,0,1,1-.627-.6A.614.614,0,0,1,423.915,103.379Z" transform="translate(-417.013 -102.779)" fill="#fff"/>
              <path id="Trazado_99259" data-name="Trazado 99259" d="M432.361,103.379a.628.628,0,1,1-.627-.6A.614.614,0,0,1,432.361,103.379Z" transform="translate(-419.812 -102.779)" fill="#fff"/>
              <path id="Trazado_99260" data-name="Trazado 99260" d="M440.808,103.379a.628.628,0,1,1-.628-.6A.614.614,0,0,1,440.808,103.379Z" transform="translate(-422.611 -102.779)" fill="#fff"/>
              <path id="Trazado_99261" data-name="Trazado 99261" d="M449.254,103.379a.628.628,0,1,1-.627-.6A.614.614,0,0,1,449.254,103.379Z" transform="translate(-425.41 -102.779)" fill="#fff"/>
              <path id="Trazado_99262" data-name="Trazado 99262" d="M457.7,103.379a.628.628,0,1,1-.627-.6A.614.614,0,0,1,457.7,103.379Z" transform="translate(-428.209 -102.779)" fill="#fff"/>
              <path id="Trazado_99263" data-name="Trazado 99263" d="M466.147,103.379a.628.628,0,1,1-.628-.6A.615.615,0,0,1,466.147,103.379Z" transform="translate(-431.008 -102.779)" fill="#fff"/>
              <path id="Trazado_99264" data-name="Trazado 99264" d="M474.593,103.379a.628.628,0,1,1-.627-.6A.614.614,0,0,1,474.593,103.379Z" transform="translate(-433.808 -102.779)" fill="#fff"/>
              <path id="Trazado_99265" data-name="Trazado 99265" d="M483.039,103.379a.628.628,0,1,1-.627-.6A.614.614,0,0,1,483.039,103.379Z" transform="translate(-436.606 -102.779)" fill="#fff"/>
              <path id="Trazado_99266" data-name="Trazado 99266" d="M491.486,103.379a.628.628,0,1,1-.628-.6A.615.615,0,0,1,491.486,103.379Z" transform="translate(-439.406 -102.779)" fill="#fff"/>
              <path id="Trazado_99267" data-name="Trazado 99267" d="M499.932,103.379a.628.628,0,1,1-.628-.6A.614.614,0,0,1,499.932,103.379Z" transform="translate(-442.205 -102.779)" fill="#fff"/>
            </g>
            <g id="Grupo_53314" data-name="Grupo 53314" transform="translate(0 38.404)">
              <ellipse id="Elipse_3975" data-name="Elipse 3975" cx="0.627" cy="0.6" rx="0.627" ry="0.6" fill="#fff"/>
              <path id="Trazado_99268" data-name="Trazado 99268" d="M423.915,110.887a.628.628,0,1,1-.627-.6A.614.614,0,0,1,423.915,110.887Z" transform="translate(-417.013 -110.287)" fill="#fff"/>
              <ellipse id="Elipse_3976" data-name="Elipse 3976" cx="0.627" cy="0.6" rx="0.627" ry="0.6" transform="translate(11.294)" fill="#fff"/>
              <path id="Trazado_99269" data-name="Trazado 99269" d="M440.808,110.887a.628.628,0,1,1-.628-.6A.615.615,0,0,1,440.808,110.887Z" transform="translate(-422.611 -110.287)" fill="#fff"/>
              <path id="Trazado_99270" data-name="Trazado 99270" d="M449.254,110.887a.628.628,0,1,1-.627-.6A.615.615,0,0,1,449.254,110.887Z" transform="translate(-425.41 -110.287)" fill="#fff"/>
              <ellipse id="Elipse_3977" data-name="Elipse 3977" cx="0.627" cy="0.6" rx="0.627" ry="0.6" transform="translate(28.236)" fill="#fff"/>
              <path id="Trazado_99271" data-name="Trazado 99271" d="M466.147,110.887a.628.628,0,1,1-.628-.6A.615.615,0,0,1,466.147,110.887Z" transform="translate(-431.008 -110.287)" fill="#fff"/>
              <ellipse id="Elipse_3978" data-name="Elipse 3978" cx="0.627" cy="0.6" rx="0.627" ry="0.6" transform="translate(39.531)" fill="#fff"/>
              <ellipse id="Elipse_3979" data-name="Elipse 3979" cx="0.627" cy="0.6" rx="0.627" ry="0.6" transform="translate(45.178)" fill="#fff"/>
              <path id="Trazado_99272" data-name="Trazado 99272" d="M491.486,110.887a.628.628,0,1,1-.628-.6A.615.615,0,0,1,491.486,110.887Z" transform="translate(-439.406 -110.287)" fill="#fff"/>
              <path id="Trazado_99273" data-name="Trazado 99273" d="M499.932,110.887a.628.628,0,1,1-.628-.6A.615.615,0,0,1,499.932,110.887Z" transform="translate(-442.205 -110.287)" fill="#fff"/>
            </g>
            <g id="Grupo_53315" data-name="Grupo 53315" transform="translate(0 43.204)">
              <path id="Trazado_99274" data-name="Trazado 99274" d="M415.469,118.394a.628.628,0,1,1-.628-.6A.615.615,0,0,1,415.469,118.394Z" transform="translate(-414.214 -117.794)" fill="#fff"/>
              <path id="Trazado_99275" data-name="Trazado 99275" d="M423.915,118.394a.628.628,0,1,1-.627-.6A.614.614,0,0,1,423.915,118.394Z" transform="translate(-417.013 -117.794)" fill="#fff"/>
              <path id="Trazado_99276" data-name="Trazado 99276" d="M432.361,118.394a.628.628,0,1,1-.627-.6A.614.614,0,0,1,432.361,118.394Z" transform="translate(-419.812 -117.794)" fill="#fff"/>
              <path id="Trazado_99277" data-name="Trazado 99277" d="M440.808,118.394a.628.628,0,1,1-.628-.6A.615.615,0,0,1,440.808,118.394Z" transform="translate(-422.611 -117.794)" fill="#fff"/>
              <path id="Trazado_99278" data-name="Trazado 99278" d="M449.254,118.394a.628.628,0,1,1-.627-.6A.615.615,0,0,1,449.254,118.394Z" transform="translate(-425.41 -117.794)" fill="#fff"/>
              <path id="Trazado_99279" data-name="Trazado 99279" d="M457.7,118.394a.628.628,0,1,1-.627-.6A.614.614,0,0,1,457.7,118.394Z" transform="translate(-428.209 -117.794)" fill="#fff"/>
              <path id="Trazado_99280" data-name="Trazado 99280" d="M466.147,118.394a.628.628,0,1,1-.628-.6A.615.615,0,0,1,466.147,118.394Z" transform="translate(-431.008 -117.794)" fill="#fff"/>
              <path id="Trazado_99281" data-name="Trazado 99281" d="M474.593,118.394a.628.628,0,1,1-.627-.6A.614.614,0,0,1,474.593,118.394Z" transform="translate(-433.808 -117.794)" fill="#fff"/>
              <path id="Trazado_99282" data-name="Trazado 99282" d="M483.039,118.394a.628.628,0,1,1-.627-.6A.614.614,0,0,1,483.039,118.394Z" transform="translate(-436.606 -117.794)" fill="#fff"/>
              <path id="Trazado_99283" data-name="Trazado 99283" d="M491.486,118.394a.628.628,0,1,1-.628-.6A.615.615,0,0,1,491.486,118.394Z" transform="translate(-439.406 -117.794)" fill="#fff"/>
              <path id="Trazado_99284" data-name="Trazado 99284" d="M499.932,118.394a.628.628,0,1,1-.628-.6A.615.615,0,0,1,499.932,118.394Z" transform="translate(-442.205 -117.794)" fill="#fff"/>
            </g>
            <g id="Grupo_53316" data-name="Grupo 53316" transform="translate(0 48.005)">
              <ellipse id="Elipse_3980" data-name="Elipse 3980" cx="0.627" cy="0.6" rx="0.627" ry="0.6" transform="translate(0 0)" fill="#fff"/>
              <path id="Trazado_99285" data-name="Trazado 99285" d="M423.915,125.9a.628.628,0,1,1-.627-.6A.614.614,0,0,1,423.915,125.9Z" transform="translate(-417.013 -125.302)" fill="#fff"/>
              <ellipse id="Elipse_3981" data-name="Elipse 3981" cx="0.627" cy="0.6" rx="0.627" ry="0.6" transform="translate(11.294 0)" fill="#fff"/>
              <path id="Trazado_99286" data-name="Trazado 99286" d="M440.808,125.9a.628.628,0,1,1-.628-.6A.614.614,0,0,1,440.808,125.9Z" transform="translate(-422.611 -125.302)" fill="#fff"/>
              <path id="Trazado_99287" data-name="Trazado 99287" d="M449.254,125.9a.628.628,0,1,1-.627-.6A.614.614,0,0,1,449.254,125.9Z" transform="translate(-425.41 -125.302)" fill="#fff"/>
              <ellipse id="Elipse_3982" data-name="Elipse 3982" cx="0.627" cy="0.6" rx="0.627" ry="0.6" transform="translate(28.236 0)" fill="#fff"/>
              <path id="Trazado_99288" data-name="Trazado 99288" d="M466.147,125.9a.628.628,0,1,1-.628-.6A.615.615,0,0,1,466.147,125.9Z" transform="translate(-431.008 -125.302)" fill="#fff"/>
              <ellipse id="Elipse_3983" data-name="Elipse 3983" cx="0.627" cy="0.6" rx="0.627" ry="0.6" transform="translate(39.531 0)" fill="#fff"/>
              <ellipse id="Elipse_3984" data-name="Elipse 3984" cx="0.627" cy="0.6" rx="0.627" ry="0.6" transform="translate(45.178 0)" fill="#fff"/>
              <path id="Trazado_99289" data-name="Trazado 99289" d="M491.486,125.9a.628.628,0,1,1-.628-.6A.615.615,0,0,1,491.486,125.9Z" transform="translate(-439.406 -125.302)" fill="#fff"/>
              <path id="Trazado_99290" data-name="Trazado 99290" d="M499.932,125.9a.628.628,0,1,1-.628-.6A.614.614,0,0,1,499.932,125.9Z" transform="translate(-442.205 -125.302)" fill="#fff"/>
            </g>
            <g id="Grupo_53317" data-name="Grupo 53317" transform="translate(0 52.806)">
              <ellipse id="Elipse_3985" data-name="Elipse 3985" cx="0.627" cy="0.6" rx="0.627" ry="0.6" transform="translate(0 0)" fill="#fff"/>
              <path id="Trazado_99291" data-name="Trazado 99291" d="M423.915,133.41a.628.628,0,1,1-.627-.6A.614.614,0,0,1,423.915,133.41Z" transform="translate(-417.013 -132.81)" fill="#fff"/>
              <ellipse id="Elipse_3986" data-name="Elipse 3986" cx="0.627" cy="0.6" rx="0.627" ry="0.6" transform="translate(11.294 0)" fill="#fff"/>
              <path id="Trazado_99292" data-name="Trazado 99292" d="M440.808,133.41a.628.628,0,1,1-.628-.6A.614.614,0,0,1,440.808,133.41Z" transform="translate(-422.611 -132.81)" fill="#fff"/>
              <path id="Trazado_99293" data-name="Trazado 99293" d="M449.254,133.41a.628.628,0,1,1-.627-.6A.614.614,0,0,1,449.254,133.41Z" transform="translate(-425.41 -132.81)" fill="#fff"/>
              <ellipse id="Elipse_3987" data-name="Elipse 3987" cx="0.627" cy="0.6" rx="0.627" ry="0.6" transform="translate(28.236 0)" fill="#fff"/>
              <path id="Trazado_99294" data-name="Trazado 99294" d="M466.147,133.41a.628.628,0,1,1-.628-.6A.614.614,0,0,1,466.147,133.41Z" transform="translate(-431.008 -132.81)" fill="#fff"/>
              <ellipse id="Elipse_3988" data-name="Elipse 3988" cx="0.627" cy="0.6" rx="0.627" ry="0.6" transform="translate(39.531 0)" fill="#fff"/>
              <ellipse id="Elipse_3989" data-name="Elipse 3989" cx="0.627" cy="0.6" rx="0.627" ry="0.6" transform="translate(45.178 0)" fill="#fff"/>
              <path id="Trazado_99295" data-name="Trazado 99295" d="M491.486,133.41a.628.628,0,1,1-.628-.6A.614.614,0,0,1,491.486,133.41Z" transform="translate(-439.406 -132.81)" fill="#fff"/>
              <path id="Trazado_99296" data-name="Trazado 99296" d="M499.932,133.41a.628.628,0,1,1-.628-.6A.614.614,0,0,1,499.932,133.41Z" transform="translate(-442.205 -132.81)" fill="#fff"/>
            </g>
          </g>
        </g>
        <line id="Línea_138" data-name="Línea 138" y2="100.505" transform="translate(10.078 231.054)" fill="none" stroke="#31313c" stroke-linecap="round" stroke-width="4" stroke-dasharray="8"/>
      </g>
    </g>
    <g id="Grupo_158194" data-name="Grupo 158194" transform="translate(144.26 5521.001)">
      <g id="Grupo_158195" data-name="Grupo 158195">
        <path id="Trazado_151904" data-name="Trazado 151904" d="M56.585,36.572A13.914,13.914,0,1,1,42.67,22.657,13.915,13.915,0,0,1,56.585,36.572" transform="translate(18.42 14.512)" fill="#539380"/>
        <path id="Trazado_151905" data-name="Trazado 151905" d="M37.359,40.33h0a1.355,1.355,0,0,1-.955-.4L33,36.524A1.349,1.349,0,0,1,34.9,34.617l2.456,2.456L46.928,27.5a1.35,1.35,0,1,1,1.908,1.91L38.314,39.935a1.355,1.355,0,0,1-.955.4" transform="translate(20.881 17.364)" fill="#fff"/>
        <path id="Trazado_151906" data-name="Trazado 151906" d="M189.3,39.29A28.162,28.162,0,1,1,167.181,6.166,28.162,28.162,0,0,1,189.3,39.29" transform="translate(85.516 3.598)" fill="#539380"/>
        <path id="Trazado_151907" data-name="Trazado 151907" d="M147.767,39.529a2.685,2.685,0,0,1-.546-.056,2.723,2.723,0,0,1-1.878-1.427l-3.135-6.129a2.723,2.723,0,0,1,4.849-2.48l1.585,3.1,18.62-15.495a2.723,2.723,0,1,1,3.484,4.187L149.509,38.9a2.729,2.729,0,0,1-1.742.63" transform="translate(90.896 10.51)" fill="#fff"/>
        <path id="Trazado_151908" data-name="Trazado 151908" d="M182.509,27.9a.7.7,0,0,1,.678.881,31.182,31.182,0,0,1-33,23.149.721.721,0,0,1-.66-.612.7.7,0,0,1,.753-.783,29.781,29.781,0,0,0,31.556-22.108.7.7,0,0,1,.676-.528" transform="translate(95.771 17.867)" fill="#539380"/>
        <path id="Trazado_151909" data-name="Trazado 151909" d="M138.863,28.765l-7.02,17.5a1.678,1.678,0,0,0,2.121,2.2l18.612-6.638Z" transform="translate(84.37 18.425)" fill="#539380"/>
        <path id="Trazado_151910" data-name="Trazado 151910" d="M107.382,201.619c2.723,1.956,7.033,3.99,13.48,6.04,36.623,11.653,70.2-7.158,70.2-7.158,2.029-10.029.774-21.427-2.605-25.6a3.681,3.681,0,0,0,.359-3.253l33.7-34.989c-19.166,15.885-42.875,21.082-61.331,32.238h-.01c-5.317,3.212-10.1,6.044-13.6,8.011-5.346,3-12.173,3.3-18.86,2.375-13.036-1.8-25.54-8.224-25.54-8.224s-41.973-19.025-49.844-18.39c-6.119.491,26.808,34.871,54.046,48.948" transform="translate(33.688 87.535)" fill="#31313c"/>
        <path id="Trazado_151911" data-name="Trazado 151911" d="M133.98,196.712s-10.8-3.1-14.122-6.611l-7.507,17.675,25.556,7.976s.356-15.528-3.927-19.04" transform="translate(71.964 121.765)" fill="#eaad8f"/>
        <path id="Trazado_151912" data-name="Trazado 151912" d="M188.947,253.9l-33.037-73.33a11.223,11.223,0,0,0-4.508.87c-6.408,2.336-15.418,8.774-21.222,12.555-.676.446-1.312.853-1.893,1.209a23.492,23.492,0,0,1-2.449,1.367c-5.094,2.3-2.19,6.411-2.19,6.411,10.619,4.142,3.493,17.46,9.282,20.754,0,0,2.467,1.431,10.327,4.894s15.779,11.805,23.1,18.645c9.451,8.833,15.385,9.871,18.786,9.064a6.282,6.282,0,0,0,3.8-2.438" transform="translate(78.672 115.651)" fill="#fff"/>
        <path id="Trazado_151913" data-name="Trazado 151913" d="M177.789,253.9l-33.037-73.33a11.223,11.223,0,0,0-4.508.87l33.744,74.9a6.281,6.281,0,0,0,3.8-2.438" transform="translate(89.83 115.651)" fill="#f0e8e0"/>
        <path id="Trazado_151914" data-name="Trazado 151914" d="M157.148,185.978l-.981-2.179a17.642,17.642,0,0,1-9.966,9.231c-7.405,2.912-14.248.764-18.154-1.109-.676.446-1.311.853-1.892,1.209,3.955,2.134,11.874,5.168,20.744,1.686a19.524,19.524,0,0,0,10.248-8.839" transform="translate(80.806 117.728)" fill="#f0e8e0"/>
        <path id="Trazado_151915" data-name="Trazado 151915" d="M138.566,208.22a1.327,1.327,0,0,0-2.515.783l.927,5.094a1.326,1.326,0,0,0,2.608-.474l-.927-5.094a1.432,1.432,0,0,0-.094-.308" transform="translate(87.131 132.871)" fill="#171612"/>
        <path id="Trazado_151916" data-name="Trazado 151916" d="M134.991,206.492a1.326,1.326,0,0,0-2.513.783l.929,5.092a1.324,1.324,0,1,0,2.605-.474l-.925-5.092a1.569,1.569,0,0,0-.1-.308" transform="translate(84.842 131.765)" fill="#171612"/>
        <path id="Trazado_151917" data-name="Trazado 151917" d="M141.445,210.281a1.325,1.325,0,0,0-2.512.783l.927,5.094a1.325,1.325,0,0,0,2.607-.474l-.927-5.094a1.3,1.3,0,0,0-.1-.308" transform="translate(88.977 134.191)" fill="#171612"/>
        <path id="Trazado_151918" data-name="Trazado 151918" d="M144.264,212.37a1.325,1.325,0,0,0-2.512.783l.925,5.094a1.326,1.326,0,0,0,2.608-.474l-.927-5.094a1.375,1.375,0,0,0-.1-.308" transform="translate(90.783 135.53)" fill="#171612"/>
        <path id="Trazado_151919" data-name="Trazado 151919" d="M147.078,214.764a1.325,1.325,0,0,0-2.512.783l.927,5.094a1.325,1.325,0,1,0,2.607-.476l-.927-5.092a1.3,1.3,0,0,0-.1-.308" transform="translate(92.585 137.063)" fill="#171612"/>
        <path id="Trazado_151920" data-name="Trazado 151920" d="M149.8,217.512a1.325,1.325,0,0,0-2.512.783l.927,5.094a1.325,1.325,0,1,0,2.607-.474l-.927-5.094a1.3,1.3,0,0,0-.1-.308" transform="translate(94.326 138.823)" fill="#171612"/>
        <path id="Trazado_151921" data-name="Trazado 151921" d="M72.68,149.332S46.115,135,30.728,146.077c-28.138,20.264,19.606,59.248,74.222,78.284S177.3,240.8,177.3,240.8s11.868-3.265,7.656-22.5c0,0-31.482-11.969-47.864-24.508s-27.548-27.9-64.414-44.465" transform="translate(14.345 90.874)" fill="#31313c"/>
        <path id="Trazado_151922" data-name="Trazado 151922" d="M164.058,218.766c-11.454-2.753-34.8-13.461-62.442-28.64C80.943,178.771,57.1,164.261,53.6,159.229c-1.89-2.718-2.366-4.943-1.416-6.61,1.422-2.494,5.519-2.751,7.386-2.733a.831.831,0,0,1-.007,1.662c-1.836-.013-5.03.3-5.937,1.895-.753,1.324.312,3.361,1.337,4.838,2.822,4.059,22.78,16.838,47.456,30.389,21.246,11.667,48.7,25.277,62.03,28.481Z" transform="translate(33.12 96.006)" fill="#12263f"/>
        <path id="Trazado_151923" data-name="Trazado 151923" d="M122.634,187.079c-1.289,10.109-3.909,19.3-9.62,26.344,0,0,4.889,3.522,9.354,1,3.412-1.929,9.989-17.718,7.482-26.147-2.853-1.559-5.315-2.1-7.217-1.193" transform="translate(72.389 119.546)" fill="#12263f"/>
        <path id="Trazado_151924" data-name="Trazado 151924" d="M77.926,196.906s10.573-3.819,13.649-7.54l8.67,17.134L75.28,216.166s-1.393-15.469,2.646-19.26" transform="translate(48.07 121.294)" fill="#eaad8f"/>
        <path id="Trazado_151925" data-name="Trazado 151925" d="M41.37,256.993l28.065-75.374a11.247,11.247,0,0,1,4.556.568c6.551,1.9,15.969,7.724,22.016,11.108.7.4,1.363.764,1.967,1.081a23.563,23.563,0,0,0,2.536,1.2c5.235,1.949,2.613,6.25,2.613,6.25-10.321,4.843-2.32,17.655-7.876,21.328,0,0-2.366,1.591-9.978,5.573s-14.953,12.832-21.806,20.146c-8.839,9.445-14.691,10.877-18.138,10.3a6.288,6.288,0,0,1-3.955-2.179" transform="translate(26.499 116.293)" fill="#fff"/>
        <path id="Trazado_151926" data-name="Trazado 151926" d="M41.37,256.993l28.065-75.374a11.247,11.247,0,0,1,4.556.568L45.325,259.171a6.288,6.288,0,0,1-3.955-2.179" transform="translate(26.499 116.293)" fill="#f0e8e0"/>
        <path id="Trazado_151927" data-name="Trazado 151927" d="M56.732,187.156l.833-2.239a17.647,17.647,0,0,0,10.562,8.546c7.583,2.41,14.266-.189,18.038-2.32.705.4,1.367.763,1.969,1.079-3.8,2.4-11.5,5.95-20.585,3.068a19.516,19.516,0,0,1-10.816-8.134" transform="translate(36.338 118.444)" fill="#f0e8e0"/>
        <path id="Trazado_151928" data-name="Trazado 151928" d="M65.969,208.857a1.326,1.326,0,0,1,2.559.614l-.584,5.143a1.325,1.325,0,1,1-2.633-.3l.584-5.145a1.3,1.3,0,0,1,.074-.313" transform="translate(41.828 133.227)" fill="#171612"/>
        <path id="Trazado_151929" data-name="Trazado 151929" d="M69.422,206.894a1.326,1.326,0,0,1,2.559.614l-.586,5.143a1.325,1.325,0,1,1-2.633-.3l.584-5.143a1.3,1.3,0,0,1,.075-.315" transform="translate(44.039 131.969)" fill="#171612"/>
        <path id="Trazado_151930" data-name="Trazado 151930" d="M63.233,211.107a1.326,1.326,0,0,1,2.559.614l-.584,5.143a1.326,1.326,0,1,1-2.635-.3l.586-5.145a1.323,1.323,0,0,1,.074-.313" transform="translate(40.075 134.667)" fill="#171612"/>
        <path id="Trazado_151931" data-name="Trazado 151931" d="M60.561,213.379a1.326,1.326,0,0,1,2.559.614l-.584,5.143a1.326,1.326,0,0,1-2.635-.3l.584-5.145a1.306,1.306,0,0,1,.075-.313" transform="translate(38.363 136.123)" fill="#171612"/>
        <path id="Trazado_151932" data-name="Trazado 151932" d="M57.913,215.956a1.325,1.325,0,0,1,2.558.614l-.584,5.143a1.325,1.325,0,1,1-2.633-.3l.584-5.143a1.245,1.245,0,0,1,.075-.315" transform="translate(36.667 137.774)" fill="#171612"/>
        <path id="Trazado_151933" data-name="Trazado 151933" d="M55.384,218.879a1.326,1.326,0,0,1,2.559.614l-.584,5.143a1.326,1.326,0,1,1-2.635-.3l.584-5.145a1.389,1.389,0,0,1,.075-.313" transform="translate(35.047 139.646)" fill="#171612"/>
        <path id="Trazado_151934" data-name="Trazado 151934" d="M190.894,143.255s25.138-16.712,41.477-7.09c29.877,17.6-14.09,60.8-66.73,84.763S95.1,243.936,95.1,243.936s-12.115-2.164-9.687-21.7c0,0,30.251-14.807,45.415-28.8s24.87-30.31,60.063-50.185" transform="translate(54.506 85.305)" fill="#31313c"/>
        <path id="Trazado_151935" data-name="Trazado 151935" d="M139.651,192.163c-2.9.953-5.845,1.911-8.887,2.869-11.777,3.706-25.223,7.587-37.4,10.578l-.044,1.741c11-2.681,23.9-6.316,37.944-10.736,2.741-.863,5.538-1.77,8.344-2.694Z" transform="translate(59.773 123.086)" fill="#12263f"/>
        <path id="Trazado_151936" data-name="Trazado 151936" d="M87.1,221.3c11.154-3.793,33.416-16.6,59.551-34.248,19.545-13.2,41.96-29.84,44.982-35.17,1.632-2.881,1.9-5.14.8-6.711-1.645-2.354-5.748-2.234-7.605-2.046a.831.831,0,0,0,.159,1.655c1.826-.182,5.036-.162,6.086,1.342.871,1.25,0,3.376-.888,4.94-2.438,4.3-21.14,18.858-44.468,34.613-20.088,13.569-46.178,29.639-59.156,34.052Z" transform="translate(55.449 91.617)" fill="#12263f"/>
        <path id="Trazado_151937" data-name="Trazado 151937" d="M90.6,185.782c2.211,9.948,5.663,18.858,12,25.351,0,0-4.546,3.954-9.225,1.849-3.575-1.608-11.572-16.727-9.85-25.351,2.7-1.814,5.1-2.581,7.077-1.849" transform="translate(53.347 118.822)" fill="#12263f"/>
        <path id="Trazado_151938" data-name="Trazado 151938" d="M246.527,61.418a13.206,13.206,0,0,0-18.38,3.338l-.176.248-1.37,1.982-1.434,2.038-2.919,4.08c-1.952,2.692-3.944,5.368-5.95,8.007a.316.316,0,0,1-.034.048c-.407.532-.805,1.058-1.224,1.588v0c-3.652,4.764-7.392,9.425-11.225,13.9-2.307,2.692-4.653,5.328-7.023,7.837-.3.317-.6.633-.9.952-1.691,1.764-3.4,3.458-5.107,5.05a65.194,65.194,0,0,1-6.432,5.346c-.5.351-.981.673-1.434.955-.84-.5-1.79-1.12-2.774-1.8-1.114-.769-2.277-1.622-3.45-2.521q-.79-.6-1.58-1.232c-.325-.258-.651-.513-.976-.779-3.926-3.16-7.914-6.695-11.845-10.334q-5.1-4.73-10.114-9.733c-.4-.394-.805-.792-1.2-1.194q-1.459-1.449-2.9-2.923-3.514-3.563-6.969-7.2l-3.429-3.639-1.691-1.823-1.609-1.764-.136-.151c-.3-.317-.6-.628-.917-.929A19.4,19.4,0,1,0,106.582,98.9l2.019,1.918,1.96,1.841,3.931,3.626q3.942,3.6,7.943,7.135c5.346,4.713,10.791,9.353,16.441,13.907,3.489,2.8,7.025,5.556,10.749,8.27.354.261.71.518,1.07.776,2,1.442,4.059,2.871,6.2,4.283,1.644,1.079,3.343,2.154,5.15,3.215q1.233.726,2.548,1.442c.367.2.743.4,1.125.6q1.058.556,2.2,1.107c1.083.51,2.182,1.015,3.448,1.511.026.013.056.021.082.034.33.125.633.249.984.372l1.053.372c.338.12.758.244,1.139.359l.587.176.4.112.551.141a22.577,22.577,0,0,0,4.285.646c.7.048,1.34.048,2,.039.622-.021,1.276-.051,1.854-.116a27.437,27.437,0,0,0,6.131-1.344,32.4,32.4,0,0,0,4.361-1.849l.18-.09c1.327-.681,2.508-1.383,3.6-2.088a57.036,57.036,0,0,0,5.714-4.277c1.125-.955,2.192-1.9,3.206-2.863.566-.532,1.109-1.058,1.644-1.588,1.4-1.38,2.705-2.758,3.977-4.139A203.042,203.042,0,0,0,227.149,115c4.269-5.87,8.265-11.8,12.114-17.787q1.021-1.592,2.029-3.189c.21-.325.415-.655.62-.979q1.523-2.426,3.014-4.867,1.388-2.274,2.753-4.567l1.365-2.307,1.388-2.394a13.256,13.256,0,0,0-3.9-17.493m-65.829,56.5c-.223.072-.343.072-.248,0,.013-.01.029-.018.043-.026a.327.327,0,0,1,.072-.034c.039-.013.133-.056.2-.072a3.279,3.279,0,0,1,.577-.133,5.212,5.212,0,0,1-.646.261" transform="translate(64.404 37.833)" fill="#314fa5"/>
        <path id="Trazado_151939" data-name="Trazado 151939" d="M155.484,99.472a20.814,20.814,0,0,1-5.115,4.726c-4.562,2.836-10.132,2.846-13.616-1.627-3.621-4.657-4.884-11.505-5.384-17.229a46.836,46.836,0,0,1-.021-7.911c.4.4.8.8,1.2,1.194a44.275,44.275,0,0,0-.043,4.477c.226,5.684,1.34,12.084,4.208,17.088,1.583,2.766,4.07,4.872,7.4,4.785a12.743,12.743,0,0,0,7.825-3.56,24.146,24.146,0,0,0,2.572-2.723c.326.266.651.522.976.779" transform="translate(84.031 49.597)" fill="#5880eb"/>
        <path id="Trazado_151940" data-name="Trazado 151940" d="M146.554,117.967c-.381-.2-.758-.4-1.125-.6,1.043-3.591,1.831-7.876.03-10.941-3.16-5.378-10.411-.8-13.925,2-.359-.256-.714-.513-1.07-.774q.906-.746,1.87-1.417c3.66-2.559,9.837-5.706,13.523-1.463,3,3.455,1.865,9.044.7,13.2" transform="translate(83.566 65.775)" fill="#5880eb"/>
        <path id="Trazado_151941" data-name="Trazado 151941" d="M179.364,85.371c-.18,5.637-1.258,12.5-5.963,16.253-4.456,3.553-10.012,1.375-13.277-2.676a16.6,16.6,0,0,1-1.46-2.118q.455-.475.9-.95a15.163,15.163,0,0,0,2.343,3.163c2.126,2.2,5.2,3.836,8.3,2.876,2.548-.787,4.349-3.025,5.5-5.328,2.636-5.278,2.522-11.507,2.3-17.25-.069-1.734-.146-3.468-.194-5.2v0c.42-.53.819-1.057,1.225-1.588a.4.4,0,0,0,.033-.046c.052,4.285.425,8.578.292,12.867" transform="translate(101.629 46.441)" fill="#5880eb"/>
        <path id="Trazado_151942" data-name="Trazado 151942" d="M200.152,80.069c-.205.325-.412.655-.62.981-4.418-2.282-10.47,2.392-13.616,5.363a53.4,53.4,0,0,0-9.948,13.029c-4.182,7.538-6.733,15.761-8.578,24.147-.535.53-1.078,1.056-1.644,1.588,2.239-10.749,5.517-21.33,11.64-30.537,3.312-4.992,7.482-9.828,12.537-13.116,3.043-1.982,7.076-2.992,10.23-1.455" transform="translate(106.164 50.809)" fill="#5880eb"/>
        <path id="Trazado_151943" data-name="Trazado 151943" d="M167.15,113.954a32.42,32.42,0,0,1-4.362,1.849,27.4,27.4,0,0,1-6.129,1.344c-.577.066-1.232.1-1.854.116-.663.008-1.3.008-2-.039a22.579,22.579,0,0,1-4.285-.646l-.551-.141-.4-.112-.586-.174c-.381-.116-.8-.241-1.139-.361l-1.053-.372c-.351-.123-.655-.248-.984-.372-.026-.011-.056-.021-.082-.034a24.725,24.725,0,0,1,12.739-3.612,19.264,19.264,0,0,1,10.693,2.556" transform="translate(92.055 71.35)" fill="#1c2b74"/>
        <path id="Trazado_151944" data-name="Trazado 151944" d="M152.283,94.368a15.614,15.614,0,0,0-5.4,7.389c-.328.938,1.162,1.342,1.486.41a13.786,13.786,0,0,1,4.69-6.469c.781-.591.013-1.931-.778-1.33" transform="translate(94.054 60.348)" fill="#1c2b74"/>
        <path id="Trazado_151945" data-name="Trazado 151945" d="M146.438,97.011a5.438,5.438,0,0,1,4.715-.233c.9.384,1.688-.943.778-1.33a7.105,7.105,0,0,0-6.27.233c-.876.464-.1,1.795.778,1.33" transform="translate(93.053 60.742)" fill="#1c2b74"/>
        <path id="Trazado_151946" data-name="Trazado 151946" d="M178.71,209.635a62.444,62.444,0,0,1-17.721,12.845c-.4.2-.805.4-1.212.584a74.384,74.384,0,0,1-12.258,4.466,95.287,95.287,0,0,1-43.75,1.047c-.538-.11-1.078-.225-1.613-.345a96.532,96.532,0,0,1-11.772-3.443,83.158,83.158,0,0,1-13.977-6.574q-.92-.536-1.821-1.114a69.993,69.993,0,0,1-6.37-4.508c4.031-17.987,6.344-26.974,7.346-33.5.085-.553.164-1.083.226-1.6.817-6.339.292-10.672-1.124-20.144-1.255-8.4-4.4-20.525-8.654-33.034-.151-.448-.3-.894-.461-1.34-.389-1.132-.786-2.272-1.2-3.4-.2-.561-.407-1.119-.615-1.68-1.519-4.151-3.156-8.288-4.871-12.271C51.405,88.227,50.2,68.627,68.154,62.636c11.733-3.911,21.926-6.3,21.926-6.3l41.274,3.417a101.791,101.791,0,0,1,16.812,2.953c.459.136.91.277,1.339.423,11.71,3.908,11.374,10.575,14.013,24.529,3.594,19,14,36.536,11.426,45.784-.1.336-.194.671-.305,1-.128.4-.269.8-.415,1.194-2.5,6.618-7.466,12.337-9.376,14.384-.486.522-.774.8-.774.8l.015.125c.03.31.066.637.11.976.164,1.314.389,2.864.681,4.628.423,2.577.9,5.177,1.422,7.76.112.525.218,1.052.333,1.577,3.978,19.017,10.042,36.85,10.949,38.871q.571,2.446,1.127,4.871" transform="translate(34.417 36.086)" fill="#314fa5"/>
        <path id="Trazado_151947" data-name="Trazado 151947" d="M119.366,72.962c1.2,8.429,4.095,16.379,7.423,24.175,3.637,8.518,7.425,17.555,5.855,27.015-.2,1.212,1.655,1.734,1.857.512,1.48-8.916-1.373-17.508-4.82-25.633-3.66-8.629-7.128-17.239-8.459-26.58-.174-1.222-2.029-.7-1.857.512" transform="translate(76.45 45.96)" fill="#1c2b74"/>
        <path id="Trazado_151948" data-name="Trazado 151948" d="M136.085,128.078c-.128.4-.269.8-.415,1.194-7.86-2.482-14.5-8.924-17.931-16.6-6.546-14.63-3.36-30.9-.141-45.933.171-.81,1.413-.463,1.237.343-3.019,14.1-6.073,29.218-.719,43.164,3.12,8.132,9.824,15.263,17.969,17.828" transform="translate(72.97 42.455)" fill="#5880eb"/>
        <path id="Trazado_151949" data-name="Trazado 151949" d="M98.416,118.268c-2.49,15.327-14.186,29.042-27.467,36.4.085-.551.162-1.083.226-1.6A55.59,55.59,0,0,0,88.22,137.825c8.012-10.932,15.263-29.564.817-38.536-9-5.6-18.868-3.836-27.643.6-.149-.446-.3-.891-.458-1.335a37.02,37.02,0,0,1,12.127-3.883A25.23,25.23,0,0,1,91.7,99.592c5.8,4.572,7.884,11.489,6.72,18.676" transform="translate(39.031 60.509)" fill="#5880eb"/>
        <path id="Trazado_151950" data-name="Trazado 151950" d="M125.874,125.955a51.072,51.072,0,0,0-7.939,44.235,52.433,52.433,0,0,0,4.026,10.132c-.4.2-.8.4-1.211.584a53.976,53.976,0,0,1-4.969-35.77,52.29,52.29,0,0,1,11.494-22.979c.11.527.217,1.053.331,1.578-.6.725-1.176,1.458-1.732,2.22" transform="translate(73.443 78.245)" fill="#5880eb"/>
        <path id="Trazado_151951" data-name="Trazado 151951" d="M94.442,170.37c-.54-.108-1.079-.225-1.614-.345a46.072,46.072,0,0,0-24.1-21.532c-.76-.3-.428-1.532.344-1.237A47.415,47.415,0,0,1,94.155,169.8c.1.189.19.379.287.573" transform="translate(43.744 94.293)" fill="#5880eb"/>
        <path id="Trazado_151952" data-name="Trazado 151952" d="M106.807,122.767c-7.256,4.493-13.582,10.337-17.6,17.946-3.184,6.026-7.033,15.957-1,21.509,6.851,6.3,16.528.917,22.136-4.246,6.377-5.87,12.2-14.824,12.06-23.791-.064-4.1-1.757-8.537-5.123-11.064-3.207-2.405-7.013-1.951-10.471-.354-.75.346-.1,1.454.648,1.109,3.468-1.6,7.218-1.727,10.048,1.142a13.7,13.7,0,0,1,3.591,10.271c-.369,7.812-5.225,15.487-10.67,20.836-5.2,5.109-14.868,11.407-21.534,4.968-5.4-5.21-1.273-14.809,1.693-20.238,3.927-7.192,9.96-12.7,16.871-16.979.7-.435.057-1.545-.648-1.109" transform="translate(54.463 77.788)" fill="#5880eb"/>
        <path id="Trazado_151953" data-name="Trazado 151953" d="M137.773,89.178c-7.98,14.524-25.879,11.617-38.173,4.881A74.9,74.9,0,0,1,68.057,60.367c-.351-.742.758-1.4,1.109-.646A73.826,73.826,0,0,0,83.108,79.894c9.554,9.8,23.85,19.668,38.208,18.538,7.9-.62,14.005-5.68,16.779-13.008,2.987-7.9,1.977-16.5.937-24.669.463.136.912.279,1.34.423,1.181,9.374,2.123,19.394-2.6,28" transform="translate(43.549 38.04)" fill="#5880eb"/>
        <path id="Trazado_151954" data-name="Trazado 151954" d="M105.7,92.056C100.121,93.117,92.422,96.9,91.143,103.1c-1.2,5.829,5.337,8.268,10.019,7.986,5.54-.331,12.179-3.813,13.821-9.512,1.595-5.534-4.026-9.774-9.113-9.541-.824.038-.827,1.322,0,1.285,5.156-.236,10.032,4.415,7.153,9.582-2.407,4.318-7.709,6.844-12.521,6.928-5.038.089-10.613-3.455-7.017-8.959,2.733-4.18,7.779-6.665,12.555-7.574.81-.154.468-1.393-.341-1.239" transform="translate(58.286 58.943)" fill="#5880eb"/>
        <path id="Trazado_151955" data-name="Trazado 151955" d="M80.756,165.452c-3.611,13.434-6.592,26.926-8.969,40.659-.615-.358-1.221-.728-1.821-1.114,2.361-13.526,5.309-26.823,8.872-40.062C83.881,146.187,61.225,77.241,61,76.542a.994.994,0,0,1,1.888-.622c.942,2.859,23.071,70.21,17.872,89.532" transform="translate(39.037 48.191)" fill="#1c2b74"/>
        <path id="Trazado_151956" data-name="Trazado 151956" d="M133.71,156.523a84.977,84.977,0,0,1-28.038,3.655,129.541,129.541,0,0,1-28.532-3.88,1.016,1.016,0,0,1,.546-1.957,127.471,127.471,0,0,0,28.074,3.806c14.131.3,33.66-2.036,46.46-14.852a1.016,1.016,0,1,1,1.439,1.435,49.3,49.3,0,0,1-19.949,11.792" transform="translate(48.934 91.594)" fill="#1c2b74"/>
        <path id="Trazado_151957" data-name="Trazado 151957" d="M142.393,114.736c.03.308.069.635.113.978-5.8,1.3-13.255,1.465-22.032-.248a50.125,50.125,0,0,0-31.57,4.682.848.848,0,0,1-.43.118.868.868,0,0,1-.435-1.622,51.025,51.025,0,0,1,32.77-4.882c9.1,1.775,16.681,1.5,22.346.048-.487.522-.774.806-.774.806,0,.038.008.077.013.121" transform="translate(56.111 72.304)" fill="#1c2b74"/>
        <path id="Trazado_151958" data-name="Trazado 151958" d="M114.743,82.146c-10.588,0-32.192-15.163-33.106-15.81a.869.869,0,0,1,1-1.421c.22.156,22.065,15.491,32.1,15.491,9.6,0,11.733-10.491,11.754-10.6a.869.869,0,0,1,1.706.328c-.023.12-2.436,12.009-13.461,12.009" transform="translate(52.056 41.478)" fill="#1c2b74"/>
        <path id="Trazado_151959" data-name="Trazado 151959" d="M211.415,77.517S205.639,91.6,197.774,93.094c-6.621,1.255-15.549-10.531-15.549-10.531-3.348-5.666-3.512-8.706-3.729-14.606s9.643-10.234,9.643-10.234S199.3,36.968,203.147,35.94s-4.392,19.586-4.392,19.586a3.779,3.779,0,0,1,3.619-.12c2.9,1.286,9.208,6.885,11.587,11.021,2.128,3.7-2.546,11.09-2.546,11.09" transform="translate(114.33 22.996)" fill="#eaad8f"/>
        <path id="Trazado_151960" data-name="Trazado 151960" d="M180.463,62.156c4.518-.961,10.26-1.749,13.844-4.94,1.326-1.18,2.628-3.242,1.7-5.028-.9-1.732-3.345-1.96-5.017-2.325-.8-.176-1.147,1.06-.34,1.235,1.724.376,4.451.505,4.193,2.8-.236,2.111-2.531,3.319-4.288,4.1a52.194,52.194,0,0,1-10.43,2.925c-.807.172-.468,1.406.34,1.235" transform="translate(115.078 31.928)" fill="#b4665e"/>
        <path id="Trazado_151961" data-name="Trazado 151961" d="M188.917,53.808a36.67,36.67,0,0,0,14.968,11.556c.76.318,1.089-.92.341-1.235a35.035,35.035,0,0,1-14.2-10.967c-.5-.645-1.608-.007-1.106.646" transform="translate(120.925 33.88)" fill="#b4665e"/>
        <path id="Trazado_151962" data-name="Trazado 151962" d="M193.045,58.036A15.5,15.5,0,0,0,187.2,72.02c.08.812,1.362.82,1.281,0a14.355,14.355,0,0,1,5.465-13.078c.64-.518-.271-1.421-.906-.906" transform="translate(119.855 37.075)" fill="#b4665e"/>
        <path id="Trazado_151963" data-name="Trazado 151963" d="M191.367,58.512c1.665-3.137,3.447-6.375,6.2-8.693.632-.532-.279-1.434-.906-.906-2.833,2.384-4.689,5.727-6.4,8.952-.386.727.719,1.375,1.106.646" transform="translate(121.816 31.228)" fill="#b4665e"/>
        <path id="Trazado_151964" data-name="Trazado 151964" d="M193.866,61.323a35.029,35.029,0,0,1,6.27-8.98c.568-.6-.336-1.5-.906-.9a36.125,36.125,0,0,0-6.47,9.238c-.353.742.751,1.393,1.106.646" transform="translate(123.424 32.822)" fill="#b4665e"/>
        <path id="Trazado_151965" data-name="Trazado 151965" d="M196.357,61.481c-.061.092-.121.185-.18.277l1.106.646a18.561,18.561,0,0,1,5.028-7.062c.623-.541-.285-1.444-.906-.906a19.269,19.269,0,0,0-5.228,7.322.641.641,0,0,0,1.106.646c.061-.092.12-.185.18-.277.449-.694-.658-1.335-1.106-.646" transform="translate(125.616 34.762)" fill="#b4665e"/>
        <path id="Trazado_151966" data-name="Trazado 151966" d="M191.133,48.145a16.109,16.109,0,0,0-2.426,4.984.64.64,0,0,0,1.234.34,15.087,15.087,0,0,1,2.3-4.677c.472-.678-.637-1.319-1.106-.646" transform="translate(120.856 30.656)" fill="#b4665e"/>
        <path id="Trazado_151967" data-name="Trazado 151967" d="M97.473,64.667a17.583,17.583,0,0,0-23.929,3.86c-.558.743-1.068,1.411-1.583,2.121l-1.545,2.087c-1.024,1.394-2.026,2.8-3.037,4.2a.171.171,0,0,1-.028.034c-.279.39-.563.784-.838,1.178-.046.062-.087.123-.13.184-1.675,2.343-3.3,4.708-4.951,7.072-1.974,2.83-3.883,5.7-5.809,8.58l-2.866,4.331-2.825,4.37-.057.092q-.421.652-.833,1.306-3.184,5-6.273,10.13c-.213.348-.425.7-.633,1.05q-1.595,2.665-3.158,5.366c-1.767,3.081-3.521,6.2-5.225,9.454-.85,1.627-1.7,3.283-2.528,4.992-.236.482-.468.968-.7,1.458-.162.341-.322.684-.484,1.034-.433.932-.865,1.893-1.288,2.892-.4.951-.807,1.936-1.211,2.992s-.8,2.169-1.2,3.448c-.162.535-.33,1.091-.487,1.7-.235.851-.454,1.806-.659,2.956a26.17,26.17,0,0,0-.382,3.724l0,.287,0,.331.013.661c.007.261.016.345.021.492l.034.405.069.815.046.4.049.363c.067.473.143.95.23,1.426.085.435.177.853.269,1.28s.2.8.305,1.183L26,163.5l.084.285.08.261.34,1.04c.112.354.233.645.351.97.233.656.474,1.239.719,1.824a55,55,0,0,0,3.066,6.132c.189.326.377.655.568.978,1.516,2.574,3.074,4.913,4.657,7.143.226.317.453.633.678.945.2.277.4.554.6.827,2.093,2.853,4.246,5.553,6.418,8.173.133.166.269.326.405.491.167.2.336.4.5.6,4.482,5.309,9.113,10.291,13.869,15.122.843.86,1.693,1.706,2.554,2.551q.512.512,1.042,1.024c1.291,1.273,2.6,2.531,3.909,3.781q1.914,1.8,3.852,3.578c.65.591,1.306,1.173,1.962,1.757l1,.886,1.037.9a11.721,11.721,0,0,0,17.127-15.8l-.164-.217L84.78,198.8q-.792-1.061-1.572-2.121c-.244-.333-.487-.664-.732-.993q-1.794-2.448-3.563-4.9c-3.414-4.718-6.762-9.449-9.915-14.171-.246-.369-.492-.743-.74-1.116l-.5-.763q-1.181-1.769-2.292-3.539c-.24-.377-.474-.756-.709-1.135-.679-1.094-1.344-2.187-1.988-3.268-.774-1.306-1.5-2.608-2.184-3.875s-1.3-2.5-1.834-3.67c-.381-.855-.727-1.683-.984-2.4.112-.248.241-.532.382-.833.246-.515.527-1.084.83-1.672.61-1.183,1.293-2.466,2.029-3.76s1.514-2.631,2.321-3.968c.748-1.245,1.519-2.507,2.3-3.767.236-.379.474-.761.714-1.14q1.009-1.612,2.051-3.225c1.749-2.735,3.55-5.478,5.373-8.217s3.68-5.486,5.535-8.235l3.653-5.36.712-1.048,1.258-1.842,5.688-8.249,5.7-8.252,5.645-8.2.015-.021a17.536,17.536,0,0,0-4.5-24.395M57.424,155.494l.007.087.008.179.007.1a2.1,2.1,0,0,1-.074-.285c-.018-.077-.054-.179-.059-.233a1.463,1.463,0,0,0-.028-.18l-.008-.046,0-.025v-.046c.007-.03,0-.074.013-.051.013.007.016.007.023.023a.642.642,0,0,1,.052.171l.008.046.018.085c.013.057.021.12.03.177" transform="translate(15.888 39.448)" fill="#314fa5"/>
        <path id="Trazado_151968" data-name="Trazado 151968" d="M57.156,83.724c-2.608,7.044-9.722,14.107-17.578,14.351q.413-.655.835-1.307c7.054-.705,13.293-7.212,15.628-13.6a20.625,20.625,0,0,0,.879-10.847c.043-.061.084-.121.13-.184.276-.394.559-.787.84-1.178a22.077,22.077,0,0,1-.733,12.762" transform="translate(25.351 45.453)" fill="#5880eb"/>
        <path id="Trazado_151969" data-name="Trazado 151969" d="M69.3,95.677l-.712,1.048a10.854,10.854,0,0,0-10.115-2.371c-4.69,1.288-8.057,5.609-9.3,10.165-1.657,6.088-.057,11.9,2.8,17.244-.24.379-.479.761-.714,1.14-3.729-6.767-5.716-14.245-2.193-21.648,2.034-4.275,5.934-7.819,10.754-8.426A12.094,12.094,0,0,1,69.3,95.677" transform="translate(30.254 59.399)" fill="#5880eb"/>
        <path id="Trazado_151970" data-name="Trazado 151970" d="M61.147,128.845c-1.042.326-2.08.625-3.1.9-8.541,2.274-19.355,4.447-25.825,10.978l-.678-.947c5.271-5.186,13.1-7.871,20.195-9.7,2.735-.705,5.717-1.452,8.7-2.366.235.379.469.758.709,1.135" transform="translate(20.205 81.802)" fill="#5880eb"/>
        <path id="Trazado_151971" data-name="Trazado 151971" d="M67.345,152.2a15.812,15.812,0,0,1-3.086,1.7c-3.993,1.624-8.308,1.048-10.992-2.53-3.9-5.187-5.491-15.282-.873-20.347.248.374.494.748.74,1.117-4.167,4.925-2.4,14.7,1.718,19.186,3.252,3.545,8.232,2.3,11.761-.117.244.328.487.661.732.993" transform="translate(31.751 83.924)" fill="#5880eb"/>
        <path id="Trazado_151972" data-name="Trazado 151972" d="M54.611,161.047c-.353-.341-.7-.682-1.043-1.024a15.023,15.023,0,0,0-6.5-15.644,14.13,14.13,0,0,0-9.925-2.029l-.505-.6c-.136-.164-.272-.325-.4-.491a15.329,15.329,0,0,1,11.528,2.079,16.345,16.345,0,0,1,6.846,17.706" transform="translate(23.211 90.261)" fill="#5880eb"/>
        <path id="Trazado_151973" data-name="Trazado 151973" d="M43.174,109.813a13.232,13.232,0,0,1-15.181,7.205c.162-.349.322-.692.484-1.032a11.578,11.578,0,0,0,4.976.1,12.335,12.335,0,0,0,9.34-8.908c1.2-4.7-.159-8.849-2.7-12.461.208-.351.42-.7.632-1.05,3.5,4.7,5.246,10.178,2.451,16.149" transform="translate(17.93 59.994)" fill="#5880eb"/>
        <path id="Trazado_151974" data-name="Trazado 151974" d="M63.9,102.195a.8.8,0,0,0,.6-.346C69.77,94.178,84.333,74.7,84.479,74.506a.8.8,0,1,0-1.286-.961c-.146.2-14.727,19.7-20.013,27.4a.8.8,0,0,0,.719,1.255" transform="translate(40.378 46.901)" fill="#1c2b74"/>
        <path id="Trazado_151975" data-name="Trazado 151975" d="M24.814,122.587c.007.259.018.345.026.491l.03.405.072.814.043.405.052.363c.067.476.144.951.228,1.426.085.435.177.855.272,1.278s.2.8.3,1.188l.157.571.082.284.08.261.34,1.037c.113.354.23.648.349.973.235.653.476,1.235.719,1.824a55.976,55.976,0,0,0,3.065,6.131q.285.495.571.979c.8-12.85-2.159-21.214-5.355-26.388-.231.85-.454,1.808-.659,2.953a26.051,26.051,0,0,0-.379,3.724l0,.289,0,.331Z" transform="translate(15.888 73.422)" fill="#1c2b74"/>
        <path id="Trazado_151976" data-name="Trazado 151976" d="M49.011,121.793a.687.687,0,0,0,.374-1.247c-.213-.151-5.3-3.716-10.932-4.223a.687.687,0,0,0-.123,1.368c5.26.472,10.212,3.941,10.262,3.975a.67.67,0,0,0,.42.126" transform="translate(24.151 74.506)" fill="#1c2b74"/>
        <path id="Trazado_151977" data-name="Trazado 151977" d="M45.868,121.814a.722.722,0,0,0,.223-.046.687.687,0,0,0,.394-.888,16.7,16.7,0,0,0-3.895-5.351.687.687,0,0,0-.922,1.019,15.59,15.59,0,0,1,3.535,4.826.688.688,0,0,0,.664.44" transform="translate(26.545 73.886)" fill="#1c2b74"/>
        <path id="Trazado_151978" data-name="Trazado 151978" d="M71.677,148.108a59.624,59.624,0,0,1,9.079.592c3.644.661,4.713,1.985,4.713,1.985l.392,6.729a26.97,26.97,0,0,1,8.527,1.053c4.328,1.321,7.414,4.91,9.377,6.329s-1.49,3.471-5.069,2.111a28.961,28.961,0,0,0-8.107-1.921,26.971,26.971,0,0,1,6.933,3.23c2.487,1.89,7.971,5.169,7.441,7.35s-5.706-.449-9.385-1.622-5.222-2.249-8.426-2.538a20.835,20.835,0,0,1,5.122,3.307c1.609,1.695,4.807,4.667,5.566,6.308s-3.5,2.074-6.872-.054-4.761-4.784-7.238-4.611a48.225,48.225,0,0,1,3.462,4.039c1.276,1.762,2.653,7.069.765,7.637s-6.309-5.73-9.43-6.756a158.987,158.987,0,0,1-16.263-6.593,18.058,18.058,0,0,1-8.862-9.141,4.067,4.067,0,0,1,.067-3.42,26.209,26.209,0,0,1,18.208-14.013" transform="translate(33.985 94.866)" fill="#eaad8f"/>
        <path id="Trazado_151979" data-name="Trazado 151979" d="M108.2,8.629S84.925,3.381,75.877,18.236s1.488,38.1,1.488,38.1-.84,6.044-12.988,10.957-6.5,24.386,6.032,21.652c0,0,4.461,17.877,17.9,7.8S122.089,89.5,122.089,89.5s7.586,6.462,16.374,2.067,2.584-11.116,2.584-11.116,9.113,4.1,14.487-4.643c5.7-9.279-9.543-16.213-10.867-20.95-4.81-17.193,1.916-13.543,8.565-23.038,8.114-11.6-7.317-21.2-14.081-12.589,0,0,10.135-10.142-1.519-17.393C126.988-4.788,108.2,8.629,108.2,8.629" transform="translate(36.917 0)" fill="#171612"/>
        <path id="Trazado_151980" data-name="Trazado 151980" d="M105.725,27.181s3.291-.051,4.346,4.046-.32,11.256-4.62,10.839.274-14.885.274-14.885" transform="translate(66.365 17.41)" fill="#c6695d"/>
        <path id="Trazado_151981" data-name="Trazado 151981" d="M99.4,43.375a9.148,9.148,0,1,1,9.149,9.148A9.159,9.159,0,0,1,99.4,43.375m1.657,0a7.492,7.492,0,1,0,7.492-7.492,7.5,7.5,0,0,0-7.492,7.492" transform="translate(63.668 21.923)" fill="#fff"/>
        <line id="Línea_157" data-name="Línea 157" y2="0.003" transform="translate(163.898 78.093)" fill="#eaad8f"/>
        <path id="Trazado_151982" data-name="Trazado 151982" d="M79.606,68.124S86.391,78.26,98.754,78.777c15.706.656,16.794-6.195,16.794-6.195a29.419,29.419,0,0,1-1.885-6.288c-.156-.838-.285-1.7-.389-2.6a71.56,71.56,0,0,1-.387-8.272q0-1.1.02-2.28V53.05C101.929,51.6,92.673,47.738,85.865,40.441l-1.706-.8-1.15-.54-.136.646.408,1.97c1.944,9.267.622,17.24-3.675,26.4" transform="translate(50.99 25.048)" fill="#eaad8f"/>
        <path id="Trazado_151983" data-name="Trazado 151983" d="M88.46,44.481c2.786,4.887,8.962,13.4,19.145,15.769a71.193,71.193,0,0,1-.387-8.272c0-.732,0-1.495.02-2.279-.208.046-.425.085-.64.121-5.8.981-12.455-1.385-18.138-5.34" transform="translate(56.661 28.491)" fill="#171612"/>
        <path id="Trazado_151984" data-name="Trazado 151984" d="M78.562,62.819S80,49.536,82.178,49.29s9.868,8.452,19.808,7.884,12.079-7.615,14.232-4.73,2.805,12.734,2.805,12.734-1.362,8.8-12.542,9.487S80.542,66.611,78.562,62.819" transform="translate(50.321 31.568)" fill="#314fa5"/>
        <path id="Trazado_151985" data-name="Trazado 151985" d="M83.253,50.74c-2.612,4.41-3.3,9.622-3.316,14.666a.849.849,0,0,0,1.7,0c.016-4.751.622-9.651,3.083-13.808a.849.849,0,0,0-1.465-.858" transform="translate(51.202 32.239)" fill="#5880eb"/>
        <path id="Trazado_151986" data-name="Trazado 151986" d="M86.011,52.683a38.658,38.658,0,0,0-2.646,15.362.849.849,0,0,0,1.7,0,37.456,37.456,0,0,1,2.585-14.911c.418-1.007-1.224-1.447-1.637-.451" transform="translate(53.397 33.385)" fill="#5880eb"/>
        <path id="Trazado_151987" data-name="Trazado 151987" d="M89.214,54.187a95.409,95.409,0,0,0-1.462,15.547.849.849,0,0,0,1.7,0,92.6,92.6,0,0,1,1.4-15.1c.189-1.068-1.447-1.527-1.637-.451" transform="translate(56.208 34.315)" fill="#5880eb"/>
        <path id="Trazado_151988" data-name="Trazado 151988" d="M92.2,55.041q.03,8.251.057,16.5a.849.849,0,0,0,1.7,0q-.03-8.251-.057-16.5a.849.849,0,0,0-1.7,0" transform="translate(59.058 34.73)" fill="#5880eb"/>
        <path id="Trazado_151989" data-name="Trazado 151989" d="M102.955,70.845q-.522,0-1.065-.021C89.671,70.333,78.859,59.712,78.4,59.261a.854.854,0,1,1,1.2-1.211c.107.1,10.8,10.6,22.351,11.067,12.689.5,16.2-8.58,16.34-8.967a.854.854,0,0,1,1.6.586c-.038.1-3.839,10.109-16.948,10.109" transform="translate(50.059 37.024)" fill="#5880eb"/>
        <path id="Trazado_151990" data-name="Trazado 151990" d="M96.126,54.409a56.125,56.125,0,0,1,2.3,15.93.849.849,0,0,0,1.7,0,57.732,57.732,0,0,0-2.362-16.381.85.85,0,0,0-1.637.451" transform="translate(61.547 34.18)" fill="#5880eb"/>
        <path id="Trazado_151991" data-name="Trazado 151991" d="M99.379,52.553a40.4,40.4,0,0,1,2.94,14.963.849.849,0,0,0,1.7,0,41.709,41.709,0,0,0-3-15.414c-.4-1-2.044-.564-1.637.451" transform="translate(63.614 33.01)" fill="#5880eb"/>
        <path id="Trazado_151992" data-name="Trazado 151992" d="M72.779,44.075c.225,5.847,5.45,12.817,13.106,12.735h.205c.136.331.292.655.454.986.069.143.141.289.215.431a.245.245,0,0,0,.023.039c5.145,9.75,19.522,15.05,27.185,14.965a17.433,17.433,0,0,0,5.135-.868c8.048-2.074,9.144-13.1,7.551-21.429a32.205,32.205,0,0,0-.855-3.419c-.025-.072-.048-.146-.071-.218,0,0,2.27-11.827,2.71-16.966.848-9.958-5.223-19.811-27.036-20.956S74.9,21.922,73.644,29.138c-.212,1.2.3,8.3,1.534,9.4-2.021,1.13-2.474,3.575-2.4,5.54" transform="translate(46.612 5.962)" fill="#eaad8f"/>
        <path id="Trazado_151993" data-name="Trazado 151993" d="M93.509,30.664c-.046,1.5.551,2.745,1.334,2.768s1.452-1.178,1.5-2.682-.551-2.743-1.332-2.768-1.454,1.178-1.5,2.682" transform="translate(59.894 17.923)" fill="#171612"/>
        <path id="Trazado_151994" data-name="Trazado 151994" d="M98.766,28.932a.4.4,0,0,0,.023-.71c-.161-.089-3.982-2.147-6.923.4a.4.4,0,1,0,.522.6c2.525-2.187,5.983-.322,6.017-.3a.4.4,0,0,0,.361.011" transform="translate(58.754 17.52)" fill="#171612"/>
        <path id="Trazado_151995" data-name="Trazado 151995" d="M101.5,31.04c-.044,1.5.551,2.745,1.334,2.768s1.452-1.178,1.5-2.682-.553-2.745-1.334-2.768-1.452,1.178-1.5,2.682" transform="translate(65.011 18.164)" fill="#171612"/>
        <path id="Trazado_151996" data-name="Trazado 151996" d="M107.156,29.89a.4.4,0,0,0,.2-.143.4.4,0,0,0-.079-.558c-.151-.11-3.655-2.669-6.916-.543a.4.4,0,1,0,.436.668c2.8-1.826,5.97.492,6,.515a.4.4,0,0,0,.358.061" transform="translate(64.168 17.81)" fill="#171612"/>
        <path id="Trazado_151997" data-name="Trazado 151997" d="M80.766,39.335h.205c.135.331.29.656.453.988.069.143.144.289.217.43a.129.129,0,0,0,.023.041,7.044,7.044,0,0,0,2.909-1.283,5.6,5.6,0,0,0,1.493-1.749A.79.79,0,0,0,84.68,37a4.25,4.25,0,0,1-1.818,1.719A5.66,5.66,0,0,1,81.5,39.2a6.449,6.449,0,0,1-.735.133" transform="translate(51.733 23.437)" fill="#c6695d"/>
        <g id="Grupo_158020" data-name="Grupo 158020" transform="translate(168.753 53.48)" opacity="0.5">
          <g id="Grupo_158019" data-name="Grupo 158019">
            <g id="Grupo_158018" data-name="Grupo 158018" clip-path="url(#clip-path-2)">
              <path id="Trazado_151998" data-name="Trazado 151998" d="M102.866,34.51c.049.868,1.985,1.485,4.511,1.508a31.817,31.817,0,0,0-.855-3.419c-2.165.361-3.7,1.119-3.657,1.911" transform="translate(-102.865 -32.599)" fill="#c6695d"/>
            </g>
          </g>
        </g>
        <path id="Trazado_151999" data-name="Trazado 151999" d="M77.317,36.967c.5.346.988.7,1.493,1.027a7.488,7.488,0,1,0,4.213-.866,1.805,1.805,0,0,1-1.094-1.678q.212-.01.428-.01a9.178,9.178,0,1,1-5.04,1.527" transform="translate(46.892 22.7)" fill="#fff"/>
        <path id="Trazado_152000" data-name="Trazado 152000" d="M99.267,41.94a2.727,2.727,0,0,1-1.66-.733.459.459,0,0,1,.656-.641,1.864,1.864,0,0,0,2.064.271.46.46,0,0,1,.366.843,2.982,2.982,0,0,1-1.426.261" transform="translate(62.437 25.895)" fill="#c6695d"/>
        <path id="Trazado_152001" data-name="Trazado 152001" d="M100.815,40.978l-.079-.007a5.8,5.8,0,0,1-4.677-2.917.71.71,0,0,1,1.27-.637,4.391,4.391,0,0,0,3.527,2.139l.064,0a4.307,4.307,0,0,0,3.649-1.173.711.711,0,1,1,1.107.891,5.7,5.7,0,0,1-4.861,1.7" transform="translate(61.481 23.717)" fill="#c6695d"/>
        <path id="Trazado_152002" data-name="Trazado 152002" d="M100.9,39.518a.663.663,0,0,0,.356-.1l2.912-1.857a.662.662,0,0,0-.041-1.142c-2.4-1.3-3.9-3.375-4.718-6.542a.663.663,0,0,0-1.285.331,11.034,11.034,0,0,0,4.433,6.808L100.549,38.3a.662.662,0,0,0,.356,1.221" transform="translate(62.841 18.816)" fill="#b4665e"/>
        <path id="Trazado_152003" data-name="Trazado 152003" d="M99.471,25.518a1.61,1.61,0,0,0,.986-3,4.672,4.672,0,0,0-3.253-.382,11.679,11.679,0,0,0-8.07,6.546s5.438-2.979,8.532-3.2a8.986,8.986,0,0,1,1.8.044" transform="translate(57.093 14.095)" fill="#171612"/>
        <path id="Trazado_152004" data-name="Trazado 152004" d="M101.871,25.692a1.61,1.61,0,0,1-.986-3,4.677,4.677,0,0,1,3.255-.382c5.942,1.242,6.327,5.486,6.327,5.486a21.36,21.36,0,0,0-6.792-2.144,8.99,8.99,0,0,0-1.8.044" transform="translate(64.085 14.207)" fill="#171612"/>
        <g id="Grupo_158023" data-name="Grupo 158023" transform="translate(144.238 54.513)" opacity="0.5">
          <g id="Grupo_158022" data-name="Grupo 158022">
            <g id="Grupo_158021" data-name="Grupo 158021" clip-path="url(#clip-path-3)">
              <path id="Trazado_152005" data-name="Trazado 152005" d="M98.935,34.738c.056.991-2.364,1.931-5.406,2.1s-5.552-.494-5.607-1.483,2.366-1.931,5.406-2.1,5.552.492,5.607,1.483" transform="translate(-87.922 -33.229)" fill="#c6695d"/>
            </g>
          </g>
        </g>
        <path id="Trazado_152006" data-name="Trazado 152006" d="M84.7,39.277a.787.787,0,0,1-.671-.605c-1.265-5.461-7.919-7.591-7.986-7.612a.789.789,0,0,1,.466-1.508c.31.1,7.587,2.41,9.059,8.764a.791.791,0,0,1-.868.961" transform="translate(48.349 18.906)" fill="#c6695d"/>
        <path id="Trazado_152007" data-name="Trazado 152007" d="M77.114,35.2a.79.79,0,0,1-.591-1.17,5.416,5.416,0,0,1,4.674-2.54.79.79,0,0,1,0,1.58A3.837,3.837,0,0,0,77.9,34.805a.79.79,0,0,1-.787.4" transform="translate(48.951 20.172)" fill="#c6695d"/>
        <path id="Trazado_152008" data-name="Trazado 152008" d="M100.722,21.853s1.434,6.129-3.644,9.883A29.924,29.924,0,0,1,90.3,35.763s7.806,16.676,1.475,19.384S85.483,39.262,75.6,39.168c0,0-3.588-.6-3.476-6.833S82.112,7.993,98.374,8.325s30.99,7.73,32.018,19.1-1.511,9.243-1.511,9.243.881-6.682-7.154-11.341c-6.667-3.865-21.005-3.478-21.005-3.478" transform="translate(46.194 5.329)" fill="#171612"/>
        <path id="Trazado_152009" data-name="Trazado 152009" d="M72.876,185.138l-7.635-14.522a5.4,5.4,0,0,1,4.841-7.919L190.1,163.991l-3.54,18.592Z" transform="translate(41.386 104.212)" fill="#171612"/>
        <path id="Trazado_152010" data-name="Trazado 152010" d="M181.264,203.458H73.854a4.124,4.124,0,0,1-4.177-4.694L77,132.4a5.378,5.378,0,0,1,5.212-4.694h107.41A4.122,4.122,0,0,1,193.8,132.4l-7.323,66.361a5.375,5.375,0,0,1-5.21,4.694" transform="translate(44.612 81.802)" fill="#fff"/>
        <path id="Trazado_152011" data-name="Trazado 152011" d="M71.59,204.087a.875.875,0,0,1-.113-.007.907.907,0,0,1-.787-1.012l8.916-71.081a.906.906,0,0,1,1.8.226l-8.916,71.081a.906.906,0,0,1-.9.792" transform="translate(45.274 84.034)" fill="#171612"/>
        <path id="Trazado_152012" data-name="Trazado 152012" d="M103.1,155.055a9.457,9.457,0,0,0,8.769,10.26,9.762,9.762,0,0,0,10.257-9.046,9.455,9.455,0,0,0-8.769-10.258,9.759,9.759,0,0,0-10.257,9.044" transform="translate(66.019 93.511)" fill="#171612"/>
        <path id="Trazado_152013" data-name="Trazado 152013" d="M182.058,182.119H73.167a3.951,3.951,0,0,1-3.914-4.484l1.037-7.587H187.154l-1.181,8.657a3.95,3.95,0,0,1-3.914,3.414" transform="translate(44.334 108.92)" fill="#171612"/>
      </g>
    </g>
  </g>
</svg>
