<svg xmlns="http://www.w3.org/2000/svg" xmlns:xlink="http://www.w3.org/1999/xlink" width="328.663" height="412.321" viewBox="0 0 328.663 412.321">
  <defs>
    <clipPath id="clip-path">
      <rect id="Rectángulo_34881" data-name="Rectángulo 34881" width="91.613" height="46.736" transform="translate(0 9)" fill="#12263f"/>
    </clipPath>
  </defs>
  <g id="Grupo_158227" data-name="Grupo 158227" transform="translate(11709 7021.001)">
    <g id="Grupo_158225" data-name="Grupo 158225" transform="translate(-11710.338 -7021.258)">
      <path id="AdobeStock_63496949" d="M56,0H312a0,0,0,0,1,0,0V330a56,56,0,0,1-56,56H0a0,0,0,0,1,0,0V56A56,56,0,0,1,56,0Z" transform="translate(8 17.779)" fill="#ebc9b1"/>
      <g id="Enmascarar_grupo_63" data-name="Enmascarar grupo 63" transform="translate(238.387 -8.44)" clip-path="url(#clip-path)">
        <path id="Trazado_151731" data-name="Trazado 151731" d="M43.62,68.873A25.254,25.254,0,1,1,68.873,43.62,25.282,25.282,0,0,1,43.62,68.873m0,18.366A43.62,43.62,0,1,0,0,43.62,43.62,43.62,0,0,0,43.62,87.24Z" transform="translate(1.892 12.117)" fill="#fd9827"/>
      </g>
      <g id="Grupo_78301" data-name="Grupo 78301" transform="translate(1.338 0.257)">
        <path id="Trazado_145969" data-name="Trazado 145969" d="M34.219,0A34.219,34.219,0,1,1,0,34.219,34.219,34.219,0,0,1,34.219,0Z" transform="translate(0 3.637)" fill="#fd9827" opacity="0.444" style="mix-blend-mode: multiply;isolation: isolate"/>
        <rect id="Rectángulo_34812" data-name="Rectángulo 34812" width="328.662" height="401.352" transform="translate(0 0)" fill="none"/>
        <path id="Trazado_145971" data-name="Trazado 145971" d="M8.18,0A8.18,8.18,0,1,1,0,8.18,8.18,8.18,0,0,1,8.18,0Z" transform="translate(32.317 368.781)" fill="#31313c" opacity="0.444" style="mix-blend-mode: multiply;isolation: isolate"/>
        <g id="Grupo_80270" data-name="Grupo 80270" transform="translate(6.917 14.716)">
          <path id="Trazado_145968" data-name="Trazado 145968" d="M43.541,0A43.541,43.541,0,1,1,0,43.541,43.541,43.541,0,0,1,43.541,0Z" transform="translate(234.662 310.522)" fill="#31313c" opacity="0.444" style="mix-blend-mode: multiply;isolation: isolate"/>
          <g id="Grupo_78276" data-name="Grupo 78276" transform="translate(251.662 328.522)">
            <g id="Grupo_53306" data-name="Grupo 53306">
              <path id="Trazado_99200" data-name="Trazado 99200" d="M415.4,50.789a.592.592,0,1,1-.592-.565A.579.579,0,0,1,415.4,50.789Z" transform="translate(-414.214 -50.224)" fill="#fff"/>
              <path id="Trazado_99201" data-name="Trazado 99201" d="M423.842,50.789a.592.592,0,1,1-.591-.565A.579.579,0,0,1,423.842,50.789Z" transform="translate(-417.339 -50.224)" fill="#fff"/>
              <path id="Trazado_99202" data-name="Trazado 99202" d="M432.288,50.789a.592.592,0,1,1-.591-.565A.579.579,0,0,1,432.288,50.789Z" transform="translate(-420.464 -50.224)" fill="#fff"/>
              <path id="Trazado_99203" data-name="Trazado 99203" d="M440.736,50.789a.592.592,0,1,1-.592-.565A.579.579,0,0,1,440.736,50.789Z" transform="translate(-423.59 -50.224)" fill="#fff"/>
              <path id="Trazado_99204" data-name="Trazado 99204" d="M449.181,50.789a.592.592,0,1,1-.591-.565A.579.579,0,0,1,449.181,50.789Z" transform="translate(-426.715 -50.224)" fill="#fff"/>
              <path id="Trazado_99205" data-name="Trazado 99205" d="M457.627,50.789a.592.592,0,1,1-.591-.565A.579.579,0,0,1,457.627,50.789Z" transform="translate(-429.84 -50.224)" fill="#fff"/>
              <path id="Trazado_99206" data-name="Trazado 99206" d="M466.075,50.789a.592.592,0,1,1-.592-.565A.579.579,0,0,1,466.075,50.789Z" transform="translate(-432.965 -50.224)" fill="#fff"/>
              <path id="Trazado_99207" data-name="Trazado 99207" d="M474.521,50.789a.592.592,0,1,1-.591-.565A.579.579,0,0,1,474.521,50.789Z" transform="translate(-436.09 -50.224)" fill="#fff"/>
              <path id="Trazado_99208" data-name="Trazado 99208" d="M482.966,50.789a.592.592,0,1,1-.591-.565A.579.579,0,0,1,482.966,50.789Z" transform="translate(-439.215 -50.224)" fill="#fff"/>
              <path id="Trazado_99209" data-name="Trazado 99209" d="M491.414,50.789a.592.592,0,1,1-.592-.565A.579.579,0,0,1,491.414,50.789Z" transform="translate(-442.341 -50.224)" fill="#fff"/>
              <path id="Trazado_99210" data-name="Trazado 99210" d="M499.86,50.789a.592.592,0,1,1-.592-.565A.579.579,0,0,1,499.86,50.789Z" transform="translate(-445.466 -50.224)" fill="#fff"/>
            </g>
            <g id="Grupo_53307" data-name="Grupo 53307" transform="translate(0 4.523)">
              <path id="Trazado_99211" data-name="Trazado 99211" d="M415.4,58.3a.592.592,0,1,1-.592-.565A.579.579,0,0,1,415.4,58.3Z" transform="translate(-414.214 -57.732)" fill="#fff"/>
              <path id="Trazado_99212" data-name="Trazado 99212" d="M423.842,58.3a.592.592,0,1,1-.591-.565A.579.579,0,0,1,423.842,58.3Z" transform="translate(-417.339 -57.732)" fill="#fff"/>
              <path id="Trazado_99213" data-name="Trazado 99213" d="M432.288,58.3a.592.592,0,1,1-.591-.565A.579.579,0,0,1,432.288,58.3Z" transform="translate(-420.464 -57.732)" fill="#fff"/>
              <path id="Trazado_99214" data-name="Trazado 99214" d="M440.736,58.3a.592.592,0,1,1-.592-.565A.579.579,0,0,1,440.736,58.3Z" transform="translate(-423.59 -57.732)" fill="#fff"/>
              <path id="Trazado_99215" data-name="Trazado 99215" d="M449.181,58.3a.592.592,0,1,1-.591-.565A.579.579,0,0,1,449.181,58.3Z" transform="translate(-426.715 -57.732)" fill="#fff"/>
              <path id="Trazado_99216" data-name="Trazado 99216" d="M457.627,58.3a.592.592,0,1,1-.591-.565A.579.579,0,0,1,457.627,58.3Z" transform="translate(-429.84 -57.732)" fill="#fff"/>
              <path id="Trazado_99217" data-name="Trazado 99217" d="M466.075,58.3a.592.592,0,1,1-.592-.565A.579.579,0,0,1,466.075,58.3Z" transform="translate(-432.965 -57.732)" fill="#fff"/>
              <path id="Trazado_99218" data-name="Trazado 99218" d="M474.521,58.3a.592.592,0,1,1-.591-.565A.579.579,0,0,1,474.521,58.3Z" transform="translate(-436.09 -57.732)" fill="#fff"/>
              <path id="Trazado_99219" data-name="Trazado 99219" d="M482.966,58.3a.592.592,0,1,1-.591-.565A.579.579,0,0,1,482.966,58.3Z" transform="translate(-439.215 -57.732)" fill="#fff"/>
              <path id="Trazado_99220" data-name="Trazado 99220" d="M491.414,58.3a.592.592,0,1,1-.592-.565A.579.579,0,0,1,491.414,58.3Z" transform="translate(-442.341 -57.732)" fill="#fff"/>
              <path id="Trazado_99221" data-name="Trazado 99221" d="M499.86,58.3a.592.592,0,1,1-.592-.565A.579.579,0,0,1,499.86,58.3Z" transform="translate(-445.466 -57.732)" fill="#fff"/>
            </g>
            <g id="Grupo_53308" data-name="Grupo 53308" transform="translate(0 9.047)">
              <ellipse id="Elipse_3955" data-name="Elipse 3955" cx="0.591" cy="0.565" rx="0.591" ry="0.565" fill="#fff"/>
              <path id="Trazado_99222" data-name="Trazado 99222" d="M423.842,65.805a.592.592,0,1,1-.591-.565A.579.579,0,0,1,423.842,65.805Z" transform="translate(-417.339 -65.24)" fill="#fff"/>
              <ellipse id="Elipse_3956" data-name="Elipse 3956" cx="0.591" cy="0.565" rx="0.591" ry="0.565" transform="translate(10.642)" fill="#fff"/>
              <path id="Trazado_99223" data-name="Trazado 99223" d="M440.736,65.805a.592.592,0,1,1-.592-.565A.579.579,0,0,1,440.736,65.805Z" transform="translate(-423.589 -65.24)" fill="#fff"/>
              <path id="Trazado_99224" data-name="Trazado 99224" d="M449.181,65.805a.592.592,0,1,1-.591-.565A.579.579,0,0,1,449.181,65.805Z" transform="translate(-426.715 -65.24)" fill="#fff"/>
              <ellipse id="Elipse_3957" data-name="Elipse 3957" cx="0.591" cy="0.565" rx="0.591" ry="0.565" transform="translate(26.606)" fill="#fff"/>
              <path id="Trazado_99225" data-name="Trazado 99225" d="M466.075,65.805a.592.592,0,1,1-.592-.565A.58.58,0,0,1,466.075,65.805Z" transform="translate(-432.965 -65.24)" fill="#fff"/>
              <ellipse id="Elipse_3958" data-name="Elipse 3958" cx="0.591" cy="0.565" rx="0.591" ry="0.565" transform="translate(37.248)" fill="#fff"/>
              <ellipse id="Elipse_3959" data-name="Elipse 3959" cx="0.591" cy="0.565" rx="0.591" ry="0.565" transform="translate(42.569)" fill="#fff"/>
              <path id="Trazado_99226" data-name="Trazado 99226" d="M491.414,65.805a.592.592,0,1,1-.592-.565A.58.58,0,0,1,491.414,65.805Z" transform="translate(-442.341 -65.24)" fill="#fff"/>
              <path id="Trazado_99227" data-name="Trazado 99227" d="M499.86,65.805a.592.592,0,1,1-.592-.565A.579.579,0,0,1,499.86,65.805Z" transform="translate(-445.466 -65.24)" fill="#fff"/>
            </g>
            <g id="Grupo_53309" data-name="Grupo 53309" transform="translate(0 13.57)">
              <ellipse id="Elipse_3960" data-name="Elipse 3960" cx="0.591" cy="0.565" rx="0.591" ry="0.565" transform="translate(0 0)" fill="#fff"/>
              <path id="Trazado_99228" data-name="Trazado 99228" d="M423.842,73.313a.592.592,0,1,1-.591-.566A.578.578,0,0,1,423.842,73.313Z" transform="translate(-417.339 -72.747)" fill="#fff"/>
              <ellipse id="Elipse_3961" data-name="Elipse 3961" cx="0.591" cy="0.565" rx="0.591" ry="0.565" transform="translate(10.642 0)" fill="#fff"/>
              <path id="Trazado_99229" data-name="Trazado 99229" d="M440.736,73.313a.592.592,0,1,1-.592-.566A.579.579,0,0,1,440.736,73.313Z" transform="translate(-423.589 -72.747)" fill="#fff"/>
              <path id="Trazado_99230" data-name="Trazado 99230" d="M449.181,73.313a.592.592,0,1,1-.591-.566A.579.579,0,0,1,449.181,73.313Z" transform="translate(-426.715 -72.747)" fill="#fff"/>
              <ellipse id="Elipse_3962" data-name="Elipse 3962" cx="0.591" cy="0.565" rx="0.591" ry="0.565" transform="translate(26.606 0)" fill="#fff"/>
              <path id="Trazado_99231" data-name="Trazado 99231" d="M466.075,73.313a.592.592,0,1,1-.592-.566A.579.579,0,0,1,466.075,73.313Z" transform="translate(-432.965 -72.747)" fill="#fff"/>
              <ellipse id="Elipse_3963" data-name="Elipse 3963" cx="0.591" cy="0.565" rx="0.591" ry="0.565" transform="translate(37.248 0)" fill="#fff"/>
              <ellipse id="Elipse_3964" data-name="Elipse 3964" cx="0.591" cy="0.565" rx="0.591" ry="0.565" transform="translate(42.569 0)" fill="#fff"/>
              <path id="Trazado_99232" data-name="Trazado 99232" d="M491.414,73.313a.592.592,0,1,1-.592-.566A.579.579,0,0,1,491.414,73.313Z" transform="translate(-442.341 -72.747)" fill="#fff"/>
              <path id="Trazado_99233" data-name="Trazado 99233" d="M499.86,73.313a.592.592,0,1,1-.592-.566A.579.579,0,0,1,499.86,73.313Z" transform="translate(-445.466 -72.747)" fill="#fff"/>
            </g>
            <g id="Grupo_53310" data-name="Grupo 53310" transform="translate(0 18.093)">
              <path id="Trazado_99234" data-name="Trazado 99234" d="M415.4,80.821a.592.592,0,1,1-.592-.566A.579.579,0,0,1,415.4,80.821Z" transform="translate(-414.214 -80.255)" fill="#fff"/>
              <path id="Trazado_99235" data-name="Trazado 99235" d="M423.842,80.821a.592.592,0,1,1-.591-.566A.578.578,0,0,1,423.842,80.821Z" transform="translate(-417.339 -80.255)" fill="#fff"/>
              <path id="Trazado_99236" data-name="Trazado 99236" d="M432.288,80.821a.592.592,0,1,1-.591-.566A.578.578,0,0,1,432.288,80.821Z" transform="translate(-420.464 -80.255)" fill="#fff"/>
              <path id="Trazado_99237" data-name="Trazado 99237" d="M440.736,80.821a.592.592,0,1,1-.592-.566A.579.579,0,0,1,440.736,80.821Z" transform="translate(-423.59 -80.255)" fill="#fff"/>
              <path id="Trazado_99238" data-name="Trazado 99238" d="M449.181,80.821a.592.592,0,1,1-.591-.566A.579.579,0,0,1,449.181,80.821Z" transform="translate(-426.715 -80.255)" fill="#fff"/>
              <path id="Trazado_99239" data-name="Trazado 99239" d="M457.627,80.821a.592.592,0,1,1-.591-.566A.578.578,0,0,1,457.627,80.821Z" transform="translate(-429.84 -80.255)" fill="#fff"/>
              <path id="Trazado_99240" data-name="Trazado 99240" d="M466.075,80.821a.592.592,0,1,1-.592-.566A.579.579,0,0,1,466.075,80.821Z" transform="translate(-432.965 -80.255)" fill="#fff"/>
              <path id="Trazado_99241" data-name="Trazado 99241" d="M474.521,80.821a.592.592,0,1,1-.591-.566A.578.578,0,0,1,474.521,80.821Z" transform="translate(-436.09 -80.255)" fill="#fff"/>
              <path id="Trazado_99242" data-name="Trazado 99242" d="M482.966,80.821a.592.592,0,1,1-.591-.566A.579.579,0,0,1,482.966,80.821Z" transform="translate(-439.215 -80.255)" fill="#fff"/>
              <path id="Trazado_99243" data-name="Trazado 99243" d="M491.414,80.821a.592.592,0,1,1-.592-.566A.579.579,0,0,1,491.414,80.821Z" transform="translate(-442.341 -80.255)" fill="#fff"/>
              <path id="Trazado_99244" data-name="Trazado 99244" d="M499.86,80.821a.592.592,0,1,1-.592-.566A.579.579,0,0,1,499.86,80.821Z" transform="translate(-445.466 -80.255)" fill="#fff"/>
            </g>
            <g id="Grupo_53311" data-name="Grupo 53311" transform="translate(0 22.616)">
              <ellipse id="Elipse_3965" data-name="Elipse 3965" cx="0.591" cy="0.565" rx="0.591" ry="0.565" transform="translate(0 0)" fill="#fff"/>
              <path id="Trazado_99245" data-name="Trazado 99245" d="M423.842,88.329a.592.592,0,1,1-.591-.566A.578.578,0,0,1,423.842,88.329Z" transform="translate(-417.339 -87.763)" fill="#fff"/>
              <ellipse id="Elipse_3966" data-name="Elipse 3966" cx="0.591" cy="0.565" rx="0.591" ry="0.565" transform="translate(10.642 0)" fill="#fff"/>
              <path id="Trazado_99246" data-name="Trazado 99246" d="M440.736,88.329a.592.592,0,1,1-.592-.566A.579.579,0,0,1,440.736,88.329Z" transform="translate(-423.589 -87.763)" fill="#fff"/>
              <path id="Trazado_99247" data-name="Trazado 99247" d="M449.181,88.329a.592.592,0,1,1-.591-.566A.579.579,0,0,1,449.181,88.329Z" transform="translate(-426.715 -87.763)" fill="#fff"/>
              <ellipse id="Elipse_3967" data-name="Elipse 3967" cx="0.591" cy="0.565" rx="0.591" ry="0.565" transform="translate(26.606 0)" fill="#fff"/>
              <path id="Trazado_99248" data-name="Trazado 99248" d="M466.075,88.329a.592.592,0,1,1-.592-.566A.579.579,0,0,1,466.075,88.329Z" transform="translate(-432.965 -87.763)" fill="#fff"/>
              <ellipse id="Elipse_3968" data-name="Elipse 3968" cx="0.591" cy="0.565" rx="0.591" ry="0.565" transform="translate(37.248 0)" fill="#fff"/>
              <ellipse id="Elipse_3969" data-name="Elipse 3969" cx="0.591" cy="0.565" rx="0.591" ry="0.565" transform="translate(42.569 0)" fill="#fff"/>
              <path id="Trazado_99249" data-name="Trazado 99249" d="M491.414,88.329a.592.592,0,1,1-.592-.566A.579.579,0,0,1,491.414,88.329Z" transform="translate(-442.341 -87.763)" fill="#fff"/>
              <path id="Trazado_99250" data-name="Trazado 99250" d="M499.86,88.329a.592.592,0,1,1-.592-.566A.579.579,0,0,1,499.86,88.329Z" transform="translate(-445.466 -87.763)" fill="#fff"/>
            </g>
            <g id="Grupo_53312" data-name="Grupo 53312" transform="translate(0 27.14)">
              <ellipse id="Elipse_3970" data-name="Elipse 3970" cx="0.591" cy="0.565" rx="0.591" ry="0.565" fill="#fff"/>
              <path id="Trazado_99251" data-name="Trazado 99251" d="M423.842,95.836a.592.592,0,1,1-.591-.565A.579.579,0,0,1,423.842,95.836Z" transform="translate(-417.339 -95.271)" fill="#fff"/>
              <ellipse id="Elipse_3971" data-name="Elipse 3971" cx="0.591" cy="0.565" rx="0.591" ry="0.565" transform="translate(10.642)" fill="#fff"/>
              <path id="Trazado_99252" data-name="Trazado 99252" d="M440.736,95.836a.592.592,0,1,1-.592-.565A.579.579,0,0,1,440.736,95.836Z" transform="translate(-423.589 -95.271)" fill="#fff"/>
              <path id="Trazado_99253" data-name="Trazado 99253" d="M449.181,95.836a.592.592,0,1,1-.591-.565A.579.579,0,0,1,449.181,95.836Z" transform="translate(-426.715 -95.271)" fill="#fff"/>
              <ellipse id="Elipse_3972" data-name="Elipse 3972" cx="0.591" cy="0.565" rx="0.591" ry="0.565" transform="translate(26.606)" fill="#fff"/>
              <path id="Trazado_99254" data-name="Trazado 99254" d="M466.075,95.836a.592.592,0,1,1-.592-.565A.579.579,0,0,1,466.075,95.836Z" transform="translate(-432.965 -95.271)" fill="#fff"/>
              <ellipse id="Elipse_3973" data-name="Elipse 3973" cx="0.591" cy="0.565" rx="0.591" ry="0.565" transform="translate(37.248)" fill="#fff"/>
              <ellipse id="Elipse_3974" data-name="Elipse 3974" cx="0.591" cy="0.565" rx="0.591" ry="0.565" transform="translate(42.569)" fill="#fff"/>
              <path id="Trazado_99255" data-name="Trazado 99255" d="M491.414,95.836a.592.592,0,1,1-.592-.565A.579.579,0,0,1,491.414,95.836Z" transform="translate(-442.341 -95.271)" fill="#fff"/>
              <path id="Trazado_99256" data-name="Trazado 99256" d="M499.86,95.836a.592.592,0,1,1-.592-.565A.579.579,0,0,1,499.86,95.836Z" transform="translate(-445.466 -95.271)" fill="#fff"/>
            </g>
            <g id="Grupo_53313" data-name="Grupo 53313" transform="translate(0 31.663)">
              <path id="Trazado_99257" data-name="Trazado 99257" d="M415.4,103.344a.592.592,0,1,1-.592-.565A.579.579,0,0,1,415.4,103.344Z" transform="translate(-414.214 -102.779)" fill="#fff"/>
              <path id="Trazado_99258" data-name="Trazado 99258" d="M423.842,103.344a.592.592,0,1,1-.591-.565A.579.579,0,0,1,423.842,103.344Z" transform="translate(-417.339 -102.779)" fill="#fff"/>
              <path id="Trazado_99259" data-name="Trazado 99259" d="M432.288,103.344a.592.592,0,1,1-.591-.565A.579.579,0,0,1,432.288,103.344Z" transform="translate(-420.464 -102.779)" fill="#fff"/>
              <path id="Trazado_99260" data-name="Trazado 99260" d="M440.736,103.344a.592.592,0,1,1-.592-.565A.579.579,0,0,1,440.736,103.344Z" transform="translate(-423.59 -102.779)" fill="#fff"/>
              <path id="Trazado_99261" data-name="Trazado 99261" d="M449.181,103.344a.592.592,0,1,1-.591-.565A.579.579,0,0,1,449.181,103.344Z" transform="translate(-426.715 -102.779)" fill="#fff"/>
              <path id="Trazado_99262" data-name="Trazado 99262" d="M457.627,103.344a.592.592,0,1,1-.591-.565A.579.579,0,0,1,457.627,103.344Z" transform="translate(-429.84 -102.779)" fill="#fff"/>
              <path id="Trazado_99263" data-name="Trazado 99263" d="M466.075,103.344a.592.592,0,1,1-.592-.565A.579.579,0,0,1,466.075,103.344Z" transform="translate(-432.965 -102.779)" fill="#fff"/>
              <path id="Trazado_99264" data-name="Trazado 99264" d="M474.521,103.344a.592.592,0,1,1-.591-.565A.579.579,0,0,1,474.521,103.344Z" transform="translate(-436.09 -102.779)" fill="#fff"/>
              <path id="Trazado_99265" data-name="Trazado 99265" d="M482.966,103.344a.592.592,0,1,1-.591-.565A.579.579,0,0,1,482.966,103.344Z" transform="translate(-439.215 -102.779)" fill="#fff"/>
              <path id="Trazado_99266" data-name="Trazado 99266" d="M491.414,103.344a.592.592,0,1,1-.592-.565A.579.579,0,0,1,491.414,103.344Z" transform="translate(-442.341 -102.779)" fill="#fff"/>
              <path id="Trazado_99267" data-name="Trazado 99267" d="M499.86,103.344a.592.592,0,1,1-.592-.565A.579.579,0,0,1,499.86,103.344Z" transform="translate(-445.466 -102.779)" fill="#fff"/>
            </g>
            <g id="Grupo_53314" data-name="Grupo 53314" transform="translate(0 36.187)">
              <ellipse id="Elipse_3975" data-name="Elipse 3975" cx="0.591" cy="0.565" rx="0.591" ry="0.565" fill="#fff"/>
              <path id="Trazado_99268" data-name="Trazado 99268" d="M423.842,110.852a.592.592,0,1,1-.591-.565A.579.579,0,0,1,423.842,110.852Z" transform="translate(-417.339 -110.287)" fill="#fff"/>
              <ellipse id="Elipse_3976" data-name="Elipse 3976" cx="0.591" cy="0.565" rx="0.591" ry="0.565" transform="translate(10.642)" fill="#fff"/>
              <path id="Trazado_99269" data-name="Trazado 99269" d="M440.736,110.852a.592.592,0,1,1-.592-.565A.579.579,0,0,1,440.736,110.852Z" transform="translate(-423.589 -110.287)" fill="#fff"/>
              <path id="Trazado_99270" data-name="Trazado 99270" d="M449.181,110.852a.592.592,0,1,1-.591-.565A.579.579,0,0,1,449.181,110.852Z" transform="translate(-426.715 -110.287)" fill="#fff"/>
              <ellipse id="Elipse_3977" data-name="Elipse 3977" cx="0.591" cy="0.565" rx="0.591" ry="0.565" transform="translate(26.606)" fill="#fff"/>
              <path id="Trazado_99271" data-name="Trazado 99271" d="M466.075,110.852a.592.592,0,1,1-.592-.565A.58.58,0,0,1,466.075,110.852Z" transform="translate(-432.965 -110.287)" fill="#fff"/>
              <ellipse id="Elipse_3978" data-name="Elipse 3978" cx="0.591" cy="0.565" rx="0.591" ry="0.565" transform="translate(37.248)" fill="#fff"/>
              <ellipse id="Elipse_3979" data-name="Elipse 3979" cx="0.591" cy="0.565" rx="0.591" ry="0.565" transform="translate(42.569)" fill="#fff"/>
              <path id="Trazado_99272" data-name="Trazado 99272" d="M491.414,110.852a.592.592,0,1,1-.592-.565A.58.58,0,0,1,491.414,110.852Z" transform="translate(-442.341 -110.287)" fill="#fff"/>
              <path id="Trazado_99273" data-name="Trazado 99273" d="M499.86,110.852a.592.592,0,1,1-.592-.565A.579.579,0,0,1,499.86,110.852Z" transform="translate(-445.466 -110.287)" fill="#fff"/>
            </g>
            <g id="Grupo_53315" data-name="Grupo 53315" transform="translate(0 40.709)">
              <path id="Trazado_99274" data-name="Trazado 99274" d="M415.4,118.36a.592.592,0,1,1-.592-.566A.579.579,0,0,1,415.4,118.36Z" transform="translate(-414.214 -117.794)" fill="#fff"/>
              <path id="Trazado_99275" data-name="Trazado 99275" d="M423.842,118.36a.592.592,0,1,1-.591-.566A.579.579,0,0,1,423.842,118.36Z" transform="translate(-417.339 -117.794)" fill="#fff"/>
              <path id="Trazado_99276" data-name="Trazado 99276" d="M432.288,118.36a.592.592,0,1,1-.591-.566A.579.579,0,0,1,432.288,118.36Z" transform="translate(-420.464 -117.794)" fill="#fff"/>
              <path id="Trazado_99277" data-name="Trazado 99277" d="M440.736,118.36a.592.592,0,1,1-.592-.566A.579.579,0,0,1,440.736,118.36Z" transform="translate(-423.59 -117.794)" fill="#fff"/>
              <path id="Trazado_99278" data-name="Trazado 99278" d="M449.181,118.36a.592.592,0,1,1-.591-.566A.579.579,0,0,1,449.181,118.36Z" transform="translate(-426.715 -117.794)" fill="#fff"/>
              <path id="Trazado_99279" data-name="Trazado 99279" d="M457.627,118.36a.592.592,0,1,1-.591-.566A.579.579,0,0,1,457.627,118.36Z" transform="translate(-429.84 -117.794)" fill="#fff"/>
              <path id="Trazado_99280" data-name="Trazado 99280" d="M466.075,118.36a.592.592,0,1,1-.592-.566A.58.58,0,0,1,466.075,118.36Z" transform="translate(-432.965 -117.794)" fill="#fff"/>
              <path id="Trazado_99281" data-name="Trazado 99281" d="M474.521,118.36a.592.592,0,1,1-.591-.566A.579.579,0,0,1,474.521,118.36Z" transform="translate(-436.09 -117.794)" fill="#fff"/>
              <path id="Trazado_99282" data-name="Trazado 99282" d="M482.966,118.36a.592.592,0,1,1-.591-.566A.579.579,0,0,1,482.966,118.36Z" transform="translate(-439.215 -117.794)" fill="#fff"/>
              <path id="Trazado_99283" data-name="Trazado 99283" d="M491.414,118.36a.592.592,0,1,1-.592-.566A.58.58,0,0,1,491.414,118.36Z" transform="translate(-442.341 -117.794)" fill="#fff"/>
              <path id="Trazado_99284" data-name="Trazado 99284" d="M499.86,118.36a.592.592,0,1,1-.592-.566A.579.579,0,0,1,499.86,118.36Z" transform="translate(-445.466 -117.794)" fill="#fff"/>
            </g>
            <g id="Grupo_53316" data-name="Grupo 53316" transform="translate(0 45.233)">
              <ellipse id="Elipse_3980" data-name="Elipse 3980" cx="0.591" cy="0.565" rx="0.591" ry="0.565" transform="translate(0 0)" fill="#fff"/>
              <path id="Trazado_99285" data-name="Trazado 99285" d="M423.842,125.868a.592.592,0,1,1-.591-.566A.578.578,0,0,1,423.842,125.868Z" transform="translate(-417.339 -125.302)" fill="#fff"/>
              <ellipse id="Elipse_3981" data-name="Elipse 3981" cx="0.591" cy="0.565" rx="0.591" ry="0.565" transform="translate(10.642 0)" fill="#fff"/>
              <path id="Trazado_99286" data-name="Trazado 99286" d="M440.736,125.868a.592.592,0,1,1-.592-.566A.579.579,0,0,1,440.736,125.868Z" transform="translate(-423.589 -125.302)" fill="#fff"/>
              <path id="Trazado_99287" data-name="Trazado 99287" d="M449.181,125.868a.592.592,0,1,1-.591-.566A.579.579,0,0,1,449.181,125.868Z" transform="translate(-426.715 -125.302)" fill="#fff"/>
              <ellipse id="Elipse_3982" data-name="Elipse 3982" cx="0.591" cy="0.565" rx="0.591" ry="0.565" transform="translate(26.606 0)" fill="#fff"/>
              <path id="Trazado_99288" data-name="Trazado 99288" d="M466.075,125.868a.592.592,0,1,1-.592-.566A.579.579,0,0,1,466.075,125.868Z" transform="translate(-432.965 -125.302)" fill="#fff"/>
              <ellipse id="Elipse_3983" data-name="Elipse 3983" cx="0.591" cy="0.565" rx="0.591" ry="0.565" transform="translate(37.248 0)" fill="#fff"/>
              <ellipse id="Elipse_3984" data-name="Elipse 3984" cx="0.591" cy="0.565" rx="0.591" ry="0.565" transform="translate(42.569 0)" fill="#fff"/>
              <path id="Trazado_99289" data-name="Trazado 99289" d="M491.414,125.868a.592.592,0,1,1-.592-.566A.579.579,0,0,1,491.414,125.868Z" transform="translate(-442.341 -125.302)" fill="#fff"/>
              <path id="Trazado_99290" data-name="Trazado 99290" d="M499.86,125.868a.592.592,0,1,1-.592-.566A.579.579,0,0,1,499.86,125.868Z" transform="translate(-445.466 -125.302)" fill="#fff"/>
            </g>
            <g id="Grupo_53317" data-name="Grupo 53317" transform="translate(0 49.757)">
              <ellipse id="Elipse_3985" data-name="Elipse 3985" cx="0.591" cy="0.565" rx="0.591" ry="0.565" transform="translate(0 0)" fill="#fff"/>
              <path id="Trazado_99291" data-name="Trazado 99291" d="M423.842,133.376a.592.592,0,1,1-.591-.566A.578.578,0,0,1,423.842,133.376Z" transform="translate(-417.339 -132.81)" fill="#fff"/>
              <ellipse id="Elipse_3986" data-name="Elipse 3986" cx="0.591" cy="0.565" rx="0.591" ry="0.565" transform="translate(10.642 0)" fill="#fff"/>
              <path id="Trazado_99292" data-name="Trazado 99292" d="M440.736,133.376a.592.592,0,1,1-.592-.566A.579.579,0,0,1,440.736,133.376Z" transform="translate(-423.589 -132.81)" fill="#fff"/>
              <path id="Trazado_99293" data-name="Trazado 99293" d="M449.181,133.376a.592.592,0,1,1-.591-.566A.579.579,0,0,1,449.181,133.376Z" transform="translate(-426.715 -132.81)" fill="#fff"/>
              <ellipse id="Elipse_3987" data-name="Elipse 3987" cx="0.591" cy="0.565" rx="0.591" ry="0.565" transform="translate(26.606 0)" fill="#fff"/>
              <path id="Trazado_99294" data-name="Trazado 99294" d="M466.075,133.376a.592.592,0,1,1-.592-.566A.579.579,0,0,1,466.075,133.376Z" transform="translate(-432.965 -132.81)" fill="#fff"/>
              <ellipse id="Elipse_3988" data-name="Elipse 3988" cx="0.591" cy="0.565" rx="0.591" ry="0.565" transform="translate(37.248 0)" fill="#fff"/>
              <ellipse id="Elipse_3989" data-name="Elipse 3989" cx="0.591" cy="0.565" rx="0.591" ry="0.565" transform="translate(42.569 0)" fill="#fff"/>
              <path id="Trazado_99295" data-name="Trazado 99295" d="M491.414,133.376a.592.592,0,1,1-.592-.566A.579.579,0,0,1,491.414,133.376Z" transform="translate(-442.341 -132.81)" fill="#fff"/>
              <path id="Trazado_99296" data-name="Trazado 99296" d="M499.86,133.376a.592.592,0,1,1-.592-.566A.579.579,0,0,1,499.86,133.376Z" transform="translate(-445.466 -132.81)" fill="#fff"/>
            </g>
          </g>
        </g>
        <line id="Línea_138" data-name="Línea 138" y2="175" transform="translate(17.548 123.022)" fill="none" stroke="#fff" stroke-linecap="round" stroke-width="4" stroke-dasharray="8"/>
      </g>
    </g>
    <g id="Grupo_158226" data-name="Grupo 158226" transform="translate(-11709 -7002)">
      <g id="Grupo_158072" data-name="Grupo 158072">
        <path id="Trazado_152014" data-name="Trazado 152014" d="M127.176.426v99.616a.422.422,0,0,0,.843,0V.426a.422.422,0,0,0-.843,0" transform="translate(-20.016 -0.003)" fill="#2b244a"/>
        <path id="Trazado_152015" data-name="Trazado 152015" d="M98.176.426v99.616a.422.422,0,0,0,.843,0V.426a.422.422,0,0,0-.843,0" transform="translate(-15.452 -0.003)" fill="#2b244a"/>
        <path id="Trazado_152016" data-name="Trazado 152016" d="M69.676.426v99.616a.422.422,0,0,0,.843,0V.426a.422.422,0,0,0-.843,0" transform="translate(-10.966 -0.003)" fill="#2b244a"/>
        <path id="Trazado_152017" data-name="Trazado 152017" d="M184.787.426v99.616a.422.422,0,0,0,.843,0V.426a.422.422,0,0,0-.843,0" transform="translate(-29.083 -0.003)" fill="#2b244a"/>
        <path id="Trazado_152018" data-name="Trazado 152018" d="M156.287.426v99.616a.422.422,0,0,0,.843,0V.426a.422.422,0,0,0-.843,0" transform="translate(-24.597 -0.003)" fill="#2b244a"/>
        <path id="Trazado_152019" data-name="Trazado 152019" d="M180.428,99.618H49.839c-1.652,0-3.306.137-4.81-.723a5.675,5.675,0,0,1-2.79-5.062q0-.993,0-1.987v-80.7c0-1.575-.017-3.151,0-4.726A5.593,5.593,0,0,1,47.764.845c.244,0,.488,0,.732,0H180.065a6.025,6.025,0,0,1,3.415.918,5.7,5.7,0,0,1,2.471,4.9V92.661c0,.46.005.921,0,1.381a5.593,5.593,0,0,1-5.523,5.576.422.422,0,0,0,0,.843,6.448,6.448,0,0,0,6.366-6.37c.006-.387,0-.774,0-1.159V12.445c0-1.935,0-3.871,0-5.806A6.494,6.494,0,0,0,180.2,0c-1.385,0-2.77,0-4.155,0H48.415c-.349,0-.7-.01-1.051.013A6.443,6.443,0,0,0,41.4,6.379c-.019,1.451,0,2.9,0,4.356V91.9c0,.657,0,1.314,0,1.972a6.534,6.534,0,0,0,2.35,5.164c1.751,1.418,3.694,1.429,5.769,1.429H180.428a.422.422,0,0,0,0-.843" transform="translate(-6.514 0)" fill="#2b244a"/>
        <path id="Trazado_152020" data-name="Trazado 152020" d="M186.378,59.113H41.823a.422.422,0,0,0,0,.843H186.378a.422.422,0,0,0,0-.843" transform="translate(-6.518 -9.304)" fill="#2b244a"/>
        <path id="Trazado_152021" data-name="Trazado 152021" d="M186.378,29.558H41.823a.422.422,0,0,0,0,.843H186.378a.422.422,0,0,0,0-.843" transform="translate(-6.518 -4.652)" fill="#2b244a"/>
        <path id="Trazado_152022" data-name="Trazado 152022" d="M186.378,88.669H41.823a.422.422,0,0,0,0,.843H186.378a.422.422,0,0,0,0-.843" transform="translate(-6.518 -13.955)" fill="#2b244a"/>
        <path id="Trazado_152023" data-name="Trazado 152023" d="M100.964,35.69H60.519a.843.843,0,0,1-.843-.843V6.012a.842.842,0,0,1,.843-.843h40.445a.842.842,0,0,1,.843.843V34.848a.843.843,0,0,1-.843.843" transform="translate(-9.392 -0.814)" fill="#ccb16c"/>
        <path id="Trazado_152024" data-name="Trazado 152024" d="M71.519,15.157a11.655,11.655,0,0,1,2.455-1.326c.326-.126.921-.4,1.178-.044.2.274.127.74.2,1.063.327,1.42,1.959,1.986,3.258,1.758,1.821-.32,3.11-1.9,4.911-2.246a1.532,1.532,0,0,1,.684-.045c.157.07.235.316.335.446a1.321,1.321,0,0,0,.7.471,3.3,3.3,0,0,0,2-.294,13.141,13.141,0,0,1,6.536-.8c.531.072.76-.739.224-.813a13.881,13.881,0,0,0-5.81.4,9.979,9.979,0,0,1-2.4.732c-.426.01-.54-.173-.758-.5a1.044,1.044,0,0,0-.849-.485c-1.929-.135-3.361,1.485-5.044,2.117a2.547,2.547,0,0,1-2.415-.145c-.723-.52-.448-1.273-.784-1.974-.385-.8-1.294-.768-2.022-.512a11.842,11.842,0,0,0-2.827,1.475c-.442.307-.021,1.038.426.727" transform="translate(-11.16 -2.013)" fill="#2b244a"/>
        <path id="Trazado_152025" data-name="Trazado 152025" d="M71.377,31.027a14.072,14.072,0,0,1,4.6-2.408,3.413,3.413,0,0,1,.6-.169c.286-.028.276-.011.255.243-.025.33-.244.646-.28.986a1.509,1.509,0,0,0,.888,1.489,3.626,3.626,0,0,0,2.466-.061l2.931-.7c.2-.048.853-.294,1.043-.088.067.072.023.356.052.463a.769.769,0,0,0,.269.4,1.372,1.372,0,0,0,.907.183c.521-.008,1.041-.023,1.562-.034l6.773-.146a.422.422,0,0,0,0-.843l-6.252.135-1.562.034a3.069,3.069,0,0,1-.73.015c-.245-.066-.126-.073-.19-.353-.145-.65-.8-.8-1.387-.731A26.562,26.562,0,0,0,80.5,30.1c-.784.188-2.325.852-2.961.092-.45-.538.324-1.33.168-1.966-.2-.811-1.079-.669-1.69-.5a15.124,15.124,0,0,0-5.233,2.7c-.426.335.174.928.6.6" transform="translate(-11.117 -4.343)" fill="#2b244a"/>
        <path id="Trazado_152026" data-name="Trazado 152026" d="M71.085,21.282c-.211.629-.792,1.559-.124,2.121a2.193,2.193,0,0,0,1.853.132c2.26-.521,4.5-1.135,6.749-1.7l-.518-.518a1.428,1.428,0,0,0,1.239,1.78A4.062,4.062,0,0,0,82,22.839a9.316,9.316,0,0,1,1.889-.321,35.114,35.114,0,0,1,3.659.036l4.045.146c.543.02.542-.822,0-.843-2.112-.076-4.228-.2-6.342-.216a13.6,13.6,0,0,0-2.816.223c-.506.1-.994.3-1.5.385-.437.07-1.3-.072-1.073-.712a.425.425,0,0,0-.518-.518L74.1,22.341a11.454,11.454,0,0,1-2.123.479c-.25.013-.423.048-.487-.184-.076-.273.315-.871.4-1.13.174-.516-.64-.736-.812-.224" transform="translate(-11.119 -3.304)" fill="#2b244a"/>
        <path id="Trazado_152027" data-name="Trazado 152027" d="M145.386,64.848H123.853a.842.842,0,0,1-.843-.843V25.9a.842.842,0,0,1,.843-.843h21.533a.843.843,0,0,1,.843.843v38.1a.843.843,0,0,1-.843.843" transform="translate(-19.36 -3.944)" fill="#ffeae0"/>
        <path id="Trazado_152028" data-name="Trazado 152028" d="M140.911,52.637H130.519a.842.842,0,0,1-.843-.843V33.679a.842.842,0,0,1,.843-.843h10.392a.843.843,0,0,1,.843.843V51.795a.843.843,0,0,1-.843.843" transform="translate(-20.409 -5.168)" fill="#ccb16c"/>
        <path id="Trazado_152029" data-name="Trazado 152029" d="M135.581,62.526a4.638,4.638,0,0,1,1.141-.485,4.452,4.452,0,0,1,.613-.122c.1-.013.461-.09.543,0,.132.148-.3.777-.342.939a.718.718,0,0,0,.387.925,1.854,1.854,0,0,0,1.08-.1,12.041,12.041,0,0,0,1.138-.4,7.891,7.891,0,0,1,2.354-.68c.538-.034.543-.876,0-.843a8.116,8.116,0,0,0-2.465.666c-.393.154-.787.31-1.192.427q-.173.051-.349.091l-.117.025c-.108-.009-.128.013-.061.065.043.133.1-.117.127-.163.049-.1.105-.2.152-.3a1,1,0,0,0-.9-1.521,5.117,5.117,0,0,0-2.53.748.422.422,0,0,0,.426.727" transform="translate(-21.24 -9.609)" fill="#2b244a"/>
        <path id="Trazado_152030" data-name="Trazado 152030" d="M197.633,71.815h-23.78a.843.843,0,0,1-.843-.843V39.234a.843.843,0,0,1,.843-.843h23.78a.843.843,0,0,1,.843.843V70.972a.843.843,0,0,1-.843.843" transform="translate(-27.229 -6.042)" fill="#ffeae0"/>
        <path id="Trazado_152031" data-name="Trazado 152031" d="M190.366,64.836h5.056a.843.843,0,0,1,.843.843v5.056a.843.843,0,0,1-.843.843h-5.056a.843.843,0,0,1-.843-.843V65.679a.843.843,0,0,1,.843-.843" transform="translate(-29.828 -10.204)" fill="#d9a389"/>
        <path id="Trazado_152032" data-name="Trazado 152032" d="M179.622,47.075a17.613,17.613,0,0,1,2.481-.92,8.068,8.068,0,0,1,2.233-.442c.852.01,1.043.613,1.217,1.325a2.644,2.644,0,0,0,.757,1.48c.943.8,2.326.412,3.389.131l5.017-1.321a.422.422,0,0,0-.224-.812l-5.116,1.347a4.744,4.744,0,0,1-1.93.261c-.754-.122-.938-.725-1.1-1.381a2.592,2.592,0,0,0-.731-1.458,2.248,2.248,0,0,0-1.773-.379,16.208,16.208,0,0,0-4.649,1.442c-.492.225-.065.951.426.727" transform="translate(-28.169 -7.063)" fill="#2b244a"/>
        <path id="Trazado_152033" data-name="Trazado 152033" d="M179.709,62.2a2.109,2.109,0,0,1,2.7-.214,3.435,3.435,0,0,0,1.413.813,1.246,1.246,0,0,0,1.349-.595c.236-.485-.491-.913-.727-.425-.194.4-.737.127-.992-.049a5.113,5.113,0,0,0-1.411-.859,2.976,2.976,0,0,0-2.926.733.421.421,0,0,0,.6.6" transform="translate(-28.17 -9.56)" fill="#2b244a"/>
        <path id="Trazado_152034" data-name="Trazado 152034" d="M179.625,55.739a5.8,5.8,0,0,1,2.455-1.021c.453-.011.341.254.254.588a1.239,1.239,0,0,0-.035.743c.265.718,1.107.434,1.638.251a13.66,13.66,0,0,0,2.364-1.092c.09-.052.356-.242.462-.19-.059-.029-.133.2-.16.322a.812.812,0,0,0,.17.726c.4.446,1.091.3,1.585.138.888-.29,1.771-.6,2.657-.892a4.04,4.04,0,0,1,2.808-.282c.5.2.723-.615.223-.812a3.852,3.852,0,0,0-2.536.049c-.945.278-1.873.621-2.806.934-.167.056-1.091.5-1.257.311-.037-.041.131-.378.142-.437a.86.86,0,0,0-.007-.347c-.172-.674-.966-.608-1.459-.38a24.856,24.856,0,0,1-2.5,1.17c-.048.016-.584.169-.531.236-.042-.054.105-.4.12-.467a1.273,1.273,0,0,0-.034-.857c-.668-1.411-3.189.109-3.982.582a.422.422,0,0,0,.426.727" transform="translate(-28.172 -8.474)" fill="#2b244a"/>
        <path id="Trazado_152035" data-name="Trazado 152035" d="M101.419,116.466H63.408a.843.843,0,0,1-.843-.843V71.9a.843.843,0,0,1,.843-.843h38.011a.843.843,0,0,1,.843.843v43.722a.843.843,0,0,1-.843.843" transform="translate(-9.847 -11.184)" fill="#ffeae0"/>
        <path id="Trazado_152036" data-name="Trazado 152036" d="M71.3,84.988a53.682,53.682,0,0,1,5.6-2.882q.748-.331,1.507-.636c.24-.1.48-.193.722-.284.186-.07.458-.225.566-.042s-.155.565-.238.745q-.171.374-.342.748l-.727,1.591a.434.434,0,0,0,.066.511,1.911,1.911,0,0,0,1.825.273c.822-.217,1.63-.529,2.438-.8,1.733-.572,3.46-1.179,5.206-1.71a7.46,7.46,0,0,1,2.495-.42,8.323,8.323,0,0,1,2.5.8c1.63.6,3.252.025,4.774-.614.492-.206.276-1.022-.224-.812a11.23,11.23,0,0,1-2.358.789,4.011,4.011,0,0,1-2.372-.341,6.769,6.769,0,0,0-2.043-.641,6.674,6.674,0,0,0-2.257.222c-1.617.4-3.2,1.01-4.777,1.531l-2.337.771c-.557.183-1.732.806-2.274.354l.066.511.942-2.059a3.828,3.828,0,0,0,.551-1.521c-.036-1.388-1.731-.7-2.425-.416a54.1,54.1,0,0,0-7.308,3.6.422.422,0,0,0,.426.727" transform="translate(-11.123 -12.628)" fill="#2b244a"/>
        <path id="Trazado_152037" data-name="Trazado 152037" d="M71.2,94.9q2.37-.982,4.82-1.747c1.255-.389,2.971-1.1,4.267-.5.641.3.889.959,1.305,1.482a2.21,2.21,0,0,0,1.609.842,5.528,5.528,0,0,0,2.077-.37q1.288-.415,2.577-.832l5.85-1.887c.515-.166.294-.98-.223-.813l-5.157,1.664-2.578.832a7.9,7.9,0,0,1-2.306.572c-.871,0-1.208-.555-1.646-1.206A2.8,2.8,0,0,0,80.418,91.8a6.469,6.469,0,0,0-3.958.345,55.512,55.512,0,0,0-5.481,1.947c-.494.2-.277,1.02.225.812" transform="translate(-11.127 -14.33)" fill="#2b244a"/>
        <path id="Trazado_152038" data-name="Trazado 152038" d="M95.768,103.14l5.763-.949c.533-.088.308-.9-.224-.813l-5.763.95c-.533.088-.308.9.224.812" transform="translate(-14.989 -15.954)" fill="#2b244a"/>
        <path id="Trazado_152039" data-name="Trazado 152039" d="M85.579,112.68H75.152a.842.842,0,0,1-.843-.843V101.41a.842.842,0,0,1,.843-.843H85.579a.842.842,0,0,1,.843.843v10.427a.843.843,0,0,1-.843.843" transform="translate(-11.695 -15.828)" fill="#d9a389"/>
        <path id="Trazado_152040" data-name="Trazado 152040" d="M278.617,216.789,234.756,406.641h3.522l47.7-187.331Z" transform="translate(-36.947 -34.12)" fill="#d9a389"/>
        <path id="Trazado_152041" data-name="Trazado 152041" d="M336.621,216.789l43.861,189.852H376.96l-47.7-187.331Z" transform="translate(-51.82 -34.12)" fill="#d9a389"/>
        <rect id="Rectángulo_35058" data-name="Rectángulo 35058" width="111.86" height="4.776" transform="translate(207.061 338.131)" fill="#d9a389"/>
        <path id="Trazado_152042" data-name="Trazado 152042" d="M175.366,290.226l23.921,129.407h-2.808L165.858,290.226Z" transform="translate(-26.104 -45.677)" fill="#31313c"/>
        <path id="Trazado_152043" data-name="Trazado 152043" d="M215.144,290.226l23.921,129.407h-2.808L205.635,290.226Z" transform="translate(-32.364 -45.677)" fill="#31313c"/>
        <path id="Trazado_152044" data-name="Trazado 152044" d="M113.858,290.226,89.937,419.633h2.808l30.621-129.407Z" transform="translate(-14.155 -45.677)" fill="#31313c"/>
        <path id="Trazado_152045" data-name="Trazado 152045" d="M117.785,303.977l34.005,20.6,9.691,5.87a.422.422,0,0,0,.426-.727L127.9,309.12l-9.691-5.87a.422.422,0,0,0-.426.727" transform="translate(-18.506 -47.717)" fill="#31313c"/>
        <path id="Trazado_152046" data-name="Trazado 152046" d="M160.621,302.1l-18.715,11.336-19.235,11.652-10.346,6.267a.422.422,0,0,0,.425.728l18.715-11.336L150.7,309.095l10.346-6.267a.422.422,0,0,0-.426-.727" transform="translate(-17.647 -47.536)" fill="#31313c"/>
        <path id="Trazado_152047" data-name="Trazado 152047" d="M103.428,192.785s-15.341,58.861-4.251,78.335,64.979,13.482,75.791,6.741S151.516,208.2,151.516,208.2Z" transform="translate(-14.976 -30.342)" fill="#31313c"/>
        <path id="Trazado_152048" data-name="Trazado 152048" d="M109.095,233.643c.4,7.359,1.4,15.164,5.172,21.646,2.763,4.742,7.566,8.076,12.641,9.945a33.232,33.232,0,0,0,11.4,1.952.422.422,0,0,0,0-.843,30.019,30.019,0,0,1-17.735-5.423,20.712,20.712,0,0,1-5.157-5.37,31.283,31.283,0,0,1-3.819-9.5,67.082,67.082,0,0,1-1.66-12.406c-.029-.539-.872-.543-.843,0" transform="translate(-17.17 -36.708)" fill="#8c75b5"/>
        <path id="Trazado_152049" data-name="Trazado 152049" d="M222.512,159.935l20.672,18.153-5.945,28.922s-24.7,2.9-36.339-23.662,21.613-23.413,21.613-23.413" transform="translate(-31.23 -25.153)" fill="#e0785e"/>
        <path id="Trazado_152050" data-name="Trazado 152050" d="M290.283,364.127c-.827-2.925-2-5.756-3.065-8.6l-12.963-34.7-12.963-34.7-6.5-17.407a157.119,157.119,0,0,0-6.325-15.253c-4.391-8.8-10.872-17.171-20.183-21.072a28,28,0,0,0-3.464-1.189.388.388,0,0,0-.47.476,4.216,4.216,0,0,0-.688.162c-5.838,1.894-11.441,4.329-14.077,10.264s-2.011,12.836-5.728,18.346c-2.159,3.2,1.292,6.241,4.291,5.641q5.64,15.663,11.281,31.325,6.226,17.285,12.45,34.572l6.226,17.286c1.889,5.246,3.675,10.544,5.732,15.728,3.18,8.014,7.8,16.619,16.568,19.422.173.056.349.1.523.152.6,1.872,1.787,4.793,3.551,5.341,2.634.819,13.441,1.321,19.808-2.384,2.878-1.674,2.715-4.67,1.676-7.451a17.588,17.588,0,0,0,4.828-7.862,15.4,15.4,0,0,0-.506-8.1" transform="translate(-31.978 -36.386)" fill="#fdb768"/>
        <path id="Trazado_152051" data-name="Trazado 152051" d="M218.621,230.1c-4.162-4.735-18.275-3.366-26.515-3.366-.247-.413,1.51-18.191.5-22.754H139.262c-1.353-.87-5-1.919-5.816.028-3.943,9.388-7.362,26.632-9.356,35.665-1.842,8.347.14,16.4,6.8,21.4,6.521,4.9,14.858,6.17,22.762,6.978,1.148.118,2.362.263,3.6.411-.142.188-.29.361-.429.559-2.165,18.968-6.524,41.615-12.212,60-3.5,11.3-7.53,23.983-4.868,35.887a22.084,22.084,0,0,0,8,12.772c-.443,2.9-.078,6.462,4.022,7.367,7.194,1.587,19.094-.594,20.884-2.773a5.248,5.248,0,0,0,.811-3.357,15.925,15.925,0,0,0,2.645-.8c4.784-1.967,6.832-6.988,8.064-11.632,3.692-13.912,6.909-26.884,9.821-40.952,2.922-14.119,5.823-29.309,10.255-43.006,3.9-12.067,8.95-25.2,5.878-38.036q-.3-1.27-.7-2.516,2.71-1.426,5.414-2.845c-1.025-2.207,5.426-7.163,3.784-9.03" transform="translate(-19.427 -31.935)" fill="#fdb768"/>
        <path id="Trazado_152052" data-name="Trazado 152052" d="M216.648,289.5a95.136,95.136,0,0,0,3.5-14.383c.419-2.5.755-5.01.991-7.532a52.237,52.237,0,0,0,.315-6.244,30.257,30.257,0,0,0-2.191-10.67,22.424,22.424,0,0,0-3.053-5.317,13.648,13.648,0,0,0-3.156-3.068A52.591,52.591,0,0,0,200.8,236.7c-.517-.17-.737.643-.224.812a56.244,56.244,0,0,1,11.33,5.056,11.735,11.735,0,0,1,2.829,2.345,20.145,20.145,0,0,1,3.285,5.016,28.737,28.737,0,0,1,2.558,10.63,42.579,42.579,0,0,1-.153,5.5c-.19,2.495-.485,4.982-.868,7.454a96.29,96.29,0,0,1-3.721,15.763c-.173.516.641.736.812.224" transform="translate(-31.522 -37.249)" fill="#2b244a"/>
        <path id="Trazado_152053" data-name="Trazado 152053" d="M208.307,153.613l-5.485-12.2c-1.665-3.7-3.29-7.433-5.122-11.048-6.861-13.54-16.559-18.3-31.379-17.241-6.277.451-19.377,2.127-28.482,4.641-5.76,1.59-10.9,5.346-14.426,8.472-11.411,10.125-26.7,27.195-26.7,27.195,3.472,4.211,7.813,9.777,11.733,13.644,1.972,1.945,4.326,3.432,5.949,5.722a41.6,41.6,0,0,1,2.185,3.574,5.22,5.22,0,0,0,2.841,2.63,16.7,16.7,0,0,0,2.678.554q1.338.216,2.686.366c.554.061,1.111.094,1.666.137-.461,3.706-.812,6.25-1.5,10.357,3.739.8,17.806,2.73,26.836,3.354,17.591,1.217,35.1-2.6,35.134-3,.483-6.186,1.052-13.71,1.535-19.9.572-.672,16.006-13.743,19.856-17.266" transform="translate(-15.221 -17.782)" fill="#ffeae0"/>
        <path id="Trazado_152054" data-name="Trazado 152054" d="M148.944,153.339l-9.024,11.633c-.329.423.264,1.024.6.6l9.024-11.633c.329-.423-.264-1.024-.6-.6" transform="translate(-22.006 -24.11)" fill="#2b244a"/>
        <path id="Trazado_152055" data-name="Trazado 152055" d="M178.406,115.517c.269,4.457.38,8.925.436,13.39.067,5.374.044,10.75-.037,16.123q-.13,8.6-.46,17.2c-.209,5.443-.475,10.886-.829,16.322-.3,4.584-.65,9.166-1.147,13.733q-.081.737-.167,1.471c-.062.538.78.533.843,0,.52-4.436.882-8.889,1.189-13.344.371-5.362.649-10.731.87-16.1q.354-8.6.509-17.2c.1-5.447.138-10.9.091-16.343-.04-4.594-.133-9.189-.372-13.777q-.039-.739-.083-1.478c-.033-.539-.875-.543-.843,0" transform="translate(-27.731 -18.117)" fill="#2b244a"/>
        <path id="Trazado_152056" data-name="Trazado 152056" d="M101.871,155.712,117.86,172.2c.378.39.973-.206.6-.6l-15.989-16.486c-.378-.39-.973.206-.6.6" transform="translate(-16.014 -24.393)" fill="#2b244a"/>
        <path id="Trazado_152057" data-name="Trazado 152057" d="M165.131,115.435q.719,3.659,1.348,7.335c.091.533.9.308.812-.224q-.628-3.675-1.348-7.335c-.1-.532-.917-.307-.812.224" transform="translate(-25.988 -18.085)" fill="#2b244a"/>
        <path id="Trazado_152058" data-name="Trazado 152058" d="M167.25,123.9q5.171-1.33,10.294-2.835a.422.422,0,0,0-.224-.812q-5.123,1.505-10.294,2.835a.422.422,0,0,0,.224.812" transform="translate(-26.24 -18.924)" fill="#2b244a"/>
        <path id="Trazado_152059" data-name="Trazado 152059" d="M190.982,113.27q-.109,4.136-.115,8.273a.422.422,0,0,0,.843,0q.006-4.137.115-8.273a.422.422,0,0,0-.843,0" transform="translate(-30.04 -17.763)" fill="#2b244a"/>
        <path id="Trazado_152060" data-name="Trazado 152060" d="M189.449,122.338q-5.244-1-10.452-2.182c-.528-.12-.753.692-.224.811q5.207,1.18,10.452,2.183c.53.1.757-.71.224-.812" transform="translate(-28.089 -18.909)" fill="#2b244a"/>
        <path id="Trazado_152061" data-name="Trazado 152061" d="M171.164,180.935c-.424-3.241-7.81-12.142-11.155-15.5a17.849,17.849,0,0,0-10.571-5.315c-5.233-.383-11.141,1.532-15.92,2.868-6.09,1.7-12.1,3.669-18.083,5.713-2.853.975-7.3,2.335-10.217,3.405-1.4-.9-7.924-7.939-9.961-10.1-.763,1-5.241,6.446-5.967,7.473-3.4,4.819-7.007,10.211-8.017,16.13A17.225,17.225,0,0,0,100,205.657c1.536-.158,18.825-8,26.22-12.238a218.382,218.382,0,0,1,21.829-10.92c.077,1.526.415,3.053,1.373,3.762,2.266,1.677,5.121.543,7.433-1a4.269,4.269,0,0,0,2.22-3.444c3.626.09,3.337-2.538,3.337-2.538,5.512,4.758,9.172,4.894,8.748,1.653" transform="translate(-12.752 -25.193)" fill="#e0785e"/>
        <path id="Trazado_152062" data-name="Trazado 152062" d="M302.44,157.032c.331-5.608-3.4-11.343-9.294-11.723-3.93-.254-7.612,2.128-10.949,3.89-3.686,1.946-7.316,3.994-10.978,5.986-5.337,2.9-32.441,15.884-35.227,18.436-4.717,4.318-10.122,10.033-10.967,16.669-.8,6.256,3.272,11.6,9.1,13.514,6.977,2.294,14-.75,20.128-3.984,13.6-7.171,25.415-17,36.979-27.023,4.845-4.2,10.795-8.815,11.2-15.764" transform="translate(-35.4 -22.867)" fill="#e0785e"/>
        <path id="Trazado_152063" data-name="Trazado 152063" d="M167.558,260.313a74.247,74.247,0,0,0-5.008,17.245c-.086.53.726.758.812.224a73.5,73.5,0,0,1,4.923-17.044c.211-.494-.515-.924-.727-.426" transform="translate(-25.582 -40.935)" fill="#2b244a"/>
        <path id="Trazado_152064" data-name="Trazado 152064" d="M272.308,413c6.842,1.19,14.255.972,20.6-2.1a20.457,20.457,0,0,0,3.927-2.478c.422-.34-.178-.933-.6-.6-4.762,3.833-11.217,5.1-17.2,5a42.23,42.23,0,0,1-6.515-.634c-.531-.093-.758.72-.224.812" transform="translate(-42.809 -64.17)" fill="#2b244a"/>
        <path id="Trazado_152065" data-name="Trazado 152065" d="M168.359,177.359a19.717,19.717,0,0,1,4.022,7.09.421.421,0,0,0,.812-.223,20.709,20.709,0,0,0-4.238-7.461c-.347-.418-.94.181-.6.595" transform="translate(-26.481 -27.798)" fill="#2b244a"/>
        <path id="Trazado_152066" data-name="Trazado 152066" d="M172.188,174.158a13.7,13.7,0,0,1,4.022,7.09c.106.531.918.306.812-.224a14.492,14.492,0,0,0-4.238-7.461c-.387-.381-.982.214-.6.6" transform="translate(-27.08 -27.297)" fill="#2b244a"/>
        <path id="Trazado_152067" data-name="Trazado 152067" d="M160.7,187.091a53.546,53.546,0,0,1,4.787-3.028.422.422,0,0,0-.426-.728,53.742,53.742,0,0,0-4.787,3.029.432.432,0,0,0-.151.576.425.425,0,0,0,.576.151" transform="translate(-25.192 -28.845)" fill="#2b244a"/>
        <path id="Trazado_152068" data-name="Trazado 152068" d="M297.689,142.95s4.262-9.078,9.612-18.772c4.843-8.776,5.811-9.7,7.535-9.2,2.515.729-.188,10.088-1.011,12.375a63.851,63.851,0,0,1,10.357-6.529c4.527-2,10.27-4.169,11.378-2.95,1.908,2.1-.525,3.721-.525,3.721s3.3.19,3.909,1.7a3.51,3.51,0,0,1-1.086,3.727c-.359.212-9.22,4.553-9.22,4.553s9.607-2.22,10.241-2.126a2.088,2.088,0,0,1,2.032,1.769c.224,2.135-10.16,8.4-13.091,10.539s-11.992,13.962-19.037,20.7c0,0-9.3-13.96-11.093-19.512" transform="translate(-46.852 -18.079)" fill="#e0785e"/>
        <path id="Trazado_152069" data-name="Trazado 152069" d="M339.315,122.708c-4.07,3.423-8.006,7-12.075,10.425-.415.35.183.943.6.6,4.07-3.423,8-7,12.075-10.425.415-.35-.183-.943-.6-.6" transform="translate(-51.481 -19.296)" fill="#2b244a"/>
        <path id="Trazado_152070" data-name="Trazado 152070" d="M322.642,130.779A24.206,24.206,0,0,1,329,141.136c.158.517.971.3.812-.224a25.083,25.083,0,0,0-6.579-10.728c-.391-.377-.988.219-.6.6" transform="translate(-50.759 -20.47)" fill="#2b244a"/>
        <path id="Trazado_152071" data-name="Trazado 152071" d="M315.967,131.073a24.358,24.358,0,0,1-1.037,14.184c-.2.506.618.725.812.224a25.15,25.15,0,0,0,1.037-14.632c-.121-.528-.933-.305-.812.224" transform="translate(-49.561 -20.546)" fill="#2b244a"/>
        <path id="Trazado_152072" data-name="Trazado 152072" d="M329.019,138.192a57,57,0,0,1,5.43-3.227c.481-.25.056-.978-.426-.727a56.816,56.816,0,0,0-5.43,3.227c-.447.3-.026,1.031.426.727" transform="translate(-51.686 -21.119)" fill="#2b244a"/>
        <path id="Trazado_152073" data-name="Trazado 152073" d="M91.545,180.646q7.417-3.132,14.92-6.049c.5-.195.282-1.009-.224-.812q-7.606,2.958-15.122,6.134c-.5.21-.068.936.426.727" transform="translate(-14.306 -27.346)" fill="#2b244a"/>
        <path id="Trazado_152074" data-name="Trazado 152074" d="M183.528,112.993c-1.185,2.423-4.1,7.786-5.915,7.2a60.15,60.15,0,0,1-8.837-6.123c3.553-.454,6.7-.79,9-.959a52.442,52.442,0,0,1,5.754-.115" transform="translate(-26.563 -17.778)" fill="#e0785e"/>
        <path id="Trazado_152075" data-name="Trazado 152075" d="M183.838,105.761l-.78,5.908-14.282.4,1.7-11.818Z" transform="translate(-26.563 -15.778)" fill="#e0785e"/>
        <path id="Trazado_152076" data-name="Trazado 152076" d="M152.437,410.916a62.806,62.806,0,0,0,19.484,1.78,53.6,53.6,0,0,0,5.731-.619c.534-.088.308-.9-.224-.812a62.813,62.813,0,0,1-20.045-.169,48.144,48.144,0,0,1-4.721-.993.422.422,0,0,0-.224.812" transform="translate(-23.944 -64.542)" fill="#2b244a"/>
        <path id="Trazado_152077" data-name="Trazado 152077" d="M178.852,80.442a7.781,7.781,0,1,0,7.782-7.781,7.781,7.781,0,0,0-7.782,7.781" transform="translate(-28.149 -11.436)" fill="#2b244a"/>
        <path id="Trazado_152078" data-name="Trazado 152078" d="M171.764,99.075a31.032,31.032,0,0,0,14.36,5.783c6.225.842,8.119-4.01,7.788-6.121a135.717,135.717,0,0,0-4.135-16.159c-2.1-6.379-4.551-9.279-12.624-9.849s-15.01,2.339-14.708,10.717,6.979,13.889,9.318,15.629" transform="translate(-25.565 -11.436)" fill="#e0785e"/>
        <path id="Trazado_152079" data-name="Trazado 152079" d="M186.141,69.833a6,6,0,0,0-3.07.834,11.687,11.687,0,0,0-7.634-2.611c-4.254,0-7.877,1.957-9.312,4.708l-.016.011a.506.506,0,0,0-.083.087,7.61,7.61,0,0,0-6.984,4.363,8.52,8.52,0,0,0,1.31,8.993,8.94,8.94,0,0,0,1.331,1.25,30.214,30.214,0,0,0,3.592,7.12,14.644,14.644,0,0,0,2.827,2.947c.771.593,2.914,2.178,4.089,1.58a6.51,6.51,0,0,0,3.488-4.329,13.158,13.158,0,0,0,.412-8.435c3.829.65,7.949-2.311,9.447-6.063.2.019.4.03.6.03a5.259,5.259,0,1,0,0-10.483" transform="translate(-24.915 -10.711)" fill="#2b244a"/>
        <path id="Trazado_152080" data-name="Trazado 152080" d="M162.261,90.2a3.642,3.642,0,0,0,2.406,2.414,4.288,4.288,0,0,0,3.834-.86c.494-.363,1.105-.9,1.761-.669.329.116.619.341.945.474a3.569,3.569,0,0,0,.879.232,3.94,3.94,0,0,0,3.3-1.1c.387-.381-.21-.977-.6-.6a3.092,3.092,0,0,1-3.032.766,15.158,15.158,0,0,0-1.506-.65,2.1,2.1,0,0,0-1.387.274c-.47.253-.864.621-1.313.9a3.356,3.356,0,0,1-1.841.535,2.793,2.793,0,0,1-2.642-1.953c-.158-.517-.972-.3-.812.224" transform="translate(-25.534 -14.114)" fill="#8c75b5"/>
        <path id="Trazado_152081" data-name="Trazado 152081" d="M167.244,76.33a3.676,3.676,0,0,0,5.506,2.792,4.062,4.062,0,0,0,.69-.538c.242-.228.5-.575.844-.63s.826.231,1.2.284a3.255,3.255,0,0,0,.9-.005,6.287,6.287,0,0,0,3.665-2.485c.355-.408-.239-1.006-.6-.6a5.691,5.691,0,0,1-3.124,2.242,2.389,2.389,0,0,1-.962-.031,5.35,5.35,0,0,0-.908-.255,1.728,1.728,0,0,0-1.287.557,4.092,4.092,0,0,1-1.308.952,2.885,2.885,0,0,1-1.677.112,2.851,2.851,0,0,1-2.106-2.4c-.065-.532-.908-.538-.843,0" transform="translate(-26.321 -11.806)" fill="#8c75b5"/>
        <path id="Trazado_152082" data-name="Trazado 152082" d="M185.522,80.746a3.805,3.805,0,0,0,4.049,1.642c.527-.127.3-.94-.224-.812a2.946,2.946,0,0,1-3.1-1.255c-.289-.457-1.019-.035-.728.426" transform="translate(-29.188 -12.61)" fill="#8c75b5"/>
        <path id="Trazado_152083" data-name="Trazado 152083" d="M170.27,102.105l-.549,3.817s7.826.747,7.537-6.791-6.989,2.974-6.989,2.974" transform="translate(-26.712 -15.174)" fill="#2b244a"/>
        <path id="Trazado_152084" data-name="Trazado 152084" d="M195.8,89.065s2.439,1.928,3.685,3.1c.71.667.6,1.256.233,1.658a24.83,24.83,0,0,1-2.068,1.887l-3.113-2.034Z" transform="translate(-30.617 -14.018)" fill="#e0785e"/>
        <path id="Trazado_152085" data-name="Trazado 152085" d="M183.864,94.218a4.782,4.782,0,1,1-4.782-4.782,4.782,4.782,0,0,1,4.782,4.782" transform="translate(-27.432 -14.076)" fill="#e0785e"/>
        <path id="Trazado_152086" data-name="Trazado 152086" d="M192.941,89.937a1.03,1.03,0,0,0-.948-.277.972.972,0,0,0-.643.878,3.37,3.37,0,0,0,.14,1.2,2.152,2.152,0,0,0,.708,1.2.9.9,0,0,0,1.414-.7,2.986,2.986,0,0,0-.671-2.3" transform="translate(-30.114 -14.107)" fill="#2b244a"/>
        <path id="Trazado_152087" data-name="Trazado 152087" d="M193.611,87.157c-.114,1.457-1.475.753-2.872,1.561-1.284.742-2.246.845-2.436.067-.228-.939.832-2.383,2.8-2.889,1.844-.474,2.591.2,2.508,1.261" transform="translate(-29.631 -13.494)" fill="#2b244a"/>
        <path id="Trazado_152088" data-name="Trazado 152088" d="M197.968,98.327c-1.809.593-3.706,1.206-3.949,1.3a7.15,7.15,0,0,0,4.465,1.041c-.147-.691-.321-1.479-.516-2.344" transform="translate(-30.536 -15.475)" fill="#fff"/>
        <path id="Trazado_152089" data-name="Trazado 152089" d="M179.864,107.658a35.621,35.621,0,0,0,4.723,2.307.424.424,0,0,0,.518-.294.432.432,0,0,0-.294-.518,34.166,34.166,0,0,1-4.521-2.222.422.422,0,0,0-.426.727" transform="translate(-28.276 -16.82)" fill="#2b244a"/>
        <path id="Trazado_152090" data-name="Trazado 152090" d="M178.446,92.218a3.323,3.323,0,0,0-1.387,2.366,3.268,3.268,0,0,0,.953,2.6.422.422,0,0,0,.6-.6,2.413,2.413,0,0,1,.264-3.639.432.432,0,0,0,.151-.576.424.424,0,0,0-.576-.151" transform="translate(-27.864 -14.504)" fill="#2b244a"/>
        <path id="Trazado_152091" data-name="Trazado 152091" d="M275.82,418.283a67.492,67.492,0,0,0,.4,20.42h51.26s.292-9.86-5.847-12.985c-3.2-1.631-15.111-5.25-16.605-6.934a20.736,20.736,0,0,1-4.181-4.351c-3.308-5.032-7.489-3.24-9.127,1.156a31.3,31.3,0,0,1-15.9,2.694" transform="translate(-43.321 -64.747)" fill="#f5e3d9"/>
        <path id="Trazado_152092" data-name="Trazado 152092" d="M276.112,438.757h50.654a.408.408,0,0,0,0-.816H276.112a.408.408,0,0,0,0,.816" transform="translate(-43.394 -68.926)" fill="#2e1616"/>
        <path id="Trazado_152093" data-name="Trazado 152093" d="M316.591,436.5a16.5,16.5,0,0,1,1.827-5.731,9.648,9.648,0,0,1,4.705-3.916c.486-.184.276-.972-.217-.787a10.618,10.618,0,0,0-5.026,4.029,16.287,16.287,0,0,0-2.076,6.189c-.1.513.691.733.787.217" transform="translate(-49.702 -67.052)" fill="#2e1616"/>
        <path id="Trazado_152094" data-name="Trazado 152094" d="M294.529,416.913a27.051,27.051,0,0,0,6.167,6.3,39.545,39.545,0,0,0,8.4,4.374c1.713.7,3.444,1.352,5.162,2.036.488.194.7-.595.217-.787-5.664-2.254-11.571-4.238-16.038-8.574a26.959,26.959,0,0,1-3.206-3.765c-.3-.425-1.009-.018-.7.412" transform="translate(-46.343 -65.523)" fill="#2e1616"/>
        <path id="Trazado_152095" data-name="Trazado 152095" d="M311.617,428.133c.6-.782,1.293-1.558,1.973-2.3s1.4-1.494,2.155-2.176c.391-.351-.187-.926-.577-.576-.777.7-1.5,1.458-2.2,2.226s-1.41,1.574-2.053,2.411a.411.411,0,0,0,.147.559.418.418,0,0,0,.558-.147" transform="translate(-48.924 -66.57)" fill="#2e1616"/>
        <path id="Trazado_152096" data-name="Trazado 152096" d="M306.227,425.366a26.128,26.128,0,0,1,2-2.272,18.368,18.368,0,0,1,2.183-1.817.419.419,0,0,0,.146-.558.411.411,0,0,0-.558-.147,19.754,19.754,0,0,0-2.3,1.9,25.607,25.607,0,0,0-2.043,2.314.421.421,0,0,0,0,.577.411.411,0,0,0,.577,0" transform="translate(-48.087 -66.183)" fill="#2e1616"/>
        <path id="Trazado_152097" data-name="Trazado 152097" d="M300.515,421.653a23.767,23.767,0,0,1,2.7-2.092,19.056,19.056,0,0,1,2.959-1.725.412.412,0,0,0,.147-.559.417.417,0,0,0-.558-.146,19.294,19.294,0,0,0-3.033,1.775,25.024,25.024,0,0,0-2.793,2.171c-.388.356.19.931.577.576" transform="translate(-47.186 -65.643)" fill="#2e1616"/>
        <path id="Trazado_152098" data-name="Trazado 152098" d="M154.136,416.812a70.805,70.805,0,0,0,.024,21.891h51.26s.292-9.859-5.846-12.984c-3.2-1.631-15.111-5.249-16.605-6.935a20.744,20.744,0,0,1-4.181-4.35c-3.308-5.032-7.489-3.241-9.127,1.155a42.266,42.266,0,0,1-15.524,1.223" transform="translate(-24.129 -64.747)" fill="#f5e3d9"/>
        <path id="Trazado_152099" data-name="Trazado 152099" d="M154.037,438.757H204.69a.408.408,0,0,0,0-.816H154.037a.408.408,0,0,0,0,.816" transform="translate(-24.181 -68.926)" fill="#2e1616"/>
        <path id="Trazado_152100" data-name="Trazado 152100" d="M194.516,436.5a16.5,16.5,0,0,1,1.827-5.731,9.648,9.648,0,0,1,4.705-3.916c.486-.184.276-.972-.217-.787A10.618,10.618,0,0,0,195.8,430.1a16.285,16.285,0,0,0-2.076,6.189c-.1.513.691.733.787.217" transform="translate(-30.489 -67.052)" fill="#2e1616"/>
        <path id="Trazado_152101" data-name="Trazado 152101" d="M172.454,416.913a27.053,27.053,0,0,0,6.167,6.3,39.546,39.546,0,0,0,8.4,4.374c1.713.7,3.444,1.352,5.162,2.036.488.194.7-.595.217-.787-5.664-2.254-11.571-4.238-16.038-8.574a27.011,27.011,0,0,1-3.206-3.765c-.3-.425-1.009-.018-.7.412" transform="translate(-27.13 -65.523)" fill="#2e1616"/>
        <path id="Trazado_152102" data-name="Trazado 152102" d="M189.542,428.133c.6-.782,1.293-1.558,1.973-2.3s1.4-1.494,2.155-2.176c.391-.351-.187-.926-.577-.576-.777.7-1.5,1.458-2.2,2.226s-1.41,1.574-2.053,2.411a.411.411,0,0,0,.147.559.418.418,0,0,0,.558-.147" transform="translate(-29.711 -66.57)" fill="#2e1616"/>
        <path id="Trazado_152103" data-name="Trazado 152103" d="M184.152,425.366a26,26,0,0,1,2-2.272,18.291,18.291,0,0,1,2.182-1.817.419.419,0,0,0,.146-.558.411.411,0,0,0-.558-.147,19.761,19.761,0,0,0-2.3,1.9,25.6,25.6,0,0,0-2.042,2.314.42.42,0,0,0,0,.577.41.41,0,0,0,.576,0" transform="translate(-28.874 -66.183)" fill="#2e1616"/>
        <path id="Trazado_152104" data-name="Trazado 152104" d="M178.44,421.653a23.768,23.768,0,0,1,2.7-2.092,19.056,19.056,0,0,1,2.959-1.725.412.412,0,0,0,.147-.559.417.417,0,0,0-.558-.146,19.259,19.259,0,0,0-3.033,1.775,25.028,25.028,0,0,0-2.793,2.171c-.388.356.19.931.577.576" transform="translate(-27.973 -65.643)" fill="#2e1616"/>
        <path id="Trazado_152105" data-name="Trazado 152105" d="M74.258,218.491,30.4,408.343h3.522l47.7-187.331Z" transform="translate(-4.784 -34.387)" fill="#d9a389"/>
        <path id="Trazado_152106" data-name="Trazado 152106" d="M132.262,218.491l43.861,189.852H172.6L124.9,221.012Z" transform="translate(-19.657 -34.387)" fill="#d9a389"/>
        <path id="Trazado_152107" data-name="Trazado 152107" d="M129.724,239.15h6.783a.422.422,0,0,0,0-.843h-6.783a.422.422,0,0,0,0,.843" transform="translate(-20.353 -37.506)" fill="#2b244a"/>
        <path id="Trazado_152108" data-name="Trazado 152108" d="M78.3,239.15h6.783a.422.422,0,0,0,0-.843H78.3a.422.422,0,0,0,0,.843" transform="translate(-12.26 -37.506)" fill="#2b244a"/>
        <path id="Trazado_152109" data-name="Trazado 152109" d="M316.31,215.984H41.7a2.1,2.1,0,0,1-2.095-2.095V213.3a2.1,2.1,0,0,1,2.095-2.095H316.31A2.1,2.1,0,0,1,318.4,213.3v.586a2.1,2.1,0,0,1-2.095,2.095" transform="translate(-6.233 -33.241)" fill="#d9a389"/>
        <rect id="Rectángulo_35059" data-name="Rectángulo 35059" width="223.296" height="17.981" transform="translate(65.635 182.744)" fill="#d9a389"/>
        <path id="Trazado_152110" data-name="Trazado 152110" d="M138.193,235.3V216.961a.422.422,0,0,0-.843,0V235.3a.422.422,0,0,0,.843,0" transform="translate(-21.617 -34.082)" fill="#2b244a"/>
        <path id="Trazado_152111" data-name="Trazado 152111" d="M334.511,239.15h6.783a.422.422,0,0,0,0-.843h-6.783a.422.422,0,0,0,0,.843" transform="translate(-52.583 -37.506)" fill="#2b244a"/>
        <path id="Trazado_152112" data-name="Trazado 152112" d="M283.09,239.15h6.783a.422.422,0,0,0,0-.843H283.09a.422.422,0,0,0,0,.843" transform="translate(-44.49 -37.506)" fill="#2b244a"/>
        <path id="Trazado_152113" data-name="Trazado 152113" d="M78.343,217.219H300.764a.422.422,0,0,0,0-.843H78.343a.422.422,0,0,0,0,.843" transform="translate(-12.266 -34.055)" fill="#2b244a"/>
        <rect id="Rectángulo_35060" data-name="Rectángulo 35060" width="111.86" height="4.776" transform="translate(35.109 339.565)" fill="#d9a389"/>
        <path id="Trazado_152114" data-name="Trazado 152114" d="M164.2,211.87a3.583,3.583,0,0,1-.062,3.114.432.432,0,0,0,.152.576.426.426,0,0,0,.576-.152,4.484,4.484,0,0,0,.061-3.964.425.425,0,0,0-.576-.151.431.431,0,0,0-.151.576" transform="translate(-25.825 -33.246)" fill="#2b244a"/>
        <path id="Trazado_152115" data-name="Trazado 152115" d="M266.013,142.35h-66.9a1.922,1.922,0,0,0-1.782,1.2l-22.936,56.819h71.048l22.355-55.381a1.921,1.921,0,0,0-1.782-2.641" transform="translate(-27.447 -22.404)" fill="#31313c"/>
        <path id="Trazado_152116" data-name="Trazado 152116" d="M186.594,207.491H142.326a2.056,2.056,0,0,0-2.056,2.056v1.077h46.324Z" transform="translate(-22.077 -32.656)" fill="#31313c"/>
        <path id="Trazado_152117" data-name="Trazado 152117" d="M179.852,198.565,188.543,177q4.582-11.371,9.165-22.744l2.337-5.8q.56-1.39,1.121-2.781a4.5,4.5,0,0,1,2.219-2.567c.489-.235.062-.962-.426-.728a5,5,0,0,0-2.122,1.975,18.877,18.877,0,0,0-1.025,2.437l-2.112,5.242-4.484,11.129q-4.694,11.648-9.388,23.3-2.4,5.942-4.789,11.883c-.2.5.612.721.812.224" transform="translate(-28.173 -22.401)" fill="#12263f"/>
        <path id="Trazado_152118" data-name="Trazado 152118" d="M176.512,207.431a2.913,2.913,0,0,1,.494.114,1.876,1.876,0,0,1,.406.176,2.817,2.817,0,0,1,.778.6c.059.062.115.126.169.193l.04.049c-.019-.024-.019-.024,0,0s.05.07.074.1a3.319,3.319,0,0,1,.251.434,2.332,2.332,0,0,1,.143.4c.02.078.038.156.051.236,0,.019.007.04.009.059q-.008-.059,0-.013c0,.046.008.092.01.138a.43.43,0,0,0,.421.421.425.425,0,0,0,.421-.421,3.679,3.679,0,0,0-3.041-3.3.436.436,0,0,0-.518.294.424.424,0,0,0,.294.518" transform="translate(-27.732 -32.518)" fill="#12263f"/>
        <path id="Trazado_152119" data-name="Trazado 152119" d="M232.311,181.857a4.462,4.462,0,0,1-3.785-1.765,5.039,5.039,0,0,1-.4-4.618,9.5,9.5,0,0,1,8.255-6.106,4.465,4.465,0,0,1,3.786,1.765,5.039,5.039,0,0,1,.4,4.618,9.5,9.5,0,0,1-8.256,6.106m4.069-11.647a8.6,8.6,0,0,0-7.46,5.541,4.161,4.161,0,0,0,.292,3.852,3.649,3.649,0,0,0,3.1,1.411,8.6,8.6,0,0,0,7.46-5.541,4.159,4.159,0,0,0-.292-3.852,3.647,3.647,0,0,0-3.1-1.411" transform="translate(-35.846 -26.656)" fill="#12263f"/>
        <path id="Trazado_152120" data-name="Trazado 152120" d="M290.442,192.087h0a1.416,1.416,0,0,1-1.416-1.416V166.692a1.416,1.416,0,0,1,2.833,0v23.978a1.416,1.416,0,0,1-1.416,1.416" transform="translate(-45.489 -26.012)" fill="#ffeae0"/>
        <path id="Trazado_152121" data-name="Trazado 152121" d="M296.41,186.332h0a1.416,1.416,0,0,1-1.221-1.587l3.557-27.218a1.416,1.416,0,0,1,2.808.367L298,185.111a1.416,1.416,0,0,1-1.587,1.221" transform="translate(-46.457 -24.599)" fill="#ffeae0"/>
        <path id="Trazado_152122" data-name="Trazado 152122" d="M299.27,190.09h0a1.417,1.417,0,0,1-1.077-1.689l5.177-23.413a1.416,1.416,0,0,1,2.765.611l-5.177,23.414a1.417,1.417,0,0,1-1.689,1.077" transform="translate(-46.926 -25.792)" fill="#ffeae0"/>
        <path id="Trazado_152123" data-name="Trazado 152123" d="M286.493,183.674l1.4,23.093h12.468l1.4-23.093a.653.653,0,0,0-.652-.693H287.145a.653.653,0,0,0-.652.693" transform="translate(-45.09 -28.799)" fill="#785549"/>
        <path id="Trazado_152124" data-name="Trazado 152124" d="M65.175,359.123Q64.1,369.766,62.925,380.4c-.7,6.39-1.42,12.777-2.1,19.169q-.676,6.331-1.314,12.664c-.054.539.789.535.843,0q1.071-10.643,2.25-21.276c.7-6.389,1.42-12.777,2.1-19.169q.677-6.331,1.314-12.664c.054-.539-.789-.535-.843,0" transform="translate(-9.365 -56.457)" fill="#2b244a"/>
        <path id="Trazado_152125" data-name="Trazado 152125" d="M51.2,440.331c1.974-.025,3.317-1.667,4.179-3.269a29.656,29.656,0,0,0,2.64-8.483c.408-2.128.71-4.275.964-6.426.063-.538-.78-.532-.843,0a67.4,67.4,0,0,1-1.8,10c-.591,2.149-1.333,4.6-2.918,6.253a3.143,3.143,0,0,1-2.218,1.08.422.422,0,0,0,0,.843" transform="translate(-7.993 -66.378)" fill="#2b244a"/>
        <path id="Trazado_152126" data-name="Trazado 152126" d="M45.639,442.8H15.889a.422.422,0,0,0,0,.843h29.75a.422.422,0,0,0,0-.843" transform="translate(-2.437 -69.691)" fill="#2b244a"/>
        <path id="Trazado_152127" data-name="Trazado 152127" d="M56.234,358.7H.427a.422.422,0,0,0,0,.843H56.234a.422.422,0,0,0,0-.843" transform="translate(-0.003 -56.454)" fill="#2b244a"/>
        <path id="Trazado_152128" data-name="Trazado 152128" d="M0,359.123q1.071,10.643,2.25,21.276c.7,6.39,1.42,12.777,2.1,19.169q.676,6.331,1.314,12.664c.054.534.9.54.843,0q-1.071-10.643-2.25-21.276c-.7-6.389-1.42-12.777-2.1-19.169q-.677-6.331-1.314-12.664c-.054-.534-.9-.54-.843,0" transform="translate(0 -56.457)" fill="#2b244a"/>
        <path id="Trazado_152129" data-name="Trazado 152129" d="M14.511,439.488c-1.775-.023-2.9-1.742-3.611-3.157a30.546,30.546,0,0,1-2.412-8.062c-.385-2.026-.677-4.068-.918-6.117-.062-.532-.906-.538-.843,0a66.445,66.445,0,0,0,1.957,10.66c.641,2.224,1.483,4.787,3.233,6.408a3.877,3.877,0,0,0,2.593,1.111.422.422,0,0,0,0-.843" transform="translate(-1.058 -66.378)" fill="#2b244a"/>
        <path id="Trazado_152130" data-name="Trazado 152130" d="M33.118,359.122v70.866a.422.422,0,0,0,.843,0V359.122a.422.422,0,0,0-.843,0" transform="translate(-5.212 -56.457)" fill="#2b244a"/>
        <path id="Trazado_152131" data-name="Trazado 152131" d="M16.15,359.122q.891,13.582,1.781,27.164.954,14.543,1.908,29.086.478,7.275.954,14.55c.035.538.879.542.843,0q-.89-13.582-1.781-27.164-.953-14.543-1.907-29.086-.478-7.275-.955-14.55c-.035-.538-.878-.543-.843,0" transform="translate(-2.542 -56.457)" fill="#2b244a"/>
        <path id="Trazado_152132" data-name="Trazado 152132" d="M49.22,359.122q-.891,13.582-1.781,27.164-.954,14.543-1.908,29.086-.477,7.275-.954,14.55c-.036.541.807.539.843,0q.89-13.582,1.781-27.164.953-14.543,1.908-29.086.476-7.275.954-14.55c.035-.542-.807-.539-.843,0" transform="translate(-7.016 -56.457)" fill="#2b244a"/>
        <path id="Trazado_152133" data-name="Trazado 152133" d="M8.754,432.262h41.79a.422.422,0,0,0,0-.843H8.754a.422.422,0,0,0,0,.843" transform="translate(-1.314 -67.899)" fill="#2b244a"/>
        <path id="Trazado_152134" data-name="Trazado 152134" d="M352.108,292.155H300.672a6.435,6.435,0,0,1-6.436-6.436V214.524a6.436,6.436,0,0,1,6.436-6.436h32.621l25.251,26.026v51.605a6.436,6.436,0,0,1-6.436,6.436" transform="translate(-46.309 -32.75)" fill="#ececec"/>
        <path id="Trazado_152135" data-name="Trazado 152135" d="M340.588,208.088v20.037a5.986,5.986,0,0,0,5.985,5.986l19.266,0Z" transform="translate(-53.604 -32.75)" fill="#f5f5f5"/>
        <path id="Trazado_152136" data-name="Trazado 152136" d="M340.9,233.954s-.254,4.859,5.279,6.457a5.983,5.983,0,0,0,.634.143c2.515.45,19.076,3.395,19.076,3.015v-5.384H346.622s-4.81-.164-5.722-4.231" transform="translate(-53.653 -36.821)" fill="#e1e1e1"/>
        <path id="Trazado_152137" data-name="Trazado 152137" d="M352.067,292.113c0-.03.386.008,1.111-.131a6.44,6.44,0,0,0,2.919-1.36,6.359,6.359,0,0,0,2.3-4.539c.033-2.076-.005-4.485,0-7.174-.019-10.78-.045-26.2-.078-44.836l.051.128L333.1,208.192l.151.064-18.824.007-9.846,0h-2.5a16.47,16.47,0,0,0-2.471.09,6.222,6.222,0,0,0-4.038,2.519,6.134,6.134,0,0,0-1.138,3.165c-.046,1.141-.013,2.333-.023,3.491q0,3.5,0,6.945,0,6.9,0,13.577c0,8.9-.009,17.488-.013,25.667q-.005,6.134-.009,11.952,0,2.907-.006,5.726,0,1.409,0,2.8a14.752,14.752,0,0,0,.119,2.707,6.275,6.275,0,0,0,2.913,4.138,6.2,6.2,0,0,0,2.374.838,23.827,23.827,0,0,0,2.531.067l9.709.014,29.3.07,7.966.04,2.071.022c.467.008.706.023.706.023s-.239.015-.706.023l-2.071.022-7.966.04-29.3.07-9.709.014a23.97,23.97,0,0,1-2.578-.064,6.546,6.546,0,0,1-2.508-.879,6.63,6.63,0,0,1-3.089-4.368,15.108,15.108,0,0,1-.131-2.778q0-1.388,0-2.8,0-2.82-.005-5.726-.005-5.812-.009-11.952c0-8.179-.008-16.765-.013-25.667q0-6.676,0-13.577,0-3.448,0-6.945c.01-1.171-.025-2.319.024-3.522a6.575,6.575,0,0,1,1.218-3.389,6.66,6.66,0,0,1,4.323-2.7,16.628,16.628,0,0,1,2.542-.1h2.5l9.846,0,18.824.007h.089l.062.064,25.232,26.045.052.054v.073c-.032,18.634-.058,34.057-.078,44.836-.017,2.694.005,5.088-.045,7.184a6.471,6.471,0,0,1-2.4,4.615,6.393,6.393,0,0,1-2.979,1.33,4.885,4.885,0,0,1-.838.075c-.189.005-.284,0-.284,0" transform="translate(-46.267 -32.709)" fill="#1a2e35"/>
        <path id="Trazado_152138" data-name="Trazado 152138" d="M365.8,234.114a2.136,2.136,0,0,1-.495.044l-1.419.041-5.219.069-7.74.045-4.576,0a6.21,6.21,0,0,1-5.735-4.329,7.182,7.182,0,0,1-.282-2.457c0-1.583.008-3.113.013-4.571.018-2.9.034-5.519.047-7.741.029-2.159.052-3.927.07-5.218.016-.576.03-1.047.04-1.419a2.1,2.1,0,0,1,.045-.495,2.133,2.133,0,0,1,.044.495c.011.372.024.842.041,1.419.018,1.292.041,3.06.07,5.218.013,2.222.03,4.842.047,7.741,0,1.459.008,2.988.013,4.571a6.767,6.767,0,0,0,.269,2.326,5.8,5.8,0,0,0,5.331,4.03l4.564.022,7.74.049,5.219.07,1.419.041a2.1,2.1,0,0,1,.495.045" transform="translate(-53.563 -32.75)" fill="#1a2e35"/>
        <path id="Trazado_152139" data-name="Trazado 152139" d="M334.366,229.266c0,.121-6.075.219-13.569.219s-13.569-.1-13.569-.219,6.074-.219,13.569-.219,13.569.1,13.569.219" transform="translate(-48.353 -36.049)" fill="#1a2e35"/>
        <path id="Trazado_152140" data-name="Trazado 152140" d="M347.241,241.129c0,.121-8.958.219-20.006.219s-20.008-.1-20.008-.219,8.956-.219,20.008-.219,20.006.1,20.006.219" transform="translate(-48.353 -37.916)" fill="#1a2e35"/>
        <path id="Trazado_152141" data-name="Trazado 152141" d="M347.241,252.991c0,.121-8.958.219-20.006.219s-20.008-.1-20.008-.219,8.956-.219,20.008-.219,20.006.1,20.006.219" transform="translate(-48.353 -39.783)" fill="#1a2e35"/>
        <path id="Trazado_152142" data-name="Trazado 152142" d="M347.241,264.854c0,.121-8.958.219-20.006.219s-20.008-.1-20.008-.219,8.956-.219,20.008-.219,20.006.1,20.006.219" transform="translate(-48.353 -41.65)" fill="#1a2e35"/>
        <path id="Trazado_152143" data-name="Trazado 152143" d="M347.241,276.716c0,.121-8.958.219-20.006.22s-20.008-.1-20.008-.22,8.956-.219,20.008-.219,20.006.1,20.006.219" transform="translate(-48.353 -43.517)" fill="#1a2e35"/>
        <path id="Trazado_152144" data-name="Trazado 152144" d="M347.241,288.579c0,.121-8.958.219-20.006.219s-20.008-.1-20.008-.219,8.956-.219,20.008-.219,20.006.1,20.006.219" transform="translate(-48.353 -45.384)" fill="#1a2e35"/>
        <path id="Trazado_152145" data-name="Trazado 152145" d="M320.678,287.721H284.1a3.557,3.557,0,0,1-3.557-3.557V271.649a3.558,3.558,0,0,1,3.557-3.558h36.575a3.557,3.557,0,0,1,3.557,3.558v12.516a3.556,3.556,0,0,1-3.557,3.557" transform="translate(-44.154 -42.194)" fill="#31313c"/>
        <path id="Trazado_152146" data-name="Trazado 152146" d="M287.382,281.4l2.837-.178a2.158,2.158,0,0,0,.376,1.053,1.577,1.577,0,0,0,1.316.586,1.462,1.462,0,0,0,.984-.3.9.9,0,0,0,.345-.694.884.884,0,0,0-.329-.672,3.781,3.781,0,0,0-1.527-.559,6.5,6.5,0,0,1-2.8-1.172,2.357,2.357,0,0,1-.843-1.863,2.529,2.529,0,0,1,.431-1.405,2.858,2.858,0,0,1,1.3-1.04,6.034,6.034,0,0,1,2.374-.378,4.852,4.852,0,0,1,2.821.688,2.969,2.969,0,0,1,1.155,2.189l-2.811.164a1.314,1.314,0,0,0-1.462-1.245,1.187,1.187,0,0,0-.783.221.674.674,0,0,0-.264.537.538.538,0,0,0,.217.415,2.461,2.461,0,0,0,1,.356,12.436,12.436,0,0,1,2.8.853,2.93,2.93,0,0,1,1.231,1.069,2.716,2.716,0,0,1,.385,1.428,3.058,3.058,0,0,1-.514,1.712,3.215,3.215,0,0,1-1.435,1.188,5.8,5.8,0,0,1-2.324.4,4.786,4.786,0,0,1-3.41-.948,3.739,3.739,0,0,1-1.073-2.409" transform="translate(-45.23 -43.246)" fill="#fff"/>
        <path id="Trazado_152147" data-name="Trazado 152147" d="M298.429,274.971h3.118l2.171,6.945,2.144-6.945h3.027l-3.584,9.65h-3.232Z" transform="translate(-46.968 -43.277)" fill="#fff"/>
        <path id="Trazado_152148" data-name="Trazado 152148" d="M316.235,281.1v-2.008h4.608V283.2a9.46,9.46,0,0,1-2.341,1.228,7.934,7.934,0,0,1-2.412.326,5.868,5.868,0,0,1-2.8-.586,4.011,4.011,0,0,1-1.678-1.744,5.731,5.731,0,0,1-.6-2.659,5.558,5.558,0,0,1,.651-2.749,4.209,4.209,0,0,1,1.909-1.774,6.2,6.2,0,0,1,2.64-.468,7.37,7.37,0,0,1,2.392.29,3.094,3.094,0,0,1,1.317.9,3.981,3.981,0,0,1,.786,1.544l-2.877.514a1.55,1.55,0,0,0-.6-.837,1.878,1.878,0,0,0-1.084-.289,1.952,1.952,0,0,0-1.563.681,3.279,3.279,0,0,0-.582,2.156,3.379,3.379,0,0,0,.589,2.238,2.071,2.071,0,0,0,1.642.672,3.168,3.168,0,0,0,.955-.145,5.194,5.194,0,0,0,1.04-.494V281.1Z" transform="translate(-48.949 -43.246)" fill="#fff"/>
        <path id="Trazado_152149" data-name="Trazado 152149" d="M291.6,89.432H240.164A6.435,6.435,0,0,1,233.728,83V11.8a6.436,6.436,0,0,1,6.435-6.436h32.622l25.251,26.026V83a6.436,6.436,0,0,1-6.436,6.436" transform="translate(-36.785 -0.844)" fill="#ececec"/>
        <path id="Trazado_152150" data-name="Trazado 152150" d="M280.08,5.364V25.4a5.986,5.986,0,0,0,5.985,5.986l19.266,0Z" transform="translate(-44.081 -0.844)" fill="#f5f5f5"/>
        <path id="Trazado_152151" data-name="Trazado 152151" d="M280.392,31.231s-.254,4.859,5.279,6.457a6.035,6.035,0,0,0,.634.143c2.515.449,19.076,3.395,19.076,3.015V35.462H286.114s-4.81-.164-5.722-4.231" transform="translate(-44.129 -4.915)" fill="#e1e1e1"/>
        <path id="Trazado_152152" data-name="Trazado 152152" d="M291.559,89.39c0-.03.386.008,1.111-.131a6.454,6.454,0,0,0,2.919-1.361,6.362,6.362,0,0,0,2.3-4.539c.033-2.076-.005-4.484,0-7.174-.018-10.78-.046-26.2-.078-44.836l.051.128L272.593,5.469l.151.064-18.824.007-9.846,0h-2.5a16.474,16.474,0,0,0-2.471.09,6.222,6.222,0,0,0-4.038,2.519,6.134,6.134,0,0,0-1.138,3.165c-.046,1.141-.013,2.333-.023,3.492q0,3.5,0,6.944,0,6.9,0,13.577c0,8.9-.009,17.488-.013,25.667q-.005,6.134-.009,11.952,0,2.906-.006,5.726,0,1.409,0,2.8a14.746,14.746,0,0,0,.119,2.707,6.275,6.275,0,0,0,2.913,4.138,6.2,6.2,0,0,0,2.374.838,23.823,23.823,0,0,0,2.531.067l9.709.014,29.3.07,7.966.041,2.071.021c.467.008.706.023.706.023s-.239.015-.706.023l-2.071.022-7.966.04-29.3.07-9.709.014a23.985,23.985,0,0,1-2.578-.064,6.547,6.547,0,0,1-2.508-.879,6.628,6.628,0,0,1-3.089-4.368,15.106,15.106,0,0,1-.131-2.778q0-1.388,0-2.8,0-2.82-.005-5.726-.005-5.813-.009-11.952c0-8.179-.008-16.765-.013-25.667q0-6.676,0-13.577,0-3.448,0-6.944c.01-1.172-.024-2.32.023-3.523A6.584,6.584,0,0,1,234.709,7.9a6.66,6.66,0,0,1,4.323-2.7,16.63,16.63,0,0,1,2.542-.1h2.5l9.846,0,18.824.007h.089l.062.064,25.232,26.045.052.054v.073c-.032,18.634-.059,34.057-.078,44.836-.017,2.694.005,5.088-.045,7.184a6.471,6.471,0,0,1-2.4,4.615,6.394,6.394,0,0,1-2.979,1.33,4.8,4.8,0,0,1-.838.075c-.189.005-.284,0-.284,0" transform="translate(-36.744 -0.803)" fill="#1a2e35"/>
        <path id="Trazado_152153" data-name="Trazado 152153" d="M305.29,31.391a2.134,2.134,0,0,1-.495.044l-1.419.041-5.219.069-7.74.045-4.576,0a6.209,6.209,0,0,1-5.735-4.329,7.175,7.175,0,0,1-.282-2.456c0-1.583.008-3.113.013-4.571.018-2.9.034-5.519.047-7.741.029-2.159.052-3.927.07-5.218.016-.577.03-1.047.04-1.419a2.1,2.1,0,0,1,.045-.495,2.137,2.137,0,0,1,.044.495c.011.372.024.842.041,1.419.018,1.292.041,3.06.07,5.218.013,2.222.03,4.842.047,7.741,0,1.459.008,2.988.013,4.571a6.769,6.769,0,0,0,.269,2.326,5.8,5.8,0,0,0,5.331,4.03l4.564.022,7.74.049,5.219.07,1.419.042a2.134,2.134,0,0,1,.495.044" transform="translate(-44.04 -0.844)" fill="#1a2e35"/>
        <path id="Trazado_152154" data-name="Trazado 152154" d="M273.858,26.543c0,.121-6.076.219-13.569.219s-13.569-.1-13.569-.219,6.074-.219,13.569-.219,13.569.1,13.569.219" transform="translate(-38.83 -4.143)" fill="#1a2e35"/>
        <path id="Trazado_152155" data-name="Trazado 152155" d="M286.733,38.405c0,.121-8.958.219-20.006.219s-20.008-.1-20.008-.219,8.956-.219,20.008-.219,20.006.1,20.006.219" transform="translate(-38.83 -6.01)" fill="#1a2e35"/>
        <path id="Trazado_152156" data-name="Trazado 152156" d="M286.733,50.268c0,.121-8.958.219-20.006.219s-20.008-.1-20.008-.219,8.956-.219,20.008-.219,20.006.1,20.006.219" transform="translate(-38.83 -7.877)" fill="#1a2e35"/>
        <path id="Trazado_152157" data-name="Trazado 152157" d="M286.733,62.13c0,.121-8.958.219-20.006.219s-20.008-.1-20.008-.219,8.956-.219,20.008-.219,20.006.1,20.006.219" transform="translate(-38.83 -9.744)" fill="#1a2e35"/>
        <path id="Trazado_152158" data-name="Trazado 152158" d="M286.733,73.993c0,.121-8.958.219-20.006.219s-20.008-.1-20.008-.219,8.956-.219,20.008-.219,20.006.1,20.006.219" transform="translate(-38.83 -11.611)" fill="#1a2e35"/>
        <path id="Trazado_152159" data-name="Trazado 152159" d="M286.733,85.855c0,.121-8.958.219-20.006.219s-20.008-.1-20.008-.219,8.956-.219,20.008-.219,20.006.1,20.006.219" transform="translate(-38.83 -13.478)" fill="#1a2e35"/>
        <path id="Trazado_152160" data-name="Trazado 152160" d="M260.17,85H223.6a3.557,3.557,0,0,1-3.557-3.557V68.925a3.557,3.557,0,0,1,3.557-3.558H260.17a3.557,3.557,0,0,1,3.557,3.558V81.441A3.557,3.557,0,0,1,260.17,85" transform="translate(-34.631 -10.288)" fill="#31313c"/>
        <path id="Trazado_152161" data-name="Trazado 152161" d="M231.365,72.247h2.989v5.244A8.229,8.229,0,0,1,234.06,80a2.884,2.884,0,0,1-1.178,1.46,3.968,3.968,0,0,1-2.268.6,5.247,5.247,0,0,1-2.264-.394,2.85,2.85,0,0,1-1.241-1.155,4.345,4.345,0,0,1-.517-1.88l2.851-.388a3.235,3.235,0,0,0,.112.948,1.028,1.028,0,0,0,.355.5.819.819,0,0,0,.488.125.8.8,0,0,0,.734-.372,2.481,2.481,0,0,0,.233-1.252Z" transform="translate(-35.662 -11.371)" fill="#fff"/>
        <path id="Trazado_152162" data-name="Trazado 152162" d="M238.147,72.247H243.1a3.394,3.394,0,0,1,2.426.77,2.89,2.89,0,0,1,.806,2.192,2.979,2.979,0,0,1-.879,2.284,3.809,3.809,0,0,1-2.683.822h-1.632V81.9h-3Zm3,4.114h.731a1.884,1.884,0,0,0,1.212-.3.968.968,0,0,0,.349-.768,1.071,1.071,0,0,0-.3-.77,1.569,1.569,0,0,0-1.138-.316h-.849Z" transform="translate(-37.481 -11.371)" fill="#fff"/>
        <path id="Trazado_152163" data-name="Trazado 152163" d="M254.5,78.372V76.364h4.608v4.114a9.433,9.433,0,0,1-2.341,1.228,7.934,7.934,0,0,1-2.412.326,5.858,5.858,0,0,1-2.8-.586,4,4,0,0,1-1.678-1.744,5.729,5.729,0,0,1-.6-2.659,5.56,5.56,0,0,1,.651-2.749,4.219,4.219,0,0,1,1.909-1.774,6.208,6.208,0,0,1,2.64-.468,7.393,7.393,0,0,1,2.392.29,3.109,3.109,0,0,1,1.317.9,3.992,3.992,0,0,1,.786,1.544L256.1,75.3a1.556,1.556,0,0,0-.6-.837,1.884,1.884,0,0,0-1.084-.289,1.951,1.951,0,0,0-1.563.681,3.28,3.28,0,0,0-.582,2.156,3.378,3.378,0,0,0,.589,2.238,2.071,2.071,0,0,0,1.642.672,3.141,3.141,0,0,0,.955-.145,5.15,5.15,0,0,0,1.04-.494v-.908Z" transform="translate(-39.233 -11.34)" fill="#fff"/>
        <path id="Trazado_152164" data-name="Trazado 152164" d="M87.241,176.543H35.8a6.435,6.435,0,0,1-6.436-6.436V98.912A6.436,6.436,0,0,1,35.8,92.476H68.426L93.677,118.5v51.605a6.436,6.436,0,0,1-6.436,6.436" transform="translate(-4.622 -14.554)" fill="#ececec"/>
        <path id="Trazado_152165" data-name="Trazado 152165" d="M75.721,92.476v20.037a5.986,5.986,0,0,0,5.985,5.986l19.266,0Z" transform="translate(-11.917 -14.554)" fill="#f5f5f5"/>
        <path id="Trazado_152166" data-name="Trazado 152166" d="M76.033,118.343s-.254,4.859,5.279,6.457a5.994,5.994,0,0,0,.634.143c2.515.449,19.076,3.395,19.076,3.015v-5.384H81.755s-4.81-.164-5.722-4.231" transform="translate(-11.966 -18.626)" fill="#e1e1e1"/>
        <path id="Trazado_152167" data-name="Trazado 152167" d="M87.2,176.5c0-.03.386.008,1.111-.131a6.441,6.441,0,0,0,2.919-1.36,6.359,6.359,0,0,0,2.3-4.538c.033-2.076-.005-4.485,0-7.175-.019-10.78-.046-26.2-.078-44.836l.051.129c-7.645-7.869-16.171-16.644-25.271-26.008l.151.063-18.824.007-9.846,0h-2.5a16.472,16.472,0,0,0-2.471.091,6.218,6.218,0,0,0-4.038,2.518,6.135,6.135,0,0,0-1.138,3.166c-.046,1.141-.013,2.332-.023,3.491q0,3.5,0,6.944,0,6.9,0,13.577c0,8.9-.009,17.488-.013,25.667q-.005,6.135-.009,11.952,0,2.906-.006,5.726,0,1.409,0,2.8a14.76,14.76,0,0,0,.119,2.708,6.276,6.276,0,0,0,2.913,4.137,6.2,6.2,0,0,0,2.374.838,23.827,23.827,0,0,0,2.531.067l9.709.014,29.3.07,7.966.04,2.071.022c.467.008.706.023.706.023s-.239.015-.706.023l-2.071.022-7.966.04-29.3.07-9.709.014a23.989,23.989,0,0,1-2.578-.064,6.546,6.546,0,0,1-2.508-.879,6.63,6.63,0,0,1-3.089-4.368,15.1,15.1,0,0,1-.131-2.778q0-1.387,0-2.8,0-2.819-.005-5.726-.005-5.813-.009-11.952c0-8.179-.008-16.766-.013-25.667q0-6.675,0-13.577,0-3.448,0-6.944c.01-1.172-.024-2.32.023-3.523a6.583,6.583,0,0,1,1.219-3.389,6.656,6.656,0,0,1,4.323-2.695,16.63,16.63,0,0,1,2.542-.1h2.5l9.846,0c6.479,0,12.776,0,18.824.007h.089l.062.063,25.232,26.045.052.054v.073c-.032,18.634-.058,34.057-.078,44.836-.017,2.694.005,5.088-.045,7.184a6.471,6.471,0,0,1-2.4,4.615,6.394,6.394,0,0,1-2.979,1.33,4.889,4.889,0,0,1-.838.075c-.189.005-.284,0-.284,0" transform="translate(-4.581 -14.513)" fill="#1a2e35"/>
        <path id="Trazado_152168" data-name="Trazado 152168" d="M100.931,118.5a2.134,2.134,0,0,1-.495.044l-1.419.041-5.219.069-7.74.046-4.576,0a6.209,6.209,0,0,1-5.735-4.329,7.175,7.175,0,0,1-.282-2.456c0-1.583.008-3.113.013-4.571.018-2.9.034-5.519.047-7.741.029-2.159.052-3.927.069-5.218.017-.577.031-1.047.041-1.419a2.1,2.1,0,0,1,.045-.495,2.135,2.135,0,0,1,.044.495c.011.372.024.842.041,1.419.018,1.292.041,3.06.07,5.218.013,2.222.029,4.842.047,7.741,0,1.459.008,2.988.013,4.571a6.769,6.769,0,0,0,.269,2.326,5.8,5.8,0,0,0,5.331,4.03l4.564.022,7.74.049,5.219.07,1.419.042a2.134,2.134,0,0,1,.495.044" transform="translate(-11.876 -14.554)" fill="#1a2e35"/>
        <path id="Trazado_152169" data-name="Trazado 152169" d="M69.5,113.655c0,.121-6.075.219-13.569.219s-13.569-.1-13.569-.219,6.074-.219,13.569-.219,13.569.1,13.569.219" transform="translate(-6.667 -17.853)" fill="#1a2e35"/>
        <path id="Trazado_152170" data-name="Trazado 152170" d="M82.374,125.517c0,.121-8.958.219-20.006.219s-20.008-.1-20.008-.219,8.956-.219,20.008-.219,20.006.1,20.006.219" transform="translate(-6.667 -19.72)" fill="#1a2e35"/>
        <path id="Trazado_152171" data-name="Trazado 152171" d="M82.374,137.38c0,.121-8.958.219-20.006.219s-20.008-.1-20.008-.219,8.956-.219,20.008-.219,20.006.1,20.006.219" transform="translate(-6.667 -21.587)" fill="#1a2e35"/>
        <path id="Trazado_152172" data-name="Trazado 152172" d="M82.374,149.242c0,.121-8.958.219-20.006.219s-20.008-.1-20.008-.219,8.956-.219,20.008-.219,20.006.1,20.006.219" transform="translate(-6.667 -23.454)" fill="#1a2e35"/>
        <path id="Trazado_152173" data-name="Trazado 152173" d="M82.374,161.1c0,.121-8.958.219-20.006.219s-20.008-.1-20.008-.219,8.956-.219,20.008-.219,20.006.1,20.006.219" transform="translate(-6.667 -25.321)" fill="#1a2e35"/>
        <path id="Trazado_152174" data-name="Trazado 152174" d="M82.374,172.967c0,.121-8.958.219-20.006.219s-20.008-.1-20.008-.219,8.956-.219,20.008-.219,20.006.1,20.006.219" transform="translate(-6.667 -27.188)" fill="#1a2e35"/>
        <path id="Trazado_152175" data-name="Trazado 152175" d="M55.811,172.109H19.237a3.557,3.557,0,0,1-3.557-3.557V156.037a3.557,3.557,0,0,1,3.557-3.558H55.811a3.558,3.558,0,0,1,3.558,3.558v12.516a3.557,3.557,0,0,1-3.558,3.557" transform="translate(-2.468 -23.998)" fill="#31313c"/>
        <path id="Trazado_152176" data-name="Trazado 152176" d="M31.915,165.484v-2.008h4.608v4.114a9.431,9.431,0,0,1-2.341,1.228,7.934,7.934,0,0,1-2.412.326,5.858,5.858,0,0,1-2.8-.586,4,4,0,0,1-1.678-1.744,5.729,5.729,0,0,1-.6-2.659,5.56,5.56,0,0,1,.651-2.749,4.219,4.219,0,0,1,1.909-1.774,6.208,6.208,0,0,1,2.64-.468,7.393,7.393,0,0,1,2.392.29,3.109,3.109,0,0,1,1.317.9,3.993,3.993,0,0,1,.786,1.544l-2.877.514a1.556,1.556,0,0,0-.6-.837,1.885,1.885,0,0,0-1.084-.289,1.951,1.951,0,0,0-1.563.681,3.28,3.28,0,0,0-.582,2.156,3.378,3.378,0,0,0,.589,2.238,2.071,2.071,0,0,0,1.642.672,3.141,3.141,0,0,0,.955-.145,5.149,5.149,0,0,0,1.04-.494v-.908Z" transform="translate(-4.201 -25.05)" fill="#fff"/>
        <rect id="Rectángulo_35061" data-name="Rectángulo 35061" width="2.989" height="9.65" transform="translate(34.211 134.278)" fill="#fff"/>
        <path id="Trazado_152177" data-name="Trazado 152177" d="M46.7,159.359h7.373v2.074H49.7v1.685h3.739v1.948H49.7v3.943h-3Z" transform="translate(-7.35 -25.081)" fill="#fff"/>
        <path id="Trazado_152178" data-name="Trazado 152178" d="M90.787,328.571H39.351a6.435,6.435,0,0,1-6.436-6.436V250.94A6.436,6.436,0,0,1,39.35,244.5H71.972l25.251,26.027v51.6a6.436,6.436,0,0,1-6.436,6.436" transform="translate(-5.18 -38.481)" fill="#ececec"/>
        <path id="Trazado_152179" data-name="Trazado 152179" d="M79.267,244.5v20.037a5.986,5.986,0,0,0,5.985,5.986l19.266,0Z" transform="translate(-12.476 -38.481)" fill="#f5f5f5"/>
        <path id="Trazado_152180" data-name="Trazado 152180" d="M79.579,270.371s-.254,4.859,5.279,6.457a6,6,0,0,0,.634.143c2.515.45,19.076,3.4,19.076,3.015V274.6H85.3s-4.81-.164-5.722-4.231" transform="translate(-12.524 -42.553)" fill="#e1e1e1"/>
        <path id="Trazado_152181" data-name="Trazado 152181" d="M90.746,328.529c0-.03.386.008,1.111-.131a6.441,6.441,0,0,0,2.919-1.36,6.359,6.359,0,0,0,2.3-4.539c.033-2.076-.005-4.485,0-7.174-.019-10.78-.045-26.2-.078-44.836l.051.128L71.78,244.608l.151.064-18.824.007-9.846,0h-2.5a16.468,16.468,0,0,0-2.471.09,6.222,6.222,0,0,0-4.038,2.519,6.134,6.134,0,0,0-1.138,3.165c-.046,1.141-.013,2.333-.023,3.491q0,3.5,0,6.945,0,6.9,0,13.577c0,8.9-.009,17.488-.013,25.667q-.005,6.134-.009,11.952,0,2.907-.006,5.726,0,1.409,0,2.8a14.754,14.754,0,0,0,.119,2.707,6.275,6.275,0,0,0,2.913,4.138,6.2,6.2,0,0,0,2.374.838,23.819,23.819,0,0,0,2.531.067l9.709.014,29.3.07,7.966.04,2.071.022c.467.008.706.023.706.023s-.239.015-.706.023l-2.071.022-7.966.04-29.3.07-9.709.014a23.977,23.977,0,0,1-2.578-.064,6.548,6.548,0,0,1-2.508-.879,6.63,6.63,0,0,1-3.089-4.368,15.1,15.1,0,0,1-.131-2.778q0-1.388,0-2.8,0-2.82-.005-5.726-.005-5.811-.009-11.952c0-8.179-.008-16.766-.013-25.667q0-6.676,0-13.577,0-3.448,0-6.945c.01-1.171-.024-2.319.023-3.522a6.583,6.583,0,0,1,1.219-3.389,6.66,6.66,0,0,1,4.323-2.7,16.631,16.631,0,0,1,2.542-.1h2.5l9.846,0,18.824.007h.089l.062.064,25.232,26.045.052.054v.073c-.032,18.634-.058,34.057-.078,44.836-.017,2.694.005,5.088-.045,7.184a6.471,6.471,0,0,1-2.4,4.615,6.382,6.382,0,0,1-2.979,1.33,4.829,4.829,0,0,1-.838.076c-.189.005-.284,0-.284,0" transform="translate(-5.139 -38.44)" fill="#1a2e35"/>
        <path id="Trazado_152182" data-name="Trazado 152182" d="M104.477,270.531a2.073,2.073,0,0,1-.495.044l-1.419.041-5.219.069-7.74.045-4.576,0a6.21,6.21,0,0,1-5.735-4.329,7.183,7.183,0,0,1-.282-2.457c0-1.583.008-3.113.013-4.571.018-2.9.034-5.519.047-7.741.029-2.159.052-3.927.07-5.218.016-.576.03-1.047.04-1.419a2.1,2.1,0,0,1,.045-.495,2.134,2.134,0,0,1,.044.495c.011.372.024.842.041,1.419.018,1.292.041,3.06.07,5.218.013,2.222.029,4.842.047,7.741,0,1.459.008,2.988.013,4.571a6.768,6.768,0,0,0,.269,2.326,5.8,5.8,0,0,0,5.331,4.03l4.564.022,7.74.049,5.219.07,1.419.041a2.158,2.158,0,0,1,.495.045" transform="translate(-12.434 -38.481)" fill="#1a2e35"/>
        <path id="Trazado_152183" data-name="Trazado 152183" d="M73.044,265.682c0,.121-6.075.219-13.569.219s-13.569-.1-13.569-.219,6.074-.219,13.569-.219,13.569.1,13.569.219" transform="translate(-7.225 -41.78)" fill="#1a2e35"/>
        <path id="Trazado_152184" data-name="Trazado 152184" d="M85.92,277.545c0,.121-8.958.219-20.006.219s-20.008-.1-20.008-.219,8.956-.219,20.008-.219,20.006.1,20.006.219" transform="translate(-7.225 -43.647)" fill="#1a2e35"/>
        <path id="Trazado_152185" data-name="Trazado 152185" d="M85.92,289.407c0,.121-8.958.219-20.006.219s-20.008-.1-20.008-.219,8.956-.219,20.008-.219,20.006.1,20.006.219" transform="translate(-7.225 -45.514)" fill="#1a2e35"/>
        <path id="Trazado_152186" data-name="Trazado 152186" d="M85.92,301.27c0,.121-8.958.219-20.006.219s-20.008-.1-20.008-.219,8.956-.219,20.008-.219,20.006.1,20.006.219" transform="translate(-7.225 -47.381)" fill="#1a2e35"/>
        <path id="Trazado_152187" data-name="Trazado 152187" d="M85.92,313.132c0,.121-8.958.219-20.006.219s-20.008-.1-20.008-.219,8.956-.219,20.008-.219,20.006.1,20.006.219" transform="translate(-7.225 -49.248)" fill="#1a2e35"/>
        <path id="Trazado_152188" data-name="Trazado 152188" d="M85.92,325c0,.121-8.958.219-20.006.219s-20.008-.1-20.008-.219,8.956-.219,20.008-.219,20.006.1,20.006.219" transform="translate(-7.225 -51.115)" fill="#1a2e35"/>
        <path id="Trazado_152189" data-name="Trazado 152189" d="M59.357,324.137H22.783a3.557,3.557,0,0,1-3.557-3.557V308.065a3.557,3.557,0,0,1,3.557-3.558H59.357a3.557,3.557,0,0,1,3.557,3.558v12.516a3.557,3.557,0,0,1-3.557,3.557" transform="translate(-3.026 -47.925)" fill="#31313c"/>
        <path id="Trazado_152190" data-name="Trazado 152190" d="M26.662,311.387h4.957a3.394,3.394,0,0,1,2.426.77,2.89,2.89,0,0,1,.806,2.193,2.979,2.979,0,0,1-.879,2.284,3.809,3.809,0,0,1-2.683.822H29.657v3.581h-3Zm3,4.114h.731a1.883,1.883,0,0,0,1.212-.3.968.968,0,0,0,.349-.768,1.071,1.071,0,0,0-.3-.77,1.569,1.569,0,0,0-1.138-.316h-.849Z" transform="translate(-4.196 -49.008)" fill="#fff"/>
        <path id="Trazado_152191" data-name="Trazado 152191" d="M38.256,311.387h2.785l3.633,5.339v-5.339h2.811v9.65H44.674l-3.614-5.3v5.3h-2.8Z" transform="translate(-6.021 -49.008)" fill="#fff"/>
        <path id="Trazado_152192" data-name="Trazado 152192" d="M56.343,317.512V315.5h4.608v4.114a9.431,9.431,0,0,1-2.341,1.228,7.934,7.934,0,0,1-2.412.326,5.858,5.858,0,0,1-2.8-.586,4,4,0,0,1-1.678-1.744,5.729,5.729,0,0,1-.6-2.659,5.56,5.56,0,0,1,.651-2.749,4.218,4.218,0,0,1,1.909-1.774,6.208,6.208,0,0,1,2.64-.468,7.392,7.392,0,0,1,2.392.29,3.109,3.109,0,0,1,1.317.9,3.993,3.993,0,0,1,.786,1.544l-2.877.514a1.556,1.556,0,0,0-.6-.837,1.885,1.885,0,0,0-1.084-.289,1.951,1.951,0,0,0-1.563.681,3.28,3.28,0,0,0-.582,2.156,3.377,3.377,0,0,0,.589,2.238,2.071,2.071,0,0,0,1.642.672,3.141,3.141,0,0,0,.955-.145,5.147,5.147,0,0,0,1.04-.494v-.908Z" transform="translate(-8.046 -48.977)" fill="#fff"/>
        <path id="Trazado_152193" data-name="Trazado 152193" d="M228.3,368.633H176.867a6.435,6.435,0,0,1-6.436-6.436V291a6.435,6.435,0,0,1,6.435-6.436h32.622l25.251,26.026V362.2a6.436,6.436,0,0,1-6.436,6.436" transform="translate(-26.823 -44.787)" fill="#ececec"/>
        <path id="Trazado_152194" data-name="Trazado 152194" d="M216.783,284.566V304.6a5.986,5.986,0,0,0,5.985,5.986l19.266,0Z" transform="translate(-34.119 -44.787)" fill="#f5f5f5"/>
        <path id="Trazado_152195" data-name="Trazado 152195" d="M217.095,310.433s-.254,4.859,5.279,6.457a6.037,6.037,0,0,0,.634.143c2.515.45,19.076,3.4,19.076,3.015v-5.384H222.817s-4.81-.164-5.722-4.231" transform="translate(-34.167 -48.858)" fill="#e1e1e1"/>
        <path id="Trazado_152196" data-name="Trazado 152196" d="M228.262,368.591c0-.03.386.008,1.111-.131a6.441,6.441,0,0,0,2.919-1.36,6.362,6.362,0,0,0,2.3-4.539c.033-2.076-.005-4.485,0-7.174-.019-10.78-.046-26.2-.078-44.836l.051.128L209.3,284.67l.151.064-18.824.007-9.846,0h-2.5a16.469,16.469,0,0,0-2.47.09,6.222,6.222,0,0,0-4.038,2.519,6.134,6.134,0,0,0-1.138,3.165c-.046,1.141-.013,2.333-.023,3.491q0,3.5,0,6.945,0,6.9,0,13.577c0,8.9-.009,17.488-.013,25.667q-.005,6.134-.009,11.952,0,2.907-.006,5.726,0,1.409,0,2.8a14.754,14.754,0,0,0,.119,2.707,6.263,6.263,0,0,0,5.287,4.976,23.811,23.811,0,0,0,2.531.067l9.709.014,29.3.07,7.966.04,2.071.022c.467.008.706.023.706.023s-.239.015-.706.023l-2.071.021-7.966.041-29.3.07-9.709.014a23.977,23.977,0,0,1-2.578-.064,6.546,6.546,0,0,1-2.508-.879,6.63,6.63,0,0,1-3.089-4.368,15.1,15.1,0,0,1-.131-2.778q0-1.388,0-2.8,0-2.82-.005-5.726-.005-5.812-.009-11.952c0-8.179-.008-16.766-.013-25.667q0-6.676,0-13.577,0-3.448,0-6.945c.01-1.171-.024-2.32.023-3.522a6.583,6.583,0,0,1,1.219-3.389,6.66,6.66,0,0,1,4.323-2.7,16.62,16.62,0,0,1,2.541-.1h2.5l9.846,0,18.824.007h.089l.062.064,25.232,26.045.052.054v.073c-.032,18.634-.059,34.057-.078,44.836-.017,2.694.005,5.088-.045,7.184a6.471,6.471,0,0,1-2.4,4.615,6.381,6.381,0,0,1-2.979,1.33,4.82,4.82,0,0,1-.838.076c-.189.005-.284,0-.284,0" transform="translate(-26.782 -44.745)" fill="#1a2e35"/>
        <path id="Trazado_152197" data-name="Trazado 152197" d="M241.993,310.593a2.136,2.136,0,0,1-.495.044l-1.419.041-5.219.069-7.74.046-4.576,0a6.21,6.21,0,0,1-5.735-4.328,7.162,7.162,0,0,1-.282-2.457c0-1.583.008-3.113.013-4.571.018-2.9.034-5.519.047-7.741.029-2.159.052-3.927.069-5.218.017-.576.031-1.047.041-1.419a2.091,2.091,0,0,1,.045-.495,2.137,2.137,0,0,1,.044.495c.011.372.024.842.041,1.419.018,1.292.041,3.06.07,5.218.014,2.222.03,4.842.047,7.741,0,1.459.008,2.988.013,4.571a6.769,6.769,0,0,0,.269,2.326,5.8,5.8,0,0,0,5.331,4.03l4.564.022,7.74.049,5.219.07,1.419.041a2.1,2.1,0,0,1,.495.045" transform="translate(-34.077 -44.787)" fill="#1a2e35"/>
        <path id="Trazado_152198" data-name="Trazado 152198" d="M210.561,305.745c0,.121-6.075.219-13.569.219s-13.569-.1-13.569-.219,6.074-.219,13.569-.219,13.569.1,13.569.219" transform="translate(-28.868 -48.085)" fill="#1a2e35"/>
        <path id="Trazado_152199" data-name="Trazado 152199" d="M223.436,317.607c0,.121-8.958.219-20.006.219s-20.008-.1-20.008-.219,8.956-.219,20.008-.219,20.006.1,20.006.219" transform="translate(-28.868 -49.952)" fill="#1a2e35"/>
        <path id="Trazado_152200" data-name="Trazado 152200" d="M223.436,329.469c0,.121-8.958.219-20.006.219s-20.008-.1-20.008-.219,8.956-.219,20.008-.219,20.006.1,20.006.219" transform="translate(-28.868 -51.819)" fill="#1a2e35"/>
        <path id="Trazado_152201" data-name="Trazado 152201" d="M223.436,341.332c0,.121-8.958.219-20.006.219s-20.008-.1-20.008-.219,8.956-.219,20.008-.219,20.006.1,20.006.219" transform="translate(-28.868 -53.686)" fill="#1a2e35"/>
        <path id="Trazado_152202" data-name="Trazado 152202" d="M223.436,353.194c0,.121-8.958.219-20.006.219s-20.008-.1-20.008-.219,8.956-.219,20.008-.219,20.006.1,20.006.219" transform="translate(-28.868 -55.553)" fill="#1a2e35"/>
        <path id="Trazado_152203" data-name="Trazado 152203" d="M223.436,365.057c0,.121-8.958.219-20.006.219s-20.008-.1-20.008-.219,8.956-.219,20.008-.219,20.006.1,20.006.219" transform="translate(-28.868 -57.42)" fill="#1a2e35"/>
        <path id="Trazado_152204" data-name="Trazado 152204" d="M196.874,364.2H160.3a3.557,3.557,0,0,1-3.557-3.557V348.127a3.557,3.557,0,0,1,3.557-3.557h36.575a3.556,3.556,0,0,1,3.556,3.557v12.516a3.556,3.556,0,0,1-3.556,3.557" transform="translate(-24.669 -54.23)" fill="#31313c"/>
        <path id="Trazado_152205" data-name="Trazado 152205" d="M164.186,351.449h7.991v2.06h-5v1.534h4.641v1.968h-4.641v1.9h5.148V361.1h-8.136Z" transform="translate(-25.841 -55.313)" fill="#fff"/>
        <path id="Trazado_152206" data-name="Trazado 152206" d="M175.733,351.449h4.957a3.394,3.394,0,0,1,2.426.77,2.89,2.89,0,0,1,.806,2.193,2.979,2.979,0,0,1-.879,2.284,3.809,3.809,0,0,1-2.683.822h-1.632V361.1h-3Zm3,4.114h.731a1.883,1.883,0,0,0,1.212-.3.968.968,0,0,0,.349-.768,1.071,1.071,0,0,0-.3-.77,1.569,1.569,0,0,0-1.138-.316h-.849Z" transform="translate(-27.658 -55.313)" fill="#fff"/>
        <path id="Trazado_152207" data-name="Trazado 152207" d="M186.686,357.876l2.837-.178a2.155,2.155,0,0,0,.376,1.053,1.574,1.574,0,0,0,1.316.586,1.457,1.457,0,0,0,.984-.3.9.9,0,0,0,.345-.694.884.884,0,0,0-.329-.672,3.794,3.794,0,0,0-1.527-.559,6.491,6.491,0,0,1-2.8-1.172,2.355,2.355,0,0,1-.843-1.863,2.531,2.531,0,0,1,.431-1.405,2.863,2.863,0,0,1,1.3-1.04,6.05,6.05,0,0,1,2.374-.378,4.859,4.859,0,0,1,2.821.688,2.97,2.97,0,0,1,1.155,2.189l-2.811.164a1.314,1.314,0,0,0-1.462-1.245,1.191,1.191,0,0,0-.783.221.676.676,0,0,0-.264.537.536.536,0,0,0,.217.415,2.435,2.435,0,0,0,1,.356,12.524,12.524,0,0,1,2.8.853,2.941,2.941,0,0,1,1.231,1.069,2.718,2.718,0,0,1,.385,1.428,3.056,3.056,0,0,1-.514,1.712,3.21,3.21,0,0,1-1.435,1.188,5.8,5.8,0,0,1-2.324.4,4.786,4.786,0,0,1-3.41-.948,3.738,3.738,0,0,1-1.073-2.409" transform="translate(-29.382 -55.282)" fill="#fff"/>
      </g>
    </g>
  </g>
</svg>
