<svg xmlns="http://www.w3.org/2000/svg" xmlns:xlink="http://www.w3.org/1999/xlink" width="313" height="226.501" viewBox="0 0 313 226.501">
  <defs>
    <clipPath id="clip-path">
      <rect id="Rectángulo_34881" data-name="Rectángulo 34881" width="143" height="87" transform="translate(-0.44 0.243)" fill="#12263f"/>
    </clipPath>
    <clipPath id="clip-path-2">
      <rect id="Rectángulo_35435" data-name="Rectángulo 35435" width="131.123" height="146.666" fill="none"/>
    </clipPath>
  </defs>
  <g id="Grupo_157998" data-name="Grupo 157998" transform="translate(-345 -781.871)">
    <g id="Grupo_80196" data-name="Grupo 80196" transform="translate(121 -5426.628)">
      <g id="Enmascarar_grupo_63" data-name="Enmascarar grupo 63" transform="translate(243.192 6208.256)" clip-path="url(#clip-path)">
        <path id="Trazado_151731" data-name="Trazado 151731" d="M68.087,107.506A39.419,39.419,0,1,0,28.668,68.087a39.463,39.463,0,0,0,39.419,39.419m0,28.668a68.087,68.087,0,1,1,68.087-68.087A68.087,68.087,0,0,1,68.087,136.174Z" transform="translate(3.432 19.156)" fill="#fd9827"/>
      </g>
      <path id="Trazado_151733" data-name="Trazado 151733" d="M0,0H271c23.2,0,42,16.091,42,35.939v103.54H42c-23.2,0-42-16.091-42-35.939Z" transform="translate(224 6295.521)" fill="#31313c"/>
      <g id="Grupo_78301" data-name="Grupo 78301" transform="translate(226 6208.756)">
        <path id="Trazado_145968" data-name="Trazado 145968" d="M43.541,0A43.541,43.541,0,1,0,87.083,43.541,43.541,43.541,0,0,0,43.541,0Z" transform="translate(6.692 132.358)" fill="#31313c" opacity="0.444" style="mix-blend-mode: multiply;isolation: isolate"/>
        <path id="Trazado_145969" data-name="Trazado 145969" d="M21.667,0A21.667,21.667,0,1,0,43.333,21.667,21.667,21.667,0,0,0,21.667,0Z" transform="translate(225.831 11.044)" fill="#fd9827" opacity="0.444" style="mix-blend-mode: multiply;isolation: isolate"/>
        <rect id="Rectángulo_34812" data-name="Rectángulo 34812" width="309.662" height="222.853" transform="translate(0 0)" fill="none"/>
        <path id="Trazado_145971" data-name="Trazado 145971" d="M8.18,0a8.18,8.18,0,1,0,8.18,8.18A8.18,8.18,0,0,0,8.18,0Z" transform="translate(260.984 190.282)" fill="#31313c" opacity="0.444" style="mix-blend-mode: multiply;isolation: isolate"/>
        <g id="Grupo_78276" data-name="Grupo 78276" transform="translate(18.831 162.877)">
          <g id="Grupo_53306" data-name="Grupo 53306" transform="translate(0)">
            <path id="Trazado_99200" data-name="Trazado 99200" d="M414.214,50.789a.592.592,0,1,0,.592-.565A.579.579,0,0,0,414.214,50.789Z" transform="translate(-361.003 -50.224)" fill="#fff"/>
            <path id="Trazado_99201" data-name="Trazado 99201" d="M422.66,50.789a.592.592,0,1,0,.591-.565A.579.579,0,0,0,422.66,50.789Z" transform="translate(-374.77 -50.224)" fill="#fff"/>
            <path id="Trazado_99202" data-name="Trazado 99202" d="M431.106,50.789a.592.592,0,1,0,.591-.565A.579.579,0,0,0,431.106,50.789Z" transform="translate(-388.536 -50.224)" fill="#fff"/>
            <path id="Trazado_99203" data-name="Trazado 99203" d="M439.553,50.789a.592.592,0,1,0,.592-.565A.579.579,0,0,0,439.553,50.789Z" transform="translate(-402.305 -50.224)" fill="#fff"/>
            <path id="Trazado_99204" data-name="Trazado 99204" d="M448,50.789a.592.592,0,1,0,.591-.565A.579.579,0,0,0,448,50.789Z" transform="translate(-416.072 -50.224)" fill="#fff"/>
            <path id="Trazado_99205" data-name="Trazado 99205" d="M456.445,50.789a.592.592,0,1,0,.591-.565A.579.579,0,0,0,456.445,50.789Z" transform="translate(-429.839 -50.224)" fill="#fff"/>
            <path id="Trazado_99206" data-name="Trazado 99206" d="M464.892,50.789a.592.592,0,1,0,.592-.565A.579.579,0,0,0,464.892,50.789Z" transform="translate(-443.608 -50.224)" fill="#fff"/>
            <path id="Trazado_99207" data-name="Trazado 99207" d="M473.338,50.789a.592.592,0,1,0,.591-.565A.579.579,0,0,0,473.338,50.789Z" transform="translate(-457.375 -50.224)" fill="#fff"/>
            <path id="Trazado_99208" data-name="Trazado 99208" d="M481.784,50.789a.592.592,0,1,0,.591-.565A.579.579,0,0,0,481.784,50.789Z" transform="translate(-471.142 -50.224)" fill="#fff"/>
            <path id="Trazado_99209" data-name="Trazado 99209" d="M490.231,50.789a.592.592,0,1,0,.592-.565A.579.579,0,0,0,490.231,50.789Z" transform="translate(-484.91 -50.224)" fill="#fff"/>
            <path id="Trazado_99210" data-name="Trazado 99210" d="M498.677,50.789a.592.592,0,1,0,.592-.565A.579.579,0,0,0,498.677,50.789Z" transform="translate(-498.677 -50.224)" fill="#fff"/>
          </g>
          <g id="Grupo_53307" data-name="Grupo 53307" transform="translate(0 4.523)">
            <path id="Trazado_99211" data-name="Trazado 99211" d="M414.214,58.3a.592.592,0,1,0,.592-.565A.579.579,0,0,0,414.214,58.3Z" transform="translate(-361.003 -57.732)" fill="#fff"/>
            <path id="Trazado_99212" data-name="Trazado 99212" d="M422.66,58.3a.592.592,0,1,0,.591-.565A.579.579,0,0,0,422.66,58.3Z" transform="translate(-374.77 -57.732)" fill="#fff"/>
            <path id="Trazado_99213" data-name="Trazado 99213" d="M431.106,58.3a.592.592,0,1,0,.591-.565A.579.579,0,0,0,431.106,58.3Z" transform="translate(-388.536 -57.732)" fill="#fff"/>
            <path id="Trazado_99214" data-name="Trazado 99214" d="M439.553,58.3a.592.592,0,1,0,.592-.565A.579.579,0,0,0,439.553,58.3Z" transform="translate(-402.305 -57.732)" fill="#fff"/>
            <path id="Trazado_99215" data-name="Trazado 99215" d="M448,58.3a.592.592,0,1,0,.591-.565A.579.579,0,0,0,448,58.3Z" transform="translate(-416.072 -57.732)" fill="#fff"/>
            <path id="Trazado_99216" data-name="Trazado 99216" d="M456.445,58.3a.592.592,0,1,0,.591-.565A.579.579,0,0,0,456.445,58.3Z" transform="translate(-429.839 -57.732)" fill="#fff"/>
            <path id="Trazado_99217" data-name="Trazado 99217" d="M464.892,58.3a.592.592,0,1,0,.592-.565A.579.579,0,0,0,464.892,58.3Z" transform="translate(-443.608 -57.732)" fill="#fff"/>
            <path id="Trazado_99218" data-name="Trazado 99218" d="M473.338,58.3a.592.592,0,1,0,.591-.565A.579.579,0,0,0,473.338,58.3Z" transform="translate(-457.375 -57.732)" fill="#fff"/>
            <path id="Trazado_99219" data-name="Trazado 99219" d="M481.784,58.3a.592.592,0,1,0,.591-.565A.579.579,0,0,0,481.784,58.3Z" transform="translate(-471.142 -57.732)" fill="#fff"/>
            <path id="Trazado_99220" data-name="Trazado 99220" d="M490.231,58.3a.592.592,0,1,0,.592-.565A.579.579,0,0,0,490.231,58.3Z" transform="translate(-484.91 -57.732)" fill="#fff"/>
            <path id="Trazado_99221" data-name="Trazado 99221" d="M498.677,58.3a.592.592,0,1,0,.592-.565A.579.579,0,0,0,498.677,58.3Z" transform="translate(-498.677 -57.732)" fill="#fff"/>
          </g>
          <g id="Grupo_53308" data-name="Grupo 53308" transform="translate(0 9.047)">
            <ellipse id="Elipse_3955" data-name="Elipse 3955" cx="0.591" cy="0.565" rx="0.591" ry="0.565" transform="translate(53.211)" fill="#fff"/>
            <path id="Trazado_99222" data-name="Trazado 99222" d="M422.66,65.805a.592.592,0,1,0,.591-.565A.579.579,0,0,0,422.66,65.805Z" transform="translate(-374.77 -65.24)" fill="#fff"/>
            <ellipse id="Elipse_3956" data-name="Elipse 3956" cx="0.591" cy="0.565" rx="0.591" ry="0.565" transform="translate(42.569)" fill="#fff"/>
            <path id="Trazado_99223" data-name="Trazado 99223" d="M439.553,65.805a.592.592,0,1,0,.592-.565A.579.579,0,0,0,439.553,65.805Z" transform="translate(-402.305 -65.24)" fill="#fff"/>
            <path id="Trazado_99224" data-name="Trazado 99224" d="M448,65.805a.592.592,0,1,0,.591-.565A.579.579,0,0,0,448,65.805Z" transform="translate(-416.072 -65.24)" fill="#fff"/>
            <ellipse id="Elipse_3957" data-name="Elipse 3957" cx="0.591" cy="0.565" rx="0.591" ry="0.565" transform="translate(26.606)" fill="#fff"/>
            <path id="Trazado_99225" data-name="Trazado 99225" d="M464.892,65.805a.592.592,0,1,0,.592-.565A.58.58,0,0,0,464.892,65.805Z" transform="translate(-443.608 -65.24)" fill="#fff"/>
            <ellipse id="Elipse_3958" data-name="Elipse 3958" cx="0.591" cy="0.565" rx="0.591" ry="0.565" transform="translate(15.963)" fill="#fff"/>
            <ellipse id="Elipse_3959" data-name="Elipse 3959" cx="0.591" cy="0.565" rx="0.591" ry="0.565" transform="translate(10.642)" fill="#fff"/>
            <path id="Trazado_99226" data-name="Trazado 99226" d="M490.231,65.805a.592.592,0,1,0,.592-.565A.58.58,0,0,0,490.231,65.805Z" transform="translate(-484.91 -65.24)" fill="#fff"/>
            <path id="Trazado_99227" data-name="Trazado 99227" d="M498.677,65.805a.592.592,0,1,0,.592-.565A.579.579,0,0,0,498.677,65.805Z" transform="translate(-498.677 -65.24)" fill="#fff"/>
          </g>
          <g id="Grupo_53309" data-name="Grupo 53309" transform="translate(0 13.57)">
            <ellipse id="Elipse_3960" data-name="Elipse 3960" cx="0.591" cy="0.565" rx="0.591" ry="0.565" transform="translate(53.211 0)" fill="#fff"/>
            <path id="Trazado_99228" data-name="Trazado 99228" d="M422.66,73.313a.592.592,0,1,0,.591-.566A.578.578,0,0,0,422.66,73.313Z" transform="translate(-374.77 -72.747)" fill="#fff"/>
            <ellipse id="Elipse_3961" data-name="Elipse 3961" cx="0.591" cy="0.565" rx="0.591" ry="0.565" transform="translate(42.569 0)" fill="#fff"/>
            <path id="Trazado_99229" data-name="Trazado 99229" d="M439.553,73.313a.592.592,0,1,0,.592-.566A.579.579,0,0,0,439.553,73.313Z" transform="translate(-402.305 -72.747)" fill="#fff"/>
            <path id="Trazado_99230" data-name="Trazado 99230" d="M448,73.313a.592.592,0,1,0,.591-.566A.579.579,0,0,0,448,73.313Z" transform="translate(-416.072 -72.747)" fill="#fff"/>
            <ellipse id="Elipse_3962" data-name="Elipse 3962" cx="0.591" cy="0.565" rx="0.591" ry="0.565" transform="translate(26.606 0)" fill="#fff"/>
            <path id="Trazado_99231" data-name="Trazado 99231" d="M464.892,73.313a.592.592,0,1,0,.592-.566A.579.579,0,0,0,464.892,73.313Z" transform="translate(-443.608 -72.747)" fill="#fff"/>
            <ellipse id="Elipse_3963" data-name="Elipse 3963" cx="0.591" cy="0.565" rx="0.591" ry="0.565" transform="translate(15.963 0)" fill="#fff"/>
            <ellipse id="Elipse_3964" data-name="Elipse 3964" cx="0.591" cy="0.565" rx="0.591" ry="0.565" transform="translate(10.642 0)" fill="#fff"/>
            <path id="Trazado_99232" data-name="Trazado 99232" d="M490.231,73.313a.592.592,0,1,0,.592-.566A.579.579,0,0,0,490.231,73.313Z" transform="translate(-484.91 -72.747)" fill="#fff"/>
            <path id="Trazado_99233" data-name="Trazado 99233" d="M498.677,73.313a.592.592,0,1,0,.592-.566A.579.579,0,0,0,498.677,73.313Z" transform="translate(-498.677 -72.747)" fill="#fff"/>
          </g>
          <g id="Grupo_53310" data-name="Grupo 53310" transform="translate(0 18.093)">
            <path id="Trazado_99234" data-name="Trazado 99234" d="M414.214,80.821a.592.592,0,1,0,.592-.566A.579.579,0,0,0,414.214,80.821Z" transform="translate(-361.003 -80.255)" fill="#fff"/>
            <path id="Trazado_99235" data-name="Trazado 99235" d="M422.66,80.821a.592.592,0,1,0,.591-.566A.578.578,0,0,0,422.66,80.821Z" transform="translate(-374.77 -80.255)" fill="#fff"/>
            <path id="Trazado_99236" data-name="Trazado 99236" d="M431.106,80.821a.592.592,0,1,0,.591-.566A.578.578,0,0,0,431.106,80.821Z" transform="translate(-388.536 -80.255)" fill="#fff"/>
            <path id="Trazado_99237" data-name="Trazado 99237" d="M439.553,80.821a.592.592,0,1,0,.592-.566A.579.579,0,0,0,439.553,80.821Z" transform="translate(-402.305 -80.255)" fill="#fff"/>
            <path id="Trazado_99238" data-name="Trazado 99238" d="M448,80.821a.592.592,0,1,0,.591-.566A.579.579,0,0,0,448,80.821Z" transform="translate(-416.072 -80.255)" fill="#fff"/>
            <path id="Trazado_99239" data-name="Trazado 99239" d="M456.445,80.821a.592.592,0,1,0,.591-.566A.578.578,0,0,0,456.445,80.821Z" transform="translate(-429.839 -80.255)" fill="#fff"/>
            <path id="Trazado_99240" data-name="Trazado 99240" d="M464.892,80.821a.592.592,0,1,0,.592-.566A.579.579,0,0,0,464.892,80.821Z" transform="translate(-443.608 -80.255)" fill="#fff"/>
            <path id="Trazado_99241" data-name="Trazado 99241" d="M473.338,80.821a.592.592,0,1,0,.591-.566A.578.578,0,0,0,473.338,80.821Z" transform="translate(-457.375 -80.255)" fill="#fff"/>
            <path id="Trazado_99242" data-name="Trazado 99242" d="M481.784,80.821a.592.592,0,1,0,.591-.566A.579.579,0,0,0,481.784,80.821Z" transform="translate(-471.142 -80.255)" fill="#fff"/>
            <path id="Trazado_99243" data-name="Trazado 99243" d="M490.231,80.821a.592.592,0,1,0,.592-.566A.579.579,0,0,0,490.231,80.821Z" transform="translate(-484.91 -80.255)" fill="#fff"/>
            <path id="Trazado_99244" data-name="Trazado 99244" d="M498.677,80.821a.592.592,0,1,0,.592-.566A.579.579,0,0,0,498.677,80.821Z" transform="translate(-498.677 -80.255)" fill="#fff"/>
          </g>
          <g id="Grupo_53311" data-name="Grupo 53311" transform="translate(0 22.616)">
            <ellipse id="Elipse_3965" data-name="Elipse 3965" cx="0.591" cy="0.565" rx="0.591" ry="0.565" transform="translate(53.211 0)" fill="#fff"/>
            <path id="Trazado_99245" data-name="Trazado 99245" d="M422.66,88.329a.592.592,0,1,0,.591-.566A.578.578,0,0,0,422.66,88.329Z" transform="translate(-374.77 -87.763)" fill="#fff"/>
            <ellipse id="Elipse_3966" data-name="Elipse 3966" cx="0.591" cy="0.565" rx="0.591" ry="0.565" transform="translate(42.569 0)" fill="#fff"/>
            <path id="Trazado_99246" data-name="Trazado 99246" d="M439.553,88.329a.592.592,0,1,0,.592-.566A.579.579,0,0,0,439.553,88.329Z" transform="translate(-402.305 -87.763)" fill="#fff"/>
            <path id="Trazado_99247" data-name="Trazado 99247" d="M448,88.329a.592.592,0,1,0,.591-.566A.579.579,0,0,0,448,88.329Z" transform="translate(-416.072 -87.763)" fill="#fff"/>
            <ellipse id="Elipse_3967" data-name="Elipse 3967" cx="0.591" cy="0.565" rx="0.591" ry="0.565" transform="translate(26.606 0)" fill="#fff"/>
            <path id="Trazado_99248" data-name="Trazado 99248" d="M464.892,88.329a.592.592,0,1,0,.592-.566A.579.579,0,0,0,464.892,88.329Z" transform="translate(-443.608 -87.763)" fill="#fff"/>
            <ellipse id="Elipse_3968" data-name="Elipse 3968" cx="0.591" cy="0.565" rx="0.591" ry="0.565" transform="translate(15.963 0)" fill="#fff"/>
            <ellipse id="Elipse_3969" data-name="Elipse 3969" cx="0.591" cy="0.565" rx="0.591" ry="0.565" transform="translate(10.642 0)" fill="#fff"/>
            <path id="Trazado_99249" data-name="Trazado 99249" d="M490.231,88.329a.592.592,0,1,0,.592-.566A.579.579,0,0,0,490.231,88.329Z" transform="translate(-484.91 -87.763)" fill="#fff"/>
            <path id="Trazado_99250" data-name="Trazado 99250" d="M498.677,88.329a.592.592,0,1,0,.592-.566A.579.579,0,0,0,498.677,88.329Z" transform="translate(-498.677 -87.763)" fill="#fff"/>
          </g>
          <g id="Grupo_53312" data-name="Grupo 53312" transform="translate(0 27.14)">
            <ellipse id="Elipse_3970" data-name="Elipse 3970" cx="0.591" cy="0.565" rx="0.591" ry="0.565" transform="translate(53.211)" fill="#fff"/>
            <path id="Trazado_99251" data-name="Trazado 99251" d="M422.66,95.836a.592.592,0,1,0,.591-.565A.579.579,0,0,0,422.66,95.836Z" transform="translate(-374.77 -95.271)" fill="#fff"/>
            <ellipse id="Elipse_3971" data-name="Elipse 3971" cx="0.591" cy="0.565" rx="0.591" ry="0.565" transform="translate(42.569)" fill="#fff"/>
            <path id="Trazado_99252" data-name="Trazado 99252" d="M439.553,95.836a.592.592,0,1,0,.592-.565A.579.579,0,0,0,439.553,95.836Z" transform="translate(-402.305 -95.271)" fill="#fff"/>
            <path id="Trazado_99253" data-name="Trazado 99253" d="M448,95.836a.592.592,0,1,0,.591-.565A.579.579,0,0,0,448,95.836Z" transform="translate(-416.072 -95.271)" fill="#fff"/>
            <ellipse id="Elipse_3972" data-name="Elipse 3972" cx="0.591" cy="0.565" rx="0.591" ry="0.565" transform="translate(26.606)" fill="#fff"/>
            <path id="Trazado_99254" data-name="Trazado 99254" d="M464.892,95.836a.592.592,0,1,0,.592-.565A.579.579,0,0,0,464.892,95.836Z" transform="translate(-443.608 -95.271)" fill="#fff"/>
            <ellipse id="Elipse_3973" data-name="Elipse 3973" cx="0.591" cy="0.565" rx="0.591" ry="0.565" transform="translate(15.963)" fill="#fff"/>
            <ellipse id="Elipse_3974" data-name="Elipse 3974" cx="0.591" cy="0.565" rx="0.591" ry="0.565" transform="translate(10.642)" fill="#fff"/>
            <path id="Trazado_99255" data-name="Trazado 99255" d="M490.231,95.836a.592.592,0,1,0,.592-.565A.579.579,0,0,0,490.231,95.836Z" transform="translate(-484.91 -95.271)" fill="#fff"/>
            <path id="Trazado_99256" data-name="Trazado 99256" d="M498.677,95.836a.592.592,0,1,0,.592-.565A.579.579,0,0,0,498.677,95.836Z" transform="translate(-498.677 -95.271)" fill="#fff"/>
          </g>
          <g id="Grupo_53313" data-name="Grupo 53313" transform="translate(0 31.663)">
            <path id="Trazado_99257" data-name="Trazado 99257" d="M414.214,103.344a.592.592,0,1,0,.592-.565A.579.579,0,0,0,414.214,103.344Z" transform="translate(-361.003 -102.779)" fill="#fff"/>
            <path id="Trazado_99258" data-name="Trazado 99258" d="M422.66,103.344a.592.592,0,1,0,.591-.565A.579.579,0,0,0,422.66,103.344Z" transform="translate(-374.77 -102.779)" fill="#fff"/>
            <path id="Trazado_99259" data-name="Trazado 99259" d="M431.106,103.344a.592.592,0,1,0,.591-.565A.579.579,0,0,0,431.106,103.344Z" transform="translate(-388.536 -102.779)" fill="#fff"/>
            <path id="Trazado_99260" data-name="Trazado 99260" d="M439.553,103.344a.592.592,0,1,0,.592-.565A.579.579,0,0,0,439.553,103.344Z" transform="translate(-402.305 -102.779)" fill="#fff"/>
            <path id="Trazado_99261" data-name="Trazado 99261" d="M448,103.344a.592.592,0,1,0,.591-.565A.579.579,0,0,0,448,103.344Z" transform="translate(-416.072 -102.779)" fill="#fff"/>
            <path id="Trazado_99262" data-name="Trazado 99262" d="M456.445,103.344a.592.592,0,1,0,.591-.565A.579.579,0,0,0,456.445,103.344Z" transform="translate(-429.839 -102.779)" fill="#fff"/>
            <path id="Trazado_99263" data-name="Trazado 99263" d="M464.892,103.344a.592.592,0,1,0,.592-.565A.579.579,0,0,0,464.892,103.344Z" transform="translate(-443.608 -102.779)" fill="#fff"/>
            <path id="Trazado_99264" data-name="Trazado 99264" d="M473.338,103.344a.592.592,0,1,0,.591-.565A.579.579,0,0,0,473.338,103.344Z" transform="translate(-457.375 -102.779)" fill="#fff"/>
            <path id="Trazado_99265" data-name="Trazado 99265" d="M481.784,103.344a.592.592,0,1,0,.591-.565A.579.579,0,0,0,481.784,103.344Z" transform="translate(-471.142 -102.779)" fill="#fff"/>
            <path id="Trazado_99266" data-name="Trazado 99266" d="M490.231,103.344a.592.592,0,1,0,.592-.565A.579.579,0,0,0,490.231,103.344Z" transform="translate(-484.91 -102.779)" fill="#fff"/>
            <path id="Trazado_99267" data-name="Trazado 99267" d="M498.677,103.344a.592.592,0,1,0,.592-.565A.579.579,0,0,0,498.677,103.344Z" transform="translate(-498.677 -102.779)" fill="#fff"/>
          </g>
          <g id="Grupo_53314" data-name="Grupo 53314" transform="translate(0 36.187)">
            <ellipse id="Elipse_3975" data-name="Elipse 3975" cx="0.591" cy="0.565" rx="0.591" ry="0.565" transform="translate(53.211)" fill="#fff"/>
            <path id="Trazado_99268" data-name="Trazado 99268" d="M422.66,110.852a.592.592,0,1,0,.591-.565A.579.579,0,0,0,422.66,110.852Z" transform="translate(-374.77 -110.287)" fill="#fff"/>
            <ellipse id="Elipse_3976" data-name="Elipse 3976" cx="0.591" cy="0.565" rx="0.591" ry="0.565" transform="translate(42.569)" fill="#fff"/>
            <path id="Trazado_99269" data-name="Trazado 99269" d="M439.553,110.852a.592.592,0,1,0,.592-.565A.579.579,0,0,0,439.553,110.852Z" transform="translate(-402.305 -110.287)" fill="#fff"/>
            <path id="Trazado_99270" data-name="Trazado 99270" d="M448,110.852a.592.592,0,1,0,.591-.565A.579.579,0,0,0,448,110.852Z" transform="translate(-416.072 -110.287)" fill="#fff"/>
            <ellipse id="Elipse_3977" data-name="Elipse 3977" cx="0.591" cy="0.565" rx="0.591" ry="0.565" transform="translate(26.606)" fill="#fff"/>
            <path id="Trazado_99271" data-name="Trazado 99271" d="M464.892,110.852a.592.592,0,1,0,.592-.565A.58.58,0,0,0,464.892,110.852Z" transform="translate(-443.608 -110.287)" fill="#fff"/>
            <ellipse id="Elipse_3978" data-name="Elipse 3978" cx="0.591" cy="0.565" rx="0.591" ry="0.565" transform="translate(15.963)" fill="#fff"/>
            <ellipse id="Elipse_3979" data-name="Elipse 3979" cx="0.591" cy="0.565" rx="0.591" ry="0.565" transform="translate(10.642)" fill="#fff"/>
            <path id="Trazado_99272" data-name="Trazado 99272" d="M490.231,110.852a.592.592,0,1,0,.592-.565A.58.58,0,0,0,490.231,110.852Z" transform="translate(-484.91 -110.287)" fill="#fff"/>
            <path id="Trazado_99273" data-name="Trazado 99273" d="M498.677,110.852a.592.592,0,1,0,.592-.565A.579.579,0,0,0,498.677,110.852Z" transform="translate(-498.677 -110.287)" fill="#fff"/>
          </g>
          <g id="Grupo_53315" data-name="Grupo 53315" transform="translate(0 40.709)">
            <path id="Trazado_99274" data-name="Trazado 99274" d="M414.214,118.36a.592.592,0,1,0,.592-.566A.579.579,0,0,0,414.214,118.36Z" transform="translate(-361.003 -117.794)" fill="#fff"/>
            <path id="Trazado_99275" data-name="Trazado 99275" d="M422.66,118.36a.592.592,0,1,0,.591-.566A.579.579,0,0,0,422.66,118.36Z" transform="translate(-374.77 -117.794)" fill="#fff"/>
            <path id="Trazado_99276" data-name="Trazado 99276" d="M431.106,118.36a.592.592,0,1,0,.591-.566A.579.579,0,0,0,431.106,118.36Z" transform="translate(-388.536 -117.794)" fill="#fff"/>
            <path id="Trazado_99277" data-name="Trazado 99277" d="M439.553,118.36a.592.592,0,1,0,.592-.566A.579.579,0,0,0,439.553,118.36Z" transform="translate(-402.305 -117.794)" fill="#fff"/>
            <path id="Trazado_99278" data-name="Trazado 99278" d="M448,118.36a.592.592,0,1,0,.591-.566A.579.579,0,0,0,448,118.36Z" transform="translate(-416.072 -117.794)" fill="#fff"/>
            <path id="Trazado_99279" data-name="Trazado 99279" d="M456.445,118.36a.592.592,0,1,0,.591-.566A.579.579,0,0,0,456.445,118.36Z" transform="translate(-429.839 -117.794)" fill="#fff"/>
            <path id="Trazado_99280" data-name="Trazado 99280" d="M464.892,118.36a.592.592,0,1,0,.592-.566A.58.58,0,0,0,464.892,118.36Z" transform="translate(-443.608 -117.794)" fill="#fff"/>
            <path id="Trazado_99281" data-name="Trazado 99281" d="M473.338,118.36a.592.592,0,1,0,.591-.566A.579.579,0,0,0,473.338,118.36Z" transform="translate(-457.375 -117.794)" fill="#fff"/>
            <path id="Trazado_99282" data-name="Trazado 99282" d="M481.784,118.36a.592.592,0,1,0,.591-.566A.579.579,0,0,0,481.784,118.36Z" transform="translate(-471.142 -117.794)" fill="#fff"/>
            <path id="Trazado_99283" data-name="Trazado 99283" d="M490.231,118.36a.592.592,0,1,0,.592-.566A.58.58,0,0,0,490.231,118.36Z" transform="translate(-484.91 -117.794)" fill="#fff"/>
            <path id="Trazado_99284" data-name="Trazado 99284" d="M498.677,118.36a.592.592,0,1,0,.592-.566A.579.579,0,0,0,498.677,118.36Z" transform="translate(-498.677 -117.794)" fill="#fff"/>
          </g>
          <g id="Grupo_53316" data-name="Grupo 53316" transform="translate(0 45.233)">
            <ellipse id="Elipse_3980" data-name="Elipse 3980" cx="0.591" cy="0.565" rx="0.591" ry="0.565" transform="translate(53.211 0)" fill="#fff"/>
            <path id="Trazado_99285" data-name="Trazado 99285" d="M422.66,125.868a.592.592,0,1,0,.591-.566A.578.578,0,0,0,422.66,125.868Z" transform="translate(-374.77 -125.302)" fill="#fff"/>
            <ellipse id="Elipse_3981" data-name="Elipse 3981" cx="0.591" cy="0.565" rx="0.591" ry="0.565" transform="translate(42.569 0)" fill="#fff"/>
            <path id="Trazado_99286" data-name="Trazado 99286" d="M439.553,125.868a.592.592,0,1,0,.592-.566A.579.579,0,0,0,439.553,125.868Z" transform="translate(-402.305 -125.302)" fill="#fff"/>
            <path id="Trazado_99287" data-name="Trazado 99287" d="M448,125.868a.592.592,0,1,0,.591-.566A.579.579,0,0,0,448,125.868Z" transform="translate(-416.072 -125.302)" fill="#fff"/>
            <ellipse id="Elipse_3982" data-name="Elipse 3982" cx="0.591" cy="0.565" rx="0.591" ry="0.565" transform="translate(26.606 0)" fill="#fff"/>
            <path id="Trazado_99288" data-name="Trazado 99288" d="M464.892,125.868a.592.592,0,1,0,.592-.566A.579.579,0,0,0,464.892,125.868Z" transform="translate(-443.608 -125.302)" fill="#fff"/>
            <ellipse id="Elipse_3983" data-name="Elipse 3983" cx="0.591" cy="0.565" rx="0.591" ry="0.565" transform="translate(15.963 0)" fill="#fff"/>
            <ellipse id="Elipse_3984" data-name="Elipse 3984" cx="0.591" cy="0.565" rx="0.591" ry="0.565" transform="translate(10.642 0)" fill="#fff"/>
            <path id="Trazado_99289" data-name="Trazado 99289" d="M490.231,125.868a.592.592,0,1,0,.592-.566A.579.579,0,0,0,490.231,125.868Z" transform="translate(-484.91 -125.302)" fill="#fff"/>
            <path id="Trazado_99290" data-name="Trazado 99290" d="M498.677,125.868a.592.592,0,1,0,.592-.566A.579.579,0,0,0,498.677,125.868Z" transform="translate(-498.677 -125.302)" fill="#fff"/>
          </g>
          <g id="Grupo_53317" data-name="Grupo 53317" transform="translate(0 49.757)">
            <ellipse id="Elipse_3985" data-name="Elipse 3985" cx="0.591" cy="0.565" rx="0.591" ry="0.565" transform="translate(53.211 0)" fill="#fff"/>
            <path id="Trazado_99291" data-name="Trazado 99291" d="M422.66,133.376a.592.592,0,1,0,.591-.566A.578.578,0,0,0,422.66,133.376Z" transform="translate(-374.77 -132.81)" fill="#fff"/>
            <ellipse id="Elipse_3986" data-name="Elipse 3986" cx="0.591" cy="0.565" rx="0.591" ry="0.565" transform="translate(42.569 0)" fill="#fff"/>
            <path id="Trazado_99292" data-name="Trazado 99292" d="M439.553,133.376a.592.592,0,1,0,.592-.566A.579.579,0,0,0,439.553,133.376Z" transform="translate(-402.305 -132.81)" fill="#fff"/>
            <path id="Trazado_99293" data-name="Trazado 99293" d="M448,133.376a.592.592,0,1,0,.591-.566A.579.579,0,0,0,448,133.376Z" transform="translate(-416.072 -132.81)" fill="#fff"/>
            <ellipse id="Elipse_3987" data-name="Elipse 3987" cx="0.591" cy="0.565" rx="0.591" ry="0.565" transform="translate(26.606 0)" fill="#fff"/>
            <path id="Trazado_99294" data-name="Trazado 99294" d="M464.892,133.376a.592.592,0,1,0,.592-.566A.579.579,0,0,0,464.892,133.376Z" transform="translate(-443.608 -132.81)" fill="#fff"/>
            <ellipse id="Elipse_3988" data-name="Elipse 3988" cx="0.591" cy="0.565" rx="0.591" ry="0.565" transform="translate(15.963 0)" fill="#fff"/>
            <ellipse id="Elipse_3989" data-name="Elipse 3989" cx="0.591" cy="0.565" rx="0.591" ry="0.565" transform="translate(10.642 0)" fill="#fff"/>
            <path id="Trazado_99295" data-name="Trazado 99295" d="M490.231,133.376a.592.592,0,1,0,.592-.566A.579.579,0,0,0,490.231,133.376Z" transform="translate(-484.91 -132.81)" fill="#fff"/>
            <path id="Trazado_99296" data-name="Trazado 99296" d="M498.677,133.376a.592.592,0,1,0,.592-.566A.579.579,0,0,0,498.677,133.376Z" transform="translate(-498.677 -132.81)" fill="#fff"/>
          </g>
        </g>
        <line id="Línea_138" data-name="Línea 138" y2="115.674" transform="translate(301.114 61)" fill="none" stroke="#fff" stroke-width="1" stroke-dasharray="8"/>
      </g>
    </g>
    <g id="Grupo_158708" data-name="Grupo 158708" transform="translate(436 821.871)">
      <g id="Grupo_158708-2" data-name="Grupo 158708" clip-path="url(#clip-path-2)">
        <path id="Trazado_153682" data-name="Trazado 153682" d="M119.512,123.558a2.234,2.234,0,0,1,2.085,2.579,20.759,20.759,0,0,1-.193,4.131c-.817,3.581-2.952,6-6.526,6.8-10.439,2.354-20.9,4.587-31.363,6.859-3.717.808-7.442,1.579-11.156,2.4a12.815,12.815,0,0,1-1.839.191c-7.983.61-15.7-.9-23.429-2.679-9.963-2.3-19.979-4.368-29.979-6.5-4.9-1.048-7.644-4.361-7.647-9.381-.007-6.865-.021-13.73.018-20.595.007-1.1-.056-1.6-1.456-1.642A8.066,8.066,0,0,1,.02,97.406C0,95.642-.017,93.877.028,92.114A8.007,8.007,0,0,1,7.9,84.128c1.345-.026,1.673-.438,1.589-1.689a14.181,14.181,0,0,1,.14-3.7,8.64,8.64,0,0,1,10.384-6.98c3.3.664,6.586,1.389,10.09,2.132a26.767,26.767,0,0,1-1.336-9.1,1.384,1.384,0,0,0-1.078-1.514,9.461,9.461,0,0,1-4.558-14.792,2.064,2.064,0,0,0,.358-1.938c-1.634-6.916-2.957-13.879-2.887-21.03.008-.857.051-1.715.092-2.572a2.3,2.3,0,0,1,2.217-2.494c1.531-.1,2.225.458,2.347,1.95.085,1.043.04,2.094.028,3.141a81.131,81.131,0,0,0,2.226,17.665c.215,1.024.634,1.565,1.753,1.173a2.349,2.349,0,0,1,.847-.107c4.917.171,7.68-2.737,9.608-6.776a19.548,19.548,0,0,0,1.62-4.867,3.493,3.493,0,0,1,1.392-2.4,2.713,2.713,0,0,1,3.282.583c5.26,4.73,11.591,6.75,18.478,7.5A38.517,38.517,0,0,0,80.98,36.582a31.687,31.687,0,0,0,10.464-6.3,57.46,57.46,0,0,0,11.376-12.929A18.55,18.55,0,0,0,105.66,11c.328-1.677-.2-2.191-1.887-1.9-2.4.837-4.007,2.723-5.79,4.378A18.8,18.8,0,0,1,95.8,15.91c-1.162,1.112-2.222,1.313-3.31.631s-1.416-1.908-.84-3.4A25.515,25.515,0,0,0,93.295,7.7c.39-2.637-.724-3.592-3.239-2.729a10.867,10.867,0,0,0-1.425.645c-2.5,1.358-3.955,3.652-5.331,6.005-.506.863-.9,1.789-1.333,2.691-1.045,1.366-2.146,1.8-3.271,1.3-1.182-.531-1.7-1.645-1.4-3.258a40.963,40.963,0,0,0,.648-4.671,5.012,5.012,0,0,0-.555-2.626c-1.068-.9-1.8.021-2.467.569a27.235,27.235,0,0,0-4.213,4.643A60.775,60.775,0,0,1,64.7,17.51a15.667,15.667,0,0,1-3.768,2.8,5.022,5.022,0,0,1-1.314.543,2.486,2.486,0,0,1-2.688-1.2,2.37,2.37,0,0,1,.375-2.887,5.132,5.132,0,0,1,1.4-.973,17.263,17.263,0,0,0,5.333-5.067c.347-.45.419-.84-.189-1.145C59.563,7.424,55.112,6.031,50.253,6.8c-3.14.5-5.278,2.449-6.838,5.118-1.528,2.366-2.217,2.618-4.829,1.641a14.332,14.332,0,0,0-6.031-.854,6.57,6.57,0,0,0-4.748,2.587,4.083,4.083,0,0,1-1.313,1.291c-.781.356-1.6.733-2.3-.177-1.317-1.245-1.437-2.033-.461-3.463,3.074-4.5,7.556-5.694,12.552-4.742,2.424.462,3.825.215,5.534-1.769,3.762-4.364,8.936-5.1,14.386-4.3a31.614,31.614,0,0,1,10.7,3.773c.71.394,1.088.375,1.621-.319,1.866-2.436,4-4.577,7.018-5.588h2.576a4.612,4.612,0,0,1,3.922,3.093c.356.89.723.758,1.325.206A10.979,10.979,0,0,1,90.144,0h3.148c3.387.993,4.89,3.339,4.784,6.989.807-.513,1.46-.938,2.122-1.345a8.445,8.445,0,0,1,4.978-1.5c3.682.229,5.945,3.542,5.153,7.525-.828,4.168-3.1,7.631-5.5,11.019a48.322,48.322,0,0,1-4.349,5.3,2.018,2.018,0,0,0-.579,1.793c.58,4.683.981,9.382,1.165,14.1a1.1,1.1,0,0,0,.9,1.184c4.333,1.486,6.845,4.9,6.849,9.157a9.407,9.407,0,0,1-6.69,9.125c-.77.273-.844.665-.865,1.33a27.433,27.433,0,0,1-1.466,9.482c3.063-.666,5.965-1.317,8.877-1.924,1.994-.416,3.961-1,6.058-.493a8.771,8.771,0,0,1,6.855,8.267c.047,1.191-.326,2.531.109,3.538.532,1.232,2.092.394,3.179.723a8.1,8.1,0,0,1,6.074,6.994,37.589,37.589,0,0,1,0,7.281,7.969,7.969,0,0,1-8.058,7.2c-1.079.028-1.34.283-1.313,1.341.076,3.1.031,6.2.026,9.295,0,1.905-.349,2.361-2.2,2.967-1.557.051-2.361-.685-2.45-2.416-.11-2.094-.026-4.193-.038-6.291,0-.524-.037-1.051.006-1.573.178-2.172-.1-3.976-2.161-5.436-1.98-1.406-2.731-3.716-2.711-6.192.013-1.669,0-3.337,0-5a8.43,8.43,0,0,1,3.556-7.135,2.793,2.793,0,0,0,1.313-2.652c-.047-.665.009-1.335-.019-2-.132-3.116-2.366-4.853-5.433-4.2q-6.429,1.38-12.854,2.786-11.385,2.483-22.775,4.945c-1.805.388-1.87.441-1.872,2.229q-.005,26.381,0,52.762c0,1.917.036,1.945,1.949,1.541,12.263-2.59,24.5-5.321,36.755-7.939,3.188-.681,4.218-2.018,4.243-5.282a11.778,11.778,0,0,1,.083-2.14,2.041,2.041,0,0,1,2.516-1.8" transform="translate(0 0)"/>
        <path id="Trazado_153683" data-name="Trazado 153683" d="M111.681,115.475c-1.671.322-2.274.918-2.183,2.588.32,5.825-1.825,6.518-5.988,7.387-12.252,2.554-24.475,5.244-36.7,7.936-1.05.232-1.193-.034-1.192-.97q.027-27.536,0-55.073c0-.862.218-1.223,1.12-1.417,12.469-2.673,24.925-5.411,37.395-8.088a4.427,4.427,0,0,1,5.329,4.058c.038.425-.017.86.025,1.286.2,2.052-.059,3.694-2.121,5-1.951,1.24-2.7,3.5-2.727,5.87-.018,1.764,0,3.528-.006,5.292a7.954,7.954,0,0,0,3.978,7.141,1.589,1.589,0,0,1,.888,1.577c-.04,3.432.032,6.867-.039,10.3a2.535,2.535,0,0,0,2.111,2.909q.057,2.1.112,4.2" transform="translate(7.83 8.083)" fill="#d94a54"/>
        <path id="Trazado_153684" data-name="Trazado 153684" d="M21.754,15.16a2.16,2.16,0,0,0,2.877-.791c2.127-3.268,5.265-3.752,8.76-3.217a14.361,14.361,0,0,1,2.595.726c2.933,1.038,2.983,1.034,4.756-1.454.563.637.133,1.264-.055,1.865a27.321,27.321,0,0,0-1.019,14c.207.982.679,1.864.867,2.84a3.552,3.552,0,0,0-1.223,2.166,21.022,21.022,0,0,1-2.748,7.136C34.592,41.6,31.9,43.5,28.025,43.414a2.769,2.769,0,0,0-1.128.107c-1.65.721-1.948-.123-2.25-1.564-1.4-6.67-2.526-13.355-2.118-20.213.093-1.568-.418-2.12-2.063-2.539q.648-2.023,1.288-4.046" transform="translate(2.442 1.244)" fill="#ebc22e"/>
        <path id="Trazado_153685" data-name="Trazado 153685" d="M56.126,104.991c0,9.008-.024,18.018.027,27.026.007,1.256-.176,1.6-1.539,1.3-12.818-2.829-25.652-5.58-38.481-8.358a4.5,4.5,0,0,1-3.835-4.643c-.025-7.436,0-14.872-.021-22.307a1.484,1.484,0,0,1,.81-1.479,8,8,0,0,0,4.052-7.244c0-1.668.01-3.337,0-5a7.891,7.891,0,0,0-3.877-7.046,1.771,1.771,0,0,1-.985-1.829c.063-1.092-.021-2.194.027-3.287a4.448,4.448,0,0,1,5.4-4.28c12.415,2.67,24.817,5.4,37.235,8.054,1.045.224,1.218.7,1.214,1.642-.031,9.152-.019,18.3-.019,27.455" transform="translate(1.464 8.083)" fill="#c22430"/>
        <path id="Trazado_153686" data-name="Trazado 153686" d="M43.335,34.843A43.886,43.886,0,0,0,63.95,39.727c9.819-.016,18.515-3.019,25.84-9.686.276-.252.57-.484.974-.826a19.878,19.878,0,0,1,.536,4.44,224.551,224.551,0,0,1,.419,31.132A16.7,16.7,0,0,1,90,70.93a1.9,1.9,0,0,1-1.5,1.124q-10.883,2.317-21.758,4.68c-1.7.368-3.422.047-5.124.193-5.9.5-11.516-1.025-17.164-2.345-.686-.346-.791-1.043-.967-1.672a32.755,32.755,0,0,1-1.164-8.037c-.051-2.047-.019-4.1-.006-6.144a3.026,3.026,0,0,1,.334-1.794,1.052,1.052,0,0,1,.627-.3c2.619-.394,3.83-1.968,3.5-4.628-.181-1.439-.5-2.827-1.982-3.58-.694-.351-1.554.133-2.177-.488a.938.938,0,0,1-.177-.391,61.126,61.126,0,0,1,.188-11.8c.058-.393.1-.894.7-.9" transform="translate(5.042 3.486)" fill="#f0cfa4"/>
        <path id="Trazado_153687" data-name="Trazado 153687" d="M38.586,29.914c-.844-.418-.959-1.292-1.132-2.038a27.316,27.316,0,0,1,1.138-15.568,2.28,2.28,0,0,0,.2-1.1C41,7.185,44.53,5.571,48.962,5.722c4.224.144,8.055,1.649,11.865,3.656-1.986,2.505-3.781,5.066-6.71,6.492-1.5.73-2.018,1.884-1.431,3.078.545,1.113,1.728,1.427,3.2.854.218-.085.442-.158.664-.236,1.193-.322,2.437-.262,3.643-.5C63.476,18.417,65.6,16.3,67.3,13.6s2.724-5.743,4.271-8.523c.328-.593.566-1.407,1.556-.951.963,1,.823,2.277.766,3.468a22.686,22.686,0,0,1-.562,4.07c-.308,1.326-.334,2.469,1.032,3.173,1.086.559,2.037.128,3.045-1.286,2.369-.463,3.261-2.272,4.023-4.28a10.82,10.82,0,0,1,2.58-4.344,4.968,4.968,0,0,1,2.879-1.062c1.925-.187,2.654.519,2.508,2.452a20.069,20.069,0,0,1-1.7,6.29c-.655,1.554-.458,2.61.594,3.252s2.039.338,3.187-.957c.658-.744,1.357-1.452,2.038-2.176,1.842-1.514,3.724-2.976,5.668-4.356,1.961-.757,2.872-.1,2.549,1.928a16.063,16.063,0,0,1-2.436,5.9A54.513,54.513,0,0,1,81.886,34.02c-6.389,4-13.543,4.849-20.891,4.3a33.5,33.5,0,0,1-17-5.608,18.234,18.234,0,0,1-2.433-1.978,2.752,2.752,0,0,0-2.973-.822" transform="translate(4.392 0.458)" fill="#f3dc45"/>
        <path id="Trazado_153688" data-name="Trazado 153688" d="M44.871,34.433a5.959,5.959,0,0,0-.537,2.864c-.116,3.183-.048,6.372-.051,9.559a.874.874,0,0,0,.284.767c.087.268-.075.444-.218.635a5.562,5.562,0,0,0-.041,7.426,1.025,1.025,0,0,1,.321.762c-.105.151-.3.3-.3.454.036,3.267-.19,6.532.139,9.805a32.855,32.855,0,0,0,1.529,7.466c-4.459-.946-8.919-1.9-13.382-2.829a1.641,1.641,0,0,1-1.249-1.017,16.419,16.419,0,0,1-1.651-6.013c-.386-6.087-.376-12.182-.27-18.277.01-.537-.149-1.109.714-1.294,5.178-1.109,8.186-4.69,10.364-9.2.484-1,.559-2.713,1.413-2.873.82-.154,1.9,1.043,2.858,1.65.037.024.054.077.079.118" transform="translate(3.506 3.897)" fill="#f0b885"/>
        <path id="Trazado_153689" data-name="Trazado 153689" d="M62.572,104.591c0,9.012-.034,18.024.036,27.035.01,1.373-.422,1.683-1.677,1.6-1.567-.1-3.146-.05-4.719-.013-.669.016-.987-.19-.913-.89a8.108,8.108,0,0,0,0-.857c0-18.024.022-36.047-.04-54.071-.006-1.511.432-1.873,1.825-1.751a27.11,27.11,0,0,0,4.145,0c1.062-.072,1.376.24,1.366,1.333-.053,6.436-.026,12.874-.026,19.311v8.3" transform="translate(6.595 9.025)" fill="#dc626d"/>
        <path id="Trazado_153690" data-name="Trazado 153690" d="M107.834,79.02c.8-.024,1.61-.1,2.41-.06a3.806,3.806,0,0,1,3.855,3.906c.054,1.706.044,3.416,0,5.124a3.863,3.863,0,0,1-3.875,4.059,6.3,6.3,0,0,1-2.674-.138A4.206,4.206,0,0,1,106.195,89a21.446,21.446,0,0,1,.255-8.092,2.566,2.566,0,0,1,1.385-1.888" transform="translate(12.642 9.422)" fill="#f0cfa4"/>
        <path id="Trazado_153691" data-name="Trazado 153691" d="M7.327,79.025c.76-.028,1.521-.1,2.279-.074a3.827,3.827,0,0,1,4.016,4.06c.027,1.716.037,3.434-.008,5.149a3.665,3.665,0,0,1-3.348,3.767,1.015,1.015,0,0,1-.272.083c-3.42.2-4.213-.54-4.239-3.98-.013-1.948-.044-3.9.018-5.842a3.361,3.361,0,0,1,1.554-3.162" transform="translate(0.684 9.421)" fill="#f0cfa4"/>
        <path id="Trazado_153692" data-name="Trazado 153692" d="M71.026,4.128c-.765-.109-.94.486-1.185,1-1.11,2.311-2.192,4.637-3.34,6.93a17.945,17.945,0,0,1-3.26,4.63,10.217,10.217,0,0,1-8.8,2.886c3.754-2.261,6.278-5.719,8.873-9.109A30.108,30.108,0,0,1,68.272,4.8c.776-.612,1.6-1.428,2.755-.672" transform="translate(6.497 0.456)" fill="#ebc22e"/>
        <path id="Trazado_153693" data-name="Trazado 153693" d="M7.555,79.017a6.67,6.67,0,0,0-1.166,4.569c.079,1.611.011,3.228.019,4.842.013,2.776.615,3.382,3.378,3.436.236,0,.472.035.709.054a7.432,7.432,0,0,1-3.244.065,3.765,3.765,0,0,1-3.379-3.8c-.06-1.807-.065-3.62,0-5.427a3.678,3.678,0,0,1,3.682-3.741" transform="translate(0.456 9.43)" fill="#efb885"/>
        <path id="Trazado_153694" data-name="Trazado 153694" d="M108.032,79.013a7.218,7.218,0,0,0-1.408,4.536,30.6,30.6,0,0,0,.222,5.827c.185.912.829,1.61.907,2.529a3.572,3.572,0,0,1-3.413-3.5c-.077-1.944-.082-3.9,0-5.841a3.637,3.637,0,0,1,3.693-3.548" transform="translate(12.445 9.429)" fill="#f0b885"/>
        <path id="Trazado_153695" data-name="Trazado 153695" d="M90.592,53.7V44.344a4.457,4.457,0,0,1,3.076,3.905,5.1,5.1,0,0,1-3.076,5.45" transform="translate(10.811 5.292)" fill="#edb684"/>
        <path id="Trazado_153696" data-name="Trazado 153696" d="M25.858,44.285c0,3.1,0,6.175,0,9.249a4.6,4.6,0,0,1-3.1-4.259,4.945,4.945,0,0,1,3.1-4.99" transform="translate(2.715 5.285)" fill="#efb785"/>
        <path id="Trazado_153697" data-name="Trazado 153697" d="M79.686,4.81a61.922,61.922,0,0,0-3.253,6.775,3.013,3.013,0,0,1-3.351,1.849c1.423-3.471,3.254-6.63,6.6-8.625" transform="translate(8.721 0.574)" fill="#eac12e"/>
        <path id="Trazado_153698" data-name="Trazado 153698" d="M93.141,7.885a23.565,23.565,0,0,1-5.668,4.356c1.65-1.763,3.315-3.507,5.668-4.356" transform="translate(10.439 0.941)" fill="#e1bb2d"/>
        <path id="Trazado_153699" data-name="Trazado 153699" d="M102.737,82.265c-.03,1.212-.955,1.756-2.176,2.02Q93.932,85.719,87.3,87.16q-4.327.934-8.658,1.85c-.419.09-.836.191-1.259.252a2.134,2.134,0,0,1-2.6-1.634,2.081,2.081,0,0,1,1.748-2.513c2.777-.663,5.571-1.255,8.361-1.861q7.255-1.578,14.514-3.14c2.063-.444,3.333.3,3.328,2.151" transform="translate(8.918 9.546)"/>
        <path id="Trazado_153700" data-name="Trazado 153700" d="M100.558,87.06a1.993,1.993,0,0,1,2.137,1.713,1.963,1.963,0,0,1-1.6,2.468c-2.919.679-5.85,1.314-8.779,1.952q-6.975,1.518-13.955,3.018c-.279.06-.559.125-.841.161-1.494.187-2.473-.4-2.745-1.628a2.172,2.172,0,0,1,1.91-2.558c2.27-.535,4.555-1.006,6.834-1.5q7.883-1.713,15.768-3.418c.418-.091.845-.139,1.27-.207" transform="translate(8.918 10.39)"/>
        <path id="Trazado_153701" data-name="Trazado 153701" d="M58.991,67.957a9.86,9.86,0,0,1-8.6-5.179c-.762-1.342-.493-2.594.607-3.229,1.128-.654,2.269-.26,3.11,1.073,2.554,4.046,7.295,4.05,9.858.007.846-1.335,1.99-1.733,3.1-1.079,1.137.668,1.392,1.854.612,3.227a9.874,9.874,0,0,1-8.694,5.18" transform="translate(5.962 7.07)"/>
        <path id="Trazado_153702" data-name="Trazado 153702" d="M43.227,54.865a5.714,5.714,0,0,1-.062-8.823c1.73-.409,2.677,0,3.483,1.566a6.114,6.114,0,0,1,.111,5.475c-.72,1.638-1.728,2.1-3.533,1.782" transform="translate(4.906 5.477)"/>
        <path id="Trazado_153703" data-name="Trazado 153703" d="M69.5,50.386a5.15,5.15,0,0,1,1.179-3.573,2.318,2.318,0,0,1,3.8.029,6.226,6.226,0,0,1,.02,7.186,2.35,2.35,0,0,1-3.9-.04,5.268,5.268,0,0,1-1.1-3.6" transform="translate(8.294 5.47)"/>
      </g>
    </g>
  </g>
</svg>
