<svg xmlns="http://www.w3.org/2000/svg" xmlns:xlink="http://www.w3.org/1999/xlink" width="610" height="430.129" viewBox="0 0 610 430.129">
  <defs>
    <clipPath id="clip-path">
      <rect id="Rectángulo_35592" data-name="Rectángulo 35592" width="52.684" height="52.631" fill="#31313c"/>
    </clipPath>
    <clipPath id="clip-path-2">
      <rect id="Rectángulo_35593" data-name="Rectángulo 35593" width="40.452" height="51.774" fill="#31313c"/>
    </clipPath>
    <clipPath id="clip-path-3">
      <rect id="Rectángulo_35594" data-name="Rectángulo 35594" width="44.497" height="46.011" fill="#31313c"/>
    </clipPath>
    <clipPath id="clip-path-4">
      <rect id="Rectángulo_35595" data-name="Rectángulo 35595" width="36.314" height="40.623" fill="none"/>
    </clipPath>
  </defs>
  <g id="Grupo_159291" data-name="Grupo 159291" transform="translate(8989 5126)">
    <path id="Trazado_156227" data-name="Trazado 156227" d="M10,0H178a10,10,0,0,1,10,10V118a10,10,0,0,1-10,10H10A10,10,0,0,1,0,118V10A10,10,0,0,1,10,0Z" transform="translate(-8769 -5085.871)" fill="#785549"/>
    <path id="Trazado_156228" data-name="Trazado 156228" d="M10,0H179a10,10,0,0,1,10,10V117a10,10,0,0,1-10,10H10A10,10,0,0,1,0,117V10A10,10,0,0,1,10,0Z" transform="translate(-8989 -4822.871)" fill="#785549"/>
    <path id="Trazado_156229" data-name="Trazado 156229" d="M10,0H179a10,10,0,0,1,10,10V117a10,10,0,0,1-10,10H10A10,10,0,0,1,0,117V10A10,10,0,0,1,10,0Z" transform="translate(-8568 -4822.871)" fill="#785549"/>
    <path id="Trazado_156230" data-name="Trazado 156230" d="M37.012,10.055h-4.5v3.063h5.281V15H30.168V3.625h7.609v1.9H32.512V8.234h4.5ZM43.6,12.664a.727.727,0,0,0-.41-.652,4.659,4.659,0,0,0-1.316-.426q-3.016-.633-3.016-2.562a2.323,2.323,0,0,1,.934-1.879,3.766,3.766,0,0,1,2.441-.754,4.053,4.053,0,0,1,2.574.758,2.388,2.388,0,0,1,.965,1.969H43.512a1.092,1.092,0,0,0-.312-.8A1.322,1.322,0,0,0,42.223,8a1.351,1.351,0,0,0-.883.258.814.814,0,0,0-.312.656.7.7,0,0,0,.355.605,3.657,3.657,0,0,0,1.2.4A9.8,9.8,0,0,1,44,10.3a2.336,2.336,0,0,1,1.789,2.273,2.2,2.2,0,0,1-.992,1.871,4.28,4.28,0,0,1-2.562.715,4.47,4.47,0,0,1-1.887-.379,3.166,3.166,0,0,1-1.293-1.039,2.414,2.414,0,0,1-.469-1.426H40.73a1.179,1.179,0,0,0,.445.922,1.766,1.766,0,0,0,1.109.32,1.635,1.635,0,0,0,.98-.246A.766.766,0,0,0,43.6,12.664Zm6.352-8.2V6.547h1.445V8.2H49.949v4.219a1.007,1.007,0,0,0,.18.672.9.9,0,0,0,.688.2,3.6,3.6,0,0,0,.664-.055v1.711a4.648,4.648,0,0,1-1.367.2,2.156,2.156,0,0,1-2.422-2.4V8.2H46.457V6.547h1.234V4.469Zm7.453,4.2A6.134,6.134,0,0,0,56.59,8.6a1.654,1.654,0,0,0-1.68.867V15H52.652V6.547h2.133l.063,1.008A2.092,2.092,0,0,1,56.73,6.391a2.366,2.366,0,0,1,.7.1ZM63.152,15a2.507,2.507,0,0,1-.227-.758,2.732,2.732,0,0,1-2.133.914,3,3,0,0,1-2.059-.719,2.312,2.312,0,0,1-.816-1.812,2.389,2.389,0,0,1,1-2.062,4.915,4.915,0,0,1,2.879-.727h1.039V9.352a1.393,1.393,0,0,0-.3-.937,1.183,1.183,0,0,0-.949-.352,1.345,1.345,0,0,0-.895.273.929.929,0,0,0-.324.75H58.105a2.268,2.268,0,0,1,.453-1.359,3,3,0,0,1,1.281-.98A4.669,4.669,0,0,1,61.7,6.391a3.689,3.689,0,0,1,2.48.785A2.747,2.747,0,0,1,65.1,9.383v3.664a4.041,4.041,0,0,0,.336,1.82V15Zm-1.867-1.57a1.945,1.945,0,0,0,.922-.223,1.462,1.462,0,0,0,.625-.6V11.156h-.844q-1.7,0-1.8,1.172l-.008.133a.9.9,0,0,0,.3.7A1.153,1.153,0,0,0,61.285,13.43Zm8.25-8.961V6.547H70.98V8.2H69.535v4.219a1.007,1.007,0,0,0,.18.672.9.9,0,0,0,.688.2,3.6,3.6,0,0,0,.664-.055v1.711a4.648,4.648,0,0,1-1.367.2,2.156,2.156,0,0,1-2.422-2.4V8.2H66.043V6.547h1.234V4.469Zm6.594,10.688A4.15,4.15,0,0,1,73.1,14.016a4.054,4.054,0,0,1-1.168-3.039v-.219a5.106,5.106,0,0,1,.492-2.277A3.612,3.612,0,0,1,73.82,6.934a3.914,3.914,0,0,1,2.059-.543,3.508,3.508,0,0,1,2.73,1.094,4.444,4.444,0,0,1,1,3.1v.922H74.223a2.1,2.1,0,0,0,.66,1.328,2,2,0,0,0,1.395.5,2.437,2.437,0,0,0,2.039-.945l1.109,1.242a3.389,3.389,0,0,1-1.375,1.121A4.511,4.511,0,0,1,76.129,15.156Zm-.258-6.945a1.411,1.411,0,0,0-1.09.455,2.357,2.357,0,0,0-.535,1.3h3.141V9.788a1.681,1.681,0,0,0-.406-1.165A1.456,1.456,0,0,0,75.871,8.211Zm4.688,2.5a4.954,4.954,0,0,1,.926-3.133,3,3,0,0,1,2.5-1.187,2.631,2.631,0,0,1,2.164.953l.094-.8h2.047v8.172a3.613,3.613,0,0,1-.5,1.93,3.236,3.236,0,0,1-1.418,1.25,4.985,4.985,0,0,1-2.141.43,4.635,4.635,0,0,1-1.812-.371A3.217,3.217,0,0,1,81.074,17l1-1.375a2.645,2.645,0,0,0,2.047.945,1.936,1.936,0,0,0,1.4-.48,1.8,1.8,0,0,0,.5-1.363v-.453a2.612,2.612,0,0,1-2.055.883A2.992,2.992,0,0,1,81.5,13.965a4.953,4.953,0,0,1-.941-3.16Zm2.258.161a3.1,3.1,0,0,0,.461,1.809,1.465,1.465,0,0,0,1.266.655,1.567,1.567,0,0,0,1.477-.777V8.988a1.563,1.563,0,0,0-1.461-.777,1.474,1.474,0,0,0-1.277.667A3.5,3.5,0,0,0,82.816,10.872ZM92.4,15H90.137V6.547H92.4ZM90,4.359a1.112,1.112,0,0,1,.34-.836,1.465,1.465,0,0,1,1.848,0,1.105,1.105,0,0,1,.344.836,1.108,1.108,0,0,1-.348.844,1.448,1.448,0,0,1-1.836,0A1.108,1.108,0,0,1,90,4.359ZM99.16,15a2.507,2.507,0,0,1-.227-.758,2.732,2.732,0,0,1-2.133.914,3,3,0,0,1-2.059-.719,2.312,2.312,0,0,1-.816-1.812,2.389,2.389,0,0,1,1-2.062A4.915,4.915,0,0,1,97.8,9.836H98.84V9.352a1.393,1.393,0,0,0-.3-.937,1.183,1.183,0,0,0-.949-.352,1.345,1.345,0,0,0-.895.273.929.929,0,0,0-.324.75H94.113a2.268,2.268,0,0,1,.453-1.359,3,3,0,0,1,1.281-.98,4.669,4.669,0,0,1,1.859-.355,3.689,3.689,0,0,1,2.48.785,2.747,2.747,0,0,1,.918,2.207v3.664a4.041,4.041,0,0,0,.336,1.82V15Zm-1.867-1.57a1.945,1.945,0,0,0,.922-.223,1.462,1.462,0,0,0,.625-.6V11.156H98q-1.7,0-1.8,1.172l-.008.133a.9.9,0,0,0,.3.7A1.153,1.153,0,0,0,97.293,13.43Zm10.125-.766a.727.727,0,0,0-.41-.652,4.659,4.659,0,0,0-1.316-.426q-3.016-.633-3.016-2.562a2.323,2.323,0,0,1,.934-1.879,3.766,3.766,0,0,1,2.441-.754,4.053,4.053,0,0,1,2.574.758,2.388,2.388,0,0,1,.965,1.969h-2.258a1.092,1.092,0,0,0-.312-.8A1.322,1.322,0,0,0,106.043,8a1.351,1.351,0,0,0-.883.258.814.814,0,0,0-.312.656.7.7,0,0,0,.355.605,3.657,3.657,0,0,0,1.2.4,9.8,9.8,0,0,1,1.422.379,2.336,2.336,0,0,1,1.789,2.273,2.2,2.2,0,0,1-.992,1.871,4.28,4.28,0,0,1-2.562.715,4.47,4.47,0,0,1-1.887-.379,3.166,3.166,0,0,1-1.293-1.039,2.414,2.414,0,0,1-.469-1.426h2.141a1.179,1.179,0,0,0,.445.922,1.766,1.766,0,0,0,1.109.32,1.635,1.635,0,0,0,.98-.246A.766.766,0,0,0,107.418,12.664Zm7.281-1.953a5.094,5.094,0,0,1,.887-3.148,2.877,2.877,0,0,1,2.426-1.172,2.589,2.589,0,0,1,2.039.922V3h2.266V15h-2.039l-.109-.9A2.657,2.657,0,0,1,118,15.156,2.869,2.869,0,0,1,115.6,13.98,5.258,5.258,0,0,1,114.7,10.711Zm2.258.161a3.355,3.355,0,0,0,.414,1.829,1.348,1.348,0,0,0,1.2.636,1.51,1.51,0,0,0,1.477-.887V9.1a1.489,1.489,0,0,0-1.461-.887Q116.957,8.211,116.957,10.872Zm11,4.285a4.15,4.15,0,0,1-3.027-1.141,4.054,4.054,0,0,1-1.168-3.039v-.219a5.106,5.106,0,0,1,.492-2.277,3.612,3.612,0,0,1,1.395-1.547,3.914,3.914,0,0,1,2.059-.543,3.508,3.508,0,0,1,2.73,1.094,4.444,4.444,0,0,1,1,3.1v.922h-5.383a2.1,2.1,0,0,0,.66,1.328,2,2,0,0,0,1.395.5,2.437,2.437,0,0,0,2.039-.945l1.109,1.242a3.389,3.389,0,0,1-1.375,1.121A4.511,4.511,0,0,1,127.957,15.156ZM127.7,8.211a1.411,1.411,0,0,0-1.09.455,2.357,2.357,0,0,0-.535,1.3h3.141V9.788a1.681,1.681,0,0,0-.406-1.165A1.456,1.456,0,0,0,127.7,8.211ZM12.1,36.664a.727.727,0,0,0-.41-.652,4.659,4.659,0,0,0-1.316-.426q-3.016-.633-3.016-2.562a2.323,2.323,0,0,1,.934-1.879,3.766,3.766,0,0,1,2.441-.754,4.053,4.053,0,0,1,2.574.758,2.388,2.388,0,0,1,.965,1.969H12.016a1.092,1.092,0,0,0-.312-.8A1.322,1.322,0,0,0,10.727,32a1.351,1.351,0,0,0-.883.258.814.814,0,0,0-.312.656.7.7,0,0,0,.355.605,3.657,3.657,0,0,0,1.2.4,9.8,9.8,0,0,1,1.422.379A2.336,2.336,0,0,1,14.3,36.57a2.205,2.205,0,0,1-.992,1.871,4.28,4.28,0,0,1-2.562.715,4.47,4.47,0,0,1-1.887-.379,3.166,3.166,0,0,1-1.293-1.039,2.414,2.414,0,0,1-.469-1.426H9.234a1.179,1.179,0,0,0,.445.922,1.766,1.766,0,0,0,1.109.32,1.635,1.635,0,0,0,.98-.246A.766.766,0,0,0,12.1,36.664Zm7.539,2.492a4.15,4.15,0,0,1-3.027-1.141,4.054,4.054,0,0,1-1.168-3.039v-.219a5.106,5.106,0,0,1,.492-2.277,3.612,3.612,0,0,1,1.395-1.547,3.914,3.914,0,0,1,2.059-.543,3.508,3.508,0,0,1,2.73,1.094,4.444,4.444,0,0,1,1,3.1v.922H17.734a2.1,2.1,0,0,0,.66,1.328,2,2,0,0,0,1.395.5,2.437,2.437,0,0,0,2.039-.945l1.109,1.242a3.389,3.389,0,0,1-1.375,1.121A4.511,4.511,0,0,1,19.641,39.156Zm-.258-6.945a1.411,1.411,0,0,0-1.09.455,2.357,2.357,0,0,0-.535,1.3H20.9v-.181a1.681,1.681,0,0,0-.406-1.165A1.456,1.456,0,0,0,19.383,32.211Zm9.766.453a6.134,6.134,0,0,0-.812-.062,1.654,1.654,0,0,0-1.68.867V39H24.4V30.547h2.133l.063,1.008a2.092,2.092,0,0,1,1.883-1.164,2.366,2.366,0,0,1,.7.1Zm4.391,3.578,1.57-5.7h2.359L34.617,39H32.461l-2.852-8.453h2.359ZM40.844,39H38.578V30.547h2.266Zm-2.4-10.641a1.112,1.112,0,0,1,.34-.836,1.465,1.465,0,0,1,1.848,0,1.193,1.193,0,0,1,0,1.68,1.448,1.448,0,0,1-1.836,0A1.108,1.108,0,0,1,38.445,28.359Zm7.773,8.977a1.481,1.481,0,0,0,1.016-.344,1.2,1.2,0,0,0,.406-.914h2.117a2.9,2.9,0,0,1-.469,1.574,3.093,3.093,0,0,1-1.262,1.109,3.949,3.949,0,0,1-1.77.395A3.67,3.67,0,0,1,43.4,38a4.56,4.56,0,0,1-1.047-3.184v-.148a4.508,4.508,0,0,1,1.039-3.117,3.627,3.627,0,0,1,2.852-1.164,3.555,3.555,0,0,1,2.543.9,3.2,3.2,0,0,1,.973,2.4H47.641a1.551,1.551,0,0,0-.406-1.072,1.51,1.51,0,0,0-2.223.163,3.333,3.333,0,0,0-.4,1.866v.235a3.375,3.375,0,0,0,.4,1.878A1.377,1.377,0,0,0,46.219,37.336ZM53.43,39H51.164V30.547H53.43Zm-2.4-10.641a1.112,1.112,0,0,1,.34-.836,1.465,1.465,0,0,1,1.848,0,1.193,1.193,0,0,1,0,1.68,1.448,1.448,0,0,1-1.836,0A1.108,1.108,0,0,1,51.031,28.359ZM54.938,34.7a5.013,5.013,0,0,1,.484-2.242,3.546,3.546,0,0,1,1.395-1.523,4.069,4.069,0,0,1,2.113-.539,3.849,3.849,0,0,1,2.793,1.047,4.2,4.2,0,0,1,1.207,2.844l.016.578a4.418,4.418,0,0,1-1.086,3.121,4.209,4.209,0,0,1-5.832,0,4.5,4.5,0,0,1-1.09-3.187Zm2.258.16a3.16,3.16,0,0,0,.453,1.843,1.628,1.628,0,0,0,2.578.008,3.457,3.457,0,0,0,.461-2.015,3.128,3.128,0,0,0-.461-1.831,1.5,1.5,0,0,0-1.3-.649,1.474,1.474,0,0,0-1.281.646A3.516,3.516,0,0,0,57.2,34.856ZM73.219,39a2.507,2.507,0,0,1-.227-.758,2.732,2.732,0,0,1-2.133.914,3,3,0,0,1-2.059-.719,2.312,2.312,0,0,1-.816-1.812,2.389,2.389,0,0,1,1-2.062,4.915,4.915,0,0,1,2.879-.727H72.9v-.484a1.393,1.393,0,0,0-.3-.937,1.183,1.183,0,0,0-.949-.352,1.345,1.345,0,0,0-.895.273.929.929,0,0,0-.324.75H68.172a2.268,2.268,0,0,1,.453-1.359,3,3,0,0,1,1.281-.98,4.669,4.669,0,0,1,1.859-.355,3.689,3.689,0,0,1,2.48.785,2.747,2.747,0,0,1,.918,2.207v3.664a4.041,4.041,0,0,0,.336,1.82V39Zm-1.867-1.57a1.945,1.945,0,0,0,.922-.223,1.462,1.462,0,0,0,.625-.6V35.156h-.844q-1.7,0-1.8,1.172l-.008.133a.9.9,0,0,0,.3.7A1.153,1.153,0,0,0,71.352,37.43ZM79.281,39H77.016V27h2.266Zm9.359-1.664a1.481,1.481,0,0,0,1.016-.344,1.2,1.2,0,0,0,.406-.914H92.18a2.9,2.9,0,0,1-.469,1.574,3.093,3.093,0,0,1-1.262,1.109,3.949,3.949,0,0,1-1.77.395A3.67,3.67,0,0,1,85.82,38a4.56,4.56,0,0,1-1.047-3.184v-.148a4.508,4.508,0,0,1,1.039-3.117,3.627,3.627,0,0,1,2.852-1.164,3.555,3.555,0,0,1,2.543.9,3.2,3.2,0,0,1,.973,2.4H90.063a1.551,1.551,0,0,0-.406-1.072,1.51,1.51,0,0,0-2.223.163,3.333,3.333,0,0,0-.4,1.866v.235a3.375,3.375,0,0,0,.4,1.878A1.377,1.377,0,0,0,88.641,37.336ZM95.852,39H93.586V27h2.266Zm4.242,0H97.828V30.547h2.266ZM97.7,28.359a1.112,1.112,0,0,1,.34-.836,1.465,1.465,0,0,1,1.848,0,1.193,1.193,0,0,1,0,1.68,1.448,1.448,0,0,1-1.836,0A1.108,1.108,0,0,1,97.7,28.359Zm8.148,10.8a4.15,4.15,0,0,1-3.027-1.141,4.054,4.054,0,0,1-1.168-3.039v-.219a5.106,5.106,0,0,1,.492-2.277,3.612,3.612,0,0,1,1.395-1.547,3.914,3.914,0,0,1,2.059-.543,3.508,3.508,0,0,1,2.73,1.094,4.444,4.444,0,0,1,1,3.1v.922h-5.383a2.1,2.1,0,0,0,.66,1.328,2,2,0,0,0,1.395.5,2.437,2.437,0,0,0,2.039-.945l1.109,1.242a3.389,3.389,0,0,1-1.375,1.121A4.511,4.511,0,0,1,105.844,39.156Zm-.258-6.945a1.411,1.411,0,0,0-1.09.455,2.357,2.357,0,0,0-.535,1.3H107.1v-.181a1.681,1.681,0,0,0-.406-1.165A1.456,1.456,0,0,0,105.586,32.211Zm7.094-1.664.07.977a2.951,2.951,0,0,1,2.43-1.133,2.453,2.453,0,0,1,2,.789,3.682,3.682,0,0,1,.672,2.359V39h-2.258V33.581a1.47,1.47,0,0,0-.312-1.045,1.4,1.4,0,0,0-1.039-.325,1.553,1.553,0,0,0-1.43.814V39h-2.258V30.547Zm9.586-2.078v2.078h1.445V32.2h-1.445v4.219a1.007,1.007,0,0,0,.18.672.9.9,0,0,0,.688.2,3.6,3.6,0,0,0,.664-.055v1.711a4.648,4.648,0,0,1-1.367.2,2.156,2.156,0,0,1-2.422-2.4V32.2h-1.234V30.547h1.234V28.469Zm6.594,10.688a4.15,4.15,0,0,1-3.027-1.141,4.054,4.054,0,0,1-1.168-3.039v-.219a5.106,5.106,0,0,1,.492-2.277,3.612,3.612,0,0,1,1.395-1.547,3.914,3.914,0,0,1,2.059-.543,3.508,3.508,0,0,1,2.73,1.094,4.444,4.444,0,0,1,1,3.1v.922h-5.383a2.1,2.1,0,0,0,.66,1.328,2,2,0,0,0,1.395.5,2.437,2.437,0,0,0,2.039-.945l1.109,1.242a3.389,3.389,0,0,1-1.375,1.121A4.511,4.511,0,0,1,128.859,39.156Zm-.258-6.945a1.411,1.411,0,0,0-1.09.455,2.357,2.357,0,0,0-.535,1.3h3.141v-.181a1.681,1.681,0,0,0-.406-1.165A1.456,1.456,0,0,0,128.6,32.211Zm12.891,6.945a4.15,4.15,0,0,1-3.027-1.141,4.054,4.054,0,0,1-1.168-3.039v-.219a5.106,5.106,0,0,1,.492-2.277,3.612,3.612,0,0,1,1.395-1.547,3.914,3.914,0,0,1,2.059-.543,3.508,3.508,0,0,1,2.73,1.094,4.444,4.444,0,0,1,1,3.1v.922h-5.383a2.1,2.1,0,0,0,.66,1.328,2,2,0,0,0,1.395.5,2.437,2.437,0,0,0,2.039-.945l1.109,1.242a3.389,3.389,0,0,1-1.375,1.121A4.511,4.511,0,0,1,141.492,39.156Zm-.258-6.945a1.411,1.411,0,0,0-1.09.455,2.357,2.357,0,0,0-.535,1.3h3.141v-.181a1.681,1.681,0,0,0-.406-1.165A1.456,1.456,0,0,0,141.234,32.211Zm7.094-1.664.07.977a2.951,2.951,0,0,1,2.43-1.133,2.453,2.453,0,0,1,2,.789,3.682,3.682,0,0,1,.672,2.359V39h-2.258V33.581a1.47,1.47,0,0,0-.312-1.045,1.4,1.4,0,0,0-1.039-.325,1.553,1.553,0,0,0-1.43.814V39H146.2V30.547Zm-97.051,28.3a5.119,5.119,0,0,1-.867,3.168,2.872,2.872,0,0,1-2.422,1.137,2.639,2.639,0,0,1-2.2-1.055l-.1.9H43.66V51h2.258v4.3a2.571,2.571,0,0,1,2.055-.914A2.9,2.9,0,0,1,50.4,55.527a5.126,5.126,0,0,1,.879,3.2Zm-2.258-.172a3.381,3.381,0,0,0-.406-1.877,1.372,1.372,0,0,0-1.211-.592,1.489,1.489,0,0,0-1.484.885v3.346a1.509,1.509,0,0,0,1.5.893,1.4,1.4,0,0,0,1.438-1.081A5.6,5.6,0,0,0,49.02,58.679ZM55.051,63H52.785V54.547h2.266Zm-2.4-10.641a1.112,1.112,0,0,1,.34-.836,1.465,1.465,0,0,1,1.848,0,1.193,1.193,0,0,1,0,1.68A1.448,1.448,0,0,1,53,53.2,1.108,1.108,0,0,1,52.652,52.359Zm11.875,6.492a5.119,5.119,0,0,1-.867,3.168,2.872,2.872,0,0,1-2.422,1.137,2.639,2.639,0,0,1-2.2-1.055l-.1.9H56.91V51h2.258v4.3a2.571,2.571,0,0,1,2.055-.914,2.9,2.9,0,0,1,2.426,1.137,5.126,5.126,0,0,1,.879,3.2Zm-2.258-.172a3.381,3.381,0,0,0-.406-1.877,1.372,1.372,0,0,0-1.211-.592,1.489,1.489,0,0,0-1.484.885v3.346a1.509,1.509,0,0,0,1.5.893,1.4,1.4,0,0,0,1.438-1.081A5.6,5.6,0,0,0,62.27,58.679ZM68.3,63H66.035V51H68.3Zm4.242,0H70.277V54.547h2.266Zm-2.4-10.641a1.112,1.112,0,0,1,.34-.836,1.465,1.465,0,0,1,1.848,0,1.193,1.193,0,0,1,0,1.68,1.448,1.448,0,0,1-1.836,0A1.108,1.108,0,0,1,70.145,52.359ZM74.051,58.7a5.013,5.013,0,0,1,.484-2.242A3.546,3.546,0,0,1,75.93,54.93a4.069,4.069,0,0,1,2.113-.539,3.849,3.849,0,0,1,2.793,1.047,4.2,4.2,0,0,1,1.207,2.844l.016.578a4.418,4.418,0,0,1-1.086,3.121,4.209,4.209,0,0,1-5.832,0,4.5,4.5,0,0,1-1.09-3.187Zm2.258.16a3.16,3.16,0,0,0,.453,1.843,1.628,1.628,0,0,0,2.578.008,3.457,3.457,0,0,0,.461-2.015,3.128,3.128,0,0,0-.461-1.831,1.5,1.5,0,0,0-1.3-.649,1.474,1.474,0,0,0-1.281.646A3.516,3.516,0,0,0,76.309,58.856Zm9.844-6.387v2.078H87.6V56.2H86.152v4.219a1.007,1.007,0,0,0,.18.672.9.9,0,0,0,.688.2,3.6,3.6,0,0,0,.664-.055v1.711a4.648,4.648,0,0,1-1.367.2,2.156,2.156,0,0,1-2.422-2.4V56.2H82.66V54.547h1.234V52.469Zm6.594,10.688a4.15,4.15,0,0,1-3.027-1.141,4.054,4.054,0,0,1-1.168-3.039v-.219a5.106,5.106,0,0,1,.492-2.277,3.612,3.612,0,0,1,1.395-1.547,3.914,3.914,0,0,1,2.059-.543,3.508,3.508,0,0,1,2.73,1.094,4.444,4.444,0,0,1,1,3.1v.922H90.84a2.1,2.1,0,0,0,.66,1.328,2,2,0,0,0,1.395.5,2.437,2.437,0,0,0,2.039-.945l1.109,1.242a3.389,3.389,0,0,1-1.375,1.121A4.511,4.511,0,0,1,92.746,63.156Zm-.258-6.945a1.411,1.411,0,0,0-1.09.455,2.357,2.357,0,0,0-.535,1.3H94v-.181a1.681,1.681,0,0,0-.406-1.165A1.456,1.456,0,0,0,92.488,56.211Zm8.531,5.125a1.481,1.481,0,0,0,1.016-.344,1.2,1.2,0,0,0,.406-.914h2.117a2.9,2.9,0,0,1-.469,1.574,3.093,3.093,0,0,1-1.262,1.109,3.949,3.949,0,0,1-1.77.395A3.67,3.67,0,0,1,98.2,62a4.56,4.56,0,0,1-1.047-3.184v-.148a4.508,4.508,0,0,1,1.039-3.117,3.627,3.627,0,0,1,2.852-1.164,3.555,3.555,0,0,1,2.543.9,3.2,3.2,0,0,1,.973,2.4h-2.117a1.551,1.551,0,0,0-.406-1.072,1.51,1.51,0,0,0-2.223.163,3.333,3.333,0,0,0-.4,1.866v.235a3.375,3.375,0,0,0,.4,1.878A1.377,1.377,0,0,0,101.02,61.336ZM110.746,63a2.507,2.507,0,0,1-.227-.758,2.732,2.732,0,0,1-2.133.914,3,3,0,0,1-2.059-.719,2.312,2.312,0,0,1-.816-1.812,2.389,2.389,0,0,1,1-2.062,4.915,4.915,0,0,1,2.879-.727h1.039v-.484a1.393,1.393,0,0,0-.3-.937,1.183,1.183,0,0,0-.949-.352,1.345,1.345,0,0,0-.895.273.929.929,0,0,0-.324.75H105.7a2.268,2.268,0,0,1,.453-1.359,3,3,0,0,1,1.281-.98,4.669,4.669,0,0,1,1.859-.355,3.689,3.689,0,0,1,2.48.785,2.747,2.747,0,0,1,.918,2.207v3.664a4.041,4.041,0,0,0,.336,1.82V63Zm-1.867-1.57a1.945,1.945,0,0,0,.922-.223,1.462,1.462,0,0,0,.625-.6V59.156h-.844q-1.7,0-1.8,1.172l-.008.133a.9.9,0,0,0,.3.7A1.153,1.153,0,0,0,108.879,61.43Zm5.664.461a1.137,1.137,0,0,1,.363-.875,1.412,1.412,0,0,1,1.828,0,1.137,1.137,0,0,1,.363.875,1.121,1.121,0,0,1-.359.863,1.435,1.435,0,0,1-1.836,0A1.121,1.121,0,0,1,114.543,61.891Z" transform="translate(-8755 -5038.871)" fill="#fff"/>
    <path id="Trazado_156231" data-name="Trazado 156231" d="M39.191,10.992V15H36.848V3.625h4.438a5.134,5.134,0,0,1,2.254.469,3.454,3.454,0,0,1,1.5,1.332,3.714,3.714,0,0,1,.523,1.965,3.266,3.266,0,0,1-1.145,2.637,4.767,4.767,0,0,1-3.168.965Zm0-1.9h2.094A2.059,2.059,0,0,0,42.7,8.656a1.591,1.591,0,0,0,.488-1.25A1.876,1.876,0,0,0,42.7,6.055a1.839,1.839,0,0,0-1.359-.531H39.191Zm11.617,6.063a4.15,4.15,0,0,1-3.027-1.141,4.054,4.054,0,0,1-1.168-3.039v-.219a5.106,5.106,0,0,1,.492-2.277A3.612,3.612,0,0,1,48.5,6.934a3.914,3.914,0,0,1,2.059-.543,3.508,3.508,0,0,1,2.73,1.094,4.444,4.444,0,0,1,1,3.1v.922H48.9a2.1,2.1,0,0,0,.66,1.328,2,2,0,0,0,1.395.5A2.437,2.437,0,0,0,53,12.391l1.109,1.242a3.389,3.389,0,0,1-1.375,1.121A4.511,4.511,0,0,1,50.809,15.156Zm-.258-6.945a1.411,1.411,0,0,0-1.09.455,2.357,2.357,0,0,0-.535,1.3h3.141V9.788a1.681,1.681,0,0,0-.406-1.165A1.456,1.456,0,0,0,50.551,8.211Zm9.766.453A6.134,6.134,0,0,0,59.5,8.6a1.654,1.654,0,0,0-1.68.867V15H55.566V6.547H57.7l.063,1.008a2.092,2.092,0,0,1,1.883-1.164,2.366,2.366,0,0,1,.7.1Zm5.664,4a.727.727,0,0,0-.41-.652,4.659,4.659,0,0,0-1.316-.426q-3.016-.633-3.016-2.562a2.323,2.323,0,0,1,.934-1.879,3.766,3.766,0,0,1,2.441-.754,4.053,4.053,0,0,1,2.574.758,2.388,2.388,0,0,1,.965,1.969H65.895a1.092,1.092,0,0,0-.312-.8A1.322,1.322,0,0,0,64.605,8a1.351,1.351,0,0,0-.883.258.814.814,0,0,0-.312.656.7.7,0,0,0,.355.605,3.657,3.657,0,0,0,1.2.4,9.8,9.8,0,0,1,1.422.379,2.336,2.336,0,0,1,1.789,2.273,2.2,2.2,0,0,1-.992,1.871,4.28,4.28,0,0,1-2.562.715,4.47,4.47,0,0,1-1.887-.379,3.166,3.166,0,0,1-1.293-1.039,2.414,2.414,0,0,1-.469-1.426h2.141a1.179,1.179,0,0,0,.445.922,1.766,1.766,0,0,0,1.109.32,1.635,1.635,0,0,0,.98-.246A.766.766,0,0,0,65.98,12.664Zm3.3-1.969a5.013,5.013,0,0,1,.484-2.242A3.546,3.546,0,0,1,71.156,6.93a4.069,4.069,0,0,1,2.113-.539,3.849,3.849,0,0,1,2.793,1.047,4.2,4.2,0,0,1,1.207,2.844l.016.578A4.418,4.418,0,0,1,76.2,13.98a4.209,4.209,0,0,1-5.832,0,4.5,4.5,0,0,1-1.09-3.187Zm2.258.16a3.16,3.16,0,0,0,.453,1.843,1.628,1.628,0,0,0,2.578.008,3.457,3.457,0,0,0,.461-2.015,3.128,3.128,0,0,0-.461-1.831,1.5,1.5,0,0,0-1.3-.649,1.474,1.474,0,0,0-1.281.646A3.516,3.516,0,0,0,71.535,10.856Zm9.219-4.309.07.977a2.951,2.951,0,0,1,2.43-1.133,2.453,2.453,0,0,1,2,.789,3.682,3.682,0,0,1,.672,2.359V15H83.668V9.581a1.47,1.47,0,0,0-.312-1.045,1.4,1.4,0,0,0-1.039-.325,1.553,1.553,0,0,0-1.43.814V15H78.629V6.547ZM92.535,15a2.507,2.507,0,0,1-.227-.758,2.732,2.732,0,0,1-2.133.914,3,3,0,0,1-2.059-.719,2.312,2.312,0,0,1-.816-1.812,2.389,2.389,0,0,1,1-2.062,4.915,4.915,0,0,1,2.879-.727h1.039V9.352a1.393,1.393,0,0,0-.3-.937,1.183,1.183,0,0,0-.949-.352,1.345,1.345,0,0,0-.895.273.929.929,0,0,0-.324.75H87.488a2.268,2.268,0,0,1,.453-1.359,3,3,0,0,1,1.281-.98,4.669,4.669,0,0,1,1.859-.355,3.689,3.689,0,0,1,2.48.785,2.747,2.747,0,0,1,.918,2.207v3.664a4.041,4.041,0,0,0,.336,1.82V15Zm-1.867-1.57a1.945,1.945,0,0,0,.922-.223,1.462,1.462,0,0,0,.625-.6V11.156h-.844q-1.7,0-1.8,1.172l-.008.133a.9.9,0,0,0,.3.7A1.153,1.153,0,0,0,90.668,13.43Zm10.125-.766a.727.727,0,0,0-.41-.652,4.659,4.659,0,0,0-1.316-.426q-3.016-.633-3.016-2.562a2.323,2.323,0,0,1,.934-1.879,3.766,3.766,0,0,1,2.441-.754A4.053,4.053,0,0,1,102,7.148a2.388,2.388,0,0,1,.965,1.969h-2.258a1.092,1.092,0,0,0-.312-.8A1.322,1.322,0,0,0,99.418,8a1.351,1.351,0,0,0-.883.258.814.814,0,0,0-.312.656.7.7,0,0,0,.355.605,3.657,3.657,0,0,0,1.2.4,9.8,9.8,0,0,1,1.422.379,2.336,2.336,0,0,1,1.789,2.273A2.2,2.2,0,0,1,102,14.441a4.28,4.28,0,0,1-2.562.715,4.47,4.47,0,0,1-1.887-.379,3.166,3.166,0,0,1-1.293-1.039,2.414,2.414,0,0,1-.469-1.426h2.141a1.179,1.179,0,0,0,.445.922,1.766,1.766,0,0,0,1.109.32,1.635,1.635,0,0,0,.98-.246A.766.766,0,0,0,100.793,12.664Zm11.523,2.492a4.15,4.15,0,0,1-3.027-1.141,4.054,4.054,0,0,1-1.168-3.039v-.219a5.106,5.106,0,0,1,.492-2.277,3.612,3.612,0,0,1,1.395-1.547,3.914,3.914,0,0,1,2.059-.543,3.508,3.508,0,0,1,2.73,1.094,4.444,4.444,0,0,1,1,3.1v.922H110.41a2.1,2.1,0,0,0,.66,1.328,2,2,0,0,0,1.395.5,2.437,2.437,0,0,0,2.039-.945l1.109,1.242a3.389,3.389,0,0,1-1.375,1.121A4.511,4.511,0,0,1,112.316,15.156Zm-.258-6.945a1.411,1.411,0,0,0-1.09.455,2.357,2.357,0,0,0-.535,1.3h3.141V9.788a1.681,1.681,0,0,0-.406-1.165A1.456,1.456,0,0,0,112.059,8.211Zm7.094-1.664.07.977a2.951,2.951,0,0,1,2.43-1.133,2.453,2.453,0,0,1,2,.789,3.682,3.682,0,0,1,.672,2.359V15h-2.258V9.581a1.47,1.47,0,0,0-.312-1.045,1.4,1.4,0,0,0-1.039-.325,1.553,1.553,0,0,0-1.43.814V15h-2.258V6.547Zm-83.426,28.3a5.119,5.119,0,0,1-.867,3.168,2.872,2.872,0,0,1-2.422,1.137,2.639,2.639,0,0,1-2.2-1.055l-.1.9H28.109V27h2.258v4.3a2.571,2.571,0,0,1,2.055-.914,2.9,2.9,0,0,1,2.426,1.137,5.126,5.126,0,0,1,.879,3.2Zm-2.258-.172a3.381,3.381,0,0,0-.406-1.877,1.372,1.372,0,0,0-1.211-.592,1.489,1.489,0,0,0-1.484.885v3.346a1.509,1.509,0,0,0,1.5.893A1.4,1.4,0,0,0,33.3,36.255,5.6,5.6,0,0,0,33.469,34.679ZM39.5,39H37.234V30.547H39.5ZM37.1,28.359a1.112,1.112,0,0,1,.34-.836,1.465,1.465,0,0,1,1.848,0,1.193,1.193,0,0,1,0,1.68,1.448,1.448,0,0,1-1.836,0A1.108,1.108,0,0,1,37.1,28.359Zm11.875,6.492a5.119,5.119,0,0,1-.867,3.168,2.872,2.872,0,0,1-2.422,1.137,2.639,2.639,0,0,1-2.2-1.055l-.1.9H41.359V27h2.258v4.3a2.571,2.571,0,0,1,2.055-.914A2.9,2.9,0,0,1,48.1,31.527a5.126,5.126,0,0,1,.879,3.2Zm-2.258-.172a3.381,3.381,0,0,0-.406-1.877,1.372,1.372,0,0,0-1.211-.592,1.489,1.489,0,0,0-1.484.885v3.346a1.509,1.509,0,0,0,1.5.893,1.4,1.4,0,0,0,1.438-1.081A5.6,5.6,0,0,0,46.719,34.679ZM52.75,39H50.484V27H52.75Zm4.242,0H54.727V30.547h2.266Zm-2.4-10.641a1.112,1.112,0,0,1,.34-.836,1.465,1.465,0,0,1,1.848,0,1.193,1.193,0,0,1,0,1.68,1.448,1.448,0,0,1-1.836,0A1.108,1.108,0,0,1,54.594,28.359ZM58.5,34.7a5.013,5.013,0,0,1,.484-2.242,3.546,3.546,0,0,1,1.395-1.523,4.069,4.069,0,0,1,2.113-.539,3.849,3.849,0,0,1,2.793,1.047,4.2,4.2,0,0,1,1.207,2.844l.016.578a4.418,4.418,0,0,1-1.086,3.121,4.209,4.209,0,0,1-5.832,0A4.5,4.5,0,0,1,58.5,34.8Zm2.258.16a3.16,3.16,0,0,0,.453,1.843,1.628,1.628,0,0,0,2.578.008,3.457,3.457,0,0,0,.461-2.015,3.128,3.128,0,0,0-.461-1.831,1.5,1.5,0,0,0-1.3-.649,1.474,1.474,0,0,0-1.281.646A3.516,3.516,0,0,0,60.758,34.856ZM70.6,28.469v2.078h1.445V32.2H70.6v4.219a1.007,1.007,0,0,0,.18.672.9.9,0,0,0,.688.2,3.6,3.6,0,0,0,.664-.055v1.711a4.648,4.648,0,0,1-1.367.2,2.156,2.156,0,0,1-2.422-2.4V32.2H67.109V30.547h1.234V28.469ZM77.2,39.156a4.15,4.15,0,0,1-3.027-1.141A4.054,4.054,0,0,1,73,34.977v-.219a5.106,5.106,0,0,1,.492-2.277,3.612,3.612,0,0,1,1.395-1.547,3.914,3.914,0,0,1,2.059-.543,3.508,3.508,0,0,1,2.73,1.094,4.444,4.444,0,0,1,1,3.1v.922H75.289a2.1,2.1,0,0,0,.66,1.328,2,2,0,0,0,1.395.5,2.437,2.437,0,0,0,2.039-.945l1.109,1.242a3.389,3.389,0,0,1-1.375,1.121A4.511,4.511,0,0,1,77.2,39.156Zm-.258-6.945a1.411,1.411,0,0,0-1.09.455,2.357,2.357,0,0,0-.535,1.3h3.141v-.181a1.681,1.681,0,0,0-.406-1.165A1.456,1.456,0,0,0,76.938,32.211Zm8.531,5.125a1.481,1.481,0,0,0,1.016-.344,1.2,1.2,0,0,0,.406-.914h2.117a2.9,2.9,0,0,1-.469,1.574,3.093,3.093,0,0,1-1.262,1.109,3.949,3.949,0,0,1-1.77.395A3.67,3.67,0,0,1,82.648,38,4.56,4.56,0,0,1,81.6,34.82v-.148a4.508,4.508,0,0,1,1.039-3.117,3.627,3.627,0,0,1,2.852-1.164,3.555,3.555,0,0,1,2.543.9,3.2,3.2,0,0,1,.973,2.4H86.891a1.551,1.551,0,0,0-.406-1.072,1.51,1.51,0,0,0-2.223.163,3.333,3.333,0,0,0-.4,1.866v.235a3.375,3.375,0,0,0,.4,1.878A1.377,1.377,0,0,0,85.469,37.336ZM95.2,39a2.507,2.507,0,0,1-.227-.758,2.732,2.732,0,0,1-2.133.914,3,3,0,0,1-2.059-.719,2.312,2.312,0,0,1-.816-1.812,2.389,2.389,0,0,1,1-2.062,4.915,4.915,0,0,1,2.879-.727h1.039v-.484a1.393,1.393,0,0,0-.3-.937,1.183,1.183,0,0,0-.949-.352,1.345,1.345,0,0,0-.895.273.929.929,0,0,0-.324.75H90.148a2.268,2.268,0,0,1,.453-1.359,3,3,0,0,1,1.281-.98,4.669,4.669,0,0,1,1.859-.355,3.689,3.689,0,0,1,2.48.785,2.747,2.747,0,0,1,.918,2.207v3.664a4.041,4.041,0,0,0,.336,1.82V39Zm-1.867-1.57a1.945,1.945,0,0,0,.922-.223,1.462,1.462,0,0,0,.625-.6V35.156h-.844q-1.7,0-1.8,1.172l-.008.133a.9.9,0,0,0,.3.7A1.153,1.153,0,0,0,93.328,37.43Zm17.141-2.578a5.07,5.07,0,0,1-.887,3.129,2.843,2.843,0,0,1-2.395,1.176,2.633,2.633,0,0,1-2.07-.891V42.25h-2.258v-11.7h2.094l.078.828a2.654,2.654,0,0,1,2.141-.984,2.862,2.862,0,0,1,2.43,1.156,5.207,5.207,0,0,1,.867,3.188Zm-2.258-.172a3.345,3.345,0,0,0-.418-1.826,1.36,1.36,0,0,0-1.215-.643,1.478,1.478,0,0,0-1.461.815V36.5a1.5,1.5,0,0,0,1.477.839Q108.211,37.336,108.211,34.679ZM116.766,39a2.507,2.507,0,0,1-.227-.758,2.732,2.732,0,0,1-2.133.914,3,3,0,0,1-2.059-.719,2.312,2.312,0,0,1-.816-1.812,2.389,2.389,0,0,1,1-2.062,4.915,4.915,0,0,1,2.879-.727h1.039v-.484a1.393,1.393,0,0,0-.3-.937,1.183,1.183,0,0,0-.949-.352,1.345,1.345,0,0,0-.895.273.929.929,0,0,0-.324.75h-2.258a2.268,2.268,0,0,1,.453-1.359,3,3,0,0,1,1.281-.98,4.669,4.669,0,0,1,1.859-.355,3.689,3.689,0,0,1,2.48.785,2.747,2.747,0,0,1,.918,2.207v3.664a4.041,4.041,0,0,0,.336,1.82V39ZM114.9,37.43a1.945,1.945,0,0,0,.922-.223,1.462,1.462,0,0,0,.625-.6V35.156H115.6q-1.7,0-1.8,1.172l-.008.133a.9.9,0,0,0,.3.7A1.153,1.153,0,0,0,114.9,37.43Zm10.3-4.766a6.134,6.134,0,0,0-.812-.062,1.654,1.654,0,0,0-1.68.867V39h-2.258V30.547h2.133l.063,1.008a2.092,2.092,0,0,1,1.883-1.164,2.366,2.366,0,0,1,.7.1ZM130.945,39a2.507,2.507,0,0,1-.227-.758,2.732,2.732,0,0,1-2.133.914,3,3,0,0,1-2.059-.719,2.312,2.312,0,0,1-.816-1.812,2.389,2.389,0,0,1,1-2.062,4.915,4.915,0,0,1,2.879-.727h1.039v-.484a1.393,1.393,0,0,0-.3-.937,1.183,1.183,0,0,0-.949-.352,1.345,1.345,0,0,0-.895.273.929.929,0,0,0-.324.75H125.9a2.268,2.268,0,0,1,.453-1.359,3,3,0,0,1,1.281-.98,4.669,4.669,0,0,1,1.859-.355,3.689,3.689,0,0,1,2.48.785,2.747,2.747,0,0,1,.918,2.207v3.664a4.041,4.041,0,0,0,.336,1.82V39Zm-1.867-1.57a1.945,1.945,0,0,0,.922-.223,1.462,1.462,0,0,0,.625-.6V35.156h-.844q-1.7,0-1.8,1.172l-.008.133a.9.9,0,0,0,.3.7A1.153,1.153,0,0,0,129.078,37.43ZM27.836,58.852a5.119,5.119,0,0,1-.867,3.168,2.872,2.872,0,0,1-2.422,1.137,2.639,2.639,0,0,1-2.2-1.055l-.1.9H20.219V51h2.258v4.3a2.571,2.571,0,0,1,2.055-.914,2.9,2.9,0,0,1,2.426,1.137,5.126,5.126,0,0,1,.879,3.2Zm-2.258-.172a3.381,3.381,0,0,0-.406-1.877,1.372,1.372,0,0,0-1.211-.592,1.489,1.489,0,0,0-1.484.885v3.346a1.509,1.509,0,0,0,1.5.893,1.4,1.4,0,0,0,1.438-1.081A5.6,5.6,0,0,0,25.578,58.679Zm8.4-2.015a6.134,6.134,0,0,0-.812-.062,1.654,1.654,0,0,0-1.68.867V63H29.227V54.547h2.133l.063,1.008A2.092,2.092,0,0,1,33.3,54.391a2.366,2.366,0,0,1,.7.1ZM37.445,63H35.18V54.547h2.266Zm-2.4-10.641a1.112,1.112,0,0,1,.34-.836,1.465,1.465,0,0,1,1.848,0,1.193,1.193,0,0,1,0,1.68,1.448,1.448,0,0,1-1.836,0A1.108,1.108,0,0,1,35.047,52.359Zm6.336,2.188.07.977a2.951,2.951,0,0,1,2.43-1.133,2.453,2.453,0,0,1,2,.789,3.682,3.682,0,0,1,.672,2.359V63H44.3V57.581a1.47,1.47,0,0,0-.312-1.045,1.4,1.4,0,0,0-1.039-.325,1.553,1.553,0,0,0-1.43.814V63H39.258V54.547Zm6.531,4.164a5.094,5.094,0,0,1,.887-3.148,2.877,2.877,0,0,1,2.426-1.172,2.589,2.589,0,0,1,2.039.922V51h2.266V63H53.492l-.109-.9a2.657,2.657,0,0,1-2.172,1.055,2.869,2.869,0,0,1-2.395-1.176A5.258,5.258,0,0,1,47.914,58.711Zm2.258.161a3.355,3.355,0,0,0,.414,1.829,1.348,1.348,0,0,0,1.2.636,1.51,1.51,0,0,0,1.477-.887V57.1a1.489,1.489,0,0,0-1.461-.887Q50.172,56.211,50.172,58.872ZM62.18,63a2.507,2.507,0,0,1-.227-.758,2.732,2.732,0,0,1-2.133.914,3,3,0,0,1-2.059-.719,2.312,2.312,0,0,1-.816-1.812,2.389,2.389,0,0,1,1-2.062,4.915,4.915,0,0,1,2.879-.727h1.039v-.484a1.393,1.393,0,0,0-.3-.937,1.183,1.183,0,0,0-.949-.352,1.345,1.345,0,0,0-.895.273.929.929,0,0,0-.324.75H57.133a2.268,2.268,0,0,1,.453-1.359,3,3,0,0,1,1.281-.98,4.669,4.669,0,0,1,1.859-.355,3.689,3.689,0,0,1,2.48.785,2.747,2.747,0,0,1,.918,2.207v3.664a4.041,4.041,0,0,0,.336,1.82V63Zm-1.867-1.57a1.945,1.945,0,0,0,.922-.223,1.462,1.462,0,0,0,.625-.6V59.156h-.844q-1.7,0-1.8,1.172l-.008.133a.9.9,0,0,0,.3.7A1.153,1.153,0,0,0,60.313,61.43Zm10.3-4.766A6.134,6.134,0,0,0,69.8,56.6a1.654,1.654,0,0,0-1.68.867V63H65.859V54.547h2.133l.063,1.008a2.092,2.092,0,0,1,1.883-1.164,2.366,2.366,0,0,1,.7.1ZM80.578,63a2.507,2.507,0,0,1-.227-.758,2.732,2.732,0,0,1-2.133.914,3,3,0,0,1-2.059-.719,2.312,2.312,0,0,1-.816-1.812,2.389,2.389,0,0,1,1-2.062,4.915,4.915,0,0,1,2.879-.727h1.039v-.484a1.393,1.393,0,0,0-.3-.937,1.183,1.183,0,0,0-.949-.352,1.345,1.345,0,0,0-.895.273.929.929,0,0,0-.324.75H75.531a2.268,2.268,0,0,1,.453-1.359,3,3,0,0,1,1.281-.98,4.669,4.669,0,0,1,1.859-.355,3.689,3.689,0,0,1,2.48.785,2.747,2.747,0,0,1,.918,2.207v3.664a4.041,4.041,0,0,0,.336,1.82V63Zm-1.867-1.57a1.945,1.945,0,0,0,.922-.223,1.462,1.462,0,0,0,.625-.6V59.156h-.844q-1.7,0-1.8,1.172l-.008.133a.9.9,0,0,0,.3.7A1.153,1.153,0,0,0,78.711,61.43Zm8.25-8.961v2.078h1.445V56.2H86.961v4.219a1.007,1.007,0,0,0,.18.672.9.9,0,0,0,.688.2,3.6,3.6,0,0,0,.664-.055v1.711a4.648,4.648,0,0,1-1.367.2,2.156,2.156,0,0,1-2.422-2.4V56.2H83.469V54.547H84.7V52.469Zm6.594,10.688a4.15,4.15,0,0,1-3.027-1.141,4.054,4.054,0,0,1-1.168-3.039v-.219a5.106,5.106,0,0,1,.492-2.277,3.612,3.612,0,0,1,1.395-1.547,3.914,3.914,0,0,1,2.059-.543,3.508,3.508,0,0,1,2.73,1.094,4.444,4.444,0,0,1,1,3.1v.922H91.648a2.1,2.1,0,0,0,.66,1.328,2,2,0,0,0,1.395.5,2.437,2.437,0,0,0,2.039-.945l1.109,1.242a3.389,3.389,0,0,1-1.375,1.121A4.511,4.511,0,0,1,93.555,63.156ZM93.3,56.211a1.411,1.411,0,0,0-1.09.455,2.357,2.357,0,0,0-.535,1.3h3.141v-.181a1.681,1.681,0,0,0-.406-1.165A1.456,1.456,0,0,0,93.3,56.211Zm7.094-1.664.07.977a2.951,2.951,0,0,1,2.43-1.133,2.453,2.453,0,0,1,2,.789,3.682,3.682,0,0,1,.672,2.359V63H103.3V57.581a1.47,1.47,0,0,0-.312-1.045,1.4,1.4,0,0,0-1.039-.325,1.553,1.553,0,0,0-1.43.814V63H98.266V54.547Zm10.4,6.789a1.481,1.481,0,0,0,1.016-.344,1.2,1.2,0,0,0,.406-.914h2.117a2.9,2.9,0,0,1-.469,1.574,3.093,3.093,0,0,1-1.262,1.109,3.949,3.949,0,0,1-1.77.395A3.67,3.67,0,0,1,107.969,62a4.56,4.56,0,0,1-1.047-3.184v-.148a4.508,4.508,0,0,1,1.039-3.117,3.627,3.627,0,0,1,2.852-1.164,3.555,3.555,0,0,1,2.543.9,3.2,3.2,0,0,1,.973,2.4h-2.117a1.551,1.551,0,0,0-.406-1.072,1.51,1.51,0,0,0-2.223.163,3.333,3.333,0,0,0-.4,1.866v.235a3.375,3.375,0,0,0,.4,1.878A1.377,1.377,0,0,0,110.789,61.336ZM118,63h-2.266V54.547H118Zm-2.4-10.641a1.112,1.112,0,0,1,.34-.836,1.465,1.465,0,0,1,1.848,0,1.193,1.193,0,0,1,0,1.68,1.448,1.448,0,0,1-1.836,0A1.108,1.108,0,0,1,115.6,52.359Zm3.906,6.336a5.013,5.013,0,0,1,.484-2.242,3.546,3.546,0,0,1,1.395-1.523,4.069,4.069,0,0,1,2.113-.539,3.849,3.849,0,0,1,2.793,1.047,4.2,4.2,0,0,1,1.207,2.844l.016.578a4.418,4.418,0,0,1-1.086,3.121,4.209,4.209,0,0,1-5.832,0,4.5,4.5,0,0,1-1.09-3.187Zm2.258.16a3.16,3.16,0,0,0,.453,1.843,1.628,1.628,0,0,0,2.578.008,3.457,3.457,0,0,0,.461-2.015,3.128,3.128,0,0,0-.461-1.831,1.5,1.5,0,0,0-1.3-.649,1.474,1.474,0,0,0-1.281.646A3.516,3.516,0,0,0,121.766,58.856ZM123.945,51h2.461l-2.164,2.422h-1.836Zm7.039,3.547.07.977a2.951,2.951,0,0,1,2.43-1.133,2.453,2.453,0,0,1,2,.789,3.682,3.682,0,0,1,.672,2.359V63H133.9V57.581a1.47,1.47,0,0,0-.312-1.045,1.4,1.4,0,0,0-1.039-.325,1.553,1.553,0,0,0-1.43.814V63h-2.258V54.547Zm7,7.344a1.137,1.137,0,0,1,.363-.875,1.412,1.412,0,0,1,1.828,0,1.137,1.137,0,0,1,.363.875,1.121,1.121,0,0,1-.359.863,1.435,1.435,0,0,1-1.836,0A1.121,1.121,0,0,1,137.984,61.891Z" transform="translate(-8554 -4776.871)" fill="#fff"/>
    <path id="Trazado_156232" data-name="Trazado 156232" d="M44.277,5.523H40.793V15H38.449V5.523H35.012v-1.9h9.266Zm4.383,9.633a4.15,4.15,0,0,1-3.027-1.141,4.054,4.054,0,0,1-1.168-3.039v-.219a5.106,5.106,0,0,1,.492-2.277,3.612,3.612,0,0,1,1.395-1.547,3.914,3.914,0,0,1,2.059-.543,3.508,3.508,0,0,1,2.73,1.094,4.444,4.444,0,0,1,1,3.1v.922H46.754a2.1,2.1,0,0,0,.66,1.328,2,2,0,0,0,1.395.5,2.437,2.437,0,0,0,2.039-.945l1.109,1.242a3.389,3.389,0,0,1-1.375,1.121A4.511,4.511,0,0,1,48.66,15.156ZM48.4,8.211a1.411,1.411,0,0,0-1.09.455,2.357,2.357,0,0,0-.535,1.3h3.141V9.788a1.681,1.681,0,0,0-.406-1.165A1.456,1.456,0,0,0,48.4,8.211Zm8.531,5.125a1.481,1.481,0,0,0,1.016-.344,1.2,1.2,0,0,0,.406-.914h2.117A2.9,2.9,0,0,1,60,13.652a3.093,3.093,0,0,1-1.262,1.109,3.949,3.949,0,0,1-1.77.395A3.67,3.67,0,0,1,54.113,14a4.56,4.56,0,0,1-1.047-3.184v-.148a4.508,4.508,0,0,1,1.039-3.117,3.627,3.627,0,0,1,2.852-1.164,3.555,3.555,0,0,1,2.543.9,3.2,3.2,0,0,1,.973,2.4H58.355a1.551,1.551,0,0,0-.406-1.072,1.51,1.51,0,0,0-2.223.163,3.333,3.333,0,0,0-.4,1.866v.235a3.375,3.375,0,0,0,.4,1.878A1.377,1.377,0,0,0,56.934,13.336ZM63.84,6.547l.07.977a2.951,2.951,0,0,1,2.43-1.133,2.453,2.453,0,0,1,2,.789,3.682,3.682,0,0,1,.672,2.359V15H66.754V9.581a1.47,1.47,0,0,0-.312-1.045A1.4,1.4,0,0,0,65.4,8.211a1.553,1.553,0,0,0-1.43.814V15H61.715V6.547ZM70.371,10.7a5.013,5.013,0,0,1,.484-2.242A3.546,3.546,0,0,1,72.25,6.93a4.069,4.069,0,0,1,2.113-.539,3.849,3.849,0,0,1,2.793,1.047,4.2,4.2,0,0,1,1.207,2.844l.016.578a4.418,4.418,0,0,1-1.086,3.121,4.209,4.209,0,0,1-5.832,0,4.5,4.5,0,0,1-1.09-3.187Zm2.258.16a3.16,3.16,0,0,0,.453,1.843,1.628,1.628,0,0,0,2.578.008,3.457,3.457,0,0,0,.461-2.015A3.128,3.128,0,0,0,75.66,8.86a1.5,1.5,0,0,0-1.3-.649,1.474,1.474,0,0,0-1.281.646A3.516,3.516,0,0,0,72.629,10.856ZM82.152,15H79.887V3h2.266Zm1.508-4.3a5.013,5.013,0,0,1,.484-2.242A3.546,3.546,0,0,1,85.539,6.93a4.069,4.069,0,0,1,2.113-.539,3.849,3.849,0,0,1,2.793,1.047,4.2,4.2,0,0,1,1.207,2.844l.016.578a4.418,4.418,0,0,1-1.086,3.121,4.209,4.209,0,0,1-5.832,0A4.5,4.5,0,0,1,83.66,10.8Zm2.258.16a3.16,3.16,0,0,0,.453,1.843,1.628,1.628,0,0,0,2.578.008,3.457,3.457,0,0,0,.461-2.015,3.128,3.128,0,0,0-.461-1.831,1.5,1.5,0,0,0-1.3-.649,1.474,1.474,0,0,0-1.281.646A3.516,3.516,0,0,0,85.918,10.856Zm6.813-.145a4.954,4.954,0,0,1,.926-3.133,3,3,0,0,1,2.5-1.187,2.631,2.631,0,0,1,2.164.953l.094-.8h2.047v8.172a3.613,3.613,0,0,1-.5,1.93,3.236,3.236,0,0,1-1.418,1.25,4.985,4.985,0,0,1-2.141.43,4.635,4.635,0,0,1-1.812-.371A3.217,3.217,0,0,1,93.246,17l1-1.375a2.645,2.645,0,0,0,2.047.945,1.936,1.936,0,0,0,1.4-.48,1.8,1.8,0,0,0,.5-1.363v-.453a2.612,2.612,0,0,1-2.055.883,2.992,2.992,0,0,1-2.465-1.191,4.953,4.953,0,0,1-.941-3.16Zm2.258.161a3.1,3.1,0,0,0,.461,1.809,1.465,1.465,0,0,0,1.266.655,1.567,1.567,0,0,0,1.477-.777V8.988a1.563,1.563,0,0,0-1.461-.777,1.474,1.474,0,0,0-1.277.667A3.5,3.5,0,0,0,94.988,10.872ZM104.629,15h-2.258V6.547h2.258Zm-.664-11.883h2.461l-2.164,2.422h-1.836ZM111.473,15a2.507,2.507,0,0,1-.227-.758,2.732,2.732,0,0,1-2.133.914,3,3,0,0,1-2.059-.719,2.312,2.312,0,0,1-.816-1.812,2.389,2.389,0,0,1,1-2.062,4.915,4.915,0,0,1,2.879-.727h1.039V9.352a1.393,1.393,0,0,0-.3-.937,1.183,1.183,0,0,0-.949-.352,1.345,1.345,0,0,0-.895.273.929.929,0,0,0-.324.75h-2.258a2.268,2.268,0,0,1,.453-1.359,3,3,0,0,1,1.281-.98,4.669,4.669,0,0,1,1.859-.355,3.689,3.689,0,0,1,2.48.785,2.747,2.747,0,0,1,.918,2.207v3.664a4.041,4.041,0,0,0,.336,1.82V15Zm-1.867-1.57a1.945,1.945,0,0,0,.922-.223,1.462,1.462,0,0,0,.625-.6V11.156h-.844q-1.7,0-1.8,1.172l-.008.133a.9.9,0,0,0,.3.7A1.153,1.153,0,0,0,109.605,13.43ZM122.293,11.8l1.563-5.258h2.422l-3.4,9.766-.187.445a2.577,2.577,0,0,1-2.5,1.656,3.552,3.552,0,0,1-1-.148V16.555l.344.008a1.857,1.857,0,0,0,.957-.2,1.283,1.283,0,0,0,.5-.648l.266-.7-2.961-8.477h2.43ZM17.93,31.469a2.818,2.818,0,0,1,2.258-1.078q2.75,0,2.789,3.2V39H20.719V33.636a1.577,1.577,0,0,0-.312-1.077,1.338,1.338,0,0,0-1.039-.348,1.536,1.536,0,0,0-1.437.767V39H15.672V27H17.93ZM28.57,39.156a4.15,4.15,0,0,1-3.027-1.141,4.054,4.054,0,0,1-1.168-3.039v-.219a5.106,5.106,0,0,1,.492-2.277,3.612,3.612,0,0,1,1.395-1.547,3.914,3.914,0,0,1,2.059-.543,3.508,3.508,0,0,1,2.73,1.094,4.444,4.444,0,0,1,1,3.1v.922H26.664a2.1,2.1,0,0,0,.66,1.328,2,2,0,0,0,1.395.5,2.437,2.437,0,0,0,2.039-.945l1.109,1.242a3.389,3.389,0,0,1-1.375,1.121A4.511,4.511,0,0,1,28.57,39.156Zm-.258-6.945a1.411,1.411,0,0,0-1.09.455,2.357,2.357,0,0,0-.535,1.3h3.141v-.181a1.681,1.681,0,0,0-.406-1.165A1.456,1.456,0,0,0,28.313,32.211Zm9.766.453a6.134,6.134,0,0,0-.812-.062,1.654,1.654,0,0,0-1.68.867V39H33.328V30.547h2.133l.063,1.008a2.092,2.092,0,0,1,1.883-1.164,2.366,2.366,0,0,1,.7.1Zm5.836,0A6.134,6.134,0,0,0,43.1,32.6a1.654,1.654,0,0,0-1.68.867V39H39.164V30.547H41.3l.063,1.008a2.092,2.092,0,0,1,1.883-1.164,2.366,2.366,0,0,1,.7.1ZM49.664,39a2.507,2.507,0,0,1-.227-.758,2.732,2.732,0,0,1-2.133.914,3,3,0,0,1-2.059-.719,2.312,2.312,0,0,1-.816-1.812,2.389,2.389,0,0,1,1-2.062,4.915,4.915,0,0,1,2.879-.727h1.039v-.484a1.393,1.393,0,0,0-.3-.937,1.183,1.183,0,0,0-.949-.352,1.345,1.345,0,0,0-.895.273.929.929,0,0,0-.324.75H44.617a2.268,2.268,0,0,1,.453-1.359,3,3,0,0,1,1.281-.98,4.669,4.669,0,0,1,1.859-.355,3.689,3.689,0,0,1,2.48.785,2.747,2.747,0,0,1,.918,2.207v3.664a4.041,4.041,0,0,0,.336,1.82V39ZM47.8,37.43a1.945,1.945,0,0,0,.922-.223,1.462,1.462,0,0,0,.625-.6V35.156H48.5q-1.7,0-1.8,1.172l-.008.133a.9.9,0,0,0,.3.7A1.153,1.153,0,0,0,47.8,37.43Zm7.664-6.883.07.945a2.971,2.971,0,0,1,2.43-1.1A2.255,2.255,0,0,1,60.2,31.68a2.9,2.9,0,0,1,2.539-1.289,2.521,2.521,0,0,1,2.047.8,3.681,3.681,0,0,1,.672,2.41V39H63.2V33.6a1.616,1.616,0,0,0-.281-1.053,1.245,1.245,0,0,0-.992-.333,1.409,1.409,0,0,0-1.406.971L60.523,39H58.266V33.6a1.6,1.6,0,0,0-.289-1.065,1.257,1.257,0,0,0-.984-.329,1.463,1.463,0,0,0-1.391.8V39H53.344V30.547ZM69.578,39H67.313V30.547h2.266Zm-2.4-10.641a1.112,1.112,0,0,1,.34-.836,1.465,1.465,0,0,1,1.848,0,1.193,1.193,0,0,1,0,1.68,1.448,1.448,0,0,1-1.836,0A1.108,1.108,0,0,1,67.18,28.359Zm8.148,10.8A4.15,4.15,0,0,1,72.3,38.016a4.054,4.054,0,0,1-1.168-3.039v-.219a5.106,5.106,0,0,1,.492-2.277,3.612,3.612,0,0,1,1.395-1.547,3.914,3.914,0,0,1,2.059-.543,3.508,3.508,0,0,1,2.73,1.094,4.444,4.444,0,0,1,1,3.1v.922H73.422a2.1,2.1,0,0,0,.66,1.328,2,2,0,0,0,1.395.5,2.437,2.437,0,0,0,2.039-.945l1.109,1.242a3.389,3.389,0,0,1-1.375,1.121A4.511,4.511,0,0,1,75.328,39.156Zm-.258-6.945a1.411,1.411,0,0,0-1.09.455,2.357,2.357,0,0,0-.535,1.3h3.141v-.181a1.681,1.681,0,0,0-.406-1.165A1.456,1.456,0,0,0,75.07,32.211Zm7.094-1.664.07.977a2.951,2.951,0,0,1,2.43-1.133,2.453,2.453,0,0,1,2,.789,3.682,3.682,0,0,1,.672,2.359V39H85.078V33.581a1.47,1.47,0,0,0-.312-1.045,1.4,1.4,0,0,0-1.039-.325,1.553,1.553,0,0,0-1.43.814V39H80.039V30.547Zm9.586-2.078v2.078H93.2V32.2H91.75v4.219a1.007,1.007,0,0,0,.18.672.9.9,0,0,0,.688.2,3.6,3.6,0,0,0,.664-.055v1.711a4.648,4.648,0,0,1-1.367.2,2.156,2.156,0,0,1-2.422-2.4V32.2H88.258V30.547h1.234V28.469ZM99.352,39a2.507,2.507,0,0,1-.227-.758,2.732,2.732,0,0,1-2.133.914,3,3,0,0,1-2.059-.719,2.312,2.312,0,0,1-.816-1.812,2.389,2.389,0,0,1,1-2.062,4.915,4.915,0,0,1,2.879-.727h1.039v-.484a1.393,1.393,0,0,0-.3-.937,1.183,1.183,0,0,0-.949-.352,1.345,1.345,0,0,0-.895.273.929.929,0,0,0-.324.75H94.3a2.268,2.268,0,0,1,.453-1.359,3,3,0,0,1,1.281-.98,4.669,4.669,0,0,1,1.859-.355,3.689,3.689,0,0,1,2.48.785,2.747,2.747,0,0,1,.918,2.207v3.664a4.041,4.041,0,0,0,.336,1.82V39Zm-1.867-1.57a1.945,1.945,0,0,0,.922-.223,1.462,1.462,0,0,0,.625-.6V35.156h-.844q-1.7,0-1.8,1.172l-.008.133a.9.9,0,0,0,.3.7A1.153,1.153,0,0,0,97.484,37.43Zm10.125-.766a.727.727,0,0,0-.41-.652,4.659,4.659,0,0,0-1.316-.426q-3.016-.633-3.016-2.562a2.323,2.323,0,0,1,.934-1.879,3.766,3.766,0,0,1,2.441-.754,4.053,4.053,0,0,1,2.574.758,2.388,2.388,0,0,1,.965,1.969h-2.258a1.092,1.092,0,0,0-.312-.8,1.322,1.322,0,0,0-.977-.316,1.351,1.351,0,0,0-.883.258.814.814,0,0,0-.312.656.7.7,0,0,0,.355.605,3.657,3.657,0,0,0,1.2.4,9.8,9.8,0,0,1,1.422.379A2.336,2.336,0,0,1,109.8,36.57a2.2,2.2,0,0,1-.992,1.871,4.28,4.28,0,0,1-2.562.715,4.47,4.47,0,0,1-1.887-.379,3.166,3.166,0,0,1-1.293-1.039,2.414,2.414,0,0,1-.469-1.426h2.141a1.179,1.179,0,0,0,.445.922,1.766,1.766,0,0,0,1.109.32,1.635,1.635,0,0,0,.98-.246A.766.766,0,0,0,107.609,36.664Zm15.242-1.812a5.07,5.07,0,0,1-.887,3.129,2.843,2.843,0,0,1-2.395,1.176,2.633,2.633,0,0,1-2.07-.891V42.25h-2.258v-11.7h2.094l.078.828a2.654,2.654,0,0,1,2.141-.984,2.862,2.862,0,0,1,2.43,1.156,5.207,5.207,0,0,1,.867,3.188Zm-2.258-.172a3.345,3.345,0,0,0-.418-1.826,1.36,1.36,0,0,0-1.215-.643,1.478,1.478,0,0,0-1.461.815V36.5a1.5,1.5,0,0,0,1.477.839Q120.594,37.336,120.594,34.679ZM129.148,39a2.507,2.507,0,0,1-.227-.758,2.732,2.732,0,0,1-2.133.914,3,3,0,0,1-2.059-.719,2.312,2.312,0,0,1-.816-1.812,2.389,2.389,0,0,1,1-2.062,4.915,4.915,0,0,1,2.879-.727h1.039v-.484a1.393,1.393,0,0,0-.3-.937,1.183,1.183,0,0,0-.949-.352,1.345,1.345,0,0,0-.895.273.929.929,0,0,0-.324.75H124.1a2.268,2.268,0,0,1,.453-1.359,3,3,0,0,1,1.281-.98,4.669,4.669,0,0,1,1.859-.355,3.689,3.689,0,0,1,2.48.785,2.747,2.747,0,0,1,.918,2.207v3.664a4.041,4.041,0,0,0,.336,1.82V39Zm-1.867-1.57a1.945,1.945,0,0,0,.922-.223,1.462,1.462,0,0,0,.625-.6V35.156h-.844q-1.7,0-1.8,1.172l-.008.133a.9.9,0,0,0,.3.7A1.153,1.153,0,0,0,127.281,37.43Zm10.3-4.766a6.134,6.134,0,0,0-.812-.062,1.654,1.654,0,0,0-1.68.867V39h-2.258V30.547h2.133l.063,1.008a2.092,2.092,0,0,1,1.883-1.164,2.366,2.366,0,0,1,.7.1ZM143.328,39a2.507,2.507,0,0,1-.227-.758,2.732,2.732,0,0,1-2.133.914,3,3,0,0,1-2.059-.719,2.312,2.312,0,0,1-.816-1.812,2.389,2.389,0,0,1,1-2.062,4.915,4.915,0,0,1,2.879-.727h1.039v-.484a1.393,1.393,0,0,0-.3-.937,1.183,1.183,0,0,0-.949-.352,1.345,1.345,0,0,0-.895.273.929.929,0,0,0-.324.75h-2.258a2.268,2.268,0,0,1,.453-1.359,3,3,0,0,1,1.281-.98,4.669,4.669,0,0,1,1.859-.355,3.689,3.689,0,0,1,2.48.785,2.747,2.747,0,0,1,.918,2.207v3.664a4.041,4.041,0,0,0,.336,1.82V39Zm-1.867-1.57a1.945,1.945,0,0,0,.922-.223,1.462,1.462,0,0,0,.625-.6V35.156h-.844q-1.7,0-1.8,1.172l-.008.133a.9.9,0,0,0,.3.7A1.153,1.153,0,0,0,141.461,37.43ZM16.441,63a2.507,2.507,0,0,1-.227-.758,2.732,2.732,0,0,1-2.133.914,3,3,0,0,1-2.059-.719,2.312,2.312,0,0,1-.816-1.812,2.389,2.389,0,0,1,1-2.062,4.915,4.915,0,0,1,2.879-.727h1.039v-.484a1.393,1.393,0,0,0-.3-.937,1.183,1.183,0,0,0-.949-.352,1.345,1.345,0,0,0-.895.273.929.929,0,0,0-.324.75H11.395a2.268,2.268,0,0,1,.453-1.359,3,3,0,0,1,1.281-.98,4.669,4.669,0,0,1,1.859-.355,3.689,3.689,0,0,1,2.48.785,2.747,2.747,0,0,1,.918,2.207v3.664a4.041,4.041,0,0,0,.336,1.82V63Zm-1.867-1.57a1.945,1.945,0,0,0,.922-.223,1.462,1.462,0,0,0,.625-.6V59.156h-.844q-1.7,0-1.8,1.172l-.008.133a.9.9,0,0,0,.3.7A1.153,1.153,0,0,0,14.574,61.43Zm8.25-8.961v2.078H24.27V56.2H22.824v4.219a1.007,1.007,0,0,0,.18.672.9.9,0,0,0,.688.2,3.6,3.6,0,0,0,.664-.055v1.711a4.648,4.648,0,0,1-1.367.2,2.156,2.156,0,0,1-2.422-2.4V56.2H19.332V54.547h1.234V52.469Zm6.594,10.688a4.15,4.15,0,0,1-3.027-1.141,4.054,4.054,0,0,1-1.168-3.039v-.219a5.106,5.106,0,0,1,.492-2.277,3.612,3.612,0,0,1,1.395-1.547,3.914,3.914,0,0,1,2.059-.543,3.508,3.508,0,0,1,2.73,1.094,4.444,4.444,0,0,1,1,3.1v.922H27.512a2.1,2.1,0,0,0,.66,1.328,2,2,0,0,0,1.395.5,2.437,2.437,0,0,0,2.039-.945l1.109,1.242a3.389,3.389,0,0,1-1.375,1.121A4.511,4.511,0,0,1,29.418,63.156Zm-.258-6.945a1.411,1.411,0,0,0-1.09.455,2.357,2.357,0,0,0-.535,1.3h3.141v-.181a1.681,1.681,0,0,0-.406-1.165A1.456,1.456,0,0,0,29.16,56.211Zm7.094-1.664.07.977a2.951,2.951,0,0,1,2.43-1.133,2.453,2.453,0,0,1,2,.789,3.682,3.682,0,0,1,.672,2.359V63H39.168V57.581a1.47,1.47,0,0,0-.312-1.045,1.4,1.4,0,0,0-1.039-.325,1.553,1.553,0,0,0-1.43.814V63H34.129V54.547Zm10.4,6.789a1.481,1.481,0,0,0,1.016-.344,1.2,1.2,0,0,0,.406-.914h2.117a2.9,2.9,0,0,1-.469,1.574,3.093,3.093,0,0,1-1.262,1.109,3.949,3.949,0,0,1-1.77.395A3.67,3.67,0,0,1,43.832,62a4.56,4.56,0,0,1-1.047-3.184v-.148a4.508,4.508,0,0,1,1.039-3.117,3.627,3.627,0,0,1,2.852-1.164,3.555,3.555,0,0,1,2.543.9,3.2,3.2,0,0,1,.973,2.4H48.074a1.551,1.551,0,0,0-.406-1.072,1.51,1.51,0,0,0-2.223.163,3.333,3.333,0,0,0-.4,1.866v.235a3.375,3.375,0,0,0,.4,1.878A1.377,1.377,0,0,0,46.652,61.336ZM53.863,63H51.6V54.547h2.266Zm-2.4-10.641a1.112,1.112,0,0,1,.34-.836,1.465,1.465,0,0,1,1.848,0,1.193,1.193,0,0,1,0,1.68,1.448,1.448,0,0,1-1.836,0A1.108,1.108,0,0,1,51.465,52.359ZM55.371,58.7a5.013,5.013,0,0,1,.484-2.242A3.546,3.546,0,0,1,57.25,54.93a4.069,4.069,0,0,1,2.113-.539,3.849,3.849,0,0,1,2.793,1.047,4.2,4.2,0,0,1,1.207,2.844l.016.578a4.418,4.418,0,0,1-1.086,3.121,4.209,4.209,0,0,1-5.832,0,4.5,4.5,0,0,1-1.09-3.187Zm2.258.16a3.16,3.16,0,0,0,.453,1.843,1.628,1.628,0,0,0,2.578.008,3.457,3.457,0,0,0,.461-2.015,3.128,3.128,0,0,0-.461-1.831,1.5,1.5,0,0,0-1.3-.649,1.474,1.474,0,0,0-1.281.646A3.516,3.516,0,0,0,57.629,58.856ZM59.809,51H62.27l-2.164,2.422H58.27Zm7.039,3.547.07.977a2.951,2.951,0,0,1,2.43-1.133,2.453,2.453,0,0,1,2,.789,3.682,3.682,0,0,1,.672,2.359V63H69.762V57.581a1.47,1.47,0,0,0-.312-1.045,1.4,1.4,0,0,0-1.039-.325,1.553,1.553,0,0,0-1.43.814V63H64.723V54.547ZM80.871,59.8l1.563-5.258h2.422l-3.4,9.766-.187.445a2.577,2.577,0,0,1-2.5,1.656,3.552,3.552,0,0,1-1-.148V64.555l.344.008a1.857,1.857,0,0,0,.957-.2,1.283,1.283,0,0,0,.5-.648l.266-.7-2.961-8.477H79.3Zm13.438.859a.727.727,0,0,0-.41-.652,4.659,4.659,0,0,0-1.316-.426q-3.016-.633-3.016-2.562a2.323,2.323,0,0,1,.934-1.879,3.766,3.766,0,0,1,2.441-.754,4.053,4.053,0,0,1,2.574.758,2.388,2.388,0,0,1,.965,1.969H94.223a1.092,1.092,0,0,0-.312-.8A1.322,1.322,0,0,0,92.934,56a1.351,1.351,0,0,0-.883.258.814.814,0,0,0-.312.656.7.7,0,0,0,.355.605,3.657,3.657,0,0,0,1.2.4,9.8,9.8,0,0,1,1.422.379A2.336,2.336,0,0,1,96.5,60.57a2.2,2.2,0,0,1-.992,1.871,4.28,4.28,0,0,1-2.562.715,4.47,4.47,0,0,1-1.887-.379,3.166,3.166,0,0,1-1.293-1.039,2.414,2.414,0,0,1-.469-1.426h2.141a1.179,1.179,0,0,0,.445.922,1.766,1.766,0,0,0,1.109.32,1.635,1.635,0,0,0,.98-.246A.766.766,0,0,0,94.309,60.664Zm7.539,2.492a4.15,4.15,0,0,1-3.027-1.141,4.054,4.054,0,0,1-1.168-3.039v-.219a5.106,5.106,0,0,1,.492-2.277,3.612,3.612,0,0,1,1.395-1.547,3.914,3.914,0,0,1,2.059-.543,3.508,3.508,0,0,1,2.73,1.094,4.444,4.444,0,0,1,1,3.1v.922H99.941a2.1,2.1,0,0,0,.66,1.328,2,2,0,0,0,1.395.5,2.437,2.437,0,0,0,2.039-.945l1.109,1.242a3.389,3.389,0,0,1-1.375,1.121A4.511,4.511,0,0,1,101.848,63.156Zm-.258-6.945a1.411,1.411,0,0,0-1.09.455,2.357,2.357,0,0,0-.535,1.3h3.141v-.181a1.681,1.681,0,0,0-.406-1.165A1.456,1.456,0,0,0,101.59,56.211Zm9.766.453a6.134,6.134,0,0,0-.812-.062,1.654,1.654,0,0,0-1.68.867V63h-2.258V54.547h2.133l.063,1.008a2.092,2.092,0,0,1,1.883-1.164,2.366,2.366,0,0,1,.7.1Zm4.391,3.578,1.57-5.7h2.359L116.824,63h-2.156l-2.852-8.453h2.359Zm7.3,2.758h-2.266V54.547h2.266Zm-2.4-10.641a1.112,1.112,0,0,1,.34-.836,1.465,1.465,0,0,1,1.848,0,1.193,1.193,0,0,1,0,1.68,1.448,1.448,0,0,1-1.836,0A1.108,1.108,0,0,1,120.652,52.359Zm7.773,8.977a1.481,1.481,0,0,0,1.016-.344,1.2,1.2,0,0,0,.406-.914h2.117a2.9,2.9,0,0,1-.469,1.574,3.093,3.093,0,0,1-1.262,1.109,3.949,3.949,0,0,1-1.77.395A3.67,3.67,0,0,1,125.605,62a4.56,4.56,0,0,1-1.047-3.184v-.148a4.508,4.508,0,0,1,1.039-3.117,3.627,3.627,0,0,1,2.852-1.164,3.555,3.555,0,0,1,2.543.9,3.2,3.2,0,0,1,.973,2.4h-2.117a1.551,1.551,0,0,0-.406-1.072,1.51,1.51,0,0,0-2.223.163,3.333,3.333,0,0,0-.4,1.866v.235a3.375,3.375,0,0,0,.4,1.878A1.377,1.377,0,0,0,128.426,61.336ZM135.637,63h-2.266V54.547h2.266Zm-2.4-10.641a1.112,1.112,0,0,1,.34-.836,1.465,1.465,0,0,1,1.848,0,1.193,1.193,0,0,1,0,1.68,1.448,1.448,0,0,1-1.836,0A1.109,1.109,0,0,1,133.238,52.359Zm3.906,6.336a5.013,5.013,0,0,1,.484-2.242,3.546,3.546,0,0,1,1.395-1.523,4.069,4.069,0,0,1,2.113-.539,3.849,3.849,0,0,1,2.793,1.047,4.2,4.2,0,0,1,1.207,2.844l.016.578a4.418,4.418,0,0,1-1.086,3.121,4.209,4.209,0,0,1-5.832,0,4.5,4.5,0,0,1-1.09-3.187Zm2.258.16a3.16,3.16,0,0,0,.453,1.843,1.628,1.628,0,0,0,2.578.008,3.457,3.457,0,0,0,.461-2.015,3.128,3.128,0,0,0-.461-1.831,1.5,1.5,0,0,0-1.3-.649,1.474,1.474,0,0,0-1.281.646A3.516,3.516,0,0,0,139.4,58.856Zm7.258,3.035a1.137,1.137,0,0,1,.363-.875,1.412,1.412,0,0,1,1.828,0,1.137,1.137,0,0,1,.363.875,1.121,1.121,0,0,1-.359.863,1.435,1.435,0,0,1-1.836,0A1.121,1.121,0,0,1,146.66,61.891Z" transform="translate(-8975 -4776.871)" fill="#fff"/>
    <path id="Trazado_156233" data-name="Trazado 156233" d="M0,46.7H5.388V-38.545H.32L11.1-58.821,21.875-38.545H16.166V46.7h5.389L10.778,65.742Z" transform="matrix(0.819, 0.574, -0.574, 0.819, -8809.975, -4911.979)" fill="#31313c"/>
    <path id="Trazado_156234" data-name="Trazado 156234" d="M0,19.047H5.387v85.241H.319L11.1,124.564l10.777-20.276H16.165V19.047h5.389L10.776,0Z" transform="matrix(-0.819, 0.574, -0.574, -0.819, -8509.317, -4855.834)" fill="#31313c"/>
    <path id="Trazado_156235" data-name="Trazado 156235" d="M0,192.108H5.387V19.047H0L10.777,0,21.554,19.047H16.165V192.108h5.389L10.777,212.384Z" transform="translate(-8576.574 -4759.371) rotate(90)" fill="#31313c"/>
    <path id="Trazado_156236" data-name="Trazado 156236" d="M80,0c44.183,0,80,36.041,80,80.5S124.183,161,80,161,0,124.959,0,80.5,35.817,0,80,0Z" transform="translate(-8755 -4943.871)" fill="#31313c"/>
    <path id="Trazado_156237" data-name="Trazado 156237" d="M16.691,3.625v7.492a3.836,3.836,0,0,1-1.168,2.953,4.5,4.5,0,0,1-3.191,1.086A4.553,4.553,0,0,1,9.168,14.1a3.77,3.77,0,0,1-1.2-2.9V3.625h2.344v7.508a2.167,2.167,0,0,0,.535,1.629,2.054,2.054,0,0,0,1.48.512q1.977,0,2.008-2.078V3.625Zm6.352,9.039a.727.727,0,0,0-.41-.652,4.659,4.659,0,0,0-1.316-.426Q18.3,10.953,18.3,9.023a2.323,2.323,0,0,1,.934-1.879,3.766,3.766,0,0,1,2.441-.754,4.053,4.053,0,0,1,2.574.758,2.388,2.388,0,0,1,.965,1.969H22.957a1.092,1.092,0,0,0-.312-.8A1.322,1.322,0,0,0,21.668,8a1.351,1.351,0,0,0-.883.258.814.814,0,0,0-.312.656.7.7,0,0,0,.355.605,3.657,3.657,0,0,0,1.2.4,9.8,9.8,0,0,1,1.422.379,2.336,2.336,0,0,1,1.789,2.273,2.2,2.2,0,0,1-.992,1.871,4.28,4.28,0,0,1-2.562.715,4.47,4.47,0,0,1-1.887-.379A3.166,3.166,0,0,1,18.5,13.738a2.414,2.414,0,0,1-.469-1.426h2.141a1.179,1.179,0,0,0,.445.922,1.766,1.766,0,0,0,1.109.32,1.635,1.635,0,0,0,.98-.246A.766.766,0,0,0,23.043,12.664Zm8.711,1.477a2.831,2.831,0,0,1-2.312,1.016,2.67,2.67,0,0,1-2.074-.781,3.335,3.335,0,0,1-.73-2.289V6.547h2.258v5.467q0,1.322,1.2,1.322a1.63,1.63,0,0,0,1.578-.8V6.547h2.266V15H31.816ZM40.543,15a2.507,2.507,0,0,1-.227-.758,2.732,2.732,0,0,1-2.133.914,3,3,0,0,1-2.059-.719,2.312,2.312,0,0,1-.816-1.812,2.389,2.389,0,0,1,1-2.062,4.915,4.915,0,0,1,2.879-.727h1.039V9.352a1.393,1.393,0,0,0-.3-.937,1.183,1.183,0,0,0-.949-.352,1.345,1.345,0,0,0-.895.273.929.929,0,0,0-.324.75H35.5a2.268,2.268,0,0,1,.453-1.359,3,3,0,0,1,1.281-.98,4.669,4.669,0,0,1,1.859-.355,3.689,3.689,0,0,1,2.48.785,2.747,2.747,0,0,1,.918,2.207v3.664a4.041,4.041,0,0,0,.336,1.82V15Zm-1.867-1.57a1.945,1.945,0,0,0,.922-.223,1.462,1.462,0,0,0,.625-.6V11.156h-.844q-1.7,0-1.8,1.172l-.008.133a.9.9,0,0,0,.3.7A1.153,1.153,0,0,0,38.676,13.43Zm10.3-4.766A6.134,6.134,0,0,0,48.16,8.6a1.654,1.654,0,0,0-1.68.867V15H44.223V6.547h2.133l.063,1.008A2.092,2.092,0,0,1,48.3,6.391a2.366,2.366,0,0,1,.7.1ZM52.441,15H50.176V6.547h2.266Zm-2.4-10.641a1.112,1.112,0,0,1,.34-.836,1.465,1.465,0,0,1,1.848,0,1.105,1.105,0,0,1,.344.836,1.108,1.108,0,0,1-.348.844,1.448,1.448,0,0,1-1.836,0A1.108,1.108,0,0,1,50.043,4.359ZM53.949,10.7a5.013,5.013,0,0,1,.484-2.242A3.546,3.546,0,0,1,55.828,6.93a4.069,4.069,0,0,1,2.113-.539,3.849,3.849,0,0,1,2.793,1.047,4.2,4.2,0,0,1,1.207,2.844l.016.578a4.418,4.418,0,0,1-1.086,3.121,4.209,4.209,0,0,1-5.832,0,4.5,4.5,0,0,1-1.09-3.187Zm2.258.16A3.16,3.16,0,0,0,56.66,12.7a1.628,1.628,0,0,0,2.578.008,3.457,3.457,0,0,0,.461-2.015,3.128,3.128,0,0,0-.461-1.831,1.5,1.5,0,0,0-1.3-.649,1.474,1.474,0,0,0-1.281.646A3.516,3.516,0,0,0,56.207,10.856Zm10.773-.145a5.094,5.094,0,0,1,.887-3.148,2.877,2.877,0,0,1,2.426-1.172,2.589,2.589,0,0,1,2.039.922V3H74.6V15H72.559l-.109-.9a2.657,2.657,0,0,1-2.172,1.055,2.869,2.869,0,0,1-2.395-1.176A5.258,5.258,0,0,1,66.98,10.711Zm2.258.161a3.355,3.355,0,0,0,.414,1.829,1.348,1.348,0,0,0,1.2.636,1.51,1.51,0,0,0,1.477-.887V9.1a1.489,1.489,0,0,0-1.461-.887Q69.238,8.211,69.238,10.872Zm11,4.285a4.15,4.15,0,0,1-3.027-1.141,4.054,4.054,0,0,1-1.168-3.039v-.219a5.106,5.106,0,0,1,.492-2.277A3.612,3.612,0,0,1,77.93,6.934a3.914,3.914,0,0,1,2.059-.543,3.508,3.508,0,0,1,2.73,1.094,4.444,4.444,0,0,1,1,3.1v.922H78.332a2.1,2.1,0,0,0,.66,1.328,2,2,0,0,0,1.395.5,2.437,2.437,0,0,0,2.039-.945l1.109,1.242a3.389,3.389,0,0,1-1.375,1.121A4.511,4.511,0,0,1,80.238,15.156ZM79.98,8.211a1.411,1.411,0,0,0-1.09.455,2.357,2.357,0,0,0-.535,1.3H81.5V9.788a1.681,1.681,0,0,0-.406-1.165A1.456,1.456,0,0,0,79.98,8.211ZM91.363,15H89.1V3h2.266Zm6.758,0a2.507,2.507,0,0,1-.227-.758,2.732,2.732,0,0,1-2.133.914,3,3,0,0,1-2.059-.719,2.312,2.312,0,0,1-.816-1.812,2.389,2.389,0,0,1,1-2.062,4.915,4.915,0,0,1,2.879-.727H97.8V9.352a1.393,1.393,0,0,0-.3-.937,1.183,1.183,0,0,0-.949-.352,1.345,1.345,0,0,0-.895.273.929.929,0,0,0-.324.75H93.074a2.268,2.268,0,0,1,.453-1.359,3,3,0,0,1,1.281-.98,4.669,4.669,0,0,1,1.859-.355,3.689,3.689,0,0,1,2.48.785,2.747,2.747,0,0,1,.918,2.207v3.664a4.041,4.041,0,0,0,.336,1.82V15Zm-1.867-1.57a1.945,1.945,0,0,0,.922-.223,1.462,1.462,0,0,0,.625-.6V11.156h-.844q-1.7,0-1.8,1.172l-.008.133a.9.9,0,0,0,.3.7A1.153,1.153,0,0,0,96.254,13.43ZM24.777,34.852a5.119,5.119,0,0,1-.867,3.168,2.872,2.872,0,0,1-2.422,1.137,2.639,2.639,0,0,1-2.2-1.055l-.1.9H17.16V27h2.258v4.3a2.571,2.571,0,0,1,2.055-.914A2.9,2.9,0,0,1,23.9,31.527a5.126,5.126,0,0,1,.879,3.2Zm-2.258-.172a3.381,3.381,0,0,0-.406-1.877,1.372,1.372,0,0,0-1.211-.592,1.489,1.489,0,0,0-1.484.885v3.346a1.509,1.509,0,0,0,1.5.893,1.4,1.4,0,0,0,1.438-1.081A5.6,5.6,0,0,0,22.52,34.679ZM28.551,39H26.285V30.547h2.266Zm-2.4-10.641a1.112,1.112,0,0,1,.34-.836,1.465,1.465,0,0,1,1.848,0,1.193,1.193,0,0,1,0,1.68,1.448,1.448,0,0,1-1.836,0A1.108,1.108,0,0,1,26.152,28.359Zm11.875,6.492a5.119,5.119,0,0,1-.867,3.168,2.872,2.872,0,0,1-2.422,1.137,2.639,2.639,0,0,1-2.2-1.055l-.1.9H30.41V27h2.258v4.3a2.571,2.571,0,0,1,2.055-.914,2.9,2.9,0,0,1,2.426,1.137,5.126,5.126,0,0,1,.879,3.2Zm-2.258-.172a3.381,3.381,0,0,0-.406-1.877,1.372,1.372,0,0,0-1.211-.592,1.489,1.489,0,0,0-1.484.885v3.346a1.509,1.509,0,0,0,1.5.893,1.4,1.4,0,0,0,1.438-1.081A5.6,5.6,0,0,0,35.77,34.679ZM41.8,39H39.535V27H41.8Zm4.242,0H43.777V30.547h2.266Zm-2.4-10.641a1.112,1.112,0,0,1,.34-.836,1.465,1.465,0,0,1,1.848,0,1.193,1.193,0,0,1,0,1.68,1.448,1.448,0,0,1-1.836,0A1.108,1.108,0,0,1,43.645,28.359ZM47.551,34.7a5.013,5.013,0,0,1,.484-2.242A3.546,3.546,0,0,1,49.43,30.93a4.069,4.069,0,0,1,2.113-.539,3.849,3.849,0,0,1,2.793,1.047,4.2,4.2,0,0,1,1.207,2.844l.016.578a4.418,4.418,0,0,1-1.086,3.121,4.209,4.209,0,0,1-5.832,0,4.5,4.5,0,0,1-1.09-3.187Zm2.258.16a3.16,3.16,0,0,0,.453,1.843,1.628,1.628,0,0,0,2.578.008,3.457,3.457,0,0,0,.461-2.015,3.128,3.128,0,0,0-.461-1.831,1.5,1.5,0,0,0-1.3-.649,1.474,1.474,0,0,0-1.281.646A3.516,3.516,0,0,0,49.809,34.856Zm9.844-6.387v2.078H61.1V32.2H59.652v4.219a1.007,1.007,0,0,0,.18.672.9.9,0,0,0,.688.2,3.6,3.6,0,0,0,.664-.055v1.711a4.648,4.648,0,0,1-1.367.2,2.156,2.156,0,0,1-2.422-2.4V32.2H56.16V30.547h1.234V28.469Zm6.594,10.688a4.15,4.15,0,0,1-3.027-1.141,4.054,4.054,0,0,1-1.168-3.039v-.219a5.106,5.106,0,0,1,.492-2.277,3.612,3.612,0,0,1,1.395-1.547A3.914,3.914,0,0,1,66,30.391a3.508,3.508,0,0,1,2.73,1.094,4.444,4.444,0,0,1,1,3.1v.922H64.34A2.1,2.1,0,0,0,65,36.836a2,2,0,0,0,1.395.5,2.437,2.437,0,0,0,2.039-.945l1.109,1.242a3.389,3.389,0,0,1-1.375,1.121A4.511,4.511,0,0,1,66.246,39.156Zm-.258-6.945a1.411,1.411,0,0,0-1.09.455,2.357,2.357,0,0,0-.535,1.3H67.5v-.181a1.681,1.681,0,0,0-.406-1.165A1.456,1.456,0,0,0,65.988,32.211Zm8.531,5.125a1.481,1.481,0,0,0,1.016-.344,1.2,1.2,0,0,0,.406-.914h2.117a2.9,2.9,0,0,1-.469,1.574,3.093,3.093,0,0,1-1.262,1.109,3.949,3.949,0,0,1-1.77.395A3.67,3.67,0,0,1,71.7,38a4.56,4.56,0,0,1-1.047-3.184v-.148a4.508,4.508,0,0,1,1.039-3.117,3.627,3.627,0,0,1,2.852-1.164,3.555,3.555,0,0,1,2.543.9,3.2,3.2,0,0,1,.973,2.4H75.941a1.551,1.551,0,0,0-.406-1.072,1.51,1.51,0,0,0-2.223.163,3.333,3.333,0,0,0-.4,1.866v.235a3.375,3.375,0,0,0,.4,1.878A1.377,1.377,0,0,0,74.52,37.336ZM84.246,39a2.507,2.507,0,0,1-.227-.758,2.732,2.732,0,0,1-2.133.914,3,3,0,0,1-2.059-.719,2.312,2.312,0,0,1-.816-1.812,2.389,2.389,0,0,1,1-2.062,4.915,4.915,0,0,1,2.879-.727h1.039v-.484a1.393,1.393,0,0,0-.3-.937,1.183,1.183,0,0,0-.949-.352,1.345,1.345,0,0,0-.895.273.929.929,0,0,0-.324.75H79.2a2.268,2.268,0,0,1,.453-1.359,3,3,0,0,1,1.281-.98,4.669,4.669,0,0,1,1.859-.355,3.689,3.689,0,0,1,2.48.785,2.747,2.747,0,0,1,.918,2.207v3.664a4.041,4.041,0,0,0,.336,1.82V39Zm-1.867-1.57a1.945,1.945,0,0,0,.922-.223,1.462,1.462,0,0,0,.625-.6V35.156h-.844q-1.7,0-1.8,1.172l-.008.133a.9.9,0,0,0,.3.7A1.153,1.153,0,0,0,82.379,37.43Zm5.664.461a1.137,1.137,0,0,1,.363-.875,1.412,1.412,0,0,1,1.828,0,1.137,1.137,0,0,1,.363.875,1.121,1.121,0,0,1-.359.863,1.435,1.435,0,0,1-1.836,0A1.121,1.121,0,0,1,88.043,37.891Z" transform="translate(-8728 -4850.871)" fill="#fff"/>
    <g id="Grupo_158737" data-name="Grupo 158737" transform="translate(-9484 -12004)">
      <circle id="Elipse_4767" data-name="Elipse 4767" cx="40" cy="40" r="40" transform="translate(770 6878)" fill="#fd9827"/>
      <g id="Grupo_158736" data-name="Grupo 158736" transform="translate(784 6892)">
        <g id="Grupo_158735" data-name="Grupo 158735" clip-path="url(#clip-path)">
          <path id="Trazado_153972" data-name="Trazado 153972" d="M49.412,60.616V58.983H54.5v1.623H56.2v-1.63H61.28c.01.143.029.295.029.446,0,1.77.011,3.539-.009,5.308a1.539,1.539,0,0,1-.238.778c-.934,1.438-1.9,2.854-2.836,4.293a1.071,1.071,0,0,0-.166.725q1.5,6.834,3.031,13.66c.015.067.035.132.053.2.362.057.715.086,1.053.172a3.358,3.358,0,0,1,2.5,3.084c.037,1.166.008,2.335.008,3.546H39.226V90.011c0-.743-.011-1.486,0-2.229a3.4,3.4,0,0,1,3.149-3.339c.122-.01.244-.017.413-.029q.5-2.219.993-4.434c.694-3.122,1.392-6.242,2.063-9.369a1.209,1.209,0,0,0-.151-.823c-.917-1.428-1.879-2.827-2.8-4.251a1.639,1.639,0,0,1-.259-.824c-.022-1.892-.011-3.786-.011-5.722h5.081v1.626ZM47.546,70.864,44.538,84.415H59.4L56.386,70.864ZM63.01,89.512c0-.511,0-.969,0-1.427a1.735,1.735,0,0,0-1.965-1.951q-5.6,0-11.2,0-3.556,0-7.112,0a1.661,1.661,0,0,0-1.776,1.417,18.012,18.012,0,0,0-.014,1.96ZM45.075,65.762c.7,1.057,1.368,2.032,2,3.025a.7.7,0,0,0,.685.362c2.53-.013,5.062-.059,7.589.019A1.851,1.851,0,0,0,57.326,68.1a27.628,27.628,0,0,1,1.533-2.339Zm6.039-3.454h-5.1v-1.63h-1.65V64H59.582V60.683h-1.7v1.632H52.8V60.69H51.114Z" transform="translate(-25.642 -38.556)" fill="#31313c"/>
          <path id="Trazado_153973" data-name="Trazado 153973" d="M15.3,7.537a7.6,7.6,0,0,1-3.271,6.348,2.113,2.113,0,0,0-1,1.959,8.245,8.245,0,0,1-.1,1.9,3.35,3.35,0,0,1-3.6,2.636,3.416,3.416,0,0,1-3.082-3.242c-.018-.495-.016-.991,0-1.486a1.887,1.887,0,0,0-.894-1.7A7.438,7.438,0,0,1,0,7.348a7.637,7.637,0,0,1,15.182-.863c.053.385.084.772.114,1.052M9.339,15.274a4,4,0,0,1,1.885-2.919A5.584,5.584,0,0,0,13.453,6.5,5.61,5.61,0,0,0,9.265,1.943,5.65,5.65,0,0,0,3.233,3.678a5.879,5.879,0,0,0,1.011,8.833A3.621,3.621,0,0,1,5.9,15.041a2.035,2.035,0,0,0,.053.213h.831c0-1.667.009-3.294-.015-4.92a.681.681,0,0,0-.33-.442,2.544,2.544,0,1,1,3.567-3.153,2.479,2.479,0,0,1-1.127,3.1.655.655,0,0,0-.4.689c.018,1.38.008,2.761.008,4.141v.606ZM5.956,17.02a1.7,1.7,0,0,0,1.7,1.671A1.674,1.674,0,0,0,9.31,17.02ZM7.629,8.494a.845.845,0,1,0-.836-.854.855.855,0,0,0,.836.854" transform="translate(0 0)" fill="#31313c"/>
          <path id="Trazado_153974" data-name="Trazado 153974" d="M112.887,14.2l-1.067.481c-1.026-1.026-2.054-2.047-3.066-3.083a.479.479,0,0,1-.052-.4,8.407,8.407,0,0,1,.365-.832l-1.091-.419V5.372l1.04-.415c0-.06.015-.106,0-.127-.6-.775-.218-1.287.405-1.825a24.7,24.7,0,0,0,1.99-1.985.632.632,0,0,1,.937-.162,4.166,4.166,0,0,0,.544.253l.432-1.1c1.445,0,2.894-.006,4.342.011a.482.482,0,0,1,.32.254,7.262,7.262,0,0,1,.3.772c.062.01.109.033.127.019.765-.58,1.28-.231,1.831.391.737.832,1.565,1.584,2.379,2.4l-.449,1.039c.031.042.04.065.051.067,1.032.132,1.09.828,1.038,1.667a25.462,25.462,0,0,0,0,2.759c.021.457-.133.68-.561.77a3.5,3.5,0,0,0-.5.187.507.507,0,0,0,0,.162c.388.976.388.975-.367,1.731-.8.8-1.6,1.6-2.426,2.435l-1.038-.444c-.048.038-.1.056-.1.08-.124.919-.69,1.08-1.522,1.013a25.941,25.941,0,0,0-2.917-.008c-.4.013-.626-.087-.7-.5a3.588,3.588,0,0,0-.242-.614M110.606,4.177c.13.288.233.511.332.735a1.014,1.014,0,0,1-.536,1.34c-.7.16-.828.574-.747,1.181a1.694,1.694,0,0,1,0,.529c-.116.615.143.923.738,1.074a.987.987,0,0,1,.565,1.276.894.894,0,0,0,.3,1.4,1.341,1.341,0,0,1,.336.337.843.843,0,0,0,1.319.266.949.949,0,0,1,1.269.475c.164.783.643.895,1.3.808a1.446,1.446,0,0,1,.423,0,.824.824,0,0,0,1.085-.723c.1-.435.886-.844,1.218-.609.709.5,1.14.166,1.566-.368a1.5,1.5,0,0,1,.3-.3.765.765,0,0,0,.222-1.192.965.965,0,0,1,.441-1.324c.809-.176.907-.676.82-1.348a1.883,1.883,0,0,1,0-.529c.079-.5-.115-.753-.611-.9a1.027,1.027,0,0,1-.632-1.5l.3-.649a10.492,10.492,0,0,1-1-.937c-.382-.456-.736-.6-1.282-.247a.977.977,0,0,1-1.283-.444c-.172-.844-.716-.9-1.391-.833a3.513,3.513,0,0,1-.741,0,.444.444,0,0,0-.558.4c-.091.472-.326.85-.83.889a5.4,5.4,0,0,1-.985-.151c-.181-.021-.429-.062-.541.033-.485.409-.93.864-1.39,1.3" transform="translate(-70.592 -0.004)" fill="#31313c"/>
          <path id="Trazado_153975" data-name="Trazado 153975" d="M116.47,68.8c0,1.167,0,2.312,0,3.457,0,.832.013,1.664,0,2.495a2.516,2.516,0,0,1-2.455,2.5c-1.946.029-3.892.008-5.839.006a.832.832,0,0,1-.17-.041V75.567h.56q2.547,0,5.1,0c.831,0,1.113-.284,1.114-1.116q0-2.521,0-5.043v-.6Z" transform="translate(-70.608 -44.981)" fill="#31313c"/>
          <path id="Trazado_153976" data-name="Trazado 153976" d="M19.606,83.491h1.7c0,.207,0,.4,0,.583.007.8.291,1.093,1.082,1.094q2.627,0,5.255,0h.414v1.7H22.522a2.6,2.6,0,0,1-2.916-2.956c0-.122,0-.244,0-.421" transform="translate(-12.817 -54.584)" fill="#31313c"/>
          <rect id="Rectángulo_35588" data-name="Rectángulo 35588" width="1.624" height="1.652" transform="translate(44.205 17.03)" fill="#31313c"/>
          <rect id="Rectángulo_35589" data-name="Rectángulo 35589" width="1.633" height="1.637" transform="translate(44.203 20.427)" fill="#31313c"/>
          <rect id="Rectángulo_35590" data-name="Rectángulo 35590" width="1.633" height="1.635" transform="translate(6.83 22.127)" fill="#31313c"/>
          <rect id="Rectángulo_35591" data-name="Rectángulo 35591" width="1.652" height="1.614" transform="translate(6.8 25.529)" fill="#31313c"/>
          <path id="Trazado_153977" data-name="Trazado 153977" d="M64.524,107.244l1.653.369-.367,1.649-1.645-.366.359-1.653" transform="translate(-41.949 -70.113)" fill="#31313c"/>
          <path id="Trazado_153978" data-name="Trazado 153978" d="M68.312,98.039l-.376,1.644-1.643-.361.355-1.643,1.664.36" transform="translate(-43.34 -63.859)" fill="#31313c"/>
          <path id="Trazado_153979" data-name="Trazado 153979" d="M62.431,116.805l1.65.377c-.123.556-.241,1.091-.365,1.653l-1.64-.374c.12-.556.232-1.08.355-1.656" transform="translate(-40.583 -76.363)" fill="#31313c"/>
          <path id="Trazado_153980" data-name="Trazado 153980" d="M126.236,14.076a4.245,4.245,0,1,1-4.253-4.251,4.258,4.258,0,0,1,4.253,4.251M122,11.524a2.547,2.547,0,1,0,2.532,2.587A2.558,2.558,0,0,0,122,11.524" transform="translate(-76.978 -6.423)" fill="#31313c"/>
        </g>
      </g>
    </g>
    <g id="Grupo_158740" data-name="Grupo 158740" transform="translate(-9484 -12004)">
      <circle id="Elipse_4769" data-name="Elipse 4769" cx="40" cy="40" r="40" transform="translate(971 7141)" fill="#fd9827"/>
      <g id="Grupo_158739" data-name="Grupo 158739" transform="translate(991 7155)">
        <g id="Grupo_158738" data-name="Grupo 158738" clip-path="url(#clip-path-2)">
          <path id="Trazado_153981" data-name="Trazado 153981" d="M3.336,51.773c-.8-.472-.825-1.3-.88-2.07-.013-.185.354-.537.574-.561a1.152,1.152,0,0,1,.782.374c.16.158.177.461.264.718H16.433c-.274-.97-.537-1.907-.8-2.842-.47-1.649-.948-3.3-1.407-4.948-.089-.318-.208-.474-.58-.459-.822.033-1.647.01-2.451.01-.034.066-.069.1-.062.123.31.91-.177,1.319-1.063,1.293-1.6-.047-3.2-.012-4.8-.014-.788,0-1.019-.152-1.2-.925a.53.53,0,0,0-.655-.485C2.872,42.02,2.332,42,1.721,42c.151.553.286,1.063.431,1.571.22.776.451,1.55.669,2.326.165.586.008.99-.424,1.13-.477.155-.851-.087-1.025-.688q-.666-2.3-1.316-4.608a.888.888,0,0,1,.934-1.242c.8-.019,1.611,0,2.45,0-.025-.184-.052-.314-.059-.445-.032-.56.345-.927,1-.935,1.145-.013,2.291,0,3.437,0h.464a25.466,25.466,0,0,1,.7-2.954,9.42,9.42,0,0,1,6.651-6.083c.752-.212,1.507-.414,2.255-.64a1.587,1.587,0,0,0,1.181-1.347,2.2,2.2,0,0,0-.3-.128,4.407,4.407,0,0,1-3.477-4.386q-.026-1.743,0-3.486a.586.586,0,0,0-.412-.634,4.412,4.412,0,0,1-2.7-4.053,2.686,2.686,0,0,1,2.492-2.8c.147-.016.3-.022.494-.037-.056-.876-.1-1.729-.168-2.58a9.453,9.453,0,0,1,.483-4.227c.2-.54.613-.752,1.056-.563.413.175.559.573.352,1.11-.663,1.722-.362,3.479-.254,5.361.208-.193.34-.3.459-.428A4.439,4.439,0,0,1,20.333,9.8a8.307,8.307,0,0,0,3.785-.938,6.32,6.32,0,0,0,3.154-3.649c.225-.652.437-1.308.648-1.964.218-.677.067-1.071-.6-1.253-3.013-.825-5.9-.774-8.433,1.37-.456.385-.892.384-1.2.012s-.228-.782.234-1.182A8.347,8.347,0,0,1,22.547.116a10.923,10.923,0,0,1,5.231.448,7.24,7.24,0,0,1,1.375.959,2.381,2.381,0,0,0,.4.223,4.373,4.373,0,0,1,1.121.494,9.158,9.158,0,0,1,3.151,8.183c-.061.687-.093,1.376-.14,2.082a.827.827,0,0,0,.188.066,2.806,2.806,0,0,1,2.668,3.809,4.355,4.355,0,0,1-2.57,3.053.6.6,0,0,0-.418.677c.016,1.094.008,2.189.006,3.284A4.413,4.413,0,0,1,30,27.965a1.191,1.191,0,0,0-.14.055c-.062.719.617,1.289,1.4,1.48,2.44.6,4.829,1.332,6.6,3.3a9.449,9.449,0,0,1,2.582,6.455c.016,3.806,0,7.612.014,11.419a1.09,1.09,0,0,1-.625,1.1ZM31.743,31.865l-2.748,10.99a6.579,6.579,0,0,0,.891-1.06.74.74,0,0,1,1.019-.259c.434.218.5.729.156,1.214-.943,1.332-1.9,2.658-2.842,3.988-.086.121-.212.257-.215.388-.018,1.035-.01,2.07-.01,3.1h5.453v-.52q0-1.919,0-3.839c0-.118,0-.236,0-.354.02-.523.3-.827.75-.827a.748.748,0,0,1,.76.827c.013,1.4,0,2.8.005,4.192v.51h3.961c0-3.692.05-7.346-.015-11a7.845,7.845,0,0,0-4.17-6.928c-.321-.19-.679-.32-1.019-.478a9.248,9.248,0,0,0,.918,1.493c.44.621.431.824-.064,1.421l-.77.929c.291.269.56.5.808.75a.8.8,0,0,1,.093,1.244q-.653.93-1.321,1.849c-.358.5-.814.62-1.195.332-.364-.276-.382-.719-.04-1.206s.7-.978,1.091-1.532c-.173-.142-.321-.254-.457-.378s-.29-.281-.429-.428a.765.765,0,0,1-.053-1.2c.3-.38.619-.75.935-1.133l-1.493-2.089m-13.317-1c.294,1.167.642,2.277.837,3.414a2.082,2.082,0,0,0,1.42,1.669,4.319,4.319,0,0,0,1.458.344c1.53.043,3.063.031,4.594.009a3.555,3.555,0,0,0,2.343-.928.99.99,0,0,0,.323-.432c.353-1.346.683-2.7,1.028-4.081-2.048-.76-2.32-2.433-2.166-4.356a9.021,9.021,0,0,1-7.534.057,18.791,18.791,0,0,1-.4,2.535,2.858,2.858,0,0,1-1.9,1.769m6.786-15.539c-.016-.128-.037-.258-.049-.389-.042-.445-.21-.81-.712-.824s-.665.33-.753.778a3.88,3.88,0,0,1-4.629,3.365,18.737,18.737,0,0,1-2.018-.46C17,21,18.212,23.571,21.171,25.049a6.964,6.964,0,0,0,7.7-.732,7.336,7.336,0,0,0,2.893-6.589c-2.091.855-4.069.875-5.873-.858,0,.371.01.669,0,.965a1.944,1.944,0,0,1-1.408,1.829,2.407,2.407,0,0,1-.646.083.77.77,0,0,1-.882-.7.755.755,0,0,1,.789-.8c.485-.018.66-.236.64-.693-.016-.369,0-.74,0-1.111,0-.729.134-.907.832-1.125M20.085,37.362c.046.237.068.381.1.521.693,2.787,1.391,5.573,2.075,8.362a4.78,4.78,0,0,1,.132,1.044c.017.971.006,1.942.006,2.94h4.068c0-.439-.012-.855,0-1.27a16.181,16.181,0,0,1,.146-2.757c.447-2.1,1.023-4.175,1.545-6.261.208-.834.411-1.669.639-2.6a9.913,9.913,0,0,1-4.379.471,10.02,10.02,0,0,1-4.336-.451m-5.012-1.675c-.346-.421-.615-.761-.9-1.09a.847.847,0,0,1-.032-1.186c.37-.5.718-1.007,1.13-1.588a2.95,2.95,0,0,0-.324.068,8.17,8.17,0,0,0-5.005,6.96.7.7,0,0,0,.08.32,9.7,9.7,0,0,1,.5.95c.1.26.2.369.495.364,1.111-.017,2.223-.009,3.334-.006.726,0,.917.147,1.113.835q.92,3.224,1.839,6.448c.238.833.484,1.663.717,2.459h2.863c0-.84-.023-1.647.008-2.451a1.9,1.9,0,0,0-.4-1.253q-3.174-4.4-6.317-8.827a.84.84,0,0,1,.109-1.325c.238-.235.506-.439.786-.68M29.535,3.242c-.149.43-.274.794-.4,1.157a6.461,6.461,0,0,0,.881,6.031,3.488,3.488,0,0,0,2.144,1.342c.526-3.25.13-6.212-2.625-8.53m-.2,9.332c-.752.213-1.481.387-2.183.635a.981.981,0,0,0-.537.549,2.712,2.712,0,0,0,1.02,2.581,3.277,3.277,0,0,0,3.143.119,2.488,2.488,0,0,0,1.266-2.308.8.8,0,0,0-.525-.925c-.7-.247-1.429-.431-2.183-.652m-9.837,0c-.763.223-1.46.393-2.128.64a.991.991,0,0,0-.528.558,2.709,2.709,0,0,0,1,2.542,3.246,3.246,0,0,0,3.183.135,2.447,2.447,0,0,0,1.245-2.313.8.8,0,0,0-.53-.92c-.737-.25-1.5-.433-2.237-.641m-2.382,19.29-1.493,2.083c.183.225.329.407.478.588s.307.358.453.544a.781.781,0,0,1-.052,1.2c-.282.284-.6.53-.9.788l4.143,5.792.108-.053c-.9-3.6-1.8-7.2-2.735-10.947m4.1-20.577a9.765,9.765,0,0,1,1.668.9c.44.355.789.62,1.383.41.228-.081.527.063.794.061a1,1,0,0,0,.5-.134,11.479,11.479,0,0,1,1.337-.872,12.268,12.268,0,0,1,1.7-.494L27.3,8.289c-2.612,2.223-3.25,2.538-6.087,3m12.367,2.848-.244,3.885a2.907,2.907,0,0,0,1.805-2.374c.146-1.006-.473-1.631-1.561-1.511M15.521,18.026c-.088-1.346-.172-2.63-.256-3.9-.952-.057-1.479.322-1.56,1.063a2.92,2.92,0,0,0,1.815,2.841M9.447,41.876c-.1-.389-.181-.73-.292-1.059a.341.341,0,0,0-.249-.192c-1.24-.012-2.48-.008-3.789-.008.109.4.184.742.3,1.066a.383.383,0,0,0,.293.186c1.225.013,2.45.008,3.736.008m7.383-18.6a2.775,2.775,0,0,0,2.329,3.12c-.075-.333-.048-.724-.231-.934-.664-.764-1.4-1.468-2.1-2.186m15.179-.013c-.611.653-1.189,1.359-1.861,1.959a1.065,1.065,0,0,0-.331,1.187,2.789,2.789,0,0,0,2.192-3.146" transform="translate(0 0)" fill="#31313c"/>
          <path id="Trazado_153982" data-name="Trazado 153982" d="M67.042,66.278a4.768,4.768,0,0,1-3.3-1.339.766.766,0,0,1-.129-1.151.757.757,0,0,1,1.124.013,3.4,3.4,0,0,0,4.75.016c.434-.358.849-.361,1.158-.008a.79.79,0,0,1-.166,1.155,4.907,4.907,0,0,1-3.441,1.314" transform="translate(-42.696 -42.787)" fill="#31313c"/>
        </g>
      </g>
    </g>
    <g id="Grupo_158743" data-name="Grupo 158743" transform="translate(-9484 -12004)">
      <circle id="Elipse_4768" data-name="Elipse 4768" cx="40" cy="40" r="40" transform="translate(550 7141)" fill="#fd9827"/>
      <g id="Grupo_158742" data-name="Grupo 158742" transform="translate(567.751 7158)">
        <g id="Grupo_158741" data-name="Grupo 158741" clip-path="url(#clip-path-3)">
          <path id="Trazado_153983" data-name="Trazado 153983" d="M56.24,0a.974.974,0,0,1,.549,1.034c-.018.178,0,.359,0,.539-.008.271-.017.5.3.667a.79.79,0,0,0,.894.016c1.268-.766,1.372-.727,2.106.543.352.609.707,1.215,1.052,1.828a.826.826,0,0,1-.352,1.31c-.153.093-.31.181-.465.272-.687.4-.685,1,.006,1.394,1.254.723,1.28.818.554,2.074-.351.609-.7,1.22-1.056,1.826s-.719.7-1.342.351c-.157-.087-.311-.178-.467-.268-.688-.4-1.228-.076-1.229.728,0,1.419-.079,1.5-1.5,1.5-.7,0-1.408.007-2.111,0s-.975-.283-.983-.981a3.161,3.161,0,0,1,0-.538.7.7,0,0,0-.492-.826.5.5,0,0,0-.567.018,6.937,6.937,0,0,1-.776.449.744.744,0,0,1-1.086-.286q-.776-1.286-1.5-2.6a.75.75,0,0,1,.3-1.085,3.357,3.357,0,0,1,.621-.357.619.619,0,0,0,.439-.8.938.938,0,0,0-.282-.482c-.243-.193-.543-.313-.8-.488a.746.746,0,0,1-.279-1.055Q48.5,3.44,49.29,2.135a.741.741,0,0,1,1.056-.273,2.547,2.547,0,0,1,.579.339.7.7,0,0,0,1.032-.024.682.682,0,0,0,.225-.377,2.976,2.976,0,0,0,.006-.717A1.019,1.019,0,0,1,52.735,0Zm3.276,8.954c-.269-.158-.482-.3-.707-.412a.95.95,0,0,1-.547-1.106,4.7,4.7,0,0,0,0-1.161.891.891,0,0,1,.521-.99c.237-.12.465-.259.731-.41l-.759-1.321c-.253.147-.476.264-.685.4a.953.953,0,0,1-1.2-.037,4.8,4.8,0,0,0-.965-.56.963.963,0,0,1-.653-1.052c.015-.248,0-.5,0-.74H53.723a4.643,4.643,0,0,0,0,.57,1.058,1.058,0,0,1-.81,1.263.684.684,0,0,0-.243.112,1.53,1.53,0,0,1-2.417-.041l-.795,1.385c.258.148.459.279.672.383a1,1,0,0,1,.6,1.172,4.219,4.219,0,0,0,0,.98.962.962,0,0,1-.6,1.167c-.216.121-.431.243-.661.373l.761,1.32c.254-.146.472-.251.667-.387a.957.957,0,0,1,1.235.034,6.743,6.743,0,0,0,1.045.6.87.87,0,0,1,.551.886c-.009.28,0,.561,0,.862h1.531c0-.238.016-.448,0-.654a1.014,1.014,0,0,1,.72-1.147,3.172,3.172,0,0,0,.813-.465,1.017,1.017,0,0,1,1.352-.061c.19.132.4.238.617.366l.763-1.329" transform="translate(-31.47)" fill="#31313c"/>
          <path id="Trazado_153984" data-name="Trazado 153984" d="M28.757,55.752c.153.164.258.283.369.395q2.763,2.765,5.527,5.53a2.228,2.228,0,0,1,.325.37.749.749,0,0,1-1.025,1.037,2.38,2.38,0,0,1-.4-.352Q30.21,59.4,26.88,56.056a1.045,1.045,0,0,0-.823-.333c-3.205.011-6.41.006-9.616.007-.851,0-1.1.243-1.1,1.094q0,3.8,0,7.594v.5c.436,0,.834.006,1.233,0a2.426,2.426,0,0,1,2.4,1.336c.061.117.312.189.476.19,2.337.012,4.673.007,7.009.011a2.33,2.33,0,0,1,.621.065.682.682,0,0,1,.516.748.69.69,0,0,1-.6.688,3.075,3.075,0,0,1-.537.031q-3.37,0-6.74,0h-.511v1.536h.516q2.988,0,5.976,0c.769,0,1.135.255,1.129.779s-.367.757-1.149.76c-1.6,0-1.6,0-2.509,1.317-.032.046-.052.1-.113.219.478,0,.905,0,1.333,0,.584,0,1.169-.01,1.752.023a.7.7,0,0,1,.686.7.726.726,0,0,1-.608.769,2.073,2.073,0,0,1-.445.043c-1.348,0-2.7,0-4.044,0a.827.827,0,0,1-.713-1.445c.385-.508.765-1.02,1.195-1.594h-3v4.572c.457,0,.9-.006,1.346,0,.634.011.884.268.918.9a3.153,3.153,0,0,1-1.735,3.353,3.555,3.555,0,0,1-1.47.326c-5.018.023-10.035.016-15.053.013C1.2,80.268-.28,78.732.045,76.317a.713.713,0,0,1,.789-.641c.475-.009.95,0,1.473,0V75.14q0-3.8,0-7.594a2.363,2.363,0,0,1,2.606-2.624q4.156,0,8.313,0h.585v-.516c0-2.532.031-5.063-.011-7.594a2.463,2.463,0,0,1,2.615-2.629c6.455.038,12.911.015,19.367.017a2.314,2.314,0,0,1,2.569,2.545q0,3.483,0,6.965c0,.684-.546,1.08-1.091.806a.9.9,0,0,1-.439-.914q0-3.235,0-6.47c0-.18,0-.36,0-.539a.776.776,0,0,0-.867-.857c-1.213-.009-2.426,0-3.64,0H29.077c-.084,0-.168.011-.319.022M12.625,66.462c.176.188.274.3.378.4q1.334,1.333,2.669,2.666a2.179,2.179,0,0,1,.318.375.693.693,0,0,1-.121.936.7.7,0,0,1-.943.075,2.426,2.426,0,0,1-.367-.328c-1.281-1.281-2.553-2.57-3.85-3.835a1.109,1.109,0,0,0-.695-.285c-1.691-.024-3.383-.014-5.075-.012-.844,0-1.1.256-1.1,1.1q0,3.817,0,7.635c0,.145.015.29.023.452H17.6c.024-.054.047-.08.047-.106,0-2.754.014-5.509,0-8.263a.737.737,0,0,0-.788-.8c-1.373-.024-2.747-.008-4.236-.008M1.52,77.23a4.194,4.194,0,0,0,.23.7,1.585,1.585,0,0,0,1.54.807q7.459-.006,14.917-.006a2.434,2.434,0,0,0,.664-.084,1.408,1.408,0,0,0,1.035-1.421Z" transform="translate(0 -35.783)" fill="#31313c"/>
          <path id="Trazado_153985" data-name="Trazado 153985" d="M93.55,95.68h2.733c.584,0,1.168-.005,1.752,0a1.508,1.508,0,0,1,1.645,1.57c.022,2.5.014,5,.005,7.5,0,.553-.3.882-.745.892s-.772-.333-.783-.905c-.015-.763,0-1.528-.012-2.291a.755.755,0,0,0-.164-.478c-1.419-1.439-2.853-2.864-4.285-4.292a.676.676,0,0,0-.147-.061v.488q0,3.213,0,6.425a3.131,3.131,0,0,1-.015.449.711.711,0,0,1-.686.657.671.671,0,0,1-.768-.545,7.056,7.056,0,0,1-.088-.969H86.216a2.366,2.366,0,0,1-2.636-2.637q0-4.268,0-8.536a2.372,2.372,0,0,1,2.634-2.641c1.573,0,3.146.028,4.717-.008a2.4,2.4,0,0,1,2.627,2.609c-.052.895-.01,1.795-.01,2.771m-6.557-3.829c.193.2.3.321.416.435q1.381,1.38,2.764,2.759c.261.261.447.585.233.921a1,1,0,0,1-.648.446,1.119,1.119,0,0,1-.725-.348c-1.168-1.138-2.312-2.3-3.465-3.454-.1-.1-.214-.2-.4-.367v7.244h6.844c0-2.311.005-4.585-.005-6.858a.717.717,0,0,0-.767-.768c-1.373-.023-2.746-.008-4.25-.008m-1.871,9.232c0,.274-.018.5,0,.72a.762.762,0,0,0,.816.78q2.626.023,5.252,0A.747.747,0,0,0,92,101.9a8.147,8.147,0,0,0,.005-.817Zm10.487-3.848,2.517,2.507V97.235Z" transform="translate(-55.198 -59.636)" fill="#31313c"/>
          <path id="Trazado_153986" data-name="Trazado 153986" d="M100.389,33.348q0-5.617,0-11.234a2.31,2.31,0,0,0-1.672-2.424,3.821,3.821,0,0,0-.976-.109c-2.052-.01-4.1,0-6.156-.006a3.008,3.008,0,0,1-.537-.026.7.7,0,0,1-.618-.715.685.685,0,0,1,.541-.731,1.815,1.815,0,0,1,.487-.059c2.142,0,4.284-.013,6.425,0a3.8,3.8,0,0,1,3.89,2.9,4.57,4.57,0,0,1,.143,1.2q.012,11.212,0,22.422a2.033,2.033,0,0,1-.055.532.685.685,0,0,1-.771.541.7.7,0,0,1-.688-.648,3.182,3.182,0,0,1-.016-.493q0-5.572,0-11.144" transform="translate(-59.721 -11.912)" fill="#31313c"/>
          <path id="Trazado_153987" data-name="Trazado 153987" d="M20.752,9.012c.868,0,1.737-.007,2.6,0a.8.8,0,0,1,.88.664c.07.5-.3.861-.893.863-1.572.006-3.143,0-4.715,0-.12,0-.24,0-.359,0a.824.824,0,0,0-.918.919c-.015.658,0,1.317-.006,1.976-.006.586-.281.927-.74.942s-.782-.35-.791-.948c-.009-.658-.013-1.318,0-1.976a2.329,2.329,0,0,1,2.467-2.444c.823-.008,1.647,0,2.47,0" transform="translate(-10.439 -5.95)" fill="#31313c"/>
          <path id="Trazado_153988" data-name="Trazado 153988" d="M8.3,31.659A6.815,6.815,0,0,1,13.08,33.6a.751.751,0,0,1,.168,1.009.7.7,0,0,1-.9.295,1.424,1.424,0,0,1-.437-.306,5.338,5.338,0,0,0-7.266.009c-.461.4-.906.422-1.225.061s-.229-.805.218-1.209a6.806,6.806,0,0,1,4.659-1.8" transform="translate(-2.137 -20.908)" fill="#31313c"/>
          <path id="Trazado_153989" data-name="Trazado 153989" d="M93.357,35.438c0,.478.009.957,0,1.436a.767.767,0,1,1-1.524-.009c-.01-.867-.014-1.735,0-2.6a.924.924,0,0,0-.59-.957,5,5,0,0,1-.6-.308.756.756,0,0,1,.677-1.352c1.3.541,2.128,1.185,2.038,2.94-.015.284,0,.568,0,.852" transform="translate(-59.599 -20.856)" fill="#31313c"/>
          <path id="Trazado_153990" data-name="Trazado 153990" d="M15.326,42.218c.011.7-.658,1.117-1.133.744a2.567,2.567,0,0,0-3.578.011.7.7,0,0,1-.965-.16.766.766,0,0,1,.081-1.055,3.822,3.822,0,0,1,4.277-.72,6.655,6.655,0,0,1,1.124.8.934.934,0,0,1,.195.379" transform="translate(-6.258 -26.863)" fill="#31313c"/>
          <path id="Trazado_153991" data-name="Trazado 153991" d="M17.346,61.453c0,.6.009,1.195,0,1.792-.01.522-.287.835-.723.854a.76.76,0,0,1-.8-.83q-.029-1.837,0-3.674a.77.77,0,0,1,.8-.835c.437.019.714.331.724.855.012.612,0,1.225,0,1.837" transform="translate(-10.439 -38.806)" fill="#31313c"/>
          <path id="Trazado_153992" data-name="Trazado 153992" d="M69.741,118.989c-.359,0-.72.016-1.078,0a.765.765,0,0,1-.815-.774.746.746,0,0,1,.827-.751q1.078-.019,2.156,0a.745.745,0,0,1,.817.717.777.777,0,0,1-.784.809.877.877,0,0,1-.09,0H69.741Z" transform="translate(-44.808 -77.567)" fill="#31313c"/>
          <path id="Trazado_153993" data-name="Trazado 153993" d="M17.378,50.5a.766.766,0,0,1-.738.752.784.784,0,0,1-.77-.771.763.763,0,0,1,.746-.743.742.742,0,0,1,.763.762" transform="translate(-10.481 -32.845)" fill="#31313c"/>
          <path id="Trazado_153994" data-name="Trazado 153994" d="M65.621,15.835a2.293,2.293,0,1,1-4.587,0,2.293,2.293,0,0,1,4.587,0m-2.307-.749a.782.782,0,0,0-.744.8.759.759,0,0,0,1.516-.074.777.777,0,0,0-.772-.723" transform="translate(-40.308 -8.943)" fill="#31313c"/>
        </g>
      </g>
    </g>
    <g id="Grupo_158746" data-name="Grupo 158746" transform="translate(-9484 -12004)">
      <ellipse id="Elipse_4770" data-name="Elipse 4770" cx="32.5" cy="32" rx="32.5" ry="32" transform="translate(777 7082)" fill="#fd9827"/>
      <g id="Grupo_158745" data-name="Grupo 158745" transform="translate(791 7094)">
        <g id="Grupo_158744" data-name="Grupo 158744" clip-path="url(#clip-path-4)">
          <path id="Trazado_153995" data-name="Trazado 153995" d="M19.109,0c.842.153,1.7.25,2.523.469a13.749,13.749,0,0,1,10.09,11.808,11.207,11.207,0,0,1-.392,4.817,6.3,6.3,0,0,1-1.884,2.833c-.087.075-.169.157-.31.288.593-.124,1.107-.238,1.624-.339A2.41,2.41,0,0,1,33.684,22.2c.011.342,0,.684,0,1.066l.45.023A2.239,2.239,0,0,1,36.3,25.455c.023.554.023,1.11,0,1.664a2.24,2.24,0,0,1-1.963,2.149c-.2.027-.394.035-.646.057v.417q0,2.834,0,5.667a2.455,2.455,0,0,1-2.093,2.623q-5.762,1.253-11.526,2.489a4.113,4.113,0,0,1-.548.061,21.231,21.231,0,0,1-6.457-.735c-2.763-.638-5.541-1.212-8.314-1.806a2.472,2.472,0,0,1-2.122-2.6q0-2.834,0-5.668v-.444c-.242-.022-.45-.033-.655-.061A2.238,2.238,0,0,1,.019,27.15c-.027-.567-.025-1.137,0-1.7A2.242,2.242,0,0,1,2.187,23.29l.44-.024c0-.33,0-.642,0-.955A2.412,2.412,0,0,1,5.6,19.883c.5.1,1,.208,1.548.323a1.455,1.455,0,0,0-.136-.157,6.815,6.815,0,0,1-2.47-5.209A13.626,13.626,0,0,1,10.937,2.109,12.7,12.7,0,0,1,16.826.069a2.326,2.326,0,0,0,.3-.07ZM8.279,19.48a64.4,64.4,0,0,1-.037-7.717c.023-.472-.038-.947-.031-1.421A7.717,7.717,0,0,1,8.3,9,6.851,6.851,0,0,1,11.7,4.4a12.383,12.383,0,0,1,9.153-1.5A10.028,10.028,0,0,1,26.377,5.8a5.976,5.976,0,0,1,1.768,4.592c-.021.381-.061.763-.051,1.143.032,1.241.088,2.481.123,3.722.014.486-.226.766-.606.758-.365-.008-.568-.273-.58-.745-.026-1.03-.067-2.059-.079-3.09a4.987,4.987,0,0,0-.874-2.985,8.112,8.112,0,0,0-4.2-2.888c-.091-.03-.273.087-.357.184-.867.992-1.684,2.031-2.594,2.982a7.783,7.783,0,0,1-2.712,1.888,1.942,1.942,0,0,1-2.2-.211c-.694.623-1.338,1.267-2.05,1.822a3.2,3.2,0,0,1-2.581.652,1.824,1.824,0,0,0-.027.223c.023,1.65.005,3.3.093,4.95a6.485,6.485,0,0,0,.5,1.771.715.715,0,0,0,.463.346c1.052.251,2.117.445,3.167.7a18.475,18.475,0,0,0,5.831.655,3.5,3.5,0,0,0,.47-.05c2.025-.433,4.05-.863,6.071-1.318a.851.851,0,0,0,.484-.383,5.325,5.325,0,0,0,.544-2.606c.008-.47.254-.724.623-.711s.575.283.559.755-.047.96-.073,1.487c.1-.064.169-.1.23-.145a5.146,5.146,0,0,0,2.048-3.149,11.954,11.954,0,0,0-.889-7.613A12.314,12.314,0,0,0,11.912,2.922c-4.43,2.67-6.421,6.739-6.181,11.892a6.178,6.178,0,0,0,.939,3.073,5.02,5.02,0,0,0,1.61,1.593m8.874,4c0,.529,0,1.041,0,1.552,0,.7.006,1.4-.011,2.1a.525.525,0,0,1-.556.55.546.546,0,0,1-.6-.506,2.3,2.3,0,0,1-.018-.395c0-1.017-.009-2.034,0-3.051,0-.277-.053-.412-.36-.478-3.431-.73-6.857-1.483-10.286-2.22A1.224,1.224,0,0,0,3.82,22.2c-.016.316.008.634-.009.951a.458.458,0,0,0,.262.471,2.169,2.169,0,0,1,1.083,1.907c.01.5.008,1,0,1.505a2.179,2.179,0,0,1-1.078,1.911.476.476,0,0,0-.267.465c.009,2.021,0,4.041.006,6.062a1.269,1.269,0,0,0,1.134,1.386q3.944.853,7.887,1.71c1.026.222,2.052.441,3.126.671v-.515q0-4.457,0-8.915a1.929,1.929,0,0,1,.046-.509.579.579,0,0,1,1.119.06,2.833,2.833,0,0,1,.021.474q0,4.537,0,9.074v.454h1.986V23.481Zm3.2,15.729a.613.613,0,0,0,.131.013q5.489-1.187,10.977-2.379A1.234,1.234,0,0,0,32.5,35.537c.006-2.046,0-4.093.008-6.14a.442.442,0,0,0-.248-.435,2.205,2.205,0,0,1-1.1-1.979c0-.488,0-.977,0-1.466a1.912,1.912,0,0,1,.815-1.679,1.061,1.061,0,0,0,.528-1.173c-.013-.117,0-.238,0-.356a1.231,1.231,0,0,0-1.6-1.253c-3.376.728-6.751,1.463-10.13,2.179-.341.072-.43.21-.429.545q.016,7.507.008,15.013Zm.1-33.265a1.985,1.985,0,0,0-.327-.077,32.511,32.511,0,0,0-3.314-.062,9.408,9.408,0,0,0-5.084,1.9,5.117,5.117,0,0,0-2.31,4.366c.008.279.1.424.351.38a3.4,3.4,0,0,0,1.27-.327,8.969,8.969,0,0,0,1.636-1.414,16.2,16.2,0,0,0,1.242-1.686c.245-.347.526-.459.833-.3A.609.609,0,0,1,15,9.544c-.043.124-.091.248-.123.375-.094.371.014.531.389.452a3.521,3.521,0,0,0,1.1-.411,14.664,14.664,0,0,0,4.091-4.015M3.968,26.311c0-.264.01-.528,0-.79a1.046,1.046,0,0,0-1.03-1.04,6.2,6.2,0,0,0-.632,0,1.063,1.063,0,0,0-1.1,1.1c-.014.474-.013.949,0,1.423A1.067,1.067,0,0,0,2.258,28.1a4.018,4.018,0,0,0,.71-.007,1.055,1.055,0,0,0,1-1.074c.009-.237,0-.474,0-.712m31.146-.023c0-.237.008-.474,0-.711a1.069,1.069,0,0,0-1.1-1.1c-.2-.009-.4-.009-.593,0a1.05,1.05,0,0,0-1.072,1.08q-.018.731,0,1.462a1.049,1.049,0,0,0,1,1.077,4.018,4.018,0,0,0,.71.008A1.073,1.073,0,0,0,35.113,27c.009-.237,0-.474,0-.712M25.984,7.221a6.253,6.253,0,0,0-2.086-1.9,11.446,11.446,0,0,0-8.608-1.15,8.563,8.563,0,0,0-4.6,2.625c-.083.094-.154.2-.23.3,4.163-3.493,11.535-3.425,15.525.129" transform="translate(0 0.001)"/>
          <path id="Trazado_153996" data-name="Trazado 153996" d="M63.052,73.053a2.742,2.742,0,0,1-2.37-1.409.619.619,0,0,1,.143-.9c.316-.2.639-.083.884.307a1.522,1.522,0,0,0,2.684.016c.254-.4.562-.518.879-.332.332.195.387.542.132.963a2.737,2.737,0,0,1-2.352,1.361" transform="translate(-44.879 -52.357)"/>
          <path id="Trazado_153997" data-name="Trazado 153997" d="M48.162,56.885a1.555,1.555,0,0,1,.241.128.551.551,0,0,1,.233.722.525.525,0,0,1-.711.332,3.689,3.689,0,0,0-2.051-.233.527.527,0,0,1-.612-.49.57.57,0,0,1,.465-.673c.141-.033.286-.05.43-.069.128-.016.258-.025.317-.03a9.652,9.652,0,0,1,.148-1.194.745.745,0,0,1,.716-.634.733.733,0,0,1,.741.652,10.861,10.861,0,0,1,.084,1.489" transform="translate(-33.538 -40.574)"/>
          <path id="Trazado_153998" data-name="Trazado 153998" d="M82.593,56.813a1.893,1.893,0,0,1-.05-1.489.783.783,0,0,1,.72-.587.72.72,0,0,1,.708.59,9.514,9.514,0,0,1,.171,1.237c.162.022.42.05.675.094a.592.592,0,1,1-.166,1.17,3.211,3.211,0,0,0-1.894.214.573.573,0,0,1-.774-.272.6.6,0,0,1,.294-.8c.091-.052.188-.092.317-.155" transform="translate(-60.717 -40.568)"/>
          <path id="Trazado_153999" data-name="Trazado 153999" d="M96.69,95.756a.559.559,0,0,1,.6.483.574.574,0,0,1-.5.69c-.886.206-1.776.394-2.666.586q-1.759.38-3.519.756c-.116.025-.232.054-.349.069a.588.588,0,0,1-.708-.471.57.57,0,0,1,.465-.674c.627-.153,1.261-.281,1.892-.419q2.241-.489,4.483-.977c.1-.022.209-.031.3-.044" transform="translate(-66.361 -70.969)"/>
          <path id="Trazado_154000" data-name="Trazado 154000" d="M90.172,106.9a.574.574,0,0,1-.63-.5.588.588,0,0,1,.523-.675c1-.228,2.009-.441,3.014-.659l3.247-.7a2.5,2.5,0,0,1,.273-.046.574.574,0,0,1,.681.451.556.556,0,0,1-.437.689c-.73.177-1.467.325-2.2.486q-2.087.456-4.173.912c-.1.023-.209.033-.3.046" transform="translate(-66.356 -77.31)"/>
        </g>
      </g>
    </g>
  </g>
</svg>
