<svg xmlns="http://www.w3.org/2000/svg" xmlns:xlink="http://www.w3.org/1999/xlink" width="97" height="97" viewBox="0 0 97 97">
  <defs>
    <clipPath id="clip-path">
      <rect id="Rect치ngulo_35249" data-name="Rect치ngulo 35249" width="86.425" height="86.726" fill="#fd9827"/>
    </clipPath>
  </defs>
  <g id="Grupo_158210" data-name="Grupo 158210" transform="translate(-1225 -5743)">
    <rect id="Rect치ngulo_35228" data-name="Rect치ngulo 35228" width="97" height="97" transform="translate(1225 5743)" fill="none"/>
    <g id="Grupo_158209" data-name="Grupo 158209" transform="translate(1229.575 5748)">
      <g id="Grupo_158208" data-name="Grupo 158208" clip-path="url(#clip-path)">
        <path id="Trazado_153116" data-name="Trazado 153116" d="M81.5,86.726H1.885C.419,86.05,0,84.887,0,83.314Q.047,43.184.023,3.053C.023.962.976.014,3.076.014Q24.541.013,46.007,0a3.752,3.752,0,0,1,2.852,1.193q8,8.046,16.047,16.044A3.743,3.743,0,0,1,66.1,20.087c-.029,8.353-.015,16.707-.015,25.06V46.1c.274-.147.4-.212.517-.279a10.914,10.914,0,0,1,16.254,8.037,58.27,58.27,0,0,1,.157,7.352,1.02,1.02,0,0,0,.552,1,5.589,5.589,0,0,1,2.83,4.906q.066,6.9,0,13.8a5.564,5.564,0,0,1-2.684,4.82,15.206,15.206,0,0,1-2.212.987M2.136,84.763H58.842V82.836c0-4.771-.01-9.542,0-14.313A5.936,5.936,0,0,1,61.65,63.28a1.436,1.436,0,0,0,.761-1.406q-.029-19.958-.014-39.915v-.994H61.313q-6.8,0-13.6,0c-2.071,0-3.1-1.036-3.1-3.122q0-6.846,0-13.691V1.763H2.136Zm70.245-1.81q4.548,0,9.1,0c1.354,0,1.59-.238,1.591-1.6q0-7.389,0-14.778c0-1.33-.246-1.591-1.506-1.591q-9.144,0-18.286,0c-1.224,0-1.493.27-1.494,1.5q-.005,7.49,0,14.978c0,1.224.275,1.491,1.5,1.493q4.547.006,9.095,0M79.9,61.288c0-2.378.03-4.673-.007-6.967A6.916,6.916,0,0,0,73.6,47.528a6.659,6.659,0,0,0-7.313,5.6,66.466,66.466,0,0,0-.066,8.162ZM46.273,2.721c0,3.513.123,10.9.183,14.348a1.911,1.911,0,0,0,1.884,1.877l14.858.216S50.914,7.362,46.273,2.721" transform="translate(0 0)" fill="#fd9827"/>
        <path id="Trazado_153117" data-name="Trazado 153117" d="M95.193,99.634c0-.563-.021-1.126,0-1.688a2.532,2.532,0,0,1,5.063,0c.037,1.18.042,2.364,0,3.544a2.531,2.531,0,0,1-5.059,0c-.032-.617-.005-1.237-.006-1.856" transform="translate(-25.355 -25.43)" fill="#fd9827"/>
        <path id="Trazado_153118" data-name="Trazado 153118" d="M33.417,64.287a1.117,1.117,0,0,1-1.1-1.129V40.524H27.306V63.158a1.1,1.1,0,1,1-2.21,0V39.4a1.117,1.117,0,0,1,1.1-1.129h7.223a1.117,1.117,0,0,1,1.1,1.129V63.158a1.117,1.117,0,0,1-1.1,1.129Z" transform="translate(-6.685 -10.193)" fill="#fd9827"/>
        <path id="Trazado_153119" data-name="Trazado 153119" d="M43.256,53.611H36.028a1.129,1.129,0,0,1-.02-2.258h7.244a1.129,1.129,0,0,1,.02,2.258h-.016Z" transform="translate(-9.3 -13.679)" fill="#fd9827"/>
        <path id="Trazado_153120" data-name="Trazado 153120" d="M53.105,59.807A1.117,1.117,0,0,1,52,58.678V23.709H46.987V58.678a1.105,1.105,0,1,1-2.21.02V22.579a1.117,1.117,0,0,1,1.1-1.13h7.224a1.117,1.117,0,0,1,1.1,1.13v36.1A1.117,1.117,0,0,1,53.105,59.807Z" transform="translate(-11.927 -5.713)" fill="#fd9827"/>
        <path id="Trazado_153121" data-name="Trazado 153121" d="M54.816,58.995H12.993a1.117,1.117,0,0,1-1.1-1.129V19.177a1.1,1.1,0,1,1,2.209-.021v37.58H54.816a1.13,1.13,0,0,1,0,2.258" transform="translate(-3.167 -4.805)" fill="#fd9827"/>
        <path id="Trazado_153122" data-name="Trazado 153122" d="M8.373,16.312a1.117,1.117,0,0,1-1.106-1.128,1.141,1.141,0,0,1,.325-.8l3.462-3.54a1.086,1.086,0,0,1,1.561,0l3.315,3.387a1.146,1.146,0,0,1-.023,1.6,1.087,1.087,0,0,1-1.541,0l-2.534-2.589L9.149,15.979a1.092,1.092,0,0,1-.777.333" transform="translate(-1.936 -2.8)" fill="#fd9827"/>
        <path id="Trazado_153123" data-name="Trazado 153123" d="M72.288,75.116a1.117,1.117,0,0,1-1.1-1.13,1.138,1.138,0,0,1,.323-.8l2.533-2.59-2.683-2.742a1.147,1.147,0,0,1-.02-1.6,1.088,1.088,0,0,1,1.563-.021l.021.021,3.463,3.54a1.145,1.145,0,0,1,0,1.6l-3.314,3.387a1.093,1.093,0,0,1-.783.331" transform="translate(-18.919 -17.56)" fill="#fd9827"/>
        <path id="Trazado_153124" data-name="Trazado 153124" d="M54.873,86.813H11.489a1.1,1.1,0,1,1,0-2.2H54.873a1.1,1.1,0,1,1,0,2.2" transform="translate(-2.767 -22.538)" fill="#fd9827"/>
        <path id="Trazado_153125" data-name="Trazado 153125" d="M54.873,95.189H11.489a1.1,1.1,0,0,1,0-2.2H54.873a1.1,1.1,0,0,1,0,2.2" transform="translate(-2.767 -24.77)" fill="#fd9827"/>
        <path id="Trazado_153126" data-name="Trazado 153126" d="M41.454,103H11.489a1.1,1.1,0,1,1,0-2.2H41.454a1.1,1.1,0,1,1,0,2.2" transform="translate(-2.767 -26.851)" fill="#fd9827"/>
      </g>
    </g>
  </g>
</svg>
