<svg xmlns="http://www.w3.org/2000/svg" xmlns:xlink="http://www.w3.org/1999/xlink" width="120" height="120" viewBox="0 0 120 120">
  <defs>
    <clipPath id="clip-path">
      <rect id="Rect치ngulo_35063" data-name="Rect치ngulo 35063" width="96.786" height="97.124" fill="#fd9827"/>
    </clipPath>
  </defs>
  <g id="Grupo_158231" data-name="Grupo 158231" transform="translate(6306 3854)">
    <g id="Grupo_158223" data-name="Grupo 158223" transform="translate(-6294 -3843)">
      <g id="Grupo_158030" data-name="Grupo 158030" clip-path="url(#clip-path)">
        <path id="Trazado_152208" data-name="Trazado 152208" d="M91.267,97.123H2.111C.469,96.367,0,95.064,0,93.3Q.053,48.362.025,3.419c0-2.341,1.067-3.4,3.419-3.4Q27.483.015,51.523,0a4.2,4.2,0,0,1,3.193,1.336q8.957,9.011,17.97,17.967A4.192,4.192,0,0,1,74.022,22.5c-.032,9.354-.017,18.71-.017,28.064v1.068c.306-.165.444-.237.579-.312a12.223,12.223,0,0,1,18.2,9,65.258,65.258,0,0,1,.176,8.233,1.142,1.142,0,0,0,.618,1.123,6.259,6.259,0,0,1,3.17,5.494q.074,7.727,0,15.454a6.231,6.231,0,0,1-3.005,5.4,17.028,17.028,0,0,1-2.477,1.106M4.2,93.512H65.9v-.744c0-5.343-.011-10.685,0-16.029a6.647,6.647,0,0,1,3.143-5.872,1.609,1.609,0,0,0,.852-1.574q-.032-22.35-.016-44.7V23.479H68.663q-7.617,0-15.235,0c-2.319,0-3.467-1.16-3.469-3.5q0-7.667,0-15.332V3.617H4.2ZM81.059,92.9q5.093,0,10.186,0c1.516,0,1.781-.267,1.782-1.8q0-8.275,0-16.55c0-1.49-.275-1.782-1.687-1.782q-10.24,0-20.479,0c-1.37,0-1.672.3-1.673,1.683q-.006,8.387,0,16.773c0,1.37.308,1.67,1.685,1.672q5.092.006,10.185,0m8.415-24.262c0-2.664.034-5.233-.007-7.8a7.746,7.746,0,0,0-7.047-7.608A7.458,7.458,0,0,0,74.229,59.5a74.435,74.435,0,0,0-.074,9.141ZM51.821,3.048c0,3.934.137,12.2.205,16.068a2.14,2.14,0,0,0,2.11,2.1l16.639.242S57.017,8.245,51.821,3.048" transform="translate(0 0)" fill="#fd9827"/>
        <path id="Trazado_152209" data-name="Trazado 152209" d="M29.208,71.018q-6.677,0-13.354,0a1.833,1.833,0,0,1-1.8-2.587,1.81,1.81,0,0,1,1.768-1.087h5.33q10.688,0,21.378,0A1.838,1.838,0,0,1,44.373,69.9,1.865,1.865,0,0,1,42.5,71.022q-6.064-.011-12.128,0H29.208" transform="translate(-2.475 -12.015)" fill="#fd9827"/>
        <path id="Trazado_152215" data-name="Trazado 152215" d="M30.384,71.3q-7.189,0-14.378,0a1.974,1.974,0,0,1-1.942-2.786,1.949,1.949,0,0,1,1.9-1.17h5.738q11.508,0,23.018,0A1.979,1.979,0,0,1,46.713,70.1,2.008,2.008,0,0,1,44.7,71.3q-6.53-.012-13.059,0H30.384" transform="translate(-2.475 -22.743)" fill="#fd9827"/>
        <path id="Trazado_152216" data-name="Trazado 152216" d="M29.208,71.018q-6.677,0-13.354,0a1.833,1.833,0,0,1-1.8-2.587,1.81,1.81,0,0,1,1.768-1.087h5.33q10.688,0,21.378,0A1.838,1.838,0,0,1,44.373,69.9,1.865,1.865,0,0,1,42.5,71.022q-6.064-.011-12.128,0H29.208" transform="translate(-2.475 -33.47)" fill="#fd9827"/>
        <path id="Trazado_152217" data-name="Trazado 152217" d="M29.208,71.018q-6.677,0-13.354,0a1.833,1.833,0,0,1-1.8-2.587,1.81,1.81,0,0,1,1.768-1.087h5.33q10.688,0,21.378,0A1.838,1.838,0,0,1,44.373,69.9,1.865,1.865,0,0,1,42.5,71.022q-6.064-.011-12.128,0H29.208" transform="translate(-2.475 -44.416)" fill="#fd9827"/>
        <path id="Trazado_152210" data-name="Trazado 152210" d="M31,80.665q7.462,0,14.923,0a2.049,2.049,0,0,1,2.048,2.825,1.985,1.985,0,0,1-1.932,1.278c-1.346.015-2.692,0-4.038,0q-12.8,0-25.6,0a4.229,4.229,0,0,1-.885-.051,2.048,2.048,0,0,1,.494-4.053q6.879-.014,13.759,0H31" transform="translate(-2.477 -14.392)" fill="#fd9827"/>
        <path id="Trazado_152211" data-name="Trazado 152211" d="M27.576,94.252c3.818,0,7.636-.011,11.454,0a2.165,2.165,0,1,1-.094,4.323q-6.375-.007-12.75,0c-3.338,0-6.675.01-10.013,0A2.151,2.151,0,0,1,14.1,95.5a2.192,2.192,0,0,1,2.168-1.255c3.77.01,7.54,0,11.31,0" transform="translate(-2.476 -16.816)" fill="#fd9827"/>
        <path id="Trazado_152212" data-name="Trazado 152212" d="M66.414,41.746c-1.467,0-2.933.008-4.4,0a2.284,2.284,0,1,1,.03-4.556q4.363-.011,8.724,0a2.288,2.288,0,1,1-.03,4.556c-1.441.007-2.883,0-4.324,0" transform="translate(-10.629 -6.634)" fill="#fd9827"/>
        <path id="Trazado_152213" data-name="Trazado 152213" d="M66.4,52.847c-1.467,0-2.933.009-4.4,0a2.281,2.281,0,1,1-.024-4.554q4.438-.016,8.875,0a2.278,2.278,0,1,1,.024,4.552c-1.492.016-2.984,0-4.476,0" transform="translate(-10.629 -8.615)" fill="#fd9827"/>
        <path id="Trazado_152214" data-name="Trazado 152214" d="M95.195,100.133c0-.63-.023-1.261,0-1.89a2.836,2.836,0,0,1,5.671,0c.042,1.322.047,2.647,0,3.969a2.835,2.835,0,0,1-5.666,0c-.035-.691-.006-1.385-.007-2.079" transform="translate(-16.983 -17.033)" fill="#fd9827"/>
      </g>
    </g>
    <rect id="Rect치ngulo_35250" data-name="Rect치ngulo 35250" width="120" height="120" transform="translate(-6306 -3854)" fill="none"/>
  </g>
</svg>
