<svg xmlns="http://www.w3.org/2000/svg" xmlns:xlink="http://www.w3.org/1999/xlink" width="452.698" height="159.442" viewBox="0 0 452.698 159.442">
  <defs>
    <clipPath id="clip-path">
      <rect id="Rect치ngulo_34881" data-name="Rect치ngulo 34881" width="195.942" height="99.96" fill="#785549"/>
    </clipPath>
  </defs>
  <g id="Grupo_159242" data-name="Grupo 159242" transform="translate(-219 -8287.014)">
    <g id="Grupo_158318" data-name="Grupo 158318" transform="translate(219 8287.014)">
      <g id="Grupo_157916" data-name="Grupo 157916" transform="translate(0 0)">
        <g id="Enmascarar_grupo_63" data-name="Enmascarar grupo 63" opacity="0.311" clip-path="url(#clip-path)">
          <path id="Trazado_151731" data-name="Trazado 151731" d="M93.295,39.282a54.013,54.013,0,1,0,54.013,54.013A54.074,54.074,0,0,0,93.295,39.282M93.295,0A93.295,93.295,0,1,1,0,93.295,93.295,93.295,0,0,1,93.295,0Z" transform="translate(4.047 -93.295)" fill="#785549"/>
        </g>
        <path id="Trazado_145968" data-name="Trazado 145968" d="M40.14,80.281A40.14,40.14,0,1,0,0,40.14,40.14,40.14,0,0,0,40.14,80.281Z" transform="translate(372.417 79.16)" fill="#31313c" opacity="0.444" style="mix-blend-mode: multiply;isolation: isolate"/>
        <g id="Grupo_78276" data-name="Grupo 78276" transform="translate(323.191 32.879)">
          <g id="Grupo_53306" data-name="Grupo 53306" transform="translate(0 91.947)">
            <path id="Trazado_99200" data-name="Trazado 99200" d="M416.4,51.269a1.094,1.094,0,1,0-1.093,1.044A1.07,1.07,0,0,0,416.4,51.269Z" transform="translate(-414.214 -50.224)" fill="#fff"/>
            <path id="Trazado_99201" data-name="Trazado 99201" d="M424.845,51.269a1.094,1.094,0,1,0-1.092,1.044A1.069,1.069,0,0,0,424.845,51.269Z" transform="translate(-412.827 -50.224)" fill="#fff"/>
            <path id="Trazado_99202" data-name="Trazado 99202" d="M433.291,51.269a1.094,1.094,0,1,0-1.092,1.044A1.069,1.069,0,0,0,433.291,51.269Z" transform="translate(-411.441 -50.224)" fill="#fff"/>
            <path id="Trazado_99203" data-name="Trazado 99203" d="M441.738,51.269a1.094,1.094,0,1,0-1.093,1.044A1.07,1.07,0,0,0,441.738,51.269Z" transform="translate(-410.054 -50.224)" fill="#fff"/>
            <path id="Trazado_99204" data-name="Trazado 99204" d="M450.184,51.269a1.094,1.094,0,1,0-1.092,1.044A1.069,1.069,0,0,0,450.184,51.269Z" transform="translate(-408.667 -50.224)" fill="#fff"/>
            <path id="Trazado_99205" data-name="Trazado 99205" d="M458.63,51.269a1.094,1.094,0,1,0-1.092,1.044A1.069,1.069,0,0,0,458.63,51.269Z" transform="translate(-407.28 -50.224)" fill="#fff"/>
            <path id="Trazado_99206" data-name="Trazado 99206" d="M467.077,51.269a1.094,1.094,0,1,0-1.093,1.044A1.07,1.07,0,0,0,467.077,51.269Z" transform="translate(-405.894 -50.224)" fill="#fff"/>
            <path id="Trazado_99207" data-name="Trazado 99207" d="M475.523,51.269a1.094,1.094,0,1,0-1.092,1.044A1.069,1.069,0,0,0,475.523,51.269Z" transform="translate(-404.507 -50.224)" fill="#fff"/>
            <path id="Trazado_99208" data-name="Trazado 99208" d="M483.969,51.269a1.094,1.094,0,1,0-1.092,1.044A1.069,1.069,0,0,0,483.969,51.269Z" transform="translate(-403.12 -50.224)" fill="#fff"/>
            <path id="Trazado_99209" data-name="Trazado 99209" d="M492.416,51.269a1.094,1.094,0,1,0-1.093,1.044A1.07,1.07,0,0,0,492.416,51.269Z" transform="translate(-401.733 -50.224)" fill="#fff"/>
            <path id="Trazado_99210" data-name="Trazado 99210" d="M500.862,51.269a1.094,1.094,0,1,0-1.093,1.044A1.069,1.069,0,0,0,500.862,51.269Z" transform="translate(-400.347 -50.224)" fill="#fff"/>
          </g>
          <g id="Grupo_53307" data-name="Grupo 53307" transform="translate(0 83.588)">
            <path id="Trazado_99211" data-name="Trazado 99211" d="M416.4,58.777a1.094,1.094,0,1,0-1.093,1.044A1.07,1.07,0,0,0,416.4,58.777Z" transform="translate(-414.214 -57.732)" fill="#fff"/>
            <path id="Trazado_99212" data-name="Trazado 99212" d="M424.845,58.777a1.094,1.094,0,1,0-1.092,1.044A1.069,1.069,0,0,0,424.845,58.777Z" transform="translate(-412.827 -57.732)" fill="#fff"/>
            <path id="Trazado_99213" data-name="Trazado 99213" d="M433.291,58.777a1.094,1.094,0,1,0-1.092,1.044A1.069,1.069,0,0,0,433.291,58.777Z" transform="translate(-411.441 -57.732)" fill="#fff"/>
            <path id="Trazado_99214" data-name="Trazado 99214" d="M441.738,58.777a1.094,1.094,0,1,0-1.093,1.044A1.07,1.07,0,0,0,441.738,58.777Z" transform="translate(-410.054 -57.732)" fill="#fff"/>
            <path id="Trazado_99215" data-name="Trazado 99215" d="M450.184,58.777a1.094,1.094,0,1,0-1.092,1.044A1.069,1.069,0,0,0,450.184,58.777Z" transform="translate(-408.667 -57.732)" fill="#fff"/>
            <path id="Trazado_99216" data-name="Trazado 99216" d="M458.63,58.777a1.094,1.094,0,1,0-1.092,1.044A1.069,1.069,0,0,0,458.63,58.777Z" transform="translate(-407.28 -57.732)" fill="#fff"/>
            <path id="Trazado_99217" data-name="Trazado 99217" d="M467.077,58.777a1.094,1.094,0,1,0-1.093,1.044A1.07,1.07,0,0,0,467.077,58.777Z" transform="translate(-405.894 -57.732)" fill="#fff"/>
            <path id="Trazado_99218" data-name="Trazado 99218" d="M475.523,58.777a1.094,1.094,0,1,0-1.092,1.044A1.069,1.069,0,0,0,475.523,58.777Z" transform="translate(-404.507 -57.732)" fill="#fff"/>
            <path id="Trazado_99219" data-name="Trazado 99219" d="M483.969,58.777a1.094,1.094,0,1,0-1.092,1.044A1.069,1.069,0,0,0,483.969,58.777Z" transform="translate(-403.12 -57.732)" fill="#fff"/>
            <path id="Trazado_99220" data-name="Trazado 99220" d="M492.416,58.777a1.094,1.094,0,1,0-1.093,1.044A1.07,1.07,0,0,0,492.416,58.777Z" transform="translate(-401.733 -57.732)" fill="#fff"/>
            <path id="Trazado_99221" data-name="Trazado 99221" d="M500.862,58.777a1.094,1.094,0,1,0-1.093,1.044A1.069,1.069,0,0,0,500.862,58.777Z" transform="translate(-400.347 -57.732)" fill="#fff"/>
          </g>
          <g id="Grupo_53308" data-name="Grupo 53308" transform="translate(0 75.229)">
            <ellipse id="Elipse_3955" data-name="Elipse 3955" cx="1.093" cy="1.045" rx="1.093" ry="1.045" transform="translate(0 0)" fill="#fff"/>
            <path id="Trazado_99222" data-name="Trazado 99222" d="M424.845,66.285a1.094,1.094,0,1,0-1.092,1.044A1.07,1.07,0,0,0,424.845,66.285Z" transform="translate(-412.827 -65.24)" fill="#fff"/>
            <ellipse id="Elipse_3956" data-name="Elipse 3956" cx="1.093" cy="1.045" rx="1.093" ry="1.045" transform="translate(19.666 0)" fill="#fff"/>
            <path id="Trazado_99223" data-name="Trazado 99223" d="M441.738,66.285a1.094,1.094,0,1,0-1.093,1.044A1.07,1.07,0,0,0,441.738,66.285Z" transform="translate(-410.054 -65.24)" fill="#fff"/>
            <path id="Trazado_99224" data-name="Trazado 99224" d="M450.184,66.285a1.094,1.094,0,1,0-1.092,1.044A1.07,1.07,0,0,0,450.184,66.285Z" transform="translate(-408.667 -65.24)" fill="#fff"/>
            <ellipse id="Elipse_3957" data-name="Elipse 3957" cx="1.093" cy="1.045" rx="1.093" ry="1.045" transform="translate(49.165 0)" fill="#fff"/>
            <path id="Trazado_99225" data-name="Trazado 99225" d="M467.077,66.285a1.094,1.094,0,1,0-1.093,1.044A1.071,1.071,0,0,0,467.077,66.285Z" transform="translate(-405.893 -65.24)" fill="#fff"/>
            <ellipse id="Elipse_3958" data-name="Elipse 3958" cx="1.093" cy="1.045" rx="1.093" ry="1.045" transform="translate(68.831 0)" fill="#fff"/>
            <ellipse id="Elipse_3959" data-name="Elipse 3959" cx="1.093" cy="1.045" rx="1.093" ry="1.045" transform="translate(78.664 0)" fill="#fff"/>
            <path id="Trazado_99226" data-name="Trazado 99226" d="M492.416,66.285a1.094,1.094,0,1,0-1.093,1.044A1.071,1.071,0,0,0,492.416,66.285Z" transform="translate(-401.733 -65.24)" fill="#fff"/>
            <path id="Trazado_99227" data-name="Trazado 99227" d="M500.862,66.285a1.094,1.094,0,1,0-1.093,1.044A1.07,1.07,0,0,0,500.862,66.285Z" transform="translate(-400.347 -65.24)" fill="#fff"/>
          </g>
          <g id="Grupo_53309" data-name="Grupo 53309" transform="translate(0 66.871)">
            <ellipse id="Elipse_3960" data-name="Elipse 3960" cx="1.093" cy="1.045" rx="1.093" ry="1.045" fill="#fff"/>
            <path id="Trazado_99228" data-name="Trazado 99228" d="M424.845,73.791a1.094,1.094,0,1,0-1.092,1.045A1.069,1.069,0,0,0,424.845,73.791Z" transform="translate(-412.827 -72.747)" fill="#fff"/>
            <ellipse id="Elipse_3961" data-name="Elipse 3961" cx="1.093" cy="1.045" rx="1.093" ry="1.045" transform="translate(19.666)" fill="#fff"/>
            <path id="Trazado_99229" data-name="Trazado 99229" d="M441.738,73.791a1.094,1.094,0,1,0-1.093,1.045A1.069,1.069,0,0,0,441.738,73.791Z" transform="translate(-410.054 -72.747)" fill="#fff"/>
            <path id="Trazado_99230" data-name="Trazado 99230" d="M450.184,73.791a1.094,1.094,0,1,0-1.092,1.045A1.069,1.069,0,0,0,450.184,73.791Z" transform="translate(-408.667 -72.747)" fill="#fff"/>
            <ellipse id="Elipse_3962" data-name="Elipse 3962" cx="1.093" cy="1.045" rx="1.093" ry="1.045" transform="translate(49.165)" fill="#fff"/>
            <path id="Trazado_99231" data-name="Trazado 99231" d="M467.077,73.791a1.094,1.094,0,1,0-1.093,1.045A1.07,1.07,0,0,0,467.077,73.791Z" transform="translate(-405.893 -72.747)" fill="#fff"/>
            <ellipse id="Elipse_3963" data-name="Elipse 3963" cx="1.093" cy="1.045" rx="1.093" ry="1.045" transform="translate(68.831)" fill="#fff"/>
            <ellipse id="Elipse_3964" data-name="Elipse 3964" cx="1.093" cy="1.045" rx="1.093" ry="1.045" transform="translate(78.664)" fill="#fff"/>
            <path id="Trazado_99232" data-name="Trazado 99232" d="M492.416,73.791a1.094,1.094,0,1,0-1.093,1.045A1.07,1.07,0,0,0,492.416,73.791Z" transform="translate(-401.733 -72.747)" fill="#fff"/>
            <path id="Trazado_99233" data-name="Trazado 99233" d="M500.862,73.791a1.094,1.094,0,1,0-1.093,1.045A1.069,1.069,0,0,0,500.862,73.791Z" transform="translate(-400.347 -72.747)" fill="#fff"/>
          </g>
          <g id="Grupo_53310" data-name="Grupo 53310" transform="translate(0 58.512)">
            <path id="Trazado_99234" data-name="Trazado 99234" d="M416.4,81.3a1.094,1.094,0,1,0-1.093,1.045A1.069,1.069,0,0,0,416.4,81.3Z" transform="translate(-414.214 -80.255)" fill="#fff"/>
            <path id="Trazado_99235" data-name="Trazado 99235" d="M424.845,81.3a1.094,1.094,0,1,0-1.092,1.045A1.069,1.069,0,0,0,424.845,81.3Z" transform="translate(-412.827 -80.255)" fill="#fff"/>
            <path id="Trazado_99236" data-name="Trazado 99236" d="M433.291,81.3a1.094,1.094,0,1,0-1.092,1.045A1.069,1.069,0,0,0,433.291,81.3Z" transform="translate(-411.441 -80.255)" fill="#fff"/>
            <path id="Trazado_99237" data-name="Trazado 99237" d="M441.738,81.3a1.094,1.094,0,1,0-1.093,1.045A1.069,1.069,0,0,0,441.738,81.3Z" transform="translate(-410.054 -80.255)" fill="#fff"/>
            <path id="Trazado_99238" data-name="Trazado 99238" d="M450.184,81.3a1.094,1.094,0,1,0-1.092,1.045A1.069,1.069,0,0,0,450.184,81.3Z" transform="translate(-408.667 -80.255)" fill="#fff"/>
            <path id="Trazado_99239" data-name="Trazado 99239" d="M458.63,81.3a1.094,1.094,0,1,0-1.092,1.045A1.069,1.069,0,0,0,458.63,81.3Z" transform="translate(-407.28 -80.255)" fill="#fff"/>
            <path id="Trazado_99240" data-name="Trazado 99240" d="M467.077,81.3a1.094,1.094,0,1,0-1.093,1.045A1.07,1.07,0,0,0,467.077,81.3Z" transform="translate(-405.894 -80.255)" fill="#fff"/>
            <path id="Trazado_99241" data-name="Trazado 99241" d="M475.523,81.3a1.094,1.094,0,1,0-1.092,1.045A1.069,1.069,0,0,0,475.523,81.3Z" transform="translate(-404.507 -80.255)" fill="#fff"/>
            <path id="Trazado_99242" data-name="Trazado 99242" d="M483.969,81.3a1.094,1.094,0,1,0-1.092,1.045A1.069,1.069,0,0,0,483.969,81.3Z" transform="translate(-403.12 -80.255)" fill="#fff"/>
            <path id="Trazado_99243" data-name="Trazado 99243" d="M492.416,81.3a1.094,1.094,0,1,0-1.093,1.045A1.07,1.07,0,0,0,492.416,81.3Z" transform="translate(-401.733 -80.255)" fill="#fff"/>
            <path id="Trazado_99244" data-name="Trazado 99244" d="M500.862,81.3a1.094,1.094,0,1,0-1.093,1.045A1.069,1.069,0,0,0,500.862,81.3Z" transform="translate(-400.347 -80.255)" fill="#fff"/>
          </g>
          <g id="Grupo_53311" data-name="Grupo 53311" transform="translate(0 50.153)">
            <ellipse id="Elipse_3965" data-name="Elipse 3965" cx="1.093" cy="1.045" rx="1.093" ry="1.045" fill="#fff"/>
            <path id="Trazado_99245" data-name="Trazado 99245" d="M424.845,88.807a1.094,1.094,0,1,0-1.092,1.045A1.069,1.069,0,0,0,424.845,88.807Z" transform="translate(-412.827 -87.763)" fill="#fff"/>
            <ellipse id="Elipse_3966" data-name="Elipse 3966" cx="1.093" cy="1.045" rx="1.093" ry="1.045" transform="translate(19.666)" fill="#fff"/>
            <path id="Trazado_99246" data-name="Trazado 99246" d="M441.738,88.807a1.094,1.094,0,1,0-1.093,1.045A1.069,1.069,0,0,0,441.738,88.807Z" transform="translate(-410.054 -87.763)" fill="#fff"/>
            <path id="Trazado_99247" data-name="Trazado 99247" d="M450.184,88.807a1.094,1.094,0,1,0-1.092,1.045A1.069,1.069,0,0,0,450.184,88.807Z" transform="translate(-408.667 -87.763)" fill="#fff"/>
            <ellipse id="Elipse_3967" data-name="Elipse 3967" cx="1.093" cy="1.045" rx="1.093" ry="1.045" transform="translate(49.165)" fill="#fff"/>
            <path id="Trazado_99248" data-name="Trazado 99248" d="M467.077,88.807a1.094,1.094,0,1,0-1.093,1.045A1.07,1.07,0,0,0,467.077,88.807Z" transform="translate(-405.893 -87.763)" fill="#fff"/>
            <ellipse id="Elipse_3968" data-name="Elipse 3968" cx="1.093" cy="1.045" rx="1.093" ry="1.045" transform="translate(68.831)" fill="#fff"/>
            <ellipse id="Elipse_3969" data-name="Elipse 3969" cx="1.093" cy="1.045" rx="1.093" ry="1.045" transform="translate(78.664)" fill="#fff"/>
            <path id="Trazado_99249" data-name="Trazado 99249" d="M492.416,88.807a1.094,1.094,0,1,0-1.093,1.045A1.07,1.07,0,0,0,492.416,88.807Z" transform="translate(-401.733 -87.763)" fill="#fff"/>
            <path id="Trazado_99250" data-name="Trazado 99250" d="M500.862,88.807a1.094,1.094,0,1,0-1.093,1.045A1.069,1.069,0,0,0,500.862,88.807Z" transform="translate(-400.347 -87.763)" fill="#fff"/>
          </g>
          <g id="Grupo_53312" data-name="Grupo 53312" transform="translate(0 41.794)">
            <ellipse id="Elipse_3970" data-name="Elipse 3970" cx="1.093" cy="1.045" rx="1.093" ry="1.045" transform="translate(0 0)" fill="#fff"/>
            <path id="Trazado_99251" data-name="Trazado 99251" d="M424.845,96.316a1.094,1.094,0,1,0-1.092,1.044A1.069,1.069,0,0,0,424.845,96.316Z" transform="translate(-412.827 -95.271)" fill="#fff"/>
            <ellipse id="Elipse_3971" data-name="Elipse 3971" cx="1.093" cy="1.045" rx="1.093" ry="1.045" transform="translate(19.666 0)" fill="#fff"/>
            <path id="Trazado_99252" data-name="Trazado 99252" d="M441.738,96.316a1.094,1.094,0,1,0-1.093,1.044A1.07,1.07,0,0,0,441.738,96.316Z" transform="translate(-410.054 -95.271)" fill="#fff"/>
            <path id="Trazado_99253" data-name="Trazado 99253" d="M450.184,96.316a1.094,1.094,0,1,0-1.092,1.044A1.069,1.069,0,0,0,450.184,96.316Z" transform="translate(-408.667 -95.271)" fill="#fff"/>
            <ellipse id="Elipse_3972" data-name="Elipse 3972" cx="1.093" cy="1.045" rx="1.093" ry="1.045" transform="translate(49.165 0)" fill="#fff"/>
            <path id="Trazado_99254" data-name="Trazado 99254" d="M467.077,96.316a1.094,1.094,0,1,0-1.093,1.044A1.07,1.07,0,0,0,467.077,96.316Z" transform="translate(-405.893 -95.271)" fill="#fff"/>
            <ellipse id="Elipse_3973" data-name="Elipse 3973" cx="1.093" cy="1.045" rx="1.093" ry="1.045" transform="translate(68.831 0)" fill="#fff"/>
            <ellipse id="Elipse_3974" data-name="Elipse 3974" cx="1.093" cy="1.045" rx="1.093" ry="1.045" transform="translate(78.664 0)" fill="#fff"/>
            <path id="Trazado_99255" data-name="Trazado 99255" d="M492.416,96.316a1.094,1.094,0,1,0-1.093,1.044A1.07,1.07,0,0,0,492.416,96.316Z" transform="translate(-401.733 -95.271)" fill="#fff"/>
            <path id="Trazado_99256" data-name="Trazado 99256" d="M500.862,96.316a1.094,1.094,0,1,0-1.093,1.044A1.069,1.069,0,0,0,500.862,96.316Z" transform="translate(-400.347 -95.271)" fill="#fff"/>
          </g>
          <g id="Grupo_53313" data-name="Grupo 53313" transform="translate(0 33.436)">
            <path id="Trazado_99257" data-name="Trazado 99257" d="M416.4,103.825a1.094,1.094,0,1,0-1.093,1.044A1.07,1.07,0,0,0,416.4,103.825Z" transform="translate(-414.214 -102.779)" fill="#fff"/>
            <path id="Trazado_99258" data-name="Trazado 99258" d="M424.845,103.825a1.094,1.094,0,1,0-1.092,1.044A1.069,1.069,0,0,0,424.845,103.825Z" transform="translate(-412.827 -102.779)" fill="#fff"/>
            <path id="Trazado_99259" data-name="Trazado 99259" d="M433.291,103.825a1.094,1.094,0,1,0-1.092,1.044A1.069,1.069,0,0,0,433.291,103.825Z" transform="translate(-411.441 -102.779)" fill="#fff"/>
            <path id="Trazado_99260" data-name="Trazado 99260" d="M441.738,103.825a1.094,1.094,0,1,0-1.093,1.044A1.07,1.07,0,0,0,441.738,103.825Z" transform="translate(-410.054 -102.779)" fill="#fff"/>
            <path id="Trazado_99261" data-name="Trazado 99261" d="M450.184,103.825a1.094,1.094,0,1,0-1.092,1.044A1.069,1.069,0,0,0,450.184,103.825Z" transform="translate(-408.667 -102.779)" fill="#fff"/>
            <path id="Trazado_99262" data-name="Trazado 99262" d="M458.63,103.825a1.094,1.094,0,1,0-1.092,1.044A1.069,1.069,0,0,0,458.63,103.825Z" transform="translate(-407.28 -102.779)" fill="#fff"/>
            <path id="Trazado_99263" data-name="Trazado 99263" d="M467.077,103.825a1.094,1.094,0,1,0-1.093,1.044A1.07,1.07,0,0,0,467.077,103.825Z" transform="translate(-405.894 -102.779)" fill="#fff"/>
            <path id="Trazado_99264" data-name="Trazado 99264" d="M475.523,103.825a1.094,1.094,0,1,0-1.092,1.044A1.069,1.069,0,0,0,475.523,103.825Z" transform="translate(-404.507 -102.779)" fill="#fff"/>
            <path id="Trazado_99265" data-name="Trazado 99265" d="M483.969,103.825a1.094,1.094,0,1,0-1.092,1.044A1.069,1.069,0,0,0,483.969,103.825Z" transform="translate(-403.12 -102.779)" fill="#fff"/>
            <path id="Trazado_99266" data-name="Trazado 99266" d="M492.416,103.825a1.094,1.094,0,1,0-1.093,1.044A1.07,1.07,0,0,0,492.416,103.825Z" transform="translate(-401.733 -102.779)" fill="#fff"/>
            <path id="Trazado_99267" data-name="Trazado 99267" d="M500.862,103.825a1.094,1.094,0,1,0-1.093,1.044A1.069,1.069,0,0,0,500.862,103.825Z" transform="translate(-400.347 -102.779)" fill="#fff"/>
          </g>
          <g id="Grupo_53314" data-name="Grupo 53314" transform="translate(0 25.076)">
            <ellipse id="Elipse_3975" data-name="Elipse 3975" cx="1.093" cy="1.045" rx="1.093" ry="1.045" transform="translate(0 0)" fill="#fff"/>
            <path id="Trazado_99268" data-name="Trazado 99268" d="M424.845,111.332a1.094,1.094,0,1,0-1.092,1.044A1.07,1.07,0,0,0,424.845,111.332Z" transform="translate(-412.827 -110.287)" fill="#fff"/>
            <ellipse id="Elipse_3976" data-name="Elipse 3976" cx="1.093" cy="1.045" rx="1.093" ry="1.045" transform="translate(19.666 0)" fill="#fff"/>
            <path id="Trazado_99269" data-name="Trazado 99269" d="M441.738,111.332a1.094,1.094,0,1,0-1.093,1.044A1.07,1.07,0,0,0,441.738,111.332Z" transform="translate(-410.054 -110.287)" fill="#fff"/>
            <path id="Trazado_99270" data-name="Trazado 99270" d="M450.184,111.332a1.094,1.094,0,1,0-1.092,1.044A1.07,1.07,0,0,0,450.184,111.332Z" transform="translate(-408.667 -110.287)" fill="#fff"/>
            <ellipse id="Elipse_3977" data-name="Elipse 3977" cx="1.093" cy="1.045" rx="1.093" ry="1.045" transform="translate(49.165 0)" fill="#fff"/>
            <path id="Trazado_99271" data-name="Trazado 99271" d="M467.077,111.332a1.094,1.094,0,1,0-1.093,1.044A1.071,1.071,0,0,0,467.077,111.332Z" transform="translate(-405.893 -110.287)" fill="#fff"/>
            <ellipse id="Elipse_3978" data-name="Elipse 3978" cx="1.093" cy="1.045" rx="1.093" ry="1.045" transform="translate(68.831 0)" fill="#fff"/>
            <ellipse id="Elipse_3979" data-name="Elipse 3979" cx="1.093" cy="1.045" rx="1.093" ry="1.045" transform="translate(78.664 0)" fill="#fff"/>
            <path id="Trazado_99272" data-name="Trazado 99272" d="M492.416,111.332a1.094,1.094,0,1,0-1.093,1.044A1.071,1.071,0,0,0,492.416,111.332Z" transform="translate(-401.733 -110.287)" fill="#fff"/>
            <path id="Trazado_99273" data-name="Trazado 99273" d="M500.862,111.332a1.094,1.094,0,1,0-1.093,1.044A1.07,1.07,0,0,0,500.862,111.332Z" transform="translate(-400.347 -110.287)" fill="#fff"/>
          </g>
          <g id="Grupo_53315" data-name="Grupo 53315" transform="translate(0 16.718)">
            <path id="Trazado_99274" data-name="Trazado 99274" d="M416.4,118.839a1.094,1.094,0,1,0-1.093,1.045A1.07,1.07,0,0,0,416.4,118.839Z" transform="translate(-414.214 -117.794)" fill="#fff"/>
            <path id="Trazado_99275" data-name="Trazado 99275" d="M424.845,118.839a1.094,1.094,0,1,0-1.092,1.045A1.07,1.07,0,0,0,424.845,118.839Z" transform="translate(-412.827 -117.794)" fill="#fff"/>
            <path id="Trazado_99276" data-name="Trazado 99276" d="M433.291,118.839a1.094,1.094,0,1,0-1.092,1.045A1.07,1.07,0,0,0,433.291,118.839Z" transform="translate(-411.441 -117.794)" fill="#fff"/>
            <path id="Trazado_99277" data-name="Trazado 99277" d="M441.738,118.839a1.094,1.094,0,1,0-1.093,1.045A1.07,1.07,0,0,0,441.738,118.839Z" transform="translate(-410.054 -117.794)" fill="#fff"/>
            <path id="Trazado_99278" data-name="Trazado 99278" d="M450.184,118.839a1.094,1.094,0,1,0-1.092,1.045A1.07,1.07,0,0,0,450.184,118.839Z" transform="translate(-408.667 -117.794)" fill="#fff"/>
            <path id="Trazado_99279" data-name="Trazado 99279" d="M458.63,118.839a1.094,1.094,0,1,0-1.092,1.045A1.07,1.07,0,0,0,458.63,118.839Z" transform="translate(-407.28 -117.794)" fill="#fff"/>
            <path id="Trazado_99280" data-name="Trazado 99280" d="M467.077,118.839a1.094,1.094,0,1,0-1.093,1.045A1.071,1.071,0,0,0,467.077,118.839Z" transform="translate(-405.894 -117.794)" fill="#fff"/>
            <path id="Trazado_99281" data-name="Trazado 99281" d="M475.523,118.839a1.094,1.094,0,1,0-1.092,1.045A1.07,1.07,0,0,0,475.523,118.839Z" transform="translate(-404.507 -117.794)" fill="#fff"/>
            <path id="Trazado_99282" data-name="Trazado 99282" d="M483.969,118.839a1.094,1.094,0,1,0-1.092,1.045A1.07,1.07,0,0,0,483.969,118.839Z" transform="translate(-403.12 -117.794)" fill="#fff"/>
            <path id="Trazado_99283" data-name="Trazado 99283" d="M492.416,118.839a1.094,1.094,0,1,0-1.093,1.045A1.071,1.071,0,0,0,492.416,118.839Z" transform="translate(-401.733 -117.794)" fill="#fff"/>
            <path id="Trazado_99284" data-name="Trazado 99284" d="M500.862,118.839a1.094,1.094,0,1,0-1.093,1.045A1.07,1.07,0,0,0,500.862,118.839Z" transform="translate(-400.347 -117.794)" fill="#fff"/>
          </g>
          <g id="Grupo_53316" data-name="Grupo 53316" transform="translate(0 8.36)">
            <ellipse id="Elipse_3980" data-name="Elipse 3980" cx="1.093" cy="1.045" rx="1.093" ry="1.045" fill="#fff"/>
            <path id="Trazado_99285" data-name="Trazado 99285" d="M424.845,126.346a1.094,1.094,0,1,0-1.092,1.045A1.069,1.069,0,0,0,424.845,126.346Z" transform="translate(-412.827 -125.302)" fill="#fff"/>
            <ellipse id="Elipse_3981" data-name="Elipse 3981" cx="1.093" cy="1.045" rx="1.093" ry="1.045" transform="translate(19.666)" fill="#fff"/>
            <path id="Trazado_99286" data-name="Trazado 99286" d="M441.738,126.346a1.094,1.094,0,1,0-1.093,1.045A1.069,1.069,0,0,0,441.738,126.346Z" transform="translate(-410.054 -125.302)" fill="#fff"/>
            <path id="Trazado_99287" data-name="Trazado 99287" d="M450.184,126.346a1.094,1.094,0,1,0-1.092,1.045A1.069,1.069,0,0,0,450.184,126.346Z" transform="translate(-408.667 -125.302)" fill="#fff"/>
            <ellipse id="Elipse_3982" data-name="Elipse 3982" cx="1.093" cy="1.045" rx="1.093" ry="1.045" transform="translate(49.165)" fill="#fff"/>
            <path id="Trazado_99288" data-name="Trazado 99288" d="M467.077,126.346a1.094,1.094,0,1,0-1.093,1.045A1.07,1.07,0,0,0,467.077,126.346Z" transform="translate(-405.893 -125.302)" fill="#fff"/>
            <ellipse id="Elipse_3983" data-name="Elipse 3983" cx="1.093" cy="1.045" rx="1.093" ry="1.045" transform="translate(68.831)" fill="#fff"/>
            <ellipse id="Elipse_3984" data-name="Elipse 3984" cx="1.093" cy="1.045" rx="1.093" ry="1.045" transform="translate(78.664)" fill="#fff"/>
            <path id="Trazado_99289" data-name="Trazado 99289" d="M492.416,126.346a1.094,1.094,0,1,0-1.093,1.045A1.07,1.07,0,0,0,492.416,126.346Z" transform="translate(-401.733 -125.302)" fill="#fff"/>
            <path id="Trazado_99290" data-name="Trazado 99290" d="M500.862,126.346a1.094,1.094,0,1,0-1.093,1.045A1.069,1.069,0,0,0,500.862,126.346Z" transform="translate(-400.347 -125.302)" fill="#fff"/>
          </g>
          <g id="Grupo_53317" data-name="Grupo 53317" transform="translate(0)">
            <ellipse id="Elipse_3985" data-name="Elipse 3985" cx="1.093" cy="1.045" rx="1.093" ry="1.045" fill="#fff"/>
            <path id="Trazado_99291" data-name="Trazado 99291" d="M424.845,133.854a1.094,1.094,0,1,0-1.092,1.045A1.069,1.069,0,0,0,424.845,133.854Z" transform="translate(-412.827 -132.81)" fill="#fff"/>
            <ellipse id="Elipse_3986" data-name="Elipse 3986" cx="1.093" cy="1.045" rx="1.093" ry="1.045" transform="translate(19.666)" fill="#fff"/>
            <path id="Trazado_99292" data-name="Trazado 99292" d="M441.738,133.854a1.094,1.094,0,1,0-1.093,1.045A1.069,1.069,0,0,0,441.738,133.854Z" transform="translate(-410.054 -132.81)" fill="#fff"/>
            <path id="Trazado_99293" data-name="Trazado 99293" d="M450.184,133.854a1.094,1.094,0,1,0-1.092,1.045A1.069,1.069,0,0,0,450.184,133.854Z" transform="translate(-408.667 -132.81)" fill="#fff"/>
            <ellipse id="Elipse_3987" data-name="Elipse 3987" cx="1.093" cy="1.045" rx="1.093" ry="1.045" transform="translate(49.165)" fill="#fff"/>
            <path id="Trazado_99294" data-name="Trazado 99294" d="M467.077,133.854a1.094,1.094,0,1,0-1.093,1.045A1.07,1.07,0,0,0,467.077,133.854Z" transform="translate(-405.893 -132.81)" fill="#fff"/>
            <ellipse id="Elipse_3988" data-name="Elipse 3988" cx="1.093" cy="1.045" rx="1.093" ry="1.045" transform="translate(68.831)" fill="#fff"/>
            <ellipse id="Elipse_3989" data-name="Elipse 3989" cx="1.093" cy="1.045" rx="1.093" ry="1.045" transform="translate(78.664)" fill="#fff"/>
            <path id="Trazado_99295" data-name="Trazado 99295" d="M492.416,133.854a1.094,1.094,0,1,0-1.093,1.045A1.07,1.07,0,0,0,492.416,133.854Z" transform="translate(-401.733 -132.81)" fill="#fff"/>
            <path id="Trazado_99296" data-name="Trazado 99296" d="M500.862,133.854a1.094,1.094,0,1,0-1.093,1.045A1.069,1.069,0,0,0,500.862,133.854Z" transform="translate(-400.347 -132.81)" fill="#fff"/>
          </g>
        </g>
      </g>
    </g>
    <g id="Grupo_158748" data-name="Grupo 158748" transform="translate(219 8287.014)">
      <g id="Grupo_158749" data-name="Grupo 158749" transform="translate(0 0)">
        <path id="Trazado_154001" data-name="Trazado 154001" d="M292.543,27.609s23.854,33.087-1.362,48.3S267,69.1,267,69.1l15.848-41.495Z" transform="translate(-37.263 -3.853)"/>
        <path id="Trazado_154002" data-name="Trazado 154002" d="M260.88,66.745S247.845,68.61,239.4,83.953s-15.526,57.649-14.233,58.985,29.445,5.344,52.784,5.344,30.654-.891,32.9-2.227-7.373-63.29-20.3-69.036S274.749,62.15,260.88,66.745" transform="translate(-31.404 -9.14)" fill="#6876aa"/>
        <path id="Trazado_154003" data-name="Trazado 154003" d="M258.168,67.075s-20.479,32.106-24.525,52.882a285.491,285.491,0,0,0-4.83,35.482l74.414.461,1.332-56.522-20.349-31.76L275,62.955Z" transform="translate(-31.934 -8.786)" fill="#fd9827"/>
        <path id="Trazado_154004" data-name="Trazado 154004" d="M258.23,67.743S247.786,106.4,245.579,119.9a237.955,237.955,0,0,0-2.662,26.409l-13.654-2.039,5.214-31.7,18.635-40.553Z" transform="translate(-31.997 -9.454)" fill="#31313c"/>
        <path id="Trazado_154005" data-name="Trazado 154005" d="M253.86,67.711s-13.371-2.648-28.819,11.446-32.568,47.986-25.421,61.432c7.668,14.424,33.315,15.3,33.315,15.3l1.321-29.313,7.683-42.548Z" transform="translate(-27.626 -9.422)" fill="#31313c"/>
        <path id="Trazado_154006" data-name="Trazado 154006" d="M266.017,71.211a21.266,21.266,0,0,1-3.265-.223.54.54,0,0,1,.179-1.065c.089.015,8.972,1.421,15.673-3.645a.54.54,0,1,1,.651.862,22.086,22.086,0,0,1-13.238,4.071" transform="translate(-36.608 -9.234)" fill="#465884"/>
        <path id="Trazado_154007" data-name="Trazado 154007" d="M234.171,136.4a.6.6,0,0,1-.378-.134c-.086-.07-8.687-7.03-16.342-10.946a.6.6,0,0,1,.546-1.069c7.77,3.974,16.465,11.013,16.552,11.083a.6.6,0,0,1-.379,1.065" transform="translate(-30.303 -17.332)" fill="#465884"/>
        <path id="Trazado_154008" data-name="Trazado 154008" d="M280.238,54.076l-.161,14.117s-2.592,4.029-10.859,4.607c-6.158.43-8.07-2.752-8.07-2.752l1.631-12.337,14.951-3.11Z" transform="translate(-36.447 -7.547)" fill="#f48462"/>
        <path id="Trazado_154009" data-name="Trazado 154009" d="M277.844,54.686a4.662,4.662,0,0,1-.426,1.358c-3.24,7.016-11.893,8.437-15.45,8.715l.925-6.963Z" transform="translate(-36.561 -7.632)"/>
        <path id="Trazado_154010" data-name="Trazado 154010" d="M258.931,20.026s-7.611,17.616-4.8,27.483,11.8,8.276,17.18,6.344a17.822,17.822,0,0,0,7.864-5.244,7.594,7.594,0,0,0,8.383-3.006c3.345-4.692,1.251-10.056-1.626-11.275s-6.285.869-6.285.869l2.656-5.121s-11.37-25.924-23.37-10.049" transform="translate(-35.38 -2.076)" fill="#f48462"/>
        <path id="Trazado_154011" data-name="Trazado 154011" d="M284.521,46.318a.6.6,0,0,1-.385-1.06l5.622-4.707a.6.6,0,0,1,.77.92l-5.622,4.707a.593.593,0,0,1-.385.14" transform="translate(-39.625 -5.639)"/>
        <path id="Trazado_154012" data-name="Trazado 154012" d="M290.549,46.716a.594.594,0,0,1-.257-.059l-3.566-1.7a.6.6,0,1,1,.516-1.083l3.565,1.7a.6.6,0,0,1-.258,1.143" transform="translate(-39.969 -6.115)"/>
        <path id="Trazado_154013" data-name="Trazado 154013" d="M280.187,34.605a15.865,15.865,0,0,1-10.1-5.646,41.658,41.658,0,0,1-5.777-10.244,7.682,7.682,0,0,0-4.27,2.536c-1.221,1.536-2.653,3.764-2.653,3.764s-.179-7.119,3.387-10.632,6.646-2.316,6.646-2.316,7.841-4.511,15.874,2.536,4.344,19.9,4.344,19.9-4.059-1.593-7.449.1" transform="translate(-35.921 -1.485)"/>
        <path id="Trazado_154014" data-name="Trazado 154014" d="M260.025,44.816a.6.6,0,0,1-.58-.448,6.635,6.635,0,0,1,2.2-6.7.6.6,0,0,1,.744.942,5.433,5.433,0,0,0-1.78,5.456.6.6,0,0,1-.428.732.578.578,0,0,1-.152.02" transform="translate(-36.178 -5.238)"/>
        <path id="Trazado_154015" data-name="Trazado 154015" d="M256.862,37.58a.582.582,0,0,1-.115-.011.6.6,0,0,1-.476-.7l.832-4.324-.7-.816a.6.6,0,1,1,.911-.781l.888,1.036a.6.6,0,0,1,.133.5l-.886,4.608a.6.6,0,0,1-.588.487" transform="translate(-35.764 -4.289)"/>
        <path id="Trazado_154016" data-name="Trazado 154016" d="M268.578,39.061a.6.6,0,0,1-.592-.7l.767-4.448-.873-1.2a.6.6,0,1,1,.969-.707l1.024,1.4a.6.6,0,0,1,.108.456l-.811,4.7a.6.6,0,0,1-.591.5" transform="translate(-37.37 -4.432)"/>
        <path id="Trazado_154017" data-name="Trazado 154017" d="M257,28.628a.6.6,0,0,1-.1-1.192l3.03-.516a.6.6,0,1,1,.2,1.183l-3.03.516a.577.577,0,0,1-.1.009" transform="translate(-35.784 -3.755)"/>
        <path id="Trazado_154018" data-name="Trazado 154018" d="M271.534,29.889a.619.619,0,0,1-.157-.021l-5.693-1.543A.6.6,0,0,1,266,27.167l5.693,1.543a.6.6,0,0,1-.157,1.18" transform="translate(-37.018 -3.788)"/>
        <path id="Trazado_154019" data-name="Trazado 154019" d="M262.708,52.836c-2.2,0-3.382-2.685-3.431-2.8a.6.6,0,0,1,.026-.528.6.6,0,0,1,.435-.3l6.09-.924a.6.6,0,0,1,.552.209.6.6,0,0,1,.106.581c-.126.366-1.3,3.585-3.566,3.76-.071.005-.142.009-.211.009m-1.937-2.577a2.508,2.508,0,0,0,2.056,1.372c.887-.068,1.64-1.114,2.1-2Z" transform="translate(-36.179 -6.736)"/>
        <path id="Trazado_154020" data-name="Trazado 154020" d="M284.978,16.113s-.6-17.77,13.022-13.58,4.485,19.534-3.561,22.926-11.4-3.918-11.4-3.918Z" transform="translate(-39.502 -0.264)"/>
        <path id="Trazado_154021" data-name="Trazado 154021" d="M268.945,75.782a12.29,12.29,0,0,1-8.324-2.994.6.6,0,0,1,.858-.841c.268.273,6.717,6.578,18.069-1.15a.6.6,0,0,1,.675.992c-4.447,3.027-8.244,3.992-11.279,3.992" transform="translate(-36.349 -9.866)" fill="#465884"/>
        <path id="Trazado_154022" data-name="Trazado 154022" d="M143.536,111.32,163.2,162.952l-26.335-1.079-7.88-40.015Z" transform="translate(-18.002 -15.536)" fill="#f48462"/>
        <path id="Trazado_154023" data-name="Trazado 154023" d="M19.79,121.271S25.3,85.554,46.577,71.624s57.572-5.148,68.11,1.4c13.81,8.588,23.962,43.252,23.962,43.252l-16.5,15.568,2.679,23.742-74.844.12,1.368-34.621Z" transform="translate(-2.762 -8.961)" fill="#fdb768"/>
        <rect id="Rect치ngulo_35596" data-name="Rect치ngulo 35596" width="362.47" height="19.489" transform="translate(0 139.953)" fill="#785549"/>
        <path id="Trazado_154024" data-name="Trazado 154024" d="M259.45,105.3s-4.665-24.43-7.069-27.075-18.228-9.631-20.243-7.709.034,4.337.034,4.337-3.008-1.718-4.14.081,1.063,4.6,1.063,4.6-2.4-1.51-2.081,1.838,6.886,9.475,6.886,9.475a35.644,35.644,0,0,0,4.585,14.2c4.207,7.355,17.012,7.684,17.012,7.684Z" transform="translate(-31.679 -9.795)" fill="#f48462"/>
        <path id="Trazado_154025" data-name="Trazado 154025" d="M245.5,82.206a.584.584,0,0,1-.277-.068L232.686,75.6a.6.6,0,1,1,.556-1.064l12.541,6.541a.6.6,0,0,1-.278,1.132" transform="translate(-32.429 -10.392)"/>
        <path id="Trazado_154026" data-name="Trazado 154026" d="M241.608,89.229a.6.6,0,0,1-.318-.091l-12.271-7.683a.6.6,0,1,1,.637-1.017l12.272,7.683a.6.6,0,0,1-.319,1.108" transform="translate(-31.923 -11.213)"/>
        <path id="Trazado_154027" data-name="Trazado 154027" d="M106.419,18.62S111.533,4.78,104.036.449c-3.869-2.235-11.592,4.593-11.592,4.593s-12.915,2-16.213,8.244.111,15.216.111,15.216S81.051,26.551,84,27.221s22.42-8.6,22.42-8.6" transform="translate(-10.438 0)"/>
        <path id="Trazado_154028" data-name="Trazado 154028" d="M239.32,111.94s25.584,47.868,59.624,45.286,20.464-58.891,9.774-74.086-31.526-19.945-31.526-19.945l-.722,39.066L265.1,92.572Z" transform="translate(-33.4 -8.819)" fill="#31313c"/>
        <path id="Trazado_154029" data-name="Trazado 154029" d="M303.891,128.879a.6.6,0,0,1-.406-.158l-21.494-19.777a.6.6,0,0,1,.812-.884L304.3,127.837a.6.6,0,0,1-.406,1.042" transform="translate(-39.329 -15.059)"/>
        <path id="Trazado_154030" data-name="Trazado 154030" d="M307.008,121.637c-5.3,0-12.658-2.141-13.069-2.262a.6.6,0,0,1,.029-1.158c1.532-.368,15.046-3.522,17.919-.977a1.817,1.817,0,0,1,.62,1.629,2.532,2.532,0,0,1-1.189,1.88,8.164,8.164,0,0,1-4.311.888m-10.385-2.783c4.46,1.1,11.693,2.446,14.033.894a1.349,1.349,0,0,0,.659-1.018.62.62,0,0,0-.223-.592c-1.573-1.392-8.925-.433-14.469.716" transform="translate(-40.963 -16.225)"/>
        <path id="Trazado_154031" data-name="Trazado 154031" d="M84.974,50.345,85.419,63.5s2.782,3.751,11.409,4.275c6.427.39,8.635-.933,8.635-.933l-1.119-6.652-1.1-6.487L87.6,50.829Z" transform="translate(-11.859 -7.026)" fill="#f48462"/>
        <path id="Trazado_154032" data-name="Trazado 154032" d="M88.021,50.948a4.835,4.835,0,0,0,.459,1.411c3.458,7.282,12.5,8.667,16.213,8.917l-1.044-7.252Z" transform="translate(-12.284 -7.11)"/>
        <path id="Trazado_154033" data-name="Trazado 154033" d="M104.039,14.578s8.137,18.289,5.319,28.613S97.14,51.957,91.509,50a18.6,18.6,0,0,1-8.261-5.382,7.921,7.921,0,0,1-8.778-3.042C70.928,36.723,73.051,31.1,76.039,29.8s6.565.835,6.565.835l-2.828-5.312S91.343-1.845,104.039,14.578" transform="translate(-10.135 -1.298)" fill="#f48462"/>
        <path id="Trazado_154034" data-name="Trazado 154034" d="M82.41,43.061a.6.6,0,0,1-.436-.188l-4.983-5.28a.6.6,0,1,1,.872-.823l4.983,5.28a.6.6,0,0,1-.436,1.012" transform="translate(-10.722 -5.105)"/>
        <path id="Trazado_154035" data-name="Trazado 154035" d="M77.089,42.189A.6.6,0,0,1,77,41l3.447-.522a.6.6,0,1,1,.181,1.187l-3.448.522a.627.627,0,0,1-.089.007" transform="translate(-10.675 -5.647)"/>
        <path id="Trazado_154036" data-name="Trazado 154036" d="M98.672,35.156a.6.6,0,0,1-.595-.524l-.6-4.729a.6.6,0,1,1,1.191-.152l.6,4.729a.6.6,0,0,1-.52.671.583.583,0,0,1-.077.005" transform="translate(-13.603 -4.078)"/>
        <path id="Trazado_154037" data-name="Trazado 154037" d="M110.467,34.133a.6.6,0,0,1-.593-.513l-.683-4.643a.6.6,0,0,1,1.187-.175l.683,4.643a.6.6,0,0,1-.506.681.52.52,0,0,1-.089.007" transform="translate(-15.238 -3.948)"/>
        <path id="Trazado_154038" data-name="Trazado 154038" d="M94.875,26.536a.592.592,0,0,1-.274-.067.6.6,0,0,1-.26-.808c1.248-2.427,4.323-1.795,4.454-1.765a.6.6,0,0,1-.252,1.173c-.093-.019-2.308-.464-3.134,1.141a.6.6,0,0,1-.534.326" transform="translate(-13.157 -3.321)"/>
        <path id="Trazado_154039" data-name="Trazado 154039" d="M111.583,25.4a.6.6,0,0,1-.433-.183,3.408,3.408,0,0,0-3.4-.886.6.6,0,1,1-.409-1.129,4.612,4.612,0,0,1,4.676,1.185.6.6,0,0,1-.434,1.014" transform="translate(-14.925 -3.203)"/>
        <path id="Trazado_154040" data-name="Trazado 154040" d="M104.383,46.455a7.644,7.644,0,0,1-5.555-2.746.6.6,0,0,1,.909-.783,6.416,6.416,0,0,0,4.666,2.328.6.6,0,0,1,.034,1.2h-.055" transform="translate(-13.773 -5.961)"/>
        <path id="Trazado_154041" data-name="Trazado 154041" d="M105.6,16.436s-.064-1.9-4.055-1.982a8.63,8.63,0,0,0-6.36,2.7,10.919,10.919,0,0,1-4.489,9.54,14.455,14.455,0,0,1-8.991,3.147l-5.229-.933L75.8,22.131,84.7,8.955l19.055-6.07Z" transform="translate(-10.578 -0.402)"/>
        <path id="Trazado_154042" data-name="Trazado 154042" d="M111.6,36.557c-2.894,0-5.409-2.52-5.716-5.836-.323-3.491,1.923-6.563,5.006-6.848s5.854,2.323,6.177,5.814-1.924,6.564-5.006,6.849c-.155.014-.309.022-.461.022m-.248-11.506c-.116,0-.233.005-.351.016-2.425.224-4.183,2.71-3.922,5.542s2.443,4.948,4.871,4.731,4.183-2.71,3.922-5.543c-.25-2.695-2.24-4.746-4.52-4.746" transform="translate(-14.773 -3.328)" fill="#68b6d8"/>
        <path id="Trazado_154043" data-name="Trazado 154043" d="M94.892,39.207a6.364,6.364,0,1,1,.6-.028c-.2.018-.4.028-.6.028m.015-11.518c-.158,0-.318.007-.478.022a5.162,5.162,0,1,0,.478-.022" transform="translate(-12.358 -3.696)" fill="#68b6d8"/>
        <path id="Trazado_154044" data-name="Trazado 154044" d="M102.157,32.1a.6.6,0,0,1-.251-1.146c.244-.11,2.42-1.067,3.834-.283a.6.6,0,1,1-.583,1.05c-.747-.414-2.275.109-2.751.325a.6.6,0,0,1-.249.054" transform="translate(-14.173 -4.238)" fill="#68b6d8"/>
        <path id="Trazado_154045" data-name="Trazado 154045" d="M87.339,34.754a.6.6,0,0,1-.322-.094c-3.556-2.263-10.823-1.1-10.9-1.093a.6.6,0,0,1-.194-1.185c.317-.05,7.791-1.242,11.735,1.265a.6.6,0,0,1-.323,1.107" transform="translate(-10.526 -4.473)" fill="#68b6d8"/>
        <path id="Trazado_154046" data-name="Trazado 154046" d="M106.545,39.335a.6.6,0,0,1-.573-.778,5.493,5.493,0,0,0-1.538-5.528.6.6,0,0,1,.785-.909,6.639,6.639,0,0,1,1.9,6.791.6.6,0,0,1-.574.423" transform="translate(-14.546 -4.462)"/>
        <path id="Trazado_154047" data-name="Trazado 154047" d="M86.329,145.62l27.047,16.508a2.939,2.939,0,0,0,3.418-.564l36.544-36.839a1.671,1.671,0,0,0-.144-2.737l-27.047-16.507a2.937,2.937,0,0,0-3.418.563L86.185,142.883a1.671,1.671,0,0,0,.144,2.737" transform="translate(-11.939 -14.675)"/>
        <path id="Trazado_154048" data-name="Trazado 154048" d="M90.006,147.851l27.047,16.508a2.939,2.939,0,0,0,3.418-.564l36.544-36.839a1.671,1.671,0,0,0-.144-2.737l-27.047-16.507a2.936,2.936,0,0,0-3.418.564L89.862,145.114a1.671,1.671,0,0,0,.144,2.737" transform="translate(-12.452 -14.987)" fill="#31313c"/>
        <path id="Trazado_154049" data-name="Trazado 154049" d="M80.843,118c1.525-1.844,8.3-4.775,10.691-4.627,3.9.239,9.783.7,11.142,1.326,2.075.961,6.787,4.753,6.787,4.753l-1.941,2.749s17.92,9.356,16.471,13.046c-.988,2.512-8.938-1.086-8.938-1.086s7.951,4.406,6.57,7.161S110,139.744,110,139.744s7.9,5.069,3.711,6.316-32.748-6.6-34.245-15.01c-.985-5.53-1.47-9.6,1.381-13.046" transform="translate(-10.983 -15.822)" fill="#f48462"/>
        <path id="Trazado_154050" data-name="Trazado 154050" d="M23.017,128.639s-6.1,23.186,15.14,26.333,40.363-18.065,40.363-18.065l2.646-21.378L41.442,128.31Z" transform="translate(-3.099 -16.123)" fill="#f48462"/>
        <path id="Trazado_154051" data-name="Trazado 154051" d="M118.941,137.065a.594.594,0,0,1-.272-.065l-11.8-6.012a.6.6,0,1,1,.545-1.07l11.8,6.013a.6.6,0,0,1-.273,1.134" transform="translate(-14.869 -18.122)"/>
        <path id="Trazado_154052" data-name="Trazado 154052" d="M113.186,143.619a.586.586,0,0,1-.27-.065l-11.032-5.58a.6.6,0,0,1,.542-1.07l11.031,5.58a.6.6,0,0,1-.271,1.135" transform="translate(-14.173 -19.097)"/>
        <path id="Trazado_154053" data-name="Trazado 154053" d="M97.477,70.724a17.058,17.058,0,0,1-12.511-4.767.6.6,0,1,1,.856-.842c7.318,7.448,19.293,3.241,19.413,3.2a.6.6,0,0,1,.407,1.13,27.012,27.012,0,0,1-8.166,1.281" transform="translate(-11.834 -9.062)" fill="#31313c"/>
        <path id="Trazado_154054" data-name="Trazado 154054" d="M372.807,104.846s7.368-25.9,10.108-25.323-18.623,58.106-20.269,57.743,10.161-32.42,10.161-32.42" transform="translate(-50.59 -11.097)" fill="#465884"/>
        <path id="Trazado_154055" data-name="Trazado 154055" d="M365.765,136.05c-1.563.622-9.667-32.561-9.667-32.561s-4.038-12.417-5.615-20.3c-.694-3.444-.912-6.035-.131-6.353.521-.2,1.506,2,2.75,5.673,4.964,14.746,13.908,53.054,12.663,53.546" transform="translate(-48.827 -10.721)" fill="#a37b90"/>
        <path id="Trazado_154056" data-name="Trazado 154056" d="M371.133,145.156H355.911a2.016,2.016,0,0,1-1.981-1.725l-3.9-25.342a2.029,2.029,0,0,1,1.98-2.357h23.031a2.029,2.029,0,0,1,1.981,2.357l-3.9,25.342a2.016,2.016,0,0,1-1.981,1.725" transform="translate(-48.847 -16.152)" fill="#31313c"/>
        <path id="Trazado_154057" data-name="Trazado 154057" d="M353.1,82.5l-2.619.68c-.7-3.443-.912-6.034-.131-6.353.521-.2,1.506,2,2.75,5.673" transform="translate(-48.827 -10.72)" fill="#f7b369"/>
        <path id="Trazado_154058" data-name="Trazado 154058" d="M309.245,174.209h85.663a5.56,5.56,0,0,0,5.559-5.559v-.277a5.56,5.56,0,0,0-5.559-5.559H309.245Z" transform="translate(-43.159 -22.722)" fill="#b58868"/>
        <path id="Trazado_154059" data-name="Trazado 154059" d="M309.128,174.209h54.908a5.244,5.244,0,0,0,5.243-5.244v-.909a5.244,5.244,0,0,0-5.243-5.243H309.128a1.866,1.866,0,0,0-1.866,1.866v7.663a1.866,1.866,0,0,0,1.866,1.866" transform="translate(-42.882 -22.722)" fill="#785549"/>
        <path id="Trazado_154060" data-name="Trazado 154060" d="M307.262,172.326h55.925a3.568,3.568,0,0,0,3.568-3.568v-.1a3.568,3.568,0,0,0-3.568-3.568H307.262Z" transform="translate(-42.882 -23.04)" fill="#ece8ef"/>
        <path id="Trazado_154061" data-name="Trazado 154061" d="M380.675,161.015h-52.24a5.543,5.543,0,0,1,0-11.087h52.24a1.735,1.735,0,0,1,1.736,1.736v7.616a1.735,1.735,0,0,1-1.736,1.736" transform="translate(-45.064 -20.924)" fill="#ece8ef"/>
        <path id="Trazado_154062" data-name="Trazado 154062" d="M395.48,161.015H343.24a5.543,5.543,0,0,1,0-11.087h52.24a1.735,1.735,0,0,1,1.736,1.736v7.616a1.735,1.735,0,0,1-1.736,1.736" transform="translate(-47.13 -20.924)" fill="#c8bcce"/>
        <path id="Trazado_154063" data-name="Trazado 154063" d="M397.608,159.183H344.032a3.52,3.52,0,1,1,0-7.039h53.576Z" transform="translate(-47.523 -21.233)" fill="#fff"/>
        <path id="Trazado_154064" data-name="Trazado 154064" d="M181.4,110.961s-10.536-5.99-20.138-6.791a67.2,67.2,0,0,0-18,1.067l2.266,8.5Z" transform="translate(-19.994 -14.51)" fill="#eeedef"/>
        <path id="Trazado_154065" data-name="Trazado 154065" d="M185.885,110.725s5.068-4.118,15.47-6.119a107.37,107.37,0,0,1,20.272-1.758l1.867,9.733Z" transform="translate(-25.943 -14.352)" fill="#eeedef"/>
        <path id="Trazado_154066" data-name="Trazado 154066" d="M227.543,166.076H150.426l-9.074-55.465h77.13Z" transform="translate(-19.727 -15.437)" fill="#c8bcce"/>
        <path id="Trazado_154067" data-name="Trazado 154067" d="M197.878,166.076h-6.71L182.5,110.611h6.446Z" transform="translate(-25.471 -15.437)" fill="#ddd5e2"/>
        <path id="Trazado_154068" data-name="Trazado 154068" d="M228.921,175.576H151.8a.6.6,0,1,1,0-1.2h77.125a.6.6,0,0,1,0,1.2" transform="translate(-21.101 -24.336)" fill="#b1a5b7"/>
        <path id="Trazado_154069" data-name="Trazado 154069" d="M211.191,174.175a.6.6,0,0,1-.589-.49l-1.31-7.07a1.321,1.321,0,0,0-1.3-1.081H175.756a1.321,1.321,0,0,0-1.31,1.483l.8,6.484a.6.6,0,0,1-.522.669.61.61,0,0,1-.669-.521l-.8-6.484a2.524,2.524,0,0,1,2.5-2.832h32.238a2.521,2.521,0,0,1,2.479,2.062l1.31,7.07a.6.6,0,0,1-.591.709" transform="translate(-24.177 -22.934)" fill="#b1a5b7"/>
      </g>
    </g>
  </g>
</svg>
