<svg xmlns="http://www.w3.org/2000/svg" xmlns:xlink="http://www.w3.org/1999/xlink" width="120" height="120" viewBox="0 0 120 120">
  <defs>
    <clipPath id="clip-path">
      <rect id="Rect치ngulo_35587" data-name="Rect치ngulo 35587" width="85.35" height="95.174" fill="#fd9827"/>
    </clipPath>
  </defs>
  <g id="Grupo_159291" data-name="Grupo 159291" transform="translate(5229 5196)">
    <g id="Grupo_159284" data-name="Grupo 159284" transform="translate(-281 -309.867)">
      <g id="Grupo_159280" data-name="Grupo 159280" transform="translate(-4931 -4874.133)">
        <g id="Grupo_158734" data-name="Grupo 158734" clip-path="url(#clip-path)">
          <path id="Trazado_153966" data-name="Trazado 153966" d="M11.631,95.174a2.43,2.43,0,0,1-.807-2.124A39.429,39.429,0,0,1,13.3,79.234c.078-.2.154-.4.239-.6q.747-1.749,2.022-1.243c.831.327,1.042,1.137.569,2.282A34.48,34.48,0,0,0,13.662,91.7c-.006.184,0,.369,0,.622H24.19v-22.4a5.065,5.065,0,0,0-.861.53c-1.412,1.335-2.838,2.658-4.191,4.052-.758.78-1.483,1.038-2.162.537a1.431,1.431,0,0,1-.021-2.268c1.516-1.658,3.111-3.244,4.373-4.55-1.29-1.465-2.7-3.06-4.1-4.658A32.921,32.921,0,0,1,11.113,53.34a.987.987,0,0,0-1.1-.8,9.954,9.954,0,0,1-8.923-14.5,13.939,13.939,0,0,0,.649-2.957,55.874,55.874,0,0,1,1.74-6.911A34.27,34.27,0,0,0,5.521,17.861C6.034,9.076,13.759,1.13,22.505.2A34.47,34.47,0,0,1,26.026.015Q34.3-.013,42.568.009A40.85,40.85,0,0,1,67.714,8.458a6.4,6.4,0,0,1,.655.519,1.322,1.322,0,0,1,.225,1.841,1.352,1.352,0,0,1-1.894.34c-.75-.491-1.447-1.064-2.186-1.572A37.629,37.629,0,0,0,43.162,2.812C37.277,2.75,31.39,2.789,25.5,2.8A16.927,16.927,0,0,0,8.2,19.321a27.95,27.95,0,0,1-1.866,9.032c-.695,1.806-1.131,3.711-1.683,5.571L9.864,32.5c1.12-2.508,2.18-5.143,3.458-7.666a8.6,8.6,0,0,1,7.048-4.826,8.34,8.34,0,0,1,3.033.17,30.551,30.551,0,0,0,17.733-.805,82.632,82.632,0,0,1,13.8-3.643,41.2,41.2,0,0,1,6.364-.5,7.821,7.821,0,0,1,5.484,2.615A32.942,32.942,0,0,1,75,31.777c.2.692.485.9,1.23,1.015a43.288,43.288,0,0,1,4.35,1.08c-.172-.742-.344-1.626-.584-2.49a38.765,38.765,0,0,0-8.9-16.092c-.126-.137-.256-.271-.376-.413a1.392,1.392,0,0,1-.017-2.13,1.422,1.422,0,0,1,2.059.238,41.3,41.3,0,0,1,10.792,21.7,21.951,21.951,0,0,0,1.113,4.46,9.865,9.865,0,0,1-9.3,13.406c-.5,0-.84.023-1.051.6a33.1,33.1,0,0,1-7.923,12.314c-.107.106-.2.229-.336.391a8.024,8.024,0,0,1,1.548,5.6c-.055,3.064-.014,6.13-.014,9.256.253.067.481.129.71.189a7.236,7.236,0,0,1,.061,14.055c-.2.054-.393.143-.589.215ZM35.046,71.452c0-.575-.008-1.007,0-1.437A6.806,6.806,0,0,1,40.87,63.43a1.762,1.762,0,0,0,1.191-.67,3.652,3.652,0,0,1,1.771-1.213c1-.191,1.142-.634,1.175-1.538a6.272,6.272,0,0,1,7.584-6.1c2.986.577,4.955,3.077,5.034,6.464.015.658.134,1.007.888,1.08a2.023,2.023,0,0,1,1.393.629c.763,1.213,1.98,1.394,3.179,1.684a.265.265,0,0,1,.089.026c.48.322.813.138,1.2-.235a31.032,31.032,0,0,0,.516-43.665,6.192,6.192,0,0,0-4.838-1.964c-1.233.056-2.464.235-3.69.4a84.9,84.9,0,0,0-13.827,3.523c-3.881,1.213-7.816,2.3-11.918,2.08a74.73,74.73,0,0,1-7.982-1.091A6.357,6.357,0,0,0,15.9,25.882a28.407,28.407,0,0,0-4.038,12.431c-.9,12.309,3.782,22.024,13.933,29.052a28.175,28.175,0,0,0,9.247,4.087M41.457,66.2a3.926,3.926,0,0,0-3.622,4.032q-.021,8.916,0,17.833a4.036,4.036,0,0,0,4.377,4.315q7.941.009,15.883,0c.259,0,.517-.031.862-.052a7.327,7.327,0,0,1,5.819-11.677c0-3.672.069-7.291-.028-10.906A3.632,3.632,0,0,0,61.153,66.3c0,.49.023.984,0,1.476a3.072,3.072,0,0,1-3.112,3.151q-6.733.083-13.468,0a3.094,3.094,0,0,1-3.108-3.166c-.026-.488,0-.979,0-1.552M36.217,92.349c-1.176-2.572-1.176-2.572-1.176-5.52,0-3.872-.018-7.743.017-11.615.006-.689-.229-.9-.871-1.11-2.136-.714-4.231-1.551-6.341-2.344-.245-.092-.484-.2-.752-.309v20.9ZM51.274,68.16c2.041,0,4.083-.02,6.124.012.7.01,1.037-.186.986-.942a19.252,19.252,0,0,1,0-2.132c.027-.626-.136-.918-.854-1a3.01,3.01,0,0,1-2.636-2.807c-.054-.553-.03-1.114-.1-1.665a3.508,3.508,0,0,0-6.942-.145,12.785,12.785,0,0,0-.092,1.478,3.076,3.076,0,0,1-2.792,3.158c-.566.079-.742.305-.73.827.018.773.036,1.548-.005,2.319-.037.692.241.921.92.911,2.041-.03,4.082-.011,6.124-.011M65.509,92.381c.495,0,.866.012,1.237,0a4.46,4.46,0,0,0,4.289-4.195A4.3,4.3,0,0,0,67.5,83.639a10.972,10.972,0,0,0-3.766.024,4.372,4.372,0,0,0-2.479,7.01,4.607,4.607,0,0,0,4.254,1.708M9.413,35.609A7.033,7.033,0,0,0,2.8,43.06c.318,3.857,3.741,7.055,7.121,6.591a34.351,34.351,0,0,1-.513-14.042m66.512-.02a34.844,34.844,0,0,1-.491,14.064c3.4.421,6.758-2.716,7.1-6.548a7.055,7.055,0,0,0-6.607-7.517" transform="translate(0 0)" fill="#fd9827"/>
          <path id="Trazado_153967" data-name="Trazado 153967" d="M47.793,53.924a9.4,9.4,0,0,1,7.251.006c.1-.366.187-.678.26-.994a11.643,11.643,0,1,1,.015,5.2,2.1,2.1,0,0,0-1.468-1.677,6.48,6.48,0,0,0-4.8-.021,2.159,2.159,0,0,0-1.523,1.736,11.443,11.443,0,0,1-11.2,8.961,11.556,11.556,0,1,1,11.207-14.25c.077.327.159.654.254,1.043M36.269,64.342a8.767,8.767,0,1,0-8.755-8.751,8.789,8.789,0,0,0,8.755,8.751m30.264,0a8.766,8.766,0,1,0-8.766-8.832,8.784,8.784,0,0,0,8.766,8.832" transform="translate(-8.756 -15.582)" fill="#fd9827"/>
          <path id="Trazado_153968" data-name="Trazado 153968" d="M63.664,76.915A5.4,5.4,0,0,1,59.7,75.256a1.4,1.4,0,1,1,1.892-2.038c1.48,1.262,2.57,1.254,4.1-.031a1.4,1.4,0,0,1,1.994-.023,1.367,1.367,0,0,1-.043,1.993,5.317,5.317,0,0,1-3.979,1.759" transform="translate(-20.952 -25.771)" fill="#fd9827"/>
          <path id="Trazado_153969" data-name="Trazado 153969" d="M79.97,91.875a1.167,1.167,0,0,1-1.153,1.188,1.128,1.128,0,0,1-1.14-1.106,1.139,1.139,0,0,1,1.147-1.186,1.152,1.152,0,0,1,1.146,1.1" transform="translate(-27.511 -32.15)" fill="#fd9827"/>
          <path id="Trazado_153970" data-name="Trazado 153970" d="M43.61,61.142c0,.526.039,1.056-.01,1.578a1.261,1.261,0,0,1-1.3,1.212,1.174,1.174,0,0,1-1.348-1.022,21.124,21.124,0,0,1-.021-3.513,1.191,1.191,0,0,1,1.4-1.066,1.242,1.242,0,0,1,1.268,1.233c.041.523.008,1.052.008,1.578h0" transform="translate(-14.477 -20.659)" fill="#fd9827"/>
          <path id="Trazado_153971" data-name="Trazado 153971" d="M89.748,61.162a10.946,10.946,0,0,1-.014,1.575,1.278,1.278,0,0,1-1.416,1.189,1.265,1.265,0,0,1-1.3-1.312c-.034-.989-.032-1.982,0-2.972a1.267,1.267,0,0,1,1.286-1.319,1.327,1.327,0,0,1,1.448,1.262,14.121,14.121,0,0,1,.011,1.578h-.016" transform="translate(-30.814 -20.655)" fill="#fd9827"/>
        </g>
      </g>
    </g>
    <rect id="Rect치ngulo_35822" data-name="Rect치ngulo 35822" width="120" height="120" transform="translate(-5229 -5196)" fill="none"/>
  </g>
</svg>
