<svg xmlns="http://www.w3.org/2000/svg" xmlns:xlink="http://www.w3.org/1999/xlink" width="120" height="120" viewBox="0 0 120 120">
  <defs>
    <clipPath id="clip-path">
      <rect id="Rect치ngulo_35586" data-name="Rect치ngulo 35586" width="103.142" height="69.38" fill="#fd9827"/>
    </clipPath>
  </defs>
  <g id="Grupo_159290" data-name="Grupo 159290" transform="translate(5382 5196)">
    <g id="Grupo_159283" data-name="Grupo 159283" transform="translate(-102.66 -348.972)">
      <g id="Grupo_159277" data-name="Grupo 159277" transform="translate(-5271 -4822)">
        <g id="Grupo_158733" data-name="Grupo 158733" transform="translate(0 0)" clip-path="url(#clip-path)">
          <path id="Trazado_153955" data-name="Trazado 153955" d="M19.636,61.288V52.125c0-3.507.025-7.014-.026-10.521a2.7,2.7,0,0,0-.575-1.61c-2.016-2.321-4.122-4.562-6.15-6.873a1.078,1.078,0,0,0-1.627-.279c-2.129,1.242-4.293,2.427-6.469,3.586a1.418,1.418,0,0,0-.905,1.522c.062.731.009,1.471.014,2.207.012,1.571-.086,3.054,1.041,4.5.787,1.012.9,2.57,1.235,3.9a1.4,1.4,0,0,1-1.137,1.876A16.378,16.378,0,0,1,1.1,50.424C.3,50.33-.078,49.61.013,48.755a9.942,9.942,0,0,1,1.851-5.179,4.53,4.53,0,0,0,.471-1.268.293.293,0,0,0,0-.129c-.6-4.235.812-7.85,2.991-11.444,3.339-5.506,6.293-11.245,9.461-16.857a4.388,4.388,0,0,1,1.59-1.6C23.468,8.3,30.589,4.37,37.7.427a2.258,2.258,0,0,1,.683-.361c.384-.053.952-.142,1.131.06a1.265,1.265,0,0,1,0,1.137c-1.09,2.065-2.244,4.1-3.375,6.139-.144.261-.28.526-.461.869,2.548,2.3,5.157,4.515,7.585,6.912a4.639,4.639,0,0,0,3.648,1.378c12.691-.052,25.382-.031,38.074-.029,3.651,0,5.224,1.568,5.225,5.209q0,18.9,0,37.8v1.749h1.465c3.292,0,6.584-.006,9.876,0,1.474,0,1.816.229,1.47,1.663a40.338,40.338,0,0,1-1.793,4.823.693.693,0,0,1,.428.035c.484.207,1.317.458,1.335.736.063.958-.8.8-1.422.8-1.689.024-3.379.029-5.068.029q-41-.01-81.995-.015a7.785,7.785,0,0,1-5.112-1.53A6.873,6.873,0,0,1,6.75,62.825C6.658,61.717,7,61.25,8.177,61.27c3.291.053,6.584.018,9.876.018h1.584m64.9-27.007c0-2.932,0-5.655,0-8.377,0-1.6-.1-1.7-1.693-1.7q-19.677,0-39.353-.022a1.949,1.949,0,0,0-1.784.962,51.493,51.493,0,0,1-15.618,14.61,1.518,1.518,0,0,0-.781,1.583c.014,4.717,0,9.434.009,14.151,0,1.635.073,1.71,1.671,1.71q27.925,0,55.848,0c1.614,0,1.7-.086,1.7-1.681q0-9.218,0-18.435c0-.376-.045-.752-.075-1.241-1.931,0-3.786.055-5.634-.039-.454-.023-.882-.53-1.322-.814.436-.235.863-.655,1.308-.673,1.849-.077,3.7-.032,5.726-.032M21.255,61.124H88.647V59.752q0-18.965,0-37.93c0-2.861-.864-3.729-3.714-3.73q-19.3,0-38.6,0c-.464,0-.927.041-1.262.056l-1.553,4.491h1.569q19.038,0,38.076,0c1.96,0,2.914.84,2.918,2.663q.026,15.393,0,30.786a2.369,2.369,0,0,1-2.647,2.659c-1.473.023-2.946.006-4.418.006q-25.991,0-51.981,0c-2.6,0-3.286-.694-3.288-3.327q0-1.949,0-3.9v-10.6l-2.5.424ZM8.344,62.916A9.875,9.875,0,0,0,8.547,64c.75,2.414,2.819,3.8,5.709,3.8q40.4,0,80.806-.007a12.474,12.474,0,0,0,2.451-.224,5.027,5.027,0,0,0,3.891-4.649Zm5.243-31.335c2.306,2.557,4.523,5.092,6.85,7.523a2.149,2.149,0,0,0,1.869.43,22.347,22.347,0,0,0,4.665-2.156A49.212,49.212,0,0,0,39.178,25.855a41.971,41.971,0,0,0,3.8-6.43,2.642,2.642,0,0,0-.1-2.4c-2.531-2.517-5.234-4.861-7.959-7.335-.313.515-.544.868-.748,1.236-2.265,4.078-4.5,8.174-6.814,12.225a4.731,4.731,0,0,1-1.675,1.687c-3.974,2.272-7.993,4.466-12.1,6.743M36.936,2.723c-.525.241-.684.3-.832.384Q26.622,8.353,17.153,13.623a3.164,3.164,0,0,0-1.119,1.19q-4.315,7.7-8.57,15.428A8.752,8.752,0,0,0,7.1,31.1c2.276-1.952,4.326-4.062,6.444-6.1.3-.292.937-.241,1.418-.348-.117.481-.08,1.109-.376,1.421-1.818,1.915-3.713,3.758-5.575,5.631-.208.209-.372.463-.757.947.487-.207.646-.259.79-.338,5.3-2.935,10.6-5.861,15.877-8.832A3.425,3.425,0,0,0,26.115,22.2C28.576,17.824,31,13.429,33.432,9.042l3.5-6.318M1.294,49.068H4.885l-1.5-4.452-.613.035c-.453,1.348-.9,2.7-1.482,4.417" transform="translate(0 0)" fill="#fd9827"/>
          <path id="Trazado_153956" data-name="Trazado 153956" d="M89.842,7.549a4.734,4.734,0,1,1-4.717,4.705,4.763,4.763,0,0,1,4.717-4.705m0,1.564a3.167,3.167,0,1,0,3.233,3.192,3.2,3.2,0,0,0-3.233-3.192" transform="translate(-38.247 -3.392)" fill="#fd9827"/>
          <path id="Trazado_153957" data-name="Trazado 153957" d="M172.046,88.655a3.139,3.139,0,0,1,3.169,3.088,3.211,3.211,0,0,1-3.124,3.163,3.129,3.129,0,0,1-3.136-3.12,3.063,3.063,0,0,1,3.092-3.132m-1.537,3.027a1.5,1.5,0,0,0,1.5,1.64,1.454,1.454,0,0,0,1.617-1.494,1.42,1.42,0,0,0-1.486-1.6,1.464,1.464,0,0,0-1.627,1.454" transform="translate(-75.911 -39.833)" fill="#fd9827"/>
          <path id="Trazado_153958" data-name="Trazado 153958" d="M145.815,21.933a10.058,10.058,0,0,1-1.8-.032c-.291-.053-.722-.439-.724-.678a1.013,1.013,0,0,1,.649-.762,31.828,31.828,0,0,1,3.863.009c.228.014.547.509.589.813.025.181-.39.574-.645.611a13.835,13.835,0,0,1-1.931.029v.01" transform="translate(-64.381 -9.169)" fill="#fd9827"/>
          <path id="Trazado_153959" data-name="Trazado 153959" d="M16.989,77.246a6.019,6.019,0,0,1,1.418.029c.307.076.739.4.763.651a.994.994,0,0,1-.615.775,20.158,20.158,0,0,1-3.226.007,1,1,0,0,1-.635-.765c.013-.243.446-.594.747-.661a7.209,7.209,0,0,1,1.548-.03v0" transform="translate(-6.602 -34.693)" fill="#fd9827"/>
          <path id="Trazado_153960" data-name="Trazado 153960" d="M59.406,90a9.057,9.057,0,0,1,1.682.029c.309.059.563.411.842.631-.225.275-.437.775-.676.787a34.52,34.52,0,0,1-3.879-.023c-.206-.012-.543-.48-.531-.724a.926.926,0,0,1,.62-.647,13.568,13.568,0,0,1,1.941-.031V90" transform="translate(-25.54 -40.424)" fill="#fd9827"/>
          <path id="Trazado_153961" data-name="Trazado 153961" d="M96.34,38.017a27.652,27.652,0,0,1-2.852-.032c-.374-.039-.712-.438-1.066-.673.36-.282.712-.793,1.083-.808,1.987-.08,3.98-.074,5.968,0,.34.012.662.5.992.763-.336.25-.656.682-1.013.716-1.029.1-2.073.034-3.112.035" transform="translate(-41.525 -16.375)" fill="#fd9827"/>
          <path id="Trazado_153962" data-name="Trazado 153962" d="M96.534,118.109c-1.039,0-2.084.065-3.114-.037-.349-.034-.657-.491-.984-.755.338-.254.667-.718,1.013-.73,1.989-.07,3.983-.07,5.972,0,.355.012.7.455,1.042.7-.357.275-.692.74-1.078.787a23.329,23.329,0,0,1-2.853.037" transform="translate(-41.532 -52.359)" fill="#fd9827"/>
          <path id="Trazado_153963" data-name="Trazado 153963" d="M30.028,54.578A17.858,17.858,0,0,1,31.7,56.214c.441.583,1.694,1.115.851,1.946-.964.95-1.377-.455-1.97-.92a2.546,2.546,0,0,1-.9-1.064c-.108-.344.157-.806.349-1.6" transform="translate(-13.323 -24.522)" fill="#fd9827"/>
          <path id="Trazado_153964" data-name="Trazado 153964" d="M35.736,61.633a15.977,15.977,0,0,1,1.348,1.719c.046.077-.481.5-.743.759a12.648,12.648,0,0,1-1.29-1.4c-.07-.1.331-.533.686-1.073" transform="translate(-15.745 -27.692)" fill="#fd9827"/>
          <path id="Trazado_153965" data-name="Trazado 153965" d="M31.713,37.13c-.111-.448-.444-1.071-.28-1.257a46.174,46.174,0,0,1,3.282-3.31.929.929,0,0,1,.906.037.918.918,0,0,1,.152.882c-1.081,1.174-2.223,2.291-3.356,3.416-.081.08-.24.084-.7.232" transform="translate(-14.103 -14.585)" fill="#fd9827"/>
        </g>
      </g>
    </g>
    <rect id="Rect치ngulo_35821" data-name="Rect치ngulo 35821" width="120" height="120" transform="translate(-5382 -5196)" fill="none"/>
  </g>
</svg>
