<svg xmlns="http://www.w3.org/2000/svg" xmlns:xlink="http://www.w3.org/1999/xlink" width="97" height="97" viewBox="0 0 97 97">
  <defs>
    <clipPath id="clip-path">
      <rect id="Rectángulo_35248" data-name="Rectángulo 35248" width="81" height="82.368" fill="#fd9827"/>
    </clipPath>
  </defs>
  <g id="Grupo_158212" data-name="Grupo 158212" transform="translate(-594 -5743)">
    <rect id="Rectángulo_35230" data-name="Rectángulo 35230" width="97" height="97" transform="translate(594 5743)" fill="none"/>
    <g id="Grupo_158207" data-name="Grupo 158207" transform="translate(602 5750)">
      <g id="Grupo_158206" data-name="Grupo 158206" clip-path="url(#clip-path)">
        <path id="Trazado_153112" data-name="Trazado 153112" d="M61.775,0H6.864A6.874,6.874,0,0,0,0,6.864V50.8a6.864,6.864,0,0,0,5.15,6.648l.687-2.658A4.119,4.119,0,0,1,2.742,50.8V6.864A4.119,4.119,0,0,1,6.859,2.742H61.775a4.119,4.119,0,0,1,4.119,4.119V8.234h2.742V6.864A6.873,6.873,0,0,0,61.775,0" transform="translate(0)" fill="#fd9827"/>
        <rect id="Rectángulo_35239" data-name="Rectángulo 35239" width="2.745" height="2.745" transform="translate(5.492 5.492)" fill="#fd9827"/>
        <rect id="Rectángulo_35240" data-name="Rectángulo 35240" width="2.745" height="2.745" transform="translate(10.984 5.492)" fill="#fd9827"/>
        <rect id="Rectángulo_35241" data-name="Rectángulo 35241" width="2.745" height="2.745" transform="translate(16.474 5.492)" fill="#fd9827"/>
        <path id="Trazado_153113" data-name="Trazado 153113" d="M91.716,93.7,78.695,80.677a18.963,18.963,0,0,0,1.631-3.856h2.183V74.079H80.921a18.5,18.5,0,0,0-1.155-9.838v-13.5H77.023V59.48a19.338,19.338,0,0,0-2.742-2.851V45.239H71.539V54.7A19.169,19.169,0,0,0,68.8,53.394V39.754H66.054V52.566a19.033,19.033,0,0,0-2.742-.385V42.5H60.569v9.681a19.111,19.111,0,0,0-2.742.385V47.989H55.085V53.4a19.14,19.14,0,0,0-2.742,1.311V46.616H49.6V56.627a19.308,19.308,0,0,0-2.742,2.851V49.362H44.115V64.236a18.5,18.5,0,0,0-1.155,9.838H24.847v2.742H43.5A19.181,19.181,0,0,0,72.949,87.042L85.66,99.753a1.373,1.373,0,0,0,1.941,0h0l4.119-4.119a1.373,1.373,0,0,0,0-1.936m-29.8-5.893a16.474,16.474,0,1,1,16.48-16.474A16.474,16.474,0,0,1,61.915,87.806Zm24.713,9.042L75.081,85.3a19.465,19.465,0,0,0,2.067-2.289l11.661,11.66Z" transform="translate(-11.118 -17.788)" fill="#fd9827"/>
        <path id="Trazado_153114" data-name="Trazado 153114" d="M80.814,72.056A13.729,13.729,0,1,0,94.543,85.785,13.729,13.729,0,0,0,80.814,72.056m0,24.713a10.985,10.985,0,0,1-9.5-5.485h19a10.985,10.985,0,0,1-9.5,5.485M70.193,88.532a10.883,10.883,0,0,1,3.753-11.306v8.561h2.742V75.613A10.919,10.919,0,0,1,79.43,74.9V85.787h2.742V74.9a10.925,10.925,0,0,1,2.742.714V85.787h2.742V77.226A10.883,10.883,0,0,1,91.41,88.532Z" transform="translate(-30.017 -32.242)" fill="#fd9827"/>
        <path id="Trazado_153115" data-name="Trazado 153115" d="M76.682,19.878H21.771a6.874,6.874,0,0,0-6.864,6.864V70.675a6.873,6.873,0,0,0,6.864,6.864H39.62V74.8H21.771a4.119,4.119,0,0,1-4.122-4.116V26.742a4.119,4.119,0,0,1,4.116-4.122H76.682A4.12,4.12,0,0,1,80.8,26.74V70.675A4.119,4.119,0,0,1,79.772,73.4l2.059,1.816a6.854,6.854,0,0,0,1.716-4.541V26.742a6.873,6.873,0,0,0-6.866-6.864" transform="translate(-6.67 -8.894)" fill="#fd9827"/>
        <rect id="Rectángulo_35242" data-name="Rectángulo 35242" width="2.745" height="2.745" transform="translate(13.729 16.474)" fill="#fd9827"/>
        <rect id="Rectángulo_35243" data-name="Rectángulo 35243" width="2.745" height="2.745" transform="translate(19.221 16.474)" fill="#fd9827"/>
        <rect id="Rectángulo_35244" data-name="Rectángulo 35244" width="2.745" height="2.745" transform="translate(24.713 16.474)" fill="#fd9827"/>
        <rect id="Rectángulo_35245" data-name="Rectángulo 35245" width="2.745" height="8.237" transform="translate(16.474 45.306)" fill="#fd9827"/>
        <rect id="Rectángulo_35246" data-name="Rectángulo 35246" width="2.745" height="16.474" transform="translate(21.966 37.068)" fill="#fd9827"/>
        <rect id="Rectángulo_35247" data-name="Rectángulo 35247" width="2.745" height="12.357" transform="translate(27.458 41.187)" fill="#fd9827"/>
      </g>
    </g>
  </g>
</svg>
