<svg xmlns="http://www.w3.org/2000/svg" xmlns:xlink="http://www.w3.org/1999/xlink" width="120" height="120" viewBox="0 0 120 120">
  <defs>
    <clipPath id="clip-path">
      <rect id="Rectángulo_34910" data-name="Rectángulo 34910" width="77.109" height="96.344" fill="#fd9827"/>
    </clipPath>
  </defs>
  <g id="Grupo_158229" data-name="Grupo 158229" transform="translate(5858 3854)">
    <g id="Grupo_158227" data-name="Grupo 158227" transform="translate(-5837 -3842)">
      <g id="Grupo_80227" data-name="Grupo 80227" transform="translate(0 0)" clip-path="url(#clip-path)">
        <path id="Trazado_151742" data-name="Trazado 151742" d="M16.727,96.344a9.057,9.057,0,0,1-5.022-2.7A8.545,8.545,0,0,1,9.64,87.85c0-.283-.01-.564-.023-.845a.567.567,0,0,0-.063-.169,23.876,23.876,0,0,1-3.42-.412C2.244,85.4.008,82.335,0,78.139Q-.009,63.09,0,48.04,0,28.334,0,8.629C0,5.141,1.368,2.372,4.6.871A9.825,9.825,0,0,1,8.593.04Q33.754-.041,58.915.007c5.047,0,8.419,3.317,8.55,8.374.009.372,0,.745,0,1.124a25.268,25.268,0,0,1,3.485.411C74.833,10.92,77.1,14,77.1,18.185q.018,9.876,0,19.753,0,24.878,0,49.757c0,3.532-1.417,6.249-4.648,7.846a17.134,17.134,0,0,1-2.48.8ZM57.812,3.262V6.906q0,3.716-.006,7.431a1.547,1.547,0,0,1-.974,1.573,1.605,1.605,0,0,1-1.816-.392q-.4-.392-.8-.795c-.914-.93-1.826-1.862-2.832-2.888-1.177,1.21-2.259,2.3-3.31,3.41a1.809,1.809,0,0,1-2.084.676,1.79,1.79,0,0,1-1.028-1.931c.014-2.884.006-5.769.006-8.654V3.21h-.926q-17.732,0-35.462,0c-3.39,0-5.357,1.978-5.358,5.4q-.006,34.756,0,69.511c0,3.408,1.971,5.39,5.366,5.391q25.162.01,50.324,0c3.355,0,5.333-1.95,5.334-5.317q.018-34.85-.019-69.7a6.154,6.154,0,0,0-.6-2.7c-1.181-2.317-3.3-2.756-5.81-2.527m9.656,9.692v1.352q0,31.752,0,63.5a9.3,9.3,0,0,1-.816,4.3c-1.629,3.226-4.343,4.621-7.87,4.621H13a5.026,5.026,0,0,0,5.192,6.41q25.166.008,50.333,0c3.4,0,5.369-1.972,5.369-5.385q.006-34.763,0-69.525c0-3.732-2.567-5.878-6.422-5.275M54.514,10.6V3.293H48.239v7.045l.195.128c.524-.568,1.026-1.159,1.575-1.7a1.689,1.689,0,0,1,2.762-.023c.549.533,1.049,1.116,1.743,1.861" transform="translate(0 0)" fill="#fd9827"/>
        <path id="Trazado_151743" data-name="Trazado 151743" d="M27.632,44.84l1.866-2.1,2.238,2.4c-1.078,1.082-2.262,2.318-3.506,3.493a2.013,2.013,0,0,0-.666,1.648c.036,2.445.018,4.891.013,7.337,0,1.727-.535,2.281-2.225,2.286q-5.833.013-11.665,0c-1.646,0-2.184-.555-2.188-2.225q-.011-5.833,0-11.666c0-1.633.573-2.182,2.23-2.185,3.889-.006,7.777-.034,11.664.026a8.536,8.536,0,0,1,2.123.6c.039.131.076.261.114.392m-3.308,7.983-.227-.134c-.579.61-1.136,1.244-1.744,1.824a1.439,1.439,0,0,1-2.11.215c-1.145-1.088-2.177-2.3-3.132-3.324l2.043-2.281,1.938,2.172c1.089-1.107,2.1-2.087,3.04-3.124.205-.226.189-.653.3-1.071H14.786v9.513h9.539Z" transform="translate(-1.857 -6.904)" fill="#fd9827"/>
        <path id="Trazado_151744" data-name="Trazado 151744" d="M27.494,18.138l2.083-2.247c.735.819,1.417,1.58,2.173,2.425-1.09,1.09-2.284,2.322-3.525,3.5a1.918,1.918,0,0,0-.66,1.551c.036,2.505.02,5.011.012,7.518-.005,1.649-.547,2.177-2.213,2.179q-5.873,0-11.747,0c-1.539,0-2.108-.548-2.114-2.084q-.02-5.921,0-11.841c.005-1.555.557-2.1,2.094-2.1,3.916-.007,7.832.008,11.747-.01a2.008,2.008,0,0,1,2.15,1.108m-3.17,7.879-.244-.169c-.572.616-1.117,1.26-1.723,1.84a1.525,1.525,0,0,1-2.2.182c-1.133-1.06-2.175-2.218-3.172-3.249l2.25-2.348,1.894,2.151c1.026-1.038,2-1.97,2.9-2.965a3.482,3.482,0,0,0,.414-1.152H14.785v9.486h9.539Z" transform="translate(-1.857 -2.567)" fill="#fd9827"/>
        <path id="Trazado_151745" data-name="Trazado 151745" d="M11.5,77c0-1.975-.012-3.951,0-5.926.012-1.575.589-2.139,2.178-2.141q5.878-.01,11.757,0c1.559,0,2.137.6,2.141,2.183q.011,5.878,0,11.757c0,1.535-.571,2.125-2.087,2.13q-5.973.023-11.945,0c-1.464-.007-2.027-.594-2.042-2.077-.018-1.975,0-3.951,0-5.925m3.281-4.807v9.481a1.409,1.409,0,0,0,.322.094c2.883.008,5.766,0,8.649.023.61.005.622-.344.62-.789-.008-2.727,0-5.453-.008-8.18a4.125,4.125,0,0,0-.1-.629Z" transform="translate(-1.857 -11.135)" fill="#fd9827"/>
        <rect id="Rectángulo_34903" data-name="Rectángulo 34903" width="15.936" height="3.092" transform="translate(32.194 46.637)" fill="#fd9827"/>
        <rect id="Rectángulo_34904" data-name="Rectángulo 34904" width="15.925" height="3.09" transform="translate(32.179 24.146)" fill="#fd9827"/>
        <rect id="Rectángulo_34905" data-name="Rectángulo 34905" width="15.93" height="3.092" transform="translate(32.195 67.487)" fill="#fd9827"/>
        <rect id="Rectángulo_34906" data-name="Rectángulo 34906" width="9.493" height="3.106" transform="translate(32.197 17.721)" fill="#fd9827"/>
        <rect id="Rectángulo_34907" data-name="Rectángulo 34907" width="9.484" height="3.091" transform="translate(32.201 40.213)" fill="#fd9827"/>
        <rect id="Rectángulo_34908" data-name="Rectángulo 34908" width="9.52" height="3.072" transform="translate(32.185 61.067)" fill="#fd9827"/>
        <rect id="Rectángulo_34909" data-name="Rectángulo 34909" width="3.052" height="3.121" transform="translate(45.042 61.037)" fill="#fd9827"/>
      </g>
    </g>
    <rect id="Rectángulo_35252" data-name="Rectángulo 35252" width="120" height="120" transform="translate(-5858 -3854)" fill="none"/>
  </g>
</svg>
