<svg xmlns="http://www.w3.org/2000/svg" xmlns:xlink="http://www.w3.org/1999/xlink" width="97" height="97" viewBox="0 0 97 97">
  <defs>
    <clipPath id="clip-path">
      <rect id="Rectángulo_35236" data-name="Rectángulo 35236" width="82.422" height="82.386" fill="#fd9827"/>
    </clipPath>
  </defs>
  <g id="Grupo_158215" data-name="Grupo 158215" transform="translate(-1224 -5459)">
    <rect id="Rectángulo_35227" data-name="Rectángulo 35227" width="97" height="97" transform="translate(1224 5459)" fill="none"/>
    <g id="Grupo_158201" data-name="Grupo 158201" transform="translate(1231 5466)">
      <g id="Grupo_158200" data-name="Grupo 158200" clip-path="url(#clip-path)">
        <path id="Trazado_153104" data-name="Trazado 153104" d="M79.6,93.863h2.7v2.686H38.439v3.744a4.146,4.146,0,0,1-3.735,4.52,4.1,4.1,0,0,1-.8,0H4.58a4.16,4.16,0,0,1-4.557-4.585q0-15.433-.012-30.865a4.862,4.862,0,0,1,1.51-3.676q4.424-4.367,8.792-8.789a4.771,4.771,0,0,1,3.6-1.486c6.486.025,12.977.115,19.462-.032A4.508,4.508,0,0,1,38.4,60.845H35.735c-.012-.263-.036-.537-.039-.813-.014-1.447-.435-1.864-1.91-1.866H13.746v6.223a4.206,4.206,0,0,1-4.734,4.754q-3,0-6,.014a1.068,1.068,0,0,0-.24.095v30.8c0,1.633.383,2.014,2.017,2.014H33.68c1.633,0,2.016-.383,2.018-2.016V96.664c-.834-.12-1.514-.292-2.05.716a3.909,3.909,0,0,1-4.592,1.769,4.1,4.1,0,0,1,.125-7.917,4,4,0,0,1,4.551,1.9,1.191,1.191,0,0,0,1.253.716c2.94-.036,5.881-.016,8.952-.016V85.939c0-1.234.48-1.71,1.712-1.713h6.519V78.8c0-2.713.088-2.8,2.771-2.8q2.615,0,5.23-.016c.05,0,.1-.041.232-.1V69.764c0-1.625.382-2,2.027-2h6.2v-.858c0-1.943-.011-3.887,0-5.83a1.372,1.372,0,0,1,1.536-1.539q3.939-.022,7.889,0c1.1,0,1.545.547,1.545,1.79V93.863Zm-8.17-31.536V93.813H76.8V62.327ZM63.2,70.541V93.788h5.371V70.538Zm-2.833,8.275H54.98V93.8h5.384ZM52.128,93.811V87.038H46.741v6.775ZM11.006,60.378,5,66.393c1.565,0,3.181.045,4.793-.02A1.234,1.234,0,0,0,11,65.118c0-.022,0-.044,0-.066.02-1.565,0-3.13,0-4.674Zm19.229,33.48a1.368,1.368,0,1,0,1.35,1.385V95.22a1.382,1.382,0,0,0-1.368-1.369Z" transform="translate(0 -22.448)" fill="#fd9827"/>
        <path id="Trazado_153105" data-name="Trazado 153105" d="M73,33.683l-5.43,5.443c-.908.909-1.809,1.83-2.73,2.727-2.65,2.576-1.4,2.043-5.11,2.1-1.432.021-2.865,0-4.378,0V68.6H52.6V43.964c-.96,0-1.864-.042-2.759.03-.2.016-.414.4-.56.648A4.118,4.118,0,1,1,44.2,38.766a4.042,4.042,0,0,1,5.084,1.819,1.012,1.012,0,0,0,1.035.643c3.543-.029,7.089,0,10.631-.029a1.52,1.52,0,0,0,.979-.34c2.85-2.807,5.672-5.645,8.5-8.476a2.09,2.09,0,0,0,.179-.253,17.785,17.785,0,0,1-7.044-14.218A17.378,17.378,0,0,1,68.1,5.932,17.89,17.89,0,1,1,73,33.683ZM80.009,2.96C74.566,2.8,68.53,7.807,66.844,13.807a15.155,15.155,0,0,0,7.086,17.2,14.778,14.778,0,0,0,16.329-1.074c-3.149-3.543-6.284-7.1-9.457-10.621a2.952,2.952,0,0,1-.809-2.148c.033-4.428.014-8.854.014-13.281Zm2.777,13.5H96.349A14.811,14.811,0,0,0,82.777,2.969ZM92.37,28.178c2.352-2.462,4.141-6.583,3.9-8.847H84.5Zm-45.3,14.4a1.366,1.366,0,1,0-1.362,1.37h.018a1.381,1.381,0,0,0,1.344-1.363Z" transform="translate(-16.87 0)" fill="#fd9827"/>
        <path id="Trazado_153106" data-name="Trazado 153106" d="M30.895,22.988c2.09-1.791,4.138-3.522,6.145-5.3a1.171,1.171,0,0,0,.156-.947,4.1,4.1,0,1,1,7.49,1.189,3.974,3.974,0,0,1-4.517,1.79,1.579,1.579,0,0,0-1.731.4c-2.1,1.855-4.247,3.647-6.354,5.489a2.684,2.684,0,0,0-.677,1.029A4.057,4.057,0,0,1,27.86,29.46a3.876,3.876,0,0,1-3.98-2.126.947.947,0,0,0-.976-.6q-2.313.046-4.627,0a.878.878,0,0,0-.913.555,3.968,3.968,0,0,1-4.791,2,.938.938,0,0,0-1.1.3c-.994,1.026-2,2.044-3.033,3.025a1.138,1.138,0,0,0-.346,1.329,3.793,3.793,0,0,1-1.368,4.211,3.835,3.835,0,0,1-4.412.484A3.921,3.921,0,0,1,.043,34.814,4.056,4.056,0,0,1,5.2,31.037a1.139,1.139,0,0,0,1.325-.358c1.006-1.053,2.072-2.05,3.064-3.115a1.165,1.165,0,0,0,.225-.933A4.136,4.136,0,0,1,17.428,23.5a1.163,1.163,0,0,0,.829.486c1.57.046,3.142.037,4.712,0a1.028,1.028,0,0,0,.748-.341c1.869-2.928,4.645-3.21,7.178-.653m11.67-7.241a1.366,1.366,0,1,0-1.346,1.387h.021a1.375,1.375,0,0,0,1.325-1.388ZM12.394,25.306a1.366,1.366,0,1,0,1.43-1.3H13.8a1.38,1.38,0,0,0-1.409,1.3Zm15.1-1.3a1.366,1.366,0,1,0,1.35,1.382v-.021a1.376,1.376,0,0,0-1.35-1.356ZM4.148,33.61a1.366,1.366,0,1,0,1.373,1.359v-.021a1.375,1.375,0,0,0-1.373-1.339Z" transform="translate(-0.014 -4.736)" fill="#fd9827"/>
        <rect id="Rectángulo_35231" data-name="Rectángulo 35231" width="16.355" height="2.639" transform="translate(15.187 56.366)" fill="#fd9827"/>
        <rect id="Rectángulo_35232" data-name="Rectángulo 35232" width="13.607" height="2.637" transform="translate(6.923 63.212)" fill="#fd9827"/>
        <rect id="Rectángulo_35233" data-name="Rectángulo 35233" width="8.136" height="2.635" transform="translate(23.405 63.214)" fill="#fd9827"/>
        <rect id="Rectángulo_35234" data-name="Rectángulo 35234" width="5.384" height="2.65" transform="translate(6.944 56.365)" fill="#fd9827"/>
        <rect id="Rectángulo_35235" data-name="Rectángulo 35235" width="5.371" height="2.67" transform="translate(6.953 70.059)" fill="#fd9827"/>
      </g>
    </g>
  </g>
</svg>
