<svg xmlns="http://www.w3.org/2000/svg" xmlns:xlink="http://www.w3.org/1999/xlink" width="97" height="97" viewBox="0 0 97 97">
  <defs>
    <clipPath id="clip-path">
      <rect id="Rect치ngulo_35238" data-name="Rect치ngulo 35238" width="90" height="89.992" fill="#fd9827"/>
    </clipPath>
  </defs>
  <g id="Grupo_158211" data-name="Grupo 158211" transform="translate(-909 -5743)">
    <rect id="Rect치ngulo_35229" data-name="Rect치ngulo 35229" width="97" height="97" transform="translate(909 5743)" fill="none"/>
    <g id="Grupo_158205" data-name="Grupo 158205" transform="translate(913 5747)">
      <g id="Grupo_158204" data-name="Grupo 158204" clip-path="url(#clip-path)">
        <path id="Trazado_153109" data-name="Trazado 153109" d="M0,53.815c.4-.856,1.134-.977,1.978-.975q9.711.02,19.423.007H22.48V49.841c-1.32,0-2.629,0-3.937,0-.586,0-1.172,0-1.757-.026a1.28,1.28,0,0,1-.042-2.559c1.4-.069,2.81-.041,4.216-.051.491,0,.981,0,1.52,0v-3h-.856c-3.31,0-6.621.015-9.931-.014a1.1,1.1,0,0,0-1.142.687,4.047,4.047,0,0,1-4.628,2.015,4.124,4.124,0,0,1-.063-7.973,4.042,4.042,0,0,1,4.657,1.944,1.172,1.172,0,0,0,1.216.715c3.281-.026,6.563-.012,9.844-.014.285,0,.571-.025.955-.044,0-.858-.025-1.671.007-2.481a12.236,12.236,0,0,1,.2-1.919,1.307,1.307,0,1,1,2.591.34q-.089,15.9-.153,31.806a4.331,4.331,0,0,0,3.07,4.5,6.339,6.339,0,0,0,1.732.228q14.986.02,29.971,0c.554,0,1.106-.107,1.66-.139.925-.054,1.5.363,1.592,1.128a1.316,1.316,0,0,1-1.3,1.473c-1.131.125-2.277.127-3.416.18-.257.013-.514.023-.824.037,0,1.532-.078,3.022.041,4.5a2.875,2.875,0,0,0,.864,1.572c2.683,2.744,5.426,5.43,8.111,8.171.417.425.744.276,1.169.159a4.114,4.114,0,1,1,2.182,7.933,4.016,4.016,0,0,1-5.021-2.927,5.2,5.2,0,0,1,.048-2.236,1.105,1.105,0,0,0-.335-1.208C62.137,90.082,59.6,87.483,57,84.947a6.23,6.23,0,0,1-2.035-4.941c.045-1.077.007-2.157.007-3.3h-3c0,1.641,0,3.245,0,4.848,0,1.432-.41,2.087-1.306,2.105s-1.33-.646-1.332-2.063c0-1.607,0-3.214,0-4.888H46.323v1.148q0,9.581,0,19.16a6.657,6.657,0,0,1-.062,1.049,1.184,1.184,0,0,1-1.283,1.075,1.169,1.169,0,0,1-1.221-1.046,7.134,7.134,0,0,1-.068-1.136q-.006-9.537,0-19.072V76.7H40.677c0,.358,0,.722,0,1.086,0,1.465.017,2.93-.012,4.394a1.314,1.314,0,1,1-2.609.015c-.039-1.464-.015-2.929-.017-4.394V76.7h-3v2.048c0,2.9.013,5.8-.01,8.7a1.094,1.094,0,0,0,.657,1.159,4.041,4.041,0,0,1,2.05,4.613,4.124,4.124,0,0,1-7.973.118,4.056,4.056,0,0,1,1.985-4.717,1.05,1.05,0,0,0,.666-1.067c-.026-3.369-.013-6.739-.015-10.108,0-.23-.024-.459-.047-.874-1.122,0-2.226.051-3.324-.01a6.97,6.97,0,0,1-6.5-7.278c0-.788,0-1.576,0-2.385-1.641,0-3.236-.069-4.819.042a2.628,2.628,0,0,0-1.376.87Q12.3,71.79,8.325,75.834a1.18,1.18,0,0,0-.27.952,4.161,4.161,0,0,1-2.608,5.242,4.118,4.118,0,0,1-5.257-2.7A3.455,3.455,0,0,0,0,78.954V77.2a1.334,1.334,0,0,0,.183-.268A4.145,4.145,0,0,1,5.52,74.22a1.183,1.183,0,0,0,.939-.308c2.487-2.441,5-4.862,7.391-7.4A6.92,6.92,0,0,1,19.7,64.122c.918.07,1.847.012,2.771.012v-3h-1c-1.435,0-2.87.015-4.306-.007-1.046-.016-1.646-.513-1.655-1.309s.6-1.294,1.631-1.319c.673-.016,1.347,0,2.02,0h3.312V55.486H21.4q-9.709,0-19.418.007C1.133,55.5.4,55.374,0,54.518ZM4.121,76.653A1.5,1.5,0,0,0,2.651,78.1a1.549,1.549,0,0,0,1.5,1.522A1.551,1.551,0,0,0,5.62,78.151a1.491,1.491,0,0,0-1.5-1.5m64.852,16.9a1.485,1.485,0,0,0-.023,2.97,1.485,1.485,0,1,0,.023-2.97M6.931,44.358a1.472,1.472,0,0,0,1.5-1.485A1.507,1.507,0,0,0,6.98,41.412a1.525,1.525,0,0,0-1.511,1.5,1.49,1.49,0,0,0,1.462,1.447M35.195,92.2a1.472,1.472,0,0,0-1.434-1.468,1.507,1.507,0,0,0-1.516,1.491A1.536,1.536,0,0,0,33.7,93.7a1.488,1.488,0,0,0,1.5-1.5" transform="translate(0 -9.163)" fill="#fd9827"/>
        <path id="Trazado_153110" data-name="Trazado 153110" d="M51.139,0a1.874,1.874,0,0,1,.976,1.977q-.022,9.711-.008,19.423v1.079h3.007c0-1.32,0-2.628,0-3.936,0-.586,0-1.172.025-1.756a1.281,1.281,0,0,1,2.56-.044c.069,1.4.041,2.81.051,4.216,0,.49,0,.98,0,1.52h3v-.855c0-3.311-.015-6.622.013-9.932a1.1,1.1,0,0,0-.686-1.142,4.045,4.045,0,0,1-2.015-4.628,4.123,4.123,0,0,1,7.971-.063A4.039,4.039,0,0,1,64.1,10.516a1.173,1.173,0,0,0-.715,1.217c.026,3.281.011,6.562.014,9.843,0,.286.025.572.044.96,2.8-.072,5.57-.125,7.745,2.04s2.159,4.927,2.064,7.741c1.62,0,3.163.074,4.692-.042a2.755,2.755,0,0,0,1.471-.876c2.717-2.669,5.391-5.381,8.1-8.061a.9.9,0,0,0,.227-1.075,4.062,4.062,0,0,1,1.836-4.773,4.125,4.125,0,0,1,5.621,5.678A4.042,4.042,0,0,1,90.4,24.943a.941.941,0,0,0-1.124.335C86.716,27.854,84.12,30.4,81.582,33a6.235,6.235,0,0,1-4.935,2.049c-1.078-.044-2.16-.007-3.312-.007v3c1.587,0,3.159,0,4.73,0a7.4,7.4,0,0,1,1.136.073,1.175,1.175,0,0,1,1.057,1.3A1.152,1.152,0,0,1,79.11,40.63c-1.375.049-2.752.037-4.128.047-.548,0-1.1,0-1.676,0v3.007h1.066q9.624,0,19.248,0c.408,0,.913-.084,1.2.117.4.282.891.8.888,1.209s-.5.916-.91,1.192c-.292.2-.793.113-1.2.113q-9.536.008-19.072,0h-1.2v3.007c1.516,0,3,0,4.491,0,.381,0,.763-.013,1.142.02a1.317,1.317,0,0,1,1.318,1.265,1.283,1.283,0,0,1-1.269,1.309c-1.374.062-2.752.034-4.128.042-.5,0-.99,0-1.551,0v2.954c.281.017.537.047.794.047,3.34,0,6.68-.009,10.02.013a1.032,1.032,0,0,0,1.078-.643,4.055,4.055,0,0,1,4.607-2.071,4.125,4.125,0,0,1,.151,7.974,4.049,4.049,0,0,1-4.724-1.965A1.111,1.111,0,0,0,84.1,57.6c-3.57.026-7.141.013-10.844.013,0,.776.023,1.5-.007,2.216a17.365,17.365,0,0,1-.188,2.184,1.325,1.325,0,0,1-1.475,1.2c-.73-.1-1.125-.665-1.121-1.526q.08-15.948.142-31.894a4.34,4.34,0,0,0-4.655-4.611q-15.162-.025-30.323,0c-.494,0-.988.111-1.484.138a1.309,1.309,0,1,1-.314-2.591c1.189-.134,2.393-.134,3.59-.192l.627-.028c0-1.613.069-3.208-.041-4.791a2.639,2.639,0,0,0-.87-1.376Q33.165,12.3,29.122,8.323a1.181,1.181,0,0,0-.953-.273A4.128,4.128,0,1,1,25.71.17,1.713,1.713,0,0,0,26,0h1.582a1.168,1.168,0,0,0,.223.135,4.123,4.123,0,0,1,2.929,5.42,1.189,1.189,0,0,0,.326.929q3.882,3.944,7.818,7.831a6.056,6.056,0,0,1,1.948,4.708c-.035,1.133-.006,2.269-.006,3.447h3c0-.408,0-.754,0-1.1,0-1.464-.023-2.928.017-4.391a1.313,1.313,0,1,1,2.608.007c.031,1.288.011,2.576.013,3.865q0,.812,0,1.625h3.007V21.386q0-9.7-.008-19.409A1.874,1.874,0,0,1,50.436,0ZM26.863,5.619A1.487,1.487,0,0,0,28.3,4.061a1.5,1.5,0,0,0-1.5-1.412,1.569,1.569,0,0,0-1.462,1.478,1.535,1.535,0,0,0,1.528,1.493M93.14,21.076a1.485,1.485,0,1,0-2.97-.056,1.485,1.485,0,0,0,2.97.056M62.026,8.434a1.508,1.508,0,0,0,1.522-1.485A1.542,1.542,0,0,0,62.1,5.468a1.481,1.481,0,0,0-1.5,1.408,1.466,1.466,0,0,0,1.424,1.558m28.3,47.833a1.483,1.483,0,0,0-2.967.022,1.5,1.5,0,0,0,1.534,1.466,1.522,1.522,0,0,0,1.432-1.488" transform="translate(-5.784 0)" fill="#fd9827"/>
        <path id="Trazado_153111" data-name="Trazado 153111" d="M55.622,68.427a6.659,6.659,0,0,1-4.314,2.052c-3.318.276-6.255-2.117-6.476-4.975a1.226,1.226,0,0,0-.44-.789,6.568,6.568,0,0,1-1.668-8.985.822.822,0,0,0-.01-.749c-2.28-3.14-.907-7.611,3.153-9.153.188-.072.372-.153.6-.246a4.647,4.647,0,0,1,2.722-5.269,5.417,5.417,0,0,1,6.162.785,20.654,20.654,0,0,1,3.689-1.283c3.387-.5,6.234,2.367,5.729,5.3-.1.554.283.6.636.743a6.139,6.139,0,0,1,4.162,5.377,5.3,5.3,0,0,1-1.293,3.98c-.358.422-.437.7-.046,1.175a5.736,5.736,0,0,1-.952,8.322,2.642,2.642,0,0,0-1.048,1.59,5.978,5.978,0,0,1-6.167,4.2,6.611,6.611,0,0,1-4.434-2.074M65.8,62.485c1.728-1.8,1.466-3.875-.572-5.292-1.326-.923-1.346-1.823-.022-2.718a3.276,3.276,0,0,0,1.69-3.308,3.547,3.547,0,0,0-2.6-2.911,5.42,5.42,0,0,0-3.528.107,1.283,1.283,0,0,1-1.631-.808,1.3,1.3,0,0,1,.8-1.645,7.148,7.148,0,0,1,1.169-.368c1.162-.279,1.475-1.172.679-2.148a2.691,2.691,0,0,0-2.917-.942,2.278,2.278,0,0,0-1.932,2c-.093.772-.431,1.356-1.309,1.367-.931.011-1.266-.61-1.359-1.412a2.169,2.169,0,0,0-1.31-1.739,2.981,2.981,0,0,0-3.344.481c-.726.709-.741,1.467-.055,2.781a1.3,1.3,0,0,1-.993,2.025,9.58,9.58,0,0,0-2.426.671,3.151,3.151,0,0,0-1.18,4.852c.8-.284,1.582-.612,2.392-.829a1.079,1.079,0,0,1,1.44.669,2.2,2.2,0,0,1-.216,1.441c-.138.269-.62.4-.973.516a4.985,4.985,0,0,0-2.714,1.975,3.633,3.633,0,0,0,.73,4.886,6.318,6.318,0,0,1,.617-.714c.234-.2.548-.513.784-.478a2.409,2.409,0,0,1,1.344.558,1.135,1.135,0,0,1-.142,1.592,2.642,2.642,0,0,0-.665,2.676,3.436,3.436,0,0,0,3.6,2.09c1.8-.182,2.991-1.218,3.09-2.788A28.337,28.337,0,0,0,54.235,62a2.691,2.691,0,0,0-1.569-2.276c-.255-.142-.534-.24-.786-.387a1.288,1.288,0,0,1-.608-1.715,1.259,1.259,0,0,1,1.626-.669c.435.133.85.33,1.39.545v-.967c0-1.993-.013-3.985.009-5.976.011-.987.509-1.564,1.277-1.585.8-.021,1.311.581,1.35,1.6.015.395,0,.791,0,1.3a5.973,5.973,0,0,1,.867-.358,19.621,19.621,0,0,1,2.653-.478A1.1,1.1,0,0,1,61.634,52.2a1.186,1.186,0,0,1-.988,1.349,7,7,0,0,1-.692.119,3.078,3.078,0,0,0-3.024,3.4q-.015,3.692,0,7.383a3.18,3.18,0,0,0,3.283,3.438C62.4,68,64.11,66.3,63.687,64.4a3.222,3.222,0,0,0-2.128-2.157,1.308,1.308,0,0,1-.791-1.79,1.372,1.372,0,0,1,1.871-.595A6.275,6.275,0,0,1,65.8,62.485" transform="translate(-10.604 -10.114)" fill="#fd9827"/>
      </g>
    </g>
  </g>
</svg>
