<svg xmlns="http://www.w3.org/2000/svg" width="190" height="84.677" viewBox="0 0 190 84.677">
  <g id="Grupo_80193" data-name="Grupo 80193" transform="translate(0.001 0)">
    <path id="Trazado_151640" data-name="Trazado 151640" d="M219.757,383.178H75.812a11.787,11.787,0,0,1-11.753-11.753v-4.889a11.787,11.787,0,0,1,11.753-11.753H219.757c6.464,0,5.5,4.851,5.5,11.315l-6.922,4.209c0,6.465,7.887,12.871,1.423,12.871" transform="translate(-61.334 -298.502)" fill="#fd8065"/>
    <path id="Trazado_151641" data-name="Trazado 151641" d="M244.318,357.843s-3.261,6.978-3.728,11.729a15.545,15.545,0,0,0,3.728,11.729H139.8c-5.257,0-9.558-3.966-9.558-8.815v-5.829c0-4.849,4.3-8.815,9.558-8.815Z" transform="translate(-74.143 -299.094)" fill="#fff"/>
    <path id="Trazado_151642" data-name="Trazado 151642" d="M245.68,381.786H139.649c-5.622,0-10.2-4.24-10.2-9.452V366.5c0-5.213,4.574-9.453,10.2-9.453H245.167l-.424.907c-.031.069-3.219,6.935-3.671,11.522a14.975,14.975,0,0,0,3.55,11.221Zm-106.03-23.459c-4.919,0-8.92,3.669-8.92,8.178v5.829c0,4.508,4,8.177,8.92,8.177H242.82a16.255,16.255,0,0,1-3.018-11.154c.377-3.834,2.476-8.965,3.378-11.029Z" transform="translate(-73.99 -298.94)" fill="#31313c"/>
    <path id="Trazado_151643" data-name="Trazado 151643" d="M259.874,356.571H178.851a.894.894,0,1,1,0-1.787h81.022a.894.894,0,1,1,0,1.787" transform="translate(-83.376 -298.502)" fill="#fd8065"/>
    <path id="Trazado_151644" data-name="Trazado 151644" d="M259.874,389.563H178.852a.894.894,0,0,1,0-1.787h81.022a.894.894,0,0,1,0,1.787" transform="translate(-83.376 -304.887)" fill="#fd8065"/>
    <path id="Trazado_151645" data-name="Trazado 151645" d="M235.391,348.6H91.446a11.787,11.787,0,0,1-11.753-11.753v-4.889A11.787,11.787,0,0,1,91.446,320.2H235.391c6.464,0,5.5,4.851,5.5,11.315l-6.922,4.209c0,6.464,7.886,12.871,1.423,12.871" transform="translate(-64.36 -291.809)" fill="#31313c"/>
    <path id="Trazado_151646" data-name="Trazado 151646" d="M259.952,323.261s-3.261,6.978-3.728,11.729a15.545,15.545,0,0,0,3.728,11.729H155.436c-5.257,0-9.558-3.966-9.558-8.815v-5.829c0-4.849,4.3-8.815,9.558-8.815Z" transform="translate(-77.169 -292.401)" fill="#fff"/>
    <path id="Trazado_151647" data-name="Trazado 151647" d="M259.8,347.2H155.284c-5.622,0-10.2-4.24-10.2-9.453v-5.829c0-5.212,4.574-9.452,10.2-9.452H260.8l-.424.907c-.032.069-3.22,6.935-3.671,11.522a15.047,15.047,0,0,0,3.55,11.222l1.05,1.082ZM155.284,323.746c-4.919,0-8.92,3.669-8.92,8.177v5.829c0,4.509,4,8.178,8.92,8.178H258.455a16.256,16.256,0,0,1-3.018-11.154c.377-3.834,2.476-8.964,3.378-11.029Z" transform="translate(-77.016 -292.248)" fill="#31313c"/>
    <path id="Trazado_151648" data-name="Trazado 151648" d="M275.508,321.99H194.486a.894.894,0,1,1,0-1.787h81.022a.894.894,0,0,1,0,1.787" transform="translate(-86.402 -291.809)" fill="#31313c"/>
    <path id="Trazado_151649" data-name="Trazado 151649" d="M275.508,354.982H194.486a.894.894,0,1,1,0-1.787h81.022a.894.894,0,0,1,0,1.787" transform="translate(-86.402 -298.195)" fill="#31313c"/>
    <path id="Trazado_151650" data-name="Trazado 151650" d="M180.58,313.389H69.73c-4.978,0-9.05-5.289-9.05-11.753v-4.889c0-6.464,4.073-11.753,9.05-11.753H180.58c4.978,0,4.235,4.851,4.235,11.315l-5.33,4.209c0,6.465,6.073,12.871,1.1,12.871" transform="translate(-60.68 -284.996)" fill="#ffd26d"/>
    <path id="Trazado_151651" data-name="Trazado 151651" d="M199.495,288.053s-2.511,6.978-2.871,11.729a18.379,18.379,0,0,0,2.871,11.729H119.01c-4.049,0-7.361-3.966-7.361-8.815v-5.829c0-4.849,3.311-8.815,7.361-8.815Z" transform="translate(-70.544 -285.588)" fill="#fff"/>
    <path id="Trazado_151652" data-name="Trazado 151652" d="M199.361,311.937H118.875c-4.367,0-7.92-4.2-7.92-9.374v-5.829c0-5.17,3.553-9.375,7.92-9.375h81.281l-.269.749c-.025.069-2.489,6.963-2.839,11.581a18.013,18.013,0,0,0,2.76,11.352l.669.9Zm-80.485-23.46c-3.75,0-6.8,3.7-6.8,8.257v5.829c0,4.551,3.051,8.255,6.8,8.255h79.461a19.554,19.554,0,0,1-2.4-11.213,53.558,53.558,0,0,1,2.642-11.128Z" transform="translate(-70.409 -285.453)" fill="#31313c"/>
    <path id="Trazado_151653" data-name="Trazado 151653" d="M211.319,286.782H149.234a.845.845,0,0,1-.843-.843v-.1a.845.845,0,0,1,.843-.842h62.086a.845.845,0,0,1,.842.842v.1a.845.845,0,0,1-.842.843" transform="translate(-77.654 -284.996)" fill="#ffd26d"/>
    <path id="Trazado_151654" data-name="Trazado 151654" d="M211.319,319.774H149.234a.845.845,0,0,1-.843-.843v-.1a.845.845,0,0,1,.843-.842h62.086a.845.845,0,0,1,.842.842v.1a.845.845,0,0,1-.842.843" transform="translate(-77.654 -291.38)" fill="#ffd26d"/>
  </g>
</svg>
