<svg xmlns="http://www.w3.org/2000/svg" xmlns:xlink="http://www.w3.org/1999/xlink" width="1328" height="434" viewBox="0 0 1328 434">
  <defs>
    <linearGradient id="linear-gradient" x1="0.992" y1="0.917" x2="0.284" y2="0.249" gradientUnits="objectBoundingBox">
      <stop offset="0" stop-color="#785549"/>
      <stop offset="1" stop-color="#31313c"/>
    </linearGradient>
    <clipPath id="clip-path">
      <rect id="Rect치ngulo_34916" data-name="Rect치ngulo 34916" width="1328" height="434" transform="translate(136 2652)" fill="#31313c"/>
    </clipPath>
  </defs>
  <g id="Grupo_80242" data-name="Grupo 80242" transform="translate(-136 -2652)">
    <g id="Grupo_80241" data-name="Grupo 80241">
      <rect id="Rect치ngulo_34898" data-name="Rect치ngulo 34898" width="1328" height="434" transform="translate(136 2652)" fill="url(#linear-gradient)"/>
      <g id="Enmascarar_grupo_67" data-name="Enmascarar grupo 67" clip-path="url(#clip-path)">
        <g id="Grupo_80240" data-name="Grupo 80240" transform="translate(-55 45)">
          <path id="Trazado_151752" data-name="Trazado 151752" d="M1774.117,727.751,1635.7,332.1l38.126-181.3L1400.742,0c-3.587,3.983-6.9,8.265-10.813,11.9-29.3,27.233-56.788,56.874-88.5,80.947-62.875,47.723-132.6,55.943-205.875,25.171q-38.252-16.064-75.5-34.48C974.1,60.755,926.378,47.217,874.469,50.247c-32.49,1.9-61.179,11.968-86.188,33.1-37.431,31.631-63.494,72.609-92.985,110.831C679.669,214.432,663.715,234.6,646.2,253.2c-36.015,38.26-79.768,55.779-133.5,51.012-57.795-5.13-106.076-24.6-140.965-73.256-29.113-40.6-58.611-81.121-90.712-119.348C229.071,49.731,161.22,28.913,82.75,44.879,54.659,50.592,27.556,61.147,0,69.491L173.114,544.449Z" transform="translate(29.325 2978.369) rotate(-22)" fill="#e7e7e8" opacity="0.166"/>
          <path id="Trazado_151753" data-name="Trazado 151753" d="M1863.595,0l-145.4,415.9,40.049,190.579L1471.389,765c-3.768-4.187-7.249-8.687-11.358-12.509-30.777-28.627-59.652-59.784-92.963-85.09-66.047-50.165-139.286-58.806-216.258-26.459q-40.182,16.886-79.309,36.245c-48.274,23.949-98.4,38.181-152.927,35-34.129-1.993-64.265-12.58-90.535-34.794-39.319-33.25-66.7-76.325-97.675-116.5-16.414-21.291-33.173-42.488-51.569-62.043C640.962,458.619,595,440.2,538.565,445.215c-60.71,5.393-111.426,25.856-148.074,77.005C359.91,564.9,328.924,607.493,295.2,647.677c-54.58,65.044-125.853,86.927-208.28,70.144C57.415,711.816,28.946,700.72,0,691.949L181.845,192.684Z" transform="translate(1800.943 3148.676) rotate(157)" fill="#e7e7e8" opacity="0.166"/>
          <path id="Trazado_151754" data-name="Trazado 151754" d="M2080.676,0,1918.337,464.349l44.714,212.778-320.267,176.98c-4.207-4.675-8.093-9.7-12.681-13.967-34.362-31.961-66.6-66.748-103.792-95-73.74-56.009-155.511-65.656-241.449-29.541q-44.862,18.853-88.548,40.467c-53.9,26.739-109.862,42.628-170.741,39.071-38.1-2.225-71.751-14.045-101.082-38.847-43.9-37.123-74.466-85.215-109.053-130.074-18.326-23.771-37.037-47.437-57.576-69.271-42.238-44.9-93.551-65.464-156.563-59.868-67.782,6.021-124.406,28.868-165.323,85.975-34.143,47.652-68.739,95.206-106.386,140.07-60.938,72.62-140.512,97.053-232.542,78.315C64.1,794.732,32.318,782.344,0,772.551L203.028,215.128Z" transform="translate(1950.307 3096.07) rotate(157)" fill="none" stroke="#31313c" stroke-width="4" opacity="0.166"/>
        </g>
      </g>
    </g>
  </g>
</svg>
