<svg xmlns="http://www.w3.org/2000/svg" xmlns:xlink="http://www.w3.org/1999/xlink" width="313" height="226.501" viewBox="0 0 313 226.501">
  <defs>
    <clipPath id="clip-path">
      <rect id="Rectángulo_34881" data-name="Rectángulo 34881" width="143" height="87" fill="#12263f"/>
    </clipPath>
    <clipPath id="clip-path-2">
      <rect id="Rectángulo_35434" data-name="Rectángulo 35434" width="148.737" height="137.256" fill="none"/>
    </clipPath>
  </defs>
  <g id="Grupo_157997" data-name="Grupo 157997" transform="translate(-959 -781.871)">
    <g id="Grupo_80197" data-name="Grupo 80197" transform="translate(959 781.871)">
      <g id="Enmascarar_grupo_63" data-name="Enmascarar grupo 63" transform="translate(151.248 0)" clip-path="url(#clip-path)">
        <path id="Trazado_151731" data-name="Trazado 151731" d="M68.087,107.506a39.419,39.419,0,1,1,39.419-39.419,39.463,39.463,0,0,1-39.419,39.419m0,28.668A68.087,68.087,0,1,0,0,68.087,68.087,68.087,0,0,0,68.087,136.174Z" transform="translate(2.954 18.913)" fill="#fd9827"/>
      </g>
      <path id="Trazado_151733" data-name="Trazado 151733" d="M313,0H42C18.8,0,0,16.091,0,35.939v103.54H271c23.2,0,42-16.091,42-35.939Z" transform="translate(0 87.021)" fill="#31313c"/>
      <g id="Grupo_78301" data-name="Grupo 78301" transform="translate(1.338 0.257)">
        <path id="Trazado_145968" data-name="Trazado 145968" d="M43.541,0A43.541,43.541,0,1,1,0,43.541,43.541,43.541,0,0,1,43.541,0Z" transform="translate(215.887 132.358)" fill="#31313c" opacity="0.444" style="mix-blend-mode: multiply;isolation: isolate"/>
        <path id="Trazado_145969" data-name="Trazado 145969" d="M21.667,0A21.667,21.667,0,1,1,0,21.667,21.667,21.667,0,0,1,21.667,0Z" transform="translate(40.497 11.044)" fill="#fd9827" opacity="0.444" style="mix-blend-mode: multiply;isolation: isolate"/>
        <rect id="Rectángulo_34812" data-name="Rectángulo 34812" width="309.662" height="222.853" transform="translate(0 0)" fill="none"/>
        <path id="Trazado_145971" data-name="Trazado 145971" d="M8.18,0A8.18,8.18,0,1,1,0,8.18,8.18,8.18,0,0,1,8.18,0Z" transform="translate(32.317 190.282)" fill="#31313c" opacity="0.444" style="mix-blend-mode: multiply;isolation: isolate"/>
        <g id="Grupo_78276" data-name="Grupo 78276" transform="translate(236.437 162.877)">
          <g id="Grupo_53306" data-name="Grupo 53306" transform="translate(0)">
            <path id="Trazado_99200" data-name="Trazado 99200" d="M415.4,50.789a.592.592,0,1,1-.592-.565A.579.579,0,0,1,415.4,50.789Z" transform="translate(-414.214 -50.224)" fill="#fff"/>
            <path id="Trazado_99201" data-name="Trazado 99201" d="M423.842,50.789a.592.592,0,1,1-.591-.565A.579.579,0,0,1,423.842,50.789Z" transform="translate(-417.339 -50.224)" fill="#fff"/>
            <path id="Trazado_99202" data-name="Trazado 99202" d="M432.288,50.789a.592.592,0,1,1-.591-.565A.579.579,0,0,1,432.288,50.789Z" transform="translate(-420.464 -50.224)" fill="#fff"/>
            <path id="Trazado_99203" data-name="Trazado 99203" d="M440.736,50.789a.592.592,0,1,1-.592-.565A.579.579,0,0,1,440.736,50.789Z" transform="translate(-423.59 -50.224)" fill="#fff"/>
            <path id="Trazado_99204" data-name="Trazado 99204" d="M449.181,50.789a.592.592,0,1,1-.591-.565A.579.579,0,0,1,449.181,50.789Z" transform="translate(-426.715 -50.224)" fill="#fff"/>
            <path id="Trazado_99205" data-name="Trazado 99205" d="M457.627,50.789a.592.592,0,1,1-.591-.565A.579.579,0,0,1,457.627,50.789Z" transform="translate(-429.84 -50.224)" fill="#fff"/>
            <path id="Trazado_99206" data-name="Trazado 99206" d="M466.075,50.789a.592.592,0,1,1-.592-.565A.579.579,0,0,1,466.075,50.789Z" transform="translate(-432.965 -50.224)" fill="#fff"/>
            <path id="Trazado_99207" data-name="Trazado 99207" d="M474.521,50.789a.592.592,0,1,1-.591-.565A.579.579,0,0,1,474.521,50.789Z" transform="translate(-436.09 -50.224)" fill="#fff"/>
            <path id="Trazado_99208" data-name="Trazado 99208" d="M482.966,50.789a.592.592,0,1,1-.591-.565A.579.579,0,0,1,482.966,50.789Z" transform="translate(-439.215 -50.224)" fill="#fff"/>
            <path id="Trazado_99209" data-name="Trazado 99209" d="M491.414,50.789a.592.592,0,1,1-.592-.565A.579.579,0,0,1,491.414,50.789Z" transform="translate(-442.341 -50.224)" fill="#fff"/>
            <path id="Trazado_99210" data-name="Trazado 99210" d="M499.86,50.789a.592.592,0,1,1-.592-.565A.579.579,0,0,1,499.86,50.789Z" transform="translate(-445.466 -50.224)" fill="#fff"/>
          </g>
          <g id="Grupo_53307" data-name="Grupo 53307" transform="translate(0 4.523)">
            <path id="Trazado_99211" data-name="Trazado 99211" d="M415.4,58.3a.592.592,0,1,1-.592-.565A.579.579,0,0,1,415.4,58.3Z" transform="translate(-414.214 -57.732)" fill="#fff"/>
            <path id="Trazado_99212" data-name="Trazado 99212" d="M423.842,58.3a.592.592,0,1,1-.591-.565A.579.579,0,0,1,423.842,58.3Z" transform="translate(-417.339 -57.732)" fill="#fff"/>
            <path id="Trazado_99213" data-name="Trazado 99213" d="M432.288,58.3a.592.592,0,1,1-.591-.565A.579.579,0,0,1,432.288,58.3Z" transform="translate(-420.464 -57.732)" fill="#fff"/>
            <path id="Trazado_99214" data-name="Trazado 99214" d="M440.736,58.3a.592.592,0,1,1-.592-.565A.579.579,0,0,1,440.736,58.3Z" transform="translate(-423.59 -57.732)" fill="#fff"/>
            <path id="Trazado_99215" data-name="Trazado 99215" d="M449.181,58.3a.592.592,0,1,1-.591-.565A.579.579,0,0,1,449.181,58.3Z" transform="translate(-426.715 -57.732)" fill="#fff"/>
            <path id="Trazado_99216" data-name="Trazado 99216" d="M457.627,58.3a.592.592,0,1,1-.591-.565A.579.579,0,0,1,457.627,58.3Z" transform="translate(-429.84 -57.732)" fill="#fff"/>
            <path id="Trazado_99217" data-name="Trazado 99217" d="M466.075,58.3a.592.592,0,1,1-.592-.565A.579.579,0,0,1,466.075,58.3Z" transform="translate(-432.965 -57.732)" fill="#fff"/>
            <path id="Trazado_99218" data-name="Trazado 99218" d="M474.521,58.3a.592.592,0,1,1-.591-.565A.579.579,0,0,1,474.521,58.3Z" transform="translate(-436.09 -57.732)" fill="#fff"/>
            <path id="Trazado_99219" data-name="Trazado 99219" d="M482.966,58.3a.592.592,0,1,1-.591-.565A.579.579,0,0,1,482.966,58.3Z" transform="translate(-439.215 -57.732)" fill="#fff"/>
            <path id="Trazado_99220" data-name="Trazado 99220" d="M491.414,58.3a.592.592,0,1,1-.592-.565A.579.579,0,0,1,491.414,58.3Z" transform="translate(-442.341 -57.732)" fill="#fff"/>
            <path id="Trazado_99221" data-name="Trazado 99221" d="M499.86,58.3a.592.592,0,1,1-.592-.565A.579.579,0,0,1,499.86,58.3Z" transform="translate(-445.466 -57.732)" fill="#fff"/>
          </g>
          <g id="Grupo_53308" data-name="Grupo 53308" transform="translate(0 9.047)">
            <ellipse id="Elipse_3955" data-name="Elipse 3955" cx="0.591" cy="0.565" rx="0.591" ry="0.565" transform="translate(0)" fill="#fff"/>
            <path id="Trazado_99222" data-name="Trazado 99222" d="M423.842,65.805a.592.592,0,1,1-.591-.565A.579.579,0,0,1,423.842,65.805Z" transform="translate(-417.339 -65.24)" fill="#fff"/>
            <ellipse id="Elipse_3956" data-name="Elipse 3956" cx="0.591" cy="0.565" rx="0.591" ry="0.565" transform="translate(10.642)" fill="#fff"/>
            <path id="Trazado_99223" data-name="Trazado 99223" d="M440.736,65.805a.592.592,0,1,1-.592-.565A.579.579,0,0,1,440.736,65.805Z" transform="translate(-423.589 -65.24)" fill="#fff"/>
            <path id="Trazado_99224" data-name="Trazado 99224" d="M449.181,65.805a.592.592,0,1,1-.591-.565A.579.579,0,0,1,449.181,65.805Z" transform="translate(-426.715 -65.24)" fill="#fff"/>
            <ellipse id="Elipse_3957" data-name="Elipse 3957" cx="0.591" cy="0.565" rx="0.591" ry="0.565" transform="translate(26.606)" fill="#fff"/>
            <path id="Trazado_99225" data-name="Trazado 99225" d="M466.075,65.805a.592.592,0,1,1-.592-.565A.58.58,0,0,1,466.075,65.805Z" transform="translate(-432.965 -65.24)" fill="#fff"/>
            <ellipse id="Elipse_3958" data-name="Elipse 3958" cx="0.591" cy="0.565" rx="0.591" ry="0.565" transform="translate(37.248)" fill="#fff"/>
            <ellipse id="Elipse_3959" data-name="Elipse 3959" cx="0.591" cy="0.565" rx="0.591" ry="0.565" transform="translate(42.569)" fill="#fff"/>
            <path id="Trazado_99226" data-name="Trazado 99226" d="M491.414,65.805a.592.592,0,1,1-.592-.565A.58.58,0,0,1,491.414,65.805Z" transform="translate(-442.341 -65.24)" fill="#fff"/>
            <path id="Trazado_99227" data-name="Trazado 99227" d="M499.86,65.805a.592.592,0,1,1-.592-.565A.579.579,0,0,1,499.86,65.805Z" transform="translate(-445.466 -65.24)" fill="#fff"/>
          </g>
          <g id="Grupo_53309" data-name="Grupo 53309" transform="translate(0 13.57)">
            <ellipse id="Elipse_3960" data-name="Elipse 3960" cx="0.591" cy="0.565" rx="0.591" ry="0.565" transform="translate(0 0)" fill="#fff"/>
            <path id="Trazado_99228" data-name="Trazado 99228" d="M423.842,73.313a.592.592,0,1,1-.591-.566A.578.578,0,0,1,423.842,73.313Z" transform="translate(-417.339 -72.747)" fill="#fff"/>
            <ellipse id="Elipse_3961" data-name="Elipse 3961" cx="0.591" cy="0.565" rx="0.591" ry="0.565" transform="translate(10.642 0)" fill="#fff"/>
            <path id="Trazado_99229" data-name="Trazado 99229" d="M440.736,73.313a.592.592,0,1,1-.592-.566A.579.579,0,0,1,440.736,73.313Z" transform="translate(-423.589 -72.747)" fill="#fff"/>
            <path id="Trazado_99230" data-name="Trazado 99230" d="M449.181,73.313a.592.592,0,1,1-.591-.566A.579.579,0,0,1,449.181,73.313Z" transform="translate(-426.715 -72.747)" fill="#fff"/>
            <ellipse id="Elipse_3962" data-name="Elipse 3962" cx="0.591" cy="0.565" rx="0.591" ry="0.565" transform="translate(26.606 0)" fill="#fff"/>
            <path id="Trazado_99231" data-name="Trazado 99231" d="M466.075,73.313a.592.592,0,1,1-.592-.566A.579.579,0,0,1,466.075,73.313Z" transform="translate(-432.965 -72.747)" fill="#fff"/>
            <ellipse id="Elipse_3963" data-name="Elipse 3963" cx="0.591" cy="0.565" rx="0.591" ry="0.565" transform="translate(37.248 0)" fill="#fff"/>
            <ellipse id="Elipse_3964" data-name="Elipse 3964" cx="0.591" cy="0.565" rx="0.591" ry="0.565" transform="translate(42.569 0)" fill="#fff"/>
            <path id="Trazado_99232" data-name="Trazado 99232" d="M491.414,73.313a.592.592,0,1,1-.592-.566A.579.579,0,0,1,491.414,73.313Z" transform="translate(-442.341 -72.747)" fill="#fff"/>
            <path id="Trazado_99233" data-name="Trazado 99233" d="M499.86,73.313a.592.592,0,1,1-.592-.566A.579.579,0,0,1,499.86,73.313Z" transform="translate(-445.466 -72.747)" fill="#fff"/>
          </g>
          <g id="Grupo_53310" data-name="Grupo 53310" transform="translate(0 18.093)">
            <path id="Trazado_99234" data-name="Trazado 99234" d="M415.4,80.821a.592.592,0,1,1-.592-.566A.579.579,0,0,1,415.4,80.821Z" transform="translate(-414.214 -80.255)" fill="#fff"/>
            <path id="Trazado_99235" data-name="Trazado 99235" d="M423.842,80.821a.592.592,0,1,1-.591-.566A.578.578,0,0,1,423.842,80.821Z" transform="translate(-417.339 -80.255)" fill="#fff"/>
            <path id="Trazado_99236" data-name="Trazado 99236" d="M432.288,80.821a.592.592,0,1,1-.591-.566A.578.578,0,0,1,432.288,80.821Z" transform="translate(-420.464 -80.255)" fill="#fff"/>
            <path id="Trazado_99237" data-name="Trazado 99237" d="M440.736,80.821a.592.592,0,1,1-.592-.566A.579.579,0,0,1,440.736,80.821Z" transform="translate(-423.59 -80.255)" fill="#fff"/>
            <path id="Trazado_99238" data-name="Trazado 99238" d="M449.181,80.821a.592.592,0,1,1-.591-.566A.579.579,0,0,1,449.181,80.821Z" transform="translate(-426.715 -80.255)" fill="#fff"/>
            <path id="Trazado_99239" data-name="Trazado 99239" d="M457.627,80.821a.592.592,0,1,1-.591-.566A.578.578,0,0,1,457.627,80.821Z" transform="translate(-429.84 -80.255)" fill="#fff"/>
            <path id="Trazado_99240" data-name="Trazado 99240" d="M466.075,80.821a.592.592,0,1,1-.592-.566A.579.579,0,0,1,466.075,80.821Z" transform="translate(-432.965 -80.255)" fill="#fff"/>
            <path id="Trazado_99241" data-name="Trazado 99241" d="M474.521,80.821a.592.592,0,1,1-.591-.566A.578.578,0,0,1,474.521,80.821Z" transform="translate(-436.09 -80.255)" fill="#fff"/>
            <path id="Trazado_99242" data-name="Trazado 99242" d="M482.966,80.821a.592.592,0,1,1-.591-.566A.579.579,0,0,1,482.966,80.821Z" transform="translate(-439.215 -80.255)" fill="#fff"/>
            <path id="Trazado_99243" data-name="Trazado 99243" d="M491.414,80.821a.592.592,0,1,1-.592-.566A.579.579,0,0,1,491.414,80.821Z" transform="translate(-442.341 -80.255)" fill="#fff"/>
            <path id="Trazado_99244" data-name="Trazado 99244" d="M499.86,80.821a.592.592,0,1,1-.592-.566A.579.579,0,0,1,499.86,80.821Z" transform="translate(-445.466 -80.255)" fill="#fff"/>
          </g>
          <g id="Grupo_53311" data-name="Grupo 53311" transform="translate(0 22.616)">
            <ellipse id="Elipse_3965" data-name="Elipse 3965" cx="0.591" cy="0.565" rx="0.591" ry="0.565" transform="translate(0 0)" fill="#fff"/>
            <path id="Trazado_99245" data-name="Trazado 99245" d="M423.842,88.329a.592.592,0,1,1-.591-.566A.578.578,0,0,1,423.842,88.329Z" transform="translate(-417.339 -87.763)" fill="#fff"/>
            <ellipse id="Elipse_3966" data-name="Elipse 3966" cx="0.591" cy="0.565" rx="0.591" ry="0.565" transform="translate(10.642 0)" fill="#fff"/>
            <path id="Trazado_99246" data-name="Trazado 99246" d="M440.736,88.329a.592.592,0,1,1-.592-.566A.579.579,0,0,1,440.736,88.329Z" transform="translate(-423.589 -87.763)" fill="#fff"/>
            <path id="Trazado_99247" data-name="Trazado 99247" d="M449.181,88.329a.592.592,0,1,1-.591-.566A.579.579,0,0,1,449.181,88.329Z" transform="translate(-426.715 -87.763)" fill="#fff"/>
            <ellipse id="Elipse_3967" data-name="Elipse 3967" cx="0.591" cy="0.565" rx="0.591" ry="0.565" transform="translate(26.606 0)" fill="#fff"/>
            <path id="Trazado_99248" data-name="Trazado 99248" d="M466.075,88.329a.592.592,0,1,1-.592-.566A.579.579,0,0,1,466.075,88.329Z" transform="translate(-432.965 -87.763)" fill="#fff"/>
            <ellipse id="Elipse_3968" data-name="Elipse 3968" cx="0.591" cy="0.565" rx="0.591" ry="0.565" transform="translate(37.248 0)" fill="#fff"/>
            <ellipse id="Elipse_3969" data-name="Elipse 3969" cx="0.591" cy="0.565" rx="0.591" ry="0.565" transform="translate(42.569 0)" fill="#fff"/>
            <path id="Trazado_99249" data-name="Trazado 99249" d="M491.414,88.329a.592.592,0,1,1-.592-.566A.579.579,0,0,1,491.414,88.329Z" transform="translate(-442.341 -87.763)" fill="#fff"/>
            <path id="Trazado_99250" data-name="Trazado 99250" d="M499.86,88.329a.592.592,0,1,1-.592-.566A.579.579,0,0,1,499.86,88.329Z" transform="translate(-445.466 -87.763)" fill="#fff"/>
          </g>
          <g id="Grupo_53312" data-name="Grupo 53312" transform="translate(0 27.14)">
            <ellipse id="Elipse_3970" data-name="Elipse 3970" cx="0.591" cy="0.565" rx="0.591" ry="0.565" transform="translate(0)" fill="#fff"/>
            <path id="Trazado_99251" data-name="Trazado 99251" d="M423.842,95.836a.592.592,0,1,1-.591-.565A.579.579,0,0,1,423.842,95.836Z" transform="translate(-417.339 -95.271)" fill="#fff"/>
            <ellipse id="Elipse_3971" data-name="Elipse 3971" cx="0.591" cy="0.565" rx="0.591" ry="0.565" transform="translate(10.642)" fill="#fff"/>
            <path id="Trazado_99252" data-name="Trazado 99252" d="M440.736,95.836a.592.592,0,1,1-.592-.565A.579.579,0,0,1,440.736,95.836Z" transform="translate(-423.589 -95.271)" fill="#fff"/>
            <path id="Trazado_99253" data-name="Trazado 99253" d="M449.181,95.836a.592.592,0,1,1-.591-.565A.579.579,0,0,1,449.181,95.836Z" transform="translate(-426.715 -95.271)" fill="#fff"/>
            <ellipse id="Elipse_3972" data-name="Elipse 3972" cx="0.591" cy="0.565" rx="0.591" ry="0.565" transform="translate(26.606)" fill="#fff"/>
            <path id="Trazado_99254" data-name="Trazado 99254" d="M466.075,95.836a.592.592,0,1,1-.592-.565A.579.579,0,0,1,466.075,95.836Z" transform="translate(-432.965 -95.271)" fill="#fff"/>
            <ellipse id="Elipse_3973" data-name="Elipse 3973" cx="0.591" cy="0.565" rx="0.591" ry="0.565" transform="translate(37.248)" fill="#fff"/>
            <ellipse id="Elipse_3974" data-name="Elipse 3974" cx="0.591" cy="0.565" rx="0.591" ry="0.565" transform="translate(42.569)" fill="#fff"/>
            <path id="Trazado_99255" data-name="Trazado 99255" d="M491.414,95.836a.592.592,0,1,1-.592-.565A.579.579,0,0,1,491.414,95.836Z" transform="translate(-442.341 -95.271)" fill="#fff"/>
            <path id="Trazado_99256" data-name="Trazado 99256" d="M499.86,95.836a.592.592,0,1,1-.592-.565A.579.579,0,0,1,499.86,95.836Z" transform="translate(-445.466 -95.271)" fill="#fff"/>
          </g>
          <g id="Grupo_53313" data-name="Grupo 53313" transform="translate(0 31.663)">
            <path id="Trazado_99257" data-name="Trazado 99257" d="M415.4,103.344a.592.592,0,1,1-.592-.565A.579.579,0,0,1,415.4,103.344Z" transform="translate(-414.214 -102.779)" fill="#fff"/>
            <path id="Trazado_99258" data-name="Trazado 99258" d="M423.842,103.344a.592.592,0,1,1-.591-.565A.579.579,0,0,1,423.842,103.344Z" transform="translate(-417.339 -102.779)" fill="#fff"/>
            <path id="Trazado_99259" data-name="Trazado 99259" d="M432.288,103.344a.592.592,0,1,1-.591-.565A.579.579,0,0,1,432.288,103.344Z" transform="translate(-420.464 -102.779)" fill="#fff"/>
            <path id="Trazado_99260" data-name="Trazado 99260" d="M440.736,103.344a.592.592,0,1,1-.592-.565A.579.579,0,0,1,440.736,103.344Z" transform="translate(-423.59 -102.779)" fill="#fff"/>
            <path id="Trazado_99261" data-name="Trazado 99261" d="M449.181,103.344a.592.592,0,1,1-.591-.565A.579.579,0,0,1,449.181,103.344Z" transform="translate(-426.715 -102.779)" fill="#fff"/>
            <path id="Trazado_99262" data-name="Trazado 99262" d="M457.627,103.344a.592.592,0,1,1-.591-.565A.579.579,0,0,1,457.627,103.344Z" transform="translate(-429.84 -102.779)" fill="#fff"/>
            <path id="Trazado_99263" data-name="Trazado 99263" d="M466.075,103.344a.592.592,0,1,1-.592-.565A.579.579,0,0,1,466.075,103.344Z" transform="translate(-432.965 -102.779)" fill="#fff"/>
            <path id="Trazado_99264" data-name="Trazado 99264" d="M474.521,103.344a.592.592,0,1,1-.591-.565A.579.579,0,0,1,474.521,103.344Z" transform="translate(-436.09 -102.779)" fill="#fff"/>
            <path id="Trazado_99265" data-name="Trazado 99265" d="M482.966,103.344a.592.592,0,1,1-.591-.565A.579.579,0,0,1,482.966,103.344Z" transform="translate(-439.215 -102.779)" fill="#fff"/>
            <path id="Trazado_99266" data-name="Trazado 99266" d="M491.414,103.344a.592.592,0,1,1-.592-.565A.579.579,0,0,1,491.414,103.344Z" transform="translate(-442.341 -102.779)" fill="#fff"/>
            <path id="Trazado_99267" data-name="Trazado 99267" d="M499.86,103.344a.592.592,0,1,1-.592-.565A.579.579,0,0,1,499.86,103.344Z" transform="translate(-445.466 -102.779)" fill="#fff"/>
          </g>
          <g id="Grupo_53314" data-name="Grupo 53314" transform="translate(0 36.187)">
            <ellipse id="Elipse_3975" data-name="Elipse 3975" cx="0.591" cy="0.565" rx="0.591" ry="0.565" transform="translate(0)" fill="#fff"/>
            <path id="Trazado_99268" data-name="Trazado 99268" d="M423.842,110.852a.592.592,0,1,1-.591-.565A.579.579,0,0,1,423.842,110.852Z" transform="translate(-417.339 -110.287)" fill="#fff"/>
            <ellipse id="Elipse_3976" data-name="Elipse 3976" cx="0.591" cy="0.565" rx="0.591" ry="0.565" transform="translate(10.642)" fill="#fff"/>
            <path id="Trazado_99269" data-name="Trazado 99269" d="M440.736,110.852a.592.592,0,1,1-.592-.565A.579.579,0,0,1,440.736,110.852Z" transform="translate(-423.589 -110.287)" fill="#fff"/>
            <path id="Trazado_99270" data-name="Trazado 99270" d="M449.181,110.852a.592.592,0,1,1-.591-.565A.579.579,0,0,1,449.181,110.852Z" transform="translate(-426.715 -110.287)" fill="#fff"/>
            <ellipse id="Elipse_3977" data-name="Elipse 3977" cx="0.591" cy="0.565" rx="0.591" ry="0.565" transform="translate(26.606)" fill="#fff"/>
            <path id="Trazado_99271" data-name="Trazado 99271" d="M466.075,110.852a.592.592,0,1,1-.592-.565A.58.58,0,0,1,466.075,110.852Z" transform="translate(-432.965 -110.287)" fill="#fff"/>
            <ellipse id="Elipse_3978" data-name="Elipse 3978" cx="0.591" cy="0.565" rx="0.591" ry="0.565" transform="translate(37.248)" fill="#fff"/>
            <ellipse id="Elipse_3979" data-name="Elipse 3979" cx="0.591" cy="0.565" rx="0.591" ry="0.565" transform="translate(42.569)" fill="#fff"/>
            <path id="Trazado_99272" data-name="Trazado 99272" d="M491.414,110.852a.592.592,0,1,1-.592-.565A.58.58,0,0,1,491.414,110.852Z" transform="translate(-442.341 -110.287)" fill="#fff"/>
            <path id="Trazado_99273" data-name="Trazado 99273" d="M499.86,110.852a.592.592,0,1,1-.592-.565A.579.579,0,0,1,499.86,110.852Z" transform="translate(-445.466 -110.287)" fill="#fff"/>
          </g>
          <g id="Grupo_53315" data-name="Grupo 53315" transform="translate(0 40.709)">
            <path id="Trazado_99274" data-name="Trazado 99274" d="M415.4,118.36a.592.592,0,1,1-.592-.566A.579.579,0,0,1,415.4,118.36Z" transform="translate(-414.214 -117.794)" fill="#fff"/>
            <path id="Trazado_99275" data-name="Trazado 99275" d="M423.842,118.36a.592.592,0,1,1-.591-.566A.579.579,0,0,1,423.842,118.36Z" transform="translate(-417.339 -117.794)" fill="#fff"/>
            <path id="Trazado_99276" data-name="Trazado 99276" d="M432.288,118.36a.592.592,0,1,1-.591-.566A.579.579,0,0,1,432.288,118.36Z" transform="translate(-420.464 -117.794)" fill="#fff"/>
            <path id="Trazado_99277" data-name="Trazado 99277" d="M440.736,118.36a.592.592,0,1,1-.592-.566A.579.579,0,0,1,440.736,118.36Z" transform="translate(-423.59 -117.794)" fill="#fff"/>
            <path id="Trazado_99278" data-name="Trazado 99278" d="M449.181,118.36a.592.592,0,1,1-.591-.566A.579.579,0,0,1,449.181,118.36Z" transform="translate(-426.715 -117.794)" fill="#fff"/>
            <path id="Trazado_99279" data-name="Trazado 99279" d="M457.627,118.36a.592.592,0,1,1-.591-.566A.579.579,0,0,1,457.627,118.36Z" transform="translate(-429.84 -117.794)" fill="#fff"/>
            <path id="Trazado_99280" data-name="Trazado 99280" d="M466.075,118.36a.592.592,0,1,1-.592-.566A.58.58,0,0,1,466.075,118.36Z" transform="translate(-432.965 -117.794)" fill="#fff"/>
            <path id="Trazado_99281" data-name="Trazado 99281" d="M474.521,118.36a.592.592,0,1,1-.591-.566A.579.579,0,0,1,474.521,118.36Z" transform="translate(-436.09 -117.794)" fill="#fff"/>
            <path id="Trazado_99282" data-name="Trazado 99282" d="M482.966,118.36a.592.592,0,1,1-.591-.566A.579.579,0,0,1,482.966,118.36Z" transform="translate(-439.215 -117.794)" fill="#fff"/>
            <path id="Trazado_99283" data-name="Trazado 99283" d="M491.414,118.36a.592.592,0,1,1-.592-.566A.58.58,0,0,1,491.414,118.36Z" transform="translate(-442.341 -117.794)" fill="#fff"/>
            <path id="Trazado_99284" data-name="Trazado 99284" d="M499.86,118.36a.592.592,0,1,1-.592-.566A.579.579,0,0,1,499.86,118.36Z" transform="translate(-445.466 -117.794)" fill="#fff"/>
          </g>
          <g id="Grupo_53316" data-name="Grupo 53316" transform="translate(0 45.233)">
            <ellipse id="Elipse_3980" data-name="Elipse 3980" cx="0.591" cy="0.565" rx="0.591" ry="0.565" transform="translate(0 0)" fill="#fff"/>
            <path id="Trazado_99285" data-name="Trazado 99285" d="M423.842,125.868a.592.592,0,1,1-.591-.566A.578.578,0,0,1,423.842,125.868Z" transform="translate(-417.339 -125.302)" fill="#fff"/>
            <ellipse id="Elipse_3981" data-name="Elipse 3981" cx="0.591" cy="0.565" rx="0.591" ry="0.565" transform="translate(10.642 0)" fill="#fff"/>
            <path id="Trazado_99286" data-name="Trazado 99286" d="M440.736,125.868a.592.592,0,1,1-.592-.566A.579.579,0,0,1,440.736,125.868Z" transform="translate(-423.589 -125.302)" fill="#fff"/>
            <path id="Trazado_99287" data-name="Trazado 99287" d="M449.181,125.868a.592.592,0,1,1-.591-.566A.579.579,0,0,1,449.181,125.868Z" transform="translate(-426.715 -125.302)" fill="#fff"/>
            <ellipse id="Elipse_3982" data-name="Elipse 3982" cx="0.591" cy="0.565" rx="0.591" ry="0.565" transform="translate(26.606 0)" fill="#fff"/>
            <path id="Trazado_99288" data-name="Trazado 99288" d="M466.075,125.868a.592.592,0,1,1-.592-.566A.579.579,0,0,1,466.075,125.868Z" transform="translate(-432.965 -125.302)" fill="#fff"/>
            <ellipse id="Elipse_3983" data-name="Elipse 3983" cx="0.591" cy="0.565" rx="0.591" ry="0.565" transform="translate(37.248 0)" fill="#fff"/>
            <ellipse id="Elipse_3984" data-name="Elipse 3984" cx="0.591" cy="0.565" rx="0.591" ry="0.565" transform="translate(42.569 0)" fill="#fff"/>
            <path id="Trazado_99289" data-name="Trazado 99289" d="M491.414,125.868a.592.592,0,1,1-.592-.566A.579.579,0,0,1,491.414,125.868Z" transform="translate(-442.341 -125.302)" fill="#fff"/>
            <path id="Trazado_99290" data-name="Trazado 99290" d="M499.86,125.868a.592.592,0,1,1-.592-.566A.579.579,0,0,1,499.86,125.868Z" transform="translate(-445.466 -125.302)" fill="#fff"/>
          </g>
          <g id="Grupo_53317" data-name="Grupo 53317" transform="translate(0 49.757)">
            <ellipse id="Elipse_3985" data-name="Elipse 3985" cx="0.591" cy="0.565" rx="0.591" ry="0.565" transform="translate(0 0)" fill="#fff"/>
            <path id="Trazado_99291" data-name="Trazado 99291" d="M423.842,133.376a.592.592,0,1,1-.591-.566A.578.578,0,0,1,423.842,133.376Z" transform="translate(-417.339 -132.81)" fill="#fff"/>
            <ellipse id="Elipse_3986" data-name="Elipse 3986" cx="0.591" cy="0.565" rx="0.591" ry="0.565" transform="translate(10.642 0)" fill="#fff"/>
            <path id="Trazado_99292" data-name="Trazado 99292" d="M440.736,133.376a.592.592,0,1,1-.592-.566A.579.579,0,0,1,440.736,133.376Z" transform="translate(-423.589 -132.81)" fill="#fff"/>
            <path id="Trazado_99293" data-name="Trazado 99293" d="M449.181,133.376a.592.592,0,1,1-.591-.566A.579.579,0,0,1,449.181,133.376Z" transform="translate(-426.715 -132.81)" fill="#fff"/>
            <ellipse id="Elipse_3987" data-name="Elipse 3987" cx="0.591" cy="0.565" rx="0.591" ry="0.565" transform="translate(26.606 0)" fill="#fff"/>
            <path id="Trazado_99294" data-name="Trazado 99294" d="M466.075,133.376a.592.592,0,1,1-.592-.566A.579.579,0,0,1,466.075,133.376Z" transform="translate(-432.965 -132.81)" fill="#fff"/>
            <ellipse id="Elipse_3988" data-name="Elipse 3988" cx="0.591" cy="0.565" rx="0.591" ry="0.565" transform="translate(37.248 0)" fill="#fff"/>
            <ellipse id="Elipse_3989" data-name="Elipse 3989" cx="0.591" cy="0.565" rx="0.591" ry="0.565" transform="translate(42.569 0)" fill="#fff"/>
            <path id="Trazado_99295" data-name="Trazado 99295" d="M491.414,133.376a.592.592,0,1,1-.592-.566A.579.579,0,0,1,491.414,133.376Z" transform="translate(-442.341 -132.81)" fill="#fff"/>
            <path id="Trazado_99296" data-name="Trazado 99296" d="M499.86,133.376a.592.592,0,1,1-.592-.566A.579.579,0,0,1,499.86,133.376Z" transform="translate(-445.466 -132.81)" fill="#fff"/>
          </g>
        </g>
        <line id="Línea_138" data-name="Línea 138" y2="115.674" transform="translate(8.548 61)" fill="none" stroke="#fff" stroke-width="1" stroke-dasharray="8"/>
      </g>
    </g>
    <g id="Grupo_158707" data-name="Grupo 158707" transform="translate(1041 826.871)">
      <g id="Grupo_158707-2" data-name="Grupo 158707" clip-path="url(#clip-path-2)">
        <path id="Trazado_153659" data-name="Trazado 153659" d="M148.737,93.3v2.9c-.827,4.363-3.687,6.732-8.187,6.781-3.406.037-3.383.043-4.237,3.35a22.77,22.77,0,0,0,.447,12.706,2.118,2.118,0,0,0,2.4,1.746c2.874-.078,5.551.433,7.688,2.668a7.036,7.036,0,0,1,1.892,4.091v2.9c-.814,4.238-3.682,6.658-8.067,6.8-.338.011-.677.009-1.015.009H13.862a13.693,13.693,0,0,1-10.153-3.866A11.648,11.648,0,0,1,0,124.86q0-12.985,0-25.969c0-4.412,2.164-7.641,5.677-10.024a1.855,1.855,0,0,0,.912-2.572C4.8,81.044,8.348,75.97,14.035,75.493c.434-.036.87-.031,1.305-.034,2.5-.019,2.653-.121,3.34-2.468a22.048,22.048,0,0,0-.1-13.135c-.651-2.048-.712-2.1-2.834-2.113a9.961,9.961,0,0,1-6.316-1.732A7.722,7.722,0,0,1,6.268,48.1a7.813,7.813,0,0,1,5.781-6.438,13.583,13.583,0,0,0,2.251-.582,30.527,30.527,0,0,1-3-3.15A23.012,23.012,0,0,1,11.011,9.06,22.615,22.615,0,0,1,26.641.271,41.428,41.428,0,0,1,31.7,0Q66.453.01,101.2,0a11.219,11.219,0,0,1,5.085.933,8.422,8.422,0,0,1,4.694,8.29,8.246,8.246,0,0,1-7.139,7.318c-3.416.489-3.359.5-4.024,3.921a17.815,17.815,0,0,0,.461,7.605,2.11,2.11,0,0,0,2.307,1.862c4.643.173,7.663,2.939,8.4,7.492a6.057,6.057,0,0,1-.177,2.583c-.247.916.088,1.221.994,1.219a40.479,40.479,0,0,1,5.933.245,13.092,13.092,0,0,1,11.4,13.108c.018,7.931-.021,15.862.018,23.792a13.5,13.5,0,0,1-1.86,7.056c-.715,1.221-.634,1.341.785,1.346,4.3.015,8.609.03,12.913,0a8.177,8.177,0,0,1,6.45,3.069,6.745,6.745,0,0,1,1.3,3.461"/>
        <path id="Trazado_153660" data-name="Trazado 153660" d="M51.812,108.964c1.054.974,2.1,1.962,3.167,2.917s2.19,1.811,3.734,1.148,1.72-2.043,1.724-3.492a4.23,4.23,0,0,1,.073-.567,2.639,2.639,0,0,1,1.922-.472q33.2-.012,66.4,0c1.944,0,2.084.166,1.959,1.727a28.582,28.582,0,0,0,1.4,9.99c.257.8.174,1.176-.754,1.039a4.007,4.007,0,0,0-.58,0q-56.664,0-113.329-.014c-.58,0-1.258.29-1.738-.329-.264-3.706-.048-7.416-.114-11.124-.011-.648.41-.94.948-1.114a6,6,0,0,1,1.865-.172q8.4-.007,16.79,0c2.3,0,2.3.014,2.538,2.205.818,2.733,2.84,3.363,5.025,1.519,1.251-1.055,2.427-2.2,3.637-3.3a7.393,7.393,0,0,1,5.333.042" fill="#f8f6f7"/>
        <path id="Trazado_153661" data-name="Trazado 153661" d="M11.685,132.218a8.054,8.054,0,0,1-7.16-7.819q-.111-12.468,0-24.936a8.036,8.036,0,0,1,7.846-7.953c8.165-.141,16.335-.056,24.5-.09.773,0,1,.271.973,1.012-.046,1.448-.08,2.9.01,4.347.067,1.1-.21,1.473-1.4,1.461-6.476-.065-12.952-.035-19.429-.029-3.861,0-5.776,1.92-5.781,5.788q-.01,7.974,0,15.948c0,3.063,1.093,4.576,4.008,5.621a5.673,5.673,0,0,0,1.729.087q46.478.008,92.955.005c.387,0,.775.021,1.16,0,.926-.059,1.127.443.843,1.177a24.457,24.457,0,0,1-2.707,4.947,1.265,1.265,0,0,1-1.127.546c-.386-.011-.773,0-1.16,0q-46.84,0-93.68,0a4.118,4.118,0,0,1-1.578-.1" fill="#fedf7c"/>
        <path id="Trazado_153662" data-name="Trazado 153662" d="M61.975,11.97a2.4,2.4,0,0,0-1.561,2.1,9.448,9.448,0,0,1-6.269,0A2.446,2.446,0,0,0,51.391,11.9c-7.39.033-14.781-.047-22.171.041A11.277,11.277,0,0,0,17.955,22.129,11.462,11.462,0,0,0,26.05,34.224a14.143,14.143,0,0,0,3.131.515,5.12,5.12,0,0,0,1.581.084q22.8.007,45.594,0c1.858,0,2,.128,1.4,1.853-.611,1.749-.9,3.679-2.449,4.978-.287.026-.574.075-.861.076-14.976,0-29.953.053-44.929-.017A18.288,18.288,0,0,1,11.333,27.411C8.761,16.682,17.013,5.335,27.607,5.034a4.039,4.039,0,0,1,1.436-.095c15.4,0,30.805.017,46.207-.037a2.186,2.186,0,0,1,2.5,1.786c.326,1.161.738,2.3,1,3.479.3,1.384.006,1.721-1.428,1.723-4.587.006-9.174,0-13.761.006a5.732,5.732,0,0,0-1.585.074" fill="#fedf7c"/>
        <path id="Trazado_153663" data-name="Trazado 153663" d="M108.974,75.872c-.675.022-1.35.063-2.025.063q-22.557.006-45.114.03c-1.136,0-1.5-.275-1.414-1.417a28.174,28.174,0,0,0,0-4.348c-.107-1.276.388-1.49,1.545-1.471,4.206.07,8.413.03,12.62.025a9.023,9.023,0,0,0,1.445-.068,1.985,1.985,0,0,0,1.781-2.122,1.955,1.955,0,0,0-1.692-2.053,9.5,9.5,0,0,0-1.73-.1q-24.008-.007-48.016.021c-1.415,0-2.454-.068-2.3-1.869a7.043,7.043,0,0,0-.164-1.431c.031-.686.59-.675,1.041-.748a11.709,11.709,0,0,1,1.883-.058q38.739,0,77.478,0c4.257,0,5.129.862,5.134,5.067,0,2.805.01,5.61,0,8.415a2.819,2.819,0,0,1-.468,2.067" fill="#f8f6f7"/>
        <path id="Trazado_153664" data-name="Trazado 153664" d="M60.548,80.516c.429-.491,1-.223,1.486-.224q24.808-.02,49.618,0c4.194,0,6-1.811,6-6q0-7.907,0-15.813c-.007-3.6-1.968-5.562-5.554-5.562q-48.24,0-96.48,0a3.879,3.879,0,0,1-2.129-.226c.777-.705,1.74-.475,2.632-.475q27.557-.023,55.114-.011H94.44c.483,0,.967,0,1.45-.021.743-.029,1.071-.359.858-1.115-.027-.093-.053-.186-.077-.28-.957-3.807-1.244-4.03-5.193-4.03q-37.491,0-74.983-.012c-.934,0-1.952.267-2.763-.5a2.934,2.934,0,0,1,1.564-.165c33.277,0,66.555.046,99.832-.03,5.663-.013,9.453,4.072,9.308,9.318q-.311,11.235,0,22.486a8.792,8.792,0,0,1-9.2,9.27c-17.8-.093-35.6-.024-53.4-.029-.416,0-.872.165-1.248-.17.686-.641,1.547-.455,2.347-.456,9.424-.015,18.85-.062,28.273.034a3.5,3.5,0,0,0,3.75-2.391c1.374-3.153,1.451-3.124-1.9-3.124q-15.08,0-30.159-.008a3.148,3.148,0,0,1-2.352-.462" fill="#7edaad"/>
        <path id="Trazado_153665" data-name="Trazado 153665" d="M94.751,22.2a26.1,26.1,0,0,0,1.14,7.959c-.38.312-.775.182-1.138.182q-32.464.012-64.929,0c-3.549,0-6.013-1.641-7.056-4.644a1.814,1.814,0,0,1,.844-2.115,8.149,8.149,0,0,1,5.231-1.846c3.24-.015,6.48-.006,9.72-.006q26.769,0,53.537.008c.9,0,1.855-.194,2.651.458" fill="#f8f6f7"/>
        <path id="Trazado_153666" data-name="Trazado 153666" d="M13.732,46.243c.628.018,1.255.051,1.883.051q39.014,0,78.027-.035c1.377,0,2.125.4,2.524,1.66.391,1.24.806,2.476,1.277,3.687.3.772.124,1.1-.707,1.062-.386-.015-.773,0-1.16,0H14.5c-.338,0-.676.013-1.014.02a3.269,3.269,0,0,1,.243-6.444" fill="#a6e8a5"/>
        <path id="Trazado_153667" data-name="Trazado 153667" d="M130.788,110.229c.111-1.313-.743-1.266-1.676-1.266q-34.3.018-68.6.007c-.025-1.591.02-3.186-.1-4.77-.094-1.259.216-1.686,1.6-1.675,9.417.071,18.834.019,28.251.055,1.5.006,2.516-.479,2.958-1.955-.009-.619.48-.685.895-.716a30.245,30.245,0,0,1,4.485,0c.426.032.89.128.9.725.43,1.5,1.477,1.948,2.966,1.943,9.429-.034,18.858-.017,28.287-.017H132.5a39.868,39.868,0,0,0-1.716,7.667" fill="#dcd9eb"/>
        <path id="Trazado_153668" data-name="Trazado 153668" d="M94.751,22.2q-32.985,0-65.97-.009a7.919,7.919,0,0,0-4.941,1.739c-.564.433-1.158.915-1.072,1.771a6.912,6.912,0,0,1,5.289-9.309,14.789,14.789,0,0,1,2.168-.115q10.442-.012,20.884-.009c1.986,0,2.45-.357,3.036-2.193h6.269c.456,1.821.968,2.192,3.134,2.193,10.273,0,20.547.029,30.82-.029,1.375-.007,1.576.28,1.185,1.568a36.606,36.606,0,0,0-.8,4.392" fill="#dedbec"/>
        <path id="Trazado_153669" data-name="Trazado 153669" d="M108.974,75.872q0-5.8,0-11.606c0-2.569-.917-3.472-3.486-3.472q-39.9,0-79.8.011c-.6,0-1.272-.249-1.777.324-.363-1.24-.725-2.479-1.132-3.869h1.509q43.578,0,87.158-.031c1.436,0,1.92.318,1.891,1.832-.1,5.122-.062,10.247-.015,15.37.01,1.1-.253,1.641-1.456,1.521-.957-.1-1.927-.058-2.892-.08" fill="#dcd9eb"/>
        <path id="Trazado_153670" data-name="Trazado 153670" d="M99.5,100.636c-.466-.623-1.15-.393-1.716-.343-1.522.138-3.1-.439-4.57.334-.38-1.972-.9-2.415-2.912-2.416-9.472,0-18.944-.029-28.415.029-1.24.009-1.575-.335-1.48-1.524a27.306,27.306,0,0,0,.005-4.055c-.074-1.064.342-1.251,1.312-1.249,11.163.032,22.326.011,33.489.025,5.844.007,11.688.056,17.532.085a14.846,14.846,0,0,1,1.911,5.543c.191.886-.353,1.031-1.1,1.026-3.465-.022-6.93-.013-10.394-.006a4.454,4.454,0,0,0-1.433.082,2.337,2.337,0,0,0-2.229,2.469" fill="#fedf7c"/>
        <path id="Trazado_153671" data-name="Trazado 153671" d="M52.063,102.972c-3.139-2.553-3.137-2.55-6.117.318-1.147,1.1-2.311,2.192-3.448,3.269-.39-.077-.305-.359-.305-.574q-.009-18.182,0-36.363a4.1,4.1,0,0,1,.119-.7c3.074-.314,6.157-.054,9.234-.139.628-.017.828.394.931.9a8.568,8.568,0,0,1,.093,1.731q0,14.544-.009,29.088c0,.844.2,1.756-.494,2.474" fill="#ea5468"/>
        <path id="Trazado_153672" data-name="Trazado 153672" d="M11.685,132.218c.58-.013,1.16-.038,1.739-.038q46.719,0,93.438.037a2.551,2.551,0,0,0,2.663-1.663c.577-1.219,1.236-2.4,1.917-3.569.6-1.016.207-1.266-.789-1.177-.336.03-.677.005-1.016.005q-46.283,0-92.567-.01c-.607,0-1.262.21-1.82-.235,1.353.009,2.706.025,4.059.025q60.047.007,120.092.018a12.486,12.486,0,0,1,2.306.15,3.289,3.289,0,0,1,2.672,3.173,3.394,3.394,0,0,1-2.369,3.286,5.812,5.812,0,0,1-1.863.2q-63.309,0-126.619,0a3.441,3.441,0,0,1-1.843-.207" fill="#fecf64"/>
        <path id="Trazado_153673" data-name="Trazado 153673" d="M60.548,80.516l34.642.016c1.738,0,1.726.005,1.055,1.661-.635,1.566-1.025,3.511-2.294,4.43-1.235.893-3.179.26-4.809.265-9.518.033-19.035.027-28.553.035a32.971,32.971,0,0,1-.041-6.407" fill="#a6e7a5"/>
        <path id="Trazado_153674" data-name="Trazado 153674" d="M61.975,11.97c.461-.4,1.018-.225,1.532-.227,4.543-.014,9.086,0,13.63-.011,1.477,0,1.577-.158,1.141-1.615-.359-1.2-.788-2.382-1.065-3.6-.265-1.163-.881-1.465-2.048-1.462q-22.91.061-45.82.025c-.579,0-1.158-.03-1.738-.047a3.836,3.836,0,0,1,1.853-.2q36.27-.008,72.542,0c2.783,0,4.523,1.655,4.206,3.959a3.388,3.388,0,0,1-2.894,3,13,13,0,0,1-2.023.114q-19.658.034-39.316.055" fill="#fdcf63"/>
        <path id="Trazado_153675" data-name="Trazado 153675" d="M75.309,41.658a54.069,54.069,0,0,0,2.236-5.632c.263-.8.163-1.088-.77-1.077-3.717.045-7.436.019-11.153.019q-17.382,0-34.764-.01c-.56,0-1.164.193-1.677-.219.483-.016.965-.045,1.448-.045q35.548,0,71.1,0a5.992,5.992,0,0,1,2.287.271,3.5,3.5,0,0,1,2.19,3.7,3.4,3.4,0,0,1-3.048,3.01,16.253,16.253,0,0,1-1.739.054q-12.333.006-24.667,0c-.481,0-.961-.049-1.442-.075" fill="#fecf64"/>
        <path id="Trazado_153676" data-name="Trazado 153676" d="M101.734,98.167a4.8,4.8,0,0,1,2.538-.212c2.885-.037,5.775-.1,8.656.022,1.479.063,1.514-.459,1.21-1.634a37.546,37.546,0,0,1-1.388-4.82c2.847-.03,5.694-.08,8.541-.085,6.426-.012,12.852-.026,19.278.01,2.86.016,4.565,2.338,3.513,4.693a3.3,3.3,0,0,1-3.215,2.059q-19.568,0-39.133-.033" fill="#fecf64"/>
        <path id="Trazado_153677" data-name="Trazado 153677" d="M25.682,80.291c3.675,0,7.35.028,11.024-.021.9-.012,1.179.255,1.141,1.146-.065,1.544-.046,3.094,0,4.64.019.719-.161,1.042-.954,1.039-7.495-.023-14.989.013-22.483-.034a3.323,3.323,0,0,1-3.526-3.424A3.4,3.4,0,0,1,14.513,80.3c3.723-.037,7.446-.01,11.169-.011" fill="#a6e8a5"/>
        <path id="Trazado_153678" data-name="Trazado 153678" d="M52.063,102.972q.013-16.42.046-32.842c0-.978-.349-1.228-1.265-1.214-2.845.041-5.691.007-8.536,0a10.138,10.138,0,0,1,3.553-.183c2.993-.043,5.988.018,8.981-.017.887-.01,1.284.178,1.281,1.19q-.054,18.033-.035,36.067c0,.176-.025.353-.066.911l-3.959-3.915" fill="#e3384e"/>
        <path id="Trazado_153679" data-name="Trazado 153679" d="M37.817,110.708c-.063-1.665-1.073-1.786-2.474-1.767-5.842.078-11.686.03-17.529.035-1.9,0-1.969.076-1.977,1.943q-.019,5-.046,9.992c-.381-.356-.209-.819-.21-1.231-.006-5.172.042-10.345-.015-15.516-.015-1.288.4-1.639,1.66-1.628q9.644.087,19.289,0c1.1-.01,1.388.28,1.344,1.361-.093,2.267-.037,4.541-.042,6.812" fill="#dcd9eb"/>
        <path id="Trazado_153680" data-name="Trazado 153680" d="M22.767,75.937a30.047,30.047,0,0,0,1.445-6.456c.047-.577.3-.729.82-.728q6,.014,12.009,0c.654,0,.8.287.795.879-.026,1.832-.018,3.665,0,5.5.005.5-.061.822-.682.82-4.762-.014-9.525-.008-14.385-.008" fill="#f8f6f7"/>
        <path id="Trazado_153681" data-name="Trazado 153681" d="M51.812,108.964l-5.333-.042a.439.439,0,0,1,.057-.13c2.612-2.818,2.612-2.818,5.276.172" fill="#d9d6e8"/>
      </g>
    </g>
  </g>
</svg>
