<svg xmlns="http://www.w3.org/2000/svg" xmlns:xlink="http://www.w3.org/1999/xlink" width="77" height="77" viewBox="0 0 77 77">
  <defs>
    <clipPath id="clip-path">
      <rect id="Rectángulo_35677" data-name="Rectángulo 35677" width="47.701" height="38.72" fill="#31313c"/>
    </clipPath>
  </defs>
  <g id="Grupo_158227" data-name="Grupo 158227" transform="translate(-656.891 -1572)">
    <circle id="Elipse_4724" data-name="Elipse 4724" cx="38.5" cy="38.5" r="38.5" transform="translate(656.891 1572)" fill="#fd9827"/>
    <g id="Grupo_158886" data-name="Grupo 158886" transform="translate(671.891 1591)">
      <g id="Grupo_158886-2" data-name="Grupo 158886" transform="translate(0 0)" clip-path="url(#clip-path)">
        <path id="Trazado_154350" data-name="Trazado 154350" d="M120.722,77.232a.506.506,0,0,0,.078-.191,1.243,1.243,0,0,1-.078.191" transform="translate(-73.192 -46.709)" fill="#31313c"/>
        <path id="Trazado_154351" data-name="Trazado 154351" d="M38.555,37.794c0-.632,0-.626-.632-.685a5.253,5.253,0,0,1-4.874-3.6c-1.193-3.221-2.467-6.415-3.708-9.613Q25.157,13.071,20.985,2.246a.567.567,0,0,0-.667-.445,11.778,11.778,0,0,1-1.582,0,.618.618,0,0,0-.731.481v.005Q13.578,13.736,9.116,25.171C8,28.038,6.925,30.926,5.666,33.737a5.256,5.256,0,0,1-3.653,3.107c-.664.169-1.341.241-2.012.355V39.8c.17-.009.339-.026.508-.026H6.936c2.405,0,4.81-.009,7.216.009.378,0,.478-.106.457-.468-.03-.51-.008-1.023-.008-1.535,0-.628,0-.63-.648-.669a10.9,10.9,0,0,1-3.576-.751c-.958-.4-1.126-.709-.993-1.749.026-.2.043-.4.088-.6a58.832,58.832,0,0,1,2.173-6.656c.1-.284.289-.264.509-.264q5.752,0,11.5-.006a.5.5,0,0,1,.562.39c.876,2.413,1.8,4.811,2.653,7.233.548,1.552.536,1.556-1.082,2.011a14.906,14.906,0,0,1-2.9.4c-.294.023-.392.119-.38.42.026.6.032,1.212,0,1.816-.021.369.113.428.447.426,2.251-.014,4.5-.007,6.753-.007,2.806,0,5.621-.006,8.43.007.326,0,.431-.082.414-.413-.021-.522,0-1.052,0-1.579M22.374,24q-4.491-.021-8.981,0c-.285,0-.427,0-.283-.368Q15.449,17.6,17.76,11.56c.022-.056.05-.109.112-.244.692,1.778,1.347,3.462,2,5.143.926,2.376,1.846,4.755,2.788,7.124.146.356.086.416-.291.414Z" transform="translate(0 -1.084)" fill="#31313c"/>
        <path id="Trazado_154352" data-name="Trazado 154352" d="M104.7,5.807C103.524,3.9,102.372,1.97,101.181,0L96.29,8.083c1.122,0,2.163.022,3.2-.011.416-.013.508.1.507.51q-.021,10.241-.01,20.479c0,1.134,0,1.134-1.126,1.134H96.286l4.894,8.087.98-1.615,3.743-6.145a1.244,1.244,0,0,0,.078-.191c.009-.1-.077-.144-.285-.141-.977.015-1.956,0-2.933.011-.291,0-.4-.056-.4-.381q.016-10.687,0-21.374c0-.335.129-.371.407-.369,1.1.009,2.2,0,3.307-.006V7.978a18.136,18.136,0,0,1-1.38-2.171" transform="translate(-58.377 0)" fill="#31313c"/>
        <path id="Trazado_154353" data-name="Trazado 154353" d="M112.117,20.517c-.278,0-.408.034-.407.369q.016,10.687,0,21.374c0,.325.111.386.4.381.978-.015,1.956,0,2.934-.011.206,0,.293.039.284.141.064-.219-.038-.3-.377-.316-.759-.041-1.519-.012-2.279-.015-.825,0-.827,0-.827-.81V21.253c0-.541.048-.585.583-.589.775-.007,1.55,0,2.326,0a.925.925,0,0,0,.664-.148c-1.1,0-2.2.01-3.3,0" transform="translate(-67.728 -12.438)" fill="#31313c"/>
      </g>
    </g>
  </g>
</svg>
