<svg xmlns="http://www.w3.org/2000/svg" xmlns:xlink="http://www.w3.org/1999/xlink" width="77" height="77" viewBox="0 0 77 77">
  <defs>
    <clipPath id="clip-path">
      <rect id="Rectángulo_35675" data-name="Rectángulo 35675" width="45.033" height="45.042" fill="#31313c"/>
    </clipPath>
  </defs>
  <g id="Grupo_158885" data-name="Grupo 158885" transform="translate(-301.891 -568)">
    <circle id="Elipse_4724" data-name="Elipse 4724" cx="38.5" cy="38.5" r="38.5" transform="translate(301.891 568)" fill="#fd9827"/>
    <g id="Grupo_158883" data-name="Grupo 158883" transform="translate(317.891 584)">
      <g id="Grupo_158882" data-name="Grupo 158882" clip-path="url(#clip-path)">
        <path id="Trazado_154349" data-name="Trazado 154349" d="M42.922,45.042H41.339a7.815,7.815,0,0,1-1.4-.873c-1.543-1.482-3.038-3.015-4.554-4.527a1.563,1.563,0,0,1-.5-1.265.529.529,0,0,0-.077-.36c-.549-.583-1.115-1.149-1.6-1.647-1.045.549-2.005,1.045-2.953,1.565a.553.553,0,0,0-.232.392c-.029.453-.007.909-.012,1.363a2.24,2.24,0,0,1-2.349,2.351q-12.644.007-25.287,0A2.25,2.25,0,0,1,0,39.668Q0,21.019,0,2.37A2.243,2.243,0,0,1,2.381,0q10.07,0,20.142,0a2.439,2.439,0,0,1,1.811.751q2.451,2.462,4.914,4.913a2.476,2.476,0,0,1,.772,1.891C30,8.669,30.047,9.784,30,10.9a.8.8,0,0,0,.6.891A14.167,14.167,0,0,1,38.11,29.72c-.463,1.19-1.119,2.3-1.718,3.519.475.468,1.023,1.018,1.585,1.552a.5.5,0,0,0,.347.112,1.643,1.643,0,0,1,1.374.551c1.342,1.353,2.685,2.706,4.045,4.04a4.709,4.709,0,0,1,1.29,1.852V42.93c-.132.255-.255.515-.4.765a3.51,3.51,0,0,1-1.715,1.346M28.5,38.569a.423.423,0,0,0-.082-.012c-.057.01-.114.021-.17.034a14.055,14.055,0,0,1-10.907-1.652,1.347,1.347,0,0,0-.661-.152q-6.266-.013-12.532-.007c-.147,0-.294.007-.44-.006A.75.75,0,0,1,3,36.062a.76.76,0,0,1,.649-.768,2.946,2.946,0,0,1,.439-.013H15.113c-.418-.444-.786-.8-1.113-1.194a.825.825,0,0,0-.716-.311c-3.078.011-6.156.007-9.234.006a2.363,2.363,0,0,1-.438-.018.743.743,0,0,1,.049-1.47,3.479,3.479,0,0,1,.439-.009h8.535c-.233-.44-.448-.791-.608-1.165a.516.516,0,0,0-.571-.34c-2.433.011-4.866.007-7.3.006a3.519,3.519,0,0,1-.483-.012A.761.761,0,0,1,3,29.98a.748.748,0,0,1,.726-.69c.131-.01.264,0,.4,0h7.107a9.453,9.453,0,0,1-.3-1.1c-.051-.346-.22-.405-.53-.4-2.111.012-4.221.007-6.332,0a1.935,1.935,0,0,1-.563-.063.674.674,0,0,1-.5-.739.69.69,0,0,1,.63-.681,3.019,3.019,0,0,1,.439-.015h6.5c-.026-.53-.05-1-.075-1.5H7.67c-1.246,0-2.492,0-3.738,0-.586,0-.938-.3-.93-.766s.342-.724.909-.735c.337-.006.674,0,1.011,0,1.759,0,3.518.006,5.277-.01.143,0,.382-.123.411-.233a11.783,11.783,0,0,0,.206-1.263H4.12c-.757,0-1.118-.244-1.117-.749s.369-.754,1.118-.755c2.243,0,4.485,0,6.728-.007.153,0,.395-.052.444-.153.2-.412.345-.853.532-1.343h-.539q-3.694,0-7.387,0c-.56,0-.9-.291-.9-.744s.348-.741.9-.755c.117,0,.234,0,.352,0,2.667,0,5.335,0,8-.007a.714.714,0,0,0,.5-.153c.524-.66,1.013-1.348,1.552-2.077h-.49q-4.573,0-9.146,0A1.526,1.526,0,0,1,3,13.357Q2.994,9,3,4.65A1.517,1.517,0,0,1,4.641,3q7.365,0,14.73,0a1.516,1.516,0,0,1,1.646,1.643c0,1.95,0,3.9,0,5.849v.53a14.161,14.161,0,0,1,7.473-.012V7.5H28c-1.3,0-2.609.008-3.914,0a1.479,1.479,0,0,1-1.568-1.573c-.007-.924,0-1.847,0-2.771V1.5H2.65C1.691,1.5,1.5,1.7,1.5,2.662V39.383c0,.962.2,1.161,1.156,1.161H27.366a2.868,2.868,0,0,0,.483-.014.684.684,0,0,0,.644-.62c.034-.447.008-.9.008-1.341M12.016,24.78H28.849a3.641,3.641,0,0,1,.527.017.733.733,0,0,1,.1,1.431,2.373,2.373,0,0,1-.609.052q-8.091,0-16.183,0H12.11a8.991,8.991,0,0,1,.162.994c.023.451.254.518.657.516,4.324-.014,8.648-.009,12.972-.009,1.1,0,2.2-.005,3.3,0a.72.72,0,0,1,.809.73.748.748,0,0,1-.788.765c-.132.008-.264,0-.4,0H12.835c.175.4.338.745.47,1.1a.593.593,0,0,0,.665.413q7.454-.02,14.907-.009c.147,0,.294-.007.44.006a.716.716,0,0,1,.691.714.73.73,0,0,1-.641.765,3.274,3.274,0,0,1-.483.013H14.453c.366.439.671.786.955,1.151a.892.892,0,0,0,.788.356c2.756-.015,5.511-.009,8.267-.008a2.5,2.5,0,0,1,.438.017.745.745,0,0,1-.036,1.471,2.9,2.9,0,0,1-.4.01q-3.188,0-6.376,0c-.135,0-.27.014-.468.025.109.086.152.125.2.157a12.7,12.7,0,0,0,14.22-.246.656.656,0,0,0,.223-.462q.017-9.984,0-19.967a.643.643,0,0,0-.225-.461,12.522,12.522,0,0,0-8.433-2.261c-.261.021-.348.127-.344.385.013.777.008,1.554,0,2.331A2.263,2.263,0,0,1,20.78,17.26c-1.979,0-3.958,0-5.937.006-.148,0-.36.024-.432.12-.311.415-.581.862-.919,1.377H28.806c.146,0,.294-.007.44,0a.74.74,0,0,1,.762.745.729.729,0,0,1-.793.751c-.146.007-.293,0-.44,0H13.429a1.25,1.25,0,0,0-.35.008c-.108.033-.255.1-.288.192-.15.406-.266.826-.415,1.305H13q7.937,0,15.875,0a2.577,2.577,0,0,1,.568.038.734.734,0,0,1,0,1.425,2.787,2.787,0,0,1-.612.04q-8.048,0-16.095,0a.936.936,0,0,0-.348.009c-.12.053-.29.159-.3.261-.052.388-.05.783-.072,1.234m7.5-20.253h-15v8.994c.185,0,.356,0,.527,0q5.4.043,10.8.082c.075,0,.152-.069.226-.112,1.074-.622,2.149-1.242,3.216-1.874a.467.467,0,0,0,.223-.312c.013-2.242.01-4.484.01-6.778M33.81,15.85V33.731a12.64,12.64,0,0,0,0-17.881M36.438,38.5c1.534,1.55,3.051,3.093,4.581,4.623a1.363,1.363,0,0,0,1.254.378,1.424,1.424,0,0,0,1.177-.993,1.47,1.47,0,0,0-.422-1.6q-2.171-2.174-4.346-4.344a1.407,1.407,0,0,0-.179-.135L36.438,38.5M21.735,12.4a12.866,12.866,0,0,0-5.98,3.36c1.852,0,3.575.005,5.3,0a.614.614,0,0,0,.67-.571c.038-.913.013-1.829.013-2.785m2.3-6.439h3.23L24.04,2.725ZM34.365,35.33l1.483,1.493.942-.945-1.455-1.453-.97.9" transform="translate(0 0)" fill="#31313c"/>
      </g>
    </g>
  </g>
</svg>
