<svg xmlns="http://www.w3.org/2000/svg" xmlns:xlink="http://www.w3.org/1999/xlink" width="77" height="77" viewBox="0 0 77 77">
  <defs>
    <clipPath id="clip-path">
      <rect id="Rectángulo_35689" data-name="Rectángulo 35689" width="47.204" height="47.183" fill="#31313c"/>
    </clipPath>
  </defs>
  <g id="Grupo_158230" data-name="Grupo 158230" transform="translate(-656.891 -1572)">
    <g id="Grupo_158892" data-name="Grupo 158892">
      <circle id="Elipse_4724" data-name="Elipse 4724" cx="38.5" cy="38.5" r="38.5" transform="translate(656.891 1572)" fill="#fd9827"/>
      <g id="Grupo_158891" data-name="Grupo 158891" transform="translate(671.891 1587)">
        <g id="Grupo_158891-2" data-name="Grupo 158891" clip-path="url(#clip-path)">
          <path id="Trazado_154369" data-name="Trazado 154369" d="M45.589,77.4h1.547v1.538H22.014v2.144a2.375,2.375,0,0,1-2.139,2.589,2.348,2.348,0,0,1-.459,0H2.623a2.383,2.383,0,0,1-2.61-2.626q0-8.838-.007-17.677a2.785,2.785,0,0,1,.865-2.105q2.533-2.5,5.036-5.034a2.732,2.732,0,0,1,2.061-.851c3.715.014,7.432.066,11.146-.018a2.582,2.582,0,0,1,2.876,3.13H20.466c-.007-.151-.02-.308-.022-.466-.008-.828-.249-1.067-1.094-1.068H7.872V60.52a2.409,2.409,0,0,1-2.711,2.723q-1.719,0-3.437.008a.612.612,0,0,0-.138.054V80.947c0,.935.22,1.154,1.155,1.154H19.289c.935,0,1.155-.219,1.156-1.155V79c-.478-.069-.867-.167-1.174.41a2.239,2.239,0,0,1-2.63,1.013,2.35,2.35,0,0,1,.072-4.534,2.29,2.29,0,0,1,2.606,1.086.682.682,0,0,0,.718.41c1.684-.02,3.368-.009,5.127-.009V72.862c0-.707.275-.979.98-.981h3.733v-3.11c0-1.553.05-1.6,1.587-1.6q1.5,0,3-.009c.029,0,.056-.023.133-.056V63.6c0-.931.219-1.146,1.161-1.146h3.553v-.491c0-1.113-.006-2.226,0-3.339a.786.786,0,0,1,.88-.882q2.256-.013,4.518,0c.627,0,.885.313.885,1.025V77.4ZM40.91,59.339V77.372h3.076V59.339Zm-4.717,4.7V77.357h3.076V64.041Zm-1.622,4.739H31.488v8.582h3.084Zm-4.717,8.588V73.491H26.769v3.88ZM6.3,58.223,2.861,61.668c.9,0,1.822.026,2.745-.011a.706.706,0,0,0,.694-.719c0-.013,0-.025,0-.038.011-.9,0-1.792,0-2.677ZM17.316,77.4a.783.783,0,1,0,.773.793v-.013a.791.791,0,0,0-.783-.784Z" transform="translate(0 -36.5)" fill="#31313c"/>
          <path id="Trazado_154370" data-name="Trazado 154370" d="M59.577,19.291l-3.11,3.117c-.52.521-1.036,1.048-1.564,1.562-1.518,1.476-.8,1.17-2.927,1.2-.82.012-1.641,0-2.507,0V39.286H47.892V25.179c-.55,0-1.067-.024-1.58.017-.117.009-.237.229-.321.371a2.358,2.358,0,1,1-2.91-3.365,2.315,2.315,0,0,1,2.912,1.042.579.579,0,0,0,.593.368c2.029-.017,4.06,0,6.089-.017a.87.87,0,0,0,.561-.195c1.632-1.608,3.249-3.233,4.867-4.854a1.2,1.2,0,0,0,.1-.145,10.186,10.186,0,0,1-4.034-8.143,9.953,9.953,0,0,1,2.6-6.862,10.246,10.246,0,1,1,2.808,15.893ZM63.591,1.7c-3.117-.089-6.574,2.776-7.539,6.213a8.679,8.679,0,0,0,4.058,9.85,8.464,8.464,0,0,0,9.352-.615c-1.8-2.029-3.6-4.066-5.416-6.083a1.69,1.69,0,0,1-.464-1.23c.019-2.536.008-5.071.008-7.606Zm1.591,7.731h7.767A8.482,8.482,0,0,0,65.176,1.7Zm5.489,6.711c1.347-1.41,2.372-3.77,2.235-5.067h-6.74ZM44.728,24.384a.782.782,0,1,0-.78.785h.01a.791.791,0,0,0,.77-.78Z" transform="translate(-27.43 0)" fill="#31313c"/>
          <path id="Trazado_154371" data-name="Trazado 154371" d="M17.708,18.154c1.2-1.026,2.37-2.017,3.519-3.037a.671.671,0,0,0,.089-.542,2.348,2.348,0,1,1,4.289.681,2.276,2.276,0,0,1-2.587,1.025.9.9,0,0,0-.992.227c-1.2,1.062-2.432,2.089-3.639,3.144a1.537,1.537,0,0,0-.388.59,2.324,2.324,0,0,1-2.03,1.62,2.22,2.22,0,0,1-2.279-1.218.542.542,0,0,0-.559-.342q-1.325.027-2.65,0a.5.5,0,0,0-.523.318,2.272,2.272,0,0,1-2.744,1.145.537.537,0,0,0-.633.172c-.569.587-1.143,1.171-1.737,1.733a.652.652,0,0,0-.2.761,2.172,2.172,0,0,1-.783,2.412,2.2,2.2,0,0,1-2.527.277,2.246,2.246,0,0,1-1.3-2.191A2.323,2.323,0,0,1,2.99,22.764a.652.652,0,0,0,.759-.205c.576-.6,1.187-1.174,1.755-1.784a.667.667,0,0,0,.129-.534A2.369,2.369,0,0,1,10,18.444a.666.666,0,0,0,.475.278c.9.027,1.8.021,2.7,0a.589.589,0,0,0,.429-.2c1.07-1.677,2.66-1.838,4.111-.374m6.684-4.147a.782.782,0,1,0-.771.794h.012a.787.787,0,0,0,.759-.795ZM7.112,19.481a.782.782,0,1,0,.819-.744H7.92a.791.791,0,0,0-.807.743Zm8.649-.744a.782.782,0,1,0,.773.791v-.012a.788.788,0,0,0-.773-.776ZM2.39,24.237a.782.782,0,1,0,.787.778V25a.788.788,0,0,0-.787-.767Z" transform="translate(-0.022 -7.701)" fill="#31313c"/>
          <rect id="Rectángulo_35684" data-name="Rectángulo 35684" width="9.367" height="1.511" transform="translate(8.698 32.282)" fill="#31313c"/>
          <rect id="Rectángulo_35685" data-name="Rectángulo 35685" width="7.793" height="1.51" transform="translate(3.965 36.202)" fill="#31313c"/>
          <rect id="Rectángulo_35686" data-name="Rectángulo 35686" width="4.659" height="1.509" transform="translate(13.404 36.203)" fill="#31313c"/>
          <rect id="Rectángulo_35687" data-name="Rectángulo 35687" width="3.084" height="1.518" transform="translate(3.977 32.281)" fill="#31313c"/>
          <rect id="Rectángulo_35688" data-name="Rectángulo 35688" width="3.076" height="1.529" transform="translate(3.982 40.124)" fill="#31313c"/>
        </g>
      </g>
    </g>
  </g>
</svg>
