<svg xmlns="http://www.w3.org/2000/svg" xmlns:xlink="http://www.w3.org/1999/xlink" width="77" height="77" viewBox="0 0 77 77">
  <defs>
    <clipPath id="clip-path">
      <rect id="Rectángulo_35710" data-name="Rectángulo 35710" width="53" height="53" transform="translate(0.321 0.321)" fill="#31313c"/>
    </clipPath>
  </defs>
  <g id="Grupo_158236" data-name="Grupo 158236" transform="translate(-1286.891 -1571.613)">
    <circle id="Elipse_4727" data-name="Elipse 4727" cx="38.5" cy="38.5" r="38.5" transform="translate(1286.891 1571.613)" fill="#fd9827"/>
    <g id="Grupo_158939" data-name="Grupo 158939" transform="translate(1298.569 1583.292)">
      <g id="Grupo_158939-2" data-name="Grupo 158939" clip-path="url(#clip-path)">
        <path id="Trazado_154469" data-name="Trazado 154469" d="M25.25,53.643c-1.207-.169-2.422-.292-3.618-.517A26.112,26.112,0,0,1,10.99,48.467a.791.791,0,1,1,.926-1.264,23.46,23.46,0,0,0,7.795,3.837c9.6,2.526,18.038.4,25.132-6.575a23.558,23.558,0,0,0,6.964-14.1,24.647,24.647,0,0,0-7.291-21.53,23.845,23.845,0,0,0-14.139-7A24.654,24.654,0,0,0,8.845,9.12,23.93,23.93,0,0,0,1.836,23.256,24.812,24.812,0,0,0,8.269,43.935c.117.13.242.252.359.381.443.487.471.869.092,1.229s-.788.316-1.225-.136A26.681,26.681,0,0,1,.088,28.843,3.613,3.613,0,0,0,0,28.393V25.145c.171-1.188.3-2.384.52-3.562A26.82,26.82,0,0,1,22.147.413c1-.164,2-.276,3-.413H28.5c.135.029.268.065.4.087,1.377.214,2.773.341,4.127.65A26.77,26.77,0,0,1,53.236,22.2c.164.978.272,1.965.407,2.947V28.5c-.03.135-.068.269-.088.405-.182,1.241-.3,2.5-.551,3.722a26.826,26.826,0,0,1-21.51,20.6c-1,.162-2,.277-3,.414Z" fill="#31313c"/>
        <path id="Trazado_154470" data-name="Trazado 154470" d="M44.456,35.693a10.036,10.036,0,0,1,14.21,14.071c2.007,2.87,1.191,5.011-2.16,5.6a3.213,3.213,0,0,1-3.259,3.236,3.256,3.256,0,0,1-3.254,3.269c-.613,3.251-2.838,4.138-5.484,2.208a3.189,3.189,0,0,1-5.483-2.186c-2.279-.477-2.865-1.062-3.255-3.274a3.235,3.235,0,0,1-3.251-3.268,3.1,3.1,0,0,1-2.983-1.966,3.16,3.16,0,0,1,.8-3.5,10.277,10.277,0,0,1-2.19-8.381,9.6,9.6,0,0,1,3.071-5.581,10.175,10.175,0,0,1,13.238-.224m.368,20.4c.129.014.266.024.4.043a2.9,2.9,0,0,1,2.543,1.9,4.324,4.324,0,0,0,1.206,1.715,1.414,1.414,0,0,0,2.135.049,1.455,1.455,0,0,0,.026-2.178c-.132-.14-.27-.273-.406-.408-1.568-1.568-3.145-3.127-4.691-4.715a1.058,1.058,0,0,1-.273-.818.855.855,0,0,1,.6-.548,1.255,1.255,0,0,1,.846.363c1.685,1.648,3.341,3.325,5.011,4.988a1.377,1.377,0,0,0,1.8.269,1.456,1.456,0,0,0,.34-2.413c-1.685-1.7-3.382-3.383-5.069-5.078-.447-.449-.445-.917-.016-1.254.373-.293.729-.246,1.15.174q2.04,2.033,4.074,4.073c.358.358.7.728,1.078,1.07a1.618,1.618,0,0,0,2.189-.057,1.3,1.3,0,0,0,.124-1.915,7,7,0,0,0-.8-.9c-.836-.818-1.693-1.614-2.526-2.435-.165-.163-.38-.409-.36-.594a1.036,1.036,0,0,1,.4-.752,1,1,0,0,1,.881.106c.693.579,1.318,1.239,1.989,1.888a8.447,8.447,0,0,0-2.735-12.884,8.37,8.37,0,0,0-9.411,1.283c-1.878,1.773-3.676,3.631-5.484,5.477a1.709,1.709,0,0,0-.415.92,1.534,1.534,0,0,0,.939,1.5,1.383,1.383,0,0,0,1.67-.351q2.434-2.417,4.854-4.849c.644-.643.966-.67,1.626-.021,1.318,1.3,2.613,2.62,3.911,3.939.421.429.444.842.1,1.189s-.8.328-1.231-.1q-1.615-1.606-3.223-3.22c-.118-.118-.247-.226-.445-.405a5.462,5.462,0,0,1-.381.484q-2.032,2.042-4.071,4.076a2.95,2.95,0,0,1-2.024.97A3.36,3.36,0,0,1,38.1,44.661a2.8,2.8,0,0,1,.692-3.3c1.374-1.391,2.763-2.767,4.145-4.151.117-.117.224-.245.335-.368a8.457,8.457,0,0,0-11.091.329c-3.626,3.379-3,8.2-.615,11.593.529-.552,1.014-1.129,1.57-1.628a3.063,3.063,0,0,1,5.048,1.66c.056.266.09.537.134.8a3.189,3.189,0,0,1,2.294.934,3.3,3.3,0,0,1,.934,2.3c2.062.231,2.944,1.113,3.279,3.262m-3.362-1.677a3.182,3.182,0,0,0-.8.448c-.96.911-1.895,1.851-2.815,2.8a1.537,1.537,0,0,0,.005,2.165,1.492,1.492,0,0,0,2.119-.019c.953-.919,1.881-1.865,2.811-2.807a1.317,1.317,0,0,0,.287-1.584,1.742,1.742,0,0,0-1.6-1m-.907,7.528a1.73,1.73,0,0,0,.98,1.431,1.427,1.427,0,0,0,1.687-.3Q44.628,61.7,46,60.3a1.429,1.429,0,0,0-.027-2.133,1.413,1.413,0,0,0-2.133.014c-.91.889-1.821,1.779-2.69,2.707a4.982,4.982,0,0,0-.592,1.052m-7.986-8.207a1.886,1.886,0,0,0,.7-.3c1.07-1.021,2.133-2.052,3.136-3.138a1.346,1.346,0,0,0-.232-1.92,1.369,1.369,0,0,0-1.933-.116q-1.553,1.473-3.027,3.03a1.355,1.355,0,0,0-.154,1.613,1.5,1.5,0,0,0,1.51.833m7.474-.917A1.958,1.958,0,0,0,38.932,51.3a1.354,1.354,0,0,0-1.579.33c-.915.907-1.831,1.814-2.732,2.735a1.532,1.532,0,0,0-.019,2.2,1.49,1.49,0,0,0,2.152-.053c.924-.9,1.841-1.8,2.728-2.739a4.8,4.8,0,0,0,.562-.957m5.623,10.11c.874.787,1.79.772,2.395-.009a1.467,1.467,0,0,0-.356-2.129l-2.038,2.138" transform="translate(-17.633 -21.002)" fill="#31313c"/>
      </g>
    </g>
  </g>
</svg>
