<svg xmlns="http://www.w3.org/2000/svg" xmlns:xlink="http://www.w3.org/1999/xlink" width="77" height="77" viewBox="0 0 77 77">
  <defs>
    <clipPath id="clip-path">
      <rect id="Rectángulo_35720" data-name="Rectángulo 35720" width="39.149" height="44.527" fill="#31313c"/>
    </clipPath>
  </defs>
  <g id="Grupo_158263" data-name="Grupo 158263" transform="translate(-656.891 -1571.821)">
    <circle id="Elipse_4724" data-name="Elipse 4724" cx="38.5" cy="38.5" r="38.5" transform="translate(656.891 1571.821)" fill="#fd9827"/>
    <g id="Grupo_158952" data-name="Grupo 158952" transform="translate(675.891 1587.821)">
      <g id="Grupo_158952-2" data-name="Grupo 158952" clip-path="url(#clip-path)">
        <path id="Trazado_154536" data-name="Trazado 154536" d="M1.579,44.526A2.237,2.237,0,0,1,0,42.093Q.035,26.114.014,10.135A1.965,1.965,0,0,1,1.4,8.069a1.678,1.678,0,0,1,.468-.078C3.13,7.982,4.391,7.964,5.651,8a.935.935,0,0,1,.641.394.65.65,0,0,1-.088.621,1.082,1.082,0,0,1-.69.258C4.456,9.3,3.4,9.283,2.34,9.284c-.864,0-1.022.155-1.022,1q0,15.98,0,31.958c0,.8.177.979.96.979H23.844c.764,0,.954-.188.954-.942q0-7.2,0-14.392v-.494H10.059a1.99,1.99,0,0,1-2.218-2.232q0-11.479,0-22.958a1.982,1.982,0,0,1,2.2-2.2H29.131a1.979,1.979,0,0,1,2.19,2.173q0,3.022,0,6.044c0,.087,0,.175,0,.261a.659.659,0,0,1-.63.651.642.642,0,0,1-.666-.655c-.017-.594-.006-1.188-.006-1.783q0-2.261,0-4.522c0-.645-.216-.863-.857-.863q-9.587,0-19.175,0c-.617,0-.839.222-.839.837q0,11.544,0,23.088c0,.642.217.858.861.859H29.139c.669,0,.878-.212.878-.887q0-6.914,0-13.827c0-.755.188-.939.955-.94q1.717,0,3.435,0c.514,0,.812.233.824.631.013.414-.3.67-.828.672-1.012,0-2.023,0-3.057,0v2.609h.578c.855,0,1.71-.005,2.565,0a.655.655,0,1,1,.005,1.3c-1.04.007-2.081,0-3.147,0v2.609h.4c.9,0,1.8,0,2.7,0,.5,0,.8.264.79.665s-.3.634-.776.636c-1.027,0-2.053,0-3.107,0v2.609h2.74c.145,0,.29-.005.435,0a.654.654,0,1,1-.02,1.3c-.884.008-1.768,0-2.652,0h-.537v2.609h2.668a5.554,5.554,0,0,1,.652.009.609.609,0,0,1,.592.633.615.615,0,0,1-.573.652,2.292,2.292,0,0,1-.391.01H26.124V30h8.114a2.935,2.935,0,0,1,.391.007.629.629,0,0,1,.6.63.642.642,0,0,1-.614.662,3.727,3.727,0,0,1-.391,0h-8.1V35.4h10.8c.721,0,.915-.2.915-.937V6.326c0-.774-.176-.954-.938-.955-1.116,0-2.232,0-3.348,0a1.772,1.772,0,0,1-.389-.022.609.609,0,0,1-.532-.684.576.576,0,0,1,.589-.583c1.42-.009,2.842-.037,4.26.021a1.879,1.879,0,0,1,1.657,1.793c.009.144.005.29.005.435q0,14.044,0,28.088a2.011,2.011,0,0,1-2.3,2.282H26.131v3.914h6.911c.676,0,.884-.209.887-.878,0-.348-.009-.7,0-1.043a.654.654,0,0,1,.638-.685.646.646,0,0,1,.657.664c.015.478.025.958,0,1.434a1.942,1.942,0,0,1-1.977,1.809c-2.2.01-4.406,0-6.609,0h-.548a2.179,2.179,0,0,1-1.553,2.609Z" transform="translate(0 0)" fill="#31313c"/>
        <path id="Trazado_154537" data-name="Trazado 154537" d="M37.419,29.519H29.247c-.752,0-.946-.19-.936-.956.013-.955-.014-1.916.077-2.864a3.749,3.749,0,0,1,2.266-3.167c.69-.327,1.441-.527,2.13-.857a4.793,4.793,0,0,0,1.339-.9c.364-.37.277-.574-.126-.912a4.935,4.935,0,0,1-1.948-3.6,21.434,21.434,0,0,1,.127-4.584,5.414,5.414,0,0,1,10.647.591,25.115,25.115,0,0,1-.013,4.162,4.911,4.911,0,0,1-2.033,3.509c-.25.195-.32.4-.151.612a3.447,3.447,0,0,0,.874.858,10.489,10.489,0,0,0,1.483.6c.323.127.651.243.969.381a4.1,4.1,0,0,1,2.612,3.952c.022.782.009,1.565.006,2.347,0,.607-.229.828-.848.828q-4.151,0-8.3,0m-7.741-1.334H45.25c0-.708.034-1.39-.007-2.066a2.779,2.779,0,0,0-1.888-2.571c-.376-.15-.756-.291-1.138-.425-1.245-.439-2.463-.911-2.895-2.269a15.859,15.859,0,0,1-1.9.216,15.424,15.424,0,0,1-1.87-.224A3.372,3.372,0,0,1,33.277,22.9c-.673.263-1.362.49-2.021.783a2.466,2.466,0,0,0-1.565,2.132c-.063.774-.013,1.558-.013,2.37M41.648,14.312l-.054,0c0-.478.017-.957,0-1.434a4.172,4.172,0,0,0-3.659-4.049,4.022,4.022,0,0,0-4.5,3.205,16.626,16.626,0,0,0-.105,3.938,4.126,4.126,0,0,0,8.143.587,16.363,16.363,0,0,0,.181-2.244" transform="translate(-17.859 -4.734)" fill="#31313c"/>
      </g>
    </g>
  </g>
</svg>
