<svg xmlns="http://www.w3.org/2000/svg" xmlns:xlink="http://www.w3.org/1999/xlink" width="112" height="112" viewBox="0 0 112 112">
  <defs>
    <clipPath id="clip-path">
      <rect id="Rect치ngulo_35719" data-name="Rect치ngulo 35719" width="96.327" height="96.344" fill="#fd9827"/>
    </clipPath>
  </defs>
  <g id="Grupo_159332" data-name="Grupo 159332" transform="translate(-3828 4615)">
    <g id="Grupo_159324" data-name="Grupo 159324" transform="translate(3836 -4607)">
      <g id="Grupo_158951" data-name="Grupo 158951" clip-path="url(#clip-path)">
        <path id="Trazado_154535" data-name="Trazado 154535" d="M91.811,96.344H88.425a16.717,16.717,0,0,1-2.988-1.867c-3.3-3.171-6.5-6.45-9.74-9.682a3.343,3.343,0,0,1-1.061-2.706,1.13,1.13,0,0,0-.165-.77c-1.174-1.246-2.385-2.457-3.432-3.523-2.235,1.175-4.29,2.235-6.317,3.347a1.183,1.183,0,0,0-.5.839c-.063.968-.014,1.943-.027,2.915a4.791,4.791,0,0,1-5.024,5.03q-27.045.014-54.089,0A4.813,4.813,0,0,1,0,84.85Q0,44.96,0,5.07A4.8,4.8,0,0,1,5.093.009Q26.634,0,48.176,0a5.216,5.216,0,0,1,3.873,1.607q5.244,5.266,10.512,10.508a5.3,5.3,0,0,1,1.651,4.044c-.042,2.383.057,4.769-.042,7.148a1.7,1.7,0,0,0,1.275,1.905A30.3,30.3,0,0,1,81.518,63.571c-.991,2.546-2.395,4.93-3.676,7.527,1.016,1,2.188,2.178,3.39,3.321a1.058,1.058,0,0,0,.742.239,3.514,3.514,0,0,1,2.94,1.18c2.871,2.894,5.744,5.787,8.653,8.642a10.073,10.073,0,0,1,2.76,3.962v3.387c-.282.546-.546,1.1-.848,1.636a7.507,7.507,0,0,1-3.667,2.88M60.964,82.5a.9.9,0,0,0-.175-.027c-.122.022-.244.045-.365.074a30.063,30.063,0,0,1-23.329-3.534,2.881,2.881,0,0,0-1.415-.326q-13.4-.028-26.806-.014c-.314,0-.629.015-.94-.013a1.6,1.6,0,0,1-1.51-1.522,1.625,1.625,0,0,1,1.387-1.643,6.3,6.3,0,0,1,.939-.028H32.327c-.895-.951-1.681-1.717-2.38-2.554a1.766,1.766,0,0,0-1.531-.665c-6.584.024-13.168.015-19.751.013a5.054,5.054,0,0,1-.937-.04,1.59,1.59,0,0,1,.1-3.144,7.442,7.442,0,0,1,.94-.02H27.029c-.5-.941-.957-1.692-1.3-2.492a1.1,1.1,0,0,0-1.221-.728c-5.2.024-10.409.014-15.613.013a7.526,7.526,0,0,1-1.033-.027,1.627,1.627,0,0,1-1.437-1.694A1.6,1.6,0,0,1,7.978,62.65c.281-.021.564-.01.846-.01h15.2a20.219,20.219,0,0,1-.636-2.359c-.109-.741-.471-.866-1.134-.863-4.515.025-9.029.016-13.544.008a4.139,4.139,0,0,1-1.2-.134A1.442,1.442,0,0,1,6.44,57.71a1.477,1.477,0,0,1,1.348-1.457,6.457,6.457,0,0,1,.938-.032q6.4,0,12.792,0h1.106c-.057-1.134-.106-2.142-.16-3.214H16.407c-2.665,0-5.33.009-7.995,0-1.255-.006-2.005-.646-1.989-1.638.015-.965.731-1.549,1.945-1.572.721-.014,1.443,0,2.163,0,3.762,0,7.525.012,11.287-.022.307,0,.816-.264.879-.5a25.2,25.2,0,0,0,.441-2.7H8.812c-1.619,0-2.392-.521-2.389-1.6s.789-1.614,2.392-1.614c4.8,0,9.594.006,14.391-.014.328,0,.844-.111.951-.328.432-.882.738-1.825,1.139-2.872H24.142q-7.9,0-15.8,0c-1.2,0-1.921-.622-1.919-1.591s.744-1.585,1.922-1.615c.251-.006.5,0,.753,0,5.706,0,11.412.006,17.118-.014a1.527,1.527,0,0,0,1.07-.328c1.121-1.411,2.166-2.883,3.319-4.444H29.555q-9.781,0-19.563,0a3.265,3.265,0,0,1-3.578-3.559q-.011-9.312,0-18.625A3.245,3.245,0,0,1,9.927,6.422q15.754-.011,31.509,0a3.242,3.242,0,0,1,3.52,3.515c.009,4.171,0,8.34,0,12.511v1.134a30.29,30.29,0,0,1,15.986-.025V16.047H59.892c-2.79,0-5.581.017-8.371-.007a3.164,3.164,0,0,1-3.354-3.364c-.015-1.976,0-3.951,0-5.926V3.212H5.669c-2.051,0-2.463.416-2.463,2.482V84.241c0,2.058.422,2.483,2.472,2.484H58.536a6.135,6.135,0,0,0,1.032-.031,1.463,1.463,0,0,0,1.378-1.326c.073-.956.017-1.922.017-2.868M25.7,53h36a7.788,7.788,0,0,1,1.127.035,1.569,1.569,0,0,1,.212,3.061,5.075,5.075,0,0,1-1.3.112q-17.308.009-34.615,0H25.9a19.232,19.232,0,0,1,.346,2.126c.049.966.544,1.107,1.4,1.1,9.249-.031,18.5-.019,27.748-.019,2.352,0,4.7-.011,7.055.006A1.541,1.541,0,0,1,64.188,61,1.6,1.6,0,0,1,62.5,62.634c-.281.017-.564.005-.846.005h-34.2c.375.866.723,1.593,1.006,2.345a1.269,1.269,0,0,0,1.421.882q15.943-.042,31.887-.019c.314,0,.629-.015.94.012a1.533,1.533,0,0,1,1.478,1.528,1.561,1.561,0,0,1-1.372,1.637,7,7,0,0,1-1.033.028H30.915c.783.938,1.436,1.682,2.042,2.461a1.907,1.907,0,0,0,1.685.762c5.895-.031,11.789-.018,17.684-.017a5.336,5.336,0,0,1,.938.036,1.594,1.594,0,0,1-.078,3.146,6.206,6.206,0,0,1-.845.022q-6.819,0-13.639,0c-.288,0-.577.031-1,.054.232.185.324.267.425.337,8.764,6.056,21.891,5.84,30.417-.526a1.4,1.4,0,0,0,.476-.989q.035-21.355,0-42.709a1.376,1.376,0,0,0-.481-.986A26.784,26.784,0,0,0,50.5,25.812c-.559.045-.745.271-.735.825.028,1.661.017,3.324.008,4.986-.019,3.378-1.941,5.292-5.325,5.3-4.233.006-8.465,0-12.7.012-.316,0-.77.051-.924.256-.666.888-1.243,1.843-1.965,2.945H61.617c.313,0,.628-.015.94.009a1.584,1.584,0,0,1,1.631,1.593,1.56,1.56,0,0,1-1.7,1.606c-.313.016-.627.005-.94.005H28.724a2.674,2.674,0,0,0-.748.017c-.232.07-.546.219-.616.41-.321.869-.57,1.766-.888,2.792h1.344q16.978,0,33.956,0a5.513,5.513,0,0,1,1.214.081,1.569,1.569,0,0,1,0,3.049,5.962,5.962,0,0,1-1.308.086q-17.214.006-34.427,0a2,2,0,0,0-.744.02c-.258.113-.62.341-.65.557-.112.83-.108,1.676-.153,2.641M41.752,9.682H9.67V28.921c.4,0,.762,0,1.128,0q11.545.093,23.092.176c.16,0,.326-.148.483-.239,2.3-1.331,4.6-2.656,6.879-4.009a1,1,0,0,0,.477-.668c.028-4.8.021-9.592.021-14.5M72.321,33.9V72.152c11.087-10.973,10.03-28.787,0-38.248m5.621,48.454c3.281,3.316,6.527,6.616,9.8,9.889a2.916,2.916,0,0,0,2.681.809,3.046,3.046,0,0,0,2.517-2.123,3.145,3.145,0,0,0-.9-3.424q-4.643-4.651-9.3-9.292a3.01,3.01,0,0,0-.383-.288l-4.416,4.431M46.492,26.514A27.521,27.521,0,0,0,33.7,33.7c3.962,0,7.646.011,11.33-.009a1.313,1.313,0,0,0,1.434-1.221c.08-1.953.027-3.913.027-5.956m4.93-13.774h6.909L51.422,5.829ZM73.508,75.571l3.173,3.194L78.7,76.743l-3.112-3.107-2.076,1.935" transform="translate(0 0)" fill="#fd9827"/>
      </g>
    </g>
    <rect id="Rect치ngulo_35829" data-name="Rect치ngulo 35829" width="112" height="112" transform="translate(3828 -4615)" fill="none"/>
  </g>
</svg>
