<svg xmlns="http://www.w3.org/2000/svg" xmlns:xlink="http://www.w3.org/1999/xlink" width="112" height="112" viewBox="0 0 112 112">
  <defs>
    <clipPath id="clip-path">
      <rect id="Rectángulo_34910" data-name="Rectángulo 34910" width="70.457" height="88.032" fill="#fd9827"/>
    </clipPath>
  </defs>
  <g id="Grupo_159335" data-name="Grupo 159335" transform="translate(-4235 4616)">
    <g id="Grupo_159325" data-name="Grupo 159325" transform="translate(4255.326 -4603.844)">
      <g id="Grupo_80227" data-name="Grupo 80227" transform="translate(0 0)" clip-path="url(#clip-path)">
        <path id="Trazado_151742" data-name="Trazado 151742" d="M15.284,88.032a8.276,8.276,0,0,1-4.589-2.469,7.807,7.807,0,0,1-1.886-5.292c0-.258-.009-.516-.021-.772a.518.518,0,0,0-.057-.154A21.817,21.817,0,0,1,5.6,78.969C2.05,78.032.008,75.232,0,71.4Q-.008,57.647,0,43.9,0,25.89,0,7.885C0,4.7,1.25,2.167,4.206.8A8.978,8.978,0,0,1,7.852.037Q30.842-.038,53.832.006c4.612,0,7.693,3.031,7.813,7.651.008.34,0,.681,0,1.027a23.088,23.088,0,0,1,3.184.375c3.547.919,5.614,3.736,5.622,7.557q.016,9.024,0,18.049,0,22.732,0,45.464A7.373,7.373,0,0,1,66.207,87.3a15.655,15.655,0,0,1-2.266.734ZM52.824,2.98v3.33q0,3.4-.005,6.79a1.414,1.414,0,0,1-.89,1.437,1.467,1.467,0,0,1-1.659-.359q-.37-.359-.732-.726c-.835-.85-1.669-1.7-2.588-2.639-1.076,1.106-2.064,2.1-3.025,3.116a1.653,1.653,0,0,1-1.9.617,1.636,1.636,0,0,1-.939-1.764c.013-2.635.005-5.272.005-7.907V2.933h-.847q-16.2,0-32.4,0c-3.1,0-4.895,1.807-4.9,4.93q-.006,31.757,0,63.515c0,3.114,1.8,4.925,4.9,4.926q22.991.009,45.982,0c3.066,0,4.872-1.782,4.874-4.858Q58.716,39.6,58.683,7.76a5.623,5.623,0,0,0-.55-2.471c-1.079-2.118-3.018-2.518-5.308-2.309m8.823,8.855v1.236q0,29.013,0,58.025a8.5,8.5,0,0,1-.745,3.926,7.419,7.419,0,0,1-7.191,4.222H11.875A4.592,4.592,0,0,0,16.618,85.1q22.995.007,45.99,0c3.105,0,4.905-1.8,4.906-4.921q.006-31.764,0-63.527c0-3.41-2.346-5.37-5.868-4.82M49.811,9.688V3.009H44.077V9.446l.178.117c.479-.519.938-1.059,1.44-1.554a1.543,1.543,0,0,1,2.524-.021c.5.487.958,1.02,1.593,1.7" transform="translate(0 0)" fill="#fd9827"/>
        <path id="Trazado_151743" data-name="Trazado 151743" d="M26.24,44.659l1.705-1.923,2.045,2.2c-.985.988-2.067,2.118-3.2,3.192a1.839,1.839,0,0,0-.608,1.505c.033,2.234.016,4.469.011,6.7,0,1.578-.489,2.085-2.033,2.088q-5.33.011-10.659,0c-1.5,0-2-.507-2-2.033q-.01-5.33,0-10.66c0-1.492.523-1.994,2.038-2,3.553-.005,7.106-.031,10.658.024a7.8,7.8,0,0,1,1.94.545c.035.12.07.238.1.358m-3.022,7.294-.208-.123c-.529.558-1.038,1.137-1.594,1.667a1.315,1.315,0,0,1-1.928.2c-1.047-.994-1.989-2.1-2.861-3.038l1.867-2.085,1.77,1.984c1-1.011,1.915-1.907,2.778-2.855.188-.206.172-.6.27-.978H14.5v8.692h8.716Z" transform="translate(-2.688 -9.995)" fill="#fd9827"/>
        <path id="Trazado_151744" data-name="Trazado 151744" d="M26.113,17.944l1.9-2.053c.672.748,1.295,1.444,1.986,2.216-1,1-2.087,2.121-3.221,3.2a1.752,1.752,0,0,0-.6,1.417c.033,2.289.018,4.579.011,6.869,0,1.507-.5,1.99-2.023,1.991q-5.367,0-10.734,0c-1.406,0-1.926-.5-1.931-1.9q-.018-5.41,0-10.82c0-1.421.509-1.916,1.914-1.918,3.578-.006,7.156.007,10.734-.009a1.835,1.835,0,0,1,1.964,1.012m-2.9,7.2-.223-.154c-.522.563-1.02,1.151-1.574,1.682a1.393,1.393,0,0,1-2.006.166c-1.035-.968-1.987-2.026-2.9-2.969l2.055-2.146L20.3,23.688c.938-.948,1.824-1.8,2.648-2.709a3.182,3.182,0,0,0,.378-1.053H14.5v8.668h8.716Z" transform="translate(-2.688 -3.717)" fill="#fd9827"/>
        <path id="Trazado_151745" data-name="Trazado 151745" d="M11.5,76.3c0-1.8-.011-3.61,0-5.415.011-1.439.539-1.954,1.99-1.957q5.371-.009,10.742,0c1.424,0,1.953.544,1.956,1.995q.01,5.371,0,10.742c0,1.4-.522,1.941-1.907,1.947q-5.457.021-10.915,0c-1.338-.006-1.852-.542-1.865-1.9-.017-1.8,0-3.61,0-5.414m3-4.392v8.663a1.287,1.287,0,0,0,.294.086c2.635.008,5.269,0,7.9.021.557,0,.568-.314.567-.721-.007-2.491,0-4.983-.008-7.474a3.769,3.769,0,0,0-.09-.575Z" transform="translate(-2.688 -16.12)" fill="#fd9827"/>
        <rect id="Rectángulo_34903" data-name="Rectángulo 34903" width="14.561" height="2.825" transform="translate(29.416 42.613)" fill="#fd9827"/>
        <rect id="Rectángulo_34904" data-name="Rectángulo 34904" width="14.551" height="2.823" transform="translate(29.403 22.063)" fill="#fd9827"/>
        <rect id="Rectángulo_34905" data-name="Rectángulo 34905" width="14.556" height="2.825" transform="translate(29.417 61.665)" fill="#fd9827"/>
        <rect id="Rectángulo_34906" data-name="Rectángulo 34906" width="8.674" height="2.838" transform="translate(29.419 16.192)" fill="#fd9827"/>
        <rect id="Rectángulo_34907" data-name="Rectángulo 34907" width="8.665" height="2.824" transform="translate(29.423 36.743)" fill="#fd9827"/>
        <rect id="Rectángulo_34908" data-name="Rectángulo 34908" width="8.698" height="2.807" transform="translate(29.408 55.799)" fill="#fd9827"/>
        <rect id="Rectángulo_34909" data-name="Rectángulo 34909" width="2.789" height="2.851" transform="translate(41.156 55.771)" fill="#fd9827"/>
      </g>
    </g>
    <rect id="Rectángulo_35832" data-name="Rectángulo 35832" width="112" height="112" transform="translate(4235 -4616)" fill="none"/>
  </g>
</svg>
