<svg xmlns="http://www.w3.org/2000/svg" xmlns:xlink="http://www.w3.org/1999/xlink" width="77" height="77" viewBox="0 0 77 77">
  <defs>
    <clipPath id="clip-path">
      <rect id="Rectángulo_35734" data-name="Rectángulo 35734" width="44.246" height="47.999" fill="#31313c"/>
    </clipPath>
  </defs>
  <g id="Grupo_158269" data-name="Grupo 158269" transform="translate(-656.891 -1571.821)">
    <circle id="Elipse_4724" data-name="Elipse 4724" cx="38.5" cy="38.5" r="38.5" transform="translate(656.891 1571.821)" fill="#fd9827"/>
    <g id="Grupo_158956" data-name="Grupo 158956" transform="translate(672.891 1586.821)">
      <g id="Grupo_158956-2" data-name="Grupo 158956" clip-path="url(#clip-path)">
        <path id="Trazado_154554" data-name="Trazado 154554" d="M11.441,0c.067.153.217.086.327.118A4.111,4.111,0,0,1,14.688,2.9c.115.346.268.408.587.408Q24.414,3.3,33.552,3.3a4.106,4.106,0,0,1,4.39,3.344.552.552,0,0,0,.357.38c1.143.57,2.29,1.135,3.43,1.712a4.3,4.3,0,0,1,2.408,4.971q-3.02,15.066-6.015,30.137a8,8,0,0,1-.826,2.6.668.668,0,0,0-.055.215c-.049-.164-.058-.173-.2-.027a4.188,4.188,0,0,1-2.017,1.214,4.9,4.9,0,0,1-1.25.152Q19.041,48,4.3,48A4.089,4.089,0,0,1,0,43.7Q0,25.663,0,7.621A4.126,4.126,0,0,1,3.114,3.462c.159-.048.283-.1.33-.278A4.133,4.133,0,0,1,6.57.092c.036-.01.06-.06.09-.092ZM38.08,11.173c0,.109-.014.218-.014.327q0,11.638,0,23.277c0,.117-.048.249.062.379.762-3.812,1.522-7.6,2.274-11.386q1.02-5.134,2.026-10.271a2.4,2.4,0,0,0-.829-2.881A28.782,28.782,0,0,0,38.08,8.784ZM36.4,25.664q0-9.022,0-18.045a2.432,2.432,0,0,0-2.651-2.652q-9.21,0-18.42-.01c-.348,0-.439.08-.437.433.017,2.546.009,5.093.009,7.64s.02,5.093-.006,7.64a4.146,4.146,0,1,1-8.284-.235c.032-4.234.009-8.468.01-12.7a3.011,3.011,0,0,1,.02-.421.747.747,0,0,1,.851-.679.738.738,0,0,1,.767.722c.015.171.008.344.008.515q0,6.328,0,12.655A2.462,2.462,0,0,0,9.346,22.74a2.429,2.429,0,0,0,2.579.14,2.294,2.294,0,0,0,1.3-2.168q.011-6.327,0-12.655c0-.922-.005-1.844,0-2.765,0-.22-.024-.334-.295-.333-2.984.011-5.969,0-8.952.018a2.359,2.359,0,0,0-2.22,1.712A3.63,3.63,0,0,0,1.662,7.8q0,17.858,0,35.715c0,.156,0,.313.008.469a2.381,2.381,0,0,0,2.385,2.337c.734.02,1.469-.007,2.2.012.287.008.377-.081.368-.368-.019-.671-.014-1.344,0-2.015.011-.609.3-.921.822-.922s.814.32.82.919c.008.672.015,1.344,0,2.015-.008.285.074.372.364.371q3.773-.016,7.546,0c.323,0,.388-.111.38-.4q-.026-1.007,0-2.015c.015-.591.335-.906.856-.889.5.017.779.33.789.9.007.39,0,.781,0,1.172s-.125.9.071,1.13c.231.269.763.048,1.159.1.349.043.448-.075.444-.433-.02-1.765-.014-3.531-.006-5.3a.8.8,0,0,1,1.041-.854c.485.116.605.487.605.93,0,1.469-.006,2.937,0,4.406,0,.4-.177.922.082,1.167s.775.041,1.176.08c.3.028.408-.06.4-.379-.026-.624-.009-1.25-.007-1.875,0-.708.283-1.055.843-1.049s.822.352.825,1.07c0,.609.02,1.22-.008,1.828-.016.336.1.41.418.409,2.859-.013,5.718-.006,8.577-.011a3.07,3.07,0,0,0,.742-.075A2.411,2.411,0,0,0,36.4,43.662q0-9,0-18M5.193,3.263c.012.008.024.022.036.022q3.79.01,7.579.021c.267,0,.232-.111.145-.283A2.172,2.172,0,0,0,11.1,1.7c-1.338-.061-2.683-.052-4.022,0A2.14,2.14,0,0,0,5.193,3.263" transform="translate(0)" fill="#31313c"/>
        <path id="Trazado_154555" data-name="Trazado 154555" d="M25.7,74.563q4.073,0,8.146,0c.7,0,1.08.464.9,1.076a.7.7,0,0,1-.628.544,5.136,5.136,0,0,1-.56.024q-7.865,0-15.731,0a4.589,4.589,0,0,1-.514-.016.753.753,0,0,1-.719-.862.73.73,0,0,1,.775-.76c1.217-.014,2.435-.007,3.652-.007H25.7" transform="translate(-9.96 -44.764)" fill="#31313c"/>
        <path id="Trazado_154556" data-name="Trazado 154556" d="M55.515,82.819c1.609,0,3.217,0,4.825,0,.609,0,.917.281.925.812s-.3.841-.892.848c-1,.011-2,0-3,0q-3.35,0-6.7,0c-.564,0-.877-.214-.961-.63a.812.812,0,0,1,.881-1.03c1.639-.008,3.279,0,4.919,0" transform="translate(-29.833 -49.721)" fill="#31313c"/>
        <path id="Trazado_154557" data-name="Trazado 154557" d="M55.489,24.855q2.412,0,4.824,0c.649,0,.963.27.968.813s-.306.843-.947.844q-4.824.01-9.649,0c-.667,0-.986-.307-.968-.871.017-.536.328-.786.994-.786q2.389,0,4.778,0" transform="translate(-29.848 -14.922)" fill="#31313c"/>
        <path id="Trazado_154558" data-name="Trazado 154558" d="M22.336,82.821q2.413,0,4.825,0c.674,0,1,.281.994.84-.005.537-.329.821-.97.822q-4.825.005-9.65,0c-.635,0-.951-.3-.945-.844s.323-.816.968-.818c1.593,0,3.185,0,4.778,0" transform="translate(-9.96 -49.722)" fill="#31313c"/>
        <path id="Trazado_154559" data-name="Trazado 154559" d="M55.481,49.707c1.639,0,3.279,0,4.918,0a.788.788,0,0,1,.87.987.682.682,0,0,1-.556.615,2.849,2.849,0,0,1-.6.049q-4.613,0-9.227,0a3.35,3.35,0,0,1-.42-.017.762.762,0,0,1-.744-.846.746.746,0,0,1,.8-.787c.687-.015,1.374-.005,2.061-.006h2.9" transform="translate(-29.848 -29.84)" fill="#31313c"/>
        <path id="Trazado_154560" data-name="Trazado 154560" d="M55.508,67.9q-2.412,0-4.824,0c-.652,0-.963-.267-.968-.811s.3-.839.95-.84q4.847-.011,9.695,0c.634,0,.938.313.92.866-.017.523-.323.782-.948.784-1.608,0-3.216,0-4.824,0" transform="translate(-29.848 -39.77)" fill="#31313c"/>
        <path id="Trazado_154561" data-name="Trazado 154561" d="M55.48,43.063c-1.639,0-3.278.006-4.917,0a.811.811,0,0,1-.83-1.129c.165-.444.538-.516.953-.515q2.271,0,4.543,0c1.686,0,3.372,0,5.057,0,.66,0,.964.27.968.814s-.3.825-.9.827c-1.623.006-3.247,0-4.87,0" transform="translate(-29.819 -24.865)" fill="#31313c"/>
        <path id="Trazado_154562" data-name="Trazado 154562" d="M52.157,34.771c-.53,0-1.06.01-1.589,0a.827.827,0,1,1-.026-1.654q1.659-.027,3.319,0a.827.827,0,1,1-.021,1.653c-.56.016-1.122,0-1.682,0" transform="translate(-29.849 -19.872)" fill="#31313c"/>
        <path id="Trazado_154563" data-name="Trazado 154563" d="M68.742,34.773c-.53,0-1.059.008-1.589,0a.832.832,0,1,1,0-1.659q1.589-.017,3.177,0a.779.779,0,0,1,.882.854c-.011.51-.314.795-.882.805-.529.01-1.059,0-1.589,0" transform="translate(-39.781 -19.874)" fill="#31313c"/>
        <path id="Trazado_154564" data-name="Trazado 154564" d="M52.172,59.625c-.53,0-1.06.01-1.589,0a.83.83,0,1,1-.008-1.658q1.613-.019,3.225,0a.83.83,0,1,1,.008,1.658c-.545.014-1.09,0-1.636,0" transform="translate(-29.849 -34.794)" fill="#31313c"/>
        <path id="Trazado_154565" data-name="Trazado 154565" d="M68.705,57.964c.53,0,1.059-.006,1.589,0,.6.008.913.29.919.816s-.3.839-.891.844q-1.589.015-3.178,0a.792.792,0,0,1-.883-.815c-.008-.518.321-.833.9-.844.514-.01,1.028,0,1.542,0" transform="translate(-39.781 -34.798)" fill="#31313c"/>
        <path id="Trazado_154566" data-name="Trazado 154566" d="M68.754,74.563c.547,0,1.094-.01,1.641,0a.814.814,0,0,1,.05,1.626q-1.71.033-3.42,0a.746.746,0,0,1-.761-.829.765.765,0,0,1,.8-.793c.562-.015,1.125,0,1.687,0" transform="translate(-39.782 -44.763)" fill="#31313c"/>
      </g>
    </g>
  </g>
</svg>
