<svg id="Grupo_159141" data-name="Grupo 159141" xmlns="http://www.w3.org/2000/svg" width="371.558" height="372.755" viewBox="0 0 371.558 372.755">
  <g id="Grupo_159142" data-name="Grupo 159142">
    <path id="Trazado_156127" data-name="Trazado 156127" d="M101.437,63.741s34.931,5.23,40.325-28.231C147.505-.116,114.693-6.906,99.148,6.158S84.715,34.224,84.715,34.224s-8.919-9.84-20.726-.058c-8.664,7.18-5.931,20.628-5.931,20.628s-18.031-2.529-17.946,13.45A35.467,35.467,0,0,0,50.7,93.392Z" transform="translate(43.534 0)"/>
    <path id="Trazado_156128" data-name="Trazado 156128" d="M25.909,202.146,24.954,235s53.448,5.3,107.907,3.23a522.118,522.118,0,0,0,69.338-7.178V123.51H57.386Z" transform="translate(27.082 134.043)" fill="#fd9827"/>
    <path id="Trazado_156129" data-name="Trazado 156129" d="M123.084,72.069s-45.13.667-78.907,38.2S2.112,229.512,2.112,229.512L89.4,248.5l181.974-53.863s-31.834-71.079-60.965-100.6-87.33-21.975-87.33-21.975" transform="translate(2.292 77.279)" fill="#fd9827"/>
    <path id="Trazado_156130" data-name="Trazado 156130" d="M56.324,59.013,57.4,90.895s6.74,9.09,27.649,10.36c15.577.945,20.93-2.26,20.93-2.26L103.27,82.873,100.6,67.152,62.686,60.189Z" transform="translate(61.128 64.046)" fill="#f48462"/>
    <path id="Trazado_156131" data-name="Trazado 156131" d="M59.372,59.617a11.718,11.718,0,0,0,1.114,3.42c8.381,17.648,30.3,21.005,39.293,21.61L97.249,67.072Z" transform="translate(64.436 64.701)"/>
    <path id="Trazado_156132" data-name="Trazado 156132" d="M120.113,30.757S139.834,75.08,133,100.1s-29.611,21.243-43.257,16.505-20.021-13.041-20.021-13.041a19.2,19.2,0,0,1-21.274-7.371c-8.585-11.769-3.439-25.384,3.8-28.545s15.911,2.025,15.911,2.025L61.31,56.8s28.032-65.843,58.8-26.041" transform="translate(47.723 19.505)" fill="#f48462"/>
    <path id="Trazado_156133" data-name="Trazado 156133" d="M82.758,58.48A1.453,1.453,0,0,1,81.369,56.6c2.442-7.9-3.476-13.179-3.728-13.4a1.454,1.454,0,0,1,1.9-2.2c.313.269,7.618,6.713,4.6,16.459a1.452,1.452,0,0,1-1.389,1.026" transform="translate(83.721 44.11)"/>
    <path id="Trazado_156134" data-name="Trazado 156134" d="M61.709,60.954a1.441,1.441,0,0,1-1.057-.457L48.575,47.7a1.454,1.454,0,1,1,2.114-2L62.766,58.5a1.453,1.453,0,0,1-1.057,2.452" transform="translate(52.288 49.109)"/>
    <path id="Trazado_156135" data-name="Trazado 156135" d="M49.291,53.309a1.455,1.455,0,0,1-.217-2.892l8.354-1.266a1.454,1.454,0,1,1,.436,2.876L49.51,53.292a1.549,1.549,0,0,1-.219.017" transform="translate(51.92 53.326)"/>
    <path id="Trazado_156136" data-name="Trazado 156136" d="M71.735,52.265A1.451,1.451,0,0,1,70.3,51L68.832,39.535a1.454,1.454,0,1,1,2.884-.369l1.462,11.461a1.452,1.452,0,0,1-1.257,1.627,1.387,1.387,0,0,1-.186.013" transform="translate(74.69 41.126)"/>
    <path id="Trazado_156137" data-name="Trazado 156137" d="M83.643,51.12a1.454,1.454,0,0,1-1.437-1.243L80.55,38.625a1.454,1.454,0,0,1,2.878-.423l1.656,11.252A1.454,1.454,0,0,1,83.857,51.1a1.514,1.514,0,0,1-.215.017" transform="translate(87.403 40.109)"/>
    <path id="Trazado_156138" data-name="Trazado 156138" d="M67.078,39.1a1.435,1.435,0,0,1-.663-.163,1.452,1.452,0,0,1-.628-1.958c3.024-5.883,10.47-4.348,10.793-4.277a1.455,1.455,0,0,1-.613,2.844c-.254-.054-5.6-1.12-7.595,2.763a1.452,1.452,0,0,1-1.295.79" transform="translate(71.222 35.238)"/>
    <path id="Trazado_156139" data-name="Trazado 156139" d="M89.539,37.554a1.443,1.443,0,0,1-1.049-.446c-.148-.154-3.733-3.772-8.245-2.148a1.454,1.454,0,1,1-.991-2.734c6.327-2.29,11.135,2.659,11.338,2.869a1.454,1.454,0,0,1-1.053,2.459" transform="translate(84.97 34.32)"/>
    <path id="Trazado_156140" data-name="Trazado 156140" d="M93.686,85.946c-19.812,0-36-9.156-36.812-9.626A1.454,1.454,0,0,1,58.324,73.8c.231.133,23.505,13.273,47.538,7.939a1.456,1.456,0,0,1,.632,2.842,59.132,59.132,0,0,1-12.808,1.366" transform="translate(60.932 79.882)" fill="#fff"/>
    <path id="Trazado_156141" data-name="Trazado 156141" d="M83.847,60.444a18.522,18.522,0,0,1-13.46-6.654,1.454,1.454,0,0,1,2.2-1.9A15.462,15.462,0,0,0,83.9,57.535a1.475,1.475,0,0,1,1.491,1.416,1.452,1.452,0,0,1-1.408,1.491c-.017,0-.065,0-.133,0" transform="translate(76.006 55.769)"/>
    <path id="Trazado_156142" data-name="Trazado 156142" d="M57.867,71.45c7.18-1.024,13.709,1.735,13.988,3.174.978,4.992,7.317,6.692,7.64,1.043.573-9.972-7.92-12.061-7.92-12.061A45.848,45.848,0,0,0,96.1,51.677c11.486-10.71,14.449-15.21,14.449-15.21l16.524,9.7s18.2-32.95-27.751-30.7-46.56,38.465-46.56,38.465-12.731,3.063-11.9,9.674,8.543,13.621,8.543,13.621,1.337-4.761,8.454-5.776" transform="translate(44.312 16.666)"/>
    <path id="Trazado_156143" data-name="Trazado 156143" d="M132.36,137.487s7.269-9.35,23.334-16.046c25.053-10.441,43.13-11.89,43.13-11.89l-.432,14.024Z" transform="translate(143.648 118.893)" fill="#fff"/>
    <path id="Trazado_156144" data-name="Trazado 156144" d="M91.225,113.254l-.655,21.237L197.8,140.2s-3.653-11.945-33.767-19.489c-26.767-6.706-72.808-7.455-72.808-7.455" transform="translate(98.294 122.913)" fill="#fff"/>
    <path id="Trazado_156145" data-name="Trazado 156145" d="M252.107,113.6,248.37,234.966,185,247.836l-96.432-1.643,1.453-124.66,96.111,5.032Z" transform="translate(96.122 123.286)" fill="#ebc9b1"/>
    <path id="Trazado_156146" data-name="Trazado 156146" d="M135.886,120.149l-3.781,122.815,9.651-.809,3.787-123.007Z" transform="translate(143.372 129.309)" fill="#12263f"/>
    <path id="Trazado_156147" data-name="Trazado 156147" d="M190.549,150.732s21.639,5.958,13.285,15.037-48.969,7.722-51.367-4.838,38.081-10.2,38.081-10.2" transform="translate(165.359 163.396)" fill="#f48462"/>
    <path id="Trazado_156148" data-name="Trazado 156148" d="M190.763,141.829s21.639,5.958,13.285,15.037-48.969,7.722-51.367-4.838,38.081-10.2,38.081-10.2" transform="translate(165.591 153.733)" fill="#f48462"/>
    <path id="Trazado_156149" data-name="Trazado 156149" d="M179.366,133.75A28.467,28.467,0,0,1,194.43,135c4.2,1.629,7.666,4.406,4.709,9-5.916,9.177-41.537,14.115-45.522,3.526-2.947-7.834,15.792-12.086,25.749-13.769" transform="translate(166.381 144.645)" fill="#f48462"/>
    <path id="Trazado_156150" data-name="Trazado 156150" d="M158.012,145.748a1.455,1.455,0,0,1-.09-2.907l28.429-1.8a1.455,1.455,0,0,1,.184,2.9l-28.429,1.8c-.031,0-.063,0-.094,0" transform="translate(169.912 153.067)"/>
    <path id="Trazado_156151" data-name="Trazado 156151" d="M190.363,154.047l-31.248-.446a1.453,1.453,0,0,1-1.435-1.474,1.427,1.427,0,0,1,1.474-1.433l31.229.444a1.455,1.455,0,0,1-.021,2.909" transform="translate(171.128 163.544)"/>
    <path id="Trazado_156152" data-name="Trazado 156152" d="M154.866,265.7s-45.3,14.178-110.43,1.568C-22.682,254.274-1.852,161.556,29.423,123.4s64.75-48.944,64.75-48.944l-6.36,116.659,67.052,16.111Z" transform="translate(0 80.806)" fill="#fd9827"/>
    <path id="Trazado_156153" data-name="Trazado 156153" d="M66.534,195.089s17.765,9.265,41.752.724C137.561,185.386,92.352,136.1,92.352,136.1L65.867,154.346Z" transform="translate(71.484 147.707)" fill="#f48462"/>
    <path id="Trazado_156154" data-name="Trazado 156154" d="M90.427,154.631S70.6,165.145,80.724,172.2s49.478-3.1,49.09-15.879-39.387-1.685-39.387-1.685" transform="translate(84.483 162.97)" fill="#f48462"/>
    <path id="Trazado_156155" data-name="Trazado 156155" d="M88.284,145.987s-19.829,10.514-9.7,17.564,49.478-3.1,49.09-15.879-39.387-1.685-39.387-1.685" transform="translate(82.157 153.589)" fill="#f48462"/>
    <path id="Trazado_156156" data-name="Trazado 156156" d="M94.776,134.614A28.488,28.488,0,0,0,80.342,139.1c-3.749,2.5-6.525,5.968-2.642,9.805,7.768,7.674,43.612,4.759,45.2-6.444,1.176-8.287-18.04-8.368-28.124-7.849" transform="translate(82.292 145.9)" fill="#f48462"/>
    <path id="Trazado_156157" data-name="Trazado 156157" d="M82.491,148.172a1.455,1.455,0,0,1-.223-2.892l28.141-4.419a1.455,1.455,0,1,1,.45,2.876l-28.141,4.419a1.693,1.693,0,0,1-.227.017" transform="translate(87.948 152.859)"/>
    <path id="Trazado_156158" data-name="Trazado 156158" d="M84.575,158.525a1.454,1.454,0,0,1-.365-2.861l24.423-6.318a1.453,1.453,0,1,1,.73,2.813l-24.423,6.32a1.47,1.47,0,0,1-.365.046" transform="translate(90.21 162.029)"/>
    <path id="Trazado_156159" data-name="Trazado 156159" d="M108.324,166.323a1.465,1.465,0,0,1-1.453-1.506l.628-17.725c-7.361-2.167-50.762-14.7-79.454-17.783a1.454,1.454,0,0,1,.309-2.892c31.548,3.384,80.565,18.059,81.057,18.209a1.459,1.459,0,0,1,1.036,1.443l-.669,18.851a1.454,1.454,0,0,1-1.453,1.4" transform="translate(29.027 137.186)" fill="#fff"/>
    <path id="Trazado_156160" data-name="Trazado 156160" d="M60.19,146.193a1.46,1.46,0,0,1-.628-.144c-2.638-1.257-25.824-12.574-28.066-21.87a5.7,5.7,0,0,1,1-4.953,4.852,4.852,0,0,1,4.273-2.029c8.787.509,23.072,24.108,24.673,26.8a1.455,1.455,0,0,1-1.251,2.2M36.456,120.1a1.96,1.96,0,0,0-1.647.893,2.777,2.777,0,0,0-.484,2.507c1.33,5.52,13.694,13.187,21.864,17.571-6.045-9.319-14.9-20.694-19.587-20.965-.048,0-.1,0-.146,0" transform="translate(33.983 127.183)" fill="#fff"/>
  </g>
</svg>
